<?xml version="1.0" encoding="utf-8"?>
<!-- Generator: Adobe Illustrator 26.3.1, SVG Export Plug-In . SVG Version: 6.00 Build 0)  -->
<svg version="1.1" id="Слой_1" xmlns="http://www.w3.org/2000/svg" xmlns:xlink="http://www.w3.org/1999/xlink" x="0px" y="0px"
	 viewBox="0 0 296.5 335" style="enable-background:new 0 0 296.5 335;" xml:space="preserve">
<style type="text/css">
	.st0{fill:none;stroke:#FFFFFF;stroke-width:7;stroke-miterlimit:10;}
	.st1{fill:#7A7A7A;}
	.st2{fill:none;stroke:#A1A3A0;stroke-width:8;stroke-miterlimit:10;}
	.st3{fill-rule:evenodd;clip-rule:evenodd;fill:#A1A3A0;}
	.st4{fill:#E8BF7D;}
	.st5{fill:#BA9044;}
	.st6{fill:#756D56;}
	.st7{fill:#CFF0FF;}
	.st8{fill:#9CE1FF;}
	.st9{fill-rule:evenodd;clip-rule:evenodd;fill:#7A7A7A;}
	.st10{fill:#A1A3A0;}
</style>
<circle class="st0" cx="149.05" cy="134.34" r="126.38"/>
<g>
	<polygon class="st1" points="149.97,324.55 58.71,324.55 58.71,335.46 149.97,335.46 241.22,335.46 241.22,324.55 	"/>
</g>
<g>
	<polygon class="st1" points="112.91,226.57 79.01,327.79 88.44,331.52 122.34,230.3 156.24,129.08 146.8,125.35 	"/>
</g>
<g>
	<polygon class="st1" points="176.63,230.14 210.47,331.2 219.91,327.47 186.06,226.41 152.22,125.35 142.79,129.08 	"/>
</g>
<g>
	<line class="st2" x1="149.51" y1="5.21" x2="149.51" y2="134.79"/>
	<line class="st3" x1="149.51" y1="5.21" x2="149.51" y2="134.79"/>
</g>
<g>
	<line class="st2" x1="149.97" y1="135.25" x2="149.97" y2="264.83"/>
	<line class="st3" x1="149.97" y1="135.25" x2="149.97" y2="264.83"/>
</g>
<g>
	<line class="st2" x1="279.55" y1="134.67" x2="149.97" y2="134.67"/>
	<line class="st3" x1="279.55" y1="134.67" x2="149.97" y2="134.67"/>
</g>
<g>
	<line class="st2" x1="149.28" y1="134.69" x2="19.7" y2="134.69"/>
	<line class="st3" x1="149.28" y1="134.69" x2="19.7" y2="134.69"/>
</g>
<g>
	<line class="st2" x1="240.69" y1="42.53" x2="149.06" y2="134.15"/>
	<line class="st3" x1="240.69" y1="42.53" x2="149.06" y2="134.15"/>
</g>
<g>
	<line class="st2" x1="149.06" y1="134.8" x2="57.43" y2="226.43"/>
	<line class="st3" x1="149.06" y1="134.8" x2="57.43" y2="226.43"/>
</g>
<g>
	<line class="st2" x1="240.69" y1="226.11" x2="149.06" y2="134.48"/>
	<line class="st3" x1="240.69" y1="226.11" x2="149.06" y2="134.48"/>
</g>
<g>
	<line class="st2" x1="148.42" y1="134.48" x2="56.79" y2="42.85"/>
	<line class="st3" x1="148.42" y1="134.48" x2="56.79" y2="42.85"/>
</g>
<g>
	<circle class="st1" cx="149.51" cy="134.79" r="28.75"/>
</g>
<circle class="st0" cx="149.9" cy="136.11" r="72.14"/>
<rect x="222.63" y="242.87" class="st4" width="34.79" height="13.84"/>
<path class="st4" d="M245.43,271.1h-10.79c-6.6,0-12-5.4-12-12v-2.55h34.79v2.55C257.43,265.7,252.03,271.1,245.43,271.1z"/>
<path class="st5" d="M231.73,271.1c-2.61,0-4.74-2.13-4.74-4.74v-4.51h-4.35v4.51c0,2.61,2.13,4.74,4.74,4.74h5.53l0,0H231.73z"/>
<rect x="222.63" y="247.61" class="st6" width="34.79" height="16.6"/>
<path class="st7" d="M245.91,248.85h-11.62h-8.88c-0.88,0-1.59,0.71-1.59,1.59v10.87c0,0.88,0.71,1.59,1.59,1.59h8.88h11.62h8.74
	c0.88,0,1.59-0.71,1.59-1.59v-10.87c0-0.88-0.71-1.59-1.59-1.59H245.91z"/>
<rect x="222.63" y="242.87" class="st5" width="34.79" height="3.16"/>
<path class="st4" d="M240.03,230.09l-18.88,11.62c-1.27,0.78-0.72,2.74,0.77,2.74h36.21c1.49,0,2.04-1.96,0.77-2.74L240.03,230.09z"
	/>
<polygon class="st8" points="226.31,262.93 231.89,262.93 241.67,248.89 236.09,248.89 "/>
<polygon class="st8" points="241.8,262.99 245.41,262.99 255.19,248.94 251.58,248.94 "/>
<rect x="232.91" y="248.4" class="st6" width="1.58" height="14.63"/>
<rect x="245.17" y="248.8" class="st6" width="1.58" height="14.63"/>
<path class="st5" d="M243.35,232.18l-3.39-2.09l-21.57,13.27c-0.5,0.31-0.28,1.08,0.31,1.08h4.72L243.35,232.18z"/>
<g>
	<circle class="st9" cx="239.4" cy="225.14" r="9.13"/>
</g>
<circle class="st10" cx="149.89" cy="134.72" r="21.45"/>
<rect x="258.58" y="152.66" class="st4" width="34.79" height="13.84"/>
<path class="st4" d="M281.37,180.89h-10.79c-6.6,0-12-5.4-12-12v-2.55h34.79v2.55C293.37,175.49,287.97,180.89,281.37,180.89z"/>
<path class="st5" d="M267.67,180.89c-2.61,0-4.74-2.13-4.74-4.74v-4.51h-4.35v4.51c0,2.61,2.13,4.74,4.74,4.74h5.53l0,0H267.67z"/>
<rect x="258.58" y="157.4" class="st6" width="34.79" height="16.6"/>
<path class="st7" d="M281.85,158.64h-11.62h-8.88c-0.88,0-1.59,0.71-1.59,1.59v10.87c0,0.88,0.71,1.59,1.59,1.59h8.88h11.62h8.74
	c0.88,0,1.59-0.71,1.59-1.59v-10.87c0-0.88-0.71-1.59-1.59-1.59H281.85z"/>
<rect x="258.58" y="152.66" class="st5" width="34.79" height="3.16"/>
<path class="st4" d="M275.97,139.88l-18.88,11.62c-1.27,0.78-0.72,2.74,0.77,2.74h36.21c1.49,0,2.04-1.96,0.77-2.74L275.97,139.88z"
	/>
<polygon class="st8" points="262.25,172.72 267.84,172.72 277.62,158.68 272.03,158.68 "/>
<polygon class="st8" points="277.75,172.78 281.35,172.78 291.13,158.73 287.53,158.73 "/>
<rect x="268.86" y="158.19" class="st6" width="1.58" height="14.63"/>
<rect x="281.11" y="158.59" class="st6" width="1.58" height="14.63"/>
<path class="st5" d="M279.3,141.97l-3.39-2.09l-21.57,13.27c-0.5,0.31-0.28,1.08,0.31,1.08h4.72L279.3,141.97z"/>
<rect x="132.27" y="277.45" class="st4" width="34.79" height="13.84"/>
<path class="st4" d="M155.06,305.68h-10.79c-6.6,0-12-5.4-12-12v-2.55h34.79v2.55C167.06,300.28,161.66,305.68,155.06,305.68z"/>
<path class="st5" d="M141.36,305.68c-2.61,0-4.74-2.13-4.74-4.74v-4.51h-4.35v4.51c0,2.61,2.13,4.74,4.74,4.74h5.53l0,0H141.36z"/>
<rect x="132.27" y="282.2" class="st6" width="34.79" height="16.6"/>
<path class="st7" d="M155.55,283.44h-11.62h-8.88c-0.88,0-1.59,0.71-1.59,1.59v10.87c0,0.88,0.71,1.59,1.59,1.59h8.88h11.62h8.74
	c0.88,0,1.59-0.71,1.59-1.59v-10.87c0-0.88-0.71-1.59-1.59-1.59H155.55z"/>
<rect x="132.27" y="277.45" class="st5" width="34.79" height="3.16"/>
<path class="st4" d="M149.67,264.68l-18.88,11.62c-1.27,0.78-0.72,2.74,0.77,2.74h36.21c1.49,0,2.04-1.96,0.77-2.74L149.67,264.68z"
	/>
<polygon class="st8" points="135.95,297.52 141.53,297.52 151.31,283.48 145.73,283.48 "/>
<polygon class="st8" points="151.44,297.57 155.04,297.57 164.82,283.53 161.22,283.53 "/>
<rect x="142.55" y="282.99" class="st6" width="1.58" height="14.63"/>
<rect x="154.8" y="283.38" class="st6" width="1.58" height="14.63"/>
<path class="st5" d="M152.99,266.77l-3.39-2.09l-21.57,13.27c-0.5,0.31-0.28,1.08,0.31,1.08h4.72L152.99,266.77z"/>
<rect x="132.27" y="27.19" class="st4" width="34.79" height="13.84"/>
<path class="st4" d="M155.06,55.42h-10.79c-6.6,0-12-5.4-12-12v-2.55h34.79v2.55C167.06,50.02,161.66,55.42,155.06,55.42z"/>
<path class="st5" d="M141.36,55.42c-2.61,0-4.74-2.13-4.74-4.74v-4.51h-4.35v4.51c0,2.61,2.13,4.74,4.74,4.74h5.53l0,0H141.36z"/>
<rect x="132.27" y="31.93" class="st6" width="34.79" height="16.6"/>
<path class="st7" d="M155.55,33.18h-11.62h-8.88c-0.88,0-1.59,0.71-1.59,1.59v10.87c0,0.88,0.71,1.59,1.59,1.59h8.88h11.62h8.74
	c0.88,0,1.59-0.71,1.59-1.59V34.77c0-0.88-0.71-1.59-1.59-1.59H155.55z"/>
<rect x="132.27" y="27.19" class="st5" width="34.79" height="3.16"/>
<path class="st4" d="M149.67,14.42l-18.88,11.62c-1.27,0.78-0.72,2.74,0.77,2.74h36.21c1.49,0,2.04-1.96,0.77-2.74L149.67,14.42z"/>
<polygon class="st8" points="135.95,47.26 141.53,47.26 151.31,33.22 145.73,33.22 "/>
<polygon class="st8" points="151.44,47.31 155.04,47.31 164.82,33.27 161.22,33.27 "/>
<rect x="142.55" y="32.73" class="st6" width="1.58" height="14.63"/>
<rect x="154.8" y="33.12" class="st6" width="1.58" height="14.63"/>
<path class="st5" d="M152.99,16.51l-3.39-2.09l-21.57,13.27c-0.5,0.31-0.28,1.08,0.31,1.08h4.72L152.99,16.51z"/>
<rect x="43.31" y="241.87" class="st4" width="34.79" height="13.84"/>
<path class="st4" d="M66.11,270.1H55.31c-6.6,0-12-5.4-12-12v-2.55h34.79v2.55C78.11,264.7,72.71,270.1,66.11,270.1z"/>
<path class="st5" d="M52.41,270.1c-2.61,0-4.74-2.13-4.74-4.74v-4.51h-4.35v4.51c0,2.61,2.13,4.74,4.74,4.74h5.53l0,0H52.41z"/>
<rect x="43.31" y="246.61" class="st6" width="34.79" height="16.6"/>
<path class="st7" d="M66.59,247.86H54.97h-8.88c-0.88,0-1.59,0.71-1.59,1.59v10.87c0,0.88,0.71,1.59,1.59,1.59h8.88h11.62h8.74
	c0.88,0,1.59-0.71,1.59-1.59v-10.87c0-0.88-0.71-1.59-1.59-1.59H66.59z"/>
<rect x="43.31" y="241.87" class="st5" width="34.79" height="3.16"/>
<path class="st4" d="M60.71,229.1l-18.88,11.62c-1.27,0.78-0.72,2.74,0.77,2.74h36.21c1.49,0,2.04-1.96,0.77-2.74L60.71,229.1z"/>
<polygon class="st8" points="46.99,261.94 52.57,261.94 62.35,247.89 56.77,247.89 "/>
<polygon class="st8" points="62.48,261.99 66.09,261.99 75.87,247.95 72.26,247.95 "/>
<rect x="53.59" y="247.4" class="st6" width="1.58" height="14.63"/>
<rect x="65.85" y="247.8" class="st6" width="1.58" height="14.63"/>
<path class="st5" d="M64.03,231.18l-3.39-2.09l-21.57,13.27c-0.5,0.31-0.28,1.08,0.31,1.08h4.72L64.03,231.18z"/>
<rect x="5.36" y="153.7" class="st4" width="34.79" height="13.84"/>
<path class="st4" d="M28.15,181.93H17.36c-6.6,0-12-5.4-12-12v-2.55h34.79v2.55C40.15,176.53,34.75,181.93,28.15,181.93z"/>
<path class="st5" d="M14.45,181.93c-2.61,0-4.74-2.13-4.74-4.74v-4.51H5.36v4.51c0,2.61,2.13,4.74,4.74,4.74h5.53l0,0H14.45z"/>
<rect x="5.36" y="158.45" class="st6" width="34.79" height="16.6"/>
<path class="st7" d="M28.64,159.69H17.02H8.13c-0.88,0-1.59,0.71-1.59,1.59v10.87c0,0.88,0.71,1.59,1.59,1.59h8.88h11.62h8.74
	c0.88,0,1.59-0.71,1.59-1.59v-10.87c0-0.88-0.71-1.59-1.59-1.59H28.64z"/>
<rect x="5.36" y="153.7" class="st5" width="34.79" height="3.16"/>
<path class="st4" d="M22.76,140.93L3.88,152.55c-1.27,0.78-0.72,2.74,0.77,2.74h36.21c1.49,0,2.04-1.96,0.77-2.74L22.76,140.93z"/>
<polygon class="st8" points="9.04,173.77 14.62,173.77 24.4,159.73 18.82,159.73 "/>
<polygon class="st8" points="24.53,173.82 28.13,173.82 37.91,159.78 34.31,159.78 "/>
<rect x="15.64" y="159.24" class="st6" width="1.58" height="14.63"/>
<rect x="27.9" y="159.63" class="st6" width="1.58" height="14.63"/>
<path class="st5" d="M26.08,143.02l-3.39-2.09L1.12,154.2c-0.5,0.31-0.28,1.08,0.31,1.08h4.72L26.08,143.02z"/>
<rect x="42.13" y="63.56" class="st4" width="34.79" height="13.84"/>
<path class="st4" d="M64.92,91.79H54.13c-6.6,0-12-5.4-12-12v-2.55h34.79v2.55C76.92,86.39,71.52,91.79,64.92,91.79z"/>
<path class="st5" d="M51.22,91.79c-2.61,0-4.74-2.13-4.74-4.74v-4.51h-4.35v4.51c0,2.61,2.13,4.74,4.74,4.74h5.53l0,0H51.22z"/>
<rect x="42.13" y="68.31" class="st6" width="34.79" height="16.6"/>
<path class="st7" d="M65.41,69.55H53.79H44.9c-0.88,0-1.59,0.71-1.59,1.59v10.87c0,0.88,0.71,1.59,1.59,1.59h8.88h11.62h8.74
	c0.88,0,1.59-0.71,1.59-1.59V71.14c0-0.88-0.71-1.59-1.59-1.59H65.41z"/>
<rect x="42.13" y="63.56" class="st5" width="34.79" height="3.16"/>
<path class="st4" d="M59.52,50.79L40.64,62.41c-1.27,0.78-0.72,2.74,0.77,2.74h36.21c1.49,0,2.04-1.96,0.77-2.74L59.52,50.79z"/>
<polygon class="st8" points="45.8,83.63 51.39,83.63 61.17,69.59 55.59,69.59 "/>
<polygon class="st8" points="61.3,83.68 64.9,83.68 74.68,69.64 71.08,69.64 "/>
<rect x="52.41" y="69.1" class="st6" width="1.58" height="14.63"/>
<rect x="64.66" y="69.49" class="st6" width="1.58" height="14.63"/>
<g>
	<circle class="st9" cx="275.9" cy="134.34" r="9.13"/>
</g>
<path class="st5" d="M62.85,52.88l-3.39-2.09L37.89,64.06c-0.5,0.31-0.28,1.08,0.31,1.08h4.72L62.85,52.88z"/>
<rect x="220.83" y="63.56" class="st4" width="34.79" height="13.84"/>
<path class="st4" d="M243.62,91.79h-10.79c-6.6,0-12-5.4-12-12v-2.55h34.79v2.55C255.62,86.39,250.22,91.79,243.62,91.79z"/>
<path class="st5" d="M229.92,91.79c-2.61,0-4.74-2.13-4.74-4.74v-4.51h-4.35v4.51c0,2.61,2.13,4.74,4.74,4.74h5.53l0,0H229.92z"/>
<rect x="220.83" y="68.31" class="st6" width="34.79" height="16.6"/>
<path class="st7" d="M244.11,69.55h-11.62h-8.88c-0.88,0-1.59,0.71-1.59,1.59v10.87c0,0.88,0.71,1.59,1.59,1.59h8.88h11.62h8.74
	c0.88,0,1.59-0.71,1.59-1.59V71.14c0-0.88-0.71-1.59-1.59-1.59H244.11z"/>
<rect x="220.83" y="63.56" class="st5" width="34.79" height="3.16"/>
<path class="st4" d="M238.22,50.79l-18.88,11.62c-1.27,0.78-0.72,2.74,0.77,2.74h36.21c1.49,0,2.04-1.96,0.77-2.74L238.22,50.79z"/>
<polygon class="st8" points="224.51,83.63 230.09,83.63 239.87,69.59 234.29,69.59 "/>
<polygon class="st8" points="240,83.68 243.6,83.68 253.38,69.64 249.78,69.64 "/>
<rect x="231.11" y="69.1" class="st6" width="1.58" height="14.63"/>
<rect x="243.36" y="69.49" class="st6" width="1.58" height="14.63"/>
<path class="st5" d="M241.55,52.88l-3.39-2.09l-21.57,13.27c-0.5,0.31-0.28,1.08,0.31,1.08h4.72L241.55,52.88z"/>
<g>
	<circle class="st9" cx="238.11" cy="45.75" r="9.13"/>
</g>
<g>
	<circle class="st9" cx="149.97" cy="9.32" r="9.13"/>
</g>
<g>
	<circle class="st9" cx="149.97" cy="260.27" r="9.13"/>
</g>
<g>
	<circle class="st9" cx="23.12" cy="135.25" r="9.13"/>
</g>
<g>
	<circle class="st9" cx="60.66" cy="223.2" r="9.13"/>
</g>
<g>
	<ellipse class="st9" cx="59.37" cy="45.01" rx="9.13" ry="9.23"/>
</g>
</svg>
