<?xml version="1.0" encoding="utf-8"?>
<!-- Generator: Adobe Illustrator 26.3.1, SVG Export Plug-In . SVG Version: 6.00 Build 0)  -->
<svg version="1.1" id="Слой_1" xmlns="http://www.w3.org/2000/svg" xmlns:xlink="http://www.w3.org/1999/xlink" x="0px" y="0px"
	 viewBox="0 0 1839.92 1623.07" style="enable-background:new 0 0 1839.92 1623.07;" xml:space="preserve">
<style type="text/css">
	.st0{display:none;}
	.st1{display:inline;fill:#FDE9A0;}
	.st2{display:inline;fill:#FECE60;}
	.st3{display:inline;fill:#FFFBFF;}
	.st4{display:inline;fill:#6F3921;}
	.st5{display:inline;fill:none;stroke:#A1A3A0;stroke-miterlimit:10;}
	.st6{display:inline;fill:none;stroke:#7A7A7A;stroke-width:2;stroke-miterlimit:10;}
	.st7{display:inline;fill:#A1A3A0;stroke:#A1A3A0;stroke-miterlimit:10;}
	.st8{display:inline;fill:#A1A3A0;}
	.st9{display:inline;fill:none;stroke:#6F3921;stroke-width:4;stroke-miterlimit:10;}
	.st10{display:inline;fill:none;stroke:#FFFFFF;stroke-width:7;stroke-miterlimit:10;}
	.st11{display:inline;}
	.st12{fill:#7A7A7A;}
	.st13{fill:none;stroke:#A1A3A0;stroke-width:8;stroke-miterlimit:10;}
	.st14{fill:none;}
	.st15{display:inline;fill:#E8BF7D;}
	.st16{display:inline;fill:#BA9044;}
	.st17{display:inline;fill:#756D56;}
	.st18{display:inline;fill:#CFF0FF;}
	.st19{display:inline;fill:#9CE1FF;}
	.st20{fill-rule:evenodd;clip-rule:evenodd;fill:#7A7A7A;}
	.st21{display:inline;fill:none;stroke:#701809;stroke-width:3;stroke-miterlimit:10;}
	.st22{display:inline;fill:none;stroke:#701809;stroke-width:4;stroke-miterlimit:10;}
	.st23{display:inline;fill:none;stroke:#8B2009;stroke-width:6;stroke-miterlimit:10;}
	.st24{fill:#FFFFFF;}
	.st25{fill:#E24E2F;}
	.st26{fill:none;stroke:#797979;stroke-width:4;stroke-miterlimit:10;}
	.st27{display:inline;fill:#797979;}
	.st28{fill-rule:evenodd;clip-rule:evenodd;fill:#A5352D;}
	.st29{fill:#C6402A;}
	.st30{display:inline;fill:#878787;}
	.st31{fill:#A5352D;}
	.st32{display:inline;fill:#C6402A;}
	.st33{display:inline;fill:#F33040;}
	.st34{display:inline;fill:#F0E9D9;}
	.st35{display:inline;fill:none;stroke:#F0E9D9;stroke-width:4;stroke-miterlimit:10;}
	.st36{display:inline;fill:#3C1A1D;}
	.st37{display:inline;fill:#FFAC06;}
	.st38{display:inline;fill:none;stroke:#FFFFFF;stroke-width:8;stroke-miterlimit:10;}
	.st39{display:inline;fill:none;stroke:#F4BF67;stroke-width:3;stroke-miterlimit:10;}
	.st40{display:inline;fill:#F4BF67;}
	.st41{display:inline;fill:none;stroke:#C55250;stroke-width:3;stroke-miterlimit:10;}
	.st42{display:inline;fill:#C55250;}
	.st43{display:inline;fill:none;stroke:#474A56;stroke-width:3;stroke-miterlimit:10;}
	.st44{display:inline;fill:#474A56;}
	.st45{fill:#FFAC06;}
	.st46{display:inline;fill:none;stroke:#E2E1E0;stroke-width:3;stroke-miterlimit:10;}
	.st47{display:inline;fill:#E2940A;}
	.st48{fill:#E2E1E0;}
	.st49{fill:#D6D6D6;}
	.st50{fill:#63B2BA;}
	.st51{fill:#6CC4D2;}
	.st52{fill:#E7E8E6;}
	.st53{display:inline;fill:#FFFFFF;}
	.st54{display:inline;fill:#E7E8E6;}
	.st55{display:inline;fill:none;stroke:#FFFFFF;stroke-width:2;stroke-miterlimit:10;}
	.st56{display:inline;fill:#FE575F;}
	.st57{display:inline;fill:#200B12;}
	.st58{display:inline;fill:#FFF8E6;}
	.st59{display:inline;fill:#AA5511;}
	.st60{display:inline;fill:#FE1B2C;}
	.st61{display:inline;fill:#EA2F46;}
	.st62{display:inline;fill:#C52128;}
	.st63{fill:#93845B;}
	.st64{fill:#7A6A46;}
	.st65{fill:#66573A;}
	.st66{fill:#524522;}
	.st67{fill:#B0A700;}
	.st68{fill:#6F3921;}
	.st69{fill:#894022;}
	.st70{fill:#A6C835;}
	.st71{fill:#628414;}
	.st72{fill:#C7E44A;}
	.st73{fill:#A0BC29;}
	.st74{fill:#7D9617;}
	.st75{fill:#FDE9A0;}
	.st76{fill:none;stroke:#FFFFFF;stroke-width:2;stroke-miterlimit:10;}
	.st77{fill:#EF2034;}
</style>
<g id="shadows">
</g>
<g id="Слой_4" class="st0">
	<rect x="863.22" y="156.56" class="st1" width="24" height="682"/>
	<rect x="998.22" y="442.56" class="st1" width="24" height="84"/>
	<rect x="1010.22" y="828.56" class="st1" width="24" height="477"/>
	<rect x="823.22" y="1238.56" class="st1" width="24" height="84"/>
	<rect x="1122.22" y="742.56" class="st1" width="24" height="94"/>
	<rect x="1535.22" y="402.56" class="st1" width="24" height="112"/>
	<rect x="1380.22" y="750.56" class="st1" width="154" height="24"/>
	<rect x="262.22" y="914.56" class="st1" width="154" height="24"/>
	<rect x="1380.22" y="514.56" class="st1" width="24" height="550"/>
	<rect x="1119.22" y="227.56" class="st1" width="24" height="299"/>
	<rect x="736.22" y="507.56" class="st1" width="24" height="122"/>
	<rect x="541.22" y="442.56" class="st1" width="24" height="187"/>
	<rect x="392.22" y="284.56" class="st1" width="483" height="24"/>
	<rect x="392.22" y="607.56" class="st1" width="483" height="24"/>
	<rect x="393.22" y="1037.56" class="st1" width="264" height="24"/>
	<rect x="634.22" y="816.56" class="st1" width="758" height="24"/>
	<rect x="823.22" y="1299.56" class="st1" width="211" height="24"/>
	<rect x="863.22" y="502.56" class="st1" width="866" height="24"/>
	<rect x="871.22" y="227.56" class="st1" width="272" height="24"/>
	<rect x="392.22" y="284.56" class="st1" width="24" height="777"/>
	<rect x="633.22" y="816.56" class="st1" width="24" height="483"/>
	<rect x="949.23" y="372.36" class="st2" width="121.72" height="43.3"/>
	<rect x="960.61" y="372.36" class="st3" width="98.96" height="43.3"/>
	<rect x="971.93" y="372.36" class="st2" width="76.32" height="43.3"/>
	<rect x="982.38" y="372.36" class="st3" width="55.43" height="43.3"/>
	<rect x="994.57" y="372.36" class="st2" width="31.04" height="43.3"/>
	<rect x="1004.15" y="372.36" class="st3" width="11.89" height="43.3"/>
	<rect x="949.2" y="405.5" class="st4" width="121.63" height="10.69"/>
	<rect x="949.2" y="370.75" class="st4" width="121.63" height="6.68"/>
	<circle class="st5" cx="975.07" cy="414.13" r="15.78"/>
	<line class="st6" x1="975.16" y1="399.12" x2="975.16" y2="429.14"/>
	<line class="st6" x1="960.06" y1="414.22" x2="990.08" y2="414.22"/>
	<line class="st6" x1="967.55" y1="400.95" x2="982.56" y2="426.95"/>
	<line class="st6" x1="962.02" y1="421.59" x2="988.02" y2="406.58"/>
	<line class="st6" x1="988.23" y1="421.68" x2="962.24" y2="406.67"/>
	<line class="st6" x1="967.6" y1="427.21" x2="982.61" y2="401.21"/>
	<circle class="st5" cx="975.07" cy="414.13" r="15.01"/>
	<circle class="st7" cx="975.07" cy="414.13" r="6.29"/>
	<circle class="st8" cx="975.07" cy="414.13" r="2.42"/>
	<circle class="st5" cx="1044.67" cy="414.13" r="15.78"/>
	<line class="st6" x1="1044.77" y1="399.12" x2="1044.77" y2="429.14"/>
	<line class="st6" x1="1029.66" y1="414.22" x2="1059.68" y2="414.22"/>
	<line class="st6" x1="1037.16" y1="400.95" x2="1052.17" y2="426.95"/>
	<line class="st6" x1="1031.63" y1="421.59" x2="1057.63" y2="406.58"/>
	<line class="st6" x1="1057.84" y1="421.68" x2="1031.84" y2="406.67"/>
	<line class="st6" x1="1037.2" y1="427.21" x2="1052.21" y2="401.21"/>
	<circle class="st5" cx="1044.67" cy="414.13" r="15.01"/>
	<circle class="st7" cx="1044.67" cy="414.13" r="6.29"/>
	<circle class="st8" cx="1044.67" cy="414.13" r="2.42"/>
	<line class="st9" x1="955.96" y1="371.03" x2="955.96" y2="329.34"/>
	<line class="st9" x1="1064.56" y1="370.95" x2="1064.56" y2="329.26"/>
	<polygon class="st2" points="1083.33,329.34 936.82,329.34 954.22,305.26 1065.92,305.26 	"/>
	<polygon class="st3" points="1071.04,329.48 949.23,329.48 963.7,305.4 1056.57,305.4 	"/>
	<polygon class="st2" points="1056.25,329.48 964.02,329.48 974.98,305.4 1045.3,305.4 	"/>
	<polygon class="st3" points="1040.59,329.62 979.68,329.62 986.92,305.26 1033.35,305.26 	"/>
	<polygon class="st2" points="1027.54,329.62 992.81,329.62 996.93,305.26 1023.41,305.26 	"/>
	<polygon class="st3" points="1017.1,329.62 1004.39,329.62 1005.9,305.26 1015.59,305.26 	"/>
	<rect x="953.58" y="296.56" class="st4" width="113.11" height="8.7"/>
</g>
<g id="Слой_5" class="st0">
	<circle class="st10" cx="835.56" cy="1007.55" r="126.38"/>
	<g class="st11">
		<polygon class="st12" points="836.47,1197.76 745.22,1197.76 745.22,1208.67 836.47,1208.67 927.72,1208.67 927.72,1197.76 		"/>
	</g>
	<g class="st11">
		<polygon class="st12" points="799.41,1099.78 765.51,1201 774.94,1204.73 808.84,1103.51 842.74,1002.29 833.31,998.56 		"/>
	</g>
	<g class="st11">
		<polygon class="st12" points="863.13,1103.35 896.98,1204.41 906.41,1200.68 872.57,1099.62 838.72,998.56 829.29,1002.29 		"/>
	</g>
	<g class="st11">
		<line class="st13" x1="836.01" y1="878.42" x2="836.01" y2="1008.01"/>
		<line class="st14" x1="836.01" y1="878.42" x2="836.01" y2="1008.01"/>
	</g>
	<g class="st11">
		<line class="st13" x1="836.47" y1="1008.46" x2="836.47" y2="1138.04"/>
		<line class="st14" x1="836.47" y1="1008.46" x2="836.47" y2="1138.04"/>
	</g>
	<g class="st11">
		<line class="st13" x1="966.05" y1="1007.88" x2="836.47" y2="1007.88"/>
		<line class="st14" x1="966.05" y1="1007.88" x2="836.47" y2="1007.88"/>
	</g>
	<g class="st11">
		<line class="st13" x1="835.79" y1="1007.9" x2="706.2" y2="1007.9"/>
		<line class="st14" x1="835.79" y1="1007.9" x2="706.2" y2="1007.9"/>
	</g>
	<g class="st11">
		<line class="st13" x1="927.19" y1="915.74" x2="835.56" y2="1007.37"/>
		<line class="st14" x1="927.19" y1="915.74" x2="835.56" y2="1007.37"/>
	</g>
	<g class="st11">
		<line class="st13" x1="835.56" y1="1008.01" x2="743.94" y2="1099.64"/>
		<line class="st14" x1="835.56" y1="1008.01" x2="743.94" y2="1099.64"/>
	</g>
	<g class="st11">
		<line class="st13" x1="927.19" y1="1099.32" x2="835.56" y2="1007.69"/>
		<line class="st14" x1="927.19" y1="1099.32" x2="835.56" y2="1007.69"/>
	</g>
	<g class="st11">
		<line class="st13" x1="834.92" y1="1007.69" x2="743.29" y2="916.06"/>
		<line class="st14" x1="834.92" y1="1007.69" x2="743.29" y2="916.06"/>
	</g>
	<g class="st11">
		<circle class="st12" cx="836.01" cy="1008.01" r="28.75"/>
	</g>
	<circle class="st10" cx="836.4" cy="1009.33" r="72.14"/>
	<rect x="909.14" y="1116.08" class="st15" width="34.79" height="13.84"/>
	<path class="st15" d="M931.93,1144.31h-10.79c-6.6,0-12-5.4-12-12v-2.55h34.79v2.55C943.93,1138.91,938.53,1144.31,931.93,1144.31z
		"/>
	<path class="st16" d="M918.23,1144.31c-2.61,0-4.74-2.14-4.74-4.74v-4.51h-4.35v4.51c0,2.61,2.13,4.74,4.74,4.74h5.53l0,0H918.23z"
		/>
	<rect x="909.14" y="1120.82" class="st17" width="34.79" height="16.6"/>
	<path class="st18" d="M932.41,1122.07h-11.62h-8.88c-0.88,0-1.59,0.71-1.59,1.59v10.87c0,0.88,0.71,1.59,1.59,1.59h8.88h11.62h8.74
		c0.88,0,1.59-0.71,1.59-1.59v-10.87c0-0.88-0.71-1.59-1.59-1.59H932.41z"/>
	<rect x="909.14" y="1116.08" class="st16" width="34.79" height="3.16"/>
	<path class="st15" d="M926.53,1103.3l-18.88,11.62c-1.27,0.78-0.72,2.74,0.77,2.74h36.21c1.49,0,2.04-1.96,0.77-2.74L926.53,1103.3
		z"/>
	<polygon class="st19" points="912.81,1136.15 918.39,1136.15 928.17,1122.1 922.59,1122.1 	"/>
	<polygon class="st19" points="928.31,1136.2 931.91,1136.2 941.69,1122.15 938.09,1122.15 	"/>
	<rect x="919.42" y="1121.61" class="st17" width="1.58" height="14.63"/>
	<rect x="931.67" y="1122.01" class="st17" width="1.58" height="14.63"/>
	<path class="st16" d="M929.86,1105.39l-3.39-2.09l-21.57,13.27c-0.5,0.31-0.28,1.08,0.31,1.08h4.72L929.86,1105.39z"/>
	<g class="st11">
		<circle class="st20" cx="925.9" cy="1098.35" r="9.13"/>
	</g>
	<circle class="st8" cx="836.39" cy="1007.93" r="21.45"/>
	<rect x="945.08" y="1025.87" class="st15" width="34.79" height="13.84"/>
	<path class="st15" d="M967.87,1054.1h-10.79c-6.6,0-12-5.4-12-12v-2.55h34.79v2.55C979.87,1048.7,974.47,1054.1,967.87,1054.1z"/>
	<path class="st16" d="M954.17,1054.1c-2.61,0-4.74-2.13-4.74-4.74v-4.51h-4.35v4.51c0,2.61,2.13,4.74,4.74,4.74h5.53l0,0H954.17z"
		/>
	<rect x="945.08" y="1030.61" class="st17" width="34.79" height="16.6"/>
	<path class="st18" d="M968.36,1031.86h-11.62h-8.88c-0.88,0-1.59,0.71-1.59,1.59v10.87c0,0.88,0.71,1.59,1.59,1.59h8.88h11.62h8.74
		c0.88,0,1.59-0.71,1.59-1.59v-10.87c0-0.88-0.71-1.59-1.59-1.59H968.36z"/>
	<rect x="945.08" y="1025.87" class="st16" width="34.79" height="3.16"/>
	<path class="st15" d="M962.48,1013.1l-18.88,11.62c-1.27,0.78-0.72,2.74,0.77,2.74h36.21c1.49,0,2.04-1.96,0.77-2.74L962.48,1013.1
		z"/>
	<polygon class="st19" points="948.76,1045.94 954.34,1045.94 964.12,1031.89 958.54,1031.89 	"/>
	<polygon class="st19" points="964.25,1045.99 967.85,1045.99 977.63,1031.94 974.03,1031.94 	"/>
	<rect x="955.36" y="1031.4" class="st17" width="1.58" height="14.63"/>
	<rect x="967.61" y="1031.8" class="st17" width="1.58" height="14.63"/>
	<path class="st16" d="M965.8,1015.18l-3.39-2.09l-21.57,13.27c-0.5,0.31-0.28,1.08,0.31,1.08h4.72L965.8,1015.18z"/>
	<rect x="818.77" y="1150.66" class="st15" width="34.79" height="13.84"/>
	<path class="st15" d="M841.56,1178.89h-10.79c-6.6,0-12-5.4-12-12v-2.55h34.79v2.55C853.56,1173.49,848.16,1178.89,841.56,1178.89z
		"/>
	<path class="st16" d="M827.87,1178.89c-2.61,0-4.74-2.13-4.74-4.74v-4.51h-4.35v4.51c0,2.61,2.13,4.74,4.74,4.74h5.53l0,0H827.87z"
		/>
	<rect x="818.77" y="1155.41" class="st17" width="34.79" height="16.6"/>
	<path class="st18" d="M842.05,1156.65h-11.62h-8.88c-0.88,0-1.59,0.71-1.59,1.59v10.87c0,0.88,0.71,1.59,1.59,1.59h8.88h11.62h8.74
		c0.88,0,1.59-0.71,1.59-1.59v-10.87c0-0.88-0.71-1.59-1.59-1.59H842.05z"/>
	<rect x="818.77" y="1150.66" class="st16" width="34.79" height="3.16"/>
	<path class="st15" d="M836.17,1137.89l-18.88,11.62c-1.27,0.78-0.72,2.74,0.77,2.74h36.21c1.49,0,2.04-1.96,0.77-2.74
		L836.17,1137.89z"/>
	<polygon class="st19" points="822.45,1170.73 828.03,1170.73 837.81,1156.69 832.23,1156.69 	"/>
	<polygon class="st19" points="837.94,1170.78 841.55,1170.78 851.33,1156.74 847.72,1156.74 	"/>
	<rect x="829.05" y="1156.2" class="st17" width="1.58" height="14.63"/>
	<rect x="841.31" y="1156.59" class="st17" width="1.58" height="14.63"/>
	<path class="st16" d="M839.49,1139.98l-3.39-2.09l-21.57,13.27c-0.5,0.31-0.28,1.08,0.31,1.08h4.72L839.49,1139.98z"/>
	<rect x="818.77" y="900.4" class="st15" width="34.79" height="13.84"/>
	<path class="st15" d="M841.56,928.63h-10.79c-6.6,0-12-5.4-12-12v-2.55h34.79v2.55C853.56,923.23,848.16,928.63,841.56,928.63z"/>
	<path class="st16" d="M827.87,928.63c-2.61,0-4.74-2.14-4.74-4.74v-4.51h-4.35v4.51c0,2.61,2.13,4.74,4.74,4.74h5.53l0,0H827.87z"
		/>
	<rect x="818.77" y="905.15" class="st17" width="34.79" height="16.6"/>
	<path class="st18" d="M842.05,906.39h-11.62h-8.88c-0.88,0-1.59,0.71-1.59,1.59v10.87c0,0.88,0.71,1.59,1.59,1.59h8.88h11.62h8.74
		c0.88,0,1.59-0.71,1.59-1.59v-10.87c0-0.88-0.71-1.59-1.59-1.59H842.05z"/>
	<rect x="818.77" y="900.4" class="st16" width="34.79" height="3.16"/>
	<path class="st15" d="M836.17,887.63l-18.88,11.62c-1.27,0.78-0.72,2.74,0.77,2.74h36.21c1.49,0,2.04-1.95,0.77-2.74L836.17,887.63
		z"/>
	<polygon class="st19" points="822.45,920.47 828.03,920.47 837.81,906.43 832.23,906.43 	"/>
	<polygon class="st19" points="837.94,920.52 841.55,920.52 851.33,906.48 847.72,906.48 	"/>
	<rect x="829.05" y="905.94" class="st17" width="1.58" height="14.63"/>
	<rect x="841.31" y="906.33" class="st17" width="1.58" height="14.63"/>
	<path class="st16" d="M839.49,889.72l-3.39-2.09l-21.57,13.27c-0.5,0.31-0.28,1.08,0.31,1.08h4.72L839.49,889.72z"/>
	<rect x="729.82" y="1115.08" class="st15" width="34.79" height="13.84"/>
	<path class="st15" d="M752.61,1143.31h-10.79c-6.6,0-12-5.4-12-12v-2.55h34.79v2.55C764.61,1137.91,759.21,1143.31,752.61,1143.31z
		"/>
	<path class="st16" d="M738.91,1143.31c-2.61,0-4.74-2.13-4.74-4.74v-4.51h-4.35v4.51c0,2.61,2.13,4.74,4.74,4.74h5.54l0,0H738.91z"
		/>
	<rect x="729.82" y="1119.83" class="st17" width="34.79" height="16.6"/>
	<path class="st18" d="M753.09,1121.07h-11.62h-8.88c-0.88,0-1.59,0.71-1.59,1.59v10.87c0,0.88,0.71,1.59,1.59,1.59h8.88h11.62h8.74
		c0.88,0,1.59-0.71,1.59-1.59v-10.87c0-0.88-0.71-1.59-1.59-1.59H753.09z"/>
	<rect x="729.82" y="1115.08" class="st16" width="34.79" height="3.16"/>
	<path class="st15" d="M747.21,1102.31l-18.88,11.62c-1.27,0.78-0.72,2.74,0.77,2.74h36.21c1.49,0,2.04-1.96,0.77-2.74
		L747.21,1102.31z"/>
	<polygon class="st19" points="733.49,1135.15 739.08,1135.15 748.86,1121.11 743.27,1121.11 	"/>
	<polygon class="st19" points="748.99,1135.2 752.59,1135.2 762.37,1121.16 758.77,1121.16 	"/>
	<rect x="740.1" y="1120.62" class="st17" width="1.58" height="14.63"/>
	<rect x="752.35" y="1121.01" class="st17" width="1.58" height="14.63"/>
	<path class="st16" d="M750.54,1104.4l-3.39-2.09l-21.57,13.27c-0.5,0.31-0.28,1.08,0.31,1.08h4.72L750.54,1104.4z"/>
	<rect x="691.86" y="1026.92" class="st15" width="34.79" height="13.84"/>
	<path class="st15" d="M714.65,1055.15h-10.79c-6.6,0-12-5.4-12-12v-2.55h34.79v2.55C726.65,1049.75,721.25,1055.15,714.65,1055.15z
		"/>
	<path class="st16" d="M700.96,1055.15c-2.61,0-4.74-2.13-4.74-4.74v-4.51h-4.35v4.51c0,2.61,2.13,4.74,4.74,4.74h5.53l0,0H700.96z"
		/>
	<rect x="691.86" y="1031.66" class="st17" width="34.79" height="16.6"/>
	<path class="st18" d="M715.14,1032.9h-11.62h-8.88c-0.88,0-1.59,0.71-1.59,1.59v10.87c0,0.88,0.71,1.59,1.59,1.59h8.88h11.62h8.74
		c0.88,0,1.59-0.71,1.59-1.59v-10.87c0-0.88-0.71-1.59-1.59-1.59H715.14z"/>
	<rect x="691.86" y="1026.92" class="st16" width="34.79" height="3.16"/>
	<path class="st15" d="M709.26,1014.14l-18.88,11.62c-1.27,0.78-0.72,2.74,0.77,2.74h36.21c1.49,0,2.04-1.96,0.77-2.74
		L709.26,1014.14z"/>
	<polygon class="st19" points="695.54,1046.99 701.12,1046.99 710.9,1032.94 705.32,1032.94 	"/>
	<polygon class="st19" points="711.03,1047.04 714.64,1047.04 724.42,1032.99 720.81,1032.99 	"/>
	<rect x="702.14" y="1032.45" class="st17" width="1.58" height="14.63"/>
	<rect x="714.4" y="1032.85" class="st17" width="1.58" height="14.63"/>
	<path class="st16" d="M712.58,1016.23l-3.39-2.09l-21.57,13.27c-0.5,0.31-0.28,1.08,0.31,1.08h4.72L712.58,1016.23z"/>
	<rect x="728.63" y="936.78" class="st15" width="34.79" height="13.84"/>
	<path class="st15" d="M751.42,965.01h-10.79c-6.6,0-12-5.4-12-12v-2.55h34.79v2.55C763.42,959.61,758.02,965.01,751.42,965.01z"/>
	<path class="st16" d="M737.72,965.01c-2.61,0-4.74-2.13-4.74-4.74v-4.51h-4.35v4.51c0,2.61,2.13,4.74,4.74,4.74h5.53l0,0H737.72z"
		/>
	<rect x="728.63" y="941.52" class="st17" width="34.79" height="16.6"/>
	<path class="st18" d="M751.91,942.76h-11.62h-8.88c-0.88,0-1.59,0.71-1.59,1.59v10.87c0,0.88,0.71,1.59,1.59,1.59h8.88h11.62h8.74
		c0.88,0,1.59-0.71,1.59-1.59v-10.87c0-0.88-0.71-1.59-1.59-1.59H751.91z"/>
	<rect x="728.63" y="936.78" class="st16" width="34.79" height="3.16"/>
	<path class="st15" d="M746.03,924l-18.88,11.62c-1.27,0.78-0.72,2.74,0.77,2.74h36.21c1.49,0,2.04-1.96,0.77-2.74L746.03,924z"/>
	<polygon class="st19" points="732.31,956.84 737.89,956.84 747.67,942.8 742.09,942.8 	"/>
	<polygon class="st19" points="747.8,956.9 751.4,956.9 761.18,942.85 757.58,942.85 	"/>
	<rect x="738.91" y="942.31" class="st17" width="1.58" height="14.63"/>
	<rect x="751.17" y="942.71" class="st17" width="1.58" height="14.63"/>
	<g class="st11">
		<circle class="st20" cx="962.4" cy="1007.55" r="9.13"/>
	</g>
	<path class="st16" d="M749.35,926.09l-3.39-2.09l-21.57,13.27c-0.5,0.31-0.28,1.08,0.31,1.08h4.72L749.35,926.09z"/>
	<rect x="907.33" y="936.78" class="st15" width="34.79" height="13.84"/>
	<path class="st15" d="M930.12,965.01h-10.79c-6.6,0-12-5.4-12-12v-2.55h34.79v2.55C942.12,959.61,936.72,965.01,930.12,965.01z"/>
	<path class="st16" d="M916.43,965.01c-2.61,0-4.74-2.13-4.74-4.74v-4.51h-4.35v4.51c0,2.61,2.13,4.74,4.74,4.74h5.54l0,0H916.43z"
		/>
	<rect x="907.33" y="941.52" class="st17" width="34.79" height="16.6"/>
	<path class="st18" d="M930.61,942.76h-11.62h-8.88c-0.88,0-1.59,0.71-1.59,1.59v10.87c0,0.88,0.71,1.59,1.59,1.59h8.88h11.62h8.74
		c0.88,0,1.59-0.71,1.59-1.59v-10.87c0-0.88-0.71-1.59-1.59-1.59H930.61z"/>
	<rect x="907.33" y="936.78" class="st16" width="34.79" height="3.16"/>
	<path class="st15" d="M924.73,924l-18.88,11.62c-1.27,0.78-0.72,2.74,0.77,2.74h36.21c1.49,0,2.04-1.96,0.77-2.74L924.73,924z"/>
	<polygon class="st19" points="911.01,956.84 916.59,956.84 926.37,942.8 920.79,942.8 	"/>
	<polygon class="st19" points="926.5,956.9 930.11,956.9 939.89,942.85 936.28,942.85 	"/>
	<rect x="917.61" y="942.31" class="st17" width="1.58" height="14.63"/>
	<rect x="929.87" y="942.71" class="st17" width="1.58" height="14.63"/>
	<path class="st16" d="M928.05,926.09l-3.39-2.09l-21.57,13.27c-0.5,0.31-0.28,1.08,0.31,1.08h4.72L928.05,926.09z"/>
	<g class="st11">
		<circle class="st20" cx="924.61" cy="918.97" r="9.13"/>
	</g>
	<g class="st11">
		<circle class="st20" cx="836.47" cy="882.53" r="9.13"/>
	</g>
	<g class="st11">
		<circle class="st20" cx="836.47" cy="1133.48" r="9.13"/>
	</g>
	<g class="st11">
		<circle class="st20" cx="709.63" cy="1008.46" r="9.13"/>
	</g>
	<g class="st11">
		<circle class="st20" cx="747.16" cy="1096.41" r="9.13"/>
	</g>
	<g class="st11">
		<ellipse class="st20" cx="745.87" cy="918.22" rx="9.13" ry="9.23"/>
	</g>
</g>
<g id="Слой_6" class="st0">
	<line class="st21" x1="1721.06" y1="256.9" x2="1721.06" y2="353.29"/>
	<line class="st21" x1="1748.22" y1="271.56" x2="1748.22" y2="348.56"/>
	<line class="st21" x1="1692.99" y1="249.39" x2="1692.99" y2="353.39"/>
	<line class="st21" x1="1664.92" y1="246.33" x2="1664.92" y2="353.39"/>
	<line class="st21" x1="1636.84" y1="248.3" x2="1636.84" y2="353.39"/>
	<line class="st21" x1="1608.77" y1="254.43" x2="1608.77" y2="353.39"/>
	<line class="st21" x1="1580.7" y1="264.42" x2="1580.7" y2="353.39"/>
	<line class="st21" x1="1580.7" y1="261.55" x2="1580.7" y2="353.29"/>
	<line class="st21" x1="1552.62" y1="267.88" x2="1552.62" y2="353.29"/>
	<line class="st21" x1="1524.55" y1="269.46" x2="1524.55" y2="353.29"/>
	<line class="st21" x1="1496.51" y1="266.84" x2="1496.51" y2="355.81"/>
	<line class="st21" x1="1468.4" y1="264.42" x2="1468.4" y2="353.39"/>
	<line class="st21" x1="1468.43" y1="254.43" x2="1468.4" y2="353.29"/>
	<line class="st21" x1="1440.33" y1="264.42" x2="1440.33" y2="353.39"/>
	<line class="st21" x1="1440.33" y1="210.58" x2="1440.33" y2="353.29"/>
	<line class="st21" x1="1412.25" y1="264.42" x2="1412.25" y2="353.39"/>
	<line class="st21" x1="1412.22" y1="181.75" x2="1412.25" y2="353.29"/>
	<line class="st21" x1="1384.18" y1="264.42" x2="1384.18" y2="353.39"/>
	<line class="st21" x1="1384.18" y1="235.05" x2="1384.18" y2="353.39"/>
	<line class="st21" x1="1356.11" y1="278.55" x2="1356.11" y2="353.39"/>
	<line class="st21" x1="1328.11" y1="286.97" x2="1328.11" y2="355.76"/>
	<path class="st22" d="M1308.11,423.94"/>
	<path class="st22" d="M1308.62,365.79"/>
	<path class="st21" d="M1721.22,284.56c0,0-20.14-14.25-71.91-11.6c-23.16,1.19-84.48,21.02-102.05,22.14
		c-33.26,2.14-76.34,0.3-106.93-38.2c-21.21-26.69-48.46-8.7-56.05,21.75c-5.94,23.84-8.88,25.45-29.66,27.23"/>
	<line class="st21" x1="1440.22" y1="256.11" x2="1412.9" y2="182.24"/>
	<line class="st21" x1="1384.9" y1="276.48" x2="1411.47" y2="181.99"/>
	<line class="st21" x1="1440.22" y1="256.11" x2="1468.43" y2="254.43"/>
	<line class="st21" x1="1496.37" y1="292.1" x2="1468.43" y2="254.43"/>
	<line class="st21" x1="1524.45" y1="269.56" x2="1496.37" y2="292.1"/>
	<line class="st21" x1="1552.72" y1="294.47" x2="1524.45" y2="269.56"/>
	<line class="st21" x1="1580.8" y1="261.45" x2="1552.72" y2="294.47"/>
	<line class="st21" x1="1608.87" y1="280.83" x2="1580.8" y2="261.45"/>
	<line class="st21" x1="1636.95" y1="248.4" x2="1608.87" y2="280.83"/>
	<line class="st21" x1="1665.02" y1="272.92" x2="1636.95" y2="248.2"/>
	<line class="st21" x1="1693.09" y1="249.39" x2="1665.02" y2="272.92"/>
	<line class="st21" x1="1721.17" y1="284.19" x2="1693.09" y2="249.39"/>
	<line class="st21" x1="1384.28" y1="278.65" x2="1356" y2="278.46"/>
	<path class="st22" d="M1356,278.46"/>
	<path class="st22" d="M1337.05,375.9"/>
	<path class="st23" d="M1328.62,355.54c-47-1.18-44.99-70.37,9.23-69.16c26.77,0.59,48.99-48.41,52.44-79.52
		c3.52-31.67,41.02-35.22,49.42,0c13.07,54.79,53.07,68.34,107.58,61.62c17.47-2.15,78.89-20.96,102.05-22.14
		c51.77-2.65,71.12,6.17,89.96,19.38c16.92,11.84,32.92,29.84,33.92,43.84c1.7,23.74-17,44-37.6,43.61l-409,2.36"/>
</g>
<g id="Слой_9" class="st0">
	<g class="st11">
		<rect x="54.72" y="961.26" class="st24" width="196.97" height="3.75"/>
		<polygon class="st24" points="253.89,959.06 153.21,959.06 52.52,959.06 52.52,967.2 153.21,967.2 253.89,967.2 		"/>
	</g>
	<g class="st11">
		
			<rect x="39.33" y="877.84" transform="matrix(0.2588 -0.9659 0.9659 0.2588 -758.7724 769.981)" class="st24" width="166.02" height="3.14"/>
		<polygon class="st24" points="140.57,795.77 118.43,878.37 96.3,960.96 104.17,963.07 126.3,880.47 148.43,797.88 		"/>
	</g>
	<g class="st11">
		
			<rect x="182.99" y="794.74" transform="matrix(0.9659 -0.2588 0.2588 0.9659 -221.0624 77.6955)" class="st24" width="3.14" height="167.43"/>
		<polygon class="st24" points="166.15,794.16 158.28,796.27 180.6,879.55 202.91,962.83 210.78,960.72 188.46,877.44 		"/>
	</g>
	<g class="st11">
		<path class="st25" d="M209.66,926.77c0-6.62,5.29-12.06,12.05-12.69v-0.06l7.87-0.35l4.18-12.65H76.07l0,0
			c0,21.26,30.11,38.5,52.39,38.5H217l0.02-0.06C208.61,935.02,209.66,929.02,209.66,926.77z"/>
	</g>
	<g class="st11">
		<line class="st26" x1="131.74" y1="813.6" x2="174.9" y2="813.6"/>
	</g>
	<g class="st11">
		<line class="st26" x1="179.35" y1="821.81" x2="127.3" y2="821.68"/>
	</g>
	<g class="st11">
		<line class="st26" x1="82.14" y1="903.53" x2="142.1" y2="796.19"/>
	</g>
	<g class="st11">
		<line class="st26" x1="224.86" y1="903.45" x2="164.89" y2="796.1"/>
	</g>
	<circle class="st27" cx="153.58" cy="788.41" r="14.66"/>
	<g class="st11">
		<rect x="51.27" y="901.02" class="st28" width="36.28" height="2.22"/>
	</g>
	<circle class="st27" cx="223.91" cy="901.68" r="3.62"/>
	<g class="st11">
		<path class="st29" d="M76.63,901.38l-0.29,3.66c3.57,19.49,31.24,34.66,52.08,34.66h88.67l0.02-0.06
			c-3.52-1.88-5.38-4.03-6.36-6.06c-20.9-0.04-63.34-0.18-86.19-0.73C93.47,932.12,76.63,901.38,76.63,901.38z"/>
	</g>
	<circle class="st30" cx="228.5" cy="911.92" r="1.93"/>
	<g class="st11">
		<path class="st29" d="M222.1,913.83h7.99l3.89-12.54l-0.11-0.46l-12.52,13.16c0.25-0.04,0.49-0.08,0.74-0.1L222.1,913.83
			L222.1,913.83z"/>
	</g>
	<g class="st11">
		<path class="st31" d="M100.13,906.2v-5.18H75.92c0,1.76,0.2,3.49,0.58,5.18H100.13z"/>
	</g>
	<g class="st11">
		<path class="st29" d="M227.47,913.61c-1.87-0.96-4.04-0.74-6.29-0.74c-7.56,0-13.7,6.13-13.7,13.7c0,5.57,3.33,10.35,8.1,12.49
			c-6.57-4.34-5.67-9.7-5.67-11.8c0-6.68,4.87-12.27,11.64-12.9C221.54,914.35,226.73,913.61,227.47,913.61z"/>
	</g>
	<circle class="st27" cx="83.25" cy="901.68" r="3.62"/>
	<path class="st32" d="M218.78,913.08c0,0,5.37-2.2,7.77-4.54c2.4-2.33-0.56,3.59-0.56,3.59l-5.7,1.58"/>
	<circle class="st30" cx="153.92" cy="788.36" r="9.88"/>
	<circle class="st30" cx="83.2" cy="901.83" r="2.29"/>
</g>
<g id="Слой_8" class="st0">
	<path class="st33" d="M1177.07,480.74c0,0-35.47,84.23-102.32,126.8h102.32h102.32C1212.55,564.97,1177.07,480.74,1177.07,480.74z"
		/>
	<path class="st34" d="M1177.07,480.74c0,0-28.52,84.23-82.27,126.8h82.27h82.27C1205.6,564.97,1177.07,480.74,1177.07,480.74z"/>
	<path class="st33" d="M1177.15,480.74c0,0-20.85,84.23-60.14,126.8h60.14h60.14C1198,564.97,1177.15,480.74,1177.15,480.74z"/>
	<path class="st34" d="M1177.15,480.74c0,0-12.86,84.23-37.09,126.8h37.09h37.09C1190.01,564.97,1177.15,480.74,1177.15,480.74z"/>
	<path class="st33" d="M1177.15,480.74c0,0-5.56,84.23-16.04,126.8h16.04h16.04C1182.71,564.97,1177.15,480.74,1177.15,480.74z"/>
	<path class="st33" d="M1193.19,458.92l-16.04-4.4v15.71l16.04-4.4C1196.71,464.87,1196.71,459.88,1193.19,458.92z"/>
	<line class="st35" x1="1176.97" y1="480.94" x2="1176.97" y2="448.76"/>
	<circle class="st33" cx="1177.21" cy="484.45" r="6"/>
	<circle class="st33" cx="1177.21" cy="451.71" r="4.15"/>
	<path class="st33" d="M1133.47,552.64c-28.7-36.5-43.6-71.89-43.6-71.89s-35.47,84.23-102.32,126.8h102.32h43.6V552.64z"/>
	<path class="st34" d="M1133.47,565.42c-28.65-40.53-43.6-84.68-43.6-84.68s-28.52,84.23-82.27,126.8h82.27h43.6V565.42z"/>
	<path class="st33" d="M1133.47,585.7c-28.53-44.37-43.52-104.96-43.52-104.96s-20.85,84.23-60.14,126.8h60.14h43.52V585.7z"/>
	<path class="st34" d="M1089.95,480.74c0,0-12.86,84.23-37.09,126.8h37.09h37.09C1102.8,564.97,1089.95,480.74,1089.95,480.74z"/>
	<path class="st33" d="M1089.95,480.74c0,0-5.56,84.23-16.04,126.8h16.04h16.04C1095.51,564.97,1089.95,480.74,1089.95,480.74z"/>
	<path class="st33" d="M1105.98,458.92l-16.04-4.4v15.71l16.04-4.4C1109.5,464.87,1109.5,459.88,1105.98,458.92z"/>
	<path class="st35" d="M1089.76,480.94v-32.18V480.94z"/>
	<circle class="st33" cx="1090" cy="483.1" r="6"/>
	<circle class="st33" cx="1090" cy="451.71" r="4.15"/>
	<rect x="998.25" y="622.44" class="st33" width="270.4" height="77.49"/>
	<rect x="1013.95" y="622.44" class="st34" width="239" height="77.49"/>
	<rect x="1029.65" y="622.44" class="st33" width="207.6" height="77.49"/>
	<rect x="1046.13" y="622.44" class="st34" width="174.64" height="77.49"/>
	<rect x="1061.05" y="622.44" class="st33" width="144.81" height="77.49"/>
	<rect x="1078.31" y="622.44" class="st34" width="110.28" height="77.49"/>
	<rect x="1095.78" y="622.44" class="st33" width="74.96" height="77.49"/>
	<rect x="1110.89" y="622.44" class="st34" width="45.52" height="77.49"/>
	<path class="st33" d="M1262.28,624.33h-257.61c-9.41,0-17.04-7.63-17.04-17.04l0,0h291.69l0,0
		C1279.32,616.7,1271.69,624.33,1262.28,624.33z"/>
	<rect x="1127.37" y="622.44" class="st33" width="12.56" height="77.49"/>
	<rect x="998.15" y="696.14" class="st33" width="270.07" height="13.42"/>
	<path class="st36" d="M1132.62,652.4c-5.25,49.06-16.95,57.3-16.65,57.16h16.19h0.09h17.03
		C1149.57,709.7,1137.87,701.47,1132.62,652.4z"/>
	<polygon class="st33" points="1135.22,607.56 1132.22,607.56 1132.22,587.56 1133.22,586.56 1135.22,587.56 	"/>
	<polygon class="st34" points="1132.22,566.18 1134.86,566.18 1134.86,581.74 1133.54,585.08 1132.22,581.56 	"/>
</g>
<g id="Слой_11" class="st0">
	<g class="st11">
		<polygon class="st24" points="747.73,478.83 692.34,478.83 692.34,484.32 747.73,484.32 803.11,484.32 803.11,478.83 		"/>
		<polygon class="st24" points="803.11,478.83 747.73,478.83 692.34,478.83 692.34,484.32 747.73,484.32 803.11,484.32 		"/>
	</g>
	<path class="st37" d="M748.37,337.7c0,0-24.39,43.42-70.35,65.36h70.35h70.35C772.76,381.12,748.37,337.7,748.37,337.7z"/>
	<line class="st38" x1="747.73" y1="408.48" x2="747.73" y2="481.32"/>
	<line class="st39" x1="806.81" y1="412.62" x2="819.52" y2="460.35"/>
	<line class="st39" x1="806.2" y1="412.81" x2="808.7" y2="462.14"/>
	<path class="st40" d="M820.77,462.06l-12.7,1.99c-0.64,0.1-1.25-0.34-1.35-0.98l-0.06-0.38c-0.1-0.64,0.34-1.25,0.98-1.35
		l12.7-1.99c0.64-0.1,1.25,0.34,1.35,0.98l0.06,0.38C821.86,461.35,821.41,461.96,820.77,462.06z"/>
	<line class="st41" x1="689.39" y1="412.8" x2="676.68" y2="460.53"/>
	<line class="st41" x1="690" y1="412.99" x2="687.49" y2="462.32"/>
	<path class="st42" d="M675.42,462.24l12.7,1.99c0.64,0.1,1.25-0.34,1.35-0.98l0.06-0.38c0.1-0.64-0.34-1.25-0.98-1.35l-12.7-1.99
		c-0.64-0.1-1.25,0.34-1.35,0.98l-0.06,0.38C674.34,461.53,674.78,462.14,675.42,462.24z"/>
	<line class="st39" x1="717.04" y1="412.72" x2="706.91" y2="466.17"/>
	<line class="st39" x1="717.04" y1="412.47" x2="717.82" y2="467.28"/>
	<path class="st40" d="M705.77,467.96l12.8,1.18c0.65,0.06,1.22-0.42,1.28-1.07l0.04-0.38c0.06-0.65-0.42-1.22-1.07-1.28l-12.8-1.18
		c-0.65-0.06-1.22,0.42-1.28,1.07l-0.04,0.38C704.64,467.32,705.12,467.9,705.77,467.96z"/>
	<line class="st43" x1="779.33" y1="412.87" x2="789.46" y2="466.33"/>
	<line class="st43" x1="779.33" y1="412.62" x2="778.55" y2="467.43"/>
	<path class="st44" d="M790.6,468.11l-12.8,1.18c-0.65,0.06-1.22-0.42-1.28-1.07l-0.04-0.38c-0.06-0.65,0.42-1.22,1.07-1.28
		l12.8-1.18c0.65-0.06,1.22,0.42,1.28,1.07l0.04,0.38C791.73,467.47,791.25,468.05,790.6,468.11z"/>
	<line class="st43" x1="735.01" y1="413.22" x2="726.36" y2="451.21"/>
	<line class="st43" x1="735.01" y1="411.22" x2="737.26" y2="452.32"/>
	<path class="st44" d="M725.22,453l12.8,1.18c0.65,0.06,1.22-0.42,1.28-1.07l0.04-0.38c0.06-0.65-0.42-1.22-1.07-1.28l-12.8-1.18
		c-0.65-0.06-1.22,0.42-1.28,1.07l-0.04,0.38C724.09,452.36,724.57,452.94,725.22,453z"/>
	<line class="st41" x1="761.41" y1="413.86" x2="770.05" y2="451.86"/>
	<line class="st41" x1="761.41" y1="411.86" x2="759.15" y2="452.96"/>
	<g class="st11">
		<path class="st45" d="M676.02,428.79c-0.83,0-1.51-0.68-1.51-1.51s0.68-1.51,1.51-1.51s1.51,0.68,1.51,1.51
			S676.86,428.79,676.02,428.79z"/>
		<path class="st45" d="M676.02,423.78c-1.93,0-3.5,1.57-3.5,3.5s1.57,3.5,3.5,3.5s3.5-1.57,3.5-3.5S677.96,423.78,676.02,423.78
			L676.02,423.78z"/>
	</g>
	<g class="st11">
		<path class="st45" d="M689.85,412.98c-1.38,0-2.5-1.12-2.5-2.51s1.12-2.51,2.5-2.51s2.51,1.12,2.51,2.51
			S691.23,412.98,689.85,412.98z"/>
		<path class="st45" d="M689.85,409.95c0.29,0,0.52,0.23,0.52,0.52s-0.23,0.52-0.52,0.52s-0.52-0.23-0.52-0.52
			S689.56,409.95,689.85,409.95 M689.85,405.98c-2.48,0-4.49,2.01-4.49,4.49s2.01,4.49,4.49,4.49s4.49-2.01,4.49-4.49
			S692.33,405.98,689.85,405.98L689.85,405.98z"/>
	</g>
	<line class="st46" x1="749.75" y1="408.21" x2="749.75" y2="483.01"/>
	<g class="st11">
		<circle class="st45" cx="698.83" cy="410.47" r="2.51"/>
		<path class="st45" d="M698.83,409.95c0.29,0,0.52,0.23,0.52,0.52s-0.23,0.52-0.52,0.52c-0.29,0-0.52-0.23-0.52-0.52
			S698.54,409.95,698.83,409.95 M698.83,405.98c-2.48,0-4.49,2.01-4.49,4.49s2.01,4.49,4.49,4.49s4.49-2.01,4.49-4.49
			S701.31,405.98,698.83,405.98L698.83,405.98z"/>
	</g>
	<g class="st11">
		<circle class="st45" cx="707.81" cy="410.47" r="2.51"/>
		<path class="st45" d="M707.81,409.95c0.29,0,0.52,0.23,0.52,0.52s-0.23,0.52-0.52,0.52s-0.52-0.23-0.52-0.52
			S707.53,409.95,707.81,409.95 M707.81,405.98c-2.48,0-4.49,2.01-4.49,4.49s2.01,4.49,4.49,4.49s4.49-2.01,4.49-4.49
			S710.29,405.98,707.81,405.98L707.81,405.98z"/>
	</g>
	<g class="st11">
		<path class="st45" d="M716.79,412.98c-1.38,0-2.5-1.12-2.5-2.51s1.12-2.51,2.5-2.51s2.51,1.12,2.51,2.51
			S718.17,412.98,716.79,412.98z"/>
		<path class="st45" d="M716.79,409.95c0.29,0,0.52,0.23,0.52,0.52s-0.23,0.52-0.52,0.52s-0.52-0.23-0.52-0.52
			S716.51,409.95,716.79,409.95 M716.79,405.98c-2.48,0-4.49,2.01-4.49,4.49s2.01,4.49,4.49,4.49s4.49-2.01,4.49-4.49
			S719.27,405.98,716.79,405.98L716.79,405.98z"/>
	</g>
	<g class="st11">
		<circle class="st45" cx="725.77" cy="410.47" r="2.51"/>
		<path class="st45" d="M725.77,409.95c0.29,0,0.52,0.23,0.52,0.52s-0.23,0.52-0.52,0.52s-0.52-0.23-0.52-0.52
			S725.49,409.95,725.77,409.95 M725.77,405.98c-2.48,0-4.49,2.01-4.49,4.49s2.01,4.49,4.49,4.49s4.49-2.01,4.49-4.49
			S728.25,405.98,725.77,405.98L725.77,405.98z"/>
	</g>
	<g class="st11">
		<circle class="st45" cx="734.76" cy="410.47" r="2.51"/>
		<path class="st45" d="M734.76,409.95c0.29,0,0.52,0.23,0.52,0.52s-0.23,0.52-0.52,0.52c-0.29,0-0.52-0.23-0.52-0.52
			S734.47,409.95,734.76,409.95 M734.76,405.98c-2.48,0-4.49,2.01-4.49,4.49s2.01,4.49,4.49,4.49s4.49-2.01,4.49-4.49
			S737.24,405.98,734.76,405.98L734.76,405.98z"/>
	</g>
	<g class="st11">
		<path class="st45" d="M743.74,412.98c-1.38,0-2.51-1.12-2.51-2.51s1.12-2.51,2.51-2.51c1.38,0,2.5,1.12,2.5,2.51
			S745.12,412.98,743.74,412.98z"/>
		<path class="st45" d="M743.74,409.95c0.29,0,0.52,0.23,0.52,0.52s-0.23,0.52-0.52,0.52s-0.52-0.23-0.52-0.52
			S743.45,409.95,743.74,409.95 M743.74,405.98c-2.48,0-4.49,2.01-4.49,4.49s2.01,4.49,4.49,4.49s4.49-2.01,4.49-4.49
			S746.22,405.98,743.74,405.98L743.74,405.98z"/>
	</g>
	<g class="st11">
		<circle class="st45" cx="752.72" cy="410.47" r="2.51"/>
		<path class="st45" d="M752.72,409.95c0.29,0,0.52,0.23,0.52,0.52s-0.23,0.52-0.52,0.52s-0.52-0.23-0.52-0.52
			S752.43,409.95,752.72,409.95 M752.72,405.98c-2.48,0-4.49,2.01-4.49,4.49s2.01,4.49,4.49,4.49s4.49-2.01,4.49-4.49
			S755.2,405.98,752.72,405.98L752.72,405.98z"/>
	</g>
	<g class="st11">
		<circle class="st45" cx="761.7" cy="410.47" r="2.51"/>
		<path class="st45" d="M761.7,409.95c0.29,0,0.52,0.23,0.52,0.52s-0.23,0.52-0.52,0.52c-0.29,0-0.52-0.23-0.52-0.52
			S761.41,409.95,761.7,409.95 M761.7,405.98c-2.48,0-4.49,2.01-4.49,4.49s2.01,4.49,4.49,4.49s4.49-2.01,4.49-4.49
			S764.18,405.98,761.7,405.98L761.7,405.98z"/>
	</g>
	<g class="st11">
		<circle class="st45" cx="770.68" cy="410.47" r="2.51"/>
		<path class="st45" d="M770.68,409.95c0.29,0,0.52,0.23,0.52,0.52s-0.23,0.52-0.52,0.52s-0.52-0.23-0.52-0.52
			S770.39,409.95,770.68,409.95 M770.68,405.98c-2.48,0-4.49,2.01-4.49,4.49s2.01,4.49,4.49,4.49s4.49-2.01,4.49-4.49
			S773.16,405.98,770.68,405.98L770.68,405.98z"/>
	</g>
	<g class="st11">
		<path class="st45" d="M779.66,412.98c-1.38,0-2.5-1.12-2.5-2.51s1.12-2.51,2.5-2.51s2.51,1.12,2.51,2.51
			S781.04,412.98,779.66,412.98z"/>
		<path class="st45" d="M779.66,409.95c0.29,0,0.52,0.23,0.52,0.52s-0.23,0.52-0.52,0.52s-0.52-0.23-0.52-0.52
			S779.38,409.95,779.66,409.95 M779.66,405.98c-2.48,0-4.49,2.01-4.49,4.49s2.01,4.49,4.49,4.49s4.49-2.01,4.49-4.49
			S782.14,405.98,779.66,405.98L779.66,405.98z"/>
	</g>
	<g class="st11">
		<circle class="st45" cx="788.64" cy="410.47" r="2.51"/>
		<path class="st45" d="M788.64,409.95c0.29,0,0.52,0.23,0.52,0.52s-0.23,0.52-0.52,0.52c-0.29,0-0.52-0.23-0.52-0.52
			S788.36,409.95,788.64,409.95 M788.64,405.98c-2.48,0-4.49,2.01-4.49,4.49s2.01,4.49,4.49,4.49s4.49-2.01,4.49-4.49
			S791.12,405.98,788.64,405.98L788.64,405.98z"/>
	</g>
	<g class="st11">
		<circle class="st45" cx="797.62" cy="410.47" r="2.51"/>
		<path class="st45" d="M797.62,409.95c0.29,0,0.52,0.23,0.52,0.52s-0.23,0.52-0.52,0.52s-0.52-0.23-0.52-0.52
			S797.34,409.95,797.62,409.95 M797.62,405.98c-2.48,0-4.49,2.01-4.49,4.49s2.01,4.49,4.49,4.49s4.49-2.01,4.49-4.49
			S800.1,405.98,797.62,405.98L797.62,405.98z"/>
	</g>
	<g class="st11">
		<path class="st45" d="M806.61,412.98c-1.38,0-2.51-1.12-2.51-2.51s1.12-2.51,2.51-2.51c1.38,0,2.5,1.12,2.5,2.51
			S807.99,412.98,806.61,412.98z"/>
		<path class="st45" d="M806.61,409.95c0.29,0,0.52,0.23,0.52,0.52s-0.23,0.52-0.52,0.52s-0.52-0.23-0.52-0.52
			S806.32,409.95,806.61,409.95 M806.61,405.98c-2.48,0-4.49,2.01-4.49,4.49s2.01,4.49,4.49,4.49s4.49-2.01,4.49-4.49
			S809.09,405.98,806.61,405.98L806.61,405.98z"/>
	</g>
	<g class="st11">
		<circle class="st45" cx="815.59" cy="410.47" r="2.51"/>
		<path class="st45" d="M815.59,409.95c0.29,0,0.52,0.23,0.52,0.52s-0.23,0.52-0.52,0.52s-0.52-0.23-0.52-0.52
			S815.3,409.95,815.59,409.95 M815.59,405.98c-2.48,0-4.49,2.01-4.49,4.49s2.01,4.49,4.49,4.49s4.49-2.01,4.49-4.49
			S818.07,405.98,815.59,405.98L815.59,405.98z"/>
	</g>
	<g class="st11">
		<path class="st24" d="M674.99,408.73c-0.87,0-1.57-0.71-1.57-1.57v-1c0-0.87,0.71-1.57,1.57-1.57h145.48
			c0.87,0,1.57,0.71,1.57,1.57v1c0,0.87-0.71,1.57-1.57,1.57H674.99z"/>
		<path class="st24" d="M820.47,406.11c0.02,0,0.04,0.03,0.04,0.04v1c0,0.02-0.03,0.04-0.04,0.04H674.99
			c-0.02,0-0.04-0.03-0.04-0.04v-1c0-0.02,0.03-0.04,0.04-0.04H820.47 M820.47,403.05H674.99c-1.71,0-3.1,1.4-3.1,3.1v1
			c0,1.71,1.4,3.1,3.1,3.1h145.48c1.71,0,3.1-1.4,3.1-3.1v-1C823.57,404.45,822.17,403.05,820.47,403.05L820.47,403.05z"/>
	</g>
	<path class="st42" d="M771.2,453.64l-12.8,1.18c-0.65,0.06-1.22-0.42-1.28-1.07l-0.04-0.38c-0.06-0.65,0.42-1.22,1.07-1.28
		l12.8-1.18c0.65-0.06,1.22,0.42,1.28,1.07l0.04,0.38C772.33,453,771.85,453.58,771.2,453.64z"/>
	<path class="st47" d="M752.5,355.1c0,0-2.48,27.62-22.83,41.57h22.83h38.18C770.33,382.71,752.5,355.1,752.5,355.1z"/>
	<g class="st11">
		<path class="st48" d="M820.07,408.49H675.59c-1.64,0-3.03-1.11-3.46-2.61c-0.09,0.32-0.14,0.65-0.14,1c0,1.98,1.62,3.6,3.6,3.6
			h144.48c1.98,0,3.6-1.62,3.6-3.6c0-0.35-0.05-0.68-0.14-1C823.09,407.38,821.7,408.49,820.07,408.49z"/>
		<path class="st49" d="M823.53,405.88c-0.44,1.5-1.82,2.61-3.46,2.61H675.59c-1.64,0-3.03-1.11-3.46-2.61
			c-0.09,0.32-0.14,0.65-0.14,1c0,1.98,1.62,3.6,3.6,3.6h144.48c1.98,0,3.6-1.62,3.6-3.6C823.67,406.53,823.62,406.2,823.53,405.88
			L823.53,405.88z"/>
	</g>
	<g class="st11">
		<polygon class="st24" points="775.52,478.35 747.83,478.35 747.83,483.84 775.52,483.84 803.21,483.84 803.21,478.35 		"/>
		<polygon class="st24" points="803.21,478.35 775.52,478.35 747.83,478.35 747.83,483.84 775.52,483.84 803.21,483.84 		"/>
	</g>
	<g class="st11">
		<path class="st50" d="M1657.69,662.6h-179.53c0,0,148.29-251.56,179.34-251.55"/>
	</g>
	<g class="st11">
		<path class="st51" d="M1657.51,411.05c26.83,0,179.71,251.55,179.71,251.55h-185.66"/>
	</g>
	<g class="st11">
		<path class="st24" d="M1657.51,411.05c6.75,0,21.48,15.93,39.75,39.76c-9.76,7.31-25.09,12.05-40.99,12.05"/>
	</g>
	<g class="st11">
		<path class="st52" d="M1656.26,462.86c-16.38,0-29.95-5.02-39.72-12.72c18.2-23.47,33.22-39.1,40.96-39.09"/>
	</g>
	<g class="st11">
		<path class="st51" d="M1561.22,688.56h142.82c0,0-111.2-83.93-141.13-84.32"/>
	</g>
	<g class="st11">
		<path class="st50" d="M1562.91,604.24c-29.64-0.39-141.42,84.32-141.42,84.32h139.73"/>
	</g>
	<path class="st53" d="M1562.24,635.37c18.36,0,32.88-6.79,38.24-16.25c-15.99-9.13-29.81-15.46-37.83-15.57"/>
	<path class="st54" d="M1562.65,603.56c-8.33-0.11-22.68,6.75-39.67,16.58c5.86,8.94,21.54,15.23,39.26,15.23"/>
</g>
<g id="balloonse" class="st0">
	<line class="st55" x1="568.03" y1="356.21" x2="578.97" y2="380.05"/>
	<line class="st55" x1="605.86" y1="357.1" x2="594.93" y2="380.94"/>
	<path class="st56" d="M587.76,379.46h-1.46h-8.55c-0.88,0-1.57,0.77-1.46,1.65l1.45,12.11c0.17,1.44,1.39,2.52,2.84,2.52h5.72h1.46
		h5.72c1.45,0,2.67-1.08,2.84-2.52l1.45-12.11c0.1-0.88-0.58-1.65-1.46-1.65H587.76z"/>
	<path class="st56" d="M563.53,353.06h47c13.4-10.6,22.37-29.31,22.37-47.5c0-27.52-20.54-43.42-45.88-43.42
		s-45.88,15.9-45.88,43.42C541.16,323.75,550.13,342.46,563.53,353.06z"/>
	<path class="st56" d="M609.97,359.72h-45.88c-2.03,0-3.7-1.66-3.7-3.7l0,0c0-2.03,1.66-3.7,3.7-3.7h45.88c2.03,0,3.7,1.66,3.7,3.7
		l0,0C613.67,358.06,612.01,359.72,609.97,359.72z"/>
	<path class="st57" d="M594.11,364.31h-13.66c-1.26,0-2.29-1.03-2.29-2.29l0,0c0-1.26,1.03-2.29,2.29-2.29h13.66
		c1.26,0,2.29,1.03,2.29,2.29l0,0C596.41,363.28,595.37,364.31,594.11,364.31z"/>
	<path class="st58" d="M567.84,352.48h38.18c10.88-10.6,18.17-29.31,18.17-47.5c0-27.52-16.68-43.42-37.27-43.42
		s-37.27,15.9-37.27,43.42C549.67,323.17,556.96,341.88,567.84,352.48z"/>
	<path class="st37" d="M573.83,352.48h26.26c7.49-10.6,12.5-29.31,12.5-47.5c0-27.52-11.47-43.42-25.63-43.42
		c-14.15,0-25.63,15.9-25.63,43.42C561.33,323.17,566.34,341.88,573.83,352.48z"/>
	<path class="st56" d="M580.97,352.48h11.98c3.41-10.6,5.7-29.31,5.7-47.5c0-27.52-5.23-43.42-11.69-43.42s-11.69,15.9-11.69,43.42
		C575.27,323.17,577.56,341.88,580.97,352.48z"/>
	<line class="st55" x1="492.18" y1="368.21" x2="504.78" y2="395.67"/>
	<line class="st55" x1="535.76" y1="369.23" x2="523.16" y2="396.69"/>
	<path class="st59" d="M514.9,394.98h-1.68h-9.85c-1.02,0-1.8,0.89-1.68,1.9l1.67,13.95c0.2,1.66,1.6,2.9,3.27,2.9h6.59h1.68h6.59
		c1.67,0,3.07-1.25,3.27-2.9l1.67-13.95c0.12-1.01-0.67-1.9-1.68-1.9H514.9z"/>
	<path class="st60" d="M486.99,364.58h54.15c15.43-12.21,25.77-33.76,25.77-54.71c0-31.7-23.66-50.02-52.84-50.02
		s-52.85,18.31-52.85,50.01C461.22,330.82,471.56,352.37,486.99,364.58z"/>
	<path class="st61" d="M541.05,372.25h-53.97c-2.03,0-3.7-1.66-3.7-3.7v-1.12c0-2.03,1.66-3.7,3.7-3.7h53.97
		c2.03,0,3.7,1.66,3.7,3.7v1.12C544.75,370.59,543.08,372.25,541.05,372.25z"/>
	<path class="st57" d="M522.57,377.54h-16.43c-1.26,0-2.29-1.03-2.29-2.29v-0.7c0-1.26,1.03-2.29,2.29-2.29h16.43
		c1.26,0,2.29,1.03,2.29,2.29v0.7C524.86,376.51,523.83,377.54,522.57,377.54z"/>
	<path class="st62" d="M491.96,363.91h43.98c12.54-12.21,20.94-33.76,20.94-54.71c0-31.7-19.22-50.02-42.93-50.02
		s-42.93,18.31-42.93,50.02C471.02,330.15,479.42,351.7,491.96,363.91z"/>
	<path class="st60" d="M498.85,363.91h30.25c8.62-12.21,14.4-33.76,14.4-54.71c0-31.7-13.22-50.02-29.52-50.02
		s-29.52,18.31-29.52,50.02C484.46,330.15,490.23,351.7,498.85,363.91z"/>
	<path class="st62" d="M507.08,363.91h13.8c3.93-12.21,6.57-33.76,6.57-54.71c0-31.7-6.03-50.02-13.47-50.02
		c-7.44,0-13.47,18.31-13.47,50.02C500.51,330.15,503.15,351.7,507.08,363.91z"/>
</g>
<path class="st63" d="M1512.34,919.14c-8.38-43.67-64.01-77.42-131.45-77.42c-7.32,0-14.49,0.41-21.49,1.18
	c-10.23-42.25-64.9-74.52-130.84-74.52c-0.86,0-1.7,0.03-2.55,0.04c-23.78-23.83-64.29-39.53-110.28-39.53
	c-6.07,0-12.04,0.3-17.9,0.83c-20.58-14.48-47.91-23.39-78.01-23.39c-20.56,0-39.82,4.17-56.55,11.39
	c-21.11-17.38-51.1-28.31-84.49-28.31c-39.06,0-73.52,14.92-94.46,37.7c-11.17-2.49-23.01-3.85-35.29-3.85
	c-43.59,0-81.7,16.9-103.08,42.19c-6.75-1.7-13.77-2.7-21.04-2.7c-33.48,0-62.54,19.14-77.23,47.22
	c-34.87,8.71-60.99,44.22-60.99,86.77c0,0.95,0.1,1.87,0.12,2.81c-12.6,12.87-24.16,28.58-33.67,46.59
	c-18.04,34.15-25.07,69.66-21.87,98.88c-41.33,1.95-74.34,40.84-74.34,88.67c0,7.43,0.88,14.61,2.39,21.51
	c-22.18,17.11-36.23,42.03-36.23,69.86c0,16.38,4.87,31.75,13.37,45.13c-8.5,13.38-13.37,28.76-13.37,45.13
	c0,50.54,46.12,91.6,103.68,93.23c19.48,17.47,46.69,28.36,76.85,28.36c7.57,0,14.94-0.7,22.06-2
	c17.35,31.2,53.94,52.77,96.41,52.77c3.09,0,6.12-0.18,9.14-0.4c27.66,26.91,80.9,46.3,143.93,50.36
	c8.41,47.85,91.97,85.44,193.88,85.44c107.49,0,194.63-41.81,194.63-93.38c0-1.76-0.12-3.5-0.32-5.24
	c26.17-7.46,54.13-19.26,81.84-35.26c50.51-29.16,89.42-66.03,109.58-100.3c20.91,3.8,44.43,2.8,68.12-3.97
	c32.46-9.28,58.9-27.59,75.33-49.52c31.88-12.16,54.72-43.02,54.72-79.03V991.22C1552.96,960.79,1536.62,934.05,1512.34,919.14z"/>
<path class="st64" d="M1630.53,751.92c-10.11-52.7-77.26-93.43-158.64-93.43c-8.83,0-17.49,0.5-25.93,1.42
	c-12.35-51-78.33-89.94-157.91-89.94c-1.03,0-2.05,0.04-3.08,0.05c-28.7-28.77-77.59-47.71-133.1-47.71c-7.33,0-14.53,0.36-21.6,1
	c-24.83-17.48-57.82-28.23-94.15-28.23c-24.81,0-48.06,5.03-68.25,13.75c-25.48-20.98-61.68-34.17-101.97-34.17
	c-47.14,0-88.74,18-114.01,45.5c-13.48-3-27.77-4.64-42.6-4.64c-52.61,0-98.6,20.4-124.41,50.92c-8.15-2.05-16.62-3.25-25.39-3.25
	c-40.41,0-75.48,23.1-93.21,56.99c-42.08,10.51-73.61,53.37-73.61,104.72c0,1.14,0.12,2.25,0.15,3.39
	c-15.21,15.53-29.15,34.49-40.64,56.23c-21.78,41.22-30.26,84.08-26.39,119.34c-49.88,2.36-89.72,49.3-89.72,107.01
	c0,8.97,1.07,17.64,2.88,25.96c-26.77,20.65-43.73,50.72-43.73,84.32c0,19.77,5.88,38.32,16.14,54.47
	c-10.26,16.15-16.14,34.71-16.14,54.47c0,61,55.66,110.56,125.13,112.52c23.51,21.08,56.34,34.23,92.75,34.23
	c9.13,0,18.03-0.85,26.63-2.41c20.94,37.66,65.1,63.69,116.36,63.69c3.72,0,7.39-0.22,11.03-0.49
	c33.38,32.48,97.64,55.88,173.72,60.78c10.15,57.75,111,103.12,234,103.12c129.74,0,234.91-50.46,234.91-112.71
	c0-2.12-0.15-4.23-0.39-6.32c31.59-9.01,65.33-23.24,98.77-42.55c60.96-35.2,107.92-79.69,132.25-121.05
	c25.24,4.59,53.63,3.38,82.22-4.79c39.17-11.2,71.09-33.29,90.91-59.77c38.47-14.68,66.04-51.92,66.04-95.39V838.92
	C1679.56,802.18,1659.84,769.92,1630.53,751.92z"/>
<path class="st65" d="M1701.44,642.76c-11.16-58.13-85.22-103.07-175-103.07c-9.74,0-19.29,0.55-28.61,1.57
	c-13.62-56.25-86.4-99.21-174.19-99.21c-1.14,0-2.26,0.04-3.4,0.06c-31.66-31.73-85.59-52.63-146.82-52.63
	c-8.09,0-16.03,0.4-23.82,1.1c-27.39-19.28-63.78-31.15-103.86-31.15c-27.37,0-53.02,5.55-75.29,15.16
	c-28.11-23.14-68.03-37.7-112.48-37.7c-52,0-97.88,19.86-125.76,50.19c-14.87-3.31-30.64-5.12-46.99-5.12
	c-58.03,0-108.76,22.5-137.23,56.17c-8.99-2.26-18.33-3.59-28.01-3.59c-44.57,0-83.26,25.48-102.82,62.86
	c-46.42,11.59-81.2,58.87-81.2,115.52c0,1.26,0.13,2.48,0.16,3.74c-16.77,17.13-32.16,38.05-44.83,62.03
	c-24.02,45.47-33.38,92.75-29.11,131.65c-55.03,2.6-98.97,54.38-98.97,118.05c0,9.89,1.18,19.45,3.18,28.64
	c-29.53,22.78-48.24,55.95-48.24,93.01c0,21.8,6.48,42.27,17.8,60.09c-11.32,17.82-17.8,38.28-17.8,60.09
	c0,67.29,61.4,121.96,138.04,124.12c25.93,23.26,62.15,37.76,102.31,37.76c10.07,0,19.89-0.93,29.37-2.66
	c23.1,41.54,71.81,70.26,128.35,70.26c4.11,0,8.15-0.24,12.17-0.54c36.82,35.83,107.71,61.65,191.62,67.05
	c11.2,63.71,122.45,113.75,258.12,113.75c143.11,0,259.12-55.66,259.12-124.33c0-2.34-0.16-4.67-0.43-6.98
	c34.84-9.94,72.07-25.64,108.96-46.94c67.25-38.82,119.04-87.91,145.89-133.53c27.84,5.07,59.16,3.73,90.69-5.28
	c43.21-12.36,78.42-36.73,100.29-65.93c42.44-16.19,72.85-57.27,72.85-105.22V738.73C1755.52,698.21,1733.77,662.62,1701.44,642.76z
	"/>
<path class="st66" d="M1779.15,460.23c-12.54-65.33-95.77-115.82-196.65-115.82c-10.95,0-21.68,0.62-32.15,1.76
	c-15.3-63.21-97.09-111.48-195.73-111.48c-1.28,0-2.54,0.05-3.82,0.06c-35.57-35.66-96.18-59.14-164.98-59.14
	c-9.09,0-18.01,0.45-26.77,1.24c-30.78-21.67-71.67-35-116.71-35c-30.75,0-59.58,6.23-84.6,17.04c-31.58-26-76.45-42.36-126.4-42.36
	c-58.43,0-109.99,22.32-141.32,56.4c-16.71-3.72-34.43-5.76-52.8-5.76c-65.21,0-122.22,25.28-154.21,63.11
	c-10.1-2.54-20.6-4.03-31.47-4.03c-50.09,0-93.56,28.63-115.54,70.64c-52.16,13.02-91.24,66.16-91.24,129.81
	c0,1.42,0.15,2.79,0.18,4.2c-18.85,19.25-36.14,42.76-50.37,69.7c-26.99,51.09-37.51,104.22-32.71,147.93
	c-61.83,2.92-111.22,61.1-111.22,132.65c0,11.12,1.32,21.86,3.57,32.18C21.03,838.97,0,876.24,0,917.89c0,24.5,7.29,47.5,20,67.52
	c-12.72,20.02-20,43.02-20,67.52c0,75.61,69,137.04,155.11,139.48c29.14,26.14,69.84,42.43,114.97,42.43
	c11.32,0,22.35-1.05,33.01-2.99c25.96,46.68,80.7,78.95,144.23,78.95c4.62,0,9.16-0.27,13.67-0.6
	c41.38,40.27,121.03,69.27,215.33,75.34c12.58,71.59,137.6,127.82,290.06,127.82c160.81,0,291.18-62.55,291.18-139.71
	c0-2.63-0.18-5.24-0.48-7.84c39.15-11.17,80.99-28.81,122.44-52.74c75.56-43.63,133.77-98.78,163.94-150.05
	c31.29,5.69,66.48,4.2,101.91-5.94c48.56-13.88,88.12-41.27,112.69-74.09c47.69-18.19,81.86-64.36,81.86-118.24V568.08
	C1839.92,522.54,1815.48,482.55,1779.15,460.23z"/>
<g>
	<path class="st67" d="M1779.15,384.27c-12.54-65.33-95.77-115.82-196.65-115.82c-10.95,0-21.68,0.62-32.15,1.76
		c-15.3-63.21-97.09-111.48-195.73-111.48c-1.28,0-2.54,0.05-3.82,0.06c-35.57-35.66-96.18-59.14-164.98-59.14
		c-9.09,0-18.01,0.45-26.77,1.24c-30.78-21.67-71.67-35-116.71-35c-30.75,0-59.58,6.23-84.6,17.04
		c-31.58-26-76.45-42.36-126.4-42.36c-58.43,0-109.99,22.32-141.32,56.4c-16.71-3.72-34.43-5.76-52.8-5.76
		c-65.21,0-122.22,25.28-154.21,63.11c-10.1-2.54-20.6-4.03-31.47-4.03c-50.09,0-93.56,28.63-115.54,70.64
		c-52.16,13.02-91.24,66.16-91.24,129.81c0,1.42,0.15,2.79,0.18,4.2c-18.85,19.25-36.14,42.76-50.37,69.7
		c-26.99,51.09-37.51,104.22-32.71,147.93c-61.83,2.92-111.22,61.1-111.22,132.65c0,11.12,1.32,21.86,3.57,32.18
		C21.03,763.01,0,800.28,0,841.93c0,24.5,7.29,47.5,20,67.52C7.29,929.47,0,952.47,0,976.97c0,75.61,69,137.04,155.11,139.48
		c29.14,26.14,69.84,42.43,114.97,42.43c11.32,0,22.35-1.05,33.01-2.99c25.96,46.68,80.7,78.95,144.23,78.95
		c4.62,0,9.16-0.27,13.67-0.6c41.38,40.27,121.03,69.27,215.33,75.34c12.58,71.59,137.6,127.82,290.06,127.82
		c160.81,0,291.18-62.55,291.18-139.71c0-2.63-0.18-5.24-0.48-7.84c39.15-11.17,80.99-28.81,122.44-52.74
		c75.56-43.63,133.77-98.78,163.94-150.05c31.29,5.69,66.48,4.2,101.91-5.94c48.56-13.88,88.12-41.27,112.69-74.09
		c47.69-18.19,81.86-64.36,81.86-118.24V492.12C1839.92,446.58,1815.48,406.59,1779.15,384.27z"/>
</g>
<rect x="631.94" y="96.32" class="st68" width="7.37" height="46.52"/>
<rect x="636.59" y="96.32" class="st69" width="2.71" height="46.52"/>
<circle class="st70" cx="648.8" cy="64.73" r="25.78"/>
<ellipse class="st70" cx="636.01" cy="69.96" rx="20.74" ry="29.85"/>
<path class="st71" d="M647.78,87.65c-15.79-4.34-25.54-18.99-21.76-32.72c0.47-1.71,1.13-3.33,1.96-4.84
	c-2.88,4.16-4.57,9.2-4.57,14.65c0,14.24,11.54,25.78,25.78,25.78c3.23,0,6.32-0.6,9.17-1.69
	C654.93,88.99,651.35,88.63,647.78,87.65z"/>
<circle class="st70" cx="626.32" cy="52.71" r="30.82"/>
<path class="st71" d="M652.72,68.46c-7.63,9.87-20.85,14.5-33.48,10.61c-16.27-5.02-25.39-22.27-20.37-38.54
	c0.7-2.28,1.66-4.42,2.81-6.4c-2.2,2.85-3.94,6.12-5.06,9.76c-5.02,16.27,4.1,33.52,20.37,38.54
	C630.97,86.74,645.68,80.6,652.72,68.46z"/>
<path class="st72" d="M648.8,38.95c-1.25,0-2.48,0.09-3.68,0.27v5.08c3.49-0.25,7.1,0.15,10.67,1.27
	c9.78,3.09,16.69,10.86,18.77,19.79c0.01-0.21,0.02-0.42,0.02-0.63C674.58,50.49,663.04,38.95,648.8,38.95z"/>
<circle class="st70" cx="628.84" cy="29.64" r="19.38"/>
<circle class="st70" cx="651.32" cy="34.29" r="19.38"/>
<path class="st72" d="M660.68,20.16c4.17,2.41,7.38,5.75,9.47,9.48c-2.08-8.46-9.72-14.73-18.82-14.73c-3.74,0-7.24,1.06-10.2,2.9
	C647.05,15.81,654.26,16.46,660.68,20.16z"/>
<path class="st71" d="M645.97,50.86c-2.48-0.26-4.84-0.83-7.03-1.65c3.36,2.79,7.67,4.47,12.38,4.47c8.63,0,15.93-5.64,18.45-13.42
	C665.76,47.47,656.36,51.96,645.97,50.86z"/>
<ellipse class="st70" cx="645.12" cy="14.91" rx="15.12" ry="14.34"/>
<path class="st72" d="M659.46,19.46c0.51-1.43,0.78-2.96,0.78-4.55c0-7.92-6.77-14.34-15.12-14.34c-0.79,0-1.57,0.06-2.33,0.17
	C652.1,1.96,659.31,9.85,659.46,19.46z"/>
<path class="st71" d="M615.91,39.77c-3.54-3.54-5.71-7.89-6.46-12.31c-0.77,5.78,1.06,11.84,5.5,16.28c7.57,7.57,19.84,7.57,27.41,0
	c0.43-0.43,0.83-0.88,1.21-1.33C635.89,48.74,623.87,47.72,615.91,39.77z"/>
<path class="st72" d="M636.69,14.17c6.9,4.88,10.79,12.29,11.09,19.6c0.29-1.33,0.44-2.71,0.44-4.12c0-10.71-8.68-19.38-19.38-19.38
	c-0.06,0-0.12,0-0.18,0C631.43,11.08,634.15,12.37,636.69,14.17z"/>
<rect x="1188.94" y="108.32" class="st68" width="7.37" height="46.52"/>
<rect x="1193.59" y="108.32" class="st69" width="2.71" height="46.52"/>
<circle class="st70" cx="1205.8" cy="76.73" r="25.78"/>
<ellipse class="st70" cx="1193.01" cy="81.96" rx="20.74" ry="29.85"/>
<path class="st71" d="M1204.78,99.65c-15.79-4.34-25.54-18.99-21.76-32.72c0.47-1.71,1.13-3.33,1.96-4.84
	c-2.88,4.16-4.57,9.2-4.57,14.65c0,14.24,11.54,25.78,25.78,25.78c3.23,0,6.32-0.6,9.17-1.69
	C1211.93,100.99,1208.35,100.63,1204.78,99.65z"/>
<circle class="st70" cx="1183.32" cy="64.71" r="30.82"/>
<path class="st71" d="M1209.72,80.46c-7.63,9.87-20.85,14.5-33.48,10.61c-16.27-5.02-25.39-22.27-20.37-38.54
	c0.7-2.28,1.66-4.42,2.81-6.4c-2.2,2.85-3.94,6.12-5.06,9.76c-5.02,16.27,4.1,33.52,20.37,38.54
	C1187.97,98.74,1202.68,92.6,1209.72,80.46z"/>
<path class="st72" d="M1205.8,50.95c-1.25,0-2.48,0.09-3.68,0.27v5.08c3.49-0.25,7.1,0.15,10.67,1.27
	c9.78,3.09,16.69,10.86,18.77,19.79c0.01-0.21,0.02-0.42,0.02-0.63C1231.58,62.49,1220.04,50.95,1205.8,50.95z"/>
<circle class="st70" cx="1185.84" cy="41.64" r="19.38"/>
<circle class="st70" cx="1208.32" cy="46.29" r="19.38"/>
<path class="st72" d="M1217.68,32.16c4.17,2.41,7.38,5.75,9.47,9.48c-2.08-8.46-9.72-14.73-18.82-14.73c-3.74,0-7.24,1.06-10.2,2.9
	C1204.05,27.81,1211.26,28.46,1217.68,32.16z"/>
<path class="st71" d="M1202.97,62.86c-2.48-0.26-4.84-0.83-7.03-1.65c3.36,2.79,7.67,4.47,12.38,4.47c8.63,0,15.93-5.64,18.45-13.42
	C1222.76,59.47,1213.36,63.96,1202.97,62.86z"/>
<ellipse class="st70" cx="1202.12" cy="26.91" rx="15.12" ry="14.34"/>
<path class="st72" d="M1216.46,31.46c0.51-1.43,0.78-2.96,0.78-4.55c0-7.92-6.77-14.34-15.12-14.34c-0.79,0-1.57,0.06-2.33,0.17
	C1209.1,13.96,1216.31,21.85,1216.46,31.46z"/>
<path class="st71" d="M1172.91,51.77c-3.54-3.54-5.71-7.89-6.46-12.31c-0.77,5.78,1.06,11.84,5.5,16.28
	c7.57,7.57,19.84,7.57,27.41,0c0.43-0.43,0.83-0.88,1.21-1.33C1192.89,60.74,1180.87,59.72,1172.91,51.77z"/>
<path class="st72" d="M1193.69,26.17c6.9,4.88,10.79,12.29,11.09,19.6c0.29-1.33,0.44-2.71,0.44-4.12
	c0-10.71-8.68-19.38-19.38-19.38c-0.06,0-0.12,0-0.18,0C1188.43,23.08,1191.15,24.37,1193.69,26.17z"/>
<rect x="1571.94" y="982.32" class="st68" width="7.37" height="46.52"/>
<rect x="1576.59" y="982.32" class="st69" width="2.71" height="46.52"/>
<circle class="st70" cx="1588.8" cy="950.73" r="25.78"/>
<ellipse class="st70" cx="1576.01" cy="955.96" rx="20.74" ry="29.85"/>
<path class="st71" d="M1587.78,973.65c-15.79-4.34-25.54-18.99-21.76-32.72c0.47-1.71,1.13-3.33,1.96-4.84
	c-2.88,4.16-4.57,9.2-4.57,14.65c0,14.24,11.54,25.78,25.78,25.78c3.23,0,6.32-0.6,9.17-1.69
	C1594.93,974.99,1591.35,974.63,1587.78,973.65z"/>
<circle class="st70" cx="1566.32" cy="938.71" r="30.82"/>
<path class="st71" d="M1592.72,954.46c-7.63,9.87-20.85,14.5-33.48,10.61c-16.27-5.02-25.39-22.27-20.37-38.54
	c0.7-2.28,1.66-4.42,2.81-6.4c-2.2,2.85-3.94,6.12-5.06,9.76c-5.02,16.27,4.1,33.52,20.37,38.54
	C1570.97,972.74,1585.68,966.6,1592.72,954.46z"/>
<path class="st72" d="M1588.8,924.95c-1.25,0-2.48,0.09-3.68,0.27v5.08c3.49-0.25,7.1,0.15,10.67,1.27
	c9.78,3.09,16.69,10.86,18.77,19.79c0.01-0.21,0.02-0.42,0.02-0.63C1614.58,936.49,1603.04,924.95,1588.8,924.95z"/>
<circle class="st70" cx="1568.84" cy="915.64" r="19.38"/>
<circle class="st70" cx="1591.32" cy="920.29" r="19.38"/>
<path class="st72" d="M1600.68,906.16c4.17,2.41,7.38,5.75,9.47,9.48c-2.08-8.46-9.72-14.73-18.82-14.73c-3.74,0-7.24,1.06-10.2,2.9
	C1587.05,901.81,1594.26,902.46,1600.68,906.16z"/>
<path class="st71" d="M1585.97,936.86c-2.48-0.26-4.84-0.83-7.03-1.65c3.36,2.79,7.67,4.47,12.38,4.47
	c8.63,0,15.93-5.64,18.45-13.42C1605.76,933.47,1596.36,937.96,1585.97,936.86z"/>
<ellipse class="st70" cx="1585.12" cy="900.91" rx="15.12" ry="14.34"/>
<path class="st72" d="M1599.46,905.46c0.51-1.43,0.78-2.96,0.78-4.55c0-7.92-6.77-14.34-15.12-14.34c-0.79,0-1.57,0.06-2.33,0.17
	C1592.1,887.96,1599.31,895.85,1599.46,905.46z"/>
<path class="st71" d="M1555.91,925.77c-3.54-3.54-5.71-7.89-6.46-12.31c-0.77,5.78,1.06,11.84,5.5,16.28
	c7.57,7.57,19.84,7.57,27.41,0c0.43-0.43,0.83-0.88,1.21-1.33C1575.89,934.74,1563.87,933.72,1555.91,925.77z"/>
<path class="st72" d="M1576.69,900.17c6.9,4.88,10.79,12.29,11.09,19.6c0.29-1.33,0.44-2.71,0.44-4.12
	c0-10.71-8.68-19.38-19.38-19.38c-0.06,0-0.12,0-0.18,0C1571.43,897.08,1574.15,898.37,1576.69,900.17z"/>
<rect x="140.94" y="675.32" class="st68" width="7.37" height="46.52"/>
<rect x="145.59" y="675.32" class="st69" width="2.71" height="46.52"/>
<circle class="st70" cx="157.8" cy="643.73" r="25.78"/>
<ellipse class="st70" cx="145.01" cy="648.96" rx="20.74" ry="29.85"/>
<path class="st71" d="M156.78,666.65c-15.79-4.34-25.54-18.99-21.76-32.72c0.47-1.71,1.13-3.33,1.96-4.84
	c-2.88,4.16-4.57,9.2-4.57,14.65c0,14.24,11.54,25.78,25.78,25.78c3.23,0,6.32-0.6,9.17-1.69
	C163.93,667.99,160.35,667.63,156.78,666.65z"/>
<circle class="st70" cx="135.32" cy="631.71" r="30.82"/>
<path class="st71" d="M161.72,647.46c-7.63,9.87-20.85,14.5-33.48,10.61c-16.27-5.02-25.39-22.27-20.37-38.54
	c0.7-2.28,1.66-4.42,2.81-6.4c-2.2,2.85-3.94,6.12-5.06,9.76c-5.02,16.27,4.1,33.52,20.37,38.54
	C139.97,665.74,154.68,659.6,161.72,647.46z"/>
<path class="st72" d="M157.8,617.95c-1.25,0-2.48,0.09-3.68,0.27v5.08c3.49-0.25,7.1,0.15,10.67,1.27
	c9.78,3.09,16.69,10.86,18.77,19.79c0.01-0.21,0.02-0.42,0.02-0.63C183.58,629.49,172.04,617.95,157.8,617.95z"/>
<circle class="st70" cx="137.84" cy="608.64" r="19.38"/>
<circle class="st70" cx="160.32" cy="613.29" r="19.38"/>
<path class="st72" d="M169.68,599.16c4.17,2.41,7.38,5.75,9.47,9.48c-2.08-8.46-9.72-14.73-18.82-14.73c-3.74,0-7.24,1.06-10.2,2.9
	C156.05,594.81,163.26,595.46,169.68,599.16z"/>
<path class="st71" d="M154.97,629.86c-2.48-0.26-4.84-0.83-7.03-1.65c3.36,2.79,7.67,4.47,12.38,4.47c8.63,0,15.93-5.64,18.45-13.42
	C174.76,626.47,165.36,630.96,154.97,629.86z"/>
<ellipse class="st70" cx="154.12" cy="593.91" rx="15.12" ry="14.34"/>
<path class="st72" d="M168.46,598.46c0.51-1.43,0.78-2.96,0.78-4.55c0-7.92-6.77-14.34-15.12-14.34c-0.79,0-1.57,0.06-2.33,0.17
	C161.1,580.96,168.31,588.85,168.46,598.46z"/>
<path class="st71" d="M124.91,618.77c-3.54-3.54-5.71-7.89-6.46-12.31c-0.77,5.78,1.06,11.84,5.5,16.28
	c7.57,7.57,19.84,7.57,27.41,0c0.43-0.43,0.83-0.88,1.21-1.33C144.89,627.74,132.87,626.72,124.91,618.77z"/>
<path class="st72" d="M145.69,593.17c6.9,4.88,10.79,12.29,11.09,19.6c0.29-1.33,0.44-2.71,0.44-4.12
	c0-10.71-8.68-19.38-19.38-19.38c-0.06,0-0.12,0-0.18,0C140.43,590.08,143.15,591.37,145.69,593.17z"/>
<path class="st73" d="M619.24,154.56c1.14-1.77,1.77-3.73,1.77-5.78c0-8.11-9.85-14.69-22.01-14.69c-12.15,0-22.01,6.58-22.01,14.69
	c0,2.05,0.63,4,1.77,5.78H619.24z"/>
<path class="st73" d="M599.03,154.56h30.03c3.26-2.76,5.25-6.42,5.25-10.45c0-8.59-9.07-15.55-20.27-15.55s-20.27,6.96-20.27,15.55
	C593.78,148.14,595.77,151.8,599.03,154.56z"/>
<path class="st73" d="M652.09,154.56c1.17-1.74,1.85-3.81,1.85-6.04c0-6.11-5.1-11.06-11.4-11.06s-11.4,4.95-11.4,11.06
	c0,2.23,0.68,4.31,1.85,6.04H652.09z"/>
<path class="st72" d="M615.52,131.81c7.5,0.99,14.05,4.2,18.15,8.38c-2.27-6.69-10.19-11.63-19.61-11.63
	c-6.37,0-12.05,2.25-15.76,5.78C602.73,131.97,608.85,130.93,615.52,131.81z"/>
<path class="st72" d="M643.37,139.77c4.22,0.71,7.9,2.99,10.21,5.96c-1.27-4.76-5.73-8.27-11.03-8.27c-3.58,0-6.78,1.6-8.87,4.11
	C636.18,139.88,639.62,139.14,643.37,139.77z"/>
<path class="st72" d="M619.75,152.24c0,0.56-0.04,1.11-0.1,1.65c0.88-1.59,1.37-3.31,1.37-5.11c0-8.11-9.85-14.69-22.01-14.69
	c-0.54,0-1.07,0.02-1.6,0.04C609.88,134.75,619.75,142.62,619.75,152.24z"/>
<path class="st74" d="M652.9,154.56c-3.31-5.32-11.16-9.06-20.33-9.06c-9.17,0-17.02,3.74-20.33,9.06H652.9z"/>
<path class="st74" d="M617.52,154.56c-3.04-5.68-11.17-9.75-20.73-9.75s-17.69,4.07-20.73,9.75H617.52z"/>
<path class="st73" d="M161.24,734.56c1.14-1.77,1.77-3.73,1.77-5.78c0-8.11-9.85-14.69-22.01-14.69c-12.15,0-22.01,6.58-22.01,14.69
	c0,2.05,0.63,4,1.77,5.78H161.24z"/>
<path class="st73" d="M141.03,734.56h30.03c3.26-2.76,5.25-6.42,5.25-10.45c0-8.59-9.07-15.55-20.27-15.55
	c-11.19,0-20.27,6.96-20.27,15.55C135.78,728.14,137.77,731.8,141.03,734.56z"/>
<path class="st73" d="M194.09,734.56c1.17-1.74,1.85-3.81,1.85-6.04c0-6.11-5.1-11.06-11.4-11.06c-6.3,0-11.4,4.95-11.4,11.06
	c0,2.23,0.68,4.31,1.85,6.04H194.09z"/>
<path class="st72" d="M157.52,711.81c7.5,0.99,14.05,4.2,18.15,8.38c-2.27-6.69-10.19-11.63-19.61-11.63
	c-6.37,0-12.05,2.25-15.76,5.78C144.73,711.97,150.85,710.93,157.52,711.81z"/>
<path class="st72" d="M185.37,719.77c4.22,0.71,7.9,2.99,10.21,5.96c-1.27-4.76-5.73-8.27-11.03-8.27c-3.58,0-6.78,1.6-8.87,4.11
	C178.18,719.88,181.62,719.14,185.37,719.77z"/>
<path class="st72" d="M161.75,732.24c0,0.56-0.04,1.11-0.1,1.65c0.88-1.59,1.37-3.31,1.37-5.11c0-8.11-9.85-14.69-22.01-14.69
	c-0.54,0-1.07,0.02-1.6,0.04C151.88,714.75,161.75,722.62,161.75,732.24z"/>
<path class="st74" d="M194.9,734.56c-3.31-5.32-11.16-9.06-20.33-9.06s-17.02,3.74-20.33,9.06H194.9z"/>
<path class="st74" d="M159.52,734.56c-3.04-5.68-11.17-9.75-20.73-9.75c-9.56,0-17.69,4.07-20.73,9.75H159.52z"/>
<path class="st73" d="M1557.24,1041.56c1.14-1.77,1.77-3.73,1.77-5.78c0-8.11-9.85-14.69-22.01-14.69
	c-12.15,0-22.01,6.58-22.01,14.69c0,2.05,0.63,4,1.77,5.78H1557.24z"/>
<path class="st73" d="M1537.03,1041.56h30.03c3.26-2.76,5.25-6.42,5.25-10.45c0-8.59-9.07-15.55-20.27-15.55
	c-11.19,0-20.27,6.96-20.27,15.55C1531.78,1035.14,1533.77,1038.8,1537.03,1041.56z"/>
<path class="st73" d="M1590.09,1041.56c1.17-1.74,1.85-3.81,1.85-6.04c0-6.11-5.1-11.06-11.4-11.06s-11.4,4.95-11.4,11.06
	c0,2.23,0.68,4.31,1.85,6.04H1590.09z"/>
<path class="st72" d="M1553.52,1018.81c7.5,0.99,14.05,4.2,18.15,8.38c-2.27-6.69-10.19-11.63-19.61-11.63
	c-6.37,0-12.05,2.25-15.76,5.78C1540.73,1018.97,1546.85,1017.93,1553.52,1018.81z"/>
<path class="st72" d="M1581.37,1026.77c4.22,0.71,7.9,2.99,10.21,5.96c-1.27-4.76-5.73-8.27-11.03-8.27c-3.58,0-6.78,1.6-8.87,4.11
	C1574.18,1026.88,1577.62,1026.14,1581.37,1026.77z"/>
<path class="st72" d="M1557.75,1039.24c0,0.56-0.04,1.11-0.1,1.65c0.88-1.59,1.37-3.31,1.37-5.11c0-8.11-9.85-14.69-22.01-14.69
	c-0.54,0-1.07,0.02-1.6,0.04C1547.88,1021.75,1557.75,1029.62,1557.75,1039.24z"/>
<path class="st74" d="M1590.9,1041.56c-3.31-5.32-11.16-9.06-20.33-9.06c-9.17,0-17.02,3.74-20.33,9.06H1590.9z"/>
<path class="st74" d="M1555.52,1041.56c-3.04-5.68-11.17-9.75-20.73-9.75s-17.69,4.07-20.73,9.75H1555.52z"/>
<path class="st73" d="M1218.24,169.56c1.14-1.77,1.77-3.73,1.77-5.78c0-8.11-9.85-14.69-22.01-14.69
	c-12.15,0-22.01,6.58-22.01,14.69c0,2.05,0.63,4,1.77,5.78H1218.24z"/>
<path class="st73" d="M1198.03,169.56h30.03c3.26-2.76,5.25-6.42,5.25-10.45c0-8.59-9.07-15.55-20.27-15.55
	c-11.19,0-20.27,6.96-20.27,15.55C1192.78,163.14,1194.77,166.8,1198.03,169.56z"/>
<path class="st73" d="M1251.09,169.56c1.17-1.74,1.85-3.81,1.85-6.04c0-6.11-5.1-11.06-11.4-11.06s-11.4,4.95-11.4,11.06
	c0,2.23,0.68,4.31,1.85,6.04H1251.09z"/>
<path class="st72" d="M1214.52,146.81c7.5,0.99,14.05,4.2,18.15,8.38c-2.27-6.69-10.19-11.63-19.61-11.63
	c-6.37,0-12.05,2.25-15.76,5.78C1201.73,146.97,1207.85,145.93,1214.52,146.81z"/>
<path class="st72" d="M1242.37,154.77c4.22,0.71,7.9,2.99,10.21,5.96c-1.27-4.76-5.73-8.27-11.03-8.27c-3.58,0-6.78,1.6-8.87,4.11
	C1235.18,154.88,1238.62,154.14,1242.37,154.77z"/>
<path class="st72" d="M1218.75,167.24c0,0.56-0.04,1.11-0.1,1.65c0.88-1.59,1.37-3.31,1.37-5.11c0-8.11-9.85-14.69-22.01-14.69
	c-0.54,0-1.07,0.02-1.6,0.04C1208.88,149.75,1218.75,157.62,1218.75,167.24z"/>
<path class="st74" d="M1251.9,169.56c-3.31-5.32-11.16-9.06-20.33-9.06c-9.17,0-17.02,3.74-20.33,9.06H1251.9z"/>
<path class="st74" d="M1216.52,169.56c-3.04-5.68-11.17-9.75-20.73-9.75s-17.69,4.07-20.73,9.75H1216.52z"/>
<path class="st73" d="M1142.76,169.56c-1.14-1.77-1.77-3.73-1.77-5.78c0-8.11,9.85-14.69,22.01-14.69
	c12.15,0,22.01,6.58,22.01,14.69c0,2.05-0.63,4-1.77,5.78H1142.76z"/>
<path class="st73" d="M1162.97,169.56h-30.03c-3.26-2.76-5.25-6.42-5.25-10.45c0-8.59,9.07-15.55,20.27-15.55
	c11.19,0,20.27,6.96,20.27,15.55C1168.22,163.14,1166.24,166.8,1162.97,169.56z"/>
<path class="st73" d="M1109.92,169.56c-1.17-1.74-1.85-3.81-1.85-6.04c0-6.11,5.1-11.06,11.4-11.06s11.4,4.95,11.4,11.06
	c0,2.23-0.68,4.31-1.85,6.04H1109.92z"/>
<path class="st72" d="M1146.49,146.81c-7.5,0.99-14.05,4.2-18.15,8.38c2.27-6.69,10.19-11.63,19.61-11.63
	c6.37,0,12.05,2.25,15.76,5.78C1159.28,146.97,1153.16,145.93,1146.49,146.81z"/>
<path class="st72" d="M1118.64,154.77c-4.22,0.71-7.9,2.99-10.21,5.96c1.27-4.76,5.73-8.27,11.03-8.27c3.58,0,6.78,1.6,8.87,4.11
	C1125.83,154.88,1122.39,154.14,1118.64,154.77z"/>
<path class="st72" d="M1142.26,167.24c0,0.56,0.04,1.11,0.1,1.65c-0.88-1.59-1.37-3.31-1.37-5.11c0-8.11,9.85-14.69,22.01-14.69
	c0.54,0,1.07,0.02,1.6,0.04C1152.13,149.75,1142.26,157.62,1142.26,167.24z"/>
<path class="st74" d="M1109.1,169.56c3.31-5.32,11.16-9.06,20.33-9.06s17.02,3.74,20.33,9.06H1109.1z"/>
<path class="st74" d="M1144.49,169.56c3.04-5.68,11.17-9.75,20.73-9.75c9.56,0,17.69,4.07,20.73,9.75H1144.49z"/>
<path class="st75" d="M833.22,1323.56h167c5.52,0,10,4.48,10,10v59c0,6.63,5.37,12,12,12h0c6.63,0,12-5.37,12-12v-69v-24v-156
	c0-5.52,4.48-10,10-10h326c5.52,0,10,4.48,10,10v28c0,6.63,5.37,12,12,12l0,0c6.63,0,12-5.37,12-12v-360c0-5.52,4.48-10,10-10h206
	h14c5.52,0,10-4.48,10-10v-45c0-6.69-5.48-12.1-12.19-12c-6.63,0.1-11.81,5.8-11.81,12.43v20.57c0,5.52-4.48,10-10,10h-196
	c-5.52,0-10-4.48-10-10v-231c0-5.52,4.48-10,10-10h302.6c6.61,0,12.28-5.17,12.4-11.78c0.12-6.73-5.3-12.22-12-12.22h-148
	c-5.52,0-10-4.48-10-10v-78.6c0-6.61-5.17-12.28-11.78-12.4c-6.73-0.12-12.22,5.3-12.22,12v79c0,5.52-4.48,10-10,10h-372
	c-5.52,0-10-4.48-10-10v-241v-14c0-5.52-4.48-10-10-10h-14h-222c-5.52,0-10-4.48-10-10l0-48.6c0-6.61-5.17-12.28-11.78-12.4
	c-6.73-0.12-12.22,5.3-12.22,12v106c0,5.52-4.48,10-10,10h-437h-14c-5.52,0-10,4.48-10,10v14v299v24v273c0,5.52-4.48,10-10,10
	h-107.6c-6.61,0-12.28,5.17-12.4,11.78c-0.12,6.73,5.3,12.22,12,12.22h108c5.52,0,10,4.48,10,10v103c0,5.52,4.48,10,10,10h14h207
	c5.52,0,10,4.48,10,10v216c0,6.63,5.37,12,12,12h0c6.63,0,12-5.37,12-12v-226v-24v-187c0-5.52,4.48-10,10-10h333
	c5.52,0,10,4.48,10,10v259v24v156c0,5.52-4.48,10-10,10h-143c-5.52,0-10-4.48-10-10v-39c0-6.63-5.37-12-12-12h0
	c-6.63,0-12,5.37-12,12v49v14C823.22,1319.09,827.7,1323.56,833.22,1323.56z M863.22,806.56c0,5.52-4.48,10-10,10h-196h-14
	c-5.52,0-10,4.48-10,10v201c0,5.52-4.48,10-10,10h-197c-5.52,0-10-4.48-10-10v-89v-24v-273c0-5.52,4.48-10,10-10h427
	c5.52,0,10,4.48,10,10V806.56z M863.22,502.56v24v71c0,5.52-4.48,10-10,10h-83c-5.52,0-10-4.48-10-10v-65.6
	c0-6.61-5.17-12.28-11.78-12.4c-6.73-0.12-12.22,5.3-12.22,12v66c0,5.52-4.48,10-10,10h-151c-5.52,0-10-4.48-10-10v-136.6
	c0-6.61-5.17-12.28-11.78-12.4c-6.73-0.12-12.22,5.3-12.22,12v137c0,5.52-4.48,10-10,10h-105c-5.52,0-10-4.48-10-10v-279
	c0-5.52,4.48-10,10-10h427c5.52,0,10,4.48,10,10V502.56z M887.22,261.56c0-5.52,4.48-10,10-10h212c5.52,0,10,4.48,10,10v231
	c0,5.52-4.48,10-10,10h-77c-5.52,0-10-4.48-10-10v-31.6c0-6.61-5.17-12.28-11.78-12.4c-6.73-0.12-12.22,5.3-12.22,12v32
	c0,5.52-4.48,10-10,10h-91c-5.52,0-10-4.48-10-10V261.56z M887.22,806.56v-270c0-5.52,4.48-10,10-10h101h24h97h24h227
	c5.52,0,10,4.48,10,10V777.6v23.93v5.04c0,5.52-4.48,10-10,10h-214c-5.52,0-10-4.48-10-10v-51.6c0-6.61-5.17-12.28-11.78-12.4
	c-6.73-0.12-12.22,5.3-12.22,12v52c0,5.52-4.48,10-10,10h-215C891.7,816.56,887.22,812.09,887.22,806.56z M1226.22,1099.56v-22
	c0-6.63-5.37-12-12-12l0,0c-6.63,0-12,5.37-12,12v22c0,5.52-4.48,10-10,10h-148c-5.52,0-10-4.48-10-10v-249c0-5.52,4.48-10,10-10
	h326c5.52,0,10,4.48,10,10v249c0,5.52-4.48,10-10,10h-134C1230.7,1109.56,1226.22,1105.09,1226.22,1099.56z"/>
<line class="st76" x1="913.61" y1="96.87" x2="924.22" y2="156.56"/>
<line class="st76" x1="837.33" y1="96.87" x2="826.72" y2="156.56"/>
<path class="st77" d="M875.8,119.42c27.42-0.13,41.79-7.95,41.79-7.95l-2.65-15.92c0,0-18.38,5.25-39.46,5.3
	c-21.09-0.05-39.46-5.3-39.46-5.3l-2.65,15.92c0,0,14.37,7.83,41.79,7.95v0.01c0.11,0,0.22,0,0.33,0
	C875.58,119.42,875.69,119.42,875.8,119.42L875.8,119.42z"/>
<g>
	<g>
		<path class="st24" d="M841.21,110.57c-0.35-0.1-0.62-0.26-0.79-0.47c-0.17-0.21-0.28-0.5-0.31-0.87
			c-0.27-3.12-0.38-4.67-0.51-7.78c-0.01-0.43,0.13-0.74,0.4-0.95c0.28-0.21,0.65-0.24,1.12-0.09c0.33,0.1,0.57,0.26,0.7,0.47
			c0.14,0.21,0.21,0.49,0.22,0.84c0.1,2.53,0.17,3.8,0.36,6.34c-0.26-0.07-0.39-0.11-0.64-0.18c1.55-2.05,2.3-3.08,3.77-5.17
			c0.21-0.29,0.43-0.49,0.66-0.6c0.22-0.1,0.48-0.12,0.77-0.04c0.29,0.07,0.51,0.21,0.65,0.4c0.14,0.2,0.23,0.48,0.26,0.84
			c0.23,2.52,0.37,3.78,0.69,6.3c-0.21-0.05-0.32-0.07-0.54-0.12c1.39-2.14,2.07-3.22,3.38-5.39c0.18-0.3,0.37-0.51,0.59-0.63
			c0.21-0.12,0.49-0.15,0.82-0.08c0.41,0.08,0.68,0.28,0.82,0.6c0.13,0.32,0.09,0.66-0.14,1.02c-1.6,2.66-2.43,3.98-4.17,6.6
			c-0.2,0.29-0.43,0.49-0.68,0.6c-0.25,0.11-0.56,0.12-0.93,0.03c-0.35-0.08-0.61-0.22-0.8-0.42c-0.19-0.2-0.3-0.49-0.35-0.85
			c-0.31-2.26-0.45-3.39-0.7-5.64c0.14,0.04,0.2,0.05,0.34,0.09c-1.31,1.86-1.98,2.79-3.36,4.62c-0.22,0.28-0.45,0.47-0.7,0.56
			C841.9,110.68,841.58,110.68,841.21,110.57z"/>
		<path class="st24" d="M854.98,113.51c-0.46-0.07-0.79-0.24-0.99-0.5c-0.2-0.26-0.26-0.59-0.19-1.01c0.48-2.71,0.71-4.06,1.19-6.77
			c0.07-0.41,0.24-0.71,0.5-0.89s0.6-0.23,1.02-0.16c1.83,0.3,2.75,0.43,4.58,0.65c0.31,0.04,0.53,0.14,0.68,0.32
			c0.15,0.18,0.21,0.42,0.17,0.72c-0.04,0.31-0.15,0.54-0.33,0.68c-0.19,0.14-0.44,0.2-0.75,0.16c-1.43-0.17-2.15-0.27-3.58-0.49
			c-0.11,0.71-0.16,1.06-0.27,1.78c1.32,0.2,1.99,0.3,3.32,0.46c0.33,0.04,0.56,0.15,0.71,0.33c0.15,0.18,0.21,0.42,0.17,0.74
			c-0.03,0.3-0.15,0.52-0.34,0.67c-0.19,0.14-0.45,0.2-0.78,0.15c-1.35-0.17-2.02-0.26-3.37-0.47c-0.12,0.77-0.18,1.15-0.3,1.92
			c1.5,0.23,2.25,0.33,3.76,0.52c0.33,0.04,0.57,0.15,0.73,0.34c0.16,0.18,0.22,0.43,0.19,0.73c-0.03,0.31-0.15,0.54-0.35,0.67
			c-0.2,0.14-0.47,0.19-0.8,0.15C857.96,113.98,856.96,113.84,854.98,113.51z"/>
		<path class="st24" d="M863.94,114.64c-0.44-0.04-0.77-0.18-0.99-0.42s-0.31-0.56-0.27-0.96c0.28-2.77,0.41-4.15,0.69-6.92
			c0.04-0.4,0.18-0.7,0.42-0.89c0.24-0.19,0.56-0.27,0.97-0.23c0.39,0.03,0.68,0.17,0.88,0.4c0.2,0.23,0.29,0.55,0.26,0.95
			c-0.19,2.46-0.28,3.69-0.47,6.15c1.42,0.11,2.12,0.15,3.54,0.22c0.37,0.02,0.64,0.12,0.83,0.3c0.19,0.18,0.27,0.44,0.26,0.77
			c-0.01,0.33-0.12,0.58-0.32,0.75s-0.49,0.25-0.86,0.23C866.89,114.88,865.91,114.81,863.94,114.64z"/>
		<path class="st24" d="M875.85,115.26c-1.15,0.01-2.14-0.2-2.95-0.62c-0.82-0.42-1.43-1-1.85-1.74c-0.42-0.74-0.6-1.61-0.57-2.6
			c0.03-0.74,0.17-1.4,0.43-1.99c0.26-0.59,0.61-1.08,1.07-1.5c0.46-0.41,1-0.73,1.64-0.96c0.63-0.23,1.34-0.35,2.14-0.36
			c0.41,0,0.83,0.04,1.29,0.13c0.45,0.09,0.85,0.22,1.2,0.38c0.27,0.13,0.45,0.29,0.56,0.5c0.1,0.21,0.14,0.42,0.12,0.64
			c-0.02,0.22-0.1,0.41-0.22,0.58c-0.12,0.17-0.29,0.29-0.49,0.36c-0.2,0.07-0.43,0.04-0.68-0.07c-0.27-0.13-0.55-0.22-0.82-0.27
			c-0.28-0.05-0.56-0.08-0.86-0.07c-0.56,0.01-1.03,0.11-1.42,0.32c-0.38,0.21-0.68,0.51-0.88,0.91c-0.2,0.4-0.3,0.89-0.31,1.48
			c-0.01,0.59,0.09,1.09,0.28,1.49c0.2,0.4,0.5,0.71,0.89,0.92c0.4,0.21,0.89,0.31,1.48,0.31c0.27,0,0.55-0.03,0.83-0.09
			c0.28-0.06,0.57-0.16,0.84-0.29c0.27-0.12,0.53-0.16,0.76-0.12c0.23,0.04,0.42,0.14,0.57,0.3c0.15,0.16,0.24,0.34,0.29,0.55
			c0.05,0.21,0.02,0.42-0.07,0.63s-0.28,0.38-0.52,0.51c-0.33,0.19-0.76,0.36-1.26,0.48C876.84,115.2,876.34,115.26,875.85,115.26z"
			/>
		<path class="st24" d="M885.38,114.8c-1.05,0.09-1.99-0.04-2.8-0.4c-0.81-0.36-1.46-0.9-1.93-1.61c-0.48-0.71-0.73-1.55-0.77-2.53
			c-0.03-0.74,0.06-1.41,0.27-2.02c0.21-0.6,0.52-1.13,0.94-1.58c0.41-0.45,0.91-0.81,1.49-1.09s1.23-0.45,1.95-0.51
			c0.97-0.09,1.83,0.03,2.61,0.35c0.78,0.32,1.42,0.81,1.92,1.49c0.5,0.67,0.82,1.49,0.95,2.46c0.1,0.73,0.06,1.4-0.1,2.03
			c-0.17,0.63-0.45,1.18-0.86,1.66c-0.41,0.48-0.92,0.88-1.54,1.18C886.87,114.54,886.16,114.73,885.38,114.8z M885.2,112.73
			c0.51-0.05,0.93-0.2,1.27-0.46s0.57-0.61,0.72-1.04c0.15-0.44,0.19-0.95,0.12-1.54c-0.09-0.87-0.38-1.53-0.83-1.98
			c-0.46-0.45-1.04-0.64-1.77-0.58c-0.48,0.04-0.88,0.18-1.21,0.43c-0.33,0.25-0.57,0.58-0.73,1.02c-0.16,0.43-0.22,0.94-0.18,1.53
			c0.06,0.88,0.32,1.56,0.79,2.02C883.83,112.59,884.44,112.79,885.2,112.73z"/>
		<path class="st24" d="M893.47,113.78c-0.39,0.06-0.7,0.01-0.94-0.16c-0.24-0.17-0.38-0.43-0.43-0.78
			c-0.43-2.94-0.64-4.41-1.07-7.36c-0.05-0.35,0.01-0.65,0.19-0.87c0.18-0.23,0.45-0.37,0.82-0.43c0.32-0.05,0.59-0.03,0.79,0.06
			c0.2,0.09,0.41,0.27,0.61,0.52c1.5,1.84,2.28,2.76,3.88,4.55c-0.19,0.04-0.29,0.06-0.48,0.09c0.82-2.26,1.2-3.4,1.91-5.67
			c0.1-0.31,0.23-0.55,0.38-0.72c0.16-0.16,0.38-0.28,0.69-0.35c0.36-0.08,0.66-0.05,0.9,0.1c0.24,0.15,0.4,0.4,0.48,0.75
			c0.7,2.89,1.04,4.34,1.74,7.23c0.08,0.35,0.05,0.64-0.11,0.89c-0.16,0.24-0.43,0.41-0.83,0.5c-0.39,0.09-0.7,0.06-0.96-0.09
			s-0.41-0.4-0.49-0.75c-0.4-1.8-0.59-2.7-0.99-4.5c0.12-0.03,0.17-0.04,0.29-0.06c-0.57,1.66-0.87,2.49-1.5,4.15
			c-0.09,0.22-0.19,0.39-0.32,0.51c-0.13,0.13-0.32,0.21-0.57,0.26c-0.24,0.05-0.45,0.04-0.62-0.03c-0.18-0.07-0.34-0.19-0.5-0.36
			c-1.2-1.31-1.79-1.97-2.93-3.31c0.13-0.02,0.2-0.03,0.33-0.06c0.3,1.82,0.46,2.74,0.76,4.56c0.06,0.35,0,0.64-0.17,0.88
			S893.87,113.72,893.47,113.78z"/>
		<path class="st24" d="M906.41,110.89c-0.45,0.12-0.82,0.11-1.11-0.04s-0.49-0.43-0.59-0.84c-0.69-2.66-1.03-3.99-1.72-6.66
			c-0.1-0.41-0.08-0.74,0.09-1.01c0.16-0.27,0.45-0.46,0.86-0.57c1.8-0.49,2.7-0.75,4.48-1.31c0.3-0.09,0.55-0.09,0.76,0.01
			c0.21,0.1,0.36,0.3,0.46,0.58c0.1,0.3,0.09,0.55-0.02,0.76c-0.11,0.21-0.32,0.36-0.62,0.46c-1.39,0.44-2.09,0.65-3.49,1.04
			c0.19,0.69,0.29,1.04,0.49,1.73c1.3-0.36,1.95-0.56,3.24-0.96c0.32-0.1,0.58-0.1,0.79,0c0.21,0.1,0.37,0.3,0.46,0.6
			c0.09,0.29,0.08,0.54-0.03,0.75c-0.11,0.21-0.33,0.37-0.65,0.47c-1.31,0.41-1.97,0.6-3.29,0.97c0.21,0.75,0.31,1.12,0.52,1.87
			c1.47-0.41,2.2-0.63,3.66-1.09c0.32-0.1,0.59-0.1,0.81,0c0.22,0.1,0.38,0.3,0.48,0.59c0.1,0.3,0.08,0.55-0.04,0.76
			c-0.13,0.21-0.35,0.37-0.67,0.47C909.33,110.08,908.36,110.37,906.41,110.89z"/>
	</g>
</g>
</svg>
