<?xml version="1.0" encoding="utf-8"?>
<!-- Generator: Adobe Illustrator 24.0.1, SVG Export Plug-In . SVG Version: 6.00 Build 0)  -->
<svg version="1.1" id="Слой_1" xmlns="http://www.w3.org/2000/svg" xmlns:xlink="http://www.w3.org/1999/xlink" x="0px" y="0px"
	 viewBox="0 0 529 180" style="enable-background:new 0 0 529 180;" xml:space="preserve">
<style type="text/css">
	.st0{fill:none;stroke:#701809;stroke-width:3;stroke-miterlimit:10;}
	.st1{fill:none;stroke:#701809;stroke-width:4;stroke-miterlimit:10;}
	.st2{fill:none;stroke:#8B2009;stroke-width:6;stroke-miterlimit:10;}
</style>
<line class="st0" x1="473.38" y1="79.01" x2="473.38" y2="175.4"/>
<line class="st0" x1="500.53" y1="93.67" x2="500.5" y2="174"/>
<line class="st0" x1="445.3" y1="71.5" x2="445.3" y2="175.5"/>
<line class="st0" x1="417.23" y1="68.44" x2="417.23" y2="175.5"/>
<line class="st0" x1="389.16" y1="70.41" x2="389.16" y2="175.5"/>
<line class="st0" x1="361.08" y1="76.54" x2="361.08" y2="175.5"/>
<line class="st0" x1="333.01" y1="86.53" x2="333.01" y2="175.5"/>
<line class="st0" x1="333.01" y1="83.66" x2="333.01" y2="175.4"/>
<line class="st0" x1="304.94" y1="89.99" x2="304.94" y2="175.4"/>
<line class="st0" x1="276.86" y1="91.57" x2="276.86" y2="175.4"/>
<line class="st0" x1="248.82" y1="88.95" x2="248.82" y2="177.92"/>
<line class="st0" x1="220.71" y1="86.53" x2="220.71" y2="175.5"/>
<line class="st0" x1="220.75" y1="76.54" x2="220.71" y2="175.4"/>
<line class="st0" x1="192.64" y1="86.53" x2="192.64" y2="175.5"/>
<line class="st0" x1="192.64" y1="32.69" x2="192.64" y2="175.4"/>
<line class="st0" x1="164.57" y1="86.53" x2="164.57" y2="175.5"/>
<line class="st0" x1="164.53" y1="3.86" x2="164.57" y2="175.4"/>
<line class="st0" x1="136.49" y1="86.53" x2="136.49" y2="175.5"/>
<line class="st0" x1="136.49" y1="57.16" x2="136.49" y2="175.5"/>
<line class="st0" x1="108.42" y1="100.66" x2="108.42" y2="175.5"/>
<line class="st0" x1="80.42" y1="109.08" x2="80.42" y2="177.87"/>
<path class="st1" d="M60.93,187.9"/>
<path class="st0" d="M473.53,106.67c0,0-20.14-14.25-71.91-11.6c-23.16,1.19-84.48,21.02-102.05,22.14
	c-33.26,2.14-76.34,0.3-106.93-38.2c-21.21-26.69-48.46-8.7-56.05,21.75c-5.94,23.84-8.88,25.45-29.66,27.23"/>
<line class="st0" x1="192.54" y1="78.22" x2="165.22" y2="4.35"/>
<line class="st0" x1="137.21" y1="98.59" x2="163.78" y2="4.1"/>
<line class="st0" x1="192.54" y1="78.22" x2="220.75" y2="76.54"/>
<line class="st0" x1="248.69" y1="114.21" x2="220.75" y2="76.54"/>
<line class="st0" x1="276.76" y1="91.67" x2="248.69" y2="114.21"/>
<line class="st0" x1="305.04" y1="116.58" x2="276.76" y2="91.67"/>
<line class="st0" x1="333.11" y1="83.56" x2="305.04" y2="116.58"/>
<line class="st0" x1="361.19" y1="102.94" x2="333.11" y2="83.56"/>
<line class="st0" x1="389.26" y1="70.51" x2="361.19" y2="102.94"/>
<line class="st0" x1="417.33" y1="95.03" x2="389.26" y2="70.31"/>
<line class="st0" x1="445.41" y1="71.5" x2="417.33" y2="95.03"/>
<line class="st0" x1="473.48" y1="106.3" x2="445.41" y2="71.5"/>
<line class="st0" x1="136.6" y1="100.76" x2="108.32" y2="100.57"/>
<path class="st1" d="M108.32,100.57"/>
<path class="st1" d="M89.37,198.02"/>
<path class="st2" d="M80.93,177.65c-47-1.18-44.99-70.37,9.23-69.16c26.77,0.59,48.99-48.41,52.44-79.52
	c3.52-31.67,41.02-35.22,49.42,0c13.07,54.79,53.07,68.34,107.58,61.62c17.47-2.15,78.89-20.96,102.05-22.14
	c51.77-2.65,71.12,6.17,89.96,19.38c16.92,11.86,32.92,29.86,33.92,43.86c1.7,23.74-16.93,45.72-37.53,45.33l-409.07,0.65"/>
<g>
	<line class="st2" x1="81.53" y1="177.67" x2="-0.47" y2="177.67"/>
</g>
</svg>
