<?xml version="1.0" encoding="utf-8"?>
<!-- Generator: Adobe Illustrator 26.3.1, SVG Export Plug-In . SVG Version: 6.00 Build 0)  -->
<svg version="1.1" id="Слой_1" xmlns="http://www.w3.org/2000/svg" xmlns:xlink="http://www.w3.org/1999/xlink" x="0px" y="0px"
	 viewBox="0 0 384 350.5" style="enable-background:new 0 0 384 350.5;" xml:space="preserve">
<style type="text/css">
	.st0{fill:none;stroke:#EAE678;stroke-width:5;stroke-miterlimit:10;}
	.st1{fill:#A88F55;}
</style>
<path class="st0" d="M375.92,101.41l-0.36-66.95c-0.08-14.75-12.26-26.67-27.27-26.67H36.56C20.16,7.79,6.85,20.87,6.85,37v278.57
	c0,15.17,12.51,27.47,27.94,27.47h89.8c14.77,0,26.75-11.77,26.75-26.3V147.99c0-11.14,9.19-20.18,20.52-20.18h177.34
	C364.02,127.81,376,115.97,375.92,101.41z"/>
<path class="st0" d="M357.13,94.07l-0.4-53.02C356.66,32.17,349.29,25,340.22,25H42.35c-9.12,0-16.51,7.24-16.51,16.18v266.43
	c0,8.94,7.39,16.18,16.51,16.18h74.89c9.12,0,16.51-7.24,16.51-16.18V141.48c0-17.18,14.21-31.1,31.73-31.1h175.14
	C349.79,110.37,357.2,103.06,357.13,94.07z"/>
<rect x="153.48" y="104.73" transform="matrix(0.866 -0.5 0.5 0.866 -39.3345 94.8006)" class="st1" width="7.5" height="32.13"/>
<rect x="140.23" y="117.92" transform="matrix(-0.5 0.866 -0.866 -0.5 332.0556 76.3786)" class="st1" width="7.5" height="32.26"/>
<rect x="28.46" y="-0.09" transform="matrix(0.866 -0.5 0.5 0.866 -4.6973 18.5192)" class="st1" width="7.5" height="36.23"/>
<rect x="14.3" y="13.57" transform="matrix(-0.5 0.866 -0.866 -0.5 54.721 32.2657)" class="st1" width="7.5" height="36.72"/>
<rect x="348.14" y="102.09" transform="matrix(-0.866 0.5 -0.5 -0.866 716.1782 46.2418)" class="st1" width="7.5" height="33.96"/>
<rect x="362.23" y="88.16" transform="matrix(0.5 -0.866 0.866 0.5 91.3846 369.8367)" class="st1" width="7.5" height="35.24"/>
<rect x="362.33" y="12.79" transform="matrix(0.5 0.866 -0.866 0.5 208.5233 -302.3269)" class="st1" width="7.5" height="33.26"/>
<rect x="348.28" y="0.02" transform="matrix(-0.866 -0.5 0.5 -0.866 648.3817 207.7634)" class="st1" width="7.5" height="33.98"/>
<rect x="125.83" y="313.94" transform="matrix(-0.866 0.5 -0.5 -0.866 407.5713 553.873)" class="st1" width="7.5" height="35.2"/>
<rect x="139.26" y="300.29" transform="matrix(0.5 -0.866 0.866 0.5 -203.4687 282.6115)" class="st1" width="7.5" height="34.44"/>
<rect x="13.43" y="302.84" transform="matrix(-0.5 -0.866 0.866 -0.5 -250.8524 493.9896)" class="st1" width="7.5" height="33.14"/>
<rect x="26.88" y="316.22" transform="matrix(0.866 0.5 -0.5 0.866 170.5112 29.276)" class="st1" width="7.5" height="33.19"/>
<rect x="48.29" y="-0.12" class="st1" width="7.5" height="32.25"/>
<rect x="65.29" y="-0.12" class="st1" width="7.5" height="32.25"/>
<rect x="82.29" y="-0.12" class="st1" width="7.5" height="32.25"/>
<rect x="99.29" y="-0.12" class="st1" width="7.5" height="32.25"/>
<rect x="115.29" y="-0.12" class="st1" width="7.5" height="32.25"/>
<rect x="44.29" y="317.88" class="st1" width="7.5" height="32.25"/>
<rect x="60.29" y="317.88" class="st1" width="7.5" height="32.25"/>
<rect x="76.29" y="317.88" class="st1" width="7.5" height="32.25"/>
<rect x="92.29" y="317.88" class="st1" width="7.5" height="32.25"/>
<rect x="108.29" y="317.88" class="st1" width="7.5" height="32.25"/>
<rect x="132.29" y="-0.12" class="st1" width="7.5" height="32.25"/>
<rect x="149.29" y="-0.12" class="st1" width="7.5" height="32.25"/>
<rect x="12.79" y="153.38" transform="matrix(-4.488034e-07 1 -1 -4.488034e-07 186.0435 152.9566)" class="st1" width="7.5" height="32.25"/>
<rect x="12.79" y="170.38" transform="matrix(-4.488031e-07 1 -1 -4.488031e-07 203.0435 169.9566)" class="st1" width="7.5" height="32.25"/>
<rect x="12.79" y="187.38" transform="matrix(-4.488034e-07 1 -1 -4.488034e-07 220.0435 186.9566)" class="st1" width="7.5" height="32.25"/>
<rect x="12.79" y="204.38" transform="matrix(-4.488031e-07 1 -1 -4.488031e-07 237.0435 203.9566)" class="st1" width="7.5" height="32.25"/>
<rect x="12.79" y="220.38" transform="matrix(-4.488034e-07 1 -1 -4.488034e-07 253.0435 219.9566)" class="st1" width="7.5" height="32.25"/>
<rect x="12.79" y="237.38" transform="matrix(-4.488031e-07 1 -1 -4.488031e-07 270.0435 236.9566)" class="st1" width="7.5" height="32.25"/>
<rect x="12.79" y="254.38" transform="matrix(-4.488034e-07 1 -1 -4.488034e-07 287.0435 253.9566)" class="st1" width="7.5" height="32.25"/>
<rect x="12.79" y="270.38" transform="matrix(-4.488031e-07 1 -1 -4.488031e-07 303.0435 269.9567)" class="st1" width="7.5" height="32.25"/>
<rect x="12.79" y="286.38" transform="matrix(-4.488034e-07 1 -1 -4.488034e-07 319.0435 285.9567)" class="st1" width="7.5" height="32.25"/>
<rect x="12.79" y="36.38" transform="matrix(-4.488034e-07 1 -1 -4.488034e-07 69.0435 35.9565)" class="st1" width="7.5" height="32.25"/>
<rect x="12.79" y="53.38" transform="matrix(-4.488031e-07 1 -1 -4.488031e-07 86.0435 52.9565)" class="st1" width="7.5" height="32.25"/>
<rect x="12.79" y="70.38" transform="matrix(-4.488034e-07 1 -1 -4.488034e-07 103.0435 69.9566)" class="st1" width="7.5" height="32.25"/>
<rect x="363.79" y="34.38" transform="matrix(-4.488034e-07 1 -1 -4.488034e-07 418.0436 -317.0435)" class="st1" width="7.5" height="32.25"/>
<rect x="363.79" y="51.38" transform="matrix(-4.488034e-07 1 -1 -4.488034e-07 435.0436 -300.0435)" class="st1" width="7.5" height="32.25"/>
<rect x="363.79" y="68.38" transform="matrix(-4.488034e-07 1 -1 -4.488034e-07 452.0436 -283.0435)" class="st1" width="7.5" height="32.25"/>
<rect x="12.79" y="87.38" transform="matrix(-4.488031e-07 1 -1 -4.488031e-07 120.0435 86.9566)" class="st1" width="7.5" height="32.25"/>
<rect x="12.79" y="103.38" transform="matrix(-4.488034e-07 1 -1 -4.488034e-07 136.0435 102.9566)" class="st1" width="7.5" height="32.25"/>
<rect x="12.79" y="120.38" transform="matrix(-4.488031e-07 1 -1 -4.488031e-07 153.0435 119.9566)" class="st1" width="7.5" height="32.25"/>
<rect x="12.79" y="137.38" transform="matrix(-4.488034e-07 1 -1 -4.488034e-07 170.0435 136.9566)" class="st1" width="7.5" height="32.25"/>
<rect x="137.79" y="151.38" transform="matrix(-4.488034e-07 1 -1 -4.488034e-07 309.0435 25.9566)" class="st1" width="7.5" height="32.25"/>
<rect x="137.79" y="168.38" transform="matrix(-4.488031e-07 1 -1 -4.488031e-07 326.0435 42.9566)" class="st1" width="7.5" height="32.25"/>
<rect x="137.79" y="185.38" transform="matrix(-4.488034e-07 1 -1 -4.488034e-07 343.0435 59.9566)" class="st1" width="7.5" height="32.25"/>
<rect x="137.79" y="202.38" transform="matrix(-4.488031e-07 1 -1 -4.488031e-07 360.0435 76.9566)" class="st1" width="7.5" height="32.25"/>
<rect x="137.79" y="218.38" transform="matrix(-4.488034e-07 1 -1 -4.488034e-07 376.0435 92.9566)" class="st1" width="7.5" height="32.25"/>
<rect x="137.79" y="235.38" transform="matrix(-4.488031e-07 1 -1 -4.488031e-07 393.0435 109.9566)" class="st1" width="7.5" height="32.25"/>
<rect x="137.79" y="252.38" transform="matrix(-4.488034e-07 1 -1 -4.488034e-07 410.0435 126.9566)" class="st1" width="7.5" height="32.25"/>
<rect x="137.79" y="268.38" transform="matrix(-4.488031e-07 1 -1 -4.488031e-07 426.0435 142.9566)" class="st1" width="7.5" height="32.25"/>
<rect x="137.79" y="284.38" transform="matrix(-4.488034e-07 1 -1 -4.488034e-07 442.0435 158.9567)" class="st1" width="7.5" height="32.25"/>
<rect x="137.79" y="135.38" transform="matrix(-4.488034e-07 1 -1 -4.488034e-07 293.0435 9.9566)" class="st1" width="7.5" height="32.25"/>
<rect x="166.29" y="-0.12" class="st1" width="7.5" height="32.25"/>
<rect x="182.29" y="-0.12" class="st1" width="7.5" height="32.25"/>
<rect x="199.29" y="-0.12" class="st1" width="7.5" height="32.25"/>
<rect x="216.29" y="-0.12" class="st1" width="7.5" height="32.25"/>
<rect x="233.29" y="-0.12" class="st1" width="7.5" height="32.25"/>
<rect x="249.29" y="-0.12" class="st1" width="7.5" height="32.25"/>
<rect x="266.29" y="-0.12" class="st1" width="7.5" height="32.25"/>
<rect x="283.29" y="-0.12" class="st1" width="7.5" height="32.25"/>
<rect x="300.29" y="-0.12" class="st1" width="7.5" height="32.25"/>
<rect x="314.29" y="-0.12" class="st1" width="7.5" height="32.25"/>
<rect x="331.29" y="-0.12" class="st1" width="7.5" height="32.25"/>
<rect x="170.29" y="102.88" class="st1" width="7.5" height="32.25"/>
<rect x="185.29" y="102.88" class="st1" width="7.5" height="32.25"/>
<rect x="200.29" y="102.88" class="st1" width="7.5" height="32.25"/>
<rect x="217.29" y="102.88" class="st1" width="7.5" height="32.25"/>
<rect x="233.29" y="102.88" class="st1" width="7.5" height="32.25"/>
<rect x="249.29" y="102.88" class="st1" width="7.5" height="32.25"/>
<rect x="266.29" y="102.88" class="st1" width="7.5" height="32.25"/>
<rect x="283.29" y="102.88" class="st1" width="7.5" height="32.25"/>
<rect x="300.29" y="102.88" class="st1" width="7.5" height="32.25"/>
<rect x="316.29" y="102.88" class="st1" width="7.5" height="32.25"/>
<rect x="331.29" y="102.88" class="st1" width="7.5" height="32.25"/>
</svg>
