<?xml version="1.0" encoding="utf-8"?>
<!-- Generator: Adobe Illustrator 24.3.0, SVG Export Plug-In . SVG Version: 6.00 Build 0)  -->
<svg version="1.1" xmlns="http://www.w3.org/2000/svg" xmlns:xlink="http://www.w3.org/1999/xlink" x="0px" y="0px"
	 viewBox="0 0 800 800" style="enable-background:new 0 0 800 800;" xml:space="preserve">
<style type="text/css">
	.st0{fill:#D91C5C;}
	.st1{font-family:'Intro';}
	.st2{font-size:100px;}
	.st3{fill:#FFFFFF;}
	.st4{stroke:#000000;stroke-miterlimit:10;}
	.st5{fill:#FFFFFF;stroke:#000000;stroke-miterlimit:10;}
	.st6{fill:none;stroke:#000000;stroke-width:14;stroke-miterlimit:10;}
	.st7{fill:none;stroke:#000000;stroke-width:12;stroke-miterlimit:10;}
	.st8{fill-rule:evenodd;clip-rule:evenodd;fill:#A1A3A0;}
	.st9{fill-rule:evenodd;clip-rule:evenodd;fill:#FFFFFF;}
	.st10{fill:none;stroke:#FFFFFF;stroke-width:2;stroke-miterlimit:10;}
	.st11{fill:none;stroke:#000000;stroke-width:2;stroke-miterlimit:10;}
	.st12{fill:#200B12;}
</style>
<g id="background">
	<rect x="-1.97" y="1.2" class="st0" width="800" height="800"/>
	<polygon points="-412.36,-263.78 -411.75,-263.82 -411.98,-263.81 	"/>
</g>
<g id="_x31_">
	<text transform="matrix(1 0 0 1 117.0995 111.0266)" class="st1 st2">С 8 МАРТА!</text>
	<path d="M692.84,510.5c-12.87-0.6-26.19,9.55-24.81,26.21c2.13,17.9,9.52,27.56,18.98,29.42l-1.63,3.14l4.03,0.19l0.4,0.02
		l3.66,0.17l-1.38-3.3c12.09-1.34,20.63-15.16,22.58-29.33C716.34,520.01,705.71,511.09,692.84,510.5z"/>
	<path d="M641.61,538.1c-12.86,0.81-25,12.35-21.81,28.76c4.07,17.56,12.46,26.36,22.07,27.18l-1.28,3.3l4.03-0.25l0.4-0.02
		l3.66-0.23l-1.73-3.12c11.87-2.65,18.86-17.32,19.25-31.62C666,544.99,654.47,537.29,641.61,538.1z"/>
	<path d="M658.94,476.47c-12.88-0.27-25.94,10.22-24.14,26.84c2.59,17.84,10.21,27.31,19.72,28.93l-1.55,3.18l4.04,0.08l0.4,0.01
		l3.66,0.08l-1.47-3.26c12.05-1.65,20.24-15.68,21.82-29.9C682.67,485.38,671.82,476.74,658.94,476.47z"/>
	<path d="M604.26,559.93c-12.31,3.79-21.43,17.84-14.5,33.05c8.05,16.12,18.27,22.73,27.8,21.28l-0.47,3.5l3.86-1.19l0.39-0.12
		l3.5-1.08l-2.41-2.63c10.93-5.34,14.3-21.24,11.34-35.24C629.59,560.94,616.57,556.14,604.26,559.93z"/>
	<path d="M620.51,628.09c-11.27,6.24-17.29,21.87-7.38,35.33c11.2,14.12,22.56,18.48,31.59,15.1l0.26,3.53l3.53-1.96l0.35-0.2
		l3.21-1.78l-2.91-2.08c9.59-7.48,9.62-23.73,3.84-36.82C645.51,623.86,631.79,621.84,620.51,628.09z"/>
	<path d="M737.38,586.64c-11.89-4.97-27.88,0-32.29,16.12c-4.13,17.54-0.51,29.16,7.74,34.14l-2.6,2.39l3.73,1.56l0.37,0.16
		l3.38,1.41l-0.17-3.57c11.82,2.89,24.58-7.17,31.26-19.82C756.19,603.63,749.26,591.62,737.38,586.64z"/>
	<path d="M687.6,573.37c-12.77-1.69-26.91,7.29-26.96,24c0.6,18.01,7.13,28.28,16.4,30.93l-1.89,2.99l4,0.53l0.4,0.05l3.63,0.48
		l-1.1-3.4c12.16-0.3,21.85-13.35,24.99-27.3C710.2,584.85,700.37,575.07,687.6,573.37z"/>
	<path d="M725.86,485.72c-12.68-2.3-27.23,5.98-28.08,22.68c-0.27,18.02,5.76,28.59,14.89,31.69l-2.03,2.89l3.97,0.72l0.4,0.07
		l3.61,0.66l-0.93-3.45c12.16,0.28,22.47-12.28,26.28-26.07C747.88,498.28,738.53,488.03,725.86,485.72z"/>
	<path d="M740.73,531.31c-10.9-3.45-24.65,2.21-27.27,16.82c-2.26,15.84,1.86,25.82,9.56,29.57l-2.11,2.32l3.42,1.08l0.34,0.11
		l3.1,0.98l-0.43-3.14c10.68,1.61,21.16-8.29,26.07-20C758.72,544.84,751.64,534.76,740.73,531.31z"/>
	<path class="st3" d="M669.81,773.77l-0.93-0.37c0.89-2.27,0.99-25.1,1.05-40.21c0.03-7.83,0.06-14.02,0.18-15.33
		c0.1-1.11,0.19-2.19,0.27-3.26c0.37-4.72,0.73-9.18,2.31-14.03c5.82-17.86,8.1-34.41,7.17-52.08c-0.31-5.84-1.14-11.66-1.94-17.3
		c-1.06-7.42-2.15-15.09-2.07-22.88c0.1-9.16,1.43-22.14,7.15-31.99c1.04-1.78,2.41-3.58,3.86-5.48c3.49-4.58,7.1-9.31,6.66-14.57
		l1-0.08c0.47,5.65-3.43,10.75-6.86,15.26c-1.43,1.87-2.78,3.64-3.79,5.37c-5.62,9.65-6.91,22.46-7.02,31.5
		c-0.09,7.72,1,15.35,2.06,22.73c0.81,5.65,1.64,11.5,1.95,17.38c0.94,17.8-1.35,34.46-7.22,52.45c-1.54,4.73-1.89,9.13-2.26,13.8
		c-0.08,1.07-0.17,2.16-0.27,3.27c-0.12,1.26-0.14,7.43-0.17,15.24C670.84,753.3,670.69,771.52,669.81,773.77z"/>
	<path class="st3" d="M669.06,771.23h-1c0-2.73,0.11-8.99,0.25-16.92c0.34-19.09,0.85-47.95,0.25-54.57
		c-1.06-11.65-8.68-24.08-14.8-34.06l-1.02-1.66c-5.61-9.19-6.11-17.29-6.69-26.68c-0.16-2.58-0.32-5.26-0.6-8.05
		c-1.27-12.6-1.89-24.39-1.89-36.06h1c0,11.63,0.62,23.39,1.89,35.96c0.28,2.81,0.45,5.49,0.61,8.09
		c0.57,9.25,1.06,17.25,6.54,26.22l1.02,1.66c6.18,10.08,13.86,22.61,14.94,34.5c0.61,6.67,0.09,35.56-0.25,54.68
		C669.17,762.25,669.06,768.51,669.06,771.23z"/>
	<path class="st3" d="M670.93,777.77h-1l0-1.3c-0.03-49.6,1.42-64.48,2.64-68.23c3.3-10.17,10.68-17.05,18.49-24.34
		c9.79-9.13,16.16-18.48,20.03-29.4c2.79-7.87,3.64-15.48,4.54-23.53c0.48-4.33,0.98-8.81,1.81-13.3l0.98,0.18
		c-0.82,4.45-1.32,8.91-1.8,13.22c-0.87,7.76-1.76,15.78-4.59,23.75c-3.93,11.08-10.38,20.55-20.29,29.79
		c-7.71,7.19-14.99,13.99-18.22,23.92c-1.2,3.68-2.61,18.45-2.59,67.92L670.93,777.77z"/>
	<path class="st3" d="M668.42,777.85l-0.99-0.16c1.4-8.38,1.14-24.3,0.86-41.16c-0.42-25.93-0.9-55.32,4.31-67.59
		c5.57-13.1,13.11-20.59,20.41-27.83c7.26-7.2,14.77-14.65,20.28-27.69l0.44-1.04c2.45-5.78,5.5-12.97,6.19-19.21
		c0.45-4.04,3.9-11.12,6.18-15.81c0.4-0.82,0.75-1.54,1.04-2.14l0.9,0.43c-0.28,0.6-0.64,1.33-1.04,2.15
		c-2.12,4.34-5.66,11.61-6.09,15.48c-0.71,6.38-3.79,13.65-6.26,19.48l-0.44,1.04c-5.59,13.21-13.17,20.74-20.5,28.01
		c-7.23,7.17-14.71,14.59-20.2,27.51c-5.13,12.08-4.65,41.35-4.23,67.19C669.57,753.41,669.83,769.38,668.42,777.85z"/>
	<path class="st3" d="M673.43,774.77h-1c0-31.69-1.97-102.38-5.88-130.44c-1.19-8.5-2.88-16.93-4.53-25.09
		c-2.61-12.98-5.31-26.4-5.98-40.25c-0.85-17.57,0.09-35.33,0.99-52.51c0.13-2.58,0.27-5.15,0.4-7.73l1,0.05
		c-0.13,2.58-0.26,5.15-0.4,7.73c-0.9,17.15-1.83,34.88-0.99,52.41c0.66,13.78,3.36,27.16,5.96,40.1
		c1.64,8.17,3.34,16.63,4.54,25.15C671.46,672.29,673.43,743.05,673.43,774.77z"/>
	<path class="st3" d="M674.43,779.28l-1-0.03c0.14-4.34-1.27-50.45-1.5-54.46c-0.43-7.39-1.39-14.78-3.12-23.97
		c-1.9-10.11-6.67-28.93-17.3-41.38c-1.37-1.6-2.79-3.24-4.23-4.9c-14.55-16.78-31.05-35.79-30.35-58.29l1,0.03
		c-0.69,22.11,15.67,40.97,30.11,57.61c1.45,1.67,2.86,3.3,4.23,4.91c10.78,12.62,15.61,31.64,17.53,41.85
		c1.73,9.23,2.7,16.66,3.13,24.1C673.16,728.75,674.57,774.94,674.43,779.28z"/>
	<path class="st3" d="M671.66,777.41l-0.96-0.28c1.29-4.52,3.22-52,1.76-57.49c-1.74-6.54-5.52-12.69-8.22-16.74
		c-0.99-1.49-1.94-2.99-2.89-4.49c-1.99-3.14-4.05-6.39-6.44-9.41c-0.78-0.98-1.54-1.91-2.28-2.81c-3.13-3.82-5.84-7.12-8.16-12.22
		l0.91-0.41c2.26,4.98,4.93,8.24,8.02,12c0.74,0.91,1.51,1.84,2.29,2.82c2.42,3.05,4.5,6.33,6.5,9.49c0.95,1.49,1.89,2.99,2.88,4.47
		c2.74,4.11,6.58,10.35,8.36,17.04C674.9,724.93,672.96,772.85,671.66,777.41z"/>
	<path class="st3" d="M670.43,774.31l-1-0.08c1.08-13.11,5.97-47.7,9.54-72.95c1.25-8.87,2.34-16.53,2.96-21.2
		c0.32-2.43,0.62-4.86,0.92-7.28c1.36-10.99,2.65-21.38,5.98-31.7c2.25-6.97,4.58-14.02,6.83-20.84
		c4.6-13.93,9.36-28.33,13.66-42.63c2.71-9.03,4.09-19.41,4.09-30.86h1c0,11.55-1.39,22.03-4.13,31.15
		c-4.31,14.32-9.07,28.73-13.67,42.66c-2.25,6.82-4.58,13.87-6.83,20.84c-3.3,10.23-4.59,20.57-5.94,31.51
		c-0.3,2.42-0.6,4.85-0.93,7.29c-0.62,4.67-1.71,12.33-2.96,21.2C676.39,726.66,671.51,761.23,670.43,774.31z"/>
	<rect x="662.33" y="735.5" width="18.5" height="45"/>
	<polygon points="802.07,780 456.91,780 456.91,761 144.91,761 144.91,780 -4.25,780 -4.25,800 802.07,800 	"/>
	<g>
		<rect x="403.99" y="625.64" class="st4" width="49.92" height="20.32"/>
		<path class="st4" d="M443.55,667.09h-29.21c-5.7,0-10.36-4.66-10.36-10.36v-11.01h49.92v11.01
			C453.91,662.43,449.25,667.09,443.55,667.09z"/>
		<rect x="403.99" y="632.61" class="st5" width="49.92" height="24.38"/>
		<path class="st5" d="M437.39,634.43h-16.67h-12.75c-1.26,0-2.28,1.04-2.28,2.33v15.96c0,1.29,1.02,2.33,2.28,2.33h12.75h16.67
			h12.54c1.26,0,2.28-1.04,2.28-2.33v-15.96c0-1.29-1.02-2.33-2.28-2.33H437.39z"/>
		<rect x="403.99" y="625.64" class="st4" width="49.92" height="4.64"/>
		<path class="st4" d="M428.95,606.89l-24.04,15.14c-2.73,1.72-1.51,5.94,1.71,5.94h44.65c3.23,0,4.44-4.22,1.71-5.94L428.95,606.89
			z"/>
		<polygon class="st5" points="409.27,655.11 417.27,655.11 431.31,634.49 423.3,634.49 		"/>
		<polygon class="st5" points="431.49,655.18 436.67,655.18 450.7,634.56 445.53,634.56 		"/>
		<rect x="418.74" y="633.77" class="st5" width="2.27" height="21.48"/>
		<rect x="436.32" y="634.35" class="st5" width="2.27" height="21.48"/>
		<path class="st4" d="M433.72,609.95l-4.87-3.07l-30.95,19.49c-0.72,0.45-0.41,1.59,0.44,1.59h6.77L433.72,609.95z"/>
		<rect x="472.34" y="500.43" class="st5" width="2.27" height="21.48"/>
		<ellipse class="st6" cx="298.42" cy="466.29" rx="181.32" ry="185.56"/>
		<g>
			<rect x="169.3" y="746.07" width="260.86" height="15.02"/>
			<g>
				<path d="M429.66,746.57v14.02H299.73H169.8v-14.02h129.93H429.66 M430.66,745.57H299.73H168.8v16.02h130.93h130.93V745.57
					L430.66,745.57z"/>
			</g>
		</g>
		<g>
			<polygon points="198.54,750.04 295.5,453.76 308.1,458.86 211.15,755.15 			"/>
			<g>
				<path d="M295.81,454.42l11.68,4.73l-48.35,147.73l-48.3,147.6l-11.68-4.73l48.35-147.73L295.81,454.42 M295.19,453.09
					l-48.64,148.62l-48.64,148.62l13.53,5.48l48.64-148.62l48.64-148.62L295.19,453.09L295.19,453.09z"/>
			</g>
		</g>
		<g>
			<polygon points="290.05,458.86 302.65,453.76 399.46,749.58 386.85,754.68 			"/>
			<g>
				<path d="M302.34,454.42l48.23,147.37l48.27,147.5l-11.68,4.73l-48.23-147.37l-48.27-147.5L302.34,454.42 M302.96,453.09
					l-13.53,5.48l48.56,148.39l48.56,148.39l13.53-5.48l-48.56-148.39L302.96,453.09L302.96,453.09z"/>
			</g>
		</g>
		<g>
			<line class="st7" x1="299.08" y1="276.7" x2="299.08" y2="466.96"/>
			<line class="st8" x1="299.08" y1="276.7" x2="299.08" y2="466.96"/>
		</g>
		<g>
			<line class="st7" x1="299.73" y1="467.63" x2="299.73" y2="657.89"/>
			<line class="st8" x1="299.73" y1="467.63" x2="299.73" y2="657.89"/>
		</g>
		<g>
			<line class="st7" x1="485.65" y1="466.78" x2="299.73" y2="466.78"/>
			<line class="st8" x1="485.65" y1="466.78" x2="299.73" y2="466.78"/>
		</g>
		<g>
			<line class="st7" x1="298.75" y1="466.8" x2="112.83" y2="466.8"/>
			<line class="st8" x1="298.75" y1="466.8" x2="112.83" y2="466.8"/>
		</g>
		<g>
			<line class="st7" x1="429.9" y1="331.49" x2="298.43" y2="466.02"/>
			<line class="st8" x1="429.9" y1="331.49" x2="298.43" y2="466.02"/>
		</g>
		<g>
			<line class="st7" x1="298.43" y1="466.97" x2="166.97" y2="601.5"/>
			<line class="st8" x1="298.43" y1="466.97" x2="166.97" y2="601.5"/>
		</g>
		<g>
			<line class="st7" x1="429.9" y1="601.03" x2="298.43" y2="466.5"/>
			<line class="st8" x1="429.9" y1="601.03" x2="298.43" y2="466.5"/>
		</g>
		<g>
			<line class="st7" x1="297.51" y1="466.5" x2="166.04" y2="331.96"/>
			<line class="st8" x1="297.51" y1="466.5" x2="166.04" y2="331.96"/>
		</g>
		<g>
			<ellipse cx="299.08" cy="466.96" rx="40.74" ry="41.71"/>
			<path d="M299.08,425.75c22.19,0,40.24,18.48,40.24,41.21c0,22.72-18.05,41.21-40.24,41.21c-22.19,0-40.24-18.48-40.24-41.21
				C258.83,444.24,276.89,425.75,299.08,425.75 M299.08,424.75c-22.78,0-41.24,18.9-41.24,42.21c0,23.31,18.47,42.21,41.24,42.21
				c22.78,0,41.24-18.9,41.24-42.21C340.32,443.65,321.85,424.75,299.08,424.75L299.08,424.75z"/>
		</g>
		<ellipse class="st6" cx="299.63" cy="468.9" rx="103.5" ry="105.92"/>
		<rect x="403.99" y="625.64" class="st4" width="49.92" height="20.32"/>
		<path class="st4" d="M443.55,667.09h-29.21c-5.7,0-10.36-4.66-10.36-10.36v-11.01h49.92v11.01
			C453.91,662.43,449.25,667.09,443.55,667.09z"/>
		<path class="st4" d="M417.04,667.09c-3.74,0-6.81-3.13-6.81-6.97v-6.62h-6.24v6.62c0,3.83,3.06,6.97,6.81,6.97h7.94l0,0H417.04z"
			/>
		<rect x="403.99" y="632.61" class="st5" width="49.92" height="24.38"/>
		<path class="st5" d="M437.39,634.43h-16.67h-12.75c-1.26,0-2.28,1.04-2.28,2.33v15.96c0,1.29,1.02,2.33,2.28,2.33h12.75h16.67
			h12.54c1.26,0,2.28-1.04,2.28-2.33v-15.96c0-1.29-1.02-2.33-2.28-2.33H437.39z"/>
		<rect x="403.99" y="625.64" class="st4" width="49.92" height="4.64"/>
		<path class="st4" d="M428.95,606.89l-24.04,15.14c-2.73,1.72-1.51,5.94,1.71,5.94h44.65c3.23,0,4.44-4.22,1.71-5.94L428.95,606.89
			z"/>
		<polygon class="st5" points="409.27,655.11 417.27,655.11 431.31,634.49 423.3,634.49 		"/>
		<polygon class="st5" points="431.49,655.18 436.67,655.18 450.7,634.56 445.53,634.56 		"/>
		<rect x="418.74" y="633.77" class="st5" width="2.27" height="21.48"/>
		<rect x="436.32" y="634.35" class="st5" width="2.27" height="21.48"/>
		<path class="st4" d="M433.72,609.95l-4.87-3.07l-30.95,19.49c-0.72,0.45-0.41,1.59,0.44,1.59h6.77L433.72,609.95z"/>
		<g>
			<path class="st9" d="M428.04,612.51c-3.36,0-6.52-1.34-8.9-3.77c-4.92-5.03-4.92-13.22,0-18.25c2.38-2.43,5.54-3.77,8.9-3.77
				c3.36,0,6.52,1.34,8.9,3.77c4.92,5.03,4.92,13.22,0,18.25C434.57,611.17,431.41,612.51,428.04,612.51z"/>
			<path d="M428.04,587.21c3.23,0,6.26,1.29,8.54,3.62c4.73,4.84,4.73,12.71,0,17.55c-2.28,2.34-5.32,3.62-8.54,3.62
				c-3.23,0-6.26-1.29-8.54-3.62c-4.73-4.84-4.73-12.71,0-17.55C421.79,588.5,424.82,587.21,428.04,587.21 M428.04,586.21
				c-3.35,0-6.7,1.31-9.26,3.92c-5.11,5.23-5.11,13.72,0,18.95c2.56,2.62,5.91,3.92,9.26,3.92c3.35,0,6.7-1.31,9.26-3.92
				c5.11-5.23,5.11-13.72,0-18.95C434.75,587.52,431.4,586.21,428.04,586.21L428.04,586.21z"/>
		</g>
		<ellipse class="st5" cx="299.62" cy="466.85" rx="30.78" ry="31.5"/>
		<rect x="401.81" y="361.99" class="st4" width="49.92" height="20.32"/>
		<path class="st4" d="M441.37,403.44h-29.2c-5.7,0-10.36-4.66-10.36-10.36v-11.01h49.92v11.01
			C451.72,398.78,447.06,403.44,441.37,403.44z"/>
		<rect x="401.81" y="368.96" class="st5" width="49.92" height="24.38"/>
		<path class="st5" d="M435.2,370.78h-16.67h-12.75c-1.26,0-2.28,1.04-2.28,2.33v15.96c0,1.29,1.02,2.33,2.28,2.33h12.75h16.67
			h12.54c1.26,0,2.28-1.04,2.28-2.33v-15.96c0-1.29-1.02-2.33-2.28-2.33H435.2z"/>
		<rect x="401.81" y="361.99" class="st4" width="49.92" height="4.64"/>
		<path class="st4" d="M426.77,343.24l-24.04,15.14c-2.73,1.72-1.51,5.94,1.71,5.94h44.65c3.23,0,4.44-4.22,1.71-5.94L426.77,343.24
			z"/>
		<polygon class="st5" points="407.08,391.46 415.09,391.46 429.12,370.84 421.11,370.84 		"/>
		<polygon class="st5" points="429.31,391.54 434.48,391.54 448.51,370.91 443.34,370.91 		"/>
		<rect x="416.55" y="370.12" class="st5" width="2.27" height="21.48"/>
		<rect x="434.14" y="370.7" class="st5" width="2.27" height="21.48"/>
		<path class="st4" d="M431.53,346.3l-4.87-3.07l-30.95,19.49c-0.72,0.45-0.41,1.59,0.44,1.59h6.77L431.53,346.3z"/>
		<g>
			<path class="st9" d="M426.19,349.12c-3.36,0-6.52-1.34-8.9-3.77c-4.92-5.03-4.92-13.22,0-18.25c2.38-2.43,5.54-3.77,8.9-3.77
				s6.52,1.34,8.9,3.77c4.92,5.03,4.92,13.22,0,18.25C432.72,347.78,429.55,349.12,426.19,349.12z"/>
			<path d="M426.19,323.82c3.23,0,6.26,1.29,8.54,3.62c4.73,4.84,4.73,12.71,0,17.55c-2.28,2.34-5.32,3.62-8.54,3.62
				c-3.23,0-6.26-1.29-8.54-3.62c-4.73-4.84-4.73-12.71,0-17.55C419.93,325.11,422.97,323.82,426.19,323.82 M426.19,322.82
				c-3.35,0-6.7,1.31-9.26,3.92c-5.11,5.23-5.11,13.72,0,18.95c2.56,2.62,5.91,3.92,9.26,3.92c3.35,0,6.7-1.31,9.26-3.92
				c5.11-5.23,5.11-13.72,0-18.95C432.89,324.13,429.54,322.82,426.19,322.82L426.19,322.82z"/>
		</g>
		<rect x="273.41" y="306.75" class="st4" width="49.92" height="20.32"/>
		<path class="st4" d="M312.97,348.2h-29.2c-5.7,0-10.36-4.66-10.36-10.36v-11.01h49.92v11.01
			C323.32,343.54,318.66,348.2,312.97,348.2z"/>
		<rect x="273.41" y="313.72" class="st5" width="49.92" height="24.38"/>
		<path class="st5" d="M306.8,315.54h-16.67h-12.75c-1.26,0-2.28,1.04-2.28,2.33v15.96c0,1.29,1.02,2.33,2.28,2.33h12.75h16.67
			h12.54c1.26,0,2.28-1.04,2.28-2.33v-15.96c0-1.29-1.02-2.33-2.28-2.33H306.8z"/>
		<rect x="273.41" y="306.75" class="st4" width="49.92" height="4.64"/>
		<path class="st4" d="M298.36,288l-24.04,15.14c-2.73,1.72-1.51,5.94,1.71,5.94h44.65c3.23,0,4.44-4.22,1.71-5.94L298.36,288z"/>
		<polygon class="st5" points="278.68,336.22 286.69,336.22 300.72,315.6 292.71,315.6 		"/>
		<polygon class="st5" points="300.91,336.3 306.08,336.3 320.11,315.68 314.94,315.68 		"/>
		<rect x="288.15" y="314.88" class="st5" width="2.27" height="21.48"/>
		<rect x="305.74" y="315.46" class="st5" width="2.27" height="21.48"/>
		<path class="st4" d="M303.13,291.06l-4.87-3.07l-30.95,19.49c-0.72,0.45-0.41,1.59,0.44,1.59h6.77L303.13,291.06z"/>
		<g>
			<path class="st9" d="M299.73,295.63c-6.94,0-12.59-5.79-12.59-12.9s5.65-12.9,12.59-12.9s12.59,5.79,12.59,12.9
				S306.67,295.63,299.73,295.63z"/>
			<path d="M299.73,270.33c6.67,0,12.09,5.56,12.09,12.4s-5.42,12.4-12.09,12.4c-6.67,0-12.09-5.56-12.09-12.4
				S293.06,270.33,299.73,270.33 M299.73,269.33c-7.23,0-13.09,6-13.09,13.4s5.86,13.4,13.09,13.4s13.09-6,13.09-13.4
				S306.96,269.33,299.73,269.33L299.73,269.33z"/>
		</g>
		<rect x="145.44" y="360.48" class="st4" width="49.92" height="20.32"/>
		<path class="st4" d="M185.01,401.93H155.8c-5.7,0-10.36-4.66-10.36-10.36v-11.01h49.92v11.01
			C195.36,397.27,190.7,401.93,185.01,401.93z"/>
		<rect x="145.44" y="367.45" class="st5" width="49.92" height="24.38"/>
		<path class="st5" d="M178.84,369.27h-16.67h-12.75c-1.26,0-2.28,1.04-2.28,2.33v15.96c0,1.29,1.02,2.33,2.28,2.33h12.75h16.67
			h12.54c1.26,0,2.28-1.04,2.28-2.33V371.6c0-1.29-1.02-2.33-2.28-2.33H178.84z"/>
		<rect x="145.44" y="360.48" class="st4" width="49.92" height="4.64"/>
		<path class="st4" d="M170.4,341.73l-24.04,15.14c-2.73,1.72-1.51,5.94,1.71,5.94h44.65c3.23,0,4.44-4.22,1.71-5.94L170.4,341.73z"
			/>
		<polygon class="st5" points="150.72,389.95 158.73,389.95 172.76,369.33 164.75,369.33 		"/>
		<polygon class="st5" points="172.95,390.02 178.12,390.02 192.15,369.4 186.98,369.4 		"/>
		<rect x="160.19" y="368.61" class="st5" width="2.27" height="21.48"/>
		<rect x="177.78" y="369.19" class="st5" width="2.27" height="21.48"/>
		<path class="st4" d="M175.17,344.79l-4.87-3.07l-30.95,19.49c-0.72,0.45-0.41,1.59,0.44,1.59h6.77L175.17,344.79z"/>
		<g>
			<path class="st9" d="M169.74,348.17c-3.36,0-6.52-1.35-8.9-3.82c-4.92-5.09-4.92-13.37,0-18.46c2.38-2.46,5.54-3.81,8.9-3.81
				s6.52,1.35,8.9,3.81c4.92,5.09,4.92,13.37,0,18.46C176.26,346.82,173.1,348.17,169.74,348.17z"/>
			<path d="M169.74,322.58c3.22,0,6.26,1.3,8.54,3.66c4.73,4.9,4.73,12.87,0,17.77c-2.28,2.36-5.32,3.66-8.54,3.66
				c-3.22,0-6.26-1.3-8.54-3.66c-4.73-4.9-4.73-12.87,0-17.77C163.49,323.89,166.52,322.58,169.74,322.58 M169.74,321.58
				c-3.35,0-6.7,1.32-9.26,3.97c-5.11,5.29-5.11,13.87,0,19.16c2.56,2.64,5.91,3.97,9.26,3.97s6.7-1.32,9.26-3.97
				c5.11-5.29,5.11-13.87,0-19.16C176.44,322.91,173.09,321.58,169.74,321.58L169.74,321.58z"/>
		</g>
		<rect x="92.35" y="491.11" class="st4" width="49.92" height="20.32"/>
		<path class="st4" d="M131.91,532.56H102.7c-5.7,0-10.36-4.66-10.36-10.36v-11.01h49.92v11.01
			C142.26,527.9,137.6,532.56,131.91,532.56z"/>
		<rect x="92.35" y="498.08" class="st5" width="49.92" height="24.38"/>
		<path class="st5" d="M125.74,499.9h-16.67H96.33c-1.26,0-2.28,1.04-2.28,2.33v15.96c0,1.29,1.02,2.33,2.28,2.33h12.75h16.67h12.54
			c1.26,0,2.28-1.04,2.28-2.33v-15.96c0-1.29-1.02-2.33-2.28-2.33H125.74z"/>
		<rect x="92.35" y="491.11" class="st4" width="49.92" height="4.64"/>
		<path class="st4" d="M117.31,472.36L93.27,487.5c-2.73,1.72-1.51,5.94,1.71,5.94h44.65c3.23,0,4.44-4.22,1.71-5.94L117.31,472.36z
			"/>
		<polygon class="st5" points="97.62,520.58 105.63,520.58 119.66,499.96 111.65,499.96 		"/>
		<polygon class="st5" points="119.85,520.65 125.02,520.65 139.05,500.03 133.88,500.03 		"/>
		<rect x="107.1" y="499.24" class="st5" width="2.27" height="21.48"/>
		<rect x="124.68" y="499.82" class="st5" width="2.27" height="21.48"/>
		<path class="st4" d="M122.08,475.42l-4.87-3.07l-30.95,19.49c-0.72,0.45-0.41,1.59,0.44,1.59h6.77L122.08,475.42z"/>
		<g>
			<path class="st9" d="M117.74,480.53c-6.94,0-12.59-5.79-12.59-12.9s5.65-12.9,12.59-12.9s12.59,5.79,12.59,12.9
				S124.68,480.53,117.74,480.53z"/>
			<path d="M117.74,455.23c6.67,0,12.09,5.56,12.09,12.4s-5.42,12.4-12.09,12.4s-12.09-5.56-12.09-12.4S111.07,455.23,117.74,455.23
				 M117.74,454.23c-7.23,0-13.09,6-13.09,13.4s5.86,13.4,13.09,13.4c7.23,0,13.09-6,13.09-13.4S124.97,454.23,117.74,454.23
				L117.74,454.23z"/>
		</g>
		<rect x="145.54" y="621.26" class="st4" width="49.92" height="20.32"/>
		<path class="st4" d="M185.1,662.71H155.9c-5.7,0-10.36-4.66-10.36-10.36v-11.01h49.92v11.01
			C195.46,658.05,190.8,662.71,185.1,662.71z"/>
		<rect x="145.54" y="628.22" class="st5" width="49.92" height="24.38"/>
		<path class="st5" d="M178.94,630.05h-16.67h-12.75c-1.26,0-2.28,1.04-2.28,2.33v15.96c0,1.29,1.02,2.33,2.28,2.33h12.75h16.67
			h12.54c1.26,0,2.28-1.04,2.28-2.33v-15.96c0-1.29-1.02-2.33-2.28-2.33H178.94z"/>
		<rect x="145.54" y="621.26" class="st4" width="49.92" height="4.64"/>
		<path class="st4" d="M170.5,602.5l-24.04,15.14c-2.73,1.72-1.51,5.94,1.71,5.94h44.65c3.23,0,4.44-4.22,1.71-5.94L170.5,602.5z"/>
		<polygon class="st5" points="150.82,650.72 158.82,650.72 172.86,630.1 164.85,630.1 		"/>
		<polygon class="st5" points="173.04,650.8 178.22,650.8 192.25,630.18 187.08,630.18 		"/>
		<rect x="160.29" y="629.38" class="st5" width="2.27" height="21.48"/>
		<rect x="177.87" y="629.97" class="st5" width="2.27" height="21.48"/>
		<path class="st4" d="M175.27,605.57l-4.87-3.07l-30.95,19.49c-0.72,0.45-0.41,1.59,0.44,1.59h6.77L175.27,605.57z"/>
		<g>
			<path class="st9" d="M171.59,609.67c-3.36,0-6.52-1.34-8.9-3.77c-4.92-5.03-4.92-13.22,0-18.25c2.38-2.43,5.54-3.77,8.9-3.77
				s6.52,1.34,8.9,3.77c4.92,5.03,4.92,13.22,0,18.25C178.12,608.33,174.96,609.67,171.59,609.67z"/>
			<path d="M171.59,584.37c3.23,0,6.26,1.29,8.54,3.62c4.73,4.84,4.73,12.71,0,17.55c-2.28,2.34-5.32,3.62-8.54,3.62
				c-3.23,0-6.26-1.29-8.54-3.62c-4.73-4.84-4.73-12.71,0-17.55C165.33,585.66,168.37,584.37,171.59,584.37 M171.59,583.37
				c-3.35,0-6.7,1.31-9.26,3.92c-5.11,5.23-5.11,13.72,0,18.95c2.56,2.62,5.91,3.92,9.26,3.92c3.35,0,6.7-1.31,9.26-3.92
				c5.11-5.23,5.11-13.72,0-18.95C178.3,584.68,174.95,583.37,171.59,583.37L171.59,583.37z"/>
		</g>
		<rect x="275.59" y="674.91" class="st4" width="49.92" height="20.32"/>
		<path class="st4" d="M315.16,716.36h-29.21c-5.7,0-10.36-4.66-10.36-10.36v-11.01h49.92V706
			C325.51,711.7,320.85,716.36,315.16,716.36z"/>
		<rect x="275.59" y="681.88" class="st5" width="49.92" height="24.38"/>
		<path class="st5" d="M308.99,683.7h-16.67h-12.75c-1.26,0-2.28,1.04-2.28,2.33v15.96c0,1.29,1.02,2.33,2.28,2.33h12.75h16.67
			h12.54c1.26,0,2.28-1.04,2.28-2.33v-15.96c0-1.29-1.02-2.33-2.28-2.33H308.99z"/>
		<rect x="275.59" y="674.91" class="st4" width="49.92" height="4.64"/>
		<path class="st4" d="M300.55,656.15l-24.04,15.14c-2.73,1.72-1.51,5.94,1.71,5.94h44.65c3.23,0,4.44-4.22,1.71-5.94L300.55,656.15
			z"/>
		<polygon class="st5" points="280.87,704.38 288.88,704.38 302.91,683.76 294.9,683.76 		"/>
		<polygon class="st5" points="303.1,704.45 308.27,704.45 322.3,683.83 317.13,683.83 		"/>
		<rect x="290.34" y="683.04" class="st5" width="2.27" height="21.48"/>
		<rect x="307.93" y="683.62" class="st5" width="2.27" height="21.48"/>
		<path class="st4" d="M305.32,659.22l-4.87-3.07l-30.95,19.49c-0.72,0.45-0.41,1.59,0.44,1.59h6.77L305.32,659.22z"/>
		<g>
			<path class="st9" d="M299.73,664.09c-6.94,0-12.59-5.79-12.59-12.9s5.65-12.9,12.59-12.9s12.59,5.79,12.59,12.9
				S306.67,664.09,299.73,664.09z"/>
			<path d="M299.73,638.8c6.67,0,12.09,5.56,12.09,12.4s-5.42,12.4-12.09,12.4c-6.67,0-12.09-5.56-12.09-12.4
				S293.06,638.8,299.73,638.8 M299.73,637.8c-7.23,0-13.09,6-13.09,13.4c0,7.4,5.86,13.4,13.09,13.4s13.09-6,13.09-13.4
				C312.82,643.79,306.96,637.8,299.73,637.8L299.73,637.8z"/>
		</g>
		<rect x="454.53" y="489.92" class="st4" width="49.92" height="20.32"/>
		<path class="st4" d="M494.09,531.37h-29.21c-5.7,0-10.36-4.66-10.36-10.36V510h49.92v11.01
			C504.45,526.71,499.79,531.37,494.09,531.37z"/>
		<rect x="454.53" y="496.89" class="st5" width="49.92" height="24.38"/>
		<path class="st5" d="M487.93,498.71h-16.67h-12.75c-1.26,0-2.28,1.04-2.28,2.33V517c0,1.29,1.02,2.33,2.28,2.33h12.75h16.67h12.54
			c1.26,0,2.28-1.04,2.28-2.33v-15.96c0-1.29-1.02-2.33-2.28-2.33H487.93z"/>
		<rect x="454.53" y="489.92" class="st4" width="49.92" height="4.64"/>
		<path class="st4" d="M479.49,471.17l-24.04,15.14c-2.73,1.72-1.51,5.94,1.71,5.94h44.65c3.23,0,4.44-4.22,1.71-5.94L479.49,471.17
			z"/>
		<polygon class="st5" points="459.81,519.39 467.82,519.39 481.85,498.77 473.84,498.77 		"/>
		<polygon class="st5" points="482.04,519.46 487.21,519.46 501.24,498.84 496.07,498.84 		"/>
		<rect x="469.28" y="498.05" class="st5" width="2.27" height="21.48"/>
		<rect x="486.87" y="498.63" class="st5" width="2.27" height="21.48"/>
		<path class="st4" d="M484.26,474.23l-4.87-3.07l-30.95,19.49c-0.72,0.45-0.41,1.59,0.44,1.59h6.77L484.26,474.23z"/>
		<g>
			<ellipse class="st9" cx="480.41" cy="466.29" rx="12.59" ry="12.9"/>
			<path d="M480.41,453.89c6.67,0,12.09,5.56,12.09,12.4s-5.42,12.4-12.09,12.4s-12.09-5.56-12.09-12.4S473.75,453.89,480.41,453.89
				 M480.41,452.89c-7.23,0-13.09,6-13.09,13.4s5.86,13.4,13.09,13.4s13.09-6,13.09-13.4S487.64,452.89,480.41,452.89L480.41,452.89
				z"/>
		</g>
	</g>
	<line class="st10" x1="702.76" y1="269.06" x2="715.96" y2="297.83"/>
	<line class="st10" x1="748.42" y1="270.13" x2="735.22" y2="298.9"/>
	<path class="st3" d="M726.58,297.11h-1.76H714.5c-1.06,0-1.89,0.93-1.76,1.99l1.75,14.62c0.21,1.74,1.68,3.04,3.43,3.04h6.9h1.76
		h6.9c1.75,0,3.22-1.31,3.43-3.04l1.75-14.62c0.13-1.06-0.7-1.99-1.76-1.99H726.58z"/>
	<path class="st3" d="M697.33,265.26h56.73c16.17-12.79,27-35.38,27-57.33c0-33.22-24.79-52.41-55.37-52.41
		c-30.58,0-55.37,19.19-55.37,52.41C670.33,229.88,681.16,252.46,697.33,265.26z"/>
	<path class="st3" d="M756.04,273.3h-60.69c-0.99,0-1.8-0.81-1.8-1.8v-5.32c0-0.99,0.81-1.8,1.8-1.8h60.69c0.99,0,1.8,0.81,1.8,1.8
		v5.32C757.85,272.48,757.03,273.3,756.04,273.3z"/>
	<path class="st3" d="M735.89,278.84H716.1c-0.62,0-1.12-0.5-1.12-1.12v-3.3c0-0.62,0.5-1.12,1.12-1.12h19.79
		c0.62,0,1.12,0.5,1.12,1.12v3.3C737.01,278.33,736.5,278.84,735.89,278.84z"/>
	<path d="M702.53,264.55h46.09c13.14-12.79,21.94-35.38,21.94-57.33c0-33.22-20.14-52.41-44.98-52.41
		c-24.84,0-44.98,19.19-44.98,52.41C680.6,229.18,689.39,251.76,702.53,264.55z"/>
	<path class="st3" d="M709.76,264.55h31.69c9.03-12.79,15.08-35.38,15.08-57.33c0-33.22-13.85-52.41-30.93-52.41
		c-17.08,0-30.93,19.19-30.93,52.41C694.67,229.18,700.72,251.76,709.76,264.55z"/>
	<path d="M718.38,264.55h14.46c4.12-12.79,6.88-35.38,6.88-57.33c0-33.22-6.32-52.41-14.11-52.41c-7.79,0-14.11,19.19-14.11,52.41
		C711.5,229.18,714.26,251.76,718.38,264.55z"/>
	<line class="st11" x1="611.21" y1="283.54" x2="626.41" y2="316.68"/>
	<line class="st11" x1="663.81" y1="284.77" x2="648.6" y2="317.91"/>
	<path d="M638.64,315.85h-2.03h-11.88c-1.23,0-2.18,1.07-2.03,2.29l2.01,16.84c0.24,2,1.94,3.51,3.95,3.51h7.95h2.03h7.95
		c2.01,0,3.71-1.51,3.95-3.51l2.01-16.84c0.15-1.22-0.81-2.29-2.03-2.29H638.64z"/>
	<path d="M604.95,279.16h65.35c18.63-14.74,31.11-40.75,31.11-66.04c0-38.26-28.56-60.37-63.78-60.37s-63.78,22.1-63.78,60.37
		C573.85,238.41,586.32,264.42,604.95,279.16z"/>
	<path d="M672.58,288.42h-69.91c-1.14,0-2.08-0.93-2.08-2.08v-6.13c0-1.14,0.93-2.08,2.08-2.08h69.91c1.14,0,2.08,0.93,2.08,2.08
		v6.13C674.66,287.48,673.73,288.42,672.58,288.42z"/>
	<path class="st12" d="M649.37,294.8h-22.8c-0.71,0-1.29-0.58-1.29-1.29v-3.8c0-0.71,0.58-1.29,1.29-1.29h22.8
		c0.71,0,1.29,0.58,1.29,1.29v3.8C650.66,294.22,650.08,294.8,649.37,294.8z"/>
	<path class="st3" d="M610.94,278.35h53.09c15.13-14.74,25.27-40.75,25.27-66.04c0-38.26-23.2-60.37-51.81-60.37
		s-51.81,22.1-51.81,60.37C585.67,237.6,595.81,263.61,610.94,278.35z"/>
	<path d="M619.27,278.35h36.51c10.41-14.74,17.38-40.75,17.38-66.04c0-38.26-15.95-60.37-35.63-60.37s-35.63,22.1-35.63,60.37
		C601.89,237.6,608.86,263.61,619.27,278.35z"/>
	<path class="st3" d="M629.19,278.35h16.65c4.75-14.74,7.93-40.75,7.93-66.04c0-38.26-7.28-60.37-16.25-60.37
		s-16.25,22.1-16.25,60.37C621.27,237.6,624.45,263.61,629.19,278.35z"/>
	<text transform="matrix(1 0 0 1 109.3647 103.8799)" class="st3 st1 st2">С 8 МАРТА!</text>
</g>
</svg>
