<?xml version="1.0" encoding="utf-8"?>
<!-- Generator: Adobe Illustrator 26.3.1, SVG Export Plug-In . SVG Version: 6.00 Build 0)  -->
<svg version="1.1" id="Слой_1" xmlns="http://www.w3.org/2000/svg" xmlns:xlink="http://www.w3.org/1999/xlink" x="0px" y="0px"
	 viewBox="0 0 172 154.5" style="enable-background:new 0 0 172 154.5;" xml:space="preserve">
<style type="text/css">
	.st0{fill:none;stroke:#FFFFFF;stroke-width:2;stroke-miterlimit:10;}
	.st1{fill:#FE575F;}
	.st2{fill:#200B12;}
	.st3{fill:#FFF8E6;}
	.st4{fill:#FFAC06;}
	.st5{fill:#AA5511;}
	.st6{fill:#FE1B2C;}
	.st7{fill:#EA2F46;}
	.st8{fill:#C52128;}
</style>
<line class="st0" x1="107.14" y1="97.76" x2="118.08" y2="121.6"/>
<line class="st0" x1="144.97" y1="98.64" x2="134.04" y2="122.48"/>
<path class="st1" d="M126.87,121h-1.46h-8.55c-0.88,0-1.57,0.77-1.46,1.65l1.45,12.11c0.17,1.44,1.39,2.52,2.84,2.52h5.72h1.46h5.72
	c1.45,0,2.67-1.08,2.84-2.52l1.45-12.11c0.1-0.88-0.58-1.65-1.46-1.65H126.87z"/>
<path class="st1" d="M102.64,94.61h47c13.4-10.6,22.37-29.31,22.37-47.5c0-27.52-20.54-43.42-45.88-43.42s-45.88,15.9-45.88,43.42
	C80.27,65.3,89.24,84.01,102.64,94.61z"/>
<path class="st1" d="M149.08,101.27h-45.88c-2.03,0-3.7-1.66-3.7-3.7v0c0-2.03,1.66-3.7,3.7-3.7h45.88c2.03,0,3.7,1.66,3.7,3.7v0
	C152.78,99.6,151.12,101.27,149.08,101.27z"/>
<path class="st2" d="M133.22,105.86h-13.66c-1.26,0-2.29-1.03-2.29-2.29l0,0c0-1.26,1.03-2.29,2.29-2.29h13.66
	c1.26,0,2.29,1.03,2.29,2.29l0,0C135.52,104.83,134.48,105.86,133.22,105.86z"/>
<path class="st3" d="M106.95,94.02h38.18c10.88-10.6,18.17-29.31,18.17-47.5c0-27.52-16.68-43.42-37.27-43.42S88.78,19,88.78,46.52
	C88.78,64.71,96.07,83.42,106.95,94.02z"/>
<path class="st4" d="M112.94,94.02h26.26c7.49-10.6,12.5-29.31,12.5-47.5c0-27.52-11.47-43.42-25.63-43.42S100.44,19,100.44,46.52
	C100.44,64.71,105.45,83.42,112.94,94.02z"/>
<path class="st1" d="M120.08,94.02h11.98c3.41-10.6,5.7-29.31,5.7-47.5c0-27.52-5.23-43.42-11.69-43.42S114.38,19,114.38,46.52
	C114.38,64.71,116.66,83.42,120.08,94.02z"/>
<line class="st0" x1="31.28" y1="109.75" x2="43.88" y2="137.21"/>
<line class="st0" x1="74.87" y1="110.77" x2="62.27" y2="138.23"/>
<path class="st5" d="M54.01,136.53h-1.68h-9.85c-1.02,0-1.8,0.89-1.68,1.9l1.67,13.95c0.2,1.66,1.6,2.9,3.27,2.9h6.59h1.68h6.59
	c1.67,0,3.07-1.25,3.27-2.9l1.67-13.95c0.12-1.01-0.67-1.9-1.68-1.9H54.01z"/>
<path class="st6" d="M26.1,106.12h54.15c15.43-12.21,25.77-33.76,25.77-54.71c0-31.7-23.66-50.02-52.84-50.02S0.33,19.71,0.33,51.41
	C0.33,72.36,10.67,93.91,26.1,106.12z"/>
<path class="st7" d="M80.16,113.8H26.19c-2.03,0-3.7-1.66-3.7-3.7v-1.12c0-2.03,1.66-3.7,3.7-3.7h53.97c2.03,0,3.7,1.66,3.7,3.7
	v1.12C83.86,112.13,82.19,113.8,80.16,113.8z"/>
<path class="st2" d="M61.68,119.09H45.24c-1.26,0-2.29-1.03-2.29-2.29v-0.7c0-1.26,1.03-2.29,2.29-2.29h16.43
	c1.26,0,2.29,1.03,2.29,2.29v0.7C63.97,118.05,62.94,119.09,61.68,119.09z"/>
<path class="st8" d="M31.07,105.45h43.98c12.54-12.21,20.94-33.76,20.94-54.71c0-31.7-19.22-50.02-42.93-50.02
	S10.13,19.04,10.13,50.74C10.13,71.69,18.53,93.24,31.07,105.45z"/>
<path class="st6" d="M37.96,105.45h30.25c8.62-12.21,14.4-33.76,14.4-54.71c0-31.7-13.22-50.02-29.52-50.02S23.57,19.04,23.57,50.74
	C23.57,71.69,29.34,93.24,37.96,105.45z"/>
<path class="st8" d="M46.19,105.45h13.8c3.93-12.21,6.57-33.76,6.57-54.71c0-31.7-6.03-50.02-13.47-50.02S39.62,19.04,39.62,50.74
	C39.62,71.69,42.26,93.24,46.19,105.45z"/>
</svg>
