<svg xmlns="http://www.w3.org/2000/svg" viewBox="0 0 1867 1773"><defs><style>.cls-1,.cls-8{fill:none;stroke-miterlimit:10;stroke-width:2px;}.cls-1{stroke:#fff;}.cls-2{fill:#a51;}.cls-3{fill:#fe1b2c;}.cls-4{fill:#ea2f46;}.cls-5{fill:#200b12;}.cls-6{fill:#c52128;}.cls-7{fill:#db1930;}.cls-8{stroke:#c9c9c9;}.cls-9{fill:#fe575f;}.cls-10{fill:#db404f;}.cls-11{fill:#fff8e6;}.cls-12{fill:#d3cdc5;}.cls-13{fill:#ffac06;}.cls-14{fill:#d88a0e;}.cls-15{fill:#e83445;}</style></defs><title>baloonsAnimate</title><g id="Слой_19" data-name="Слой 19"><line class="cls-1" x1="1460.37" y1="490.48" x2="1468.4" y2="507.98"/><line class="cls-1" x1="1488.15" y1="491.13" x2="1480.12" y2="508.63"/><path class="cls-2" d="M1474.86,507.55h-7.35a1.08,1.08,0,0,0-1.07,1.2l1.06,8.89a2.11,2.11,0,0,0,2.09,1.86h9.47a2.1,2.1,0,0,0,2.08-1.86l1.06-8.89a1.07,1.07,0,0,0-1.07-1.2Z"/><path class="cls-3" d="M1457.18,488h34.51c9.83-7.78,16.42-21.52,16.42-34.87,0-20.2-15.08-31.87-33.68-31.87s-33.67,11.67-33.67,31.87C1440.76,466.48,1447.35,480.22,1457.18,488Z"/><rect class="cls-4" x="1454.77" y="487.63" width="39.11" height="5.43" rx="2.51"/><rect class="cls-5" x="1467.81" y="493.06" width="13.4" height="3.37" rx="1.56"/><path class="cls-6" d="M1460.23,487.74h28c8-7.78,13.35-21.51,13.35-34.87,0-20.2-12.25-31.87-27.36-31.87s-27.36,11.67-27.36,31.87C1446.89,466.23,1452.24,480,1460.23,487.74Z"/><path class="cls-3" d="M1464.63,487.74h19.28c5.49-7.78,9.17-21.51,9.17-34.87,0-20.2-8.42-31.87-18.81-31.87s-18.81,11.67-18.81,31.87C1455.46,466.23,1459.14,480,1464.63,487.74Z"/><path class="cls-6" d="M1469.87,487.74h8.79c2.51-7.78,4.19-21.51,4.19-34.87,0-20.2-3.84-31.87-8.58-31.87s-8.58,11.67-8.58,31.87C1465.69,466.23,1467.36,480,1469.87,487.74Z"/><path class="cls-7" d="M1477.3,421.54c16.29,1.86,28.81,13.18,28.81,31.59,0,13.35-6.59,27.09-16.42,34.87h-32.82l.2.17h34.51c9.83-7.78,16.42-21.52,16.42-34.87C1508,434.19,1494.5,422.72,1477.3,421.54Z"/></g><g id="shar"><line class="cls-8" x1="106.26" y1="376.47" x2="123.65" y2="414.37"/><line class="cls-1" x1="166.41" y1="377.88" x2="149.02" y2="415.78"/><path class="cls-9" d="M138.16,413.06H122.25a2.34,2.34,0,0,0-2.32,2.62l2.3,19.25a4.54,4.54,0,0,0,4.52,4h20.5a4.54,4.54,0,0,0,4.52-4l2.3-19.25a2.34,2.34,0,0,0-2.32-2.62Z"/><path class="cls-9" d="M137,371h37.36c21.31-16.85,35.57-46.6,35.57-75.51,0-43.75-32.65-69-72.93-69"/><path class="cls-10" d="M137,226.46c-40.28,0-72.93,25.28-72.93,69,0,28.91,14.26,58.66,35.57,75.51H137"/><rect class="cls-9" x="94.13" y="371" width="84.69" height="11.06" rx="5.53"/><rect class="cls-5" x="122.36" y="382.06" width="29.02" height="7.3" rx="3.65"/><path class="cls-11" d="M136,370.81h30.19c17.3-16.85,28.89-46.6,28.89-75.52,0-43.75-26.52-69-59.24-69"/><path class="cls-12" d="M135.84,226.27c-32.72,0-59.24,25.27-59.24,69,0,28.92,11.58,58.67,28.89,75.52H136"/><path class="cls-13" d="M136,370.81h20.75c11.9-16.85,19.87-46.6,19.87-75.52,0-43.75-18.24-69-40.74-69"/><path class="cls-14" d="M135.88,226.27c-22.5,0-40.74,25.27-40.74,69,0,28.92,8,58.67,19.87,75.52h21"/><path class="cls-9" d="M126.36,371h19c5.43-16.85,9.06-46.6,9.06-75.51,0-43.75-8.32-69-18.58-69s-18.58,25.28-18.58,69C117.3,324.4,120.93,354.15,126.36,371Z"/><path class="cls-10" d="M134.74,226.51c-9.94,1.12-17.89,26.22-17.89,69,0,28.91,3.63,58.66,9.06,75.51h7c-5.43-17.49-9.06-48.36-9.06-78.37C123.85,259.38,128.31,236.43,134.74,226.51Z"/><path class="cls-10" d="M99.5,371H133a0,0,0,0,1,0,0v11a0,0,0,0,1,0,0H99.5a5.5,5.5,0,0,1-5.5-5.5v0a5.5,5.5,0,0,1,5.5-5.5Z"/><path class="cls-15" d="M130.41,425.52a17.43,17.43,0,0,1,5.22-12.46h-14a2.34,2.34,0,0,0-2.32,2.62l2.3,19.25a4.54,4.54,0,0,0,4.51,4h10.53A17.47,17.47,0,0,1,130.41,425.52Z"/></g></svg>