<?xml version="1.0" encoding="utf-8"?>
<!-- Generator: Adobe Illustrator 26.3.1, SVG Export Plug-In . SVG Version: 6.00 Build 0)  -->
<svg version="1.1" id="Слой_1" xmlns="http://www.w3.org/2000/svg" xmlns:xlink="http://www.w3.org/1999/xlink" x="0px" y="0px"
	 viewBox="0 0 153 146" style="enable-background:new 0 0 153 146;" xml:space="preserve">
<style type="text/css">
	.st0{fill:#FFAC06;}
	.st1{fill:none;stroke:#FFFFFF;stroke-width:8;stroke-miterlimit:10;}
	.st2{fill:none;stroke:#F4BF67;stroke-width:3;stroke-miterlimit:10;}
	.st3{fill:#F4BF67;}
	.st4{fill:none;stroke:#C55250;stroke-width:3;stroke-miterlimit:10;}
	.st5{fill:#C55250;}
	.st6{fill:none;stroke:#474A56;stroke-width:3;stroke-miterlimit:10;}
	.st7{fill:#474A56;}
	.st8{fill:#E2E1E0;stroke:#E2E1E0;stroke-width:3;stroke-miterlimit:10;}
	.st9{fill:#FFFFFF;}
	.st10{fill:#E2940A;}
	.st11{fill:#E2E1E0;}
	.st12{fill:#D6D6D6;}
</style>
<path class="st0" d="M77.37,0c0,0-24.39,43.42-70.35,65.36h70.35h70.35C101.76,43.42,77.37,0,77.37,0z"/>
<line class="st1" x1="72.73" y1="69.77" x2="72.73" y2="142.62"/>
<line class="st2" x1="129.81" y1="74.91" x2="142.52" y2="122.65"/>
<line class="st2" x1="129.2" y1="75.1" x2="131.71" y2="124.44"/>
<path class="st3" d="M143.78,124.35l-12.7,1.99c-0.64,0.1-1.25-0.34-1.35-0.98l-0.06-0.38c-0.1-0.64,0.34-1.25,0.98-1.35l12.7-1.99
	c0.64-0.1,1.25,0.34,1.35,0.98l0.06,0.38C144.86,123.65,144.42,124.25,143.78,124.35z"/>
<line class="st4" x1="20.39" y1="76.09" x2="7.68" y2="123.83"/>
<line class="st4" x1="21" y1="76.28" x2="18.49" y2="125.62"/>
<path class="st5" d="M6.43,125.53l12.7,1.99c0.64,0.1,1.25-0.34,1.35-0.98l0.06-0.38c0.1-0.64-0.34-1.25-0.98-1.35l-12.7-1.99
	c-0.64-0.1-1.25,0.34-1.35,0.98l-0.06,0.38C5.34,124.82,5.78,125.43,6.43,125.53z"/>
<line class="st2" x1="40.05" y1="75.01" x2="29.92" y2="128.47"/>
<line class="st2" x1="40.05" y1="74.76" x2="40.82" y2="129.57"/>
<path class="st3" d="M28.77,130.25l12.8,1.18c0.65,0.06,1.22-0.42,1.28-1.07l0.04-0.38c0.06-0.65-0.42-1.22-1.07-1.28l-12.8-1.18
	c-0.65-0.06-1.22,0.42-1.28,1.07l-0.04,0.38C27.64,129.61,28.12,130.19,28.77,130.25z"/>
<line class="st6" x1="102.33" y1="75.16" x2="112.46" y2="128.62"/>
<line class="st6" x1="102.33" y1="74.92" x2="101.56" y2="129.72"/>
<path class="st7" d="M113.61,130.4l-12.8,1.18c-0.65,0.06-1.22-0.42-1.28-1.07l-0.04-0.38c-0.06-0.65,0.42-1.22,1.07-1.28l12.8-1.18
	c0.65-0.06,1.22,0.42,1.28,1.07l0.04,0.38C114.73,129.77,114.25,130.34,113.61,130.4z"/>
<line class="st6" x1="58.01" y1="75.51" x2="49.37" y2="113.51"/>
<line class="st6" x1="58.01" y1="73.52" x2="60.27" y2="114.61"/>
<path class="st7" d="M48.22,115.29l12.8,1.18c0.65,0.06,1.22-0.42,1.28-1.07l0.04-0.38c0.06-0.65-0.42-1.22-1.07-1.28l-12.8-1.18
	c-0.65-0.06-1.22,0.42-1.28,1.07l-0.04,0.38C47.09,114.65,47.57,115.23,48.22,115.29z"/>
<line class="st4" x1="84.42" y1="76.15" x2="93.06" y2="114.15"/>
<line class="st4" x1="84.42" y1="74.16" x2="82.16" y2="115.26"/>
<g>
	<path class="st0" d="M12.85,75.27c-1.38,0-2.51-1.12-2.51-2.51s1.12-2.51,2.51-2.51c1.38,0,2.5,1.12,2.5,2.51
		S14.23,75.27,12.85,75.27z"/>
	<path class="st0" d="M12.85,72.25c0.29,0,0.52,0.23,0.52,0.52s-0.23,0.52-0.52,0.52s-0.52-0.23-0.52-0.52S12.57,72.25,12.85,72.25
		 M12.85,68.28c-2.48,0-4.49,2.01-4.49,4.49s2.01,4.49,4.49,4.49s4.49-2.01,4.49-4.49S15.33,68.28,12.85,68.28L12.85,68.28z"/>
</g>
<line class="st8" x1="75.75" y1="69.51" x2="75.75" y2="144.31"/>
<g>
	<circle class="st0" cx="21.83" cy="72.77" r="2.51"/>
	<path class="st0" d="M21.83,72.25c0.29,0,0.52,0.23,0.52,0.52s-0.23,0.52-0.52,0.52s-0.52-0.23-0.52-0.52S21.55,72.25,21.83,72.25
		 M21.83,68.28c-2.48,0-4.49,2.01-4.49,4.49s2.01,4.49,4.49,4.49s4.49-2.01,4.49-4.49S24.31,68.28,21.83,68.28L21.83,68.28z"/>
</g>
<g>
	<circle class="st0" cx="30.82" cy="72.77" r="2.51"/>
	<path class="st0" d="M30.82,72.25c0.29,0,0.52,0.23,0.52,0.52s-0.23,0.52-0.52,0.52s-0.52-0.23-0.52-0.52S30.53,72.25,30.82,72.25
		 M30.82,68.28c-2.48,0-4.49,2.01-4.49,4.49s2.01,4.49,4.49,4.49s4.49-2.01,4.49-4.49S33.3,68.28,30.82,68.28L30.82,68.28z"/>
</g>
<g>
	<circle class="st0" cx="39.8" cy="72.77" r="2.51"/>
	<path class="st0" d="M39.8,72.25c0.29,0,0.52,0.23,0.52,0.52s-0.23,0.52-0.52,0.52s-0.52-0.23-0.52-0.52S39.51,72.25,39.8,72.25
		 M39.8,68.28c-2.48,0-4.49,2.01-4.49,4.49s2.01,4.49,4.49,4.49s4.49-2.01,4.49-4.49S42.28,68.28,39.8,68.28L39.8,68.28z"/>
</g>
<g>
	<path class="st0" d="M48.78,75.27c-1.38,0-2.5-1.12-2.5-2.51s1.12-2.51,2.5-2.51c1.38,0,2.51,1.12,2.51,2.51
		S50.16,75.27,48.78,75.27z"/>
	<path class="st0" d="M48.78,72.25c0.29,0,0.52,0.23,0.52,0.52s-0.23,0.52-0.52,0.52s-0.52-0.23-0.52-0.52S48.49,72.25,48.78,72.25
		 M48.78,68.28c-2.48,0-4.49,2.01-4.49,4.49s2.01,4.49,4.49,4.49c2.48,0,4.49-2.01,4.49-4.49S51.26,68.28,48.78,68.28L48.78,68.28z"
		/>
</g>
<g>
	<circle class="st0" cx="57.76" cy="72.77" r="2.51"/>
	<path class="st0" d="M57.76,72.25c0.29,0,0.52,0.23,0.52,0.52s-0.23,0.52-0.52,0.52s-0.52-0.23-0.52-0.52S57.47,72.25,57.76,72.25
		 M57.76,68.28c-2.48,0-4.49,2.01-4.49,4.49s2.01,4.49,4.49,4.49c2.48,0,4.49-2.01,4.49-4.49S60.24,68.28,57.76,68.28L57.76,68.28z"
		/>
</g>
<g>
	<circle class="st0" cx="66.74" cy="72.77" r="2.51"/>
	<path class="st0" d="M66.74,72.25c0.29,0,0.52,0.23,0.52,0.52s-0.23,0.52-0.52,0.52s-0.52-0.23-0.52-0.52S66.45,72.25,66.74,72.25
		 M66.74,68.28c-2.48,0-4.49,2.01-4.49,4.49s2.01,4.49,4.49,4.49s4.49-2.01,4.49-4.49S69.22,68.28,66.74,68.28L66.74,68.28z"/>
</g>
<g>
	<path class="st0" d="M75.72,75.27c-1.38,0-2.51-1.12-2.51-2.51s1.12-2.51,2.51-2.51c1.38,0,2.5,1.12,2.5,2.51
		S77.1,75.27,75.72,75.27z"/>
	<path class="st0" d="M75.72,72.25c0.29,0,0.52,0.23,0.52,0.52s-0.23,0.52-0.52,0.52s-0.52-0.23-0.52-0.52S75.44,72.25,75.72,72.25
		 M75.72,68.28c-2.48,0-4.49,2.01-4.49,4.49s2.01,4.49,4.49,4.49s4.49-2.01,4.49-4.49S78.2,68.28,75.72,68.28L75.72,68.28z"/>
</g>
<g>
	<circle class="st0" cx="84.7" cy="72.77" r="2.51"/>
	<path class="st0" d="M84.7,72.25c0.29,0,0.52,0.23,0.52,0.52s-0.23,0.52-0.52,0.52c-0.29,0-0.52-0.23-0.52-0.52
		S84.42,72.25,84.7,72.25 M84.7,68.28c-2.48,0-4.49,2.01-4.49,4.49s2.01,4.49,4.49,4.49s4.49-2.01,4.49-4.49S87.18,68.28,84.7,68.28
		L84.7,68.28z"/>
</g>
<g>
	<circle class="st0" cx="93.68" cy="72.77" r="2.51"/>
	<path class="st0" d="M93.68,72.25c0.29,0,0.52,0.23,0.52,0.52s-0.23,0.52-0.52,0.52s-0.52-0.23-0.52-0.52S93.4,72.25,93.68,72.25
		 M93.68,68.28c-2.48,0-4.49,2.01-4.49,4.49s2.01,4.49,4.49,4.49s4.49-2.01,4.49-4.49S96.16,68.28,93.68,68.28L93.68,68.28z"/>
</g>
<g>
	<circle class="st0" cx="102.67" cy="72.77" r="2.51"/>
	<path class="st0" d="M102.67,72.25c0.29,0,0.52,0.23,0.52,0.52s-0.23,0.52-0.52,0.52s-0.52-0.23-0.52-0.52
		S102.38,72.25,102.67,72.25 M102.67,68.28c-2.48,0-4.49,2.01-4.49,4.49s2.01,4.49,4.49,4.49s4.49-2.01,4.49-4.49
		S105.15,68.28,102.67,68.28L102.67,68.28z"/>
</g>
<g>
	<path class="st0" d="M111.65,75.27c-1.38,0-2.5-1.12-2.5-2.51s1.12-2.51,2.5-2.51c1.38,0,2.51,1.12,2.51,2.51
		S113.03,75.27,111.65,75.27z"/>
	<path class="st0" d="M111.65,72.25c0.29,0,0.52,0.23,0.52,0.52s-0.23,0.52-0.52,0.52c-0.29,0-0.52-0.23-0.52-0.52
		S111.36,72.25,111.65,72.25 M111.65,68.28c-2.48,0-4.49,2.01-4.49,4.49s2.01,4.49,4.49,4.49c2.48,0,4.49-2.01,4.49-4.49
		S114.13,68.28,111.65,68.28L111.65,68.28z"/>
</g>
<g>
	<circle class="st0" cx="120.63" cy="72.77" r="2.51"/>
	<path class="st0" d="M120.63,72.25c0.29,0,0.52,0.23,0.52,0.52s-0.23,0.52-0.52,0.52s-0.52-0.23-0.52-0.52
		S120.34,72.25,120.63,72.25 M120.63,68.28c-2.48,0-4.49,2.01-4.49,4.49s2.01,4.49,4.49,4.49s4.49-2.01,4.49-4.49
		S123.11,68.28,120.63,68.28L120.63,68.28z"/>
</g>
<g>
	<circle class="st0" cx="129.61" cy="72.77" r="2.51"/>
	<path class="st0" d="M129.61,72.25c0.29,0,0.52,0.23,0.52,0.52s-0.23,0.52-0.52,0.52s-0.52-0.23-0.52-0.52
		S129.32,72.25,129.61,72.25 M129.61,68.28c-2.48,0-4.49,2.01-4.49,4.49s2.01,4.49,4.49,4.49s4.49-2.01,4.49-4.49
		S132.09,68.28,129.61,68.28L129.61,68.28z"/>
</g>
<g>
	<path class="st0" d="M138.59,75.27c-1.38,0-2.51-1.12-2.51-2.51s1.12-2.51,2.51-2.51c1.38,0,2.5,1.12,2.5,2.51
		S139.97,75.27,138.59,75.27z"/>
	<path class="st0" d="M138.59,72.25c0.29,0,0.52,0.23,0.52,0.52s-0.23,0.52-0.52,0.52c-0.29,0-0.52-0.23-0.52-0.52
		S138.3,72.25,138.59,72.25 M138.59,68.28c-2.48,0-4.49,2.01-4.49,4.49s2.01,4.49,4.49,4.49s4.49-2.01,4.49-4.49
		S141.07,68.28,138.59,68.28L138.59,68.28z"/>
</g>
<g>
	<path class="st9" d="M3.99,71.03c-0.87,0-1.57-0.71-1.57-1.57v-1c0-0.87,0.71-1.57,1.57-1.57h145.48c0.87,0,1.57,0.71,1.57,1.57v1
		c0,0.87-0.71,1.57-1.57,1.57H3.99z"/>
	<path class="st9" d="M149.47,68.41c0.02,0,0.04,0.03,0.04,0.04v1c0,0.02-0.03,0.04-0.04,0.04H3.99c-0.02,0-0.04-0.03-0.04-0.04v-1
		c0-0.02,0.03-0.04,0.04-0.04H149.47 M149.47,65.35H3.99c-1.71,0-3.1,1.4-3.1,3.1v1c0,1.71,1.4,3.1,3.1,3.1h145.48
		c1.71,0,3.1-1.4,3.1-3.1v-1C152.57,66.74,151.18,65.35,149.47,65.35L149.47,65.35z"/>
</g>
<path class="st5" d="M94.2,115.93l-12.8,1.18c-0.65,0.06-1.22-0.42-1.28-1.07l-0.04-0.38c-0.06-0.65,0.42-1.22,1.07-1.28l12.8-1.18
	c0.65-0.06,1.22,0.42,1.28,1.07l0.04,0.38C95.33,115.3,94.85,115.88,94.2,115.93z"/>
<path class="st10" d="M81.5,17.39c0,0-2.48,27.62-22.83,41.57H81.5h38.18C99.34,45.01,81.5,17.39,81.5,17.39z"/>
<g>
	<path class="st11" d="M149.07,70.78H4.59c-1.64,0-3.03-1.11-3.46-2.61c-0.09,0.32-0.14,0.65-0.14,1c0,1.98,1.62,3.6,3.6,3.6h144.48
		c1.98,0,3.6-1.62,3.6-3.6c0-0.35-0.05-0.68-0.14-1C152.1,69.68,150.71,70.78,149.07,70.78z"/>
	<path class="st12" d="M152.53,68.18c-0.44,1.5-1.82,2.61-3.46,2.61H4.59c-1.64,0-3.03-1.11-3.46-2.61c-0.09,0.32-0.14,0.65-0.14,1
		c0,1.98,1.62,3.6,3.6,3.6h144.48c1.98,0,3.6-1.62,3.6-3.6C152.67,68.83,152.62,68.49,152.53,68.18L152.53,68.18z"/>
</g>
<g>
	<polygon class="st9" points="72.73,140.12 17.35,140.12 17.35,145.61 72.73,145.61 128.12,145.61 128.12,140.12 	"/>
	<polygon class="st9" points="128.12,140.12 72.73,140.12 17.35,140.12 17.35,145.61 72.73,145.61 128.12,145.61 128.12,140.12 	"/>
</g>
</svg>
