<?xml version="1.0" encoding="utf-8"?>
<!-- Generator: Adobe Illustrator 26.3.1, SVG Export Plug-In . SVG Version: 6.00 Build 0)  -->
<svg version="1.1" id="Слой_1" xmlns="http://www.w3.org/2000/svg" xmlns:xlink="http://www.w3.org/1999/xlink" x="0px" y="0px"
	 viewBox="0 0 400 400" style="enable-background:new 0 0 400 400;" xml:space="preserve">
<style type="text/css">
	.st0{fill:#F33040;}
	.st1{fill:#F0E9D9;}
	.st2{fill:none;stroke:#F0E9D9;stroke-width:4;stroke-miterlimit:10;}
	.st3{fill:#3C1A1D;}
</style>
<path class="st0" d="M259.76,56.86c0,0-48.62,115.45-140.24,173.79h140.24H400C308.38,172.31,259.76,56.86,259.76,56.86z"/>
<path class="st1" d="M259.76,56.86c0,0-39.09,115.45-112.76,173.79h112.76h112.76C298.85,172.31,259.76,56.86,259.76,56.86z"/>
<path class="st0" d="M259.87,56.86c0,0-28.58,115.45-82.43,173.79h82.43h82.43C288.45,172.31,259.87,56.86,259.87,56.86z"/>
<path class="st1" d="M259.87,56.86c0,0-17.62,115.45-50.83,173.79h50.83h50.83C277.49,172.31,259.87,56.86,259.87,56.86z"/>
<path class="st0" d="M259.87,56.86c0,0-7.62,115.45-21.98,173.79h21.98h21.98C267.49,172.31,259.87,56.86,259.87,56.86z"/>
<path class="st0" d="M286.53,28.24l-26.66-7.31v21.53l26.66-7.31C290.04,34.19,290.04,29.2,286.53,28.24z"/>
<line class="st2" x1="259.62" y1="57.14" x2="259.62" y2="13.03"/>
<circle class="st0" cx="259.95" cy="61.95" r="8.23"/>
<circle class="st0" cx="259.95" cy="17.07" r="5.68"/>
<path class="st0" d="M200,155.4c-39.33-50.02-59.76-98.54-59.76-98.54S91.62,172.31,0,230.65h140.24H200V155.4z"/>
<path class="st1" d="M200,172.92c-39.27-55.55-59.76-116.06-59.76-116.06S101.15,172.31,27.48,230.65h112.76H200V172.92z"/>
<path class="st0" d="M200,200.72c-39.1-60.82-59.65-143.86-59.65-143.86s-28.58,115.45-82.43,173.79h82.43H200V200.72z"/>
<path class="st1" d="M140.35,56.86c0,0-17.62,115.45-50.83,173.79h50.83h50.83C157.97,172.31,140.35,56.86,140.35,56.86z"/>
<path class="st0" d="M140.35,56.86c0,0-7.62,115.45-21.98,173.79h21.98h21.98C147.97,172.31,140.35,56.86,140.35,56.86z"/>
<path class="st0" d="M167,28.24l-26.66-7.31v21.53L167,35.16C170.52,34.19,170.52,29.2,167,28.24z"/>
<path class="st2" d="M140.1,57.14V13.03V57.14z"/>
<circle class="st0" cx="140.43" cy="60.1" r="8.23"/>
<circle class="st0" cx="140.43" cy="17.07" r="5.68"/>
<rect x="14.68" y="251.07" class="st0" width="370.6" height="106.2"/>
<rect x="36.19" y="251.07" class="st1" width="327.57" height="106.2"/>
<rect x="57.71" y="251.07" class="st0" width="284.54" height="106.2"/>
<rect x="80.3" y="251.07" class="st1" width="239.35" height="106.2"/>
<rect x="100.74" y="251.07" class="st0" width="198.48" height="106.2"/>
<rect x="124.4" y="251.07" class="st1" width="151.14" height="106.2"/>
<rect x="148.34" y="251.07" class="st0" width="102.73" height="106.2"/>
<rect x="169.05" y="251.07" class="st1" width="62.39" height="106.2"/>
<path class="st0" d="M382.85,253.66H17.15c-9.41,0-17.04-7.63-17.04-17.04v-6.31h399.78v6.31
	C399.89,246.03,392.26,253.66,382.85,253.66z"/>
<rect x="191.64" y="251.07" class="st0" width="17.21" height="106.2"/>
<rect x="14.54" y="352.08" class="st0" width="370.14" height="18.39"/>
<path class="st3" d="M198.84,292.14c-7.19,67.25-23.23,78.53-22.82,78.34h22.19h0.12h23.34
	C222.07,370.67,206.03,359.38,198.84,292.14z"/>
<polygon class="st0" points="202.4,230.68 198.29,230.68 198.29,203.26 199.66,201.89 202.4,203.26 "/>
<polygon class="st1" points="198.29,173.97 201.91,173.97 201.91,195.29 200.1,199.87 198.29,195.04 "/>
</svg>
