<?xml version="1.0" encoding="utf-8"?>
<!-- Generator: Adobe Illustrator 26.3.1, SVG Export Plug-In . SVG Version: 6.00 Build 0)  -->
<svg version="1.1" id="Слой_1" xmlns="http://www.w3.org/2000/svg" xmlns:xlink="http://www.w3.org/1999/xlink" x="0px" y="0px"
	 viewBox="0 0 237.5 219" style="enable-background:new 0 0 237.5 219;" xml:space="preserve">
<style type="text/css">
	.st0{fill:#FFFFFF;}
	.st1{fill:#E24E2F;}
	.st2{fill:none;stroke:#797979;stroke-width:4;stroke-miterlimit:10;}
	.st3{fill:#797979;}
	.st4{fill-rule:evenodd;clip-rule:evenodd;fill:#A5352D;}
	.st5{fill:#C6402A;}
	.st6{fill:#878787;}
	.st7{fill:#A5352D;}
</style>
<g>
	<rect x="38.31" y="212.76" class="st0" width="196.97" height="3.75"/>
	<polygon class="st0" points="237.48,210.56 136.8,210.56 36.12,210.56 36.12,218.7 136.8,218.7 237.48,218.7 237.48,210.56 	"/>
</g>
<g>
	
		<rect x="5.24" y="114.99" transform="matrix(0.2588 -0.9659 0.9659 0.2588 -36.8493 186.5187)" class="st0" width="195.74" height="4.56"/>
	<polygon class="st0" points="124.47,19.09 98.5,116.03 72.52,212.98 81.75,215.46 107.73,118.51 133.71,21.56 124.47,19.09 	"/>
</g>
<g>
	
		<rect x="170.8" y="17.75" transform="matrix(0.9659 -0.2588 0.2588 0.9659 -24.333 48.7735)" class="st0" width="4.59" height="198.11"/>
	<polygon class="st0" points="151.44,17.47 142.17,19.96 168.46,118.05 194.74,216.15 204.01,213.67 177.73,115.57 151.44,17.47 	
		"/>
</g>
<g>
	<path class="st1" d="M137.61,163.49c2.52-6.12,9.47-9.15,15.97-7.16l0.02-0.06l7.41,2.67l8.68-10.11L23.82,88.91l0,0
		c-8.08,19.67,13.22,47.05,33.83,55.52l81.9,33.64l0.04-0.05C133.51,170.72,136.76,165.57,137.61,163.49z"/>
</g>
<g>
	<line class="st2" x1="108.53" y1="29.2" x2="148.46" y2="45.6"/>
</g>
<g>
	<line class="st2" x1="149.45" y1="54.88" x2="101.35" y2="34.98"/>
</g>
<g>
	<line class="st2" x1="28.48" y1="93.54" x2="124.74" y2="17.03"/>
</g>
<g>
	<line class="st2" x1="160.53" y1="147.69" x2="145.85" y2="25.61"/>
</g>
<circle class="st3" cx="138.31" cy="14.2" r="14.66"/>
<g>
	<rect x="16.13" y="69.27" transform="matrix(0.38 -0.925 0.925 0.38 -70.1641 70.1406)" class="st4" width="2.22" height="36.28"/>
</g>
<circle class="st3" cx="160.32" cy="145.7" r="3.62"/>
<g>
	<path class="st5" d="M24.2,89.46l-1.65,3.27c-4.1,19.38,15.73,43.94,35,51.85l82.02,33.69l0.04-0.05
		c-2.54-3.07-3.45-5.77-3.58-8.02c-19.32-7.98-58.52-24.23-79.45-33.42C28.1,124.28,24.2,89.46,24.2,89.46z"/>
</g>
<circle class="st6" cx="160.68" cy="156.91" r="1.93"/>
<g>
	<path class="st5" d="M154.03,156.25l7.39,3.04l8.36-10.12l0.08-0.47l-16.58,7.42c0.24,0.06,0.48,0.11,0.72,0.19L154.03,156.25z"/>
</g>
<g>
	<path class="st7" d="M44.11,102.85l1.97-4.79l-22.39-9.2c-0.67,1.63-1.14,3.31-1.43,5.02L44.11,102.85z"/>
</g>
<g>
	<path class="st5" d="M159.08,158.08c-1.37-1.6-3.46-2.22-5.54-3.08c-7-2.87-15,0.47-17.87,7.46c-2.12,5.15-0.85,10.84,2.74,14.63
		c-4.42-6.51-1.56-11.12-0.76-13.07c2.54-6.18,9.16-9.5,15.67-7.51C153.32,156.51,158.4,157.8,159.08,158.08z"/>
</g>
<circle class="st3" cx="30.21" cy="92.25" r="3.62"/>
<path class="st5" d="M151.25,154.29c0,0,5.8,0,8.91-1.25c3.1-1.25-1.89,3.1-1.89,3.1l-5.87-0.71"/>
<circle class="st6" cx="138.64" cy="14.28" r="9.88"/>
<circle class="st6" cx="30.11" cy="92.37" r="2.29"/>
</svg>
