<?xml version="1.0" encoding="UTF-8"?>
<svg xmlns="http://www.w3.org/2000/svg" viewBox="0 0 1920 1779">
  <defs>
    <style>
      .cls-1 {
        fill: #fecb56;
      }

      .cls-2 {
        fill: #797979;
      }

      .cls-3 {
        fill: #c6402a;
      }

      .cls-4 {
        stroke: #e2e1e0;
      }

      .cls-4, .cls-5 {
        fill: #e2e1e0;
      }

      .cls-4, .cls-6, .cls-7, .cls-8, .cls-9, .cls-10, .cls-11, .cls-12, .cls-13, .cls-14, .cls-15, .cls-16, .cls-17, .cls-18, .cls-19, .cls-20, .cls-21, .cls-22 {
        stroke-miterlimit: 10;
      }

      .cls-4, .cls-19, .cls-20, .cls-22 {
        stroke-width: 2.68px;
      }

      .cls-23 {
        fill: #46a8b3;
      }

      .cls-24 {
        fill: #fff;
      }

      .cls-25 {
        fill: #7a6a46;
      }

      .cls-26 {
        fill: #cff0ff;
      }

      .cls-27 {
        fill: #fece60;
      }

      .cls-28 {
        fill: #e8bf7d;
      }

      .cls-6 {
        stroke: #8b2009;
        stroke-width: 16px;
      }

      .cls-6, .cls-7, .cls-8, .cls-9, .cls-10, .cls-11, .cls-12, .cls-13, .cls-15, .cls-16, .cls-17, .cls-18, .cls-19, .cls-20, .cls-21, .cls-22 {
        fill: none;
      }

      .cls-7, .cls-14, .cls-16 {
        stroke: #a1a3a0;
      }

      .cls-29 {
        fill: #db1930;
      }

      .cls-30 {
        fill: #e2e2e2;
      }

      .cls-31 {
        opacity: .28;
      }

      .cls-8 {
        stroke-width: 5.75px;
      }

      .cls-8, .cls-11, .cls-12 {
        stroke: #fff;
      }

      .cls-32 {
        fill: #ffac06;
      }

      .cls-33 {
        fill: #628414;
      }

      .cls-34 {
        fill: #93845b;
      }

      .cls-9 {
        stroke: #6f3921;
        stroke-width: 5px;
      }

      .cls-35 {
        fill: #200b12;
      }

      .cls-36, .cls-14 {
        fill: #a1a3a0;
      }

      .cls-37 {
        fill: #d3cdc5;
      }

      .cls-38 {
        fill: #d6d6d6;
      }

      .cls-39 {
        fill: #e7e8e6;
      }

      .cls-10 {
        stroke: #c9c9c9;
      }

      .cls-10, .cls-12, .cls-15 {
        stroke-width: 2px;
      }

      .cls-40 {
        fill: #474a56;
      }

      .cls-41 {
        fill: #c7e44a;
      }

      .cls-42 {
        fill: #63b2ba;
      }

      .cls-43 {
        fill: #9ce1ff;
      }

      .cls-44 {
        fill: #66573a;
      }

      .cls-45 {
        fill: #fe575f;
      }

      .cls-11 {
        stroke-width: 7.15px;
      }

      .cls-46 {
        fill: #7d9617;
      }

      .cls-13 {
        stroke-width: 7px;
      }

      .cls-13, .cls-18 {
        stroke: #701809;
      }

      .cls-47 {
        fill: #3c1a1d;
      }

      .cls-48 {
        fill: #e24e2f;
      }

      .cls-49 {
        fill: #439a9e;
      }

      .cls-50 {
        fill: #ba9044;
      }

      .cls-15 {
        stroke: #7a7a7a;
      }

      .cls-51 {
        fill: #f33040;
      }

      .cls-52 {
        fill: #756d56;
      }

      .cls-16 {
        stroke-width: 6.58px;
      }

      .cls-53 {
        fill: #e2940a;
      }

      .cls-17 {
        stroke: #797979;
        stroke-width: 3.51px;
      }

      .cls-54 {
        fill: #f4bf67;
      }

      .cls-18 {
        stroke-width: 8px;
      }

      .cls-19 {
        stroke: #c55250;
      }

      .cls-55 {
        fill: #878787;
      }

      .cls-56 {
        fill: #6f3921;
      }

      .cls-57 {
        fill: #b0a700;
      }

      .cls-58 {
        fill: #db404f;
      }

      .cls-59 {
        fill: #a51;
      }

      .cls-60 {
        fill: #e83445;
      }

      .cls-20 {
        stroke: #f4bf67;
      }

      .cls-61 {
        fill: #6cc4d2;
      }

      .cls-62 {
        fill: #eff4f4;
      }

      .cls-21 {
        stroke: #f0e9d9;
        stroke-width: 4px;
      }

      .cls-63 {
        fill: #c52128;
      }

      .cls-64 {
        fill: #a6c835;
      }

      .cls-65 {
        fill: #524522;
      }

      .cls-66 {
        fill: #a0bc29;
      }

      .cls-67 {
        fill: #fff8e6;
      }

      .cls-68 {
        fill: #7a7a7a;
      }

      .cls-69 {
        fill: #894022;
      }

      .cls-70 {
        fill: #d88a0e;
      }

      .cls-71 {
        fill: #f0e9d9;
      }

      .cls-72 {
        fill: #fffbff;
      }

      .cls-73 {
        fill: #a5352d;
      }

      .cls-74 {
        fill: #ea2f46;
      }

      .cls-22 {
        stroke: #474a56;
      }

      .cls-75 {
        fill: #94e9fe;
      }

      .cls-76 {
        fill: #fe1b2c;
      }

      .cls-77 {
        fill: #c55250;
      }
    </style>
  </defs>
  <g id="nebo">
    <rect class="cls-75" width="1920" height="1920"/>
  </g>
  <g id="sky">
    <circle class="cls-1" cx="1608.5" cy="229.5" r="85.5"/>
    <path class="cls-24" d="M710.63,389.85h-20.78c0-16.59-13.45-30.04-30.04-30.04-.03,0-.05,0-.08,0-1.18-19.68-17.51-35.27-37.48-35.27-4.48,0-8.78,.79-12.77,2.23-7.81-27.55-32.16-48.14-61.65-50.34-6.5-12.91-19.86-21.77-35.3-21.77-16.79,0-31.13,10.48-36.85,25.25-6.87-2.38-14.25-3.7-21.93-3.7-36.97,0-66.94,29.97-66.94,66.94,0,6.15,.85,12.09,2.4,17.75-4.74,3.82-8.92,8.3-12.42,13.29-2.03-.43-4.14-.67-6.31-.67-16.59,0-30.04,13.45-30.04,30.04s13.45,30.04,30.04,30.04c1.42,0,2.81-.11,4.17-.29,.84,.19,1.71,.29,2.6,.29h333.38c11.2,0,20.37-9.17,20.37-20.37v-3.02c0-11.2-9.17-20.37-20.37-20.37Z"/>
    <rect class="cls-24" x="-74" y="527.32" width="210.44" height="39.68" rx="19.84" ry="19.84"/>
    <ellipse class="cls-24" cx="2.33" cy="518.5" rx="48.22" ry="48.5"/>
    <circle class="cls-24" cx="90.79" cy="525.66" r="31.97"/>
    <circle class="cls-24" cx="50.47" cy="506.44" r="21.21"/>
    <circle class="cls-24" cx="864.36" cy="252.64" r="26.36"/>
    <circle class="cls-24" cx="917.68" cy="225.98" r="40.58"/>
    <circle class="cls-24" cx="1023.14" cy="207.02" r="40.58"/>
    <circle class="cls-24" cx="1088.9" cy="197.54" r="59.54"/>
    <circle class="cls-24" cx="976.81" cy="218.65" r="29.04"/>
    <circle class="cls-24" cx="1153.4" cy="226.3" r="29.04"/>
    <path class="cls-24" d="M871.77,231.01h307.18c13.24,0,23.99,10.75,23.99,23.99h0c0,13.24-10.75,23.99-23.99,23.99h-307.18c-3.92,0-7.11-3.19-7.11-7.11v-33.77c0-3.92,3.19-7.11,7.11-7.11Z"/>
    <rect class="cls-24" x="1816.47" y="248.34" width="210.44" height="39.68" rx="19.84" ry="19.84" transform="translate(3843.39 536.36) rotate(-180)"/>
    <ellipse class="cls-24" cx="1950.58" cy="239.52" rx="48.22" ry="48.5"/>
    <circle class="cls-24" cx="1862.13" cy="246.69" r="31.97"/>
    <circle class="cls-24" cx="1902.44" cy="227.46" r="21.21"/>
    <ellipse class="cls-24" cx="66.09" cy="224.03" rx="12.79" ry="13.05"/>
    <ellipse class="cls-24" cx="2.98" cy="214.17" rx="15.66" ry="15.98"/>
    <rect class="cls-24" x="-41" y="223.76" width="126.8" height="28.24" rx="14.12" ry="14.12"/>
    <circle class="cls-24" cx="33.06" cy="215.24" r="28.24"/>
    <ellipse class="cls-24" cx="312.63" cy="592.4" rx="10.79" ry="11.01"/>
    <ellipse class="cls-24" cx="380.31" cy="591.27" rx="11.45" ry="11.69"/>
    <ellipse class="cls-24" cx="365.89" cy="584.08" rx="13.21" ry="13.49"/>
    <rect class="cls-24" x="296" y="592.17" width="107" height="23.83" rx="11.91" ry="11.91" transform="translate(699 1208.17) rotate(180)"/>
    <circle class="cls-24" cx="340.51" cy="584.98" r="23.83"/>
    <rect class="cls-24" x="1885" y="240" width="16" height="16"/>
    <rect class="cls-24" x="1041.34" y="428.98" width="106.4" height="20.06" rx="7.99" ry="7.99" transform="translate(2189.09 878.02) rotate(-180)"/>
    <ellipse class="cls-24" cx="1109.15" cy="424.52" rx="24.38" ry="24.52"/>
    <circle class="cls-24" cx="1064.43" cy="428.14" r="16.16"/>
    <circle class="cls-24" cx="1084.81" cy="418.42" r="10.72"/>
    <rect class="cls-24" x="1075.99" y="424.76" width="8.09" height="8.09"/>
  </g>
  <g id="_Слой_19" data-name="Слой 19">
    <line class="cls-12" x1="1490.37" y1="490.48" x2="1498.4" y2="507.98"/>
    <line class="cls-12" x1="1518.15" y1="491.13" x2="1510.12" y2="508.63"/>
    <path class="cls-59" d="M1504.86,507.55h-7.34c-.65,0-1.15,.57-1.07,1.21l1.06,8.89c.13,1.06,1.02,1.85,2.09,1.85h9.47c1.06,0,1.96-.8,2.09-1.85l1.06-8.89c.08-.64-.43-1.21-1.07-1.21h-6.27Z"/>
    <path class="cls-76" d="M1487.18,488h34.51c9.84-7.78,16.42-21.52,16.42-34.87,0-20.2-15.08-31.87-33.68-31.87s-33.68,11.67-33.68,31.87c0,13.35,6.59,27.09,16.42,34.87Z"/>
    <rect class="cls-74" x="1484.77" y="487.63" width="39.11" height="5.43" rx="2.51" ry="2.51"/>
    <rect class="cls-35" x="1497.81" y="493.06" width="13.4" height="3.37" rx="1.56" ry="1.56"/>
    <path class="cls-63" d="M1490.23,487.74h28.03c7.99-7.78,13.34-21.52,13.34-34.87,0-20.2-12.25-31.87-27.36-31.87s-27.36,11.67-27.36,31.87c0,13.35,5.35,27.09,13.34,34.87Z"/>
    <path class="cls-76" d="M1494.63,487.74h19.28c5.49-7.78,9.17-21.52,9.17-34.87,0-20.2-8.42-31.87-18.81-31.87s-18.81,11.67-18.81,31.87c0,13.35,3.68,27.09,9.17,34.87Z"/>
    <path class="cls-63" d="M1499.87,487.74h8.79c2.51-7.78,4.19-21.52,4.19-34.87,0-20.2-3.84-31.87-8.58-31.87s-8.58,11.67-8.58,31.87c0,13.35,1.68,27.09,4.19,34.87Z"/>
    <path class="cls-29" d="M1507.3,421.54c16.3,1.87,28.82,13.19,28.82,31.6,0,13.35-6.59,27.09-16.42,34.87h-32.82c.07,.05,.13,.12,.2,.17h34.51c9.84-7.78,16.42-21.52,16.42-34.87,0-19.11-13.5-30.58-30.7-31.77Z"/>
  </g>
  <g id="_таулар" data-name="таулар">
    <path class="cls-23" d="M88,1039H372.74s-224.13-144.61-284.45-145.29"/>
    <path class="cls-49" d="M88.29,893.71c-59.73-.67-285.04,145.29-285.04,145.29H88"/>
    <path class="cls-23" d="M980,1050h417.43s-328.57-212-417-213"/>
    <path class="cls-49" d="M980.43,837c-87.57-.98-417.86,213-417.86,213h417.43"/>
    <path class="cls-61" d="M417,1044.15h422s-328.57-247.99-417-249.15"/>
    <path class="cls-42" d="M422,795c-87.57-1.15-417.86,249.15-417.86,249.15H417"/>
    <path class="cls-42" d="M1695,1037h502.43s-415-704.01-501.91-704"/>
    <path class="cls-61" d="M1695.52,333c-75.09,0-502.95,704-502.95,704h519.59"/>
    <path class="cls-24" d="M420,887c54.25,0,97.14-20.06,113-48-47.23-26.99-88.08-45.67-111.78-46"/>
    <path class="cls-39" d="M421.22,793c-24.6-.33-67.03,19.96-117.22,49,17.32,26.42,63.65,45,116,45"/>
    <path class="cls-62" d="M982,903.5c48.92,0,92.43-10.8,120.23-27.56-50.15-24.21-93.96-41.15-118.8-41.43"/>
    <path class="cls-30" d="M983.43,834.5c-25.01-.28-69.83,16.98-121.1,41.78,27.83,16.57,71.08,27.22,119.67,27.22"/>
    <path class="cls-24" d="M1695.52,333c-18.89,0-60.12,44.58-111.24,111.28,27.3,20.45,70.23,33.72,114.72,33.72"/>
    <path class="cls-39" d="M1699,478c45.83,0,83.82-14.06,111.15-35.59-50.92-65.67-92.97-109.42-114.64-109.41"/>
  </g>
  <g id="grass">
    <ellipse class="cls-66" cx="382.5" cy="1024.6" rx="69.5" ry="34"/>
    <ellipse class="cls-66" cx="454.5" cy="1013" rx="89.5" ry="36"/>
    <path class="cls-41" d="M460.98,984.51c33.14,2.3,62.06,9.72,80.14,19.4-10.01-15.49-45-26.92-86.62-26.92-28.12,0-53.21,5.22-69.61,13.38,19.62-5.5,46.65-7.9,76.1-5.86Z"/>
    <ellipse class="cls-46" cx="375.5" cy="1049.4" rx="69.5" ry="34"/>
    <path class="cls-41" d="M448,1032.6c0,1.29-.12,2.56-.33,3.82,2.79-3.68,4.33-7.67,4.33-11.82,0-18.78-31.12-34-69.5-34-1.7,0-3.39,.04-5.06,.1,39.39,1.42,70.56,19.63,70.56,41.9Z"/>
    <ellipse class="cls-46" cx="488.5" cy="1051" rx="69.5" ry="34"/>
    <ellipse class="cls-66" cx="-23.02" cy="1004.7" rx="42.5" ry="69.5" transform="translate(-987.98 723.98) rotate(-75.09)"/>
    <ellipse class="cls-66" cx="45.28" cy="1019.21" rx="45" ry="89.5" transform="translate(-951.27 800.76) rotate(-75.09)"/>
    <ellipse class="cls-66" cx="141.42" cy="1061.42" rx="45" ry="59" transform="translate(-920.65 925.01) rotate(-75.09)"/>
    <path class="cls-41" d="M60.71,986.47c31.28,11.3,56.85,27.71,71.21,44.06-4.69-21.28-34.82-44.09-75.05-54.8-27.17-7.23-53.09-7.39-71.57-1.75,20.73-1.6,47.62,2.45,75.42,12.5Z"/>
    <ellipse class="cls-46" cx="-37.76" cy="1032.86" rx="42.5" ry="69.5" transform="translate(-1026.14 730.65) rotate(-75.09)"/>
    <path class="cls-41" d="M37.7,1031.22c-.41,1.56-.94,3.07-1.54,4.54,3.88-3.73,6.65-8.15,7.98-13.17,6.04-22.68-19.14-49.07-56.23-58.95-1.65-.44-3.28-.82-4.92-1.18,37.61,11.85,61.87,41.86,54.71,68.76Z"/>
    <ellipse class="cls-46" cx="70.92" cy="1063.86" rx="42.5" ry="69.5" transform="translate(-975.38 858.7) rotate(-75.09)"/>
    <ellipse class="cls-66" cx="1062.6" cy="1029.55" rx="53.63" ry="34"/>
    <ellipse class="cls-66" cx="1118.16" cy="1017.95" rx="69.06" ry="36"/>
    <ellipse class="cls-66" cx="1196.48" cy="1039.55" rx="45.52" ry="36"/>
    <path class="cls-41" d="M1123.16,989.46c25.57,2.3,47.89,9.72,61.84,19.4-7.72-15.49-34.72-26.92-66.84-26.92-21.7,0-41.05,5.22-53.72,13.38,15.14-5.5,36-7.9,58.72-5.86Z"/>
    <ellipse class="cls-46" cx="1057.2" cy="1054.35" rx="53.63" ry="34"/>
    <path class="cls-41" d="M1113.14,1037.55c0,1.29-.09,2.56-.25,3.82,2.16-3.68,3.34-7.67,3.34-11.82,0-18.78-24.01-34-53.63-34-1.31,0-2.61,.04-3.9,.1,30.39,1.42,54.44,19.63,54.44,41.9Z"/>
    <ellipse class="cls-46" cx="1144.39" cy="1055.95" rx="53.63" ry="34"/>
  </g>
  <g id="gorki">
    <line class="cls-18" x1="1825.16" y1="759.01" x2="1825.16" y2="1135.74"/>
    <line class="cls-18" x1="1688.16" y1="747.91" x2="1688.16" y2="1135.74"/>
    <line class="cls-18" x1="1551.16" y1="755.07" x2="1551.16" y2="1135.74"/>
    <line class="cls-18" x1="1414.16" y1="777.27" x2="1414.16" y2="1135.74"/>
    <line class="cls-18" x1="1277.16" y1="813.44" x2="1277.16" y2="1135.74"/>
    <line class="cls-18" x1="1277.16" y1="803.06" x2="1277.16" y2="1135.38"/>
    <line class="cls-18" x1="1140.16" y1="825.98" x2="1140.16" y2="1135.38"/>
    <line class="cls-18" x1="1003.16" y1="831.71" x2="1003.16" y2="1135.38"/>
    <line class="cls-18" x1="866.32" y1="822.22" x2="866.32" y2="1144.51"/>
    <line class="cls-18" x1="729.16" y1="813.44" x2="729.16" y2="1135.74"/>
    <line class="cls-18" x1="729.32" y1="777.26" x2="729.16" y2="1135.38"/>
    <line class="cls-18" x1="592.16" y1="813.44" x2="592.16" y2="1135.74"/>
    <line class="cls-18" x1="592.16" y1="618.43" x2="592.16" y2="1135.38"/>
    <line class="cls-13" x1="455.16" y1="813.44" x2="455.16" y2="1135.74"/>
    <line class="cls-18" x1="458" y1="516" x2="455.16" y2="1135.38"/>
    <line class="cls-13" x1="318.16" y1="813.44" x2="318.16" y2="1135.74"/>
    <line class="cls-18" x1="318.16" y1="707.06" x2="318.16" y2="1135.74"/>
    <line class="cls-18" x1="63.16" y1="893" x2="63.16" y2="1135.74"/>
    <line class="cls-18" x1="181.16" y1="864.65" x2="181.16" y2="1135.74"/>
    <path class="cls-18" d="M2050.99,914.57s-186.36-79.8-439-70.19c-113,4.3-412.25,76.13-498,80.22-162.33,7.74-376.28,4.99-521.83-138.37-128.16-126.23-215.16-50.23-273.5,78.78-37.53,82.99-124.96,109.73-226.58,109.58-68.89-.1-274.97-18.27-274.97-18.27"/>
    <line class="cls-18" x1="591.66" y1="783.36" x2="458.32" y2="515.76"/>
    <line class="cls-18" x1="321.66" y1="857.13" x2="458" y2="516"/>
    <line class="cls-18" x1="591.66" y1="783.36" x2="729.32" y2="777.26"/>
    <line class="cls-18" x1="865.66" y1="913.71" x2="729.32" y2="777.26"/>
    <line class="cls-18" x1="1002.66" y1="832.06" x2="865.66" y2="913.71"/>
    <line class="cls-18" x1="1140.66" y1="922.31" x2="1002.66" y2="832.06"/>
    <line class="cls-18" x1="1277.66" y1="802.7" x2="1140.66" y2="922.31"/>
    <line class="cls-18" x1="1414.66" y1="872.89" x2="1277.66" y2="802.7"/>
    <line class="cls-18" x1="1551.66" y1="755.43" x2="1414.66" y2="872.89"/>
    <line class="cls-18" x1="1688.66" y1="844.24" x2="1551.66" y2="754.71"/>
    <line class="cls-18" x1="1825.66" y1="759.01" x2="1688.66" y2="844.24"/>
    <line class="cls-18" x1="1962.66" y1="885.06" x2="1825.66" y2="759.01"/>
    <line class="cls-18" x1="318.66" y1="865.01" x2="181" y2="868"/>
    <line class="cls-18" x1="68.66" y1="974.59" x2="181" y2="871"/>
    <path class="cls-6" d="M2051.16,818.1s-186.36-79.8-439-70.19c-113,4.3-412.76,72.41-498,80.22-266,24.35-461.23-24.75-525-223.2-41-127.59-224-114.7-241.16,0-16.86,112.68-100.71,287.09-255.92,288.05-68.83,.43-274.97-13.69-274.97-13.69"/>
  </g>
  <g id="cirk">
    <path class="cls-51" d="M1950.55,533.73s-78.82,187.16-227.35,281.74h454.71c-148.54-94.59-227.35-281.74-227.35-281.74Z"/>
    <path class="cls-71" d="M1950.55,533.73s-63.37,187.16-182.81,281.74h365.62c-119.43-94.59-182.81-281.74-182.81-281.74Z"/>
    <path class="cls-51" d="M1950.72,533.73s-46.33,187.16-133.63,281.74h267.27c-87.31-94.59-133.63-281.74-133.63-281.74Z"/>
    <path class="cls-71" d="M1950.72,533.73s-28.57,187.16-82.41,281.74h164.82c-53.84-94.59-82.41-281.74-82.41-281.74Z"/>
    <path class="cls-51" d="M1950.72,533.73s-12.35,187.16-35.64,281.74h71.27c-23.28-94.59-35.64-281.74-35.64-281.74Z"/>
    <path class="cls-51" d="M1853.66,693.47c-63.76-81.1-96.88-159.75-96.88-159.75,0,0-78.82,187.16-227.35,281.74h324.24v-122Z"/>
    <path class="cls-71" d="M1853.66,721.88c-63.66-90.05-96.88-188.15-96.88-188.15,0,0-63.37,187.16-182.81,281.74h279.69v-93.59Z"/>
    <path class="cls-51" d="M1853.66,766.95c-63.38-98.6-96.71-233.22-96.71-233.22,0,0-46.33,187.16-133.63,281.74h230.34v-48.53Z"/>
    <path class="cls-71" d="M1756.95,533.73s-28.57,187.16-82.41,281.74h164.82c-53.84-94.59-82.41-281.74-82.41-281.74Z"/>
    <path class="cls-51" d="M1756.95,533.73s-12.35,187.16-35.64,281.74h71.27c-23.28-94.59-35.64-281.74-35.64-281.74Z"/>
    <path class="cls-51" d="M1808.01,489.47l-51.05-14v34.91l51.05-14c3.52-.96,3.52-5.95,0-6.92Z"/>
    <path class="cls-21" d="M1756.55,534.18v0Z"/>
    <circle class="cls-51" cx="1757.08" cy="538.98" r="13.34"/>
    <circle class="cls-51" cx="1757.08" cy="469.21" r="9.21"/>
    <path class="cls-51" d="M1529.6,814.91h648.12v10.43c0,15.14-12.29,27.43-27.43,27.43h-593.26c-15.14,0-27.43-12.29-27.43-27.43v-10.43h0Z"/>
    <rect class="cls-51" x="1553.22" y="852.01" width="600.8" height="174.4"/>
    <rect class="cls-71" x="1588.1" y="852.01" width="531.05" height="174.4"/>
    <rect class="cls-51" x="1622.98" y="852.01" width="461.29" height="174.4"/>
    <rect class="cls-71" x="1659.61" y="852.01" width="388.04" height="174.4"/>
    <rect class="cls-51" x="1692.74" y="852.01" width="321.77" height="174.4"/>
    <rect class="cls-71" x="1731.11" y="852.01" width="245.03" height="174.4"/>
    <rect class="cls-51" x="1769.91" y="852.01" width="166.55" height="174.4"/>
    <rect class="cls-71" x="1803.48" y="852.01" width="101.15" height="174.4"/>
    <rect class="cls-51" x="1840.11" y="852.01" width="27.9" height="174.4"/>
    <rect class="cls-51" x="1553" y="1018" width="598" height="39"/>
    <path class="cls-47" d="M1854,911c-12.33,115.26-37,127-37,127h74s-24.67-11.74-37-127Z"/>
  </g>
  <g id="Trees">
    <rect class="cls-56" x="49.27" y="861.52" width="27.94" height="176.48" transform="translate(126.49 1899.52) rotate(-180)"/>
    <rect class="cls-69" x="49.27" y="861.52" width="10.29" height="176.48" transform="translate(108.84 1899.52) rotate(-180)"/>
    <circle class="cls-64" cx="13.24" cy="741.66" r="97.8"/>
    <ellipse class="cls-64" cx="61.77" cy="761.51" rx="78.68" ry="113.24"/>
    <path class="cls-33" d="M17.12,828.6c59.91-16.48,96.87-72.06,82.54-124.13-1.79-6.5-4.29-12.64-7.42-18.37,10.92,15.78,17.33,34.92,17.33,55.56,0,54.01-43.79,97.8-97.8,97.8-12.26,0-23.99-2.28-34.8-6.4,13.04,.66,26.6-.73,40.15-4.46Z"/>
    <circle class="cls-64" cx="127.54" cy="747.08" r="101.56"/>
    <path class="cls-33" d="M74.43,660.82c-32.17,25.6-46.81,69.37-33.39,110.79,17.29,53.36,74.56,82.6,127.92,65.32,7.49-2.43,14.48-5.66,20.96-9.54-9.27,7.38-19.99,13.26-31.93,17.13-53.36,17.29-110.63-11.96-127.92-65.32-14.86-45.87,4.69-94.61,44.36-118.37Z"/>
    <path class="cls-41" d="M13.24,643.86c4.75,0,9.41,.36,13.97,1.01v19.29c-13.22-.94-26.94,.55-40.49,4.83-37.1,11.72-63.31,41.21-71.22,75.07-.02-.8-.06-1.59-.06-2.4,0-54.01,43.79-97.8,97.8-97.8Z"/>
    <circle class="cls-64" cx="117.25" cy="644.87" r="73.53"/>
    <circle class="cls-64" cx="3.68" cy="626.21" r="73.53"/>
    <path class="cls-41" d="M-31.8,572.6c-15.81,9.13-28.01,21.81-35.91,35.96,7.91-32.09,36.86-55.89,71.39-55.89,14.21,0,27.46,4.04,38.71,11.02-22.5-7.61-49.86-5.13-74.19,8.91Z"/>
    <path class="cls-33" d="M23.97,689.04c9.42-1,18.37-3.15,26.67-6.25-12.74,10.58-29.1,16.95-46.96,16.95-32.72,0-60.43-21.38-69.98-50.92,15.22,27.37,50.87,44.41,90.26,40.21Z"/>
    <ellipse class="cls-64" cx="57.67" cy="598.36" rx="54.42" ry="57.36"/>
    <path class="cls-41" d="M40.39,543.97c5.43-1.92,11.24-2.97,17.28-2.97,30.05,0,54.42,25.68,54.42,57.36,0,3-.22,5.95-.64,8.83-4.63-35.33-34.58-62.67-71.05-63.22Z"/>
    <path class="cls-33" d="M78.84,693.9c13.44,13.44,29.94,21.64,46.69,24.51-21.93,2.92-44.92-4.03-61.77-20.87-28.72-28.72-28.72-75.28,0-103.99,1.63-1.63,3.32-3.15,5.06-4.6-24.05,29.14-20.16,74.77,10.02,104.95Z"/>
    <path class="cls-41" d="M175.95,615.08c-18.52-26.16-46.62-40.92-74.35-42.06,5.04-1.09,10.28-1.69,15.65-1.69,40.61,0,73.53,32.92,73.53,73.53,0,.23-.01,.45-.02,.67-3.1-10.53-8.01-20.85-14.81-30.46Z"/>
    <path class="cls-41" d="M144.74,659.37c-13.91-5.21-27.87-8.73-41.5-10.67,7.47-1.87,15.27-2.92,23.3-3.03,45.83-.65,84.98,29.16,98.21,70.68-18.28-23.65-46.04-44.25-80.02-56.98Z"/>
    <rect class="cls-56" x="1888.12" y="913.19" width="21.32" height="134.67" transform="translate(3797.57 1961.06) rotate(-180)"/>
    <rect class="cls-69" x="1888.12" y="913.19" width="7.86" height="134.67" transform="translate(3784.1 1961.06) rotate(-180)"/>
    <circle class="cls-64" cx="1860.63" cy="821.73" r="74.63"/>
    <ellipse class="cls-64" cx="1897.66" cy="836.88" rx="60.04" ry="86.41"/>
    <path class="cls-33" d="M1863.59,888.08c45.72-12.57,73.92-54.98,62.99-94.72-1.36-4.96-3.27-9.64-5.66-14.02,8.33,12.04,13.22,26.65,13.22,42.4,0,41.22-33.41,74.63-74.63,74.63-9.36,0-18.3-1.74-26.56-4.88,9.95,.5,20.3-.56,30.64-3.4Z"/>
    <circle class="cls-64" cx="1925.72" cy="786.94" r="89.22"/>
    <path class="cls-33" d="M1849.29,832.53c22.09,28.58,60.35,41.97,96.9,30.7,47.09-14.52,73.48-64.46,58.96-111.55-2.04-6.61-4.8-12.79-8.12-18.53,6.37,8.24,11.4,17.73,14.65,28.26,14.52,47.09-11.88,97.03-58.96,111.55-40.48,12.48-83.04-5.29-103.43-40.43Z"/>
    <path class="cls-41" d="M1860.63,747.1c3.62,0,7.18,.27,10.66,.77v14.72c-10.09-.72-20.56,.42-30.9,3.69-28.31,8.94-48.31,31.45-54.35,57.28-.01-.61-.05-1.22-.05-1.83,0-41.22,33.41-74.63,74.63-74.63Z"/>
    <circle class="cls-64" cx="1918.42" cy="720.17" r="56.11"/>
    <circle class="cls-64" cx="1853.33" cy="733.64" r="56.11"/>
    <path class="cls-41" d="M1826.26,692.73c-12.06,6.96-21.37,16.64-27.4,27.44,6.03-24.48,28.13-42.64,54.47-42.64,10.84,0,20.96,3.08,29.54,8.41-17.17-5.81-38.05-3.92-56.61,6.8Z"/>
    <ellipse class="cls-66" cx="1911.88" cy="1024.27" rx="38.12" ry="22.27"/>
    <path class="cls-33" d="M1868.82,781.58c7.19-.77,14.02-2.41,20.35-4.77-9.72,8.08-22.21,12.94-35.84,12.94-24.97,0-46.12-16.31-53.4-38.86,11.61,20.89,38.82,33.89,68.88,30.69Z"/>
    <ellipse class="cls-64" cx="1871.29" cy="677.52" rx="43.77" ry="41.52"/>
    <path class="cls-41" d="M1829.79,690.71c-1.46-4.14-2.27-8.57-2.27-13.18,0-22.93,19.6-41.52,43.77-41.52,2.29,0,4.54,.17,6.74,.49-26.96,3.54-47.83,26.39-48.24,54.22Z"/>
    <path class="cls-33" d="M1955.84,749.48c10.25-10.25,16.52-22.85,18.71-35.63,2.23,16.73-3.07,34.27-15.93,47.13-21.91,21.91-57.44,21.91-79.35,0-1.24-1.24-2.41-2.54-3.51-3.86,22.24,18.35,57.06,15.39,80.09-7.64Z"/>
    <path class="cls-41" d="M1895.7,675.37c-19.96,14.13-31.23,35.57-32.1,56.74-.83-3.85-1.29-7.84-1.29-11.94,0-30.99,25.12-56.11,56.11-56.11,.17,0,.34,.01,.51,.01-8.03,2.37-15.91,6.11-23.24,11.3Z"/>
    <path class="cls-46" d="M1889.23,1042.96c0,14.9-.03,9.04,22.43,9.04,22.46,0,58.9,5.85,58.9-9.04,0-14.9-18.21-26.97-40.67-26.97-22.46,0-40.67,12.08-40.67,26.97Z"/>
    <ellipse class="cls-46" cx="59.15" cy="1068.09" rx="49" ry="32.5"/>
    <ellipse class="cls-46" cx="1866.88" cy="1036.92" rx="38.12" ry="11.62"/>
  </g>
  <g id="tree">
    <rect class="cls-56" x="1182.83" y="928.15" width="18.68" height="118.01"/>
    <rect class="cls-69" x="1194.63" y="928.15" width="6.88" height="118.01"/>
    <circle class="cls-64" cx="1225.6" cy="848.01" r="65.4"/>
    <ellipse class="cls-64" cx="1193.15" cy="861.28" rx="52.61" ry="75.72"/>
    <path class="cls-33" d="M1223.01,906.15c-40.06-11.02-64.77-48.18-55.19-83,1.2-4.35,2.87-8.45,4.96-12.28-7.3,10.55-11.59,23.35-11.59,37.15,0,36.12,29.28,65.4,65.4,65.4,8.2,0,16.04-1.52,23.27-4.28-8.72,.44-17.79-.49-26.85-2.98Z"/>
    <circle class="cls-64" cx="1161.04" cy="829.75" r="74.44"/>
    <path class="cls-33" d="M1224.81,867.78c-18.43,23.84-50.35,35.02-80.85,25.62-39.29-12.12-61.31-53.78-49.19-93.07,1.7-5.51,4-10.67,6.78-15.46-5.31,6.87-9.51,14.79-12.22,23.58-12.12,39.29,9.91,80.95,49.19,93.07,33.77,10.42,69.29-4.41,86.29-33.74Z"/>
    <path class="cls-41" d="M1225.6,782.61c-3.17,0-6.29,.24-9.34,.68v12.9c8.84-.63,18.02,.37,27.07,3.23,24.81,7.84,42.34,27.56,47.62,50.19,.01-.53,.04-1.07,.04-1.6,0-36.12-29.28-65.4-65.4-65.4Z"/>
    <circle class="cls-64" cx="1158.22" cy="770.55" r="41.8"/>
    <circle class="cls-64" cx="1240.05" cy="774.97" r="45.01"/>
    <path class="cls-41" d="M1261.77,742.16c9.67,5.59,17.14,13.35,21.98,22.01-4.84-19.64-22.56-34.21-43.7-34.21-8.7,0-16.81,2.47-23.69,6.74,13.77-4.66,30.52-3.14,45.41,5.45Z"/>
    <path class="cls-33" d="M1224.06,812.82c-6.3-.67-12.29-2.11-17.84-4.18,8.52,7.08,19.46,11.34,31.4,11.34,21.88,0,40.41-14.29,46.79-34.05-10.18,18.3-34.01,29.69-60.36,26.89Z"/>
    <ellipse class="cls-64" cx="1191.87" cy="734.34" rx="29.92" ry="28.38"/>
    <path class="cls-41" d="M1220.24,743.35c1-2.83,1.55-5.86,1.55-9.01,0-15.68-13.4-28.38-29.92-28.38-1.57,0-3.11,.12-4.61,.34,18.43,2.42,32.69,18.04,32.98,37.06Z"/>
    <path class="cls-33" d="M1130.35,792.38c-7.64-7.64-12.3-17.02-13.93-26.54-1.66,12.46,2.29,25.53,11.87,35.11,16.32,16.32,42.79,16.32,59.11,0,.93-.93,1.79-1.89,2.61-2.88-16.57,13.67-42.5,11.46-59.66-5.69Z"/>
    <path class="cls-41" d="M1175.15,737.18c14.87,10.53,23.26,26.5,23.91,42.26,.62-2.87,.96-5.84,.96-8.89,0-23.08-18.71-41.8-41.8-41.8-.13,0-.25,0-.38,0,5.98,1.76,11.85,4.55,17.31,8.42Z"/>
    <ellipse class="cls-46" cx="1213.23" cy="1028.95" rx="37.09" ry="30.05"/>
  </g>
  <g id="toje-kust">
    <ellipse class="cls-66" cx="811" cy="1035" rx="53" ry="34"/>
    <ellipse class="cls-66" cx="893" cy="1025.8" rx="64" ry="36"/>
    <path class="cls-41" d="M860.95,1043c0,1.29-.09,2.56-.25,3.82,2.13-3.68,3.3-7.67,3.3-11.82,0-18.78-23.73-34-53-34-1.3,0-2.58,.04-3.86,.1,30.04,1.42,53.81,19.63,53.81,41.9Z"/>
    <path class="cls-41" d="M897.63,997.31c23.7,2.3,44.38,9.72,57.31,19.4-7.16-15.49-32.18-26.92-61.94-26.92-20.11,0-38.05,5.22-49.78,13.38,14.03-5.5,33.36-7.9,54.41-5.86Z"/>
    <ellipse class="cls-66" cx="980" cy="1031.19" rx="36" ry="25.59"/>
    <path class="cls-41" d="M982.61,1010.94c13.33,1.63,24.96,6.91,32.24,13.79-4.03-11.01-18.1-19.14-34.84-19.14-11.31,0-21.4,3.71-28,9.51,7.89-3.91,18.77-5.62,30.61-4.17Z"/>
    <ellipse class="cls-46" cx="838.5" cy="1061.4" rx="69.5" ry="34"/>
    <ellipse class="cls-46" cx="951.5" cy="1063" rx="69.5" ry="34"/>
  </g>
  <g id="ship">
    <g>
      <rect class="cls-24" x="432.04" y="1027.79" width="335.03" height="9.85"/>
      <path class="cls-24" d="M765.14,1029.72v5.99H433.97v-5.99h331.17m3.86-3.86H430.11v13.71h338.89v-13.71h0Z"/>
    </g>
    <g>
      <rect class="cls-24" x="405.93" y="887.18" width="283.43" height="9.31" transform="translate(-455.54 1190) rotate(-75)"/>
      <path class="cls-24" d="M581.38,756.43l4.76,1.27-36.11,134.77-36.11,134.77-4.76-1.27,36.11-134.77,36.11-134.77m-3.1-5.38l-37.25,139.01-37.25,139.01,13.24,3.55,37.25-139.01,37.25-139.01-13.24-3.55h0Z"/>
    </g>
    <g>
      <rect class="cls-24" x="647.61" y="747.37" width="9.31" height="285.81" transform="translate(-208.15 199.1) rotate(-15)"/>
      <path class="cls-24" d="M618.23,753.72l36.42,135.92,36.42,135.92-4.76,1.27-36.42-135.92-36.42-135.92,4.76-1.27m3.1-5.38l-13.24,3.55,37.55,140.16,37.55,140.16,13.24-3.55-37.55-140.16-37.55-140.16h0Z"/>
    </g>
    <path class="cls-48" d="M694.56,971.52c0-11.14,8.9-20.29,20.28-21.35v-.1l13.24-.59,7.04-21.29H469.74c0,35.78,50.67,64.79,88.17,64.79h149l.03-.1c-14.14-7.47-12.38-17.57-12.38-21.35Z"/>
    <line class="cls-17" x1="563.42" y1="781.06" x2="636.07" y2="781.06"/>
    <line class="cls-17" x1="643.54" y1="794.88" x2="555.95" y2="794.66"/>
    <line class="cls-17" x1="479.95" y1="932.42" x2="580.87" y2="751.76"/>
    <line class="cls-17" x1="720.14" y1="932.27" x2="619.22" y2="751.61"/>
    <circle class="cls-2" cx="600.18" cy="738.67" r="24.67"/>
    <rect class="cls-73" x="428" y="928.19" width="61.05" height="3.74"/>
    <circle class="cls-2" cx="718.54" cy="929.3" r="6.09"/>
    <path class="cls-3" d="M470.67,928.8l-.48,6.15c6.01,32.8,52.58,58.34,87.64,58.34h149.22l.03-.1c-5.92-3.16-9.06-6.78-10.7-10.2-35.17-.06-106.59-.31-145.05-1.22-52.33-1.25-80.67-52.97-80.67-52.97Z"/>
    <circle class="cls-55" cx="726.27" cy="946.54" r="3.25"/>
    <path class="cls-3" d="M715.49,949.75h13.45l6.55-21.1-.18-.77-21.07,22.15c.41-.06,.83-.13,1.25-.17v-.1Z"/>
    <path class="cls-73" d="M510.23,936.91v-8.72h-40.74c0,2.96,.34,5.87,.98,8.72h39.76Z"/>
    <path class="cls-3" d="M724.53,949.37c-3.15-1.62-6.81-1.25-10.59-1.25-12.73,0-23.05,10.32-23.05,23.05,0,9.37,5.6,17.41,13.62,21.02-11.05-7.31-9.54-16.32-9.54-19.86,0-11.25,8.19-20.65,19.59-21.71,0,0,8.72-1.25,9.97-1.25Z"/>
    <circle class="cls-2" cx="481.82" cy="929.3" r="6.09"/>
    <path class="cls-3" d="M709.91,948.48s9.04-3.71,13.07-7.64c4.03-3.93-.95,6.04-.95,6.04l-9.59,2.65"/>
    <circle class="cls-55" cx="600.75" cy="738.59" r="16.63"/>
    <circle class="cls-55" cx="481.73" cy="929.54" r="3.85"/>
  </g>
  <g id="koleso">
    <circle class="cls-8" cx="1048.49" cy="627.95" r="262.8"/>
    <polygon class="cls-68" points="1050.39 1023.49 860.63 1023.49 860.63 1046.18 1050.39 1046.18 1240.16 1046.18 1240.16 1023.49 1050.39 1023.49"/>
    <polygon class="cls-68" points="973.32 819.74 902.83 1030.23 922.45 1037.99 992.94 827.5 1063.43 617.02 1043.81 609.26 973.32 819.74"/>
    <polygon class="cls-68" points="1105.84 827.17 1176.22 1037.33 1195.83 1029.57 1125.45 819.41 1055.07 609.26 1035.46 617.02 1105.84 827.17"/>
    <line class="cls-16" x1="1049.44" y1="359.44" x2="1049.44" y2="628.9"/>
    <line class="cls-16" x1="1050.39" y1="629.85" x2="1050.39" y2="899.31"/>
    <line class="cls-16" x1="1319.86" y1="628.65" x2="1050.39" y2="628.65"/>
    <line class="cls-16" x1="1048.97" y1="628.68" x2="779.51" y2="628.68"/>
    <g>
      <line class="cls-16" x1="1239.05" y1="437.03" x2="1048.51" y2="627.57"/>
      <line class="cls-36" x1="1239.05" y1="437.03" x2="1048.51" y2="627.57"/>
    </g>
    <g>
      <line class="cls-16" x1="1048.51" y1="628.91" x2="857.97" y2="819.45"/>
      <line class="cls-36" x1="1048.51" y1="628.91" x2="857.97" y2="819.45"/>
    </g>
    <g>
      <line class="cls-16" x1="1239.05" y1="818.78" x2="1048.51" y2="628.24"/>
      <line class="cls-36" x1="1239.05" y1="818.78" x2="1048.51" y2="628.24"/>
    </g>
    <g>
      <line class="cls-16" x1="1047.17" y1="628.24" x2="856.63" y2="437.7"/>
      <line class="cls-36" x1="1047.17" y1="628.24" x2="856.63" y2="437.7"/>
    </g>
    <circle class="cls-68" cx="1049.44" cy="628.9" r="59.78"/>
    <circle class="cls-8" cx="1050.25" cy="631.64" r="150.01"/>
    <rect class="cls-28" x="1201.5" y="853.63" width="72.35" height="28.77"/>
    <path class="cls-28" d="M1201.5,882.07h72.35v18.26c0,6.62-5.38,12-12,12h-48.35c-6.62,0-12-5.38-12-12v-18.26h0Z"/>
    <path class="cls-50" d="M1220.41,912.34c-5.43,0-9.87-4.44-9.87-9.87v-9.38h-9.04v9.38c0,5.43,4.44,9.87,9.87,9.87h9.04Z"/>
    <rect class="cls-52" x="1201.5" y="863.5" width="72.35" height="34.53"/>
    <path class="cls-26" d="M1249.91,866.08h-42.64c-1.82,0-3.3,1.48-3.3,3.3v22.6c0,1.82,1.48,3.3,3.3,3.3h60.81c1.82,0,3.3-1.48,3.3-3.3v-22.6c0-1.82-1.48-3.3-3.3-3.3h-18.18Z"/>
    <rect class="cls-50" x="1201.5" y="853.63" width="72.35" height="6.58"/>
    <path class="cls-28" d="M1237.68,827.07l-44.06,27.11c-1.27,.78-.72,2.74,.77,2.74h86.57c1.49,0,2.04-1.96,.77-2.74l-44.06-27.11Z"/>
    <polygon class="cls-43" points="1209.15 895.37 1220.75 895.37 1241.09 866.16 1229.48 866.16 1209.15 895.37"/>
    <polygon class="cls-43" points="1241.36 895.47 1248.86 895.47 1269.2 866.27 1261.7 866.27 1241.36 895.47"/>
    <rect class="cls-52" x="1222.88" y="865.14" width="3.29" height="30.42"/>
    <rect class="cls-52" x="1248.36" y="865.96" width="3.29" height="30.42"/>
    <path class="cls-50" d="M1244.59,831.41l-7.05-4.34-44.85,27.6c-1.04,.64-.59,2.25,.64,2.25h9.82l41.45-25.51Z"/>
    <circle class="cls-68" cx="1236.36" cy="816.77" r="18.98"/>
    <circle class="cls-36" cx="1050.23" cy="628.75" r="44.61"/>
    <rect class="cls-28" x="1276.24" y="666.04" width="72.35" height="28.77"/>
    <path class="cls-28" d="M1276.24,694.48h72.35v18.26c0,6.62-5.38,12-12,12h-48.35c-6.62,0-12-5.38-12-12v-18.26h0Z"/>
    <path class="cls-50" d="M1295.15,724.75c-5.43,0-9.87-4.44-9.87-9.87v-9.38h-9.04v9.38c0,5.43,4.44,9.87,9.87,9.87h9.04Z"/>
    <rect class="cls-52" x="1276.24" y="675.91" width="72.35" height="34.53"/>
    <path class="cls-26" d="M1324.65,678.49h-42.64c-1.82,0-3.3,1.48-3.3,3.3v22.6c0,1.82,1.48,3.3,3.3,3.3h60.81c1.82,0,3.3-1.48,3.3-3.3v-22.6c0-1.82-1.48-3.3-3.3-3.3h-18.18Z"/>
    <rect class="cls-50" x="1276.24" y="666.04" width="72.35" height="6.58"/>
    <path class="cls-28" d="M1312.42,639.48l-44.06,27.11c-1.27,.78-.72,2.74,.77,2.74h86.57c1.49,0,2.04-1.96,.77-2.74l-44.06-27.11Z"/>
    <polygon class="cls-43" points="1283.89 707.77 1295.5 707.77 1315.83 678.57 1304.23 678.57 1283.89 707.77"/>
    <polygon class="cls-43" points="1316.11 707.88 1323.6 707.88 1343.94 678.68 1336.44 678.68 1316.11 707.88"/>
    <rect class="cls-52" x="1297.62" y="677.55" width="3.29" height="30.42"/>
    <rect class="cls-52" x="1323.11" y="678.37" width="3.29" height="30.42"/>
    <path class="cls-50" d="M1319.33,643.82l-7.05-4.34-44.85,27.6c-1.04,.64-.59,2.25,.64,2.25h9.82l41.45-25.51Z"/>
    <rect class="cls-28" x="1013.59" y="925.55" width="72.35" height="28.77"/>
    <path class="cls-28" d="M1013.59,953.99h72.35v18.26c0,6.62-5.38,12-12,12h-48.35c-6.62,0-12-5.38-12-12v-18.26h0Z"/>
    <path class="cls-50" d="M1032.5,984.26c-5.43,0-9.87-4.44-9.87-9.87v-9.38h-9.04v9.38c0,5.43,4.44,9.87,9.87,9.87h9.04Z"/>
    <rect class="cls-52" x="1013.59" y="935.42" width="72.35" height="34.53"/>
    <path class="cls-26" d="M1061.99,938h-42.64c-1.82,0-3.3,1.48-3.3,3.3v22.6c0,1.82,1.48,3.3,3.3,3.3h60.81c1.82,0,3.3-1.48,3.3-3.3v-22.6c0-1.82-1.48-3.3-3.3-3.3h-18.18Z"/>
    <rect class="cls-50" x="1013.59" y="925.55" width="72.35" height="6.58"/>
    <path class="cls-28" d="M1049.76,898.99l-44.06,27.11c-1.27,.78-.72,2.74,.77,2.74h86.57c1.49,0,2.04-1.96,.77-2.74l-44.06-27.11Z"/>
    <polygon class="cls-43" points="1021.23 967.28 1032.84 967.28 1053.18 938.08 1041.57 938.08 1021.23 967.28"/>
    <polygon class="cls-43" points="1053.45 967.39 1060.95 967.39 1081.28 938.19 1073.79 938.19 1053.45 967.39"/>
    <rect class="cls-52" x="1034.96" y="937.06" width="3.29" height="30.42"/>
    <rect class="cls-52" x="1060.45" y="937.88" width="3.29" height="30.42"/>
    <path class="cls-50" d="M1056.68,903.33l-7.05-4.34-44.85,27.6c-1.04,.64-.59,2.25,.64,2.25h9.82l41.45-25.51Z"/>
    <rect class="cls-28" x="1013.59" y="405.14" width="72.35" height="28.77"/>
    <path class="cls-28" d="M1013.59,433.58h72.35v18.26c0,6.62-5.38,12-12,12h-48.35c-6.62,0-12-5.38-12-12v-18.26h0Z"/>
    <path class="cls-50" d="M1032.5,463.84c-5.43,0-9.87-4.44-9.87-9.87v-9.38h-9.04v9.38c0,5.43,4.44,9.87,9.87,9.87h9.04Z"/>
    <rect class="cls-52" x="1013.59" y="415.01" width="72.35" height="34.53"/>
    <path class="cls-26" d="M1061.99,417.59h-42.64c-1.82,0-3.3,1.48-3.3,3.3v22.6c0,1.82,1.48,3.3,3.3,3.3h60.81c1.82,0,3.3-1.48,3.3-3.3v-22.6c0-1.82-1.48-3.3-3.3-3.3h-18.18Z"/>
    <rect class="cls-50" x="1013.59" y="405.14" width="72.35" height="6.58"/>
    <path class="cls-28" d="M1049.76,378.58l-44.06,27.11c-1.27,.78-.72,2.74,.77,2.74h86.57c1.49,0,2.04-1.96,.77-2.74l-44.06-27.11Z"/>
    <polygon class="cls-43" points="1021.23 446.87 1032.84 446.87 1053.18 417.67 1041.57 417.67 1021.23 446.87"/>
    <polygon class="cls-43" points="1053.45 446.98 1060.95 446.98 1081.28 417.78 1073.79 417.78 1053.45 446.98"/>
    <rect class="cls-52" x="1034.96" y="416.65" width="3.29" height="30.42"/>
    <rect class="cls-52" x="1060.45" y="417.47" width="3.29" height="30.42"/>
    <path class="cls-50" d="M1056.68,382.92l-7.05-4.34-44.85,27.6c-1.04,.64-.59,2.25,.64,2.25h9.82l41.45-25.51Z"/>
    <rect class="cls-28" x="828.61" y="851.56" width="72.35" height="28.77"/>
    <path class="cls-28" d="M828.61,880h72.35v18.26c0,6.62-5.38,12-12,12h-48.35c-6.62,0-12-5.38-12-12v-18.26h0Z"/>
    <path class="cls-50" d="M847.52,910.26c-5.43,0-9.87-4.44-9.87-9.87v-9.38h-9.04v9.38c0,5.43,4.44,9.87,9.87,9.87h9.04Z"/>
    <rect class="cls-52" x="828.61" y="861.43" width="72.35" height="34.53"/>
    <path class="cls-26" d="M877.01,864.01h-42.64c-1.82,0-3.3,1.48-3.3,3.3v22.6c0,1.82,1.48,3.3,3.3,3.3h60.81c1.82,0,3.3-1.48,3.3-3.3v-22.6c0-1.82-1.48-3.3-3.3-3.3h-18.18Z"/>
    <rect class="cls-50" x="828.61" y="851.56" width="72.35" height="6.58"/>
    <path class="cls-28" d="M864.78,825l-44.06,27.11c-1.27,.78-.72,2.74,.77,2.74h86.57c1.49,0,2.04-1.96,.77-2.74l-44.06-27.11Z"/>
    <polygon class="cls-43" points="836.25 893.29 847.86 893.29 868.2 864.09 856.59 864.09 836.25 893.29"/>
    <polygon class="cls-43" points="868.47 893.4 875.97 893.4 896.3 864.2 888.81 864.2 868.47 893.4"/>
    <rect class="cls-52" x="849.98" y="863.07" width="3.29" height="30.42"/>
    <rect class="cls-52" x="875.47" y="863.89" width="3.29" height="30.42"/>
    <path class="cls-50" d="M871.69,829.34l-7.05-4.34-44.85,27.6c-1.04,.64-.59,2.25,.64,2.25h9.82l41.45-25.51Z"/>
    <rect class="cls-28" x="749.68" y="668.22" width="72.35" height="28.77"/>
    <path class="cls-28" d="M749.68,696.67h72.35v18.26c0,6.62-5.38,12-12,12h-48.35c-6.62,0-12-5.38-12-12v-18.26h0Z"/>
    <path class="cls-50" d="M768.59,726.93c-5.43,0-9.87-4.44-9.87-9.87v-9.38h-9.04v9.38c0,5.43,4.44,9.87,9.87,9.87h9.04Z"/>
    <rect class="cls-52" x="749.68" y="678.09" width="72.35" height="34.53"/>
    <path class="cls-26" d="M798.09,680.67h-42.64c-1.82,0-3.3,1.48-3.3,3.3v22.6c0,1.82,1.48,3.3,3.3,3.3h60.81c1.82,0,3.3-1.48,3.3-3.3v-22.6c0-1.82-1.48-3.3-3.3-3.3h-18.18Z"/>
    <rect class="cls-50" x="749.68" y="668.22" width="72.35" height="6.58"/>
    <path class="cls-28" d="M785.86,641.66l-44.06,27.11c-1.27,.78-.72,2.74,.77,2.74h86.57c1.49,0,2.04-1.96,.77-2.74l-44.06-27.11Z"/>
    <polygon class="cls-43" points="757.33 709.96 768.94 709.96 789.27 680.75 777.67 680.75 757.33 709.96"/>
    <polygon class="cls-43" points="789.55 710.06 797.04 710.06 817.38 680.86 809.88 680.86 789.55 710.06"/>
    <rect class="cls-52" x="771.06" y="679.73" width="3.29" height="30.42"/>
    <rect class="cls-52" x="796.55" y="680.56" width="3.29" height="30.42"/>
    <path class="cls-50" d="M792.77,646l-7.05-4.34-44.85,27.6c-1.04,.64-.59,2.25,.64,2.25h9.82l41.45-25.51Z"/>
    <rect class="cls-28" x="826.14" y="480.78" width="72.35" height="28.77"/>
    <path class="cls-28" d="M826.14,509.22h72.35v18.26c0,6.62-5.38,12-12,12h-48.35c-6.62,0-12-5.38-12-12v-18.26h0Z"/>
    <path class="cls-50" d="M845.05,539.48c-5.43,0-9.87-4.44-9.87-9.87v-9.38h-9.04v9.38c0,5.43,4.44,9.87,9.87,9.87h9.04Z"/>
    <rect class="cls-52" x="826.14" y="490.64" width="72.35" height="34.53"/>
    <path class="cls-26" d="M874.55,493.23h-42.64c-1.82,0-3.3,1.48-3.3,3.3v22.6c0,1.82,1.48,3.3,3.3,3.3h60.81c1.82,0,3.3-1.48,3.3-3.3v-22.6c0-1.82-1.48-3.3-3.3-3.3h-18.18Z"/>
    <rect class="cls-50" x="826.14" y="480.78" width="72.35" height="6.58"/>
    <path class="cls-28" d="M862.32,454.21l-44.06,27.11c-1.27,.78-.72,2.74,.77,2.74h86.57c1.49,0,2.04-1.96,.77-2.74l-44.06-27.11Z"/>
    <polygon class="cls-43" points="833.79 522.51 845.39 522.51 865.73 493.3 854.13 493.3 833.79 522.51"/>
    <polygon class="cls-43" points="866 522.62 873.5 522.62 893.84 493.41 886.34 493.41 866 522.62"/>
    <rect class="cls-52" x="847.52" y="492.29" width="3.29" height="30.42"/>
    <rect class="cls-52" x="873" y="493.11" width="3.29" height="30.42"/>
    <circle class="cls-68" cx="1312.26" cy="627.95" r="18.98"/>
    <path class="cls-50" d="M869.23,458.56l-7.05-4.34-44.85,27.6c-1.04,.64-.59,2.25,.64,2.25h9.82l41.45-25.51Z"/>
    <rect class="cls-28" x="1197.75" y="480.78" width="72.35" height="28.77"/>
    <path class="cls-28" d="M1197.75,509.22h72.35v18.26c0,6.62-5.38,12-12,12h-48.35c-6.62,0-12-5.38-12-12v-18.26h0Z"/>
    <path class="cls-50" d="M1216.66,539.48c-5.43,0-9.87-4.44-9.87-9.87v-9.38h-9.04v9.38c0,5.43,4.44,9.87,9.87,9.87h9.04Z"/>
    <rect class="cls-52" x="1197.75" y="490.64" width="72.35" height="34.53"/>
    <path class="cls-26" d="M1246.15,493.23h-42.64c-1.82,0-3.3,1.48-3.3,3.3v22.6c0,1.82,1.48,3.3,3.3,3.3h60.81c1.82,0,3.3-1.48,3.3-3.3v-22.6c0-1.82-1.48-3.3-3.3-3.3h-18.18Z"/>
    <rect class="cls-50" x="1197.75" y="480.78" width="72.35" height="6.58"/>
    <path class="cls-28" d="M1233.92,454.21l-44.06,27.11c-1.27,.78-.72,2.74,.77,2.74h86.57c1.49,0,2.04-1.96,.77-2.74l-44.06-27.11Z"/>
    <polygon class="cls-43" points="1205.39 522.51 1217 522.51 1237.34 493.3 1225.73 493.3 1205.39 522.51"/>
    <polygon class="cls-43" points="1237.61 522.62 1245.11 522.62 1265.44 493.41 1257.95 493.41 1237.61 522.62"/>
    <rect class="cls-52" x="1219.12" y="492.29" width="3.29" height="30.42"/>
    <rect class="cls-52" x="1244.61" y="493.11" width="3.29" height="30.42"/>
    <path class="cls-50" d="M1240.83,458.56l-7.05-4.34-44.85,27.6c-1.04,.64-.59,2.25,.64,2.25h9.82l41.45-25.51Z"/>
    <circle class="cls-68" cx="1233.68" cy="443.74" r="18.98"/>
    <circle class="cls-68" cx="1050.39" cy="367.98" r="18.98"/>
    <circle class="cls-68" cx="1050.39" cy="889.82" r="18.98"/>
    <circle class="cls-68" cx="786.62" cy="629.85" r="18.98"/>
    <circle class="cls-68" cx="864.68" cy="812.74" r="18.98"/>
    <ellipse class="cls-68" cx="862" cy="442.19" rx="18.98" ry="19.18"/>
  </g>
  <g id="kust">
    <ellipse class="cls-66" cx="602.5" cy="1035" rx="69.5" ry="34"/>
    <ellipse class="cls-66" cx="650" cy="1024.2" rx="64" ry="36"/>
    <path class="cls-41" d="M654.63,995.71c23.7,2.3,44.38,9.72,57.31,19.4-7.16-15.49-32.18-26.92-61.94-26.92-20.11,0-38.05,5.22-49.78,13.38,14.03-5.5,33.36-7.9,54.41-5.86Z"/>
    <ellipse class="cls-66" cx="740" cy="1034.39" rx="36" ry="25.59"/>
    <path class="cls-41" d="M742.61,1014.14c13.33,1.63,24.96,6.91,32.24,13.79-4.03-11.01-18.1-19.14-34.84-19.14-11.31,0-21.4,3.71-28,9.51,7.89-3.91,18.77-5.62,30.61-4.17Z"/>
    <ellipse class="cls-46" cx="595.5" cy="1059.8" rx="69.5" ry="34"/>
    <path class="cls-41" d="M668,1043c0,1.29-.12,2.56-.33,3.82,2.79-3.68,4.33-7.67,4.33-11.82,0-18.78-31.12-34-69.5-34-1.7,0-3.39,.04-5.06,.1,39.39,1.42,70.56,19.63,70.56,41.9Z"/>
    <ellipse class="cls-46" cx="708.5" cy="1061.4" rx="69.5" ry="34"/>
  </g>
  <g id="karusel">
    <g>
      <rect class="cls-24" x="1329.94" y="1031.12" width="164.38" height="1.35"/>
      <polygon class="cls-24" points="1497.9 1027.54 1412.13 1027.54 1326.37 1027.54 1326.37 1036.04 1412.13 1036.04 1497.9 1036.04 1497.9 1027.54 1497.9 1027.54"/>
    </g>
    <path class="cls-32" d="M1413.12,809s-37.77,67.24-108.95,101.22h217.89c-71.18-33.98-108.95-101.22-108.95-101.22Z"/>
    <line class="cls-11" x1="1412.13" y1="918.6" x2="1412.13" y2="1031.41"/>
    <line class="cls-20" x1="1503.62" y1="925.01" x2="1523.3" y2="998.93"/>
    <line class="cls-20" x1="1502.67" y1="925.31" x2="1506.56" y2="1001.7"/>
    <rect class="cls-54" x="1503.3" y="998.89" width="23.57" height="4.25" rx="2" ry="2" transform="translate(-136.73 246.68) rotate(-8.91)"/>
    <line class="cls-19" x1="1321.79" y1="925.29" x2="1302.11" y2="999.21"/>
    <line class="cls-19" x1="1322.73" y1="925.59" x2="1318.85" y2="1001.98"/>
    <rect class="cls-77" x="1298.54" y="999.17" width="23.57" height="4.25" rx="2" ry="2" transform="translate(2449.8 2193.41) rotate(-171.09)"/>
    <line class="cls-20" x1="1364.61" y1="925.17" x2="1348.93" y2="1007.95"/>
    <line class="cls-20" x1="1364.61" y1="924.78" x2="1365.81" y2="1009.66"/>
    <rect class="cls-54" x="1345.48" y="1007.38" width="23.57" height="4.25" rx="2" ry="2" transform="translate(2615.79 2139.71) rotate(-174.72)"/>
    <line class="cls-22" x1="1461.06" y1="925.4" x2="1476.75" y2="1008.18"/>
    <line class="cls-22" x1="1461.06" y1="925.02" x2="1459.87" y2="1009.89"/>
    <rect class="cls-40" x="1456.63" y="1007.62" width="23.57" height="4.25" rx="2" ry="2" transform="translate(-86.74 139.51) rotate(-5.28)"/>
    <line class="cls-22" x1="1392.43" y1="925.94" x2="1379.04" y2="984.78"/>
    <line class="cls-22" x1="1392.43" y1="922.85" x2="1395.93" y2="986.49"/>
    <rect class="cls-40" x="1375.59" y="984.22" width="23.57" height="4.25" rx="2" ry="2" transform="translate(2678.03 2096.25) rotate(-174.72)"/>
    <line class="cls-19" x1="1433.32" y1="926.94" x2="1446.7" y2="985.77"/>
    <line class="cls-19" x1="1433.32" y1="923.84" x2="1429.82" y2="987.48"/>
    <g>
      <path class="cls-32" d="M1322.5,926.87c-2.86,0-5.18-2.32-5.18-5.18s2.32-5.18,5.18-5.18,5.18,2.32,5.18,5.18-2.32,5.18-5.18,5.18Z"/>
      <path class="cls-32" d="M1322.5,918.29c1.88,0,3.4,1.53,3.4,3.4s-1.53,3.4-3.4,3.4-3.4-1.53-3.4-3.4,1.53-3.4,3.4-3.4m0-3.55c-3.84,0-6.95,3.11-6.95,6.95s3.11,6.95,6.95,6.95,6.95-3.11,6.95-6.95-3.11-6.95-6.95-6.95h0Z"/>
    </g>
    <line class="cls-4" x1="1415.26" y1="918.19" x2="1415.26" y2="1034.02"/>
    <g>
      <circle class="cls-32" cx="1336.41" cy="921.69" r="5.18"/>
      <path class="cls-32" d="M1336.41,918.29c1.88,0,3.4,1.53,3.4,3.4s-1.53,3.4-3.4,3.4-3.4-1.53-3.4-3.4,1.53-3.4,3.4-3.4m0-3.55c-3.84,0-6.95,3.11-6.95,6.95s3.11,6.95,6.95,6.95,6.95-3.11,6.95-6.95-3.11-6.95-6.95-6.95h0Z"/>
    </g>
    <g>
      <circle class="cls-32" cx="1350.32" cy="921.69" r="5.18"/>
      <path class="cls-32" d="M1350.32,918.29c1.88,0,3.4,1.53,3.4,3.4s-1.53,3.4-3.4,3.4-3.4-1.53-3.4-3.4,1.53-3.4,3.4-3.4m0-3.55c-3.84,0-6.95,3.11-6.95,6.95s3.11,6.95,6.95,6.95,6.95-3.11,6.95-6.95-3.11-6.95-6.95-6.95h0Z"/>
    </g>
    <g>
      <path class="cls-32" d="M1364.23,926.87c-2.86,0-5.18-2.32-5.18-5.18s2.32-5.18,5.18-5.18,5.18,2.32,5.18,5.18-2.32,5.18-5.18,5.18Z"/>
      <path class="cls-32" d="M1364.23,918.29c1.88,0,3.4,1.53,3.4,3.4s-1.53,3.4-3.4,3.4-3.4-1.53-3.4-3.4,1.53-3.4,3.4-3.4m0-3.55c-3.84,0-6.95,3.11-6.95,6.95s3.11,6.95,6.95,6.95,6.95-3.11,6.95-6.95-3.11-6.95-6.95-6.95h0Z"/>
    </g>
    <g>
      <circle class="cls-32" cx="1378.13" cy="921.69" r="5.18"/>
      <path class="cls-32" d="M1378.13,918.29c1.88,0,3.4,1.53,3.4,3.4s-1.53,3.4-3.4,3.4-3.4-1.53-3.4-3.4,1.53-3.4,3.4-3.4m0-3.55c-3.84,0-6.95,3.11-6.95,6.95s3.11,6.95,6.95,6.95,6.95-3.11,6.95-6.95-3.11-6.95-6.95-6.95h0Z"/>
    </g>
    <g>
      <circle class="cls-32" cx="1392.04" cy="921.69" r="5.18"/>
      <path class="cls-32" d="M1392.04,918.29c1.88,0,3.4,1.53,3.4,3.4s-1.53,3.4-3.4,3.4-3.4-1.53-3.4-3.4,1.53-3.4,3.4-3.4m0-3.55c-3.84,0-6.95,3.11-6.95,6.95s3.11,6.95,6.95,6.95,6.95-3.11,6.95-6.95-3.11-6.95-6.95-6.95h0Z"/>
    </g>
    <g>
      <circle class="cls-32" cx="1405.95" cy="921.69" r="5.18"/>
      <path class="cls-32" d="M1405.95,918.29c1.88,0,3.4,1.53,3.4,3.4s-1.53,3.4-3.4,3.4-3.4-1.53-3.4-3.4,1.53-3.4,3.4-3.4m0-3.55c-3.84,0-6.95,3.11-6.95,6.95s3.11,6.95,6.95,6.95,6.95-3.11,6.95-6.95-3.11-6.95-6.95-6.95h0Z"/>
    </g>
    <g>
      <path class="cls-32" d="M1419.86,926.87c-2.86,0-5.18-2.32-5.18-5.18s2.32-5.18,5.18-5.18,5.18,2.32,5.18,5.18-2.32,5.18-5.18,5.18Z"/>
      <path class="cls-32" d="M1419.86,918.29c1.88,0,3.4,1.53,3.4,3.4s-1.53,3.4-3.4,3.4-3.4-1.53-3.4-3.4,1.53-3.4,3.4-3.4m0-3.55c-3.84,0-6.95,3.11-6.95,6.95s3.11,6.95,6.95,6.95,6.95-3.11,6.95-6.95-3.11-6.95-6.95-6.95h0Z"/>
    </g>
    <g>
      <circle class="cls-32" cx="1433.77" cy="921.69" r="5.18"/>
      <path class="cls-32" d="M1433.77,918.29c1.88,0,3.4,1.53,3.4,3.4s-1.53,3.4-3.4,3.4-3.4-1.53-3.4-3.4,1.53-3.4,3.4-3.4m0-3.55c-3.84,0-6.95,3.11-6.95,6.95s3.11,6.95,6.95,6.95,6.95-3.11,6.95-6.95-3.11-6.95-6.95-6.95h0Z"/>
    </g>
    <g>
      <circle class="cls-32" cx="1447.67" cy="921.69" r="5.18"/>
      <path class="cls-32" d="M1447.67,918.29c1.88,0,3.4,1.53,3.4,3.4s-1.53,3.4-3.4,3.4-3.4-1.53-3.4-3.4,1.53-3.4,3.4-3.4m0-3.55c-3.84,0-6.95,3.11-6.95,6.95s3.11,6.95,6.95,6.95,6.95-3.11,6.95-6.95-3.11-6.95-6.95-6.95h0Z"/>
    </g>
    <g>
      <path class="cls-32" d="M1461.58,926.87c-2.86,0-5.18-2.32-5.18-5.18s2.32-5.18,5.18-5.18,5.18,2.32,5.18,5.18-2.32,5.18-5.18,5.18Z"/>
      <path class="cls-32" d="M1461.58,918.29c1.88,0,3.4,1.53,3.4,3.4s-1.53,3.4-3.4,3.4-3.4-1.53-3.4-3.4,1.53-3.4,3.4-3.4m0-3.55c-3.84,0-6.95,3.11-6.95,6.95s3.11,6.95,6.95,6.95,6.95-3.11,6.95-6.95-3.11-6.95-6.95-6.95h0Z"/>
    </g>
    <g>
      <circle class="cls-32" cx="1475.49" cy="921.69" r="5.18"/>
      <path class="cls-32" d="M1475.49,918.29c1.88,0,3.4,1.53,3.4,3.4s-1.53,3.4-3.4,3.4-3.4-1.53-3.4-3.4,1.53-3.4,3.4-3.4m0-3.55c-3.84,0-6.95,3.11-6.95,6.95s3.11,6.95,6.95,6.95,6.95-3.11,6.95-6.95-3.11-6.95-6.95-6.95h0Z"/>
    </g>
    <g>
      <circle class="cls-32" cx="1489.4" cy="921.69" r="5.18"/>
      <path class="cls-32" d="M1489.4,918.29c1.88,0,3.4,1.53,3.4,3.4s-1.53,3.4-3.4,3.4-3.4-1.53-3.4-3.4,1.53-3.4,3.4-3.4m0-3.55c-3.84,0-6.95,3.11-6.95,6.95s3.11,6.95,6.95,6.95,6.95-3.11,6.95-6.95-3.11-6.95-6.95-6.95h0Z"/>
    </g>
    <g>
      <path class="cls-32" d="M1503.31,926.87c-2.86,0-5.18-2.32-5.18-5.18s2.32-5.18,5.18-5.18,5.18,2.32,5.18,5.18-2.32,5.18-5.18,5.18Z"/>
      <path class="cls-32" d="M1503.31,918.29c1.88,0,3.4,1.53,3.4,3.4s-1.53,3.4-3.4,3.4-3.4-1.53-3.4-3.4,1.53-3.4,3.4-3.4m0-3.55c-3.84,0-6.95,3.11-6.95,6.95s3.11,6.95,6.95,6.95,6.95-3.11,6.95-6.95-3.11-6.95-6.95-6.95h0Z"/>
    </g>
    <g>
      <circle class="cls-32" cx="1517.21" cy="921.69" r="5.18"/>
      <path class="cls-32" d="M1517.21,918.29c1.88,0,3.4,1.53,3.4,3.4s-1.53,3.4-3.4,3.4-3.4-1.53-3.4-3.4,1.53-3.4,3.4-3.4m0-3.55c-3.84,0-6.95,3.11-6.95,6.95s3.11,6.95,6.95,6.95,6.95-3.11,6.95-6.95-3.11-6.95-6.95-6.95h0Z"/>
    </g>
    <g>
      <path class="cls-24" d="M1300.1,911.57h224.06c2.23,0,4.05,1.81,4.05,4.05v.33c0,2.23-1.81,4.05-4.05,4.05h-224.06c-2.23,0-4.05-1.81-4.05-4.05v-.33c0-2.23,1.81-4.05,4.05-4.05Z"/>
      <path class="cls-24" d="M1524.16,912.93c1.48,0,2.68,1.2,2.68,2.68v.33c0,1.48-1.2,2.68-2.68,2.68h-224.06c-1.48,0-2.68-1.2-2.68-2.68v-.33c0-1.48,1.2-2.68,2.68-2.68h224.06m0-2.73h-224.06c-2.98,0-5.41,2.44-5.41,5.41v.33c0,2.98,2.44,5.41,5.41,5.41h224.06c2.98,0,5.41-2.44,5.41-5.41v-.33c0-2.98-2.44-5.41-5.41-5.41h0Z"/>
    </g>
    <rect class="cls-77" x="1426.59" y="985.21" width="23.57" height="4.25" rx="2" ry="2" transform="translate(-84.81 136.65) rotate(-5.28)"/>
    <path class="cls-53" d="M1405.15,839.67s3.84,42.76,35.35,64.38h-35.35s-59.12,0-59.12,0c31.51-21.61,59.12-64.38,59.12-64.38Z"/>
    <g>
      <path class="cls-5" d="M1300.42,920.34c-.93,0-1.8-.3-2.49-.82,.78,.3,1.62,.47,2.49,.47h223.73c.87,0,1.71-.17,2.49-.47-.7,.51-1.56,.82-2.49,.82h-223.73Z"/>
      <path class="cls-38" d="M1529.51,914.58c-.67,2.33-2.82,4.04-5.36,4.04h-223.73c-2.53,0-4.68-1.71-5.36-4.04-.14,.49-.22,1.01-.22,1.54,0,3.07,2.51,5.58,5.58,5.58h223.73c3.07,0,5.58-2.51,5.58-5.58,0-.53-.08-1.05-.22-1.54h0Z"/>
    </g>
    <g>
      <rect class="cls-24" x="1415.86" y="1030.38" width="78.61" height="1.35"/>
      <polygon class="cls-24" points="1498.05 1026.8 1455.17 1026.8 1412.29 1026.8 1412.29 1035.3 1455.17 1035.3 1498.05 1035.3 1498.05 1026.8 1498.05 1026.8"/>
    </g>
  </g>
  <g id="shar">
    <line class="cls-10" x1="136.26" y1="376.47" x2="153.65" y2="414.37"/>
    <line class="cls-12" x1="196.41" y1="377.88" x2="179.02" y2="415.78"/>
    <path class="cls-45" d="M168.16,413.06h-15.9c-1.4,0-2.49,1.22-2.32,2.62l2.3,19.25c.27,2.29,2.21,4.01,4.52,4.01h20.51c2.3,0,4.24-1.72,4.52-4.01l2.3-19.25c.17-1.39-.92-2.62-2.32-2.62h-13.59Z"/>
    <path class="cls-45" d="M167,371h37.36c21.3-16.85,35.57-46.6,35.57-75.51,0-43.75-32.65-69.03-72.93-69.03"/>
    <path class="cls-58" d="M167,226.46c-40.28,0-72.93,25.28-72.93,69.03,0,28.92,14.27,58.66,35.57,75.51h37.36"/>
    <rect class="cls-45" x="124.13" y="371" width="84.69" height="11.06" rx="5.53" ry="5.53"/>
    <rect class="cls-35" x="152.36" y="382.06" width="29.02" height="7.3" rx="3.65" ry="3.65"/>
    <path class="cls-67" d="M166,370.81h30.19c17.3-16.85,28.89-46.6,28.89-75.51,0-43.75-26.52-69.03-59.24-69.03"/>
    <path class="cls-37" d="M165.84,226.27c-32.72,0-59.24,25.28-59.24,69.03,0,28.92,11.59,58.66,28.89,75.51h30.51"/>
    <path class="cls-32" d="M166,370.81h20.75c11.9-16.85,19.87-46.6,19.87-75.51,0-43.75-18.24-69.03-40.74-69.03"/>
    <path class="cls-70" d="M165.88,226.27c-22.5,0-40.74,25.28-40.74,69.03,0,28.92,7.97,58.66,19.87,75.51h20.99"/>
    <path class="cls-45" d="M156.36,371h19.04c5.43-16.85,9.06-46.6,9.06-75.51,0-43.75-8.32-69.03-18.58-69.03s-18.58,25.28-18.58,69.03c0,28.92,3.64,58.66,9.06,75.51Z"/>
    <path class="cls-58" d="M164.74,226.51c-9.94,1.12-17.89,26.22-17.89,68.97,0,28.92,3.64,58.66,9.06,75.51h7c-5.43-17.49-9.06-48.36-9.06-78.37,0-33.26,4.47-56.21,10.89-66.12Z"/>
    <path class="cls-58" d="M129.5,371h33.5v11h-33.5c-3.04,0-5.5-2.46-5.5-5.5h0c0-3.04,2.46-5.5,5.5-5.5Z"/>
    <rect class="cls-24" x="41" y="513" width="29" height="19"/>
    <path class="cls-60" d="M160.41,425.52c0-4.88,2-9.29,5.22-12.46h-13.97c-1.4,0-2.49,1.22-2.32,2.62l2.3,19.25c.27,2.29,2.21,4.01,4.52,4.01h10.53c-3.83-3.21-6.27-8.03-6.27-13.42Z"/>
  </g>
  <g id="larek">
    <rect class="cls-27" x="213.65" y="964.3" width="150.75" height="53.63"/>
    <rect class="cls-72" x="227.74" y="964.3" width="122.56" height="53.63"/>
    <rect class="cls-27" x="241.76" y="964.3" width="94.52" height="53.63"/>
    <rect class="cls-72" x="254.7" y="964.3" width="68.64" height="53.63"/>
    <rect class="cls-27" x="269.8" y="964.3" width="38.45" height="53.63"/>
    <rect class="cls-72" x="281.66" y="964.3" width="14.72" height="53.63"/>
    <rect class="cls-56" x="213.61" y="1005.35" width="150.63" height="13.24"/>
    <rect class="cls-56" x="213.61" y="962.31" width="150.63" height="8.28"/>
    <polygon class="cls-31" points="354 991 214 991 214 971 346 971 354 991"/>
    <circle class="cls-7" cx="245.64" cy="1016.03" r="19.55"/>
    <line class="cls-15" x1="245.76" y1="997.44" x2="245.76" y2="1034.62"/>
    <line class="cls-15" x1="227.06" y1="1016.15" x2="264.23" y2="1016.15"/>
    <line class="cls-15" x1="236.34" y1="999.71" x2="254.93" y2="1031.91"/>
    <line class="cls-15" x1="229.49" y1="1025.27" x2="261.69" y2="1006.68"/>
    <line class="cls-15" x1="261.95" y1="1025.38" x2="229.75" y2="1006.8"/>
    <line class="cls-15" x1="236.39" y1="1032.23" x2="254.98" y2="1000.04"/>
    <circle class="cls-7" cx="245.64" cy="1016.03" r="18.59"/>
    <circle class="cls-14" cx="245.64" cy="1016.03" r="7.8"/>
    <circle class="cls-36" cx="245.64" cy="1016.03" r="3"/>
    <circle class="cls-7" cx="331.85" cy="1016.03" r="19.55"/>
    <line class="cls-15" x1="331.97" y1="997.44" x2="331.97" y2="1034.62"/>
    <line class="cls-15" x1="313.26" y1="1016.15" x2="350.44" y2="1016.15"/>
    <line class="cls-15" x1="322.55" y1="999.71" x2="341.13" y2="1031.91"/>
    <line class="cls-15" x1="315.7" y1="1025.27" x2="347.89" y2="1006.68"/>
    <line class="cls-15" x1="348.16" y1="1025.38" x2="315.96" y2="1006.8"/>
    <line class="cls-15" x1="322.6" y1="1032.23" x2="341.19" y2="1000.04"/>
    <circle class="cls-7" cx="331.85" cy="1016.03" r="18.59"/>
    <circle class="cls-14" cx="331.85" cy="1016.03" r="7.8"/>
    <circle class="cls-36" cx="331.85" cy="1016.03" r="3"/>
    <line class="cls-9" x1="221.99" y1="962.65" x2="221.99" y2="911.02"/>
    <line class="cls-9" x1="356.48" y1="962.55" x2="356.48" y2="910.93"/>
    <polygon class="cls-27" points="379.72 911.02 198.28 911.02 219.83 881.2 358.17 881.2 379.72 911.02"/>
    <polygon class="cls-72" points="364.51 911.2 213.65 911.2 231.57 881.37 346.59 881.37 364.51 911.2"/>
    <polygon class="cls-27" points="346.19 911.2 231.97 911.2 245.53 881.37 332.62 881.37 346.19 911.2"/>
    <polygon class="cls-72" points="326.79 911.37 251.36 911.37 260.32 881.2 317.83 881.2 326.79 911.37"/>
    <polygon class="cls-27" points="310.63 911.37 267.62 911.37 272.73 881.2 305.52 881.2 310.63 911.37"/>
    <polygon class="cls-72" points="297.7 911.37 281.96 911.37 283.83 881.2 295.83 881.2 297.7 911.37"/>
    <rect class="cls-56" x="220" y="870.42" width="139.12" height="10.78"/>
    <polygon class="cls-31" points="359 881 220 881 212 892 346 892 359 881"/>
  </g>
  <g id="sky2">
    <rect class="cls-24" x="1383.48" y="323.55" width="246" height="37.61" rx="18.8" ry="18.8"/>
    <ellipse class="cls-24" cx="1524.18" cy="300.98" rx="45.7" ry="45.96"/>
    <circle class="cls-24" cx="1586.21" cy="321.99" r="30.29"/>
    <circle class="cls-24" cx="1423.85" cy="321.77" r="20.1"/>
    <circle class="cls-24" cx="1460.24" cy="315.28" r="36.01"/>
  </g>
  <g id="ground">
    <rect class="cls-57" y="1037" width="1924" height="828"/>
    <rect class="cls-65" y="1086" width="1924" height="779"/>
    <rect class="cls-44" x="1" y="1189" width="1924" height="667"/>
    <rect class="cls-25" x="1" y="1291" width="1924" height="573"/>
    <rect class="cls-34" x="1" y="1414" width="1924" height="451"/>
  </g>
</svg>