<?xml version="1.0" encoding="utf-8"?>
<!-- Generator: Adobe Illustrator 26.3.1, SVG Export Plug-In . SVG Version: 6.00 Build 0)  -->
<svg version="1.1" id="Слой_1" xmlns="http://www.w3.org/2000/svg" xmlns:xlink="http://www.w3.org/1999/xlink" x="0px" y="0px"
	 viewBox="0 0 407.5 280" style="enable-background:new 0 0 407.5 280;" xml:space="preserve">
<style type="text/css">
	.st0{fill:#63B2BA;}
	.st1{fill:#6CC4D2;}
	.st2{fill:#FFFFFF;}
	.st3{fill:#E7E8E6;}
</style>
<g>
	<path class="st0" d="M215,267.05H24.47c0,0,157.37-266.97,190.33-266.96"/>
</g>
<g>
	<path class="st1" d="M214.8,0.08c28.47,0,190.72,266.96,190.72,266.96H208.49"/>
</g>
<g>
	<path class="st2" d="M214.8,0.08c7.16,0,22.8,16.9,42.18,42.2c-10.35,7.76-26.63,12.79-43.5,12.79"/>
</g>
<g>
	<path class="st3" d="M213.48,55.07c-17.38,0-31.79-5.33-42.15-13.5c19.31-24.9,35.26-41.49,43.47-41.49"/>
</g>
<g>
	<path class="st1" d="M149.53,280.01h153.02c0,0-119.14-89.92-151.21-90.35"/>
</g>
<g>
	<path class="st0" d="M151.34,189.66c-31.75-0.42-151.52,90.35-151.52,90.35h149.71"/>
</g>
<path class="st2" d="M150.62,223.02c19.67,0,35.22-7.27,40.97-17.41c-17.13-9.79-31.94-16.56-40.53-16.68"/>
<path class="st3" d="M151.06,188.94c-8.92-0.12-24.3,7.24-42.5,17.77c6.28,9.58,23.08,16.32,42.06,16.32"/>
</svg>
