<?xml version="1.0" encoding="utf-8"?>
<!-- Generator: Adobe Illustrator 26.3.1, SVG Export Plug-In . SVG Version: 6.00 Build 0)  -->
<svg version="1.1" id="Слой_1" xmlns="http://www.w3.org/2000/svg" xmlns:xlink="http://www.w3.org/1999/xlink" x="0px" y="0px"
	 viewBox="0 0 148 134" style="enable-background:new 0 0 148 134;" xml:space="preserve">
<style type="text/css">
	.st0{fill:#FECE60;}
	.st1{fill:#FFFBFF;}
	.st2{fill:#6F3921;}
	.st3{fill:none;stroke:#A1A3A0;stroke-miterlimit:10;}
	.st4{fill:none;stroke:#7A7A7A;stroke-width:2;stroke-miterlimit:10;}
	.st5{fill:#A1A3A0;stroke:#A1A3A0;stroke-miterlimit:10;}
	.st6{fill:#A1A3A0;}
	.st7{fill:none;stroke:#6F3921;stroke-width:4;stroke-miterlimit:10;}
</style>
<rect x="12.94" y="76.44" class="st0" width="121.72" height="43.3"/>
<rect x="24.32" y="76.44" class="st1" width="98.96" height="43.3"/>
<rect x="35.64" y="76.44" class="st0" width="76.32" height="43.3"/>
<rect x="46.09" y="76.44" class="st1" width="55.43" height="43.3"/>
<rect x="58.28" y="76.44" class="st0" width="31.04" height="43.3"/>
<rect x="67.86" y="76.44" class="st1" width="11.89" height="43.3"/>
<rect x="12.91" y="109.58" class="st2" width="121.63" height="10.69"/>
<rect x="12.91" y="74.83" class="st2" width="121.63" height="6.68"/>
<circle class="st3" cx="38.78" cy="118.21" r="15.78"/>
<line class="st4" x1="38.87" y1="103.2" x2="38.87" y2="133.22"/>
<line class="st4" x1="23.77" y1="118.3" x2="53.78" y2="118.3"/>
<line class="st4" x1="31.26" y1="105.03" x2="46.27" y2="131.03"/>
<line class="st4" x1="25.73" y1="125.67" x2="51.73" y2="110.66"/>
<line class="st4" x1="51.94" y1="125.76" x2="25.94" y2="110.75"/>
<line class="st4" x1="31.31" y1="131.29" x2="46.31" y2="105.29"/>
<circle class="st3" cx="38.78" cy="118.21" r="15.01"/>
<circle class="st5" cx="38.78" cy="118.21" r="6.29"/>
<circle class="st6" cx="38.78" cy="118.21" r="2.42"/>
<circle class="st3" cx="108.38" cy="118.21" r="15.78"/>
<line class="st4" x1="108.48" y1="103.2" x2="108.48" y2="133.22"/>
<line class="st4" x1="93.37" y1="118.3" x2="123.39" y2="118.3"/>
<line class="st4" x1="100.87" y1="105.03" x2="115.88" y2="131.03"/>
<line class="st4" x1="95.34" y1="125.67" x2="121.34" y2="110.66"/>
<line class="st4" x1="121.55" y1="125.76" x2="95.55" y2="110.75"/>
<line class="st4" x1="100.91" y1="131.29" x2="115.92" y2="105.29"/>
<circle class="st3" cx="108.38" cy="118.21" r="15.01"/>
<circle class="st5" cx="108.38" cy="118.21" r="6.29"/>
<circle class="st6" cx="108.38" cy="118.21" r="2.42"/>
<line class="st7" x1="19.67" y1="75.11" x2="19.67" y2="33.42"/>
<line class="st7" x1="128.27" y1="75.03" x2="128.27" y2="33.34"/>
<polygon class="st0" points="147.04,33.42 0.53,33.42 17.93,9.34 129.63,9.34 "/>
<polygon class="st1" points="134.75,33.56 12.94,33.56 27.41,9.48 120.28,9.48 "/>
<polygon class="st0" points="119.96,33.56 27.73,33.56 38.69,9.48 109,9.48 "/>
<polygon class="st1" points="104.3,33.7 43.39,33.7 50.63,9.34 97.06,9.34 "/>
<polygon class="st0" points="91.25,33.7 56.52,33.7 60.64,9.34 87.12,9.34 "/>
<polygon class="st1" points="80.81,33.7 68.09,33.7 69.6,9.34 79.3,9.34 "/>
<rect x="17.29" y="0.64" class="st2" width="113.11" height="8.7"/>
</svg>
