<?xml version="1.0" encoding="utf-8"?>
<!-- Generator: Adobe Illustrator 24.3.0, SVG Export Plug-In . SVG Version: 6.00 Build 0)  -->
<svg version="1.1" id="Слой_1" xmlns="http://www.w3.org/2000/svg" xmlns:xlink="http://www.w3.org/1999/xlink" x="0px" y="0px"
	 viewBox="0 0 2267.7 2267.7" style="enable-background:new 0 0 2267.7 2267.7;" xml:space="preserve">
<style type="text/css">
	.st0{fill:#A8CCEA;}
	.st1{fill:#F3CC20;}
	.st2{fill:#E73231;}
	.st3{fill:#A61917;}
	.st4{fill:#F6A53E;}
	.st5{fill:#BA1823;}
	.st6{fill:#301C10;}
	.st7{fill:#6C3716;}
	.st8{fill:#D7DB2F;}
	.st9{fill:#E73644;}
	.st10{fill:#F1E9D9;}
	.st11{fill:none;stroke:#F1E9D9;stroke-width:4;stroke-miterlimit:10;}
	.st12{fill:#3C1A1D;}
	.st13{fill:#863F13;}
	.st14{fill:#5E6C71;}
	.st15{fill:#EF782D;}
	.st16{display:none;}
	.st17{display:inline;fill:#863F13;}
	.st18{display:inline;fill:#5E6C71;}
	.st19{display:inline;fill:#EF782D;}
	.st20{fill:#AF1A38;}
	.st21{fill:#AF1A37;}
	.st22{fill:none;stroke:#FFFFFF;stroke-width:4;stroke-linecap:round;stroke-linejoin:round;stroke-miterlimit:10;}
	.st23{fill:#FFFFFF;}
	.st24{fill:#D7E6F2;}
	.st25{fill:#F8CFB1;}
	.st26{fill:#E9C3AA;}
	.st27{fill:#B7C1CE;}
	.st28{fill:#232528;}
	.st29{fill:#060708;}
	.st30{fill:#40444A;}
	.st31{fill:#D4E1F4;}
	.st32{fill:#34363A;}
	.st33{fill:#484C52;}
	.st34{fill:#D2472F;}
	.st35{fill:#B6392A;}
	.st36{fill:#BB9B86;}
	.st37{fill:#43474D;}
	.st38{fill:#5A1119;stroke:#7F7575;stroke-miterlimit:10;}
	.st39{fill:#F7A423;stroke:#7F7575;stroke-miterlimit:10;}
	.st40{fill:#461012;stroke:#7F7575;stroke-miterlimit:10;}
	.st41{fill:#161515;}
	.st42{fill:#020203;}
	.st43{fill:#393230;}
	.st44{fill:#E68433;}
	.st45{fill:#FBC171;}
	.st46{fill:#F8AF4A;}
	.st47{fill:#7E1710;}
	.st48{fill:#62210B;}
	.st49{fill:#CD3C3B;}
	.st50{fill:#B05517;}
	.st51{fill:#2F0F10;}
	.st52{fill:#A63535;}
	.st53{fill:#8D3819;}
	.st54{fill:#773610;}
	.st55{fill:#FDC95A;}
	.st56{fill:#C25C17;}
	.st57{fill:#CA611D;}
	.st58{fill:#F49729;}
	.st59{fill:#FFDA74;}
	.st60{fill:#35140D;}
	.st61{fill:#D95E22;}
	.st62{fill:#EA5051;}
	.st63{fill:#CF4241;}
	.st64{fill:#B75E20;}
	.st65{fill:#766E6C;}
	.st66{fill:#221E1D;}
	.st67{fill:#645F5E;}
	.st68{fill:#D3CFCF;}
	.st69{fill:#61130F;}
	.st70{fill:#931D1C;}
</style>
<rect y="-5.9" class="st0" width="2267.7" height="2267.7"/>
<path class="st1" d="M1982.7,2031.1l160.3,149.3c0,0-240.4,71.8-1088.9,63.7c-848.5-8.1-961.7-70.8-961.7-70.8L215,2031.1
	L1982.7,2031.1L1982.7,2031.1z"/>
<path class="st2" d="M2084.9,2127.7v28.9l-164.7-101.6l-30.2,128.4l-173.8-111.1l-20.3,125.4l-172.5-117.3l-82.5,127.2l-153.1-122.6
	l-87.1,126.1l-100.1-125.1l-86.8,125.1l-89.6-125.9L832.8,2209l-82.6-126.1L611,2201.7l-52-125.1l-138.5,113.2L360.1,2064
	l-133.9,103.6v-120.9l-106.8,97.7l0,0l-14.1,17.1c0,0,111.5,64.8,948.1,73.2c836.5,8.3,1073.6-65.8,1073.6-65.8L2084.9,2127.7z"/>
<path class="st3" d="M106.6,2147.8l-14.2,22.2c0,0,112.4,84.3,955.1,95.2c842.7,10.9,1081.5-85.6,1081.5-85.6l-18.1-22.8
	c-85.9,26.7-340.8,79-1019,78.5C408.2,2234.8,179.2,2177.4,106.6,2147.8z"/>
<path class="st4" d="M1982.7,2031.1c0,25.3-395.7,45.8-883.9,45.8S215,2056.4,215,2031.1c0-25.3,395.7-45.8,883.9-45.8
	S1982.7,2005.8,1982.7,2031.1z"/>
<path class="st5" d="M1681.5,1933.1c-28-5.4-65.3-8.3-104.9-8.3c-39.7,0-77,2.9-105,8.3c-38.7,7.4-42.9,15.9-42.9,19.2
	c0,3.3,4.2,11.8,42.9,19.2c28,5.4,65.3,8.3,105,8.3c39.7,0,76.9-2.9,104.9-8.3c38.7-7.4,42.9-15.9,42.9-19.2
	C1724.4,1948.9,1720.2,1940.5,1681.5,1933.1z"/>
<path class="st6" d="M1561.7,1971.2c-166.9,0-302.8-143.7-302.8-320.4s135.8-320.4,302.8-320.4c166.9,0,302.7,143.8,302.7,320.4
	C1864.4,1827.5,1728.6,1971.2,1561.7,1971.2z M1561.7,1352.2c-155,0-281,134-281,298.7c0,164.7,126,298.7,281,298.7
	c154.9,0,281-134,281-298.7C1842.7,1486.1,1716.6,1352.2,1561.7,1352.2z"/>
<path class="st7" d="M1561.7,1966.5c-163.2,0-296-140.7-296-313.6s132.8-313.6,295.9-313.6c163.2,0,295.9,140.7,295.9,313.6
	C1857.6,1825.8,1724.8,1966.5,1561.7,1966.5z M1561.7,1347.4c-158.7,0-287.8,137-287.8,305.5s129.1,305.5,287.8,305.5
	s287.8-137,287.8-305.5C1849.4,1484.5,1720.4,1347.4,1561.7,1347.4z"/>
<g>
	<path class="st8" d="M674.3,2021.9"/>
	<path class="st8" d="M793.5,2023.8"/>
	<path class="st9" d="M892.5,1207.6c0,0-128.3,300.1-370,451.8h370h370.1C1020.8,1507.7,892.5,1207.6,892.5,1207.6z"/>
	<path class="st10" d="M892.5,1207.6c0,0-103.2,300.1-297.5,451.8h297.5h297.6C995.7,1507.7,892.5,1207.6,892.5,1207.6z"/>
	<path class="st9" d="M892.8,1207.6c0,0-75.4,300.1-217.5,451.8h217.5h217.5C968.2,1507.7,892.8,1207.6,892.8,1207.6z"/>
	<path class="st10" d="M892.8,1207.6c0,0-46.5,300.1-134.1,451.8h134.1h134.1C939.3,1507.7,892.8,1207.6,892.8,1207.6z"/>
	<path class="st9" d="M892.8,1207.6c0,0-20.1,300.1-58,451.8h58h58C912.9,1507.7,892.8,1207.6,892.8,1207.6z"/>
	<path class="st9" d="M972.1,1135.6l-79.3-21.4v56l79.3-21.4C978.8,1147,978.8,1137.4,972.1,1135.6z"/>
	<line class="st11" x1="892.1" y1="1208.3" x2="892.1" y2="1093.7"/>
	<ellipse class="st9" cx="893" cy="1220.8" rx="21.7" ry="21.4"/>
	<ellipse class="st9" cx="893" cy="1104.2" rx="15" ry="14.8"/>
	<path class="st9" d="M734.8,1463.8c-103.8-130-157.7-256.1-157.7-256.1s-128.3,300.1-370,451.8h370h157.7V1463.8z"/>
	<path class="st10" d="M734.8,1509.3c-103.6-144.4-157.7-301.7-157.7-301.7S474,1507.7,279.6,1659.4h297.5h157.7V1509.3z"/>
	<path class="st9" d="M734.8,1581.6c-103.2-158.1-157.4-373.9-157.4-373.9s-75.4,300.1-217.5,451.7h217.5h157.4L734.8,1581.6
		L734.8,1581.6z"/>
	<path class="st10" d="M577.4,1207.6c0,0-46.5,300.1-134.1,451.8h134.1h134.1C623.9,1507.7,577.4,1207.6,577.4,1207.6z"/>
	<path class="st9" d="M577.4,1207.6c0,0-20.1,300.1-58,451.8h58h58C597.5,1507.7,577.4,1207.6,577.4,1207.6z"/>
	<path class="st9" d="M656.7,1135.6l-79.3-21.4v56l79.3-21.4C663.4,1147,663.4,1137.4,656.7,1135.6z"/>
	<path class="st11" d="M576.8,1208.3v-114.7V1208.3z"/>
	<ellipse class="st9" cx="577.6" cy="1216" rx="21.7" ry="21.4"/>
	<ellipse class="st9" cx="577.6" cy="1104.2" rx="15" ry="14.8"/>
	<rect x="245.8" y="1712.4" class="st9" width="977.9" height="276.1"/>
	<rect x="302.6" y="1712.4" class="st10" width="864.4" height="276.1"/>
	<rect x="359.3" y="1712.4" class="st9" width="750.8" height="276.1"/>
	<rect x="419" y="1712.4" class="st10" width="631.6" height="276.1"/>
	<rect x="472.9" y="1712.4" class="st9" width="523.7" height="276.1"/>
	<rect x="535.3" y="1712.4" class="st10" width="398.8" height="276.1"/>
	<rect x="598.5" y="1712.4" class="st9" width="271.1" height="276.1"/>
	<rect x="653.1" y="1712.4" class="st10" width="164.6" height="276.1"/>
	<rect x="245.8" y="1983.6" class="st9" width="977.9" height="39.2"/>
	<path class="st9" d="M1230.2,1719.2H239.4c-17.7,0-32.1-14.4-32.1-32.1v-28.6h1054.9v28.6
		C1262.3,1704.8,1247.9,1719.2,1230.2,1719.2z"/>
	<rect x="712.8" y="1712.4" class="st9" width="45.4" height="276.1"/>
	<path class="st12" d="M733.9,1819.5c-18.8,174.6-60.7,203.8-59.7,203.3h58h0.3h61C794.6,2023.3,752.7,1994,733.9,1819.5z"/>
	<polygon class="st9" points="741.1,1659.4 730.3,1659.4 730.3,1588.2 733.9,1584.6 741.1,1588.2 	"/>
	<polygon class="st10" points="730.3,1512 739.8,1512 739.8,1567.4 735.1,1579.3 730.3,1566.8 	"/>
</g>
<g>
	<path class="st13" d="M1568.5,1900.7c0-4.5-2.5-8.2-5.7-8.2c-3.1,0-5.7,3.7-5.7,8.2c0,4.6,2.5,8.3,5.7,8.3
		C1565.9,1909,1568.5,1905.2,1568.5,1900.7z"/>
	<path class="st14" d="M1567.4,1900.7c0,3.8-2.1,6.8-4.6,6.8c-2.5,0-4.6-3-4.6-6.8c0-3.7,2.1-6.7,4.6-6.7
		C1565.4,1893.9,1567.4,1897,1567.4,1900.7z"/>
	<path class="st13" d="M1567,1898.6c0-5.3-2.9-9.6-6.6-9.6s-6.6,4.3-6.6,9.6c0,5.3,2.9,9.6,6.6,9.6
		C1564.1,1908.2,1567,1903.9,1567,1898.6z"/>
	<path class="st15" d="M1566,1898.6c0,4.5-2.5,8.1-5.5,8.1c-3.1,0-5.5-3.6-5.5-8.1c0-4.5,2.5-8.1,5.5-8.1
		C1563.5,1890.5,1566,1894.1,1566,1898.6z"/>
</g>
<g class="st16">
	<path class="st17" d="M1612.7,1896.6c0-4.6-2.5-8.2-5.7-8.2c-3.1,0-5.7,3.7-5.7,8.2c0,4.6,2.5,8.3,5.7,8.3
		C1610.1,1904.9,1612.7,1901.2,1612.7,1896.6z"/>
	<path class="st18" d="M1611.6,1896.6c0,3.8-2.1,6.8-4.6,6.8c-2.5,0-4.6-3-4.6-6.8c0-3.7,2.1-6.7,4.6-6.7
		C1609.6,1889.8,1611.6,1892.9,1611.6,1896.6z"/>
	<path class="st17" d="M1611.2,1894.5c0-5.3-2.9-9.6-6.6-9.6s-6.6,4.3-6.6,9.6c0,5.3,2.9,9.6,6.6,9.6
		C1608.3,1904.1,1611.2,1899.8,1611.2,1894.5z"/>
	<path class="st19" d="M1610.2,1894.5c0,4.5-2.5,8.1-5.5,8.1c-3.1,0-5.5-3.6-5.5-8.1c0-4.5,2.5-8.1,5.5-8.1
		C1607.7,1886.4,1610.2,1890,1610.2,1894.5z"/>
</g>
<path class="st20" d="M-122.6,764.6h670.2c91.2,0,180.3-27,256-77.8c128.9-86.6,259.3-212.1,345.5-340
	c58.1-86.1,92.2-186.2,99.5-289.9l26.9-380H267.7c-300.4,0-543.8,243.5-543.8,543.8v390.3C-276.1,695.9-207.4,764.6-122.6,764.6z"/>
<path class="st2" d="M-146.6,720.5h670.2c91.2,0,180.3-27,256-77.8c128.9-86.6,259.3-212.1,345.5-340
	c58.1-86.1,92.2-186.2,99.5-289.9l26.9-380H243.8c-300.4,0-543.8,243.5-543.8,543.8V567C-300.1,651.7-231.3,720.5-146.6,720.5z"/>
<path class="st21" d="M2456.8,764.6h-670.2c-91.2,0-180.3-27-256-77.8c-128.9-86.6-259.3-212.1-345.6-340
	c-58.1-86.1-92.2-186.2-99.5-289.9l-26.9-380h1007.8c300.4,0,543.8,243.5,543.8,543.8v390.3C2610.3,695.9,2541.6,764.6,2456.8,764.6
	z"/>
<path class="st2" d="M2480.8,720.5h-670.2c-91.2,0-180.3-27-256-77.8c-128.9-86.6-259.3-212.1-345.6-340
	c-58.1-86.1-92.2-186.2-99.5-289.9l-26.9-380h1007.8c300.4,0,543.8,243.5,543.8,543.8V567C2634.3,651.7,2565.6,720.5,2480.8,720.5z"
	/>
<path class="st22" d="M7.4,682.1h423.7c109.9,0,217.5-31.2,310.3-90l0,0c42.8-27.1,82.7-58.4,119.3-93.4l108.9-104.4
	c47-45.1,91.1-93.1,132-143.8l12.6-15.6"/>
<path class="st22" d="M1082.7-332c23.3,368.3,155.5,618.4,304.3,781.2c93.1,102,181.6,170.1,288.3,210.6
	c106.7,40.5,211.3,21.1,304.1,22.3c161.3,2.2,282.9-0.4,288.5,0"/>
<ellipse transform="matrix(2.222203e-03 -1 1 2.222203e-03 -1134.2234 1119.2733)" class="st23" cx="-6.2" cy="1128" rx="23.1" ry="23.1"/>
<circle class="st23" cx="50" cy="1188" r="23.1"/>
<circle class="st23" cx="96.1" cy="1248" r="23.1"/>
<circle class="st23" cx="164.8" cy="1304.3" r="23.1"/>
<circle class="st23" cx="249" cy="1339.3" r="23.1"/>
<circle class="st23" cx="336.8" cy="1322.8" r="23.1"/>
<circle class="st23" cx="419" cy="1304.3" r="23.1"/>
<circle class="st23" cx="507.2" cy="1256.7" r="23.1"/>
<circle class="st23" cx="670.9" cy="1090.9" r="23.1"/>
<circle class="st23" cx="730.3" cy="1019.8" r="23.1"/>
<circle class="st23" cx="787.4" cy="927" r="23.1"/>
<circle class="st23" cx="842.1" cy="839.9" r="23.1"/>
<circle class="st23" cx="860.9" cy="759.7" r="23.1"/>
<circle class="st23" cx="910.7" cy="636" r="23.1"/>
<circle class="st23" cx="959" cy="685.7" r="23.1"/>
<ellipse transform="matrix(0.1602 -0.9871 0.9871 0.1602 94.1165 1630.0408)" class="st23" cx="1005" cy="759.7" rx="23.1" ry="23.1"/>
<circle class="st23" cx="1055.2" cy="816.8" r="23.1"/>
<circle class="st23" cx="1119" cy="875" r="23.1"/>
<circle class="st23" cx="1190.1" cy="927" r="23.1"/>
<circle class="st23" cx="1262.6" cy="982.9" r="23.1"/>
<circle class="st23" cx="1345.2" cy="1006" r="23.1"/>
<circle class="st23" cx="1438.9" cy="982.9" r="23.1"/>
<circle class="st23" cx="1527.9" cy="959.8" r="23.1"/>
<circle class="st23" cx="1598.6" cy="923" r="23.1"/>
<circle class="st23" cx="1662.4" cy="875" r="23.1"/>
<circle class="st23" cx="1758.2" cy="805.8" r="23.1"/>
<circle class="st23" cx="1802.1" cy="863" r="23.1"/>
<circle class="st23" cx="1858.5" cy="923" r="23.1"/>
<circle class="st23" cx="1918.4" cy="982.9" r="23.1"/>
<circle class="st23" cx="1985.9" cy="1042.9" r="23.1"/>
<ellipse transform="matrix(0.1602 -0.9871 0.9871 0.1602 639.3819 2949.9231)" class="st23" cx="2053.3" cy="1099.2" rx="23.1" ry="23.1"/>
<circle class="st23" cx="2120.7" cy="1156.4" r="23.1"/>
<circle class="st23" cx="2188.1" cy="1216.1" r="23.1"/>
<circle class="st23" cx="2267.7" cy="1272" r="23.1"/>
<g>
	<ellipse class="st24" cx="767.2" cy="2036.7" rx="360.5" ry="7"/>
	<path class="st25" d="M1227.8,1098.4c3.1-2.6,7-4.1,10.4-6.2c4-2.5,7.5-5.8,10.1-9.8c1.2-1.7,2.2-3.6,3.8-4.9
		c1.6-1.4,3.6-2.8,5.5-1.9c0.9,0.4,0.7,3.4,0,5.1c6.1-0.5,12.3,0.9,17.7,3.9c1.9,1.1,3.7,2.4,4.8,4.3c0.8,1.5,1,3.1,1.2,4.8
		c0.7,6.4,0.7,12.8,0.1,19.2c-0.5,4.5-1.5,9.4-4.9,12.4c-4,3.4-10,3.2-15.1,1.6s-9.7-4.4-14.8-5.4c-7-1.4-14.1,0.3-21.2,0.7
		c-1.6,0.1-3.3,0.1-4.7-0.8c-2.1-1.4-2.5-4.5-1.6-6.8c1.2-2.9,3.4-4.3,4.2-7.2C1224.1,1103.7,1224.7,1101,1227.8,1098.4z"/>
	<path class="st25" d="M1036.7,1475c5.7,4.2,13.7,5.4,19.8,8.7c7.6,4.2,15.6,7.8,23.2,12c7.4,4.1,13.2,6.8,21.8,6.8
		c10,0,19.4-0.9,28.5-5.5c3.7-1.9,13-6.7,9.5-11.9c-1.7-2.4-6.5-3.8-9.1-5c-5.2-2.3-11-3.6-16.4-5.3c-21.4-6.5-41.8-15.3-64.3-16.6
		c-5.9-0.3-28.9-4.3-29.9,5.1c-1,9.4,13.7,9.9,19.4,12C1038.7,1475.3,1038.3,1475.2,1036.7,1475z"/>
	<path class="st26" d="M863.9,1105.2c0.2,4.2,3,7.9,4.6,11.8c3.3,7.8,2.4,17.1,7.2,24c1.8,2.6,5,4.7,7.9,3.6
		c3.1-1.2,3.7-5.3,3.6-8.7c-0.5-9.6-3.6-19-8.9-27.1c-1.6-2.4-3.1-5.8-5.8-7.2C869.1,1099.9,863.6,1100.4,863.9,1105.2z"/>
	<path class="st26" d="M976.2,1100.6c0.1,4.2-2.4,8.1-3.8,12.1c-2.7,8-1.2,17.3-5.5,24.5c-1.6,2.7-4.6,5.1-7.6,4.1
		c-3.2-1-4.1-5-4.2-8.4c-0.2-9.7,2.2-19.2,6.9-27.6c1.4-2.5,2.7-6,5.2-7.6C970.6,1095.7,976.1,1095.7,976.2,1100.6z"/>
	<path class="st27" d="M893.4,1190.8c1.4-1.7,3.5-2.6,5.6-3.3c10.8-3.6,22.3-3.1,33.7-3.7c3.6-0.2,7.3-0.5,10.7,0.8
		c1,0.4,2,1,2.5,1.9c0.3,0.6,0.5,1.3,0.6,1.9c0.8,4,1.6,8.1,1.6,12.2c0,1.9-0.2,3.8-1.1,5.4c-1.2,2.1-3.5,3.4-5.7,4.6
		c-3.7,2.1-7.3,4.3-11.3,5.9c-6.5,2.6-13.7,3.1-20.5,1.8c-3.1-0.6-6.2-1.6-8.6-3.6c-2-1.7-3.4-4-4.5-6.4c-1-2.3-1.8-4.8-2.5-7.2
		C892.9,1197.9,890.9,1193.8,893.4,1190.8z"/>
	<path class="st28" d="M551,2020.7c-2,0.9-4.1,2-5.3,3.9s-1.4,4.8,0.3,6.2c1.1,0.9,2.6,0.9,4,0.9c44.8,0.5,89.7,0.9,134.5,1.4
		c-1.2-6.7-2.8-13.4-5-19.8c-1-3.1-2.3-6.3-4.8-8.3c-2.7-2.2-6.2-2.6-9.6-2.8C625.8,1999.1,587.1,2003.4,551,2020.7z"/>
	<path class="st29" d="M879.6,1207.4c7.3-4,20.3-6.9,28.6-7.5c8.7-0.6,17.3-0.9,26-0.8c9.7,0.1,20.1,0.9,27.7,6.8
		c5.7,4.4,9.1,11.2,11,18.1c2.2,8.4,1.8,18.4-4.5,24.3c-3.5,3.2-8.2,4.7-12.8,5.7c-19.2,4.3-39.5,3.2-58.1-3c-6-2.1-12-4.7-16.8-8.9
		C868.1,1231.2,864.8,1215.5,879.6,1207.4z"/>
	<path class="st28" d="M958.4,1670.9c4.8-7.6,9-15.6,12.8-23.8c5-10.8,9.4-21.8,13.1-33.1c12-36.6,16.7-76.4,7.8-113.9
		c-1.8-7.5-4.5-15.4-10.9-19.7c-6.3-4.2-14.8-3.6-21.5-0.2s-11.8,9.2-16.1,15.4c-11.7,16.9-18.2,37-22.2,57.2
		c-4,20.2-5.8,40.8-9.2,61.1c-2.9,17.4-6.9,34.7-8.9,52.3c-1.1,9.8-1.4,20,1.7,29.3c0.9,2.7,2.2,5.4,4.5,7.1
		c1.7,1.2,3.7,1.9,5.8,2.2c11.1,2.1,16.4-0.9,23.5-8.5C946.1,1688.4,952.7,1679.9,958.4,1670.9z"/>
	<path class="st28" d="M919.1,1713.6c13.7-6.2,27.8-14.2,34.3-27.8c3-6.3,4.1-13.4,5-20.4c4-31,5.2-62.3,3.6-93.5
		c-0.3-6-0.9-12.6-5.1-17c-2.9-3.1-7.1-4.5-11.3-5.3c-17.9-3.4-35.9,4.2-51.8,13.1c-50.6,28.2-91.9,70.8-125.4,118
		c-10.4,14.6-20.1,29.7-31.5,43.6c-2.9,3.5-5.9,6.9-9,10.2c-1.9,1.9-8.6,6.6-6.4,8.8c1.9,1.9,11,1.4,13.7,1.6c4.7,0.4,9.3,0.8,14,1
		c37.1,1.9,74.5-1.9,110.4-11.2C880,1729.3,900,1722.3,919.1,1713.6z"/>
	<path class="st30" d="M1229.5,1092.9c-16.3,26.3-58.5,89-101.9,114.8l0,0c-0.8,0.2-1.7,0.4-2.5,0.6c-31.9,7.3-64.1,14.3-96.8,15.8
		c-27.3,1.2-69.9-14.8-93.5,4.4c-25.1,20.3-18.8,68.8-12.6,95.8c1.7,7.3,4,14.8,9.2,20.3c10.5,11,28.5,9.3,43,4.9
		c30-9,57-25.8,82.9-43.4c36.3-24.6,77.8-49.7,111.4-78c0-0.1,0.1-0.2,0.1-0.3c3.8-3.6,7.1-7.7,10.6-11.6
		c28.3-31.6,61.6-93.2,61.6-93.2S1246.1,1092.9,1229.5,1092.9z"/>
	<path class="st28" d="M1241.1,1122.8c0,0,0.7-4.7,0.7-7.1c-20.4,32.8-35.7,56.4-62.3,84.4c-9.4,9.9-19.2,19.5-29.9,27.9
		c-11.9,9.2-24.8,16.9-37.8,24.5c-14.6,8.5-29.4,16.8-44.4,24.5c-13.3,6.9-26.9,13.3-40.8,18.9c-8,3.2-17.7,6-22.9,13.5
		c-5.4,7.8-8.3,20.9-7,32.9c21.2-9.3,41.1-22,60.3-35c36.3-24.6,77.8-49.7,111.4-78c0-0.1,0.1-0.2,0.1-0.3
		c3.8-3.6,7.1-7.7,10.6-11.6C1207.2,1185.6,1241.1,1122.8,1241.1,1122.8z"/>
	<path class="st25" d="M890.3,1236.3c-1,3.2-2,6.5-1.3,9.7c1.5,6.6,9.3,9.3,15.9,10.2c12.1,1.6,24.4,0.9,36.2-2
		c2.1-0.5,4.4-1.2,5.7-3c1.3-1.7,1.4-4,1.4-6.2c0.2-21.7,0.5-43.6-5.4-64.5c-1-3.6-2.2-7.2-4.1-10.4c-5.9-10.1-18.6-15.7-30-13.1
		c-15.8,3.6-10.1,21.6-10.6,33.4C897.4,1206.1,894.8,1221.5,890.3,1236.3z"/>
	<path class="st31" d="M844.3,1243.5c-9.8,8.7-12.1,22.1-12.6,34.5c-1.2,27.1,3.4,54.1,8,81c4.8,27.9,9.5,55.8,14.3,83.7
		c3.5,20.8,7.4,42.3,20,60s36.6,30.7,59.2,25.4c13.9-3.3,25.2-12.9,32.5-24s11.2-23.8,14.8-36.3c15.1-53,25.7-107,33.8-161.2
		c2.2-14.5,4.1-29.5-0.4-43.5c-6-18.4-23-32.9-42.8-40.3c-20.6-7.7-48.1-10.4-69.5-3.9C884.3,1224.1,857.2,1232,844.3,1243.5z"/>
	<path class="st30" d="M838.7,1571.9c-4.7,10.6,27.6-1.2,36.6,6.1c4.7,3.8,10.8,5.5,16.7,6.8c19.2,4.4,38.9,6.1,58.5,5.2
		c7.4-0.4,15.3-1.4,20.7-6.4c5.9-5.5,11.7-10.1,12.3-18.1c1.2-14.9-8.8-79.5-8.8-79.5s-6.1,13.5-42.3,13.2
		c-47.3-0.3-68.7-18-68.9-16.8C852.7,1533.2,843.7,1560.6,838.7,1571.9z"/>
	<path class="st30" d="M973.2,1543c-6.6-5.1-16.4-6.8-25.4-6.1c-21,1.7-37.8,9-36.9,24.5c0.9,16.7,1.9,110.5,5,172.2
		c-1.7,10.5-2.5,21.2-3.3,31.8c-6.4,93.1-35.2,185.1-84.2,269.4c37.1-1.3,74.3-0.5,111.3,2.3c-6.1-104.2,16.9-270.2,34.2-373.6
		c0,0,0-0.1,0-0.1c5.8-30.1,9.5-60.3,9.8-90.7C983.8,1562.2,982.8,1550.3,973.2,1543z"/>
	<path class="st30" d="M773.5,1740c-2.8,10.2-5.3,20.9-1.8,31.7c5.7,3.2,11.6-1.5,15-5.8c46.5-59.3,104.9-125.1,133.2-193.9
		c4-9.8-3.9-15.4-10.1-25.7c-4.3-7.2-12.7-12.4-21.3-15.1c-20.2-6.3-35,2.3-40,17c-6.8,19.9-17.3,38.3-26.1,57.4
		C802.4,1649,786.1,1693.9,773.5,1740z"/>
	<path class="st30" d="M770.8,1730.3c-40.6,84-124.4,222.4-201.2,282.4c48.2,0,79.1,24.5,125.3,20c33.1-99.1,85.8-230.4,140.3-319.9
		c8.3-13.6,18.2-32.2,26.6-48.4c2.3-4.5-14.2-7.6-20.1-8.4c-2.3-0.3-4.5,0.4-6.5,1.2C800,1671.3,784.9,1701,770.8,1730.3z"/>
	<path class="st30" d="M973.8,1264.7c18.6,88.5,13.3,127.9,2.2,217.7c4.2,13.9,16.3,71.9,20.7,74.5c13.3-68.1,14.2-152.2,27.6-220.3
		c3-15.2,5.9-30.4,5.6-45.9c-0.3-15.4-4.2-31.2-13.7-43.4c-12.3-15.7-32-23.3-50.7-30.2c-16.2-6-3.7,10.3-0.9,16.6
		C969,1243.5,971.6,1254.1,973.8,1264.7z"/>
	<path class="st32" d="M874,1608.1c5.7-9,17.3-21.8,22.6-31c1.7-2.9,31.7-74.4,30.7-77.9c-1.2-4.2-27.9-4.9-31.2-4
		c-7.7,2-24.9,77-31.1,82c-21.8,17.2-40.6,37.7-56.9,60.2c-13.6,33.1-25.1,66.9-34.5,101.5c-2.1,7.6-4,15.5-3.4,23.5
		c21.7-34.4,45.5-67.5,68.6-101C850.7,1643.7,862.6,1626.1,874,1608.1z"/>
	<path class="st30" d="M807.1,1612.3c-29.1,43.5-58.3,87-87.4,130.5c13.3-10.1,23.8-23.6,37.3-33.3
		c95.6-68.8,132.9-168.7,139.5-195.8c3.7-14.9-6.9-6.5-22.2-8.3c-10.3-1.2-26,0-28.3,10c-0.6,2.7-1.7,11.2-5.4,25.6
		C834.2,1565.6,820.7,1592,807.1,1612.3z"/>
	<path class="st32" d="M650.4,1999c16.1-35.8,33.3-71.1,51.3-106c32.6-63,67.8-124.7,103.6-186c8.5-14.6,17.3-29,25.6-43.7
		c0.9-1.6,1.9-3.5,2.8-5.5c-34.1,14.3-49,43.6-63,72.5c-40.6,84-124.4,222.4-201.2,282.4c28.3,0,50.3,9,80.2,16.2
		C648.8,2025.5,646.5,2007.6,650.4,1999z"/>
	<path class="st32" d="M934,1714.6c2.4-32.2,4.4-64.8-1.8-96.4c-2.4-12.3-7.3-39.8-20.5-29.3c0.8,33.7,1.7,93.8,4.2,144.3
		c-1.7,10.5-2.5,21.2-3.3,31.8c-6.4,93.1-35.2,185.1-84.2,269.4c14.1-0.5,28.3-0.7,42.5-0.6C914,1934.1,926,1823.2,934,1714.6z"/>
	<path class="st28" d="M978.1,1290.5c4.4,31.1,5.3,62.7,8.9,93.9c5-32.9,10-65.7,14.9-98.6c-4.7-1.9-9.3-4.3-13.5-7.1
		c0.7-22-2.5-44.1-9.4-65c-1.1-3.2-2.3-6.6-4.9-8.8c-1.4-1.2-3.1-2-4.8-2.8c-4.2-1.9-24.2-9.9-22.4-1.5c0.6,2.9,6.3,8.5,7.9,11.4
		c2.5,4.7,4.8,9.6,6.9,14.5C970.1,1246.9,975,1268.6,978.1,1290.5z"/>
	<path class="st30" d="M812.9,1261.8c-5.8,10.3,8,18.7,7.8,30.6c-0.9,36.7,15.8,70.6,21.4,106.8c8.4,54.1,10.8,105.4-6.2,165.8
		c22-1.8,24.5-16.3,46.5-16.2c28.5-57.3,43.1-99.3,47.2-156.7c4.1-57.4-3.9-118.1-36.9-165.2
		C881.1,1210.5,820.2,1248.8,812.9,1261.8z"/>
	<path class="st32" d="M907.4,1389.2c0.1,1.2,0.2,2.5,0.7,3.6c0.5,0.9,1.2,1.7,2,2.5c6.7,6.6,13.4,13.2,20.1,19.9
		c-7.3,1.5-15,1.6-22.4,0c-1.5-0.3-3-0.7-4.2-1.7c-0.9-0.8-1.5-1.8-2-2.8c-9-16.7-18.1-33.4-24.1-51.4c-3.8-11.2-6.3-22.9-6.8-34.7
		c-0.3-6.1-1.7-27.3,6.6-29.3c8.3-2,13.6,14.5,15.4,19.8c3.9,11.3,7.1,22.8,9.5,34.5C904.8,1362.7,906.6,1375.9,907.4,1389.2z"/>
	<path class="st33" d="M1047,1456.3c-35.2-8.4-68.1-24.3-102.1-36.5c-15.7-5.6-31.8-11.5-44.5-22.4c-1.2-1.1-2.5-2.2-3.9-3.3
		c1.2-40.3-5.8-86.9-20.8-120c-14.3-31.4-65.4-33.3-70.2,6.1c-3.1,25.5,16.7,58.9,25.3,82.3c9.8,26.6,19.9,53.7,38.3,75.2
		c2.1,2.4,4.5,4.9,7.6,5.8c1.3,0.4,2.5,0.4,3.8,0.3c2.1,1.2,4.5,2.2,7.2,2.9c52.7,14.6,106.4,25.3,159.6,38.1
		C1059.4,1487.8,1056.1,1458.4,1047,1456.3z"/>
	<path class="st28" d="M886.4,1424.7c-0.1-3.3-0.2-6.5-0.3-9.8c-1.8,3.6-3.7,7.2-5.5,10.7c-25.2-31.1-45.1-66.6-58.5-104.3
		c-6.3-17.7-11.2-36.3-12.4-54.9c-2.1,3.8-3.7,8.4-4.3,13.8c-3.1,25.5,16.7,58.9,25.3,82.3c9.8,26.6,19.9,53.7,38.3,75.2
		c2.1,2.4,4.5,4.9,7.6,5.8c1.3,0.4,2.5,0.4,3.8,0.3c2.1,1.2,4.5,2.2,7.2,2.9c52.7,14.6,106.4,25.3,159.6,38.1
		c8.7,2.1,9.5-12.4,5.9-21.5c-45.1-1.9-90-9.1-133.4-21.6C907.6,1438.2,895,1434,886.4,1424.7z"/>
	<path class="st34" d="M925.1,1486.4c17.4,0.1,34-0.2,50.9-4.1l4.8,17.7c-4.8,3.5-8.5,5.9-13.9,8.3c-6.2,2.8-12.9,4.4-19.5,5.7
		c-22.7,4.5-26.2,4.1-49.1,0.8c5.8-12.3,7.3-17.1,11.9-29.9C915.1,1485.7,918.7,1486.4,925.1,1486.4z"/>
	<path class="st31" d="M929.1,1208.5c-5.9-0.1-10.7-1.2-15.8-2.8c-3.9-1.2-7.8-2.5-11.3-4.5c-3.5-2-7.7-5.7-9.7-9.2
		c-1.7,9.7-2.7,21.3-3.6,31.1c5.9,3.9,12.4,6.8,18.2,10.7c3.5,2.3,7.1,4.6,11.1,5.5c4.9,1.1,12.2-0.4,11.6-6.5
		C929,1225,929,1216,929.1,1208.5z"/>
	<path class="st31" d="M946.7,1187.8c1.7,4,8,30.9,7.5,36.9c-0.5,6-3.3,12.2-8.6,15.1c-0.8,0.4-1.9,0.8-2.5,0.2
		c-0.4-0.4-0.5-0.9-0.6-1.5c-0.9-5.8-1.8-11.5-2.7-17.3c-0.5-3-1-15.5-1-15.5S946.2,1193.6,946.7,1187.8z"/>
	<path class="st28" d="M894.9,2016.3c7-0.4,14.3,0.5,20.5,3.7s11.4,9.1,12.7,16c0.3,1.6-22.5,5.6-24.7,5.8
		c-8.7,1.1-17.5,1.2-26.3,0.3c-3.7-0.4-22.9-1.7-24.3-5.5c-1.3-3.7,12.7-11.3,15.3-12.7C876.4,2019.4,885.5,2016.8,894.9,2016.3z"/>
	<path class="st28" d="M911.6,1254.2c3.6,7.8,5.8,16.2,7.7,24.5c8.1,35.6,11.7,72.2,10.6,108.8c-4.8-16-10-31.9-15.5-47.7
		c-3.8-10.8-7.9-21.8-15.4-30.4c-0.6-0.7-1.3-1.5-1.2-2.4c0.1-0.9,0.9-1.6,1.6-2.2c3.5-2.8,7-5.6,10.6-8.4
		c-16.3-26.3-39.1-44.8-66.8-58.6c-7.4-4.2,23.9-25.3,36.3-30.3c4.2,7,7.6,11.7,13.2,18C900.4,1233.8,906.8,1243.8,911.6,1254.2z"/>
	<g>
		<path class="st34" d="M965.9,1205.2c-0.5-0.8-1.1-1.5-2-1.7c-0.7-0.1-1.3,0.1-1.9,0.3c-5.7,2.1-10.5,6.1-15.6,9.4
			c-1,0.6-2,1.2-3.1,1.5c-1.9,0.5-1.2-0.6-5.8,0.1c-3.9,0.6-3.7,1.5-5.6,1.6c-1.2,0-2.3-0.2-3.4-0.6c-5.8-1.7-11.6-4.1-17.6-4.5
			c-0.7-0.1-1.4-0.1-2,0.2c-0.8,0.4-1.2,1.3-1.5,2.2c-1.4,4.9-0.5,10.1,0.6,15.1c1.4,5.8,3.2,11.4,5.3,16.9c0.4,1.1,0.9,2.2,1.9,2.9
			c1,0.7,2.4,0.7,3.6,0.2c1.2-0.4,2.1-1.3,3-2.1c4-3.6,7.6-7.6,10.6-11.9c2.5,1.1,5.3,1.4,8,1c2.7-0.4,5.3-1.5,7.4-3.3
			c4.2,3.3,8.8,6.1,13.6,8.4c1.1,0.5,2.3,1,3.5,1.1c1.2,0.1,2.6-0.3,3.4-1.2c0.7-0.9,0.9-2.1,1-3.3c0.5-5.9,0.6-11.8,0.2-17.7
			C969.4,1214.7,968.7,1209.4,965.9,1205.2z"/>
		<path class="st35" d="M966,1205.2c-0.1-0.2-0.2-0.3-0.4-0.5c0.8,3,1.2,6.1,1.3,9.2c0.3,5.9,0.2,11.8-0.2,17.7
			c-0.1,1.2-0.2,2.4-1,3.3c-0.8,1-2.1,1.3-3.4,1.2s-2.4-0.6-3.5-1.1c-4.8-2.2-9.4-5.1-13.6-8.4c-2.1,1.8-4.7,2.9-7.4,3.3
			c-2.7,0.4-5.5,0.1-8-1c-3.1,4.4-6.6,8.4-10.6,11.9c-0.9,0.8-1.9,1.6-3,2.1c-1.2,0.4-2.5,0.5-3.6-0.2c-0.2-0.1-0.3-0.2-0.4-0.3
			c0.4,1.2,0.8,2.3,1.3,3.4c0.4,1.1,0.9,2.2,1.9,2.9c1,0.7,2.4,0.7,3.6,0.2c1.2-0.4,2.1-1.3,3-2.1c4-3.6,7.6-7.6,10.6-11.9
			c2.5,1.1,5.3,1.4,8,1c2.7-0.4,5.3-1.5,7.4-3.3c4.2,3.3,8.8,6.1,13.6,8.4c1.1,0.5,2.3,1,3.5,1.1c1.2,0.1,2.6-0.3,3.4-1.2
			c0.7-0.9,0.9-2.1,1-3.3c0.5-5.9,0.6-11.8,0.2-17.7C969.4,1214.7,968.7,1209.4,966,1205.2z"/>
		<path class="st35" d="M941.9,1229.2c1-1.5,1.4-3.3,1.4-5.1c0-1.8-0.4-3.5-0.8-5.3c-0.1-0.4-0.2-0.8-0.1-1.1s0.2-0.8,0.5-1
			c0.5-0.3,1.1-0.1,1.5,0.2c0.4,0.4,0.6,0.9,0.8,1.4c1.5,3.5,2.8,7.2,2.7,11c0,0.7-0.1,1.5-0.5,2c-0.3,0.4-0.8,0.6-1.3,0.8
			c-1.2,0.5-2.5,0.8-3.8,1.1c-0.5,0.1-1.1,0.2-1.6,0.1c-0.6-0.1-1.1-0.3-1.6-0.6c-0.3-0.2-0.6-0.3-0.8-0.6c-0.2-0.3-0.3-0.7-0.1-1
			c0.3-0.6,1.4-0.5,2-0.7C940.8,1230.3,941.5,1229.8,941.9,1229.2z"/>
		<path class="st35" d="M928.6,1227.2c-0.2-1.7-0.7-3.4-0.6-5.1c0-0.1,0-0.2,0.1-0.3c0.1-0.1,0.4-0.1,0.5,0.1
			c0.1,0.1,0.2,0.3,0.2,0.5c0.3,1.6,0.8,3.1,1.5,4.5c0.4,0.9,1,1.8,1.7,2.5c1,0.9,2.3,1.4,3.6,1.7c1.3,0.3,2.6,0.4,4,0.6
			c-1.2,0.3-2.3,0.6-3.5,0.4c-0.7-0.1-1.3-0.3-2-0.4c-0.9-0.1-1.8,0.1-2.6,0.5c-1.3,0.7-2.2,2.1-3.6,2.6c-0.1,0-0.1,0-0.2,0
			c0,0-0.1-0.1-0.1-0.1c-0.3-1,0.6-2.4,0.8-3.4C928.6,1229.9,928.7,1228.6,928.6,1227.2z"/>
	</g>
	<path class="st32" d="M928.6,1552.8c-2.4,20.8,1.4,41.9,0.1,62.8c-0.1,2.3-0.4,4.7-1.7,6.6s-4,3-6,1.8c-1.5-1-2-2.9-2.4-4.7
		c-1.4-6.4-2.7-12.9-4.1-19.3c-1.1-5-3-9.5-0.7-14.3c2.7-5.4,5.6-10.7,8.1-16.2C924,1564.9,928.6,1557.6,928.6,1552.8z"/>
	<path class="st36" d="M909.1,1199.5c7,5.8,17.8,7.4,25.2,2.2c5.8-4.2,8.4-11.6,9.1-18.7c0.8-8.6-0.9-17.9-7-24
		c-5.5-5.6-13.7-7.7-21.5-7.7c-6.7,0-14.3,2.1-17.1,8.2c-2.3,5.1-1,14.3-0.1,19.9C898.8,1186.8,903.2,1194.7,909.1,1199.5z"/>
	<path class="st25" d="M883.2,1055.2c-8.9,13.7-11.4,30.8-10.9,47.1c0.8,26.9,8.9,53.6,23.2,76.3c3.2,5,6.8,10,11.9,12.9
		c9.5,5.5,22.2,2.6,30.7-4.5s13.4-17.4,17.3-27.7c5.1-13.6,8.8-27.7,11-42.1c2.7-17.9,2.9-37-4.6-53.5
		C946.8,1030.6,904,1023.1,883.2,1055.2z"/>
	<path class="st36" d="M933.9,1139c-6.5,1.6-13,3.5-19.2,5.8c-0.2-2.1-0.3-4.2-0.4-6.4c6.5-1.4,9.6-3.1,14.2-4.6
		c-2.4-3-5.8-31.6-3.5-44.5c-1.3,7.4,0.4,15.8,1.5,23.2C927.9,1121.6,930.4,1130.4,933.9,1139z"/>
	<path class="st28" d="M934.8,1090.4c1.2-0.2,2.2-0.9,3.1-1.7c2.2-1.9,3.9-4.3,5.9-6.4c2-2.1,4.6-3.9,7.5-4
		c5.2-0.3,9.2,4.7,14.2,6.3c-3.1-0.7-4.5-4.2-6.6-6.6c-3.7-4.3-10.8-5.3-15.5-2.1c-1,0.6-1.8,1.4-2.7,2.2c-2.9,2.6-5.8,5.2-8.6,7.7
		C930,1087.7,932.4,1090.8,934.8,1090.4z"/>
	<path class="st28" d="M913.7,1095.3c-1.2,0.1-2.4-0.4-3.4-1c-2.5-1.4-4.7-3.4-7.2-4.9c-2.5-1.6-5.3-2.7-8.2-2.2
		c-5.2,0.9-7.9,6.6-12.4,9.3c2.8-1.4,3.5-5.1,5-7.8c2.7-5,9.3-7.5,14.7-5.5c1.1,0.4,2.1,1,3.1,1.5c3.4,1.9,6.8,3.8,10.1,5.6
		C917.8,1091.6,916.1,1095.1,913.7,1095.3z"/>
	<g>
		<path class="st23" d="M952.5,1103.2c1-0.1,2-0.2,2.8-0.5s1.7-1.1,1.9-2.1c0.2-1-0.3-2-1.1-2.7c-0.8-0.7-1.8-1-2.7-1.3
			c-5.5-1.6-16.5-1.7-20.4,3.7c-3,4.1,4.1,3.6,6.4,3.6C943.8,1103.9,948.2,1103.6,952.5,1103.2z"/>
		<path class="st28" d="M937.5,1097.1c-0.4,0.9-0.5,2-0.4,3.4c0.2,1.3,0.8,2.5,1.6,3.4c0.3,0,0.6,0,0.8,0c4-0.1,8.1-0.3,12.1-0.6
			c0.2-0.3,0.3-0.6,0.5-0.9c0.8-2.1,0.5-4.5-0.9-6.2C947.2,1095.4,941.7,1095.5,937.5,1097.1z"/>
	</g>
	<g>
		<path class="st23" d="M907.2,1104c1-0.1,2-0.2,2.8-0.5s1.7-1.1,1.9-2.1c0.2-1-0.3-2-1.1-2.7c-0.8-0.7-1.8-1-2.7-1.3
			c-5.5-1.6-16.5-1.7-20.4,3.7c-3,4.1,4.1,3.6,6.4,3.6C898.5,1104.6,902.9,1104.3,907.2,1104z"/>
		<path class="st28" d="M892.2,1097.9c-0.4,0.9-0.5,2-0.4,3.4c0.2,1.3,0.8,2.5,1.6,3.4c0.3,0,0.6,0,0.8,0c4-0.1,8.1-0.3,12.1-0.6
			c0.2-0.3,0.3-0.6,0.5-0.9c0.8-2.1,0.5-4.5-0.9-6.2C901.9,1096.2,896.3,1096.2,892.2,1097.9z"/>
	</g>
	<path class="st23" d="M926.9,1161.3c5-2,9-5.9,12.5-10c-2.9,5.7-6.4,11-10.5,15.9c-2.2,2.7-5.3,5.5-8.7,4.9
		c-3.2-0.5-5.2-3.8-6.5-6.8c-1.2-2.7-2.1-5.5-3-8.3C911.5,1164,922.2,1163.2,926.9,1161.3z"/>
	<path class="st28" d="M915,1145.6c-7.8-0.3-15,3.6-21.8,7.4c-6.8,3.8-14.1,7.7-21.8,7.2c-2.8-0.2-5.8-1.2-7-3.6
		c-0.7-1.3-0.6-3.1,0.5-4c1.2-0.9,3.3,0.2,2.9,1.6c1.1-0.1,1.4-1.8,0.6-2.6c-0.8-0.8-2-0.9-3.2-0.9c-0.7,0-1.5-0.1-2.1,0.3
		c-0.5,0.3-0.9,0.8-1.2,1.3c-2.3,4-0.2,9.4,3.6,12.1s8.7,3.1,13.3,2.8c4.9-0.3,9.8-1.5,14.4-3.3c5.7-2.3,11.1-5.7,17.2-6.2
		c4-0.3,8,0.6,11.8-0.6c0.8-0.2,1.6-0.6,2.1-1.2c1.1-1.2,1-3.3,0.1-4.8C922.7,1148.2,918.3,1145.7,915,1145.6z"/>
	<path class="st28" d="M930.7,1144.8c7.8,0,14.8,4.3,21.4,8.4s13.7,8.3,21.5,8.2c2.8-0.1,5.8-0.9,7.2-3.3c0.7-1.3,0.8-3.1-0.4-4
		c-1.1-0.9-3.3,0.1-3,1.5c-1.1-0.1-1.3-1.9-0.5-2.7c0.8-0.8,2.1-0.8,3.2-0.8c0.7,0,1.5,0,2.1,0.4c0.5,0.3,0.9,0.8,1.2,1.3
		c2.1,4.1-0.2,9.4-4.1,11.9c-3.9,2.5-8.8,2.7-13.4,2.2c-4.9-0.6-9.7-1.9-14.2-3.9c-5.6-2.5-10.8-6.2-16.9-6.9
		c-3.9-0.5-8.1,0.3-11.8-1.1c-0.8-0.3-1.5-0.7-2.1-1.3c-1.1-1.3-0.9-3.3,0.1-4.8C922.8,1147.1,927.3,1144.8,930.7,1144.8z"/>
	<path class="st28" d="M913.1,1030.2c-7.9,0.2-15.7,2.5-22.6,6.4c-4.2,2.4-8.1,5.3-11.3,8.9c-7.4,8.2-10.7,19.5-11.8,30.5
		c-0.7,7.4-0.5,15.2,3,21.7c0.5-7.4,3.2-14.5,7.8-20.4c-1.4,2.7-1.8,6-1,8.9c1.4-6.4,5.7-12.1,11.5-15.2c-1.2,2.5-2,5.2-2.1,8
		c1.5-2.3,3.9-3.8,6.2-5.2c5.8-3.5,11.7-6.6,17.8-9.4c-1.1,2.7-2.3,5.4-3.4,8.2c7.2-1.6,14.2-4.4,20.6-8.2c3.5-2.1,6.8-4.4,9.4-7.6
		c2.6-3.1,4.3-7.1,4.2-11.1c-0.2-5.7-3.6-9.1-8.5-11C926.3,1032.2,920.3,1030.1,913.1,1030.2z"/>
	<path class="st28" d="M941.8,1051.7c0.8,2.2,2,4.2,3.4,5.9c2.4,2.9,5.7,4.9,8.7,7.2c4.1,3.1,8,6.6,10.8,10.9
		c2.8,4.3,4.4,9.6,3.6,14.7c1.7-7.7,3-15.5,2.6-23.4c-0.3-7.9-2.3-15.8-6.8-22.3c-4.4-6.5-11.5-11.4-19.3-12.3
		c-2.1-0.2-4.2-0.2-6.1,0.8c-1.9,0.9-3.3,2.8-3.3,4.9c0.1,2.6,2.1,3.6,3.5,5.4C940.7,1045.8,940.8,1049.1,941.8,1051.7z"/>
	<path class="st37" d="M875.1,1064.7c1.9-4.7,5-8.9,8.9-12c-1.9,2-3.5,4.3-4.6,6.8c1.4-1.8,3-3.4,4.7-4.9c-1.9,2.8-3.9,5.9-3.7,9.2
		c3.2-6.4,8.6-11.5,14.8-15.1s13.1-5.7,20.1-7.1c-3.8,0-7.6,0.8-11,2.2c5.5-2.5,11.3-4.2,17.1-5.9c-3.7-1-7.6-0.2-11.3,0.8
		c-5,1.4-9.8,3.3-14.4,5.6c4.5-3.7,9.5-6.8,14.7-9.3c-4.6,1.2-9.1,2.9-13.4,4.9c2.5-1.9,5-3.8,7.5-5.6c-11.7,3.6-21.5,10-26.7,21.4
		C876.5,1058.7,876.2,1061.8,875.1,1064.7z"/>
	<path class="st37" d="M904.8,1059.5c3.1-2.9,6.8-5.3,10.7-6.8c-1.7,1-3.3,2.3-4.7,3.8c2-1.5,4.2-2.6,6.5-3.5
		c-1.8,1.6-3.3,3.6-4.4,5.8c5.6-4.6,12-8.3,18.8-10.7c-2.1,0.5-4.2,1-6.3,1.5c2.3-1.3,4.6-2.5,6.9-3.8c-5.4,1.2-10.5,3.4-15.1,6.4
		c4.9-3.5,10-6.7,15.3-9.5c-3.2,0.6-6.3,1.7-9.2,3.2c2.2-1.3,4.4-2.7,6.6-4.1C919.9,1045.8,911,1050.4,904.8,1059.5z"/>
	<path class="st37" d="M956,1048.5c2.5,3.1,4.5,6.6,6.4,10.2c-0.6-1.8-1.2-3.7-1.7-5.5c4.2,4.7,6.9,10.6,7.8,16.8
		c-1.1-10.3-5.6-20.3-12.7-27.9c1.2,2.1,2.3,4.2,3.5,6.3c-3.7-5.9-10.3-9.9-17.3-10.3c1.8,1,3.6,2,5.4,2.9c-0.5-0.2-2,0.1-2.5,0.2
		C949.5,1042.4,953,1044.8,956,1048.5z"/>
	<path class="st25" d="M1073.3,1456.3c6.2,0.2,12,2.9,17.4,5.6s10.8,5.7,16.9,6.7c4.7,0.8,9.6,0.4,14.4,0.8c2.5,0.2,5.6,1.2,5.6,3.4
		c0,1.9-2.4,3-4.5,3.6c-16.9,5.1-34.2-0.8-52.7,2c-5.7,0.9-12.8-8.9-12.9-14.7c2.4-1.2,3.5-4,6.2-5.4
		C1066.7,1456.9,1070,1456.2,1073.3,1456.3z"/>
	<path class="st32" d="M1012.7,1231.8c5.1,8.7,9.7,17.7,13.6,27c-2.2-11.3-4.7-22.6-7.4-33.8c-0.1-0.4-0.2-0.7-0.5-1
		c-0.3-0.2-0.6-0.3-1-0.3c-4-0.5-8.5-1.6-12.4-1.3c0.8,1.3,2.2,2.1,3.2,3.2C1010,1227.4,1010.9,1230.1,1012.7,1231.8z"/>
	<path class="st34" d="M943.6,1246.3c-1.2-0.1-2.4,0.7-3,1.8c-0.6,1.1-0.8,2.3-0.9,3.6c-0.1,1.9,0,3.8,0.9,5.4s2.8,2.8,4.6,2.5
		c1.5-0.3,2.7-1.5,3.3-2.9c0.6-1.4,0.7-2.9,0.9-4.5c0.1-1.2,0.2-2.5-0.4-3.7c-1.2-2.3-4.3-2.6-6.8-2.5L943.6,1246.3z"/>
	<path class="st34" d="M947,1277.2c-1.2-0.1-2.4,0.7-3,1.8s-0.8,2.3-0.9,3.6c-0.1,1.9,0,3.8,0.9,5.4s2.8,2.8,4.6,2.5
		c1.5-0.3,2.7-1.5,3.3-2.9c0.6-1.4,0.7-2.9,0.9-4.5c0.1-1.2,0.2-2.5-0.4-3.7c-1.2-2.3-4.3-2.6-6.8-2.5L947,1277.2z"/>
	<path class="st34" d="M948.7,1316.3c-1.2-0.1-2.4,0.7-3,1.8s-0.8,2.3-0.9,3.6c-0.1,1.9,0,3.8,0.9,5.4s2.8,2.8,4.6,2.5
		c1.5-0.3,2.7-1.5,3.3-2.9c0.6-1.4,0.7-2.9,0.9-4.5c0.1-1.2,0.2-2.5-0.4-3.7c-1.2-2.3-4.3-2.6-6.8-2.5L948.7,1316.3z"/>
	<path class="st34" d="M951.9,1361.3c-1.2-0.1-2.4,0.7-3,1.8s-0.8,2.3-0.9,3.6c-0.1,1.9,0,3.8,0.9,5.4s2.8,2.8,4.6,2.5
		c1.5-0.3,2.7-1.5,3.3-2.9c0.6-1.4,0.7-2.9,0.9-4.5c0.1-1.2,0.2-2.5-0.4-3.7c-1.2-2.3-4.3-2.6-6.8-2.5L951.9,1361.3z"/>
</g>
<polygon class="st23" points="94.5,25.5 107.7,52.2 137.1,56.4 115.8,77.2 120.8,106.5 94.5,92.7 68.2,106.5 73.2,77.2 51.9,56.4 
	81.3,52.2 "/>
<polygon class="st23" points="196.6,78.5 209.8,105.2 239.2,109.4 217.9,130.2 222.9,159.5 196.6,145.7 170.3,159.5 175.3,130.2 
	154,109.4 183.4,105.2 "/>
<polygon class="st23" points="299.8,25.5 312.9,52.2 342.4,56.4 321.1,77.2 326.1,106.5 299.8,92.7 273.4,106.5 278.5,77.2 
	257.2,56.4 286.6,52.2 "/>
<polygon class="st23" points="409.5,78.5 422.7,105.2 452.1,109.4 430.9,130.2 435.9,159.5 409.5,145.7 383.2,159.5 388.2,130.2 
	367,109.4 396.4,105.2 "/>
<polygon class="st23" points="512.7,25.5 525.9,52.2 555.3,56.4 534,77.2 539,106.5 512.7,92.7 486.4,106.5 491.4,77.2 470.1,56.4 
	499.5,52.2 "/>
<polygon class="st23" points="631.2,78.5 644.3,105.2 673.8,109.4 652.5,130.2 657.5,159.5 631.2,145.7 604.8,159.5 609.9,130.2 
	588.6,109.4 618,105.2 "/>
<polygon class="st23" points="734.3,25.5 747.5,52.2 776.9,56.4 755.6,77.2 760.7,106.5 734.3,92.7 708,106.5 713,77.2 691.7,56.4 
	721.2,52.2 "/>
<polygon class="st23" points="864,78.5 877.2,105.2 906.6,109.4 885.3,130.2 890.3,159.5 864,145.7 837.7,159.5 842.7,130.2 
	821.4,109.4 850.9,105.2 "/>
<polygon class="st23" points="967.2,25.5 980.3,52.2 1009.8,56.4 988.5,77.2 993.5,106.5 967.2,92.7 940.8,106.5 945.9,77.2 
	924.6,56.4 954,52.2 "/>
<polygon class="st23" points="1280.6,11.5 1293.8,38.1 1323.2,42.4 1301.9,63.2 1306.9,92.5 1280.6,78.7 1254.3,92.5 1259.3,63.2 
	1238,42.4 1267.4,38.1 "/>
<polygon class="st23" points="1382.7,64.5 1395.9,91.1 1425.3,95.4 1404,116.2 1409.1,145.5 1382.7,131.6 1356.4,145.5 
	1361.4,116.2 1340.1,95.4 1369.6,91.1 "/>
<polygon class="st23" points="1485.9,11.5 1499.1,38.1 1528.5,42.4 1507.2,63.2 1512.2,92.5 1485.9,78.7 1459.6,92.5 1464.6,63.2 
	1443.3,42.4 1472.7,38.1 "/>
<polygon class="st23" points="1595.7,64.5 1608.8,91.1 1638.3,95.4 1617,116.2 1622,145.5 1595.7,131.6 1569.3,145.5 1574.4,116.2 
	1553.1,95.4 1582.5,91.1 "/>
<polygon class="st23" points="1698.8,11.5 1712,38.1 1741.4,42.4 1720.1,63.2 1725.2,92.5 1698.8,78.7 1672.5,92.5 1677.5,63.2 
	1656.2,42.4 1685.7,38.1 "/>
<polygon class="st23" points="1817.3,64.5 1830.5,91.1 1859.9,95.4 1838.6,116.2 1843.6,145.5 1817.3,131.6 1791,145.5 1796,116.2 
	1774.7,95.4 1804.1,91.1 "/>
<polygon class="st23" points="1920.4,11.5 1933.6,38.1 1963,42.4 1941.7,63.2 1946.8,92.5 1920.4,78.7 1894.1,92.5 1899.1,63.2 
	1877.8,42.4 1907.3,38.1 "/>
<polygon class="st23" points="2050.1,64.5 2063.3,91.1 2092.7,95.4 2071.4,116.2 2076.5,145.5 2050.1,131.6 2023.8,145.5 
	2028.8,116.2 2007.6,95.4 2037,91.1 "/>
<polygon class="st23" points="2153.3,11.5 2166.5,38.1 2195.9,42.4 2174.6,63.2 2179.6,92.5 2153.3,78.7 2127,92.5 2132,63.2 
	2110.7,42.4 2140.1,38.1 "/>
<circle class="st23" cx="878" cy="699.5" r="23.1"/>
<circle class="st23" cx="1701.4" cy="816.8" r="23.1"/>
<g>
	<path class="st38" d="M1690.4,2000.2c-30.6,5.8-71.2,8.9-114.5,8.9c-43.3,0-83.9-3.2-114.5-8.9c-38.3-7.2-45.6-15.4-46.7-19.5
		l12.5-26.8c1.3,5.6,10.7,13.1,44,19.4c28.1,5.4,65.5,8.3,105.3,8.3c39.7,0,77.1-3,105.2-8.3c31.5-6,41.5-13,43.7-18.5l11.8,24.7h0
		C1737.2,1983,1732.7,1992.2,1690.4,2000.2z"/>
	<path class="st39" d="M1413.9,1982.7c2.8,5.8,14.1,13,47.3,19.3c30.7,5.8,71.4,8.9,114.7,8.9c43.3,0,84.1-3.2,114.8-8.9
		c34.8-6.6,45.6-14.2,47.7-20.1l15.9,33.2c-0.2,4.1-4.8,8.3-13.6,12.2c-8.9,4.1-21.8,7.7-38.1,10.8c-33.7,6.5-78.5,10-126.1,10
		c-47.7,0-92.5-3.5-126.2-10c-16.4-3.1-29.2-6.7-38.1-10.8c-8.7-3.9-13.4-8.2-13.5-12.2L1413.9,1982.7z"/>
	<path class="st38" d="M1527.3,1980c15.6,1.1,32.2,1.6,49.3,1.6c20.6,0,40.6-0.8,59.1-2.3c2.6,6.8,5.2,13.6,7.7,20.3
		c0.8,2.2,1.6,4.4,2.3,6.6c-21.5,1.9-45.2,3-69.7,3c-18.3,0-36.2-0.6-53.1-1.7C1524.2,1998.3,1525.5,1989.1,1527.3,1980z"/>
	<path class="st38" d="M1427.3,1953.8c1.3,5.5,10.2,12.7,41.5,18.9c-1.1,2.7-2.3,5.4-3.4,8.1c-2.6,6.2-5.2,12.3-7.8,18.6
		c-34.9-7-41.8-14.8-42.8-18.8L1427.3,1953.8z"/>
	<path class="st38" d="M1700.7,1998c-3.6-8.8-7.2-17.7-10.8-26.5c25.1-5.6,33.6-11.8,35.6-16.8l11.8,24.7h0
		C1737.2,1982.7,1733.5,1990.6,1700.7,1998z"/>
	<path class="st39" d="M1740.8,2027.3c-6.4,2.9-14.8,5.6-25,8c-4.8-11.8-9.5-23.7-14.3-35.6c26.4-6,35.1-12.6,37-17.9l15.9,33.2
		C1754.1,2019.1,1749.5,2023.3,1740.8,2027.3z"/>
	<path class="st39" d="M1522.2,2012c0.2-0.9,0.3-1.8,0.4-2.8c16.9,1.1,34.9,1.7,53.3,1.7c24.8,0,48.7-1,70.3-3
		c4.2,12,7.9,24.2,11.5,36.5c-24.8,2.4-52.5,3.7-81.2,3.7c-20.4,0-40.2-0.7-58.9-1.9C1519,2034.8,1520.6,2023.4,1522.2,2012z"/>
	<path class="st39" d="M1413.9,1982.7c2.7,5.5,13.1,12.4,43.1,18.4c-3.7,8.9-7.2,17.9-10.3,27c-1,2.8-1.9,5.8-2.8,8.6
		c-13.2-2.8-23.7-6-31.4-9.5c-8.7-3.9-13.4-8.2-13.5-12.2L1413.9,1982.7z"/>
	<path class="st40" d="M1690.7,2002c-30.7,5.8-71.4,8.9-114.8,8.9c-43.3,0-84.1-3.2-114.7-8.9c-33.3-6.3-44.6-13.5-47.3-19.3l1-2.1
		c1.1,4.1,8.4,12.3,46.7,19.5c30.6,5.8,71.2,8.9,114.5,8.9c43.3,0,83.9-3.2,114.5-8.9c42.2-7.9,46.8-17.2,46.8-20.7h0l1.1,2.4
		C1736.3,1987.7,1725.6,1995.4,1690.7,2002z"/>
</g>
<g>
	<path class="st41" d="M1510.9,1544c-0.4,2.5,0.9,5.2,2.5,7.5C1509.7,1551.1,1506.2,1547.6,1510.9,1544z"/>
	<path class="st23" d="M1513.8,1585.9c-0.9,1.5-1.8,1.7-2.9-0.4c-0.9,5.2-4.3,5.2-6-6.1c0.3-0.7,0.7-1.4,1.2-2
		c3.1-1.1,6-2.6,8.3-3.9c0,0-0.3,4.3,0.5,8.8v0.1C1514.7,1583.9,1514.2,1585.1,1513.8,1585.9z"/>
	<path class="st42" d="M1570.8,1922.4c5.9-0.6,3.6,10-1.6,16.2c-0.4,0-0.7-0.1-1-0.3c0.7-2.5,1.6-6.7,1-10.3
		C1568.4,1922.3,1570.8,1922.4,1570.8,1922.4z"/>
	<path class="st42" d="M1546.8,1941c-1.6,3.9-3.7,6.1-3.7,6.1c-1.3-2.4-2.1-5-2.4-7.5C1542.6,1941.1,1544.7,1941.8,1546.8,1941z"/>
	<path class="st42" d="M1580.8,1940.2c0,2.9,0.3,5.2,0.3,5.2c-2.3-3.1-3.8-7.1-4.5-10.7C1577.7,1937.4,1579.2,1939.2,1580.8,1940.2z
		"/>
	<path class="st43" d="M1534.2,1548c0,0-1.7,5.8-12.8,3.6l-0.4-0.3c-1.1,1.6-1.7,3.7-2.1,5.9c0,0-3.1-2.5-5.5-5.8
		c-1.6-2.3-2.9-5-2.5-7.5C1511.8,1537.9,1534.2,1537.7,1534.2,1548z"/>
	<path class="st42" d="M1501.1,1916c-0.3,2.9,0.4,5.6,0.4,5.6c-1.9-2.9-2.9-6.9-3-10.1c0.1-0.1,0.3-0.2,0.5-0.2
		c0.4,1.4,1.1,2.9,2.1,4.5C1501,1915.9,1501.1,1915.9,1501.1,1916z"/>
	<path class="st44" d="M1587.9,1911.4c29.6-27.6,24.6-68.5,20.7-84.1l-0.1-0.1c2.1-2.1,4.1-3.8,5.9-5.3c11.7-9.4,4-23.1,3.6-40.4
		c7.2-13.7,17.7-20.8,27.8-22.8c12.1-2.5,23.7,2.2,28.4,11c8.7,16.4,5.1,61.9,0,73.1c-3.1,6.8-17.9,24.1-31.8,42.7
		c-2.5,3.3-4.9,6.6-7.2,9.9c-3,4.3-5.8,8.5-8.3,12.6c-2.8,4.7-5.3,9.1-7.1,13.3c-1-2.1-2.5-3.7-4.3-4.5c-3.6-1.5-6.5-2.4-9.9,3.9
		c-0.4-5.7-2.8-10.2-7.5-9.5c-2.3,0.3-4.1,1.1-5.6,2.2C1591,1912.5,1589.4,1911.8,1587.9,1911.4z"/>
	<path class="st45" d="M1598.4,1937c1.5-8.8-0.2-11.5-2.2-11.6c-3.2-0.2-5.2,7.2-4.4,15.2c-0.7-0.7-1.3-1.7-2-2.8
		c-3.6-6.8-4.2-19,2.6-24.2c1.5-1.1,3.3-1.9,5.6-2.2c4.7-0.7,7.1,3.8,7.5,9.5c0.5,5.8-1,13-4.3,17.6c-1,1.3-2,2.4-3.2,3.2
		c-0.4,0.2-0.7,0.4-1,0.6C1597.6,1940.8,1598.1,1939,1598.4,1937z"/>
	<path class="st42" d="M1501,1915.9c-1-1.7-1.7-3.2-2.1-4.5c-0.1-0.6-0.2-1-0.4-1.5c0.4-2.8,1.8-4.4,4.4-3.2c0,0,3.2,1.3,0,4.8
		c-1.2,1.3-1.7,3-1.9,4.6C1501.1,1915.9,1501,1915.9,1501,1915.9z"/>
	<path class="st42" d="M1514.4,1941.1c-5.6-5.6-8.9-15.3-6.9-19.5h0.1c0.2,0,0.4-0.1,0.7-0.1c0.5,3.2,2.2,6.4,4.2,8.8
		C1511.8,1935,1513.9,1940,1514.4,1941.1z"/>
	<path class="st46" d="M1526.4,1911.1c-1.5-2-3.2-3.2-5-4c11.3-9.2-5.6-74.4-19.4-111.2c-4.2-11-8.4-20.4-12.2-29
		c-8.8-20.1-15-35.8-10.6-57c6.5,11.5,14.5,23.4,24,34.4c33.4,38.3,44,77.7,44,77.7s-1.7,39.9-4.5,55.7c-2.8,15.3-6.6,25.4-13.6,33
		C1528.2,1910.6,1527.4,1910.7,1526.4,1911.1z"/>
	<path class="st46" d="M1543.5,1663.6c-9.1,8.6-17.8,22.1-22,43.4c-2.3-18.7-18.6-36.1-25.4-44.5c-2.8-3.5-2.6-5.2-0.4-5.6
		c1.7-0.4,4.5-0.2,8,0.4c1.5,0.2,3.2,0.6,5,0.9c1.5,0.4,3.2,0.7,4.8,1c1.4,0.3,2.8,0.6,4.2,0.9c2.4,0.5,5,0.9,7.4,1.3
		c3.3,0.5,6.4,0.9,9.1,1c3.5,0.2,6.2,0.1,7.5-0.7L1543.5,1663.6z"/>
	<path class="st47" d="M1513.8,1585.9c0.4-0.8,0.9-2,1.2-3.6c0.1,0.7,0.3,1.5,0.5,2.2c0.9,3.1,2.4,0.2,3.4-2.4
		c0.1,0.3,0.1,0.7,0.2,1c1.2,5.4,3.6,3.1,4.5-1.6c0.4,8,2.9,7.1,4.2,0.1c0.2,2,1.5,11.7,4.5,1.5c0,12.1,6.5,20,6.8,17.4
		c0.2-2.9-0.6-12,4.8-20.2c4-0.2,7.7-1.3,10.5-3.4c0,0,5.6,19.4,12,26.3c6.4,6.9,5.8,7.4-2.9,15.1c-1.3,1.2-2.8,2.7-4.3,4.5
		c-1.3-18-13.4-19.9-14.8-17.3c-1.4,2.7,3.2,13.9-6.1,13.6c-9.4-0.4-0.7-16.2-8.2-14.5c-7.4,1.8-12.6,9.1-11.2,21l0.1,0.1
		c-2,0.4-4.1,1.1-6.1,2.2c-0.2-1,0.1-4.7,4.3-18C1523.5,1589.7,1513.8,1585.9,1513.8,1585.9z"/>
	<path class="st45" d="M1565,1914.4c4.4,3.9,3.9,15.5-0.9,21.6c-0.8,1-1.7,1.8-2.6,2.5c3.9-7.7,4.2-16.4-2.4-14.9
		c0,0-3.3,0.2-1.4,6.7c0.8,2.8,0.7,6,0.3,8.8c-1.9-0.4-3.7-2.3-5-4.8h-0.1c2.6-5.5,2.6-12.6,0.3-17.2c1.5-2,3.9-3.6,7.2-4.1
		C1562.3,1912.8,1563.8,1913.2,1565,1914.4z"/>
	<path class="st23" d="M1502.2,1647.2c0.4-3.4,2.6,2.5,6.3,8.4h0.1c0,0.7,0,1.6,0.1,2.5c-1.8-0.3-3.5-0.7-5-0.9
		c-0.4-0.5-0.8-1-1.1-1.6C1501.9,1648.1,1501.9,1650.7,1502.2,1647.2z"/>
	<path class="st42" d="M1610.7,1941.7c-1.2,1.3-2.7,2.5-4.2,3.4c0.2-0.3,0.9-1.7,1.7-3.4C1609.1,1941.8,1609.9,1941.8,1610.7,1941.7
		z"/>
	<path class="st48" d="M1455.6,1655.7c0,0-25.1-44.2-10.1-88.1c13.2-4.2,28.1-5.8,37.7-6.4c-0.2,2.2-0.1,4.2,0.6,6.2
		c1,3.7,3.5,7.2,6.8,9.8c1.7,1.2,3.7,1.8,5.9,2c0,0-2.4,9.7,4.4,19.3c2.4,3.4,3,2.5,3-0.3c4.8,9.8,9.3,12.8,4.8,18.9
		c-4.5,6.1-11.2,14.2-12.6,22.9c0-2.7-5.9,5.1-0.4,16.9c-2.2,0.5-2.4,2.2,0.4,5.6c6.8,8.5,23.2,25.8,25.4,44.5
		c4.2-21.3,12.9-34.8,22-43.4c15.2-14.2,31.7-14.8,31.7-14.8c2.8-28,12.8-44.3,20.7-53c5.4-6.1,9.8-8.4,9.8-8.4l-13.9,4.6
		c0.6-5.8,1.6-10.8,2.8-15.2c1.2-4.4,2.5-8.1,3.9-11.2c3.6-7.8,7.2-11.3,7.2-11.3c17.3,9.8,36.9-1.5,36.5-18.6
		c-0.6-18.9-29.7-29.1-41.9-8.2c0,0-22.4-9.3-43.7-29.8c-13.9,2.8-28.2,7.5-39.5,15l-0.1-0.1c-2.3-10.2-19.7-15-27.6-6.1
		c-7.9,8.9-5.2,27.8,7.8,28.4c-1.7,3.9-2.8,8.2-3.2,12.9c-4,2-6.8,4.5-8.5,7.3c-9-1.5-24.3-2.9-41.1,1c-2.3-10.7-2.3-31.5,22-54.4
		c0,0-0.7-31.1,39-38.8c0,0,23.1-31.2,58.2-7.1c0,0,10.3-13.3,0-23.6c0,0,12.8,2.6,11.7,23c0,0,9.6-16.9,9.1-27.6
		c0,0,1.5,16.8-2.5,25c1.2-1.8,26.3-37.8,39.7-19.4c0,0-18.3-4-29.8,19.9c0,0,5.9-5.1,17.1-0.5c0,0-11.4,1.5-17.1,11.2
		c1.6-0.7,25-11.5,47.2,8.2l-5.6,3.6c0,0,32.7,2.9,48.5,49.4c-0.8-0.3-7.7-3.1-9.6-2.5c0,0,25,27.7,1,59.4c0,0,19.9,37.2-9.7,84.2
		c0,0,0.2,13.5-12.3,32.6c-6.7,10.4-17.3,22.4-33.7,34.9c-46.5,35.3-70.3,87.9-70.3,87.9s-10.5-39.4-44-77.7
		c-9.6-11-17.5-22.9-24-34.4C1462.9,1681.3,1455.6,1655.7,1455.6,1655.7z"/>
	<path class="st23" d="M1513.3,1650.4c1-6.4,3,1,4.1,7.3c0.1,0.8,0.2,1.6,0.4,2.3c-1.4-0.2-2.8-0.6-4.2-0.9c0,0-0.7-3.8-0.4-7.2
		C1513.2,1651.4,1513.2,1650.9,1513.3,1650.4z"/>
	<path class="st42" d="M1569.2,1938.7c-0.5,0.7-1.1,1.3-1.7,1.9c0,0,0.3-0.9,0.7-2.2C1568.6,1938.6,1568.9,1938.7,1569.2,1938.7z"/>
	<path class="st23" d="M1539.2,1600.7c-0.2,2.6-6.8-5.3-6.8-17.4v-0.1c0-1.3,0.1-2.8,0.2-4.2c3.7,1.1,7.6,1.7,11.3,1.4
		C1538.6,1588.7,1539.4,1597.8,1539.2,1600.7z"/>
	<path class="st23" d="M1527.9,1581.7c-1.3,7-3.9,7.8-4.2-0.1c0-0.1,0-0.1,0-0.1c0.4-1.9,0.6-4.3,0.2-6.6c1.3,1,2.8,1.8,4.5,2.6v0.1
		C1528.2,1579.1,1528.1,1580.5,1527.9,1581.7z"/>
	<path class="st46" d="M1553.2,1917.2c-1.7-3.4-4.6-5.3-8.7-4.3c-4.1,1-6.7,3-8.3,5.5c-1.3-4.2-3.8-7.5-7.1-7.7
		c7.1-7.5,10.8-17.7,13.6-33c2.8-15.8,4.5-55.7,4.5-55.7s23.8-52.7,70.3-87.9c16.4-12.4,27-24.5,33.7-34.9c1,25.2-13.8,44-5.4,59.6
		c-10.1,2-20.6,9.1-27.8,22.8c0.4,17.3,8.2,31-3.6,40.4c-1.8,1.5-3.9,3.2-5.9,5.3c-12.4,12.1-28,35.6-36.4,82.8
		c-4,0.7-7.2,4.3-7.2,4.3l-0.1,0.1c-1.2-1.2-2.6-1.7-4.5-1.3C1557.1,1913.6,1554.7,1915.1,1553.2,1917.2z"/>
	<path class="st45" d="M1589.9,1937.8c-1.5,2.8-5.6,4.5-9.1,2.4c0-2.9,0.4-6.6,1.7-9.6c2.9-6.3-0.4-6.9-0.4-6.9
		c-5.5-2.1-7,3.9-5.6,10.8c-0.1-0.4-0.2-0.7-0.4-1c-0.4-1.3-0.8-2.9-1-4.7c-1-7.7,0.9-13.2,4.3-15.9c2.3-1.9,5.3-2.5,8.5-1.6
		c1.5,0.4,3.1,1.1,4.6,2.2C1585.7,1918.8,1586.4,1931,1589.9,1937.8z"/>
	<path class="st23" d="M1517.4,1657.7c-0.5-3.3-0.4-7.5,0.3-9.5c0.8-2.3,2.6-0.7,6.2,7.1c0.2,2,0.6,4.1,1.2,6.1
		c-2.5-0.4-5-0.8-7.4-1.3C1517.6,1659.3,1517.5,1658.5,1517.4,1657.7L1517.4,1657.7z"/>
	<path class="st49" d="M1513.1,1652c-2.8-4.1-4.7-7.1-4.5,3.7h-0.1c-3.7-5.9-5.9-11.8-6.3-8.4c-0.4,3.5-0.3,0.8,0.3,8.4
		c-2.1-2.9-3.6-5.8-4.7-8.4c2.9-9.7,8.7-16.1,15-19.4c2-1.1,4.1-1.8,6.1-2.2c4.1-0.8,7.9-0.2,11.1,1.5c9.3-4.3,16.7-1.1,23.2,4.1
		c-5.8,9.3-10.5,20.8-10.5,29.2c-3.1-6.9-7.1-13.2-7.1-13.2s-3.9-0.4-4.1,11c-2.3-4.5-3.9-10.4-4.2-14.6c-0.7-7.3-4.3,1.2-3.4,11.7
		c-3.7-7.8-5.5-9.4-6.2-7.1c-0.7,2-0.8,6.2-0.3,9.5h-0.1c-1.1-6.3-3.1-13.7-4.1-7.3C1513.2,1650.9,1513.2,1651.4,1513.1,1652z"/>
	<path class="st23" d="M1495.7,1656.9c-5.5-11.8,0.4-19.6,0.4-16.9c0,0.1,0,0.1,0,0.1c-0.1,1.5,0.6,4.1,1.8,7.2
		c1,2.6,2.6,5.5,4.7,8.4c0.3,0.6,0.7,1.1,1.1,1.6C1500.2,1656.7,1497.3,1656.4,1495.7,1656.9z"/>
	<path class="st42" d="M1513.6,1926.6c-0.7,1.2-1,2.4-1.2,3.7c-2-2.3-3.7-5.5-4.2-8.8c-0.1-0.2-0.1-0.5-0.1-0.7c0.8-1,2.2-1.4,4.1-1
		C1512.2,1919.8,1517,1920.7,1513.6,1926.6z"/>
	<path class="st45" d="M1526.4,1911.1c-9.2,3.7-8.9,13.2-5.4,20.2c-0.6,4.9-5.1,3.2-8.6-1.1c0.1-1.3,0.5-2.5,1.2-3.7
		c3.4-5.9-1.4-6.8-1.4-6.8c-1.9-0.4-3.2,0-4.1,1c-0.1-0.6-0.1-1.2-0.1-1.7c0.4-8.8,7.1-14.3,13.4-12
		C1523.1,1907.8,1524.9,1909.1,1526.4,1911.1z"/>
	<path class="st46" d="M1634.3,1966.6c17.7-8.8,22.2-24.3,19.1-39.6c0-1.2-0.3-2.4-0.8-3.5c-2.9-10.5-9.3-20.5-17.2-28
		c2.3-3.3,4.7-6.6,7.2-9.9c11.6,8.9,33.4,35.4,17.5,69.2c0,0.1-0.1,0.1-0.1,0.1c-16.4,34.7-61.9,27.5-97.7,37
		c-36,9.5-41.2,25.3-48.9,36c-7.7,10.7,1,18.9-5.1,37.3c-6.1,18.4-26.1,24-26.1,24s0,0-1.5-26.6c-0.1-2.5-0.1-4.8,0.2-6.9
		c2.2-20.2,20.5-23.4,27.4-34.5C1540.8,1969.1,1602.7,1982.4,1634.3,1966.6z"/>
	<path class="st44" d="M1521.4,1907.1c-6.3-2.4-13,3.2-13.4,12c0,0.6,0,1.2,0.1,1.7c-0.2,0.2-0.4,0.6-0.6,0.9h-0.1
		c-2.6,0-5.3-3.7-6.4-5.6c0.2-1.6,0.7-3.3,1.9-4.6c3.2-3.6,0-4.8,0-4.8c-2.6-1.2-4.1,0.5-4.4,3.2c-2.3-12.2,16.8-11.7,16.8-11.7
		c-5.1-33.2-47.5-74.6-52.3-92.3c-4.8-17.7,8.9-41.6,26.7-38.9c3.8,8.6,8,18,12.2,29C1515.8,1832.7,1532.8,1897.9,1521.4,1907.1z"/>
	<path class="st46" d="M1556.4,1497.8c21.3,20.5,43.7,29.8,43.7,29.8c12.3-20.9,41.4-10.7,41.9,8.2c0.4,17-19.1,28.3-36.5,18.6
		c0,0-3.6,3.4-7.2,11.3c-1.4,3.1-2.8,6.8-3.9,11.2c-1.2,4.3-2.1,9.4-2.8,15.2l13.9-4.6c0,0-4.3,2.3-9.8,8.4
		c-17.5-12.3-31.5-18.9-39.9-22.4l-1.5,3.6c-2.8,2.1-6.5,3.2-10.5,3.4c-3.7,0.2-7.7-0.3-11.3-1.4c-1.5-0.4-2.9-1-4.2-1.5v-0.1
		c-1.7-0.7-3.2-1.6-4.5-2.6c-1.8-1.3-3.3-2.9-4.2-4.5c0,0,0,0.1-0.1,0.1c-0.2,0.1-2.3,1.5-5.2,3.1c-2.3,1.3-5.3,2.8-8.3,3.9
		c-3.2,1.2-6.6,2-9.7,1.8c-2.2-0.1-4.2-0.7-5.9-2c-3.3-2.5-5.8-6-6.8-9.8c-0.6-2-0.8-4.1-0.6-6.2c0.3-2,1-4,2.2-5.9
		c1.8-2.8,4.5-5.3,8.5-7.3c0.4-4.7,1.5-8.9,3.2-12.9c1.9-4.5,4.5-8.6,7.8-12.2c3.4-3.9,7.5-7.2,12-10.1
		C1528.3,1505.4,1542.5,1500.6,1556.4,1497.8z M1534.2,1548c0-10.3-22.4-10.2-23.3-4.1c-4.7,3.6-1.3,7.1,2.5,7.5
		c2.3,3.2,5.5,5.8,5.5,5.8c0.4-2.2,1-4.3,2.1-5.9l0.4,0.3C1532.6,1553.9,1534.2,1548,1534.2,1548z"/>
	<path class="st45" d="M1610.2,1932.5c0.2,3.1-1,6.7-2,9.2c-0.8,0.1-1.7-0.1-2.6-0.2c0,0-0.6,0.7-4.3-3c3.2-4.6,4.8-11.8,4.3-17.6
		c3.4-6.3,6.3-5.5,9.9-3.9c1.8,0.7,3.2,2.4,4.3,4.5v0.1c3.7,7.1,2.6,19.1-9.1,20.2c5.8-6,8.6-14.7,2.1-14.8
		C1612.8,1926.9,1609.9,1926.4,1610.2,1932.5z"/>
	<path class="st45" d="M1544.5,1912.9c4.1-1,7.1,0.9,8.7,4.3c2.3,4.6,2.3,11.7-0.3,17.2c-1,2.3-2.5,4.3-4.4,5.8
		c-0.6,0.4-1.1,0.7-1.7,0.8c0.6-1.4,1.2-3.1,1.5-4.9c1.6-8.5-0.6-11-2.8-11.2c-3.9-0.2-6.2,6.9-4.9,14.6c-1.8-1.3-3.5-3.5-4.6-6.1
		c-2.2-4.7-2.8-10.7,0.2-15.1c-0.1-0.1,0-0.1,0-0.1C1537.8,1915.9,1540.4,1913.9,1544.5,1912.9z"/>
	<path class="st42" d="M1561.4,1938.6c-1.2,2.4-2.9,4.7-4.7,6.6c0,0,0.8-2.6,1.2-6C1559,1939.5,1560.2,1939.4,1561.4,1938.6
		L1561.4,1938.6z"/>
	<path class="st23" d="M1532.4,1583.2L1532.4,1583.2c-3,10.2-4.3,0.5-4.5-1.5c0.2-1.2,0.4-2.6,0.6-4.2c1.3,0.6,2.8,1.1,4.2,1.5
		C1532.5,1580.4,1532.4,1581.8,1532.4,1583.2z"/>
	<path class="st23" d="M1527.4,1643.6c0.4,4.2,2,10.1,4.2,14.6c0.8,1.7,1.7,3.1,2.6,4.2c-2.7-0.2-5.8-0.6-9.1-1
		c-0.6-2-0.9-4-1.2-6.1C1523,1644.9,1526.7,1636.3,1527.4,1643.6z"/>
	<path class="st45" d="M1536.2,1918.4c-3,4.4-2.4,10.4-0.2,15.1c-0.6,1.7-1.5,3.2-2.6,4.3c-1,1-2.1,1.5-3.3,1.4
		c-0.5-2.9-0.7-6.6,0.2-9.8c1.9-6.6-1.4-6.7-1.4-6.7c-6.8-1.5-6.4,7.5-2.3,15.2c-2.1-1.3-4.1-3.7-5.5-6.6c-3.5-7-3.8-16.6,5.4-20.2
		c1-0.4,1.8-0.5,2.7-0.4C1532.4,1910.8,1534.8,1914.1,1536.2,1918.4C1536.2,1918.3,1536.2,1918.3,1536.2,1918.4z"/>
	<path class="st44" d="M1489.3,1506.7c7.9-9,25.3-4.1,27.6,6.1l0.1,0.1c-4.5,2.9-8.6,6.2-12,10.1c-3.3,3.6-5.9,7.7-7.8,12.2
		C1484.1,1534.5,1481.4,1515.7,1489.3,1506.7z"/>
	<path class="st42" d="M1508.1,1920.8c0,0.2,0.1,0.5,0.1,0.7c-0.2,0.1-0.4,0.1-0.7,0.1C1507.7,1921.3,1507.9,1921,1508.1,1920.8z"/>
	<path class="st42" d="M1582.1,1923.7c0,0,3.2,0.7,0.4,6.9c-1.3,2.9-1.7,6.6-1.7,9.6c-1.6-1-3.1-2.8-4.2-5.6v-0.1
		C1575.1,1927.7,1576.7,1921.6,1582.1,1923.7z"/>
	<path class="st42" d="M1612.8,1926.9c6.5,0.1,3.7,8.8-2.1,14.8h-0.1c-0.8,0.1-1.6,0.1-2.5,0c1-2.5,2.2-6.1,2-9.2
		C1609.9,1926.4,1612.8,1926.9,1612.8,1926.9z"/>
	<path class="st50" d="M1608.6,1827.3c3.9,15.6,8.9,56.5-20.7,84.1c-3.2-0.9-6.2-0.3-8.5,1.6c-2.4-2.8-5-3.4-7.2-2.9
		C1580.6,1862.8,1596.2,1839.4,1608.6,1827.3L1608.6,1827.3z"/>
	<path class="st42" d="M1596.3,1925.4c1.9,0.1,3.6,2.8,2.2,11.6c-0.3,2-0.9,3.8-1.4,5.3c-1.8,0.7-3.6-0.1-5.2-1.7
		C1591.1,1932.6,1593.1,1925.2,1596.3,1925.4z"/>
	<path class="st42" d="M1591.9,1940.6c1.5,1.7,3.3,2.4,5.2,1.7c-1.5,3.9-3.2,6.3-3.2,6.3C1592.7,1946,1592.1,1943.3,1591.9,1940.6z"
		/>
	<path class="st46" d="M1595.9,1595.8c-7.8,8.7-17.9,25-20.7,53c0,0-16.6,0.6-31.7,14.8l-1.7-1.8c0.6-0.3,0.9-0.7,0.9-1.3
		c0-8.5,4.8-20,10.5-29.2c1.9-3.1,3.9-5.9,5.9-8.3v-0.1c1.5-1.8,2.9-3.3,4.3-4.5c8.8-7.7,9.4-8.2,2.9-15.1c-6.4-6.9-12-26.3-12-26.3
		l1.5-3.6C1564.3,1576.9,1578.3,1583.5,1595.9,1595.8z"/>
	<path class="st44" d="M1575.1,1928.9c0.2,1.8,0.6,3.3,1,4.7c-0.3,0.9-2.1,6.1-6.9,5.2c5.2-6.2,7.5-16.8,1.6-16.2
		c0,0-2.4-0.2-1.6,5.6c0.6,3.6-0.4,7.8-1,10.3c-1.2-0.4-2.6-1.1-4.1-2.3c4.7-6.1,5.3-17.8,0.9-21.6l0.1-0.1c0,0,3.2-3.6,7.2-4.3
		c2.3-0.4,4.8,0.1,7.2,2.9C1576.1,1915.7,1574.1,1921.2,1575.1,1928.9z"/>
	<path class="st42" d="M1559,1923.7c6.7-1.5,6.4,7.2,2.4,14.9c-0.1,0.1-0.1,0.1-0.1,0.1h-0.1c-1.2,0.7-2.3,0.9-3.4,0.6
		c0.4-2.8,0.5-6-0.3-8.8C1555.7,1923.8,1559,1923.7,1559,1923.7z"/>
	<path class="st51" d="M1559.2,1622.8L1559.2,1622.8c-2,2.5-4.1,5.3-5.9,8.4c-6.5-5.2-13.9-8.4-23.2-4.1c-3.2-1.8-7.1-2.3-11.1-1.5
		l-0.1-0.1c-1.5-11.8,3.7-19.2,11.2-21c7.5-1.7-1.3,14.2,8.2,14.5c9.4,0.4,4.7-10.8,6.1-13.6
		C1545.8,1602.9,1557.9,1604.8,1559.2,1622.8z"/>
	<path class="st42" d="M1545.5,1925c2.3,0.1,4.4,2.7,2.8,11.2c-0.3,1.8-0.9,3.5-1.5,4.9h-0.1c-2,0.7-4.2,0.1-6.1-1.4
		c-0.1-0.1-0.1-0.1-0.1-0.1C1539.3,1931.8,1541.5,1924.7,1545.5,1925z"/>
	<path class="st23" d="M1542.7,1660.5c0,0.6-0.3,1-0.9,1.3c-1.3,0.7-4.1,0.9-7.5,0.7c-0.9-1.1-1.8-2.6-2.6-4.2
		c0.2-11.4,4.1-11,4.1-11S1539.6,1653.6,1542.7,1660.5z"/>
	<path class="st42" d="M1528.8,1922.8c0,0,3.3,0.2,1.4,6.7c-0.9,3.1-0.7,6.8-0.2,9.8c-1.2,0-2.3-0.5-3.5-1.3
		C1522.4,1930.2,1522,1921.3,1528.8,1922.8z"/>
	<path class="st42" d="M1530,1939.2c0.4,2.9,1.1,5,1.1,5c-1.8-1.8-3.4-4-4.6-6.3C1527.7,1938.8,1528.8,1939.2,1530,1939.2z"/>
	<path class="st23" d="M1523.9,1574.8c0.3,2.3,0.1,4.7-0.2,6.6c0,0.1,0,0.1,0,0.1c-1,4.7-3.3,7-4.5,1.6c-0.1-0.3-0.1-0.7-0.2-1v-0.1
		c-1.2-6.4,0.4-10.9,0.7-11.7c0.1-0.1,0.1-0.1,0.1-0.1C1520.6,1572,1522,1573.5,1523.9,1574.8z"/>
	<path class="st23" d="M1518.9,1582.1L1518.9,1582.1c-1.1,2.7-2.6,5.5-3.4,2.5c-0.2-0.7-0.4-1.5-0.5-2.2v-0.1
		c-0.8-4.5-0.5-8.8-0.5-8.8c2.9-1.7,4.9-3,5.2-3.1C1519.3,1571.2,1517.7,1575.7,1518.9,1582.1z"/>
	<path class="st52" d="M1513.8,1585.9c0,0,9.7,3.8,3.3,24c-4.2,13.3-4.5,17-4.3,18c-6.2,3.2-12,9.7-15,19.4
		c-1.3-3.1-1.9-5.6-1.8-7.2c0-0.1,0-0.1,0-0.1c1.5-8.6,8.1-16.7,12.6-22.9s0.1-9.2-4.8-18.9c-0.1-4.4-1.4-13.6,1-18.8
		c1.7,11.3,5.1,11.3,6,6.1C1512,1587.6,1513,1587.5,1513.8,1585.9z"/>
	<path class="st23" d="M1513.1,1652c-0.2,3.4,0.4,7.2,0.4,7.2c-1.7-0.4-3.3-0.7-4.8-1c-0.1-0.9-0.1-1.8-0.1-2.5
		C1508.4,1644.9,1510.3,1647.9,1513.1,1652z"/>
	<path class="st23" d="M1506.2,1577.4c-0.5,0.6-0.9,1.2-1.2,2c-2.4,5.2-1.1,14.3-1,18.8c0,2.8-0.6,3.7-3,0.3
		c-6.8-9.5-4.4-19.3-4.4-19.3C1499.5,1579.4,1502.9,1578.6,1506.2,1577.4z"/>
	<path class="st42" d="M1498.6,1909.8c0.1,0.5,0.2,1,0.4,1.5c-0.2,0.1-0.4,0.1-0.5,0.2C1498.4,1911,1498.5,1910.4,1498.6,1909.8z"/>
	<path class="st48" d="M1485.4,1555.3c-1.2,1.9-1.8,3.9-2.2,5.9c-9.6,0.6-24.5,2.2-37.7,6.4c0.4-1.2,0.9-2.5,1.3-3.7
		c0,0-1.5-2.8-2.6-7.5C1461,1552.4,1476.4,1553.8,1485.4,1555.3z"/>
	<g>
		<g>
			<g>
				<g>
					<path class="st53" d="M1482.1,2088.9c4.7-3.8,8.8-7.5,12.3-11.3c3.4-3.9,6.2-7.9,7.9-12.4c1.9-4.7,3.1-9.4,3.9-14.7l1-8.5
						c0.5-3,1.2-6.3,3.1-8.8l0.6,0.2c-1.5,5.5,0.1,11.3,0.1,17.1c0.1,5.8-1,11.6-3,17.1c-2.3,5.4-6,10.1-10.5,13.8
						c-4.5,3.6-9.7,6.5-15.2,8.2L1482.1,2088.9z"/>
				</g>
			</g>
		</g>
	</g>
	<g>
		<g>
			<g>
				<g>
					<path class="st54" d="M1503.7,2027.3c-1.8,7.3-6.1,12.7-8.1,17c-2.2,4.5-2.9,7.4-3.6,11.2c-0.4,1.9-0.6,4.1-0.9,6.4
						c-0.2,2.9-0.5,6-1.2,9c-1.2,6-3.1,12.1-7.1,18.3l-1.2,0.1c-0.6-5.9-1.1-11.9-1.4-17.8c-0.3-5.9-1.3-11.9-0.2-18.1
						c1.1-6.1,4.3-11.8,8.8-16c4.4-4.3,9.6-7.3,14.2-11L1503.7,2027.3z"/>
				</g>
			</g>
		</g>
	</g>
	<g>
		<g>
			<g>
				<g>
					<path class="st55" d="M1651.9,1699.2c0.4,5.1,0.2,10.3-0.7,15.3c-0.8,5.1-2,10-3.3,14.9c-1.3,4.9-2.8,9.7-3.4,14.7
						c-0.6,4.9-0.2,9.9,1.9,14.4l-1.1,0.6c-6.5-2.6-9.8-9.9-10.5-16c-1-6.3,0-11.9,1.2-16.8c1.3-4.9,3.1-9.2,5.5-13.5
						c2.3-4.3,4.9-8.4,9.1-13.6L1651.9,1699.2z"/>
				</g>
			</g>
		</g>
	</g>
	<path class="st56" d="M1491,1767.1c5.8,13.1,11.7,26.3,16.3,40c5.4,16.3,10.1,32.9,13.7,49.7c1.8,8.4,3.3,16.9,4.2,25.4
		c0.4,4.3,0.7,8.6,0.5,12.9c-0.3,4.2-0.4,9-4,12.4l-0.8-0.9c1.1-1.7,1.2-3.7,1.2-5.6c0-2-0.2-4-0.6-6c-0.7-4-1.6-8.1-2.8-12.1
		c-2.1-8.1-4.8-16.1-7.2-24.1c-2.8-7.9-5-16-7.9-23.9c-2.6-8-5.1-16-8-23.8c-4.6-14.4-10.3-28.1-15.4-43.1L1491,1767.1z"/>
	<g>
		<g>
			<g>
				<g>
					<path class="st46" d="M1489.8,1767.2c-6.8,0.2-12.4,3.7-16,8.7c-3.8,4.8-6.2,10.7-6.8,16.6c-0.5,6-0.2,11.5,2.8,16.5
						c2.9,5.3,7,10.7,10.9,16.1c7.4,11.1,15.7,21.9,22.3,34c3.3,6,6.3,12.3,8.8,18.7c2.1,6.6,4,13.4,3.9,20.3l-0.6,0.1
						c-2.3-13.3-9-25.2-16.1-36.6c-7.2-11.3-15.4-22.1-23.2-33c-3.9-5.5-7.8-11-10.9-17.1c-3.3-6-3.9-13.3-2.5-19.9
						c1.3-6.7,4.4-13,9.2-18c4.6-4.9,11.5-8.2,18.4-7.1L1489.8,1767.2z"/>
				</g>
			</g>
		</g>
	</g>
	<path class="st44" d="M1547.1,1558c0,0.6-0.5,1-1,1c-0.6,0-1-0.5-1-1c0-0.6,0.5-1,1-1C1546.6,1557,1547.1,1557.5,1547.1,1558z"/>
	<path class="st44" d="M1547.7,1569.9c0,0.6-0.5,1-1,1c-0.6,0-1-0.5-1-1c0-0.6,0.5-1,1-1C1547.3,1568.9,1547.7,1569.4,1547.7,1569.9
		z"/>
	<path class="st44" d="M1496.1,1557.2c0,0.6-0.5,1-1,1c-0.6,0-1-0.5-1-1c0-0.6,0.5-1,1-1S1496.1,1556.7,1496.1,1557.2z"/>
	<path class="st44" d="M1541.4,1562.9c0,0.6-0.5,1-1,1c-0.6,0-1-0.5-1-1c0-0.6,0.5-1,1-1C1541,1561.9,1541.4,1562.3,1541.4,1562.9z"
		/>
	<path class="st44" d="M1494.9,1560.9c0,0.6-0.5,1-1,1c-0.6,0-1-0.5-1-1c0-0.6,0.5-1,1-1C1494.4,1559.8,1494.9,1560.3,1494.9,1560.9
		z"/>
	<path class="st44" d="M1495.9,1564.7c0,0.6-0.5,1-1,1c-0.6,0-1-0.5-1-1c0-0.6,0.5-1,1-1C1495.5,1563.6,1495.9,1564.1,1495.9,1564.7
		z"/>
	<path class="st57" d="M1607.8,1826.5c2.2-2.2,4.7-4.2,7-6.1c2.2-1.9,3.8-4.4,4.6-7.2c1.5-5.7,0.3-11.8-0.6-17.8
		c-0.9-6-1.7-12.2-1.3-18.4l1.2,0.1c2,6.2,4.2,11.6,6.5,17.3c1.9,5.8,5,12.1,3.5,21.5c-0.7,4.7-3.4,9.4-6.7,12.6l-2,1.9
		c-0.6,0.6-0.9,0.9-1.4,1.4c-0.9,1-1.8,1.9-2.7,3c-1.7,1.9-3.4,3.9-5,6L1607.8,1826.5z"/>
	<path class="st54" d="M1610.9,1840.7c-1.7,2.2-3.3,4.5-4.8,6.9c-3.2,4.4-6,9.3-8.7,14.3c-2.9,4.9-5.2,10.2-8.1,15.4
		c-5.2,10.6-10.2,21.6-16.6,32.9l-1.2-0.2c2-12.1,4.8-24.1,8.6-35.8c3.9-11.7,8.9-23.1,15.7-33.4c3.5-5.1,7.4-9.9,11.9-14.2
		L1610.9,1840.7z"/>
	<g>
		<g>
			<g>
				<g>
					<path class="st55" d="M1618.5,1777c-0.3,6.1,0.6,12.1,1.6,18.2c0.9,6,2.4,12.2,0.8,18.5c-0.8,3.1-2.6,5.9-5,8
						c-2.4,2-4.7,3.9-6.8,6.1c-4.3,4.3-8.1,9.1-11.4,14.1c-6.8,10-11.9,21.2-15.9,32.7c-4,11.5-6.9,23.4-9.1,35.5l-0.9-0.2
						c-1.1-12.6,0.2-25.3,3.2-37.6c2.9-12.4,7.9-24.5,15.2-35.5c3.8-5.4,8-10.6,13-15.2c1.2-1.1,2.6-2.2,3.9-3.2l3.6-2.7
						c1.5-1.2,2.6-2.3,3.4-4c1.6-3.5,1.5-9.6,1.4-15.8c0.1-6.2,0.2-12.9,2.3-19L1618.5,1777z"/>
				</g>
			</g>
		</g>
	</g>
	<g>
		<g>
			<g>
				<g>
					<path class="st44" d="M1547.7,1822c-0.6,15.5-1.3,31-2.8,46.5c-0.9,7.7-2.4,15.4-4.7,22.9c-2.3,7.4-5.9,14.7-11.5,20.3
						l-0.7-0.6c3-7.8,4.2-14.6,5.2-21.8c0.3-3.6,1-7.2,1.3-10.8c0.5-3.7,0.9-7.2,1.2-11l1.5-11.3c0.8-3.8,1.2-7.6,2.2-11.4
						c1.7-7.6,3.8-15.2,7.4-22.8L1547.7,1822z"/>
				</g>
			</g>
		</g>
	</g>
	<g>
		<g>
			<g>
				<g>
					<path class="st55" d="M1547.7,1822c3.1,7.9,4.5,15.8,5.2,23.7c0.5,3.9,0.4,7.9,0.5,11.8c-0.1,3.9-0.4,7.9-0.7,11.9
						c-1,8-2.8,16.2-6.5,23.9c-3.5,7.6-9.3,15.3-17.4,18.5l-0.7-0.7c5.3-5.6,8.7-12.7,10.8-20.1c2.1-7.4,3.4-15,4.1-22.7
						c1.8-15.4,2.8-30.9,3.7-46.3L1547.7,1822z"/>
				</g>
			</g>
		</g>
	</g>
	<g>
		<g>
			<g>
				<g>
					<path class="st55" d="M1479.8,1710c0.5,17.8,7,31.7,15,46.4c4.1,7.3,7.9,15.1,11.8,22.9c3.7,8,6.9,16.3,9.9,24.5
						c2.6,8.4,5.2,16.7,7.3,25.2c1.8,8.6,3.8,17.1,4.8,25.9c1.2,8.7,1.8,17.6,1.5,26.6c-0.3,4.5-0.6,9-1.6,13.6
						c-1.1,4.3-2.3,9.6-6.8,12.3l-0.8-0.9c2.8-2.7,3.1-7.5,3.4-11.5c0.1-4.2-0.2-8.5-0.7-12.7c-1-8.5-2.6-16.9-4.5-25.2
						c-3.8-16.7-8.7-33.1-14.2-49.3c-5.3-16.3-12.3-31.8-19.1-47.7c-3.3-7.9-6.3-16.1-7.8-24.6c-1.6-8.5-1.3-17.4,0.5-25.8
						L1479.8,1710z"/>
				</g>
			</g>
		</g>
	</g>
	<path class="st58" d="M1646.5,1759.5c-2.5,0.4-4.9,1.2-7.2,2.2c-9.1,3.9-16.1,11.5-20.7,20.2l-1.1-0.6c2.6-9.9,9.1-19.6,19.2-25.6
		c2.4-1.3,4.9-2.5,7.7-3.3L1646.5,1759.5z"/>
	<g>
		<g>
			<g>
				<g>
					<path class="st46" d="M1617.5,1781.3c4.6-8.9,11.8-16.9,21.2-21c9.2-4.2,20.8-4.3,29.5,1.6c4.4,2.9,7.5,7.5,8.9,12.4
						c1.6,4.9,2.3,9.9,2.8,14.9c0.9,10,0.8,20.1,0,30.2c-0.5,5-1.1,10-2.1,15c-0.5,2.5-1.1,4.9-2,7.4c-0.9,2.6-2.3,4.7-3.8,6.8
						c-5.8,8.3-12.2,15.9-18.3,23.8c-6.2,7.8-12.3,15.7-18.1,23.9c-5.7,8.2-11.3,16.5-15.4,25.5l-1.1-0.5
						c2.1-10.2,6.6-19.6,11.2-28.8c4.9-9,10.1-17.7,15.8-26.1c5.3-8.5,11.7-16.6,16.4-24.3l1.4-2.4c0.1-0.1,0.3-0.7,0.6-1.3
						c-0.1,0.2,0.1-0.3,0.2-0.6c0.5-1.5,1-3.6,1.3-5.8c0.8-4.3,1.3-9,1.6-13.7c1-9.3,1.2-18.9,0.7-28c-0.2-4.5-0.7-9-1.6-12.7
						c-0.3-1.1-0.3-1.3-0.7-2.3l-0.4-0.9c0,0-0.3-0.6,0-0.1l-0.1-0.2l-0.4-0.9c-0.6-1.2-1.4-2.3-2.6-3.4c-4.7-4.2-13.3-6-21.4-3.6
						c-8.4,2-16.1,8-22.7,15.7L1617.5,1781.3z"/>
				</g>
			</g>
		</g>
	</g>
	<g>
		<g>
			<g>
				<g>
					<path class="st46" d="M1515.4,1898.4c-3.2,2.2-6.2,3.7-8.4,5.3c-1.1,0.9-2,1.5-2.4,2.2c-0.5,0.6-0.5,0.9-0.6,1.3
						c-0.4,0.8,0,3.4,0.7,6.2c0.3,1.3,0.7,2.8,1.2,4.1c0.5,1.4,0.7,2.7,2.3,3.6l0.2,0.6c-1.9,0.5-3.6-0.7-4.8-1.9
						c-1.2-1.2-2.2-2.6-3.1-4c-1.6-2.9-3.2-6.2-2.5-9.9c0.8-3.7,4.2-5.9,7.4-6.8c3.2-1.1,6.6-1.4,10-1.3L1515.4,1898.4z"/>
				</g>
			</g>
		</g>
	</g>
	<g>
		<g>
			<g>
				<g>
					<path class="st56" d="M1564.9,1914.2c0.2-1.8,1-3.2,2.2-4.4c1.1-1.2,2.7-1.9,4.5-2.5c1.8-0.2,3.9,0,5.4,1.1
						c1.5,1.1,2.4,2.6,2.6,4.4l-0.2,0.2c-1.8-2.1-4.5-3.4-7.2-2.7c-2.7,0.5-5,2.2-7,4.1L1564.9,1914.2z"/>
				</g>
			</g>
		</g>
	</g>
	<g>
		<g>
			<g>
				<g>
					<path class="st46" d="M1564.9,1914.2c1.9-2.1,4.2-3.8,7.1-4.5c2.9-0.6,5.8,0.9,7.5,3.1l-0.2,0.2c-1.7-0.3-2.9-0.7-4-0.7
						c-1,0-1.8-0.1-2.7,0.3c-1,0-2,0.4-3.2,0.7c-1.2,0.3-2.5,0.7-4.2,0.9L1564.9,1914.2z"/>
				</g>
			</g>
		</g>
	</g>
	<g>
		<g>
			<g>
				<g>
					<path class="st56" d="M1526.3,1911.2c-1.6-1.9-3.5-3.5-5.9-4.1c-2.3-0.6-4.8,0-6.7,1.4c-3.9,2.8-5.7,8.1-5.2,12.9l-0.4,0.1
						c-3.8-4.7-2.7-12.4,3-16.7c2.8-2,7.1-2.8,10.3-1.2c3.3,1.4,5,4.4,5.3,7.3L1526.3,1911.2z"/>
				</g>
			</g>
		</g>
	</g>
	<g>
		<g>
			<g>
				<g>
					<path class="st59" d="M1526.3,1911.2c-3.4-2.8-7.5-3.8-10.3-2c-2.8,1.7-4.8,5-5,8.6c-0.8,3.5,0.6,7,2.6,10.4
						c1,1.7,2.2,3.3,3.7,4.3c0.7,0.5,1.4,0.9,2,0.7c0.6-0.2,1.3-1.1,1.6-2.1l0.3,0c-0.1,1.1-0.4,2.3-1.4,2.9c-1,0.7-2.3,0.3-3.3-0.2
						c-2-1-3.5-2.6-4.9-4.3c-2.6-3.4-4.4-7.8-3.7-12.2c0.6-4.3,3-8.7,7.1-10.4c4.2-2,9.1,0.5,11.5,4L1526.3,1911.2z"/>
				</g>
			</g>
		</g>
	</g>
	<path class="st48" d="M1503,1906.6c-5.8-2.6-5.7,8.7-1.5,15.1c0,0-1.7-6.7,1.5-10.2C1506.2,1907.8,1503,1906.6,1503,1906.6z"/>
	<path class="st48" d="M1512.2,1919.8c-8.8-1.9-5.4,13.8,2.3,21.5c0,0-4.3-8.8-0.9-14.8C1517,1920.6,1512.2,1919.8,1512.2,1919.8z"
		/>
	<path class="st60" d="M1514.4,1507.9c6.2-3.9,12.9-6.7,19.9-8.4c7.2-1.8,14.7-2.7,22.2-2l0.1,0.6c-14,2.9-27.8,7.6-39.8,15.5
		L1514.4,1507.9z"/>
	<path class="st60" d="M1497.1,1536.1c-1.6,3.8-2.6,7.9-2.9,12l-0.6-0.1c-0.9-4.3-0.8-8.9,0.3-13.4L1497.1,1536.1z"/>
	<path class="st61" d="M1493.9,1534.6c0.7-3.1,1.9-6.2,3.5-9.1c3.8-7,9.6-12.7,16-17c0.3-0.2,0.6-0.4,1-0.6l2.4,5.7
		c-5.9,3.9-11.4,8.7-15.4,14.6c-1.7,2.5-3.1,5.1-4.3,7.9L1493.9,1534.6z"/>
	<g>
		<g>
			<g>
				<g>
					<path class="st60" d="M1504.1,1598.1c1.8,3.6,4.1,6.8,5.8,10.3c0.9,1.8,1.4,4,0.7,6c-0.7,2-2.1,3.5-3.2,5.1
						c-4.7,6.2-9.7,12.8-11.1,20.6l-0.4-0.1c-0.8-4.2,0-8.7,1.7-12.6c1.6-3.9,3.9-7.4,6.2-10.6l1.8-2.3c0.4-0.6,0.8-1.1,1-1.5
						c0.5-0.7,0.5-1.4,0.2-3.1c-1-3.2-2.6-7.5-2.9-11.6L1504.1,1598.1z"/>
				</g>
			</g>
		</g>
	</g>
	<g>
		<g>
			<g>
				<g>
					<path class="st47" d="M1497.6,1647.2c-1.9-8.1,2-16.8,9-21.9c3.6-2.4,7.9-4.2,12.4-4c4.4,0,9.1,1.9,11.3,5.7l-0.3,0.5
						c-3.1-1.7-6.8-2.1-10.2-1.5c-3.5,0.6-6.7,2.1-9.6,4.2c-5.8,4.1-9.8,10.3-12,17.1L1497.6,1647.2z"/>
				</g>
			</g>
		</g>
	</g>
	<g>
		<g>
			<g>
				<g>
					<path class="st62" d="M1497.8,1647.2c2-6.9,6-13.4,11.9-17.7c3-2.1,6.4-3.6,10-4.2c3.6-0.5,7.4-0.1,10.6,1.8l-0.2,0.3
						c-3.6-0.8-6.9-0.6-10.1,0.3c-3.1,0.9-6.1,2.2-8.6,4.3c-2.7,1.7-5,4.2-7.2,6.7c-2.2,2.6-4.1,5.5-6.2,8.6L1497.8,1647.2z"/>
				</g>
			</g>
		</g>
	</g>
	<g>
		<g>
			<g>
				<g>
					<path class="st63" d="M1503.9,1598.1c2.2,3.4,4.7,6.3,6.7,10c1,1.8,1.6,4.3,0.8,6.6c-0.8,2.3-2.2,3.8-3.2,5.4
						c-2.5,3.1-4.7,6.2-6.9,9.5c-2.1,3.3-4,6.7-5.1,10.5l-0.2,0c1.4-7.9,6.2-14.6,10.9-20.9c1.2-1.6,2.5-3.1,3.2-4.9
						c0.7-1.8,0.3-3.9-0.6-5.7c-1.7-3.5-4-6.8-5.7-10.4L1503.9,1598.1z"/>
				</g>
			</g>
		</g>
	</g>
	<g>
		<g>
			<g>
				<g>
					<path class="st44" d="M1612.3,1531.6c2.6-2.9,6.6-5.6,10.8-4.5c4.2,1.1,6.8,5.1,7.7,9c0.9,3.9-0.1,8.9-4,11
						c-3.8,2-8.1,1.3-11.9,0.3l0.1-0.4c4.2-0.3,8.2-1.2,10-2.9c1.6-1.6,1.9-4,1.3-6.8c-0.6-2.8-2.2-5.4-4.2-6.5
						c-1.9-1.2-5.8-0.6-9.6,1.3L1612.3,1531.6z"/>
				</g>
			</g>
		</g>
	</g>
	<g>
		<g>
			<g>
				<g>
					<path class="st64" d="M1587.1,1550.8c-1.3,3-3.4,5.7-6.2,7.4c-2.7,1.9-6,3.1-10,3.1c-1.9-0.2-4.2-0.7-6.1-2
						c-1.8-1.4-3.2-3.4-3.6-5.4c-0.9-4,0.5-7.3,2.5-9.9l0.5,0.1c-0.4,2.8-0.6,5.8,0.4,8.5c1,2.7,3.7,4.2,6.5,4.2
						c5.7,0.2,11.2-2.8,15.7-6.3L1587.1,1550.8z"/>
				</g>
			</g>
		</g>
	</g>
	<g>
		<g>
			<g>
				<g>
					<path class="st55" d="M1587,1550.8c-4.5,3.6-9.9,6.8-15.9,6.7c-3,0-6-1.9-7-4.8c-1.1-2.8-0.8-5.9-0.3-8.7l0.3,0.1
						c0.6,3,1,5.9,2.2,7.8c1.2,1.8,2.7,2.7,5,2.6c2.2,0.3,4.8-0.4,7.4-1.1c2.6-0.7,5.2-1.8,8.2-2.8L1587,1550.8z"/>
				</g>
			</g>
		</g>
	</g>
	<g>
		<g>
			<g>
				<g>
					<path class="st64" d="M1575,1531.8c-1.5-2.1-3.1-4.2-4.8-5.9c-0.9-0.9-2-1.5-2.5-2.5c-0.6-1-1-2.1-1.4-3.8l0.2-0.4
						c1.8-0.4,3.3,0.3,4.5,1.1c1.2,0.9,1.7,2.3,2.2,3.6c1.1,2.5,1.8,5.1,2.1,7.8L1575,1531.8z"/>
				</g>
			</g>
		</g>
	</g>
	<g>
		<g>
			<g>
				<g>
					<path class="st65" d="M1510.8,1544c0.6-2.6,3.6-3.4,5.8-4c2.4-0.5,4.9-0.6,7.3-0.3c2.4,0.3,4.8,0.9,7,2.2
						c2.1,1.2,3.8,3.6,3.7,6.1v0.1v0c-1,2.4-3.5,3.7-5.8,4c-2.4,0.4-4.8,0.1-7.2-0.3l0.1-0.3c2.5-0.2,4.8-0.6,6.8-1.2
						c1-0.3,1.9-0.8,2.5-1.4c0.6-0.5,1.1-1.4,1.1-1.6l-0.1,0.7c-0.1-1.6-1-2.6-2.6-3.5c-1.5-1-3.6-1.7-5.7-2.1
						c-2.1-0.3-4.4-0.7-6.6-0.6c-2.1,0.3-4.6,0.1-5.8,2.2L1510.8,1544z"/>
				</g>
			</g>
		</g>
	</g>
	<g>
		<g>
			<g>
				<g>
					<path class="st66" d="M1529.4,1548.6c-1.4,0.2-2.7,0.4-3.7,0.8c-1.1,0.4-2,0.9-2.7,1.7c-0.8,0.7-1.4,1.7-2,2.8
						c-0.6,1.1-1.3,2.2-2,3.4l-0.2,0c0.5-2.6,1.2-5.3,3.1-7.3c1.9-2,5-2.2,7.5-1.5L1529.4,1548.6z"/>
				</g>
			</g>
		</g>
	</g>
	<g>
		<g>
			<g>
				<g>
					<path class="st67" d="M1529.4,1548.6c-2.5-0.6-5.4-0.4-7.3,1.6c-1.8,1.9-2.6,4.5-3.1,7.1l-0.2,0c-0.2-1.4-0.2-2.8,0.1-4.2
						c0.3-1.4,1.1-2.7,2.1-3.9c1.2-1.1,2.7-1.8,4.3-1.9c1.5-0.1,3,0.5,4.1,1.2L1529.4,1548.6z"/>
				</g>
			</g>
		</g>
	</g>
	<g>
		<g>
			<g>
				<g>
					<path class="st43" d="M1513.5,1551.5c-1.8-0.2-3.8-1-4.7-2.8c-0.4-0.9-0.3-2,0.2-2.8c0.5-0.8,1.2-1.5,1.9-2.1l0.1,0.1
						c-0.8,2-1.4,3.3-0.8,4.1c0.1,0.5,0.6,1,1.2,1.6c0.6,0.5,1.2,1.1,2.1,1.7L1513.5,1551.5z"/>
				</g>
			</g>
		</g>
	</g>
	<path class="st44" d="M1605.5,1587l-13.2,4.4c0.7-6.5,1.9-12.9,4-19.1c2.2-6.3,5.1-12.7,9.6-17.6l-0.4-0.4
		c-5.4,4.5-8.8,10.8-11.7,17.2c-2.9,6.4-4.5,13.3-5.6,20.2l-0.9,5.4l1.5-0.4c-3.9,4.9-7.1,10.3-9.8,15.9c-4.9,10.1-7.4,21-8.5,31.8
		c-6.5,1.2-12.2,3.6-17.8,6.6c-6.7,3.8-12.3,9.3-16.9,15.2c-4.5,6-8.2,12.6-10.4,19.6c-2.3,7-3.8,14.1-4.3,21.2l0.6,0.1
		c2.8-13.8,8.1-27.4,17.3-38.2c4.6-5.4,10.1-9.9,16.2-13.3c6.2-3.3,13-5.7,19.9-6.3l0.5,0l0.1-0.5c1.2-11.7,3.8-23.2,8.6-34
		c2.4-5.3,5.3-10.4,8.9-15.1c3.6-4.6,7.7-8.9,12.7-11.9L1605.5,1587z"/>
	<path class="st53" d="M1598,1587.6c-0.6,0.1-1.2,0.2-1.9,0.3l1.2-5.1c0.8-3.2,1.4-6.3,2.3-9.4c0.8-3.1,1.7-6.2,2.7-9.3
		c1-3.1,2-6.3,3.5-9.5l-0.3-0.3c-4.7,5.1-7.6,11.4-9.9,17.8c-2.3,6.4-3.5,13.2-4.2,20l-0.1,0.5l0.5-0.2l13.8-4.7l-0.1-0.4
		C1603,1587.1,1600.5,1587.5,1598,1587.6z"/>
	<g>
		<g>
			<g>
				<g>
					<path class="st53" d="M1520.9,1706.9c2.7-13.9,7.8-27.8,17.1-38.9c4.6-5.5,10.2-10.3,16.5-13.8c6.3-3.5,13.2-6.1,20.6-6.6
						l-1.1,1.1c1.3-11.8,4-23.6,9-34.4c2.5-5.4,5.5-10.6,9.2-15.3c3.7-4.7,7.9-9,13.1-12.1l0.6,1.1c-3.8,4.7-6.6,9.7-8.9,14.7
						c-2.4,5-4.1,10.2-5.7,15.3c-0.8,2.6-1.4,5.2-1.9,7.8c-0.6,2.6-1.2,5.2-1.6,7.9c-0.7,5.3-1.5,10.7-1.9,16.1l-0.6,8.1l-9.8,1.7
						c-0.4,0.1-2.2,0.3-3.4,0.7l-4,1.1c-2.7,0.8-5.4,1.9-7.9,3.2c-5.1,2.6-10.1,5.8-14.5,10.1c-4.6,4.1-8.7,9-12.5,14.5
						c-3.9,5.5-7.3,11.6-11.2,18L1520.9,1706.9z"/>
				</g>
			</g>
		</g>
	</g>
	<g>
		<g>
			<g>
				<g>
					<path class="st60" d="M1495.8,1657.1c-1.3,0.2-1.8,1.2-1.2,2.3c0.4,1.1,1.2,2.1,1.9,3l4.8,5.7c3.2,3.8,6.3,7.6,9.1,11.7
						c5.5,8.2,10.2,17.3,11.4,27.2l-0.6,0.1c-2.8-4.6-5.3-8.4-7.9-12.3c-2.7-3.8-5.2-7.7-8-11.5c-2.6-3.9-5.3-7.8-7.8-12.1
						c-1.3-2.1-2.5-4.3-3.6-6.7c-0.5-1.3-1.2-2.6-1.4-4.3c-0.1-0.8-0.1-2,0.6-2.9c0.8-0.9,1.8-0.8,2.4-0.7L1495.8,1657.1z"/>
				</g>
			</g>
		</g>
	</g>
	<g>
		<g>
			<g>
				<g>
					<path class="st55" d="M1495.8,1657.1c-0.6,0.3-0.9,0.8-0.9,1.1c0,0.2,0.2,0.6,0.5,0.9c0.6,0.8,1.5,1.5,2.5,2.2
						c1.9,1.6,3.8,3.2,5.6,5c3.7,3.4,6.9,7.3,9.9,11.5c2.8,4.2,5.4,8.8,6.9,13.8c1.7,4.9,2.4,10.3,1.5,15.4l-0.5,0.1
						c-1.3-9.8-6.2-18.7-11.8-26.7c-2.8-4.1-5.8-8-8.9-11.8l-4.7-5.7c-0.8-1-1.5-2-2-3.2c-0.2-0.6-0.4-1.3,0-2
						c0.3-0.7,1.1-0.9,1.7-1.1L1495.8,1657.1z"/>
				</g>
			</g>
		</g>
	</g>
	<g>
		<g>
			<g>
				<g>
					<path class="st68" d="M1542.9,1660.5c-0.1,1.2-1.4,1.7-2.3,1.9c-1,0.2-2,0.3-3,0.3c-2,0.1-4.1-0.1-6.1-0.3c-4-0.4-8-1-12-1.7
						l-11.8-2.5c-3.9-0.7-7.9-1.8-11.9-1.2l-0.1-0.3c4.1-1.7,8.4-1.1,12.4-0.8c4.1,0.4,8,1.3,11.9,1.8c3.9,0.9,7.8,1.5,11.7,2.3
						c1.9,0.4,3.9,0.8,5.8,1c1.8,0.2,4.2,0.8,5.1-0.6L1542.9,1660.5z"/>
				</g>
			</g>
		</g>
	</g>
	<g>
		<g>
			<g>
				<g>
					<path class="st55" d="M1542.9,1660.5c0.2,1.3-1.2,2.2-2.2,2.5c-1,0.4-2.1,0.7-3.2,0.9c-2.1,0.3-4.2,0.4-6.3,0.4
						c-4.2,0-8.2-0.7-12.2-1.2c-4-0.9-7.9-1.8-11.8-3c-1.9-0.6-3.8-1.2-5.7-1.7c-1.9-0.7-3.8-1.2-5.8-1.4l-0.1-0.3
						c4.1-0.6,8.1,0.4,12.1,1.1l11.9,2.3c3.9,0.8,7.9,1.4,11.9,1.9c2,0.2,4,0.4,6,0.3c1,0,2-0.1,3-0.3c0.9-0.2,2.1-0.6,2.1-1.6
						L1542.9,1660.5z"/>
				</g>
			</g>
		</g>
	</g>
	<path class="st68" d="M1496.2,1581.8c3.3,0.2,6.4-0.4,9.3-1.2c5-1.6,9.4-4,13.6-6.8c1.9,2.2,4.2,3.8,6.7,5c3.2,1.5,6.5,2.4,9.8,2.8
		c2.5,0.4,5.1,0.5,7.6,0.2l1.4-1.6c-2.9,0.2-5.8-0.1-8.6-0.6c-3.1-0.6-6.2-1.7-9-3.2c-2.8-1.5-5.5-3.5-7-6.2l-0.1-0.3l-0.2,0.2
		c-4.6,3.1-9.6,5.8-15,7.6c-2.4,0.8-5.1,1.4-7.7,1.3L1496.2,1581.8z"/>
	<path class="st60" d="M1496.9,1578.9c-2.9-0.1-5.8-1-7.9-3.4c-4.1-3.8-6.5-9.5-5.5-15c1-5.6,5.4-9.9,10.4-12.4l-0.2-0.3
		c-5.1,2-10.6,6-12,12.3c-1.5,6.2,0.8,13,5.4,17.3c2,2.2,5.7,4.2,9,4.2L1496.9,1578.9z"/>
	<path class="st69" d="M1543.2,1581.8c0.8-0.1,1.7-0.2,2.5-0.4c3.3-0.7,6.5-2,8.9-4.3l-0.2-0.2c-2.9,2.1-6.3,3.1-9.8,3.4
		L1543.2,1581.8z"/>
	<g>
		<g>
			<g>
				<g>
					<path class="st60" d="M1516.6,1512.9c-1.4-5.6-7-9.1-12.5-10.1c-5.5-1.1-11.7,0.5-15,5.2c-3.3,4.4-4.4,10.5-3.2,16
						c1,5.5,5.4,10.7,11.2,10.8l0,0.6c-3,1-6.8,0.3-9.8-1.7c-2.9-2.1-5-5.3-6.2-8.6c-2.2-6.8-1.7-14.2,3.2-21
						c2.2-2.8,6.1-5.5,9.8-6.4c3.8-0.8,7.5-0.8,10.9,0.4c3.4,1,6.4,2.9,8.8,5.4c2.3,2.6,3.9,6,3.4,9.2L1516.6,1512.9z"/>
				</g>
			</g>
		</g>
	</g>
	<g>
		<g>
			<g>
				<g>
					<path class="st46" d="M1516.8,1512.8c-1.2-2.7-3.2-4.6-5.5-5.9c-2.3-1.4-4.8-2.2-7.4-2.4c-5.2-0.6-10.3,0.7-13.1,4.8
						c-2.9,3.6-3.9,9.3-3.2,14.3c0.7,5.1,3.8,10.1,9.6,11.4l0,0.3c-2.9-0.1-5.8-1.3-7.9-3.5c-2.1-2.1-3.4-4.8-4-7.7
						c-1.3-5.7-0.3-12,3.2-16.8c3.6-4.9,10.2-6.4,15.9-5.2c5.6,1.1,11.4,4.7,12.8,10.6L1516.8,1512.8z"/>
				</g>
			</g>
		</g>
	</g>
	<g>
		<g>
			<g>
				<g>
					<path class="st64" d="M1506.1,1513.7c-2.2-0.9-4-1.1-5.4-0.6c-1.4,0.5-2.8,1.3-3.6,2.5c-1.1,1-1.6,2.4-1.9,4
						c-0.3,1.6,0.2,3.5,0.9,5.8l-0.2,0.2c-1.5-1.5-2.8-3.5-3-5.7c-0.3-2.2,0.4-4.5,1.9-6.2c1.5-1.7,3.6-2.8,5.8-2.9
						c2.2-0.2,4.4,1,5.8,2.7L1506.1,1513.7z"/>
				</g>
			</g>
		</g>
	</g>
	<g>
		<g>
			<g>
				<g>
					<path class="st60" d="M1496.6,1579.2c-0.8,4.3-0.2,8.8,1.2,12.8c0.7,2,1.7,4,2.9,5.8c0.6,0.9,1.2,1.8,2,2.5
						c0.4,0.4,0.7,0,0.8-0.5c0.1-0.5,0.1-1.1,0.1-1.6h0.3c0.3,0.6,0.5,1.1,0.6,1.8c0,0.4,0.2,0.7-0.4,1.4c-0.9,0.8-2,0.4-2.3,0.2
						c-1.5-0.8-2.2-1.6-3.1-2.5c-1.7-1.7-2.8-3.9-3.8-6.1c-0.6-2.3-1.2-4.7-1-7.1c0.2-2.4,0.8-4.8,2.3-6.8L1496.6,1579.2z"/>
				</g>
			</g>
		</g>
	</g>
	<g>
		<g>
			<g>
				<g>
					<path class="st60" d="M1495.9,1640.1c0.1-1.2-0.8,0-1,0.6c-0.4,0.7-0.6,1.4-0.8,2.2c-0.4,1.5-0.5,3.1-0.4,4.7
						c0.1,3.2,0.9,6.3,2.2,9.2l-0.3,0.1c-1.7-1-2.8-2.5-3.6-4.1c-0.8-1.6-1.1-3.4-1.4-5.2c0.2-1.8,0.3-3.7,1.2-5.4
						c0.5-0.8,1-1.7,1.7-2.4c0.4-0.3,0.8-0.7,1.4-0.9c0.2-0.1,1-0.5,1.5,0.2c0.2,0.5-0.1,0.7-0.2,0.9L1495.9,1640.1z"/>
				</g>
			</g>
		</g>
	</g>
	<g>
		<g>
			<g>
				<g>
					<path class="st62" d="M1553.2,1631.3c-3.3-1.2-6.3-2.6-9.3-3.1c-3-0.6-5.9-0.7-8.7,0.1c-2.9,0.4-5.7,1.9-8.5,3.4
						c-2.9,1.5-5.6,3.3-8.8,5l-0.2-0.2c4.7-4.8,10.1-9.5,16.8-11.2c3.3-0.8,6.9-0.6,10.2,0.6c3.2,1.1,6.1,3,8.8,5.1L1553.2,1631.3z"
						/>
				</g>
			</g>
		</g>
	</g>
	<g>
		<g>
			<g>
				<g>
					<path class="st70" d="M1559,1622.9c-0.3-3.7-1.1-7.4-2.7-10.8c-1.7-3.3-4.4-6.2-8-7.1c-1.6-0.4-4.2-0.2-3.9,1.9
						c-0.1,1.8,0.2,3.7,0.2,5.6c0,1.8-0.2,4-1.7,5.4c-1.5,1.4-3.7,1.6-5.5,1.4c-2.1-0.2-3.7-2-4-3.9c-0.4-1.9-0.3-3.8-0.2-5.7
						c0-1.7,0.3-4.1-1.3-4.9c-1.6-0.4-3.6,0.5-5.1,1.2c-3.3,1.7-5.7,4.9-6.8,8.4c-1.2,3.5-1.3,7.3-0.9,11.1l-0.3,0
						c-1-3.7-1.2-7.6-0.3-11.6c1-3.9,3.5-7.7,7.2-10c0.8-0.5,2.1-1.1,3-1.4l0.7-0.2c0.4-0.1,0.7-0.2,1-0.2c0.7-0.1,1.6-0.2,2.6,0.3
						c1,0.4,1.9,1.3,2.2,2.1c0.4,0.8,0.5,1.5,0.6,2.1c0.2,1.2,0.2,2.2,0.2,3.2c0,1.9,0,3.7,0.3,5c0.4,1.3,0.7,1.3,1.4,1.5
						c3.3,0.2,3.8-0.1,4.1-3.8c0.1-1.7-0.2-3.4-0.1-5.7c0-0.3,0.1-0.7,0.1-1c0.1-0.2,0.1-0.6,0.2-0.8l0.3-0.6
						c0.8-1.2,1.8-1.6,2.5-1.8c1.6-0.4,2.8-0.2,4,0.2c4.5,1.4,7.3,5.1,8.9,8.7c1.4,3.8,1.9,7.7,1.6,11.5L1559,1622.9z"/>
				</g>
			</g>
		</g>
	</g>
	<g>
		<g>
			<g>
				<g>
					<path class="st53" d="M1608.9,1453.2c-6.8,1.4-13.3,5.2-17,11.2l-0.3-0.2c0-2.1,0.7-4,1.8-5.6c1.1-1.7,2.7-2.9,4.2-4.1
						c1.8-0.9,3.5-1.7,5.4-2c1.9-0.3,3.9-0.3,5.8,0.4L1608.9,1453.2z"/>
				</g>
			</g>
		</g>
	</g>
	<g>
		<g>
			<g>
				<g>
					<path class="st60" d="M1591.7,1453.4c0.6-1.8,2-3,3.6-3.8c1.6-0.8,3.3-1,5-1.2c1.7,0.2,3.4,0.4,4.9,1.2
						c0.7,0.4,1.4,0.9,2.1,1.3c0.6,0.7,1.2,1.2,1.7,2l-0.1,0.3c-2.8-1.1-5.7-1.7-8.6-1.7c-2.9-0.1-5.9,0.5-8.3,2.2L1591.7,1453.4z"
						/>
				</g>
			</g>
		</g>
	</g>
	<g>
		<g>
			<g>
				<g>
					<path class="st53" d="M1621.6,1433.8c-6.3-0.9-12.9,1.2-17.9,5c-5.2,3.8-9,9.1-11.8,14.9l-0.3-0.1c0.4-3.4,1.7-6.5,3.4-9.5
						c1.7-3,4.2-5.5,6.8-7.7c2.9-1.9,6.2-3.6,9.6-4.1c3.5-0.5,7.1-0.3,10.2,1.3L1621.6,1433.8z"/>
				</g>
			</g>
		</g>
	</g>
	<g>
		<g>
			<g>
				<g>
					<path class="st60" d="M1581.7,1453c1.6-4.2,3.9-7.9,6.5-11.4c2.6-3.5,5.8-6.7,9.2-9.6c3.7-2.5,7.8-5.2,12.8-5.5
						c2.5-0.1,5.1,0.4,7.2,1.8c2,1.4,3.5,3.3,4.3,5.4l-0.2,0.2c-2.4-3.5-6.7-5.8-10.9-5c-4.2,0.7-7.9,3-11.3,5.6
						c-6.7,5.3-12.4,11.9-17.4,18.8L1581.7,1453z"/>
				</g>
			</g>
		</g>
	</g>
	<g>
		<g>
			<g>
				<g>
					<path class="st53" d="M1584.5,1428c0.4,4.2,0.5,8.5,0.3,12.7c-0.4,4.2-0.9,8.5-2.8,12.4l-0.3-0.1c-0.1-2.3-0.1-4.3-0.1-6.4
						c-0.1-2,0.2-4,0.1-6.1c0.3-2,0.4-4.1,0.8-6.1c0.4-2.1,0.8-4.2,1.7-6.3L1584.5,1428z"/>
				</g>
			</g>
		</g>
	</g>
	<g>
		<g>
			<g>
				<g>
					<path class="st60" d="M1575.1,1455.5c0.2-2.6,0.9-5,1.5-7.4c0.6-2.3,1.6-4.5,2.2-6.8c1-2.2,1.7-4.4,2.7-6.6
						c0.9-2.2,1.8-4.3,2.8-6.8l0.3,0c0.2,5-1.2,9.8-2.8,14.4c-1.8,4.6-3.9,9-6.3,13.3L1575.1,1455.5z"/>
				</g>
			</g>
		</g>
	</g>
	<g>
		<g>
			<g>
				<g>
					<path class="st53" d="M1563.5,1432.5c4.6,1.2,8.2,5,10,9.3c1.8,4.4,2.1,9.2,1.8,13.8l-0.3,0c-1-2.4-1.5-4.6-2.2-6.7
						c-0.7-2.1-1.2-4.2-2.1-5.9c-0.6-2-1.7-3.6-2.8-5.3c-1.1-1.7-2.6-3.3-4.4-4.9L1563.5,1432.5z"/>
				</g>
			</g>
		</g>
	</g>
	<g>
		<g>
			<g>
				<g>
					<path class="st60" d="M1563.4,1456c0.4-2.3,0.9-4.4,1.2-6.3c0.3-2,0.8-3.8,0.7-5.6c0.3-1.8,0.1-3.5-0.2-5.3
						c-0.3-1.8-1-3.7-1.7-6l0.2-0.2c3.2,3,5.1,7.3,4.8,11.8c-0.3,4.4-2.2,8.5-4.7,12L1563.4,1456z"/>
				</g>
			</g>
		</g>
	</g>
	<g>
		<g>
			<g>
				<g>
					<path class="st53" d="M1546.4,1822.2c-4.6-15.1-11.5-29.6-19.5-43.2c-8-13.7-17.6-26.3-28.2-38.3c-10.2-12.4-18.8-26-26.2-40.2
						c-7.3-14.2-13.6-29-18.4-44.4l0.2,0.4c-3.9-7.2-6.8-14.6-9.3-22.2c-2.4-7.6-4.2-15.5-5.2-23.4c-1.9-15.9-0.4-32.5,5.7-47.5
						l0.1,1.4c-2.7-5.7-3.7-11.6-3.7-17.6c0-6,1.2-11.9,3.3-17.5c4.2-11.2,11.7-20.6,20.3-28.6l-0.4,1.1c0.1-5.3,1.5-10.3,3.7-15
						c2.2-4.7,5.3-8.8,9.1-12.3c7.6-7,17.5-10.8,27.3-12.6l-0.7,0.4c3.6-4.4,7.8-8,12.6-10.9c4.8-2.8,10.2-4.8,15.7-5.4
						c11.2-1.4,22.3,2.9,31.3,9.1l-1,1.5c-9.8-4.6-20.5-6.6-29.5-4.1c-4.5,1.2-8.6,3.3-12.2,6.1c-1.8,1.4-3.5,3-5,4.7
						c-1.4,1.6-3.1,3.8-3.8,5l-1.3,2.3l-4.3,1.2c-8.5,2.5-15.9,6.6-20.6,12c-2.4,2.7-4.2,5.6-5.3,8.8c-0.6,1.6-1,3.2-1.3,4.9
						c-0.1,0.8-0.2,1.6-0.2,2.4c0,0.6,0,1.9,0.1,1.5l-1.4,7.1l-2.8,3c-3.5,3.7-6.5,7.7-9.1,11.6c-2.6,3.9-4.6,8-5.9,12
						c-1.3,4-1.8,8-1.6,11.8c0.1,1.9,0.4,3.7,0.8,5.5c0.2,0.9,0.4,1.7,0.7,2.4l0.4,1c0.1,0.1,0.4,0.9,0.1,0.2l3.4,6.8l-2.6,6.8
						c-4.6,11.9-5.6,25.3-3.8,38.8c0.7,6.8,2.1,13.6,4.1,20.3c1,3.4,2.1,6.7,3.4,9.9c1.2,3.1,2.8,6.7,4,8.9l1,1.9l0.5,1.6
						c1.9,6.4,4.2,14.1,6.8,21c2.6,7.1,5.5,14.1,8.7,20.9c6.3,13.7,13.3,27.2,22.1,39.3c1.9,2.9,4.5,6.3,6.9,9.7
						c2.4,3.4,4.7,6.9,6.9,10.5c4.4,7.1,8.3,14.4,11.7,22c6.9,15,11.9,30.8,14.1,47L1546.4,1822.2z"/>
				</g>
			</g>
		</g>
	</g>
	<path class="st53" d="M1674.6,1582.5c6.4-8.6,10.6-19.2,10.2-30c-0.2-5.5-1.4-10.9-3.4-16.1c-1.8-4.4-4.2-8.6-7.2-12.4
		c0.1,0,0.3,0,0.4,0.1c0.8,0.2,1.6,0.4,2.4,0.6c1.6,0.5,3.2,1.1,4.7,1.7l1.9,0.8l-0.7-1.9c-4-11.5-9.7-22.6-18-31.8
		c-4.1-4.6-8.9-8.6-14.1-11.7c-4.7-2.8-9.8-5-15.3-6.1l4.1-2.6l0.8-0.5l-0.7-0.7c-6.4-5.7-14.3-9.9-22.8-11.3
		c-8.5-1.4-17.3-0.4-25.2,3.1l0.5,1.1c3.9-1.3,8.1-1.9,12.2-2c4.1,0,8.1,0.3,11.9,1.3c5.3,1.4,10.2,3.9,14.4,7.2l0,0l-11.7,6.2
		l14.1,3.7c4.3,1.1,9.8,3.6,14,6.6c4.4,3.1,8.3,6.8,11.7,11.1c3.7,4.6,6.8,9.7,9.4,15.2l-12.2,3l9.4,12c0.8,1.1,2.3,3.3,3.3,5.1
		c1.1,1.9,2,3.9,2.7,6c1.5,4.1,2.2,8.3,2.2,12.4c-0.1,8.2-3.3,16-8.7,23.1l-4,5.2l3.1,6.4c0.3,0.6,1,2.4,1.5,3.7
		c0.5,1.4,0.9,2.9,1.3,4.4c0.8,3.1,1.4,6.2,1.7,9.4c0.8,6.3,0.5,12.8-0.2,19.2c-1.6,12.8-6.5,25.4-13.6,36.8l-1.3,2.1l-0.3,3.7
		l-0.1,1.5c-0.1,0.7-0.2,1.5-0.4,2.3c-0.3,1.6-0.7,3.3-1.2,4.9c-0.9,3.3-2.2,6.7-3.8,10c-3.1,6.6-7.2,12.9-12,18.8
		c-4.8,5.9-10.1,11.6-15.8,16.9c-2.9,2.7-5.8,5.1-9.1,7.8c-3.4,2.8-6.5,5.7-9.6,8.6c-12.1,12-23,25.1-31.8,39.4
		c-8.9,14.2-16.9,28.9-22.4,44.7l1.1,0.5c7.1-14.7,16-28.7,25.8-41.9c9.8-13.1,20.8-25.4,33.2-36.2c6.1-5.5,12.8-10.2,19.2-15.5
		c6.3-5.3,12.3-11.1,17.7-17.4c5.4-6.3,10.2-13.2,13.9-20.6c3.6-7.3,6.6-15.1,7.1-23.6c7.9-12.5,13.6-26.5,15.6-41.3
		c1-7.4,1.1-14.9,0.1-22.3C1679.4,1596.2,1677.7,1589.2,1674.6,1582.5z"/>
	<g>
		<g>
			<g>
				<g>
					<path class="st42" d="M1547.1,1557.3c11.9,0.9,23.7,2.7,35.3,4.8c11.7,2.2,23.2,5,34.6,8.2c-11.5-3-23.1-5.5-34.8-7.4
						c-11.7-1.9-23.5-3.5-35.3-4.1c-0.4,0-0.8-0.4-0.8-0.8S1546.6,1557.3,1547.1,1557.3C1547.1,1557.3,1547.1,1557.3,1547.1,1557.3z
						"/>
				</g>
			</g>
		</g>
	</g>
	<g>
		<g>
			<g>
				<g>
					<path class="st42" d="M1541.6,1562.2c11.4,2.3,22.8,5.1,34,8.3c11.2,3.3,22.3,6.9,32.8,11.9c-10.7-4.7-21.8-8.1-33.1-11.1
						c-11.2-3-22.6-5.5-34-7.6c-0.4-0.1-0.7-0.5-0.6-0.9C1540.7,1562.4,1541.1,1562.1,1541.6,1562.2
						C1541.6,1562.2,1541.6,1562.2,1541.6,1562.2z"/>
				</g>
			</g>
		</g>
	</g>
	<g>
		<g>
			<g>
				<g>
					<path class="st42" d="M1547.2,1569.6c10.3,3.2,19.8,8.1,29,13.3c9.2,5.3,18,11.3,26.5,17.7c-8.6-6.2-17.6-12-26.8-17.1
						c-9.3-5-19-9.6-29-12.5l-0.1,0c-0.4-0.1-0.6-0.5-0.5-0.9C1546.4,1569.7,1546.8,1569.4,1547.2,1569.6
						C1547.2,1569.6,1547.2,1569.6,1547.2,1569.6z"/>
				</g>
			</g>
		</g>
	</g>
	<g>
		<g>
			<g>
				<g>
					<path class="st69" d="M1554.7,1576.9c2.4,7.6,5.1,15.3,9.2,22.2c1.8,3.6,5.5,5.7,7.2,9.8c0.7,2.4-1.2,4.2-2.5,5.6
						c-1.4,1.4-3,2.8-4.5,4.1c-5.9,5.3-10.3,12.2-14.1,19.2c-3.6,7.1-6.8,14.7-7,22.7h-0.5c-0.8-4.1-0.2-8.3,0.4-12.5
						c0.9-4.1,2.3-8,3.9-11.9c1.5-3.9,3.7-7.5,6-11c2.3-3.5,4.9-6.9,8.2-10.1c1.5-1.3,3.1-2.5,4.4-3.7c0.7-0.6,1.2-1.2,1.4-1.5
						c0.2-0.4,0.1,0.1,0.2,0.2c0-1.2-4.6-5-6.2-9c-3.8-7.8-5.7-15.7-6.5-23.9L1554.7,1576.9z"/>
				</g>
			</g>
		</g>
	</g>
	<g>
		<g>
			<g>
				<g>
					<path class="st55" d="M1554.7,1576.9c2,3.6,3.7,7.2,5.7,10.7c1.8,3.5,3.7,7,5.9,10c1.2,1.6,2.1,2.6,3.5,4
						c1.4,1.7,3.1,2.7,4.4,6.3c0.7,2,0,4.7-0.8,5.9c-0.8,1.4-1.7,2.3-2.4,3.1c-1.6,1.6-3.1,3-4.6,4.4c-5.5,4.5-9.8,11.3-13.9,17.8
						c-2.1,3.3-3.9,6.7-5.5,10.3c-1.8,3.5-3.1,7.2-4,11.1h-0.5c0.2-8.2,3.3-15.9,6.9-23c3.7-7.1,8-14.1,14.1-19.6
						c1.5-1.3,3.1-2.6,4.5-4c1.3-1.4,2.9-3,2.4-4.8c-1.4-3.5-5.2-6-7-9.6c-4-7-6.7-14.7-9-22.4L1554.7,1576.9z"/>
				</g>
			</g>
		</g>
	</g>
	<g>
		<g>
			<g>
				<g>
					<path class="st55" d="M1494,1548.2c-2.2,1.8-4.2,3.7-5.7,5.8c-1.4,2.2-2.2,4.6-2.5,6.9c-0.5,4.8,2.2,9.1,5.6,12.2
						c2,1.8,3,2.1,5.2,2.2c2.1,0.1,4.5-0.5,6.8-1.3c4.7-1.6,9.8-4,14.1-6.8l3.8-2.4l1.7,3.7c0.8,1.8,3,3.6,5.4,5.1
						c2.4,1.6,5.1,2.7,8,3.6c2.9,0.8,5.9,1.3,8.9,1.4c3,0.1,6.1-0.4,9-1.9l0.3,0.4c-2.6,2-5.8,3-9.1,3.4c-3.2,0.4-6.5,0.2-9.7-0.4
						c-3.2-0.6-6.3-1.6-9.2-3.1c-2.9-1.5-5.6-3.5-7.3-6.5l0.6,0.1c-4.7,3.2-9.7,6-15.1,7.7c-2.7,0.8-5.6,1.4-8.5,1.2
						c-2.9-0.1-5.8-1.5-7.7-3.6c-4.2-3.9-6.7-9.9-5.5-15.6c1.1-5.8,5.7-10.1,10.7-12.6L1494,1548.2z"/>
				</g>
			</g>
		</g>
	</g>
	<g>
		<g>
			<g>
				<g>
					<path class="st42" d="M1493.7,1557.9c-8.5-2.4-17.5-3.6-26.4-3.8c-8.9-0.2-17.9,0.8-26.6,3.1c8.6-2.5,17.6-3.7,26.6-3.8
						c9-0.1,18,0.8,26.8,3.1c0.4,0.1,0.7,0.5,0.6,0.9S1494.2,1558.1,1493.7,1557.9C1493.7,1558,1493.7,1558,1493.7,1557.9
						L1493.7,1557.9z"/>
				</g>
			</g>
		</g>
	</g>
	<g>
		<g>
			<g>
				<g>
					<path class="st42" d="M1493,1561.6c-10.2,0-20.4,0.8-30.5,2.4c-10.1,1.6-20.2,4-29.3,8.6c9.1-4.9,19.1-7.5,29.2-9.4
						c10.1-1.8,20.4-2.9,30.7-3.2c0.4,0,0.8,0.3,0.8,0.7C1493.8,1561.3,1493.5,1561.6,1493,1561.6L1493,1561.6z"/>
				</g>
			</g>
		</g>
	</g>
	<g>
		<g>
			<g>
				<g>
					<path class="st42" d="M1494.1,1565.4c-9.4,1.9-18.5,5.5-26.9,10.2c-8.4,4.7-16.2,10.8-22.8,17.9c6.4-7.3,14-13.6,22.4-18.6
						c8.4-5,17.4-8.9,27.1-11.1c0.4-0.1,0.8,0.2,0.9,0.6C1494.8,1564.9,1494.5,1565.3,1494.1,1565.4
						C1494.1,1565.4,1494.1,1565.4,1494.1,1565.4L1494.1,1565.4z"/>
				</g>
			</g>
		</g>
	</g>
	<g>
		<g>
			<g>
				<g>
					<path class="st64" d="M1506.8,1540.5c0.3,1.7-0.2,3.2-0.9,4.5c-0.7,1.4-1.9,2.4-3,3.4c-1.4,0.7-2.9,1.4-4.6,1.4
						c-1.6,0-3.2-0.5-4.5-1.7l0-0.3c5.3,0.5,9.9-3.2,12.6-7.5L1506.8,1540.5z"/>
				</g>
			</g>
		</g>
	</g>
	<g>
		<g>
			<g>
				<g>
					<path class="st55" d="M1506.8,1540.5c-1.3,2.3-3.1,4.3-5.3,5.8s-4.9,2.2-7.6,1.9l-0.2,0l0-0.2c0.6-7.2,3-14.2,7.1-20.2
						c4-6,9.5-11,15.5-14.9c12.1-7.9,26.1-12.4,40.2-15.2l0.1,0.3c-6.9,2.1-13.6,4.7-20.1,7.4c-6.4,2.9-12.8,5.9-18.5,9.9
						c-5.6,4-10.9,8.5-14.8,14.1c-3.8,5.6-6.6,11.9-7.6,18.8l-1.4-1.7c2.2,0.3,4.6,0.1,6.8-1.1c2.2-1.2,4.2-2.9,5.7-5L1506.8,1540.5
						z"/>
				</g>
			</g>
		</g>
	</g>
	<g>
		<g>
			<g>
				<g>
					<path class="st64" d="M1516.8,1519.6c-1.1,1.1-1.8,1.7-2.7,2.2c-0.8,0.5-1.8,0.2-2.9,0.3c-2,0.3-4.1,0.7-6.3,1.1l-0.2-0.4
						c1.6-1.6,3.3-3,5.2-4.2c1-0.6,2-1.4,3.2-1.4c1.2,0.1,2.7,0.4,3.6,1.9L1516.8,1519.6z"/>
				</g>
			</g>
		</g>
	</g>
	<g>
		<g>
			<g>
				<g>
					<path class="st60" d="M1600.4,1550.4c7,6.2,17.1,9,26,6c8.9-2.7,15.7-11.5,15.1-20.8c-0.2-9.4-8.4-17.1-17.4-18.8
						c-4.5-0.9-9.4-0.5-13.6,1.5c-4.2,1.9-7.6,5.4-10,9.4l-0.5-0.3c1.4-4.7,4.7-8.9,9.2-12c4.6-2.8,10.3-3.8,15.9-3.2
						c5.6,0.5,10.9,3.2,15.2,7.1c4.2,3.9,7.2,10.1,7.4,15.9c0.2,6.3-1.8,12.1-5.4,16.8c-3.8,4.5-8.8,7.8-14.3,9
						c-5.4,1.4-11.1,0.8-16-1c-4.8-2.1-9-5.2-11.9-9.1L1600.4,1550.4z"/>
				</g>
			</g>
		</g>
	</g>
	<g>
		<g>
			<g>
				<g>
					<path class="st55" d="M1600.3,1550.5c7.7,5.5,17.5,7.4,25.6,4.3c4-1.6,7.6-4,10-7.4c2.5-3.3,3.7-7.6,3.4-11.5
						c0-8.4-7.3-15.3-15.6-17.3c-8.4-2.3-18,1.3-23.4,9.1l-0.3-0.2c2.4-4.1,5.9-7.6,10.2-9.7c4.3-2.1,9.3-2.6,13.9-1.7
						c9.3,1.7,17.9,9.5,18.2,19.4c0.6,9.8-6.6,18.8-15.8,21.5c-9.2,3-19.5-0.1-26.5-6.3L1600.3,1550.5z"/>
				</g>
			</g>
		</g>
	</g>
	<path class="st44" d="M1556.9,1497.5c3.6,3.4,7.4,6.7,11.4,9.8c9.8,7.9,20.6,14.8,32.1,20.1l-0.2,0.6c-6.7-0.6-13-2.7-18.9-5.5
		c-6-2.7-11.5-6.3-16.7-10.3c-4.8-3.9-9.3-8.2-13.2-13.2L1556.9,1497.5z"/>
	<path class="st60" d="M1551.3,1498.9c-0.2-0.3-0.4-0.5-0.6-0.8c-4-5.2-7.4-10.9-9.5-17.3l0.5-0.4c4.6,6.1,9.7,11.8,15.2,17.1
		L1551.3,1498.9z"/>
	<g>
		<g>
			<g>
				<g>
					<path class="st53" d="M1600.1,1527.9c-11.7-5.1-22.5-11.9-32.6-19.7c-9.9-8-18.8-17.2-26.3-27.4l0.5-0.4
						c5.5,3.8,10.3,7.7,15.2,11.6l14.4,11.4c9.6,7.7,19.2,15,29,23.9L1600.1,1527.9z"/>
				</g>
			</g>
		</g>
	</g>
	<g>
		<g>
			<g>
				<g>
					<path class="st65" d="M1518.9,1557.3c-2.1-1.7-4-3.6-5.6-5.8c-1.5-2.2-2.8-4.8-2.5-7.5l0.2,0c0.3,1.4,0.9,2.4,1.5,3.5
						c0.6,1,1.2,2.1,2.1,3.1c0.6,1.1,1.5,2.1,2.2,3.1c0.8,1.1,1.5,2.2,2.2,3.4L1518.9,1557.3z"/>
				</g>
			</g>
		</g>
	</g>
	<g>
		<g>
			<g>
				<g>
					<path class="st23" d="M1513.6,1544.1c-0.5,1-0.1,1.5,0.2,2.3c0.3,0.8,0.7,1.6,1.1,2.4c0.9,1.6,2,3.2,2.9,4.9l-0.1,0.1
						c-1.3-1.4-2.7-2.8-3.8-4.3c-0.6-0.8-1.2-1.6-1.5-2.6c-0.1-0.5-0.2-1.1,0-1.7c0.1-0.6,0.7-1.1,1.1-1.2L1513.6,1544.1z"/>
				</g>
			</g>
		</g>
	</g>
	<g>
		<g>
			<g>
				<g>
					<path class="st23" d="M1568.5,1538.9c-1.2,2.2-1.9,4.6-1.8,6.9c0.2,2.4,0.9,4.4,1.8,6.8l-0.1,0.1c-1.1-0.7-1.9-1.8-2.5-3
						c-0.5-1.3-0.6-2.6-0.4-3.9c0.2-2.6,1.3-5,2.9-7L1568.5,1538.9z"/>
				</g>
			</g>
		</g>
	</g>
	<g>
		<g>
			<g>
				<g>
					<path class="st23" d="M1500.9,1531.8c-1.3,2.5-2.4,5-3.4,7.6c-0.4,1.3-0.8,2.6-1,3.9c-0.3,1.2-0.3,2.3,1.3,2.7l0,0.2
						c-0.7,0.3-1.7,0.2-2.3-0.6c-0.6-0.8-0.6-1.6-0.6-2.4c0.2-1.5,0.7-2.9,1.4-4.2c1.2-2.6,2.7-4.9,4.4-7.2L1500.9,1531.8z"/>
				</g>
			</g>
		</g>
	</g>
	<g>
		<g>
			<g>
				<g>
					<path class="st23" d="M1518.6,1559.5c1.4,2.4,2.7,4.6,4.3,6.6c1.6,1.9,3.1,3.9,5.1,5.6c4.1,3.1,9.3,4.8,14.7,5.6l0,0.3
						c-5.4,0.1-11.1-0.9-16-3.9c-2.4-1.5-4.8-3.3-6.3-5.9c-1.4-2.5-2.4-5.3-2.1-8.3L1518.6,1559.5z"/>
				</g>
			</g>
		</g>
	</g>
	<g>
		<g>
			<g>
				<g>
					<path class="st23" d="M1497.9,1658.2c6.3,1.1,12.4,2,18.7,2.9c6.3,0.7,12.6,1.2,18.9,1.4l0,0.2c-6.3,0.3-12.7,0.2-19-0.3
						c-6.3-0.3-12.8-1.3-18.6-4L1497.9,1658.2z"/>
				</g>
			</g>
		</g>
	</g>
	<g>
		<g>
			<g>
				<g>
					<path class="st23" d="M1521.2,1634.4c3-2.5,6.4-4.6,10.2-6c3.6-1.6,8.1-2.2,11.8-0.2l0,0.1c-3.9-0.3-7.6,0.3-11.3,1.2
						c-3.7,1.1-7.2,2.9-10.5,5L1521.2,1634.4z"/>
				</g>
			</g>
		</g>
	</g>
	<g>
		<g>
			<g>
				<g>
					<path class="st23" d="M1501.9,1641.9c1.4-3.1,3.4-5.8,5.8-8.3c2.3-2.5,5.5-4.4,8.9-4.6l0,0.2c-2.9,1.7-5.6,3.4-8.2,5.4
						c-2.5,2.1-4.7,4.6-6.4,7.4L1501.9,1641.9z"/>
				</g>
			</g>
		</g>
	</g>
	<path class="st44" d="M1497.1,1569.5c0,0.6-0.5,1-1,1c-0.6,0-1-0.5-1-1c0-0.6,0.5-1,1-1S1497.1,1568.9,1497.1,1569.5z"/>
	<path class="st44" d="M1509,1558.3c0,0.6-0.5,1-1,1c-0.6,0-1-0.5-1-1c0-0.6,0.5-1,1-1C1508.5,1557.2,1509,1557.7,1509,1558.3z"/>
	<path class="st44" d="M1544.2,1566.8c0,0.6-0.5,1-1,1c-0.6,0-1-0.5-1-1c0-0.6,0.5-1,1-1S1544.2,1566.2,1544.2,1566.8z"/>
	<path class="st44" d="M1535.3,1569.5c0,0.6-0.5,1-1,1c-0.6,0-1-0.5-1-1c0-0.6,0.5-1,1-1C1534.9,1568.5,1535.3,1568.9,1535.3,1569.5
		z"/>
	<path class="st44" d="M1550.1,1574.6c0,0.6-0.5,1-1,1c-0.6,0-1-0.5-1-1c0-0.6,0.5-1,1-1C1549.6,1573.6,1550.1,1574,1550.1,1574.6z"
		/>
	<path class="st44" d="M1535.3,1560.8c0,0.6-0.5,1-1,1c-0.6,0-1-0.5-1-1c0-0.6,0.5-1,1-1C1534.9,1559.8,1535.3,1560.3,1535.3,1560.8
		z"/>
	<path class="st44" d="M1500.6,1562.2c0,0.6-0.5,1-1,1c-0.6,0-1-0.5-1-1c0-0.6,0.5-1,1-1C1500.2,1561.2,1500.6,1561.6,1500.6,1562.2
		z"/>
	<path class="st44" d="M1490.2,1563.2c0,0.6-0.5,1-1,1c-0.6,0-1-0.5-1-1c0-0.6,0.5-1,1-1C1489.7,1562.2,1490.2,1562.6,1490.2,1563.2
		z"/>
	<g>
		<g>
			<g>
				<g>
					<path class="st44" d="M1520.8,1931.3c-2.3-2.3-3.8-5.6-4.2-9.2c-0.5-3.6,1-7.6,3.7-10.4c1.5-1.3,3.2-2.2,4.9-2.8
						c0.7-0.3,0.8-0.3,1.3-0.4c0.6-0.1,1.2-0.2,1.8-0.2c1.1-0.1,2.3,0.3,3.2,0.8c3.8,2.3,4.8,6,4.8,9.3l-0.3,0.1
						c-1-2.9-2.5-5.9-5.4-7.2c-2.9-1.2-6,0.8-8.2,2.7c-2.2,2.1-3.4,5.2-3.4,8.2c-0.1,3.1,0.8,6.2,2.1,9L1520.8,1931.3z"/>
				</g>
			</g>
		</g>
	</g>
	<g>
		<g>
			<g>
				<g>
					<path class="st59" d="M1536.1,1933.5c-0.9,2.2-2.2,4.7-4.6,5.7c-2.6,0.8-5.1-0.7-6.8-2.4c-3.5-3.5-5.7-8.3-6.2-13.3
						c-0.5-5,2.2-10.4,7-12.2c2.2-1.3,5.2-1.1,7.1,0.7c1.9,1.7,3,4,3.7,6.4l-0.3,0.1c-1.3-2.1-2.6-4.2-4.5-5.2
						c-0.8-0.6-1.7-0.8-2.6-0.7c-0.4,0-0.8,0.2-1.1,0.3l-0.8,0.3c0,0.1-0.4,0.3-0.6,0.4c-3.7,2.1-5.5,5.7-5,9.9
						c0.1,4.2,2.1,8.6,4.8,11.8c1.3,1.6,3.1,2.8,4.7,2.6c1.8-0.2,3.5-2.2,4.9-4.2L1536.1,1933.5z"/>
				</g>
			</g>
		</g>
	</g>
	<path class="st48" d="M1528.8,1922.7c-8.8-1.9-5.4,13.8,2.3,21.5c0,0-2.7-8.6-0.9-14.8C1532.1,1922.9,1528.8,1922.7,1528.8,1922.7z
		"/>
	<g>
		<g>
			<g>
				<g>
					<path class="st56" d="M1553,1917c0.6-3.5,3.9-6.4,7.7-7.3c2.4-0.7,5.3,0.2,7.2,1.9c1.9,1.7,2.8,3.7,3.4,5.6
						c1,3.8,0.7,7.4-0.5,10.8c-1.1,3.3-3.3,6.3-6.4,8l-0.4-0.3c3.3-4.9,4.3-11.5,2.8-17.2c-0.7-2.8-2.8-5.5-5.9-5.2
						c-2.9,0.3-5.8,1.6-7.7,4L1553,1917z"/>
				</g>
			</g>
		</g>
	</g>
	<g>
		<g>
			<g>
				<g>
					<path class="st59" d="M1553.1,1917.1c1.8-2.5,4.8-4,7.9-4.3c1.6-0.2,3.2,0.4,4.4,1.5c1.2,1.1,1.8,2.6,2.3,4.1
						c1.5,6,0.3,12.6-3.2,17.6l-0.2-0.2c0.9-3.1,1.3-5.9,1.4-8.7c0.1-2.8,0.1-5.6-0.8-7.9c-0.6-2.5-1.7-3.8-3.5-4
						c-2.6-0.1-5.2,0.4-7.9,2.1L1553.1,1917.1z"/>
				</g>
			</g>
		</g>
	</g>
	<path class="st48" d="M1559,1923.6c8.8-1.9,5.4,13.8-2.3,21.5c0,0,2.7-8.6,0.9-14.8C1555.7,1923.8,1559,1923.6,1559,1923.6z"/>
	<g>
		<g>
			<g>
				<g>
					<path class="st44" d="M1535.8,1933.6c-2.9-3.7-4.3-8.9-2.7-14.1c0.7-2.6,2.7-4.9,4.8-6.5c2.2-1.6,4.6-2.6,7.3-3.1
						c3.2-0.4,6.6,1,8.4,3.4c1.8,2.3,2.8,4.8,3,7.4c0.5,5-0.6,10-3.5,13.8l-0.3-0.1c1.8-4.1,2.3-8.8,1.4-13.2
						c-0.4-2.2-1.3-4.3-2.7-6c-1.4-1.7-3.7-2.5-5.8-2.2c-4.3,0.7-8.7,3.2-10.4,7.5c-1.7,4.2-1.1,9,0.8,13.1L1535.8,1933.6z"/>
				</g>
			</g>
		</g>
	</g>
	<g>
		<g>
			<g>
				<g>
					<path class="st59" d="M1535.8,1933.6c-1.9-4.1-2.7-9-0.9-13.4c1.7-4.4,6.2-7.1,10.7-7.9c2.4-0.3,4.8,0.6,6.3,2.4
						c1.5,1.8,2.3,4,2.8,6.3c0.8,4.5,0.3,9.3-1.6,13.4l-0.3-0.1c0.8-4.5,0.7-8.9-0.4-12.8c-0.7-1.9-1.4-3.7-2.5-4.9
						c-1.1-1.2-2.4-1.5-3.8-1.3c-3.8,0.5-7.3,2.5-9,5.8c-1.8,3.3-1.9,7.8-1,12.3L1535.8,1933.6z"/>
				</g>
			</g>
		</g>
	</g>
	<path class="st48" d="M1545.4,1924.9c-5.2-0.4-7.5,12.5-2.5,22.2c0,0,4.1-4.3,5.3-11C1549.9,1927.6,1547.7,1925.1,1545.4,1924.9z"
		/>
	<path class="st48" d="M1570.8,1922.4c6.6-0.7,2.9,12.4-3.3,18.1c0,0,2.6-7.1,1.8-12.5C1568.4,1922.2,1570.8,1922.4,1570.8,1922.4z"
		/>
	<g>
		<g>
			<g>
				<g>
					<path class="st56" d="M1605.5,1920.8c-0.2-1.8,0.2-3.6,1.5-5.3c1.1-1.8,4.2-2.6,6.3-2.2c2,0.8,3.3,1.1,5,2.8
						c1.3,1.6,1.9,3.3,1.7,5.2l-0.3,0.2c-0.8-1.3-1.7-2.6-2.9-3.5c-1.2-0.9-2.8-1.4-4.2-1.7c-1.4-0.4-3,0-4.1,1
						c-1.2,1-2,2.3-2.8,3.6L1605.5,1920.8z"/>
				</g>
			</g>
		</g>
	</g>
	<g>
		<g>
			<g>
				<g>
					<path class="st59" d="M1605.5,1920.8c0.7-1.4,1.5-2.8,2.7-3.8c1.1-1.2,2.9-1.7,4.5-1.3c1.6,0.4,3,1,4.3,2
						c1.3,1,2.2,2.3,2.9,3.7l-0.3,0.2c-1.7-0.8-2.9-1.6-4.1-2c-0.8-0.2-2.6-0.9-3.5-0.8c-1-0.3-1.2-0.3-2.3,0.1
						c-1.1,0.4-2.3,1.3-4,2.2L1605.5,1920.8z"/>
				</g>
			</g>
		</g>
	</g>
	<g>
		<g>
			<g>
				<g>
					<path class="st56" d="M1592.4,1913.7c-2.4-1.7-5.4-2.8-8.3-2.5c-2.9,0.3-5.5,2.2-6.9,4.8c-1.5,2.5-2.1,5.5-2.1,8.5
						c0,3,0.3,6,1.2,8.8l-0.3,0.1c-1.9-2.6-2.8-5.7-3.2-8.9c-0.4-3.2,0.2-6.7,1.8-10c1.8-3.1,5.4-5.8,9.3-5.7c3.8,0,6.9,2,8.7,4.6
						L1592.4,1913.7z"/>
				</g>
			</g>
		</g>
	</g>
	<g>
		<g>
			<g>
				<g>
					<path class="st59" d="M1592.4,1913.7c-3-0.8-5.8-1.2-8.1-0.6c-2.2,0.6-3.9,1.9-4.9,4.1c-1.4,1.9-1.9,4.6-2.3,7.3
						c-0.4,2.7-0.6,5.7-0.8,8.8l-0.3,0.1c-0.9-2.9-1.3-5.9-1.3-8.9c0-3,0.5-6.1,2.1-8.8c1.5-2.7,4.3-4.7,7.3-5
						c3.1-0.3,6.1,1,8.5,2.7L1592.4,1913.7z"/>
				</g>
			</g>
		</g>
	</g>
	<path class="st48" d="M1582.1,1923.7c-8.4-3.2-7.5,12.8-1,21.7c0,0-1.3-8.9,1.4-14.7C1585.4,1924.4,1582.1,1923.7,1582.1,1923.7z"
		/>
	<path class="st48" d="M1612.8,1926.9c8,0.1,1.9,13.1-6.3,18.3c0,0,4-6.9,3.8-12.7C1609.9,1926.4,1612.8,1926.9,1612.8,1926.9z"/>
	<g>
		<g>
			<g>
				<g>
					<path class="st56" d="M1589.8,1937.8c-3.4-4.4-4.8-10.3-4.2-16.2c0.2-3,1.5-6,3.7-8.5c2.2-2.5,5.2-4,8.7-4.5
						c0.4,0,1.8-0.1,2.8,0.2c1,0.2,2,0.7,2.8,1.3c1.6,1.2,2.6,2.8,3.2,4.3c1.2,3,1.5,6,1.2,8.9c-0.5,5.7-2.5,11.4-6.4,15.3l-0.2-0.2
						c3-4.4,4.2-9.9,4.3-15.2c0-2.7-0.3-5.3-1.4-7.8c-1-2.4-3.3-4.3-6-3.8c-2.6,0.3-5.1,1.4-6.9,3.4c-1.8,1.9-2.9,4.4-3.4,7
						c-0.9,5.2-0.2,10.8,2.1,15.6L1589.8,1937.8z"/>
				</g>
			</g>
		</g>
	</g>
	<g>
		<g>
			<g>
				<g>
					<path class="st59" d="M1589.8,1937.8c-2.4-4.8-3.2-10.4-2.3-15.8c0.5-2.7,1.6-5.3,3.4-7.3c1.9-2.1,4.5-3.3,7.2-3.6
						c2.9-0.5,5.6,1.7,6.5,4.2c1.1,2.5,1.4,5.3,1.3,8c-0.2,5.4-1.4,10.8-4.5,15.3l-0.2-0.2c1-2.5,1.8-5,2.1-7.6
						c0.4-2.5,0.6-5.1,0.3-7.6c-0.3-4.9-2.1-10.3-5.3-9.1c-1.8,0.2-4,1-5.4,2.5c-1.5,1.4-2.4,3.6-3.1,5.9c-0.7,2.3-0.9,4.8-0.8,7.4
						c-0.1,2.6,0.4,5.2,1.1,7.8L1589.8,1937.8z"/>
				</g>
			</g>
		</g>
	</g>
	<path class="st48" d="M1596.3,1925.4c-4.3-0.3-6.5,13.2-2.5,23.2c0,0,3.4-4.5,4.6-11.6C1599.9,1928.1,1598.2,1925.5,1596.3,1925.4z
		"/>
	<g>
		<g>
			<g>
				<g>
					<path class="st23" d="M1509.6,1921.7c-0.6,1.1-0.7,2.1-0.7,3.2c-0.1,1.1,0,2.2,0.1,3.4c0.4,2.3,1.1,4.6,2,6.9l-0.1,0.1
						c-1.2-2.1-2.4-4.3-3-6.7c-0.4-1.2-0.6-2.5-0.4-3.8c0.2-1.2,0.8-2.7,2.1-3.2L1509.6,1921.7z"/>
				</g>
			</g>
		</g>
	</g>
	<g>
		<g>
			<g>
				<g>
					<path class="st23" d="M1526.4,1924.5c-1,1-1.1,2.3-1,3.6c0,1.3,0.2,2.7,0.4,4c0.6,2.7,1.6,5.4,2.7,8l-0.1,0.1
						c-1.5-2.4-2.8-5-3.8-7.8c-0.5-1.4-0.8-2.8-0.8-4.4c0.1-1.4,0.8-3.4,2.5-3.7L1526.4,1924.5z"/>
				</g>
			</g>
		</g>
	</g>
	<g>
		<g>
			<g>
				<g>
					<path class="st23" d="M1545.6,1926.2c-1.4,0.7-1.8,2.3-2.3,3.8c-0.5,1.5-0.8,3-1,4.6c-0.3,3.2,0.1,6.4,0.9,9.6l-0.2,0.1
						c-1.2-3.1-2-6.3-2-9.7c0-1.7,0.2-3.4,0.8-5c0.7-1.4,1.7-3.5,3.7-3.4L1545.6,1926.2z"/>
				</g>
			</g>
		</g>
	</g>
	<g>
		<g>
			<g>
				<g>
					<path class="st23" d="M1560.6,1924.3c1.9-0.1,2.9,2.2,3.1,3.7c0.2,1.7-0.1,3.4-0.6,4.9c-1,3.1-2.6,5.9-4.4,8.5l-0.1-0.1
						c1.5-2.8,2.7-5.7,3.4-8.7c0.2-1.5,0.4-3,0.3-4.4c-0.1-1.4-0.3-3-1.6-3.7L1560.6,1924.3z"/>
				</g>
			</g>
		</g>
	</g>
	<g>
		<g>
			<g>
				<g>
					<path class="st23" d="M1571.7,1923.6c-0.1,0.9,0.3,2.2,0.3,3.3c0,1.2-0.1,2.3-0.3,3.4c-0.3,2.3-0.8,4.6-2,6.6l-0.1-0.1
						c0.8-2.2,0.9-4.4,0.9-6.7c0-1.1-0.1-2.3,0-3.4c0.3-1.1,0-2.4,1.2-3.4L1571.7,1923.6z"/>
				</g>
			</g>
		</g>
	</g>
	<g>
		<g>
			<g>
				<g>
					<path class="st23" d="M1580.4,1924.5c-1.4,0.5-1.9,1.9-2.2,3.3c-0.3,1.4-0.4,2.8-0.4,4.3c0.1,3,0.8,6,1.7,9l-0.1,0.1
						c-1.3-2.8-2.3-5.8-2.8-8.9c-0.2-1.6-0.3-3.2,0.2-4.8c0.4-1.4,1.8-3.5,3.7-3L1580.4,1924.5z"/>
				</g>
			</g>
		</g>
	</g>
	<g>
		<g>
			<g>
				<g>
					<path class="st23" d="M1596.5,1927c-1.2,0.6-1.4,2.4-1.8,3.7c-0.4,1.4-0.8,2.9-1.1,4.4c-0.5,3-0.5,6.1,0.1,9.2l-0.2,0.1
						c-1.1-2.9-1.4-6.2-1.2-9.3c0.1-1.6,0.3-3.2,0.8-4.7c0.3-0.8,0.7-1.5,1.1-2.2c0.5-0.6,1.2-1.5,2.2-1.2L1596.5,1927z"/>
				</g>
			</g>
		</g>
	</g>
	<g>
		<g>
			<g>
				<g>
					<path class="st23" d="M1502.3,1907.2c-1,0.1-1.2,1-1.6,1.8c-0.4,0.8-0.6,1.7-0.8,2.6c-0.3,1.9-0.1,3.9,0.4,5.8l-0.1,0.1
						c-0.9-1.8-1.5-3.8-1.5-6c-0.1-1.1,0.1-2.2,0.7-3.2c0.5-0.8,1.9-2.1,3-1.2L1502.3,1907.2z"/>
				</g>
			</g>
		</g>
	</g>
	<g>
		<g>
			<g>
				<g>
					<path class="st23" d="M1614,1928.4c1.6,0.6,1.6,2.6,1.6,3.9c-0.2,1.4-0.7,2.8-1.3,4c-1.3,2.5-3.1,4.6-5.1,6.4l-0.1-0.1
						c1.7-2.1,3.1-4.4,4.1-6.8c0.4-1.2,0.7-2.5,0.9-3.7c0.2-1.2,0.6-2.6-0.1-3.5L1614,1928.4z"/>
				</g>
			</g>
		</g>
	</g>
	<g>
		<g>
			<g>
				<g>
					<path class="st23" d="M1550.9,1839.8c0.9,5.7,0.8,11.4,0.6,17.1c-0.3,5.7-1.4,11.3-2.6,16.9c-1.2,5.6-2.8,11.1-5,16.4
						c-2.3,5.2-5.2,10.4-9.7,13.9l-0.2-0.2c4.2-3.8,6.7-9,8.5-14.2c1.9-5.3,3.1-10.8,4-16.3c0.9-5.5,1.2-11.1,1.9-16.7
						c0.8-5.6,1.3-11.2,2.2-16.8L1550.9,1839.8L1550.9,1839.8z"/>
				</g>
			</g>
		</g>
	</g>
	<g>
		<g>
			<g>
				<g>
					<path class="st23" d="M1494.2,1763.5c7.9,19.5,15.1,39.3,21.2,59.4c3.1,10.1,6.2,20.2,8.3,30.5c2,10.3,3.7,20.8,3.8,31.4
						l-0.3,0c-1.8-10.4-4-20.6-6.5-30.7c-2.5-10.2-4.8-20.4-7.6-30.5c-5.7-20.2-12.1-40.2-19.2-60L1494.2,1763.5z"/>
				</g>
			</g>
		</g>
	</g>
	<g>
		<g>
			<g>
				<g>
					<path class="st23" d="M1643.3,1763.4c5.2-1.6,10.8-2.8,16.6-1.5c5.9,1.3,10.3,6.4,12.3,11.6c2.1,5.3,2.7,10.8,2.9,16.3
						c0.1,5.5-0.3,10.9-1,16.3l-0.3,0c0.3-5.4,0.3-10.8-0.2-16.2c-0.5-5.3-1.4-10.7-3.6-15.4c-2.2-4.7-6.1-8.2-10.8-9.6
						c-4.8-1.6-10.2-1.1-15.7-1.2L1643.3,1763.4z"/>
				</g>
			</g>
		</g>
	</g>
	<g>
		<g>
			<g>
				<g>
					<path class="st54" d="M1507.1,2030.6c-2.2,4.4-1.8,8.9-2.5,13.8c-0.5,4.9-2.3,9.7-4,14.5c-3.4,9.5-8.8,18.2-15.2,25.7l-0.5-0.4
						c4.9-8.5,8.8-17.5,11-26.8c1.2-4.7,1.3-9.5,2.7-14.2c0.7-2.4,1.4-4.8,2.6-7.2c1.1-2.4,3-4.9,5.5-5.9L1507.1,2030.6z"/>
				</g>
			</g>
		</g>
	</g>
	<g>
		<g>
			<g>
				<g>
					<path class="st55" d="M1510.5,2033.2c0.6-2.6,2.1-5.1,3.5-7.2l4.1-6.9c2.8-4.6,6.2-9,10.2-12.7c8.2-7.4,18.4-12,28.7-15.3
						c20.8-6.8,42.8-6.7,63.1-11.5c10.2-2.2,20.1-5.8,27.7-12.6c7.6-6.6,12.1-16.4,14.5-26.3c4.8-20.2-4.7-42.2-20.9-55.8l0.2-0.2
						c8.6,6.5,15.3,15.3,19.6,25c4.3,9.8,5.7,21,3.4,31.5c-2.2,10.4-6.9,20.7-15,27.9c-8,7.3-18.5,11.1-28.9,13.5
						c-20.9,4.7-42.6,4.5-63.1,10.8c-10.2,3-20.2,7.3-28.3,14.3c-4.1,3.4-7.5,7.6-10.5,12l-4.4,6.7c-1.6,2.2-3,4.4-3.8,7
						L1510.5,2033.2z"/>
				</g>
			</g>
		</g>
	</g>
	<g>
		<g>
			<g>
				<g>
					<path class="st55" d="M1634.4,1894.5c7.6,6.3,13.8,14.4,17.8,23.6c3.8,9.2,5.4,19.9,2.1,30c-3.2,10.2-11.9,17.8-21.2,21.8
						c-9.5,4.2-19.3,5.9-29,7.6c-19.5,2.8-38.9,5.2-56.7,12.6c-8.9,3.6-17.2,8.7-24.4,15.1c-3.6,3.2-7,6.7-10.1,10.4
						c-3.1,3.7-5.5,8.3-9.5,11.2l-0.2-0.2c3.9-3.1,6-7.7,9-11.6c2.9-4,6.2-7.7,9.8-11.1c7.1-6.8,15.6-12.1,24.5-16.1
						c18.1-8,37.9-10.4,57.2-13.5c9.6-1.6,19.4-3.3,28.4-7.2c8.9-3.8,16.9-10.7,20.1-20.1c3.3-9.3,2.1-19.6-1.4-28.6
						c-3.5-9.1-9.2-17.4-16.5-23.9L1634.4,1894.5z"/>
				</g>
			</g>
		</g>
	</g>
</g>
</svg>
