<?xml version="1.0" encoding="utf-8"?>
<!-- Generator: Adobe Illustrator 24.3.0, SVG Export Plug-In . SVG Version: 6.00 Build 0)  -->
<svg version="1.1" id="Poster" xmlns="http://www.w3.org/2000/svg" xmlns:xlink="http://www.w3.org/1999/xlink" x="0px" y="0px"
	 viewBox="0 0 800 800" style="enable-background:new 0 0 800 800;" xml:space="preserve">
<style type="text/css">
	.st0{fill:#A7CCEA;}
	.st1{fill:#FBD708;}
	.st2{fill:none;stroke:#FFFFFF;stroke-width:4;stroke-miterlimit:10;}
	.st3{fill-rule:evenodd;clip-rule:evenodd;fill:#FFFFFF;}
	.st4{fill:none;stroke:#FCFAFA;stroke-width:4;stroke-miterlimit:10;}
	.st5{fill:#C6402A;}
	.st6{fill:#C52128;}
	.st7{fill:#9B1F2E;}
	.st8{fill:none;stroke:#C6402A;stroke-width:3;stroke-miterlimit:10;}
	.st9{fill:#D68D51;}
	.st10{fill:#E24E2F;}
	.st11{fill:#FFFFFF;}
	.st12{fill:#F5F5F5;}
	.st13{fill:#C10000;}
	.st14{fill:#C70000;}
	.st15{fill:#800000;}
	.st16{fill:#FF2E29;}
	.st17{fill:#6B7789;}
	.st18{font-family:'Boomboom';}
	.st19{font-size:90px;}
	.st20{fill:#646B77;}
	.st21{fill:none;stroke:#FFFFFF;stroke-width:14;stroke-miterlimit:10;}
	.st22{fill:#7A7A7A;}
	.st23{fill:none;stroke:#A1A3A0;stroke-width:12;stroke-miterlimit:10;}
	.st24{fill-rule:evenodd;clip-rule:evenodd;fill:#A1A3A0;}
	.st25{fill:#E8BF7D;}
	.st26{fill:#BA9044;}
	.st27{fill:#756D56;}
	.st28{fill:#CFF0FF;}
	.st29{fill:#9CE1FF;}
	.st30{fill-rule:evenodd;clip-rule:evenodd;fill:#7A7A7A;}
	.st31{fill:#A1A3A0;}
	.st32{fill:none;stroke:#FFFFFF;stroke-width:2;stroke-miterlimit:10;}
	.st33{fill:#FE575F;}
	.st34{fill:#200B12;}
	.st35{fill:#FFF8E6;}
	.st36{fill:#FFAC06;}
	.st37{fill:#AA5511;}
	.st38{fill:#FE1B2C;}
	.st39{fill:#EA2F46;}
	.st40{fill:#B7E6F5;}
	.st41{fill:#FF0000;}
	.st42{fill:#17C6C7;}
	.st43{fill:#FFE240;}
	.st44{fill:#FED140;}
	.st45{fill:#E7E7E9;}
	.st46{fill:#23D9DC;}
	.st47{fill:#DA0A0E;}
	.st48{fill:#D9E021;}
	.st49{fill:#007AFF;}
	.st50{fill:#1E5DA8;}
	.st51{fill:#0090FC;}
	.st52{fill:#3262CC;}
	.st53{fill:#4082E2;}
	.st54{fill:#4679D3;}
	.st55{fill:#2D5EE8;}
</style>
<rect y="0" class="st0" width="800" height="800"/>
<polygon class="st1" points="703.41,646.03 680.09,733.03 684.72,734.27 708.04,647.27 731.35,560.26 726.72,559.02 "/>
<polygon class="st1" points="765.05,645.61 788.85,734.42 792.56,733.43 768.77,644.62 744.97,555.81 741.25,556.81 "/>
<g>
	<line class="st2" x1="638.33" y1="633.87" x2="726.22" y2="555.85"/>
	<line class="st3" x1="638.33" y1="633.87" x2="726.22" y2="555.85"/>
</g>
<g>
	<line class="st4" x1="787.21" y1="673.33" x2="743.26" y2="560.33"/>
</g>
<path class="st5" d="M735.87,742.72H628.11c-2.51,0-4.54,1.92-4.54,4.29l0,0c0,2.37,2.03,4.29,4.54,4.29h107.77h107.77
	c2.51,0,4.54-1.92,4.54-4.29l0,0c0-2.37-2.03-4.29-4.54-4.29H735.87z"/>
<g>
	<g>
		<path class="st6" d="M698.3,714.94c1.73,0.65,20.48,7.41,46.64,5.63c27.46-1.86,32.07-7.3,32.07-7.3l5.35-5.22
			c0.62-0.6,1.46-0.88,2.29-0.76l4.03,0.59c0.64,0.09,1.3-0.05,1.85-0.41l9.14-5.91c9.19-5.94,6.09-15.22,5.54-16.68
			c-0.06-0.15-0.1-0.3-0.13-0.46l-2.74-13.5c-2.42-11.9,1.29-11.28,2.33-10.89c0.23,0.08,0.46,0.13,0.7,0.14l12.06,0.81
			c2.64,0.18,4.01-3.24,2.04-5.09l-11.07-10.39c-0.64-0.6-0.98-1.48-0.92-2.38c0.18-2.65-2.83-4.15-4.68-2.34l-7.13,6.96
			c-3.2,3.12-5.47,9.4-5.14,13.96c0.25,3.5,0.19,7.06-1.22,8.73c-4.95,5.86-32.58,5.57-32.58,5.57s11.75-0.54-20.37,1.77
			c-32.12,2.32-32.12,2.32-32.12,2.32"/>
		<polyline class="st6" points="700,673.27 710.37,681.6 721.36,678.23 		"/>
		<g>
			<path class="st6" d="M738.29,679.06c-4.44,1.62-16.79,2.98-30-0.34c-12.16-3.06-21.35-9.36-25.41-12.79"/>
		</g>
		<path class="st6" d="M703.65,716.31c-1.84-0.2-21.64-2.6-44.82-16.27c-24.34-14.35-26.38-21.49-26.38-21.49l-2.81-7.27
			c-0.32-0.84-0.98-1.48-1.79-1.75l-3.91-1.31c-0.63-0.21-1.17-0.64-1.53-1.23l-6-9.65c-6.03-9.71,0.49-16.84,1.57-17.92
			c0.11-0.11,0.21-0.23,0.3-0.36l7.87-11.18c6.94-9.86,3.31-10.99,2.2-11.11c-0.24-0.03-0.47-0.09-0.7-0.19l-11.34-4.8
			c-2.48-1.05-2.38-4.83,0.16-5.63l14.23-4.49c0.82-0.26,1.48-0.91,1.79-1.77v0c0.89-2.52,4.23-2.52,5.21,0l3.74,9.69
			c1.68,4.35,1.26,11.18-0.86,15.23c-1.62,3.11-2.98,6.42-2.35,8.61c2.19,7.68,24.32,19.28,24.32,19.28s0.9,0,21.11,11.85
			c28.52,16.72,45.25,14.15,45.25,14.15"/>
	</g>
</g>
<polygon class="st1" points="789.71,643.74 832.16,733.21 826.47,735.91 784.03,646.44 741.58,556.98 747.27,554.28 "/>
<path class="st7" d="M711.99,708.13c34.97,3.74,67.92-1.55,67.63,0.69c-0.29,2.24-25.57,11.84-62.37,6.67
	c-35.76-5.02-68.12-21.68-63.15-21.33"/>
<path class="st8" d="M652.24,649.57c0,0,35.38,19.22,61.88,25.11c24.21,5.38,70.85,0.9,70.85,0.9"/>
<path class="st9" d="M790.8,673.33c-2.69,2.69-19.73,17.94-77.13,8.97c-51.38-8.03-73.54-39.46-74.44-43.05
	c-0.72-2.88,30.89,32.2,82.51,38.56S792.9,671.23,790.8,673.33z"/>
<polygon class="st1" points="680.94,644.38 638.49,733.85 644.18,736.55 686.62,647.08 729.07,557.62 723.38,554.92 "/>
<g>
	<circle class="st10" cx="735.87" cy="546.71" r="15.44"/>
</g>
<circle class="st1" cx="736.23" cy="546.66" r="10.41"/>
<g>
	<path class="st11" d="M634.61,741.84c-2.14,0-3.89-1.74-3.89-3.89s1.74-3.89,3.89-3.89h203.54c2.14,0,3.89,1.74,3.89,3.89
		s-1.74,3.89-3.89,3.89H634.61z"/>
	<g>
		<path class="st11" d="M838.15,734.47c1.92,0,3.48,1.56,3.48,3.48c0,1.92-1.56,3.48-3.48,3.48H736.38H634.61
			c-1.92,0-3.48-1.56-3.48-3.48c0-1.92,1.56-3.48,3.48-3.48h101.77H838.15 M838.15,733.66H736.38H634.61
			c-2.37,0-4.29,1.92-4.29,4.29c0,2.37,1.92,4.29,4.29,4.29h101.77h101.77c2.37,0,4.29-1.92,4.29-4.29
			C842.44,735.58,840.52,733.66,838.15,733.66L838.15,733.66z"/>
	</g>
</g>
<g>
	<path class="st12" d="M762.24,786.99h-3.06v-3.93h3.06c0.64,0,1.28-0.03,1.92-0.08l0.59,3.9
		C763.92,786.95,763.08,786.99,762.24,786.99z M750.39,786.99h-5.28v-3.93h5.28V786.99z M736.31,786.99h-5.28v-3.93h5.28V786.99z
		 M722.23,786.99h-5.28v-3.93h5.28V786.99z M708.16,786.99h-5.28v-3.93h5.28V786.99z M694.08,786.99h-5.28v-3.93h5.28V786.99z
		 M680,786.99h-5.28v-3.93H680V786.99z M665.93,786.99h-5.28v-3.93h5.28V786.99z M651.85,786.99h-5.28v-3.93h5.28V786.99z
		 M637.77,786.99h-5.28v-3.93h5.28V786.99z M623.7,786.99h-5.28v-3.93h5.28V786.99z M609.62,786.99h-5.28v-3.93h5.28V786.99z
		 M595.54,786.99h-5.28v-3.93h5.28V786.99z M581.47,786.99h-5.28v-3.93h5.28V786.99z M567.39,786.99h-5.28v-3.93h5.28V786.99z
		 M553.31,786.99h-5.28v-3.93h5.28V786.99z M539.24,786.99h-5.28v-3.93h5.28V786.99z M525.16,786.99h-5.28v-3.93h5.28V786.99z
		 M511.08,786.99h-5.28v-3.93h5.28V786.99z M497.01,786.99h-5.28v-3.93h5.28V786.99z M482.93,786.99h-5.28v-3.93h5.28V786.99z
		 M468.85,786.99h-5.28v-3.93h5.28V786.99z M454.78,786.99h-5.28v-3.93h5.28V786.99z M440.7,786.99h-5.28v-3.93h5.28V786.99z
		 M426.62,786.99h-5.28v-3.93h5.28V786.99z M412.55,786.99h-5.28v-3.93h5.28V786.99z M398.47,786.99h-5.28v-3.93h5.28V786.99z
		 M384.39,786.99h-5.28v-3.93h5.28V786.99z M370.32,786.99h-5.28v-3.93h5.28V786.99z M356.24,786.99h-5.28v-3.93h5.28V786.99z
		 M342.16,786.99h-5.28v-3.93h5.28V786.99z M328.09,786.99h-5.28v-3.93h5.28V786.99z M314.01,786.99h-5.28v-3.93h5.28V786.99z
		 M299.93,786.99h-5.28v-3.93h5.28V786.99z M285.86,786.99h-5.28v-3.93h5.28V786.99z M271.78,786.99h-5.28v-3.93h5.28V786.99z
		 M257.7,786.99h-5.28v-3.93h5.28V786.99z M243.63,786.99h-5.28v-3.93h5.28V786.99z M229.55,786.99h-5.28v-3.93h5.28V786.99z
		 M215.47,786.99h-5.28v-3.93h5.28V786.99z M201.4,786.99h-5.28v-3.93h5.28V786.99z M187.32,786.99h-5.28v-3.93h5.28V786.99z
		 M173.24,786.99h-5.28v-3.93h5.28V786.99z M159.17,786.99h-5.28v-3.93h5.28V786.99z M145.09,786.99h-5.28v-3.93h5.28V786.99z
		 M131.01,786.99h-5.28v-3.93h5.28V786.99z M116.94,786.99h-5.28v-3.93h5.28V786.99z M102.86,786.99h-5.28v-3.93h5.28V786.99z
		 M88.78,786.99H83.5v-3.93h5.28V786.99z M74.71,786.99h-5.28v-3.93h5.28V786.99z M60.63,786.99h-5.28v-3.93h5.28V786.99z
		 M46.55,786.99h-5.28v-3.93h5.28V786.99z M31.96,786.63c-1.96-0.31-3.85-0.82-5.62-1.52l2.46-3.47c1.35,0.53,2.79,0.92,4.27,1.15
		L31.96,786.63z M774.1,784.4l-2.85-3.3c1.28-0.61,2.44-1.35,3.46-2.2l3.93,2.61C777.3,782.63,775.78,783.6,774.1,784.4z
		 M18.84,780.28c-1.18-1.2-2.14-2.52-2.84-3.92l4.94-1.38c0.53,1.06,1.26,2.06,2.16,2.98L18.84,780.28z M783.4,775.04l-5.08-1.06
		c0.41-1.08,0.61-2.21,0.61-3.35l5.27-0.06v0.06C784.21,772.13,783.94,773.61,783.4,775.04z M19.88,769.24H14.6v-3.93h5.27V769.24z
		 M784.21,764.02h-5.27v-3.93h5.27V764.02z M19.88,758.75H14.6v-3.93h5.27V758.75z M784.21,753.54h-5.27v-3.93h5.27V753.54z
		 M19.88,748.27H14.6v-3.93h5.27V748.27z M784.21,743.06h-5.27v-3.93h5.27V743.06z M19.88,737.79H14.6v-3.93h5.27V737.79z
		 M784.21,732.58h-5.27v-3.93h5.27V732.58z M19.88,727.31H14.6v-3.93h5.27V727.31z M784.21,722.09h-5.27v-3.93h5.27V722.09z
		 M19.88,716.83H14.6v-3.93h5.27V716.83z M784.21,711.61h-5.27v-3.93h5.27V711.61z M19.88,706.35H14.6v-3.93h5.27V706.35z
		 M784.21,701.13h-5.27v-3.93h5.27V701.13z M19.88,695.86H14.6v-3.93h5.27V695.86z M784.21,690.65h-5.27v-3.93h5.27V690.65z
		 M19.88,685.38H14.6v-3.93h5.27V685.38z M784.21,680.17h-5.27v-3.93h5.27V680.17z M19.88,674.9H14.6v-3.93h5.27V674.9z
		 M784.21,669.68h-5.27v-3.93h5.27V669.68z M19.88,664.42H14.6v-3.93h5.27V664.42z M784.21,659.2h-5.27v-3.93h5.27V659.2z
		 M19.88,653.93H14.6V650h5.27V653.93z M784.21,648.72h-5.27v-3.93h5.27V648.72z M19.88,643.45H14.6v-3.93h5.27V643.45z
		 M784.21,638.24h-5.27v-3.93h5.27V638.24z M19.88,632.97H14.6v-3.93h5.27V632.97z M784.21,627.75h-5.27v-3.93h5.27V627.75z
		 M19.88,622.49H14.6v-3.93h5.27V622.49z M784.21,617.27h-5.27v-3.93h5.27V617.27z M19.88,612.01H14.6v-3.93h5.27V612.01z
		 M784.21,606.79h-5.27v-3.93h5.27V606.79z M19.88,601.52H14.6v-3.93h5.27V601.52z M784.21,596.31h-5.27v-3.93h5.27V596.31z
		 M19.88,591.04H14.6v-3.93h5.27V591.04z M784.21,585.83h-5.27v-3.93h5.27V585.83z M19.88,580.56H14.6v-3.93h5.27V580.56z
		 M784.21,575.34h-5.27v-3.93h5.27V575.34z M19.88,570.08H14.6v-3.93h5.27V570.08z M784.21,564.86h-5.27v-3.93h5.27V564.86z
		 M19.88,559.6H14.6v-3.93h5.27V559.6z M784.21,554.38h-5.27v-3.93h5.27V554.38z M19.88,549.11H14.6v-3.93h5.27V549.11z
		 M784.21,543.9h-5.27v-3.93h5.27V543.9z M19.88,538.63H14.6v-3.93h5.27V538.63z M784.21,533.42h-5.27v-3.93h5.27V533.42z
		 M19.88,528.15H14.6v-3.93h5.27V528.15z M784.21,522.93h-5.27V519h5.27V522.93z M19.88,517.67H14.6v-3.93h5.27V517.67z
		 M784.21,512.45h-5.27v-3.93h5.27V512.45z M19.88,507.19H14.6v-3.93h5.27V507.19z M784.21,501.97h-5.27v-3.93h5.27V501.97z
		 M19.88,496.7H14.6v-3.93h5.27V496.7z M784.21,491.49h-5.27v-3.93h5.27V491.49z M19.88,486.22H14.6v-3.93h5.27V486.22z
		 M784.21,481.01h-5.27v-3.93h5.27V481.01z M19.88,475.74H14.6v-3.93h5.27V475.74z M784.21,470.52h-5.27v-3.93h5.27V470.52z
		 M19.88,465.26H14.6v-3.93h5.27V465.26z M784.21,460.04h-5.27v-3.93h5.27V460.04z M19.88,454.78H14.6v-3.93h5.27V454.78z
		 M784.21,449.56h-5.27v-3.93h5.27V449.56z M19.88,444.29H14.6v-3.93h5.27V444.29z M784.21,439.08h-5.27v-3.93h5.27V439.08z
		 M19.88,433.81H14.6v-3.93h5.27V433.81z M784.21,428.6h-5.27v-3.93h5.27V428.6z M19.88,423.33H14.6v-3.93h5.27V423.33z
		 M784.21,418.11h-5.27v-3.93h5.27V418.11z M19.88,412.85H14.6v-3.93h5.27V412.85z M784.21,407.63h-5.27v-3.93h5.27V407.63z
		 M19.88,402.36H14.6v-3.93h5.27V402.36z M784.21,397.15h-5.27v-3.93h5.27V397.15z M19.88,391.88H14.6v-3.93h5.27V391.88z
		 M784.21,386.67h-5.27v-3.93h5.27V386.67z M19.88,381.4H14.6v-3.93h5.27V381.4z M784.21,376.19h-5.27v-3.93h5.27V376.19z
		 M19.88,370.92H14.6v-3.93h5.27V370.92z M784.21,365.7h-5.27v-3.93h5.27V365.7z M19.88,360.44H14.6v-3.93h5.27V360.44z
		 M784.21,355.22h-5.27v-3.93h5.27V355.22z M19.88,349.96H14.6v-3.93h5.27V349.96z M784.21,344.74h-5.27v-3.93h5.27V344.74z
		 M19.88,339.47H14.6v-3.93h5.27V339.47z M784.21,334.26h-5.27v-3.93h5.27V334.26z M19.88,328.99H14.6v-3.93h5.27V328.99z
		 M784.21,323.78h-5.27v-3.93h5.27V323.78z M19.88,318.51H14.6v-3.93h5.27V318.51z M784.21,313.29h-5.27v-3.93h5.27V313.29z
		 M19.88,308.03H14.6v-3.93h5.27V308.03z M784.21,302.81h-5.27v-3.93h5.27V302.81z M19.88,297.54H14.6v-3.93h5.27V297.54z
		 M784.21,292.33h-5.27v-3.93h5.27V292.33z M19.88,287.06H14.6v-3.93h5.27V287.06z M784.21,281.85h-5.27v-3.93h5.27V281.85z
		 M19.88,276.58H14.6v-3.93h5.27V276.58z M784.21,271.36h-5.27v-3.93h5.27V271.36z M19.88,266.1H14.6v-3.93h5.27V266.1z
		 M784.21,260.88h-5.27v-3.93h5.27V260.88z M19.88,255.62H14.6v-3.93h5.27V255.62z M784.21,250.4h-5.27v-3.93h5.27V250.4z
		 M19.88,245.13H14.6v-3.93h5.27V245.13z M784.21,239.92h-5.27v-3.93h5.27V239.92z M19.88,234.65H14.6v-3.93h5.27V234.65z
		 M784.21,229.44h-5.27v-3.93h5.27V229.44z M19.88,224.17H14.6v-3.93h5.27V224.17z M784.21,218.95h-5.27v-3.93h5.27V218.95z
		 M19.88,213.69H14.6v-3.93h5.27V213.69z M784.21,208.47h-5.27v-3.93h5.27V208.47z M19.88,203.21H14.6v-3.93h5.27V203.21z
		 M784.21,197.99h-5.27v-3.93h5.27V197.99z M19.88,192.72H14.6v-3.93h5.27V192.72z M784.21,187.51h-5.27v-3.93h5.27V187.51z
		 M19.88,182.24H14.6v-3.93h5.27V182.24z M784.21,177.03h-5.27v-3.93h5.27V177.03z M19.88,171.76H14.6v-3.93h5.27V171.76z
		 M784.21,166.54h-5.27v-3.93h5.27V166.54z M19.88,161.28H14.6v-3.93h5.27V161.28z M784.21,156.06h-5.27v-3.93h5.27V156.06z
		 M19.88,150.8H14.6v-3.93h5.27V150.8z M784.21,145.58h-5.27v-3.93h5.27V145.58z M19.88,140.31H14.6v-3.93h5.27V140.31z
		 M784.21,135.1h-5.27v-3.93h5.27V135.1z M19.88,129.83H14.6v-3.93h5.27V129.83z M784.21,124.62h-5.27v-3.93h5.27V124.62z
		 M19.88,119.35H14.6v-3.93h5.27V119.35z M784.21,114.13h-5.27v-3.93h5.27V114.13z M19.88,108.87H14.6v-3.93h5.27V108.87z
		 M784.21,103.65h-5.27v-3.93h5.27V103.65z M19.88,98.39H14.6v-3.93h5.27V98.39z M784.21,93.17h-5.27v-3.93h5.27V93.17z M19.88,87.9
		H14.6v-3.93h5.27V87.9z M784.21,82.69h-5.27v-3.93h5.27V82.69z M19.88,77.42H14.6v-3.93h5.27V77.42z M784.21,72.21h-5.27v-3.93
		h5.27V72.21z M19.88,66.94H14.6v-3.93h5.27V66.94z M784.21,61.72h-5.27v-3.93h5.27V61.72z M19.88,56.46H14.6v-3.93h5.27V56.46z
		 M784.21,51.24h-5.27v-3.93h5.27V51.24z M19.88,45.98H14.6v-3.93h5.27V45.98z M784.21,40.76h-5.27v-3.93h5.27V40.76z M14.6,35.49
		v-0.03c0-1.48,0.27-2.96,0.8-4.38l5.08,1.05c-0.4,1.08-0.6,2.2-0.6,3.33L14.6,35.49z M777.87,31.08c-0.54-1.06-1.26-2.06-2.17-2.97
		l4.25-2.32c1.19,1.2,2.15,2.52,2.85,3.91L777.87,31.08z M24.08,27.21l-3.94-2.61c1.33-1.12,2.86-2.09,4.54-2.9l2.86,3.3
		C26.26,25.62,25.1,26.36,24.08,27.21z M769.99,24.45c-1.35-0.53-2.78-0.91-4.27-1.15l1.09-3.84c1.96,0.31,3.85,0.82,5.63,1.51
		L769.99,24.45z M34.62,23.12l-0.61-3.9c0.85-0.07,1.71-0.11,2.56-0.11h3.02v3.93h-3.02C35.92,23.03,35.26,23.06,34.62,23.12z
		 M757.5,23.03h-5.28v-3.93h5.28V23.03z M743.42,23.03h-5.28v-3.93h5.28V23.03z M729.34,23.03h-5.28v-3.93h5.28V23.03z
		 M715.27,23.03h-5.28v-3.93h5.28V23.03z M701.19,23.03h-5.28v-3.93h5.28V23.03z M687.11,23.03h-5.28v-3.93h5.28V23.03z
		 M673.04,23.03h-5.28v-3.93h5.28V23.03z M658.96,23.03h-5.28v-3.93h5.28V23.03z M644.89,23.03h-5.28v-3.93h5.28V23.03z
		 M630.81,23.03h-5.28v-3.93h5.28V23.03z M616.73,23.03h-5.28v-3.93h5.28V23.03z M602.66,23.03h-5.28v-3.93h5.28V23.03z
		 M588.58,23.03h-5.28v-3.93h5.28V23.03z M574.5,23.03h-5.28v-3.93h5.28V23.03z M560.43,23.03h-5.28v-3.93h5.28V23.03z
		 M546.35,23.03h-5.28v-3.93h5.28V23.03z M532.27,23.03h-5.28v-3.93h5.28V23.03z M518.2,23.03h-5.28v-3.93h5.28V23.03z
		 M504.12,23.03h-5.28v-3.93h5.28V23.03z M490.04,23.03h-5.28v-3.93h5.28V23.03z M475.97,23.03h-5.28v-3.93h5.28V23.03z
		 M461.89,23.03h-5.28v-3.93h5.28V23.03z M447.81,23.03h-5.28v-3.93h5.28V23.03z M433.74,23.03h-5.28v-3.93h5.28V23.03z
		 M419.66,23.03h-5.28v-3.93h5.28V23.03z M405.58,23.03h-5.28v-3.93h5.28V23.03z M391.5,23.03h-5.28v-3.93h5.28V23.03z
		 M377.43,23.03h-5.28v-3.93h5.28V23.03z M363.35,23.03h-5.28v-3.93h5.28V23.03z M349.27,23.03H344v-3.93h5.28V23.03z M335.2,23.03
		h-5.28v-3.93h5.28V23.03z M321.12,23.03h-5.28v-3.93h5.28V23.03z M307.04,23.03h-5.28v-3.93h5.28V23.03z M292.97,23.03h-5.28v-3.93
		h5.28V23.03z M278.89,23.03h-5.28v-3.93h5.28V23.03z M264.81,23.03h-5.28v-3.93h5.28V23.03z M250.74,23.03h-5.28v-3.93h5.28V23.03z
		 M236.66,23.03h-5.28v-3.93h5.28V23.03z M222.58,23.03h-5.28v-3.93h5.28V23.03z M208.51,23.03h-5.28v-3.93h5.28V23.03z
		 M194.43,23.03h-5.28v-3.93h5.28V23.03z M180.35,23.03h-5.28v-3.93h5.28V23.03z M166.28,23.03H161v-3.93h5.28V23.03z M152.2,23.03
		h-5.28v-3.93h5.28V23.03z M138.12,23.03h-5.28v-3.93h5.28V23.03z M124.05,23.03h-5.28v-3.93h5.28V23.03z M109.97,23.03h-5.28v-3.93
		h5.28V23.03z M95.89,23.03h-5.28v-3.93h5.28V23.03z M81.82,23.03h-5.28v-3.93h5.28V23.03z M67.74,23.03h-5.28v-3.93h5.28V23.03z
		 M53.66,23.03h-5.28v-3.93h5.28V23.03z"/>
</g>
<g>
	<g>
		<path class="st11" d="M778.88,165.23c-0.36,2.67-2.47,4.48-4.7,4.05c-2.23-0.43-3.75-2.94-3.39-5.61c0.36-2.67,2.47-4.48,4.7-4.05
			C777.72,160.06,779.24,162.57,778.88,165.23z"/>
	</g>
	<g>
		<path class="st11" d="M767.44,161.91c-1.04,2.4-3.51,3.34-5.53,2.1c-2.01-1.24-2.8-4.19-1.76-6.59c1.04-2.4,3.51-3.34,5.52-2.1
			C767.7,156.56,768.48,159.51,767.44,161.91z"/>
	</g>
	<g>
		<path class="st11" d="M756.89,155.4c-1.04,2.4-3.51,3.34-5.52,2.1c-2.01-1.24-2.8-4.19-1.76-6.59c1.04-2.4,3.51-3.34,5.52-2.1
			C757.14,150.05,757.93,153,756.89,155.4z"/>
	</g>
	<g>
		<path class="st11" d="M746.33,148.89c-1.04,2.4-3.51,3.34-5.53,2.1c-2.01-1.24-2.8-4.19-1.76-6.59c1.04-2.4,3.51-3.34,5.53-2.1
			C746.58,143.54,747.37,146.49,746.33,148.89z"/>
	</g>
	<g>
		<path class="st11" d="M735.78,142.38c-1.04,2.4-3.51,3.34-5.53,2.1c-2.01-1.24-2.8-4.19-1.76-6.59c1.04-2.4,3.51-3.34,5.52-2.1
			C736.03,137.04,736.82,139.98,735.78,142.38z"/>
	</g>
	<g>
		<path class="st11" d="M726.18,134.3c-1.6,1.91-4.2,1.91-5.8,0c-1.6-1.91-1.6-5.01,0-6.91c1.6-1.91,4.2-1.91,5.8,0
			C727.78,129.3,727.78,132.4,726.18,134.3z"/>
	</g>
	<g>
		<path class="st11" d="M717.78,124.28c-1.6,1.91-4.2,1.91-5.8,0c-1.6-1.91-1.6-5,0-6.91c1.6-1.91,4.2-1.91,5.8,0
			C719.38,119.28,719.38,122.37,717.78,124.28z"/>
	</g>
	<g>
		<path class="st11" d="M709.38,114.26c-1.6,1.91-4.2,1.91-5.8,0c-1.6-1.91-1.6-5.01,0-6.91c1.6-1.91,4.2-1.91,5.8,0
			C710.98,109.26,710.98,112.35,709.38,114.26z"/>
	</g>
	<g>
		<path class="st11" d="M700.56,104.67c-1.83,1.59-4.39,1.12-5.73-1.06c-1.34-2.18-0.94-5.24,0.89-6.83
			c1.83-1.59,4.39-1.12,5.73,1.06C702.79,100.02,702.39,103.08,700.56,104.67z"/>
	</g>
	<g>
		<path class="st11" d="M694.57,92.48c-2.01,1.24-4.48,0.3-5.52-2.1c-1.04-2.4-0.25-5.35,1.76-6.59c2.01-1.24,4.49-0.3,5.52,2.1
			C697.37,88.29,696.58,91.24,694.57,92.48z"/>
	</g>
	<g>
		<path class="st11" d="M646.25,90.84c2.01,1.24,2.8,4.19,1.76,6.59c-1.04,2.4-3.51,3.34-5.53,2.1c-2.01-1.24-2.8-4.19-1.76-6.59
			C641.77,90.54,644.24,89.6,646.25,90.84z"/>
	</g>
	<g>
		<path class="st11" d="M640.23,102.94c1.6,1.91,1.6,5,0,6.91c-1.6,1.91-4.2,1.91-5.8,0s-1.6-5,0-6.91
			C636.04,101.03,638.63,101.03,640.23,102.94z"/>
	</g>
	<g>
		<path class="st11" d="M631.83,112.96c1.6,1.91,1.6,5.01,0,6.91c-1.6,1.91-4.2,1.91-5.8,0c-1.6-1.91-1.6-5.01,0-6.91
			C627.63,111.05,630.23,111.05,631.83,112.96z"/>
	</g>
	<g>
		<path class="st11" d="M623.42,122.98c1.6,1.91,1.6,5.01,0,6.91c-1.6,1.91-4.2,1.91-5.8,0c-1.6-1.91-1.6-5.01,0-6.91
			C619.23,121.07,621.82,121.07,623.42,122.98z"/>
	</g>
	<g>
		<path class="st11" d="M219.46,203.98c-0.36,2.67-2.46,4.48-4.7,4.05c-2.24-0.43-3.76-2.94-3.39-5.61c0.36-2.67,2.47-4.48,4.7-4.05
			C218.3,198.81,219.82,201.32,219.46,203.98z"/>
	</g>
	<g>
		<path class="st11" d="M205.84,195.73c-0.36,2.67-2.47,4.48-4.7,4.05c-2.24-0.43-3.76-2.94-3.39-5.61c0.36-2.67,2.47-4.48,4.7-4.05
			C204.68,190.55,206.2,193.06,205.84,195.73z"/>
	</g>
	<g>
		<path class="st11" d="M194.11,185.95c-0.36,2.67-2.47,4.48-4.7,4.05c-2.23-0.43-3.76-2.94-3.39-5.6c0.36-2.67,2.47-4.48,4.7-4.05
			C192.95,180.77,194.47,183.28,194.11,185.95z"/>
	</g>
	<g>
		<path class="st11" d="M181.36,178.41c-1.04,2.4-3.51,3.34-5.53,2.1c-2.01-1.24-2.8-4.19-1.76-6.59c1.04-2.4,3.51-3.34,5.53-2.1
			C181.61,173.06,182.4,176.01,181.36,178.41z"/>
	</g>
	<g>
		<path class="st11" d="M169.92,169.01c-1.04,2.4-3.51,3.34-5.53,2.1c-2.01-1.24-2.8-4.19-1.76-6.59c1.04-2.4,3.51-3.34,5.52-2.1
			C170.17,163.66,170.96,166.61,169.92,169.01z"/>
	</g>
	<g>
		<path class="st11" d="M132.93,128.76c-1.6,1.91-4.2,1.91-5.8,0c-1.6-1.91-1.6-5,0-6.91c1.6-1.91,4.2-1.91,5.8,0
			C134.53,123.75,134.53,126.85,132.93,128.76z"/>
	</g>
	<g>
		<path class="st11" d="M124.52,119.39c-1.6,1.91-4.2,1.91-5.8,0c-1.6-1.91-1.6-5,0-6.91c1.6-1.91,4.2-1.91,5.8,0
			C126.12,114.38,126.12,117.48,124.52,119.39z"/>
	</g>
	<g>
		<path class="st11" d="M115.64,109.86c-1.83,1.59-4.39,1.12-5.73-1.06c-1.34-2.18-0.94-5.24,0.89-6.83
			c1.83-1.59,4.39-1.12,5.73,1.06C117.87,105.2,117.47,108.26,115.64,109.86z"/>
	</g>
	<g>
		<path class="st11" d="M109.65,97.67c-2.01,1.24-4.49,0.3-5.53-2.1c-1.04-2.4-0.25-5.35,1.76-6.59c2.01-1.24,4.49-0.3,5.52,2.1
			C112.44,93.48,111.66,96.43,109.65,97.67z"/>
	</g>
	<g>
		<path class="st11" d="M61.33,88.98c2.01,1.24,2.8,4.19,1.76,6.59c-1.04,2.4-3.51,3.34-5.53,2.1c-2.01-1.24-2.8-4.19-1.76-6.59
			C56.85,88.68,59.32,87.74,61.33,88.98z"/>
	</g>
	<g>
		<path class="st11" d="M55.38,102.7c1.6,1.91,1.6,5.01,0,6.91c-1.6,1.91-4.2,1.91-5.8,0c-1.6-1.91-1.6-5,0-6.91
			C51.18,100.79,53.78,100.79,55.38,102.7z"/>
	</g>
	<g>
		<path class="st11" d="M46.98,112.72c1.6,1.91,1.6,5,0,6.91c-1.6,1.91-4.2,1.91-5.8,0c-1.6-1.91-1.6-5,0-6.91
			C42.78,110.81,45.37,110.81,46.98,112.72z"/>
	</g>
	<g>
		<path class="st11" d="M38.57,122.74c1.6,1.91,1.6,5.01,0,6.91c-1.6,1.91-4.2,1.91-5.8,0c-1.6-1.91-1.6-5,0-6.91
			C34.38,120.83,36.97,120.83,38.57,122.74z"/>
	</g>
	<g>
		<path class="st11" d="M30.17,132.76c1.6,1.91,1.6,5,0,6.91c-1.6,1.91-4.2,1.91-5.8,0c-1.6-1.91-1.6-5,0-6.91
			C25.97,130.85,28.57,130.85,30.17,132.76z"/>
	</g>
	<g>
		<path class="st11" d="M142.48,139.84c-1.6,1.91-4.2,1.91-5.8,0c-1.6-1.91-1.6-5,0-6.91c1.6-1.91,4.2-1.91,5.8,0
			C144.09,134.84,144.09,137.93,142.48,139.84z"/>
	</g>
	<g>
		<path class="st11" d="M149.82,150.49c-1.6,1.91-4.2,1.91-5.8,0c-1.6-1.91-1.6-5,0-6.91c1.6-1.91,4.2-1.91,5.8,0
			C151.42,145.49,151.42,148.58,149.82,150.49z"/>
	</g>
	<g>
		<path class="st11" d="M158.02,160.27c-1.6,1.91-4.2,1.91-5.8,0c-1.6-1.91-1.6-5,0-6.91c1.6-1.91,4.2-1.91,5.8,0
			C159.62,155.27,159.62,158.36,158.02,160.27z"/>
	</g>
</g>
<g>
	<rect y="0" class="st13" width="800" height="51.13"/>
	<circle class="st13" cx="41.27" cy="44.01" r="39.59"/>
	<circle class="st13" cx="118.77" cy="43.98" r="39.59"/>
	<circle class="st13" cx="197.91" cy="44.03" r="39.59"/>
	<circle class="st13" cx="275.41" cy="43.99" r="39.59"/>
	<circle class="st13" cx="353.62" cy="44.04" r="39.59"/>
	<circle class="st13" cx="431.11" cy="44" r="39.59"/>
	<circle class="st13" cx="510.26" cy="44.05" r="39.59"/>
	<circle class="st13" cx="587.75" cy="44.02" r="39.59"/>
	<circle class="st13" cx="665.12" cy="44.01" r="39.59"/>
	<circle class="st13" cx="742.62" cy="43.98" r="39.59"/>
	<circle class="st13" cx="823.8" cy="50.16" r="39.59"/>
</g>
<g>
	<polygon class="st11" points="41.27,33.44 46.42,43.87 57.93,45.54 49.6,53.65 51.57,65.12 41.27,59.7 30.98,65.12 32.95,53.65 
		24.62,45.54 36.13,43.87 	"/>
	<polygon class="st11" points="118.77,34.32 123.92,44.75 135.42,46.42 127.1,54.54 129.06,66 118.77,60.59 108.48,66 110.44,54.54 
		102.11,46.42 113.62,44.75 	"/>
	<polygon class="st11" points="198.76,36.59 203.9,47.02 215.41,48.69 207.08,56.81 209.05,68.27 198.76,62.86 188.46,68.27 
		190.43,56.81 182.1,48.69 193.61,47.02 	"/>
	<polygon class="st11" points="276.25,37.48 281.4,47.9 292.91,49.58 284.58,57.69 286.55,69.15 276.25,63.74 265.96,69.15 
		267.92,57.69 259.6,49.58 271.11,47.9 	"/>
	<polygon class="st11" points="355.84,35.46 360.98,45.88 372.49,47.56 364.16,55.67 366.13,67.14 355.84,61.72 345.54,67.14 
		347.51,55.67 339.18,47.56 350.69,45.88 	"/>
	<polygon class="st11" points="433.33,36.34 438.48,46.77 449.99,48.44 441.66,56.56 443.63,68.02 433.33,62.61 423.04,68.02 
		425.01,56.56 416.68,48.44 428.19,46.77 	"/>
	<polygon class="st11" points="513.32,38.61 518.47,49.04 529.97,50.71 521.65,58.83 523.61,70.29 513.32,64.88 503.03,70.29 
		504.99,58.83 496.66,50.71 508.17,49.04 	"/>
	<polygon class="st11" points="590.82,39.49 595.96,49.92 607.47,51.59 599.14,59.71 601.11,71.17 590.82,65.76 580.52,71.17 
		582.49,59.71 574.16,51.59 585.67,49.92 	"/>
	<polygon class="st11" points="666.72,37.48 671.86,47.9 683.37,49.58 675.04,57.69 677.01,69.15 666.72,63.74 656.42,69.15 
		658.39,57.69 650.06,49.58 661.57,47.9 	"/>
	<polygon class="st11" points="744.21,38.36 749.36,48.79 760.87,50.46 752.54,58.57 754.51,70.04 744.21,64.62 733.92,70.04 
		735.89,58.57 727.56,50.46 739.07,48.79 	"/>
	<polygon class="st11" points="824.2,40.63 829.35,51.06 840.86,52.73 832.53,60.85 834.49,72.31 824.2,66.9 813.91,72.31 
		815.87,60.85 807.55,52.73 819.05,51.06 	"/>
</g>
<g>
	<path class="st14" d="M295.34,217.83c0,0-34.34,15.11-123.61,13.74l30.22-36.05L158,183.49l96.14-21.97L295.34,217.83z"/>
	<path class="st15" d="M227.13,210.28c0,0,43.49,7.55,68.22,7.55l-6.87-41.2L227.13,210.28z"/>
	<path class="st14" d="M559.74,217.83c0,0,34.34,15.11,123.61,13.74l-30.22-36.05l43.95-12.03l-96.14-21.97L559.74,217.83z"/>
	<path class="st15" d="M627.95,210.28c0,0-43.49,7.55-68.22,7.55l6.87-41.2L627.95,210.28z"/>
	<g>
		<g>
			<g>
				<path class="st16" d="M661.32,141.3c-152.55-67.2-314.11-67.2-466.65,0c10.82,22.99,21.64,45.98,32.46,68.97
					c132.15-57.58,269.59-57.58,401.74,0C639.69,187.28,650.51,164.3,661.32,141.3z"/>
			</g>
			<g>
				<path class="st16" d="M661.32,141.3c-152.55-67.2-314.11-67.2-466.65,0c10.82,22.99,21.64,45.98,32.46,68.97
					c132.15-57.58,269.59-57.58,401.74,0C639.69,187.28,650.51,164.3,661.32,141.3z"/>
			</g>
		</g>
		<g>
			<g>
				<path class="st16" d="M661.32,141.3c-152.55-67.2-314.11-67.2-466.65,0c10.82,22.99,21.64,45.98,32.46,68.97
					c132.15-57.58,269.59-57.58,401.74,0C639.69,187.28,650.51,164.3,661.32,141.3z"/>
			</g>
			<g>
				<path class="st16" d="M661.32,141.3c-152.55-67.2-314.11-67.2-466.65,0c10.82,22.99,21.64,45.98,32.46,68.97
					c132.15-57.58,269.59-57.58,401.74,0C639.69,187.28,650.51,164.3,661.32,141.3z"/>
			</g>
		</g>
	</g>
</g>
<g>
	<g>
		<path class="st11" d="M295.2,133.17c10.2-4.17,19.73,2.92,23.19,12.31c3.26,8.83-0.02,19.5-8.85,23.31
			c-9.59,4.14-18.14-1.62-22.61-10.44C282.12,148.83,284.95,137.36,295.2,133.17z M299.31,152.38c3.41,8.35,5.41,9.37,7.2,8.64
			c2.14-0.88,1.78-4.92-0.73-11.28c-3.87-9.76-6.18-7.8-6.87-7.52C297.82,142.66,296.21,144.79,299.31,152.38z"/>
		<path class="st11" d="M324.9,134.13c-7.45,2.24-9.8-0.86-10.23-8.19c0.81-0.21,1.44-0.59,11.51-3.7c5.08-1.54,7.63-2.26,12.74-3.6
			c4.58-1.2,8.34-0.1,9.24,3.39c0.79,3.07-0.18,5.59-4.27,6.8c-1.22,0.36-2.6,0.73-4.03,1.12c2.18,7.62,7.1,20.29,6.65,23.62
			c-0.07,0.53-1.16,2.83-5.87,4.25c-5.3,1.6-6.63-1.9-8.09-6.34c-3.62-11.05-4.7-14.69-5.72-17.95
			C326.06,133.76,325.67,133.89,324.9,134.13z"/>
		<path class="st11" d="M387.78,145.7c-2.65,3.24-12.44,6.31-13.94-1.92c-1.51-8.23-2.51-9.28-6.66-8.19
			c0.86,3.5,2.11,9.86,2.69,12.99c-2.03,3-10.59,6.82-13.09-0.28c-0.94-2.67-1.77-7.88-2.53-11.05c-2.23-9.3-2.49-11.56-5.18-19.19
			c2.09-1.41,11.63-6.75,14.28,0.06c1.59,4.09,1.79,8.39,2.52,10.82c5.58-2.21,1.36-13.7,2.44-15.44c0.9-1.44,9.4-4.45,12.09,0.25
			c3.31,5.8-1.14,14.92-5.02,16.03c6.46-0.73,9.24,2.57,10.05,6.06C386.1,138.76,386.34,142.74,387.78,145.7z"/>
		<path class="st11" d="M403.9,144.13c-3.24,3.25-12.32,5.16-13.2-1.86c-1.32-10.47-2.37-21.43-4.3-32
			c9.96-2.44,31.15-5.97,32.02,9.09c0.61,10.45-5.56,12.81-16.28,13.41C402.37,134.92,403.18,142.02,403.9,144.13z M401.66,125.83
			c3.02-0.06,4.25-1.9,4.07-5.22c-0.1-1.9-1.29-5.1-4.78-3.87C400.94,119.26,401.4,123.32,401.66,125.83z"/>
		<path class="st11" d="M434.42,122.67c13.42-0.44,18.3,5.69,17.69,12.93c-0.65,7.59-8.51,10.33-15.15,10.13
			c-2.07-0.06-3.1-0.09-5.17-0.11c-5.04-0.07-9.97-0.94-10.21-6.33c-0.1-2.4-0.06-3.42-0.11-5.94c-0.05-2.86-0.08-4.28-0.13-7.14
			c-0.15-11.4,0.04-13.02-0.74-17.27c2.18-0.82,4.66-1.76,7.84-1.75c4.97,0.01,6.37,2.59,6.28,7.15
			C434.64,118.35,434.39,120.81,434.42,122.67z M434.17,137.97c2.52,0.05,4.45-0.79,4.45-4.86c0-3.53-2.66-3.69-4.27-3.84
			C434.39,130.47,434.06,136.95,434.17,137.97z M468.03,145.5c-0.63,0.52-2.46,2.26-7.32,1.79c-5.46-0.53-5.45-3.56-5.1-8.03
			c1.38-17.71,2-21.28,2.07-24.93c0.08-4.25,3.18-5.34,7.1-5.03c4.34,0.34,6.88,2.16,6.27,6.05
			C469.52,125.24,468.36,135.41,468.03,145.5z"/>
		<path class="st11" d="M481.24,122.5c-7.6-1.34-8.28-5.16-5.38-11.91c0.81,0.17,1.52,0.12,11.84,1.86
			c5.19,0.91,7.78,1.41,12.94,2.51c4.62,0.99,7.48,3.66,6.72,7.18c-0.67,3.1-2.67,4.91-6.87,4.15c-1.25-0.23-2.64-0.51-4.09-0.81
			c-1.48,7.78-2.79,21.31-4.68,24.09c-0.3,0.44-2.31,2-7.12,1.16c-5.42-0.95-5.03-4.67-4.33-9.29c1.74-11.49,2.41-15.23,2.97-18.6
			C482.43,122.69,482.03,122.63,481.24,122.5z"/>
		<path class="st11" d="M539.55,140.82c-2.86,8.09-6.33,18.44-6.46,20.31c-1.13,0.93-3.88,1.41-7.9,0.08
			c-4.67-1.54-4.2-4.31-2.99-8.2c0.89-2.86,3.67-11.36,4.44-13.82c-4.09,4.63-9.07,19.17-17.52,17.2c-4.71-1.1-6.12-3.39-4.92-9.02
			c2.45-11.5,3.97-17.28,4.75-20.89c0.74-3.43,0.82-5.05,1.06-7.77c0,0,5.3-0.29,8.05,0.45c3.97,1.06,5.93,3.08,4.83,6.89
			c-0.43,1.5-4.33,13.61-4.93,15.69c2.69-4.41,7.11-10.64,10.12-14.59c2.48-3.25,5.24-3.56,9.89-2.01c3.98,1.32,5.94,3.95,4.7,7.26
			C542.02,134.15,540.81,137.26,539.55,140.82z"/>
		<path class="st11" d="M566.86,147.26c-3.13-1.53-4.77-2.45-8.73-3.78c-0.73,1.75-1.09,2.63-1.82,4.38
			c3.25,1.68,5.04,2.16,8.5,3.81c4.83,2.3,1.89,10.26-3.46,7.85c-2.58-1.16-7.39-3.75-8.31-3.47c-0.24,0.07-1.27,3.05-1.59,3.82
			c2.6,1.67,7.13,3.42,12.21,4.99c-0.16,7.6-3.87,9.31-9.7,7.26c-4.28-1.51-6.88-2.63-11.4-4.79c-6.88-3.28-4.76-7.68-2.38-14.09
			c2.47-6.68,6.17-16.4,8.07-24.2c7.8,2.55,19.21,6.92,23.18,9.42C576.51,141.65,572.77,150.13,566.86,147.26z"/>
	</g>
</g>
<text transform="matrix(1 0 0 1 321.121 283.3528)" class="st17 st18 st19">ПАРКА</text>
<text transform="matrix(1 0 0 1 314.0273 279.8818)" class="st11 st18 st19">ПАРКА</text>
<text transform="matrix(1 0 0 1 182.8153 361.437)" class="st20 st18 st19">РАЗВЛЕЧЕНИЙ</text>
<text transform="matrix(1 0 0 1 177.7143 357.1241)" class="st11 st18 st19">РАЗВЛЕЧЕНИЙ</text>
<circle class="st21" cx="141.19" cy="545.99" r="136.26"/>
<g>
	<polygon class="st22" points="142.17,751.08 43.78,751.08 43.78,762.84 142.17,762.84 240.56,762.84 240.56,751.08 	"/>
</g>
<g>
	<polygon class="st22" points="102.21,645.44 65.66,754.57 75.83,758.59 112.38,649.46 148.93,540.33 138.76,536.3 	"/>
</g>
<g>
	<polygon class="st22" points="170.92,649.29 207.41,758.25 217.58,754.23 181.09,645.26 144.6,536.3 134.43,540.33 	"/>
</g>
<g>
	<line class="st23" x1="141.68" y1="406.77" x2="141.68" y2="546.49"/>
	<line class="st24" x1="141.68" y1="406.77" x2="141.68" y2="546.49"/>
</g>
<g>
	<line class="st23" x1="142.17" y1="546.98" x2="142.17" y2="686.69"/>
	<line class="st24" x1="142.17" y1="546.98" x2="142.17" y2="686.69"/>
</g>
<g>
	<line class="st23" x1="281.88" y1="546.35" x2="142.17" y2="546.35"/>
	<line class="st24" x1="281.88" y1="546.35" x2="142.17" y2="546.35"/>
</g>
<g>
	<line class="st23" x1="141.43" y1="546.37" x2="1.72" y2="546.37"/>
	<line class="st24" x1="141.43" y1="546.37" x2="1.72" y2="546.37"/>
</g>
<g>
	<line class="st23" x1="239.99" y1="447" x2="141.19" y2="545.8"/>
	<line class="st24" x1="239.99" y1="447" x2="141.19" y2="545.8"/>
</g>
<g>
	<line class="st23" x1="141.19" y1="546.49" x2="42.4" y2="645.28"/>
	<line class="st24" x1="141.19" y1="546.49" x2="42.4" y2="645.28"/>
</g>
<g>
	<line class="st23" x1="239.99" y1="644.94" x2="141.19" y2="546.14"/>
	<line class="st24" x1="239.99" y1="644.94" x2="141.19" y2="546.14"/>
</g>
<g>
	<line class="st23" x1="140.5" y1="546.14" x2="41.71" y2="447.35"/>
	<line class="st24" x1="140.5" y1="546.14" x2="41.71" y2="447.35"/>
</g>
<g>
	<circle class="st22" cx="141.68" cy="546.49" r="30.99"/>
</g>
<circle class="st21" cx="142.1" cy="547.91" r="77.78"/>
<rect x="220.52" y="663.01" class="st25" width="37.51" height="14.92"/>
<path class="st25" d="M244.36,693.44h-10.17c-7.52,0-13.67-6.15-13.67-13.67v-2.02h37.51v2.02
	C258.03,687.29,251.88,693.44,244.36,693.44z"/>
<path class="st26" d="M230.32,693.44c-2.81,0-5.12-2.3-5.12-5.12v-4.86h-4.69v4.86c0,2.81,2.3,5.12,5.12,5.12h5.97l0,0H230.32z"/>
<rect x="220.52" y="668.12" class="st27" width="37.51" height="17.9"/>
<path class="st28" d="M245.62,669.46h-12.53h-9.58c-0.95,0-1.71,0.77-1.71,1.71v11.72c0,0.95,0.77,1.71,1.71,1.71h9.58h12.53h9.42
	c0.95,0,1.71-0.77,1.71-1.71v-11.72c0-0.95-0.77-1.71-1.71-1.71H245.62z"/>
<rect x="220.52" y="663.01" class="st26" width="37.51" height="3.41"/>
<path class="st25" d="M239.27,649.23l-15.47,9.52c-2.76,1.7-1.56,5.96,1.69,5.96h27.57c3.24,0,4.45-4.26,1.69-5.96L239.27,649.23z"
	/>
<polygon class="st29" points="224.48,684.64 230.5,684.64 241.04,669.5 235.03,669.5 "/>
<polygon class="st29" points="241.19,684.7 245.07,684.7 255.62,669.56 251.73,669.56 "/>
<rect x="231.6" y="668.97" class="st27" width="1.71" height="15.77"/>
<rect x="244.82" y="669.4" class="st27" width="1.71" height="15.77"/>
<path class="st26" d="M242.86,651.49l-3.66-2.25l-23.25,14.31c-0.54,0.33-0.3,1.17,0.33,1.17h5.09L242.86,651.49z"/>
<g>
	<circle class="st30" cx="238.59" cy="643.89" r="9.84"/>
</g>
<circle class="st31" cx="142.09" cy="546.41" r="23.13"/>
<rect x="259.27" y="565.74" class="st25" width="37.51" height="14.92"/>
<path class="st25" d="M283.11,596.18h-10.17c-7.52,0-13.67-6.15-13.67-13.67v-2.02h37.51v2.02
	C296.78,590.03,290.63,596.18,283.11,596.18z"/>
<path class="st26" d="M269.08,596.18c-2.81,0-5.12-2.3-5.12-5.12v-4.86h-4.69v4.86c0,2.81,2.3,5.12,5.12,5.12h5.97l0,0H269.08z"/>
<rect x="259.27" y="570.86" class="st27" width="37.51" height="17.9"/>
<path class="st28" d="M284.37,572.2h-12.53h-9.58c-0.95,0-1.71,0.77-1.71,1.71v11.72c0,0.95,0.77,1.71,1.71,1.71h9.58h12.53h9.42
	c0.95,0,1.71-0.77,1.71-1.71v-11.72c0-0.95-0.77-1.71-1.71-1.71H284.37z"/>
<rect x="259.27" y="565.74" class="st26" width="37.51" height="3.41"/>
<path class="st25" d="M278.03,551.97l-15.47,9.52c-2.76,1.7-1.56,5.96,1.69,5.96h27.57c3.24,0,4.45-4.26,1.69-5.96L278.03,551.97z"
	/>
<polygon class="st29" points="263.24,587.38 269.25,587.38 279.8,572.24 273.78,572.24 "/>
<rect x="270.35" y="571.71" class="st27" width="1.71" height="15.77"/>
<path class="st26" d="M281.61,554.22l-3.66-2.25l-23.25,14.31c-0.54,0.33-0.3,1.17,0.33,1.17h5.09L281.61,554.22z"/>
<rect x="123.09" y="700.29" class="st25" width="37.51" height="14.92"/>
<path class="st25" d="M146.93,730.73h-10.17c-7.52,0-13.67-6.15-13.67-13.67v-2.02h37.51v2.02
	C160.6,724.58,154.45,730.73,146.93,730.73z"/>
<path class="st26" d="M132.89,730.73c-2.81,0-5.12-2.3-5.12-5.12v-4.86h-4.69v4.86c0,2.81,2.3,5.12,5.12,5.12h5.97l0,0H132.89z"/>
<rect x="123.09" y="705.41" class="st27" width="37.51" height="17.9"/>
<path class="st28" d="M148.19,706.75h-12.53h-9.58c-0.95,0-1.71,0.77-1.71,1.71v11.72c0,0.95,0.77,1.71,1.71,1.71h9.58h12.53h9.42
	c0.95,0,1.71-0.77,1.71-1.71v-11.72c0-0.95-0.77-1.71-1.71-1.71H148.19z"/>
<rect x="123.09" y="700.29" class="st26" width="37.51" height="3.41"/>
<path class="st25" d="M141.84,686.52l-15.47,9.52c-2.76,1.7-1.56,5.96,1.69,5.96h27.57c3.24,0,4.45-4.26,1.69-5.96L141.84,686.52z"
	/>
<polygon class="st29" points="127.05,721.93 133.07,721.93 143.62,706.79 137.6,706.79 "/>
<polygon class="st29" points="143.76,721.99 147.64,721.99 158.19,706.85 154.3,706.85 "/>
<rect x="134.17" y="706.26" class="st27" width="1.71" height="15.77"/>
<rect x="147.39" y="706.69" class="st27" width="1.71" height="15.77"/>
<path class="st26" d="M145.43,688.77l-3.66-2.25l-23.25,14.31c-0.54,0.33-0.3,1.17,0.33,1.17h5.09L145.43,688.77z"/>
<rect x="123.09" y="430.47" class="st25" width="37.51" height="14.92"/>
<path class="st25" d="M146.93,460.91h-10.17c-7.52,0-13.67-6.15-13.67-13.67v-2.02h37.51v2.02
	C160.6,454.76,154.45,460.91,146.93,460.91z"/>
<path class="st26" d="M132.89,460.91c-2.81,0-5.12-2.3-5.12-5.12v-4.86h-4.69v4.86c0,2.81,2.3,5.12,5.12,5.12h5.97l0,0H132.89z"/>
<rect x="123.09" y="435.58" class="st27" width="37.51" height="17.9"/>
<path class="st28" d="M148.19,436.92h-12.53h-9.58c-0.95,0-1.71,0.77-1.71,1.71v11.72c0,0.95,0.77,1.71,1.71,1.71h9.58h12.53h9.42
	c0.95,0,1.71-0.77,1.71-1.71v-11.72c0-0.95-0.77-1.71-1.71-1.71H148.19z"/>
<rect x="123.09" y="430.47" class="st26" width="37.51" height="3.41"/>
<path class="st25" d="M141.84,416.7l-15.47,9.52c-2.76,1.7-1.56,5.96,1.69,5.96h27.57c3.24,0,4.45-4.26,1.69-5.96L141.84,416.7z"/>
<polygon class="st29" points="127.05,452.11 133.07,452.11 143.62,436.97 137.6,436.97 "/>
<polygon class="st29" points="143.76,452.16 147.64,452.16 158.19,437.02 154.3,437.02 "/>
<rect x="134.17" y="436.44" class="st27" width="1.71" height="15.77"/>
<rect x="147.39" y="436.86" class="st27" width="1.71" height="15.77"/>
<path class="st26" d="M145.43,418.95l-3.66-2.25l-23.25,14.31c-0.54,0.33-0.3,1.17,0.33,1.17h5.09L145.43,418.95z"/>
<rect x="27.18" y="661.93" class="st25" width="37.51" height="14.92"/>
<path class="st25" d="M51.02,692.37H40.85c-7.52,0-13.67-6.15-13.67-13.67v-2.02h37.51v2.02C64.69,686.22,58.54,692.37,51.02,692.37
	z"/>
<path class="st26" d="M36.98,692.37c-2.81,0-5.12-2.3-5.12-5.12v-4.86h-4.69v4.86c0,2.81,2.3,5.12,5.12,5.12h5.97l0,0H36.98z"/>
<rect x="27.18" y="667.05" class="st27" width="37.51" height="17.9"/>
<path class="st28" d="M52.28,668.39H39.75h-9.58c-0.95,0-1.71,0.77-1.71,1.71v11.72c0,0.95,0.77,1.71,1.71,1.71h9.58h12.53h9.42
	c0.95,0,1.71-0.77,1.71-1.71V670.1c0-0.95-0.77-1.71-1.71-1.71H52.28z"/>
<rect x="27.18" y="661.93" class="st26" width="37.51" height="3.41"/>
<path class="st25" d="M45.94,648.16l-15.47,9.52c-2.76,1.7-1.56,5.96,1.69,5.96h27.57c3.24,0,4.45-4.26,1.69-5.96L45.94,648.16z"/>
<polygon class="st29" points="31.14,683.57 37.16,683.57 47.71,668.43 41.69,668.43 "/>
<polygon class="st29" points="47.85,683.62 51.73,683.62 62.28,668.48 58.39,668.48 "/>
<rect x="38.26" y="667.9" class="st27" width="1.71" height="15.77"/>
<rect x="51.48" y="668.33" class="st27" width="1.71" height="15.77"/>
<path class="st26" d="M49.52,650.41l-3.66-2.25l-23.25,14.31c-0.54,0.33-0.3,1.17,0.33,1.17h5.09L49.52,650.41z"/>
<rect x="-13.74" y="566.87" class="st25" width="37.51" height="14.92"/>
<path class="st25" d="M10.1,597.31H-0.07c-7.52,0-13.67-6.15-13.67-13.67v-2.02h37.51v2.02C23.77,591.16,17.62,597.31,10.1,597.31z"
	/>
<path class="st26" d="M-2.3,597.5c-3,0-5.45-1.77-5.45-3.94v-3.75h-5v3.75c0,2.17,2.45,3.94,5.45,3.94h6.36l0,0H-2.3z"/>
<rect x="-13.74" y="571.99" class="st27" width="37.51" height="17.9"/>
<path class="st28" d="M11.36,573.33H-1.17h-9.58c-0.95,0-1.71,0.77-1.71,1.72v11.8c0,0.95,0.77,1.72,1.71,1.72h9.58h12.53h9.42
	c0.95,0,1.71-0.77,1.71-1.72v-11.8c0-0.95-0.77-1.72-1.71-1.72H11.36z"/>
<rect x="-13.74" y="566.87" class="st26" width="37.51" height="3.41"/>
<path class="st25" d="M5.01,553.1l-15.47,9.52c-2.76,1.7-1.56,5.96,1.69,5.96H18.8c3.24,0,4.45-4.26,1.69-5.96L5.01,553.1z"/>
<polygon class="st29" points="-9.78,588.51 -3.76,588.51 6.78,573.37 0.77,573.37 "/>
<polygon class="st29" points="6.93,588.57 10.81,588.57 21.36,573.43 17.47,573.43 "/>
<rect x="10.56" y="573.27" class="st27" width="1.71" height="15.77"/>
<path class="st26" d="M8.6,555.35l-3.66-2.25l-23.25,14.31c-0.54,0.33-0.3,1.17,0.33,1.17h5.09L8.6,555.35z"/>
<rect x="25.9" y="469.69" class="st25" width="37.51" height="14.92"/>
<path class="st25" d="M49.74,500.12H39.57c-7.52,0-13.67-6.15-13.67-13.67v-2.02h37.51v2.02C63.41,493.97,57.26,500.12,49.74,500.12
	z"/>
<path class="st26" d="M35.7,500.12c-2.81,0-5.12-2.3-5.12-5.12v-4.86H25.9v4.86c0,2.81,2.3,5.12,5.12,5.12h5.97l0,0H35.7z"/>
<rect x="25.9" y="474.8" class="st27" width="37.51" height="17.9"/>
<path class="st28" d="M51,476.14H38.47h-9.58c-0.95,0-1.71,0.77-1.71,1.71v11.72c0,0.95,0.77,1.71,1.71,1.71h9.58H51h9.42
	c0.95,0,1.71-0.77,1.71-1.71v-11.72c0-0.95-0.77-1.71-1.71-1.71H51z"/>
<rect x="25.9" y="469.69" class="st26" width="37.51" height="3.41"/>
<path class="st25" d="M44.66,455.91l-15.47,9.52c-2.76,1.7-1.56,5.96,1.69,5.96h27.57c3.24,0,4.45-4.26,1.69-5.96L44.66,455.91z"/>
<polygon class="st29" points="29.86,491.32 35.88,491.32 46.43,476.18 40.41,476.18 "/>
<polygon class="st29" points="46.57,491.38 50.45,491.38 61,476.24 57.11,476.24 "/>
<rect x="36.98" y="475.65" class="st27" width="1.71" height="15.77"/>
<rect x="50.2" y="476.08" class="st27" width="1.71" height="15.77"/>
<g>
	<circle class="st30" cx="277.95" cy="545.99" r="9.84"/>
</g>
<path class="st26" d="M48.24,458.17l-3.66-2.25l-23.25,14.31c-0.54,0.33-0.3,1.17,0.33,1.17h5.09L48.24,458.17z"/>
<rect x="218.57" y="469.69" class="st25" width="37.51" height="14.92"/>
<path class="st25" d="M242.41,500.12h-10.17c-7.52,0-13.67-6.15-13.67-13.67v-2.02h37.51v2.02
	C256.08,493.97,249.93,500.12,242.41,500.12z"/>
<path class="st26" d="M228.38,500.12c-2.81,0-5.12-2.3-5.12-5.12v-4.86h-4.69v4.86c0,2.81,2.3,5.12,5.12,5.12h5.97l0,0H228.38z"/>
<rect x="218.57" y="474.8" class="st27" width="37.51" height="17.9"/>
<path class="st28" d="M243.67,476.14h-12.53h-9.58c-0.95,0-1.71,0.77-1.71,1.71v11.72c0,0.95,0.77,1.71,1.71,1.71h9.58h12.53h9.42
	c0.95,0,1.71-0.77,1.71-1.71v-11.72c0-0.95-0.77-1.71-1.71-1.71H243.67z"/>
<rect x="218.57" y="469.69" class="st26" width="37.51" height="3.41"/>
<path class="st25" d="M237.33,455.91l-15.47,9.52c-2.76,1.7-1.56,5.96,1.69,5.96h27.57c3.24,0,4.45-4.26,1.69-5.96L237.33,455.91z"
	/>
<polygon class="st29" points="222.54,491.32 228.55,491.32 239.1,476.18 233.08,476.18 "/>
<polygon class="st29" points="239.24,491.38 243.13,491.38 253.67,476.24 249.78,476.24 "/>
<rect x="229.66" y="475.65" class="st27" width="1.71" height="15.77"/>
<rect x="242.87" y="476.08" class="st27" width="1.71" height="15.77"/>
<path class="st26" d="M240.91,458.17l-3.66-2.25L214,470.22c-0.54,0.33-0.3,1.17,0.33,1.17h5.09L240.91,458.17z"/>
<g>
	<circle class="st30" cx="237.2" cy="450.48" r="9.84"/>
</g>
<g>
	<circle class="st30" cx="142.17" cy="411.2" r="9.84"/>
</g>
<g>
	<circle class="st30" cx="142.17" cy="681.77" r="9.84"/>
</g>
<g>
	<circle class="st30" cx="5.41" cy="546.98" r="9.84"/>
</g>
<g>
	<circle class="st30" cx="45.88" cy="641.8" r="9.84"/>
</g>
<g>
	<ellipse class="st30" cx="44.49" cy="449.68" rx="9.84" ry="9.95"/>
</g>
<rect x="-3.26" y="573.09" class="st27" width="1.71" height="15.77"/>
<g>
	<line class="st32" x1="116.65" y1="302.87" x2="125.32" y2="321.77"/>
	<line class="st32" x1="146.65" y1="303.57" x2="137.97" y2="322.47"/>
	<path class="st33" d="M132.29,321.3h-1.16h-6.78c-0.7,0-1.24,0.61-1.16,1.31l1.15,9.6c0.14,1.14,1.1,2,2.25,2h4.54h1.16h4.54
		c1.15,0,2.12-0.86,2.25-2l1.15-9.6c0.08-0.69-0.46-1.31-1.16-1.31H132.29z"/>
	<path class="st33" d="M113.08,300.37h37.27c10.63-8.4,17.74-23.24,17.74-37.66c0-21.82-16.29-34.43-36.38-34.43
		s-36.38,12.61-36.38,34.43C95.34,277.13,102.45,291.97,113.08,300.37z"/>
	<path class="st33" d="M151.03,305.65H112.4c-0.99,0-1.8-0.81-1.8-1.8v-2.26c0-0.99,0.81-1.8,1.8-1.8h38.64c0.99,0,1.8,0.81,1.8,1.8
		v2.26C152.84,304.84,152.02,305.65,151.03,305.65z"/>
	<path class="st34" d="M138.03,309.29h-12.24c-0.62,0-1.12-0.5-1.12-1.12v-1.4c0-0.62,0.5-1.12,1.12-1.12h12.24
		c0.62,0,1.12,0.5,1.12,1.12v1.4C139.15,308.79,138.64,309.29,138.03,309.29z"/>
	<path class="st35" d="M116.5,299.91h30.28c8.63-8.4,14.41-23.24,14.41-37.66c0-21.82-13.23-34.43-29.55-34.43
		s-29.55,12.61-29.55,34.43C102.08,276.67,107.86,291.5,116.5,299.91z"/>
	<path class="st36" d="M121.24,299.91h20.82c5.94-8.4,9.91-23.24,9.91-37.66c0-21.82-9.1-34.43-20.32-34.43
		c-11.22,0-20.32,12.61-20.32,34.43C111.33,276.67,115.31,291.5,121.24,299.91z"/>
	<path class="st33" d="M126.91,299.91h9.5c2.71-8.4,4.52-23.24,4.52-37.66c0-21.82-4.15-34.43-9.27-34.43
		c-5.12,0-9.27,12.61-9.27,34.43C122.38,276.67,124.2,291.5,126.91,299.91z"/>
	<line class="st32" x1="56.5" y1="312.38" x2="66.49" y2="334.15"/>
	<line class="st32" x1="91.05" y1="313.19" x2="81.06" y2="334.96"/>
	<path class="st37" d="M74.52,333.61h-1.33h-7.81c-0.81,0-1.43,0.7-1.33,1.5l1.32,11.06c0.16,1.31,1.27,2.3,2.59,2.3h5.23h1.33h5.23
		c1.32,0,2.44-0.99,2.59-2.3l1.32-11.06c0.1-0.8-0.53-1.5-1.33-1.5H74.52z"/>
	<path class="st38" d="M52.39,309.5h42.93c12.24-9.68,20.44-26.77,20.44-43.39c0-25.14-18.76-39.66-41.9-39.66
		s-41.9,14.52-41.9,39.66C31.95,282.73,40.15,299.82,52.39,309.5z"/>
	<path class="st39" d="M96.11,315.59H51.6c-1.14,0-2.08-0.93-2.08-2.08v-2.6c0-1.14,0.93-2.08,2.08-2.08h44.51
		c1.14,0,2.08,0.93,2.08,2.08v2.6C98.18,314.65,97.25,315.59,96.11,315.59z"/>
	<path class="st34" d="M81.13,319.78H67.03c-0.71,0-1.29-0.58-1.29-1.29v-1.62c0-0.71,0.58-1.29,1.29-1.29h14.09
		c0.71,0,1.29,0.58,1.29,1.29v1.62C82.41,319.2,81.83,319.78,81.13,319.78z"/>
	<path class="st6" d="M56.32,308.97H91.2c9.94-9.68,16.6-26.77,16.6-43.39c0-25.14-15.24-39.66-34.04-39.66
		s-34.04,14.52-34.04,39.66C39.72,282.2,46.38,299.29,56.32,308.97z"/>
	<path class="st38" d="M61.79,308.97h23.98c6.84-9.68,11.42-26.77,11.42-43.39c0-25.14-10.48-39.66-23.41-39.66
		s-23.41,14.52-23.41,39.66C50.38,282.2,54.96,299.29,61.79,308.97z"/>
	<path class="st6" d="M68.31,308.97h10.94c3.12-9.68,5.21-26.77,5.21-43.39c0-25.14-4.78-39.66-10.68-39.66
		s-10.68,14.52-10.68,39.66C63.11,282.2,65.2,299.29,68.31,308.97z"/>
</g>
<g>
	<rect x="311.19" y="606.04" class="st40" width="240.57" height="116.55"/>
	<path class="st41" d="M530.83,762.19H331.36c-20.22,0-36.61-16.39-36.61-36.61v0c0-20.22,16.39-36.61,36.61-36.61h199.48
		c20.22,0,36.61,16.39,36.61,36.61v0C567.44,745.8,551.05,762.19,530.83,762.19z"/>
	<path class="st41" d="M552.13,606.04H310.07c-3.92,0-7.1-3.18-7.1-7.1l0,0c0-3.92,3.18-7.1,7.1-7.1h242.06c3.92,0,7.1,3.18,7.1,7.1
		l0,0C559.22,602.87,556.05,606.04,552.13,606.04z"/>
	<g>
		<rect x="375.44" y="551.92" class="st42" width="26.15" height="39.93"/>
		<rect x="370.21" y="518.77" class="st43" width="36.61" height="19.59"/>
		<path class="st44" d="M406.82,538.36c-5.23,13.56-5.23,13.56-5.23,13.56h-26.15l-5.23-13.56"/>
		<polygon class="st41" points="388.21,502.2 370.36,518.77 406.07,518.77 		"/>
	</g>
	<g>
		<rect x="458.51" y="551.91" class="st42" width="26.15" height="39.6"/>
		<rect x="453.28" y="519.04" class="st43" width="36.61" height="19.42"/>
		<path class="st44" d="M489.89,538.46c-5.23,13.45-5.23,13.45-5.23,13.45h-26.15l-5.23-13.45"/>
		<polygon class="st41" points="471.28,502.6 453.43,519.04 489.14,519.04 		"/>
	</g>
	<path class="st41" d="M385.9,690.1c0-36.73,20.57-66.51,45.95-66.51s45.95,29.78,45.95,66.51"/>
	<path class="st45" d="M394.65,688.33c0-30.92,16.85-55.99,37.63-55.99s37.63,25.07,37.63,55.99"/>
	<g>
		<rect x="334.44" y="632.38" class="st42" width="30.39" height="63.25"/>
		<rect x="328.37" y="584.09" class="st43" width="42.54" height="31.44"/>
		<path class="st44" d="M370.91,615.52c-6.08,16.85-6.08,16.85-6.08,16.85h-30.39l-6.08-16.85"/>
		<polygon class="st41" points="349.29,557.48 328.54,584.09 370.04,584.09 		"/>
		<polygon class="st46" points="378.43,743.51 320.26,743.51 334.15,695.63 364.54,695.63 		"/>
	</g>
	<g>
		<rect x="495.13" y="632.98" class="st42" width="30.39" height="62.91"/>
		<rect x="489.05" y="584.95" class="st43" width="42.54" height="31.27"/>
		<path class="st44" d="M531.59,616.22c-6.08,16.76-6.08,16.76-6.08,16.76h-30.39l-6.08-16.76"/>
		<polygon class="st41" points="509.97,558.49 489.22,584.95 530.72,584.95 		"/>
		<polygon class="st46" points="539.11,743.51 480.94,743.51 494.83,695.89 525.22,695.89 		"/>
	</g>
	<path class="st47" d="M562.75,743.51c-6.28,11.15-18.22,18.67-31.92,18.67H331.36c-13.7,0-25.65-7.53-31.92-18.67"/>
	<rect x="408.31" y="743.51" class="st46" width="46.32" height="18.68"/>
	<polyline class="st43" points="462.96,743.51 462.96,762.45 449.51,762.45 449.51,743.51 	"/>
	<polyline class="st43" points="415.03,743.51 415.03,762.19 401.59,762.19 401.59,743.51 	"/>
	<rect x="408.31" y="688.23" class="st42" width="49.31" height="55.29"/>
	<path class="st44" d="M401.59,743.51v-52.66c0-2.28,1.59-4.12,3.54-4.12h6.33c1.98,0,3.58,1.86,3.58,4.16v52.62"/>
	<path class="st44" d="M449.51,743.51V691.1c0-2.27,1.59-4.1,3.54-4.1h6.33c1.98,0,3.58,1.85,3.58,4.14v52.38"/>
</g>
<g>
	
		<rect x="3.05" y="749.28" transform="matrix(-1 -1.224647e-16 1.224647e-16 -1 806.0912 1549.6941)" class="st13" width="800" height="51.13"/>
	<circle class="st13" cx="761.77" cy="756.4" r="39.59"/>
	<circle class="st13" cx="684.28" cy="756.44" r="39.59"/>
	<circle class="st13" cx="605.13" cy="756.39" r="39.59"/>
	<circle class="st13" cx="527.64" cy="756.42" r="39.59"/>
	<circle class="st13" cx="449.43" cy="756.38" r="39.59"/>
	<circle class="st13" cx="371.93" cy="756.41" r="39.59"/>
	<circle class="st13" cx="292.79" cy="756.36" r="39.59"/>
	<circle class="st13" cx="215.29" cy="756.39" r="39.59"/>
	<circle class="st13" cx="137.93" cy="756.4" r="39.59"/>
	<circle class="st13" cx="60.43" cy="756.44" r="39.59"/>
	<circle class="st13" cx="-20.75" cy="750.26" r="39.59"/>
</g>
<path class="st48" d="M297.98,491.64"/>
<path class="st48" d="M313.36,491.89"/>
<line class="st32" x1="324.01" y1="471.24" x2="332.74" y2="490.27"/>
<line class="st32" x1="354.2" y1="471.95" x2="345.47" y2="490.97"/>
<path class="st49" d="M339.76,489.79h-1.16h-6.82c-0.7,0-1.25,0.61-1.17,1.31l1.15,9.66c0.14,1.15,1.11,2.01,2.27,2.01h4.57h1.16
	h4.57c1.16,0,2.13-0.86,2.27-2.01l1.15-9.66c0.08-0.7-0.46-1.31-1.17-1.31H339.76z"/>
<path class="st50" d="M320.42,468.73h37.51c10.69-8.46,17.86-23.39,17.86-37.91c0-21.96-16.39-34.65-36.61-34.65
	c-20.22,0-36.61,12.69-36.61,34.65C302.56,445.34,309.73,460.27,320.42,468.73z"/>
<path class="st51" d="M358.63,474.05h-38.91c-0.99,0-1.8-0.81-1.8-1.8v-2.3c0-0.99,0.81-1.8,1.8-1.8h38.91c0.99,0,1.8,0.81,1.8,1.8
	v2.3C360.43,473.24,359.62,474.05,358.63,474.05z"/>
<path class="st52" d="M345.54,477.71h-12.33c-0.62,0-1.12-0.5-1.12-1.12v-1.43c0-0.62,0.5-1.12,1.12-1.12h12.33
	c0.62,0,1.12,0.5,1.12,1.12v1.43C346.66,477.21,346.15,477.71,345.54,477.71z"/>
<path class="st53" d="M323.86,468.26h30.47c8.69-8.46,14.5-23.39,14.5-37.91c0-21.96-13.32-34.65-29.74-34.65
	c-16.43,0-29.74,12.69-29.74,34.65C309.36,444.87,315.17,459.81,323.86,468.26z"/>
<path class="st54" d="M328.64,468.26h20.95c5.97-8.46,9.97-23.39,9.97-37.91c0-21.96-9.16-34.65-20.45-34.65
	c-11.3,0-20.45,12.69-20.45,34.65C318.66,444.87,322.66,459.81,328.64,468.26z"/>
<path class="st55" d="M334.34,468.26h9.56c2.72-8.46,4.55-23.39,4.55-37.91c0-21.96-4.18-34.65-9.33-34.65
	c-5.15,0-9.33,12.69-9.33,34.65C329.79,444.87,331.61,459.81,334.34,468.26z"/>
<g>
	<path class="st11" d="M83.64,398.69l-0.01,0.01c-0.07,0.07-0.02,0.02,0.04-0.04L83.64,398.69z"/>
	<path class="st11" d="M71.23,383.06c-1.8,1.01-3.14,2.62-3.93,4.4c2.05-3.44,6.15-4.88,9.72-4.1c3.6,0.69,6.91,3.02,8.43,6.07
		c1.63,3.06,0.77,6.51-1.61,9.03l-0.15,0.17c0.04-0.04-0.09,0.02-0.21,0.05c-0.32,0.09-0.76,0.16-1.19,0.24
		c-0.88,0.14-1.82,0.25-2.76,0.33c-1.88,0.17-3.81,0.27-5.74,0.34c-7.72,0.25-15.5,0.39-23.28,0.39l-23.36,0.09l-23.38,0.14
		l-11.69,0.13l-2.94,0.05c-1.09,0.03-1.72-0.02-2.3-0.16c-1.29-0.28-2.32-1.05-3.01-2.32c-1.39-2.59-1.03-6.4,0.53-9.35
		c0.78-1.49,1.9-2.81,3.27-3.8c0.71-0.51,1.38-0.86,2.31-1.28c0.8-0.36,1.68-0.68,2.55-0.98c6.94-2.34,15.49-1.66,21.42,3.56
		c-2.43-3.1-6.16-5.09-10.06-6.06c-0.84-0.21-1.69-0.35-2.55-0.48c8.05-20.83,63.13-25.32,71.43,2.89
		C72.23,382.59,71.72,382.79,71.23,383.06z"/>
</g>
<path class="st11" d="M697.92,382.94c-1.91-1.25-4.18-1.84-6.43-1.92c-4.47-0.17-9.19,1.62-11.68,5.18
	c-0.61,0.87-1.08,1.84-1.35,2.86c-0.27,1.06-0.5,2.2-0.64,3.29c-0.28,2.19-0.26,4.47,0.62,6.23c0.84,1.76,2.64,2.7,4.72,2.98
	c1.06,0.15,2.08,0.14,3.26,0.09l3.5-0.09c18.62-0.38,37.22-0.47,55.83-0.55c18.61-0.01,37.22,0.04,55.82,0.24l13.95,0.15l6.97,0.06
	l0.83-0.01c0.29-0.01,0.6-0.01,0.85-0.05c0.52-0.04,1.07-0.11,1.59-0.23c1.06-0.22,2.09-0.57,3-1.1c1.86-1.02,3.28-2.81,3.6-4.92
	c0.36-2.1-0.41-4.34-1.94-5.94c-1.45-1.65-3.72-2.57-5.96-2.17c-2.19,0.36-4.4,1.65-5.46,3.74c0.91-2.17,3.05-3.69,5.37-4.25
	c0.21-0.05,0.44-0.08,0.66-0.11l-0.33-0.07c0.92-3.34,0.86-6.82-0.43-10.01c-1.27-3.18-3.72-5.91-6.76-7.73
	c-3.04-1.83-6.67-2.78-10.28-2.53c-3.62,0.24-7.17,1.79-9.84,4.38c0.66-0.76,1.42-1.44,2.23-2.07c-0.28-1.96-0.96-3.85-2.08-5.45
	c-1.13-1.63-2.69-2.93-4.41-3.85c-3.48-1.84-7.56-2.3-11.41-1.81c-3.84,0.51-7.59,2.01-10.33,4.53c-2.43,2.18-3.83,5.17-3.97,8.28
	c0.31,0,0.63-0.02,0.94-0.02c4.29,0.12,8.79,1.45,11.95,4.65c1.57,1.57,2.66,3.62,3.06,5.75c0.4,2.13,0.19,4.29-0.44,6.25
	c0.06-2.06-0.1-4.09-0.78-5.92c-0.65-1.83-1.8-3.4-3.23-4.61c-2.89-2.41-6.8-3.47-10.63-3.54c-3.82-0.09-7.78,0.79-10.92,2.91
	c-1.55,1.08-2.88,2.49-3.67,4.25c-0.83,1.75-1.1,3.77-1,5.83c-0.66-1.95-0.77-4.16-0.19-6.27c0.6-2.11,1.94-4.01,3.64-5.41
	c0.16-0.14,0.35-0.26,0.53-0.39c-0.75-2.42-2.44-4.49-4.6-6.11c-2.32-1.75-5.11-3.01-7.99-3.89c-5.81-1.74-12.11-2.09-18.18-1.17
	c-6.06,0.92-12.06,3.19-16.75,7.26c-2.33,2.03-4.28,4.51-5.67,7.3c-1.33,2.67-2.13,5.61-2.47,8.59c-0.01,0.1-0.03,0.19-0.04,0.29
	c0.42,0.81,0.75,1.64,0.92,2.52C701.3,386.11,699.84,384.15,697.92,382.94z"/>
<g>
	<path class="st11" d="M489.14,210.99L489.14,210.99c0.06,0.05,0.02,0.02-0.02-0.02L489.14,210.99z"/>
	<path class="st11" d="M497.59,200.35c1.22,0.69,2.14,1.79,2.68,3c-1.4-2.34-4.19-3.32-6.62-2.79c-2.45,0.47-4.71,2.06-5.74,4.14
		c-1.11,2.08-0.52,4.44,1.1,6.15l0.1,0.11c-0.03-0.03,0.06,0.02,0.14,0.03c0.22,0.06,0.52,0.11,0.81,0.17
		c0.6,0.1,1.24,0.17,1.88,0.22c1.28,0.11,2.6,0.18,3.91,0.23c5.26,0.17,10.56,0.26,15.86,0.27l15.91,0.06l15.93,0.09l7.96,0.09
		l2,0.03c0.74,0.02,1.17-0.02,1.56-0.11c0.88-0.19,1.58-0.72,2.05-1.58c0.95-1.76,0.7-4.36-0.36-6.37c-0.53-1.02-1.3-1.92-2.23-2.59
		c-0.48-0.35-0.94-0.58-1.57-0.87c-0.55-0.25-1.15-0.47-1.74-0.67c-4.73-1.59-10.55-1.13-14.59,2.42c1.66-2.11,4.19-3.47,6.85-4.13
		c0.57-0.14,1.15-0.24,1.74-0.32c-5.48-14.19-43-17.24-48.65,1.97C496.91,200.03,497.26,200.16,497.59,200.35z"/>
</g>
<g>
	<path class="st11" d="M276.21,278.18l-0.01,0.01c-0.07,0.07-0.02,0.02,0.04-0.04L276.21,278.18z"/>
	<path class="st11" d="M264.2,263.04c-1.74,0.97-3.04,2.54-3.81,4.26c1.98-3.33,5.95-4.72,9.41-3.97c3.49,0.66,6.7,2.93,8.17,5.88
		c1.58,2.96,0.75,6.31-1.56,8.74l-0.15,0.16c0.04-0.04-0.09,0.02-0.2,0.04c-0.31,0.08-0.73,0.16-1.15,0.24
		c-0.85,0.14-1.76,0.24-2.67,0.32c-1.82,0.16-3.69,0.26-5.56,0.33c-7.47,0.25-15.01,0.38-22.55,0.38l-22.62,0.09l-22.65,0.13
		l-11.32,0.13l-2.85,0.04c-1.05,0.03-1.66-0.02-2.22-0.15c-1.25-0.27-2.25-1.02-2.92-2.24c-1.35-2.5-0.99-6.2,0.52-9.05
		c0.76-1.45,1.84-2.72,3.17-3.68c0.68-0.49,1.34-0.83,2.24-1.24c0.78-0.35,1.63-0.66,2.47-0.95c6.72-2.27,15-1.6,20.74,3.45
		c-2.36-3-5.96-4.93-9.74-5.87c-0.81-0.2-1.63-0.34-2.47-0.46c7.79-20.18,61.14-24.52,69.18,2.8
		C265.17,262.58,264.67,262.78,264.2,263.04z"/>
</g>
<g>
	<path class="st11" d="M706.06,270.16l0.01,0.01c0.08,0.07,0.02,0.02-0.04-0.04L706.06,270.16z"/>
	<path class="st11" d="M719.03,253.82c1.88,1.05,3.28,2.74,4.11,4.6c-2.14-3.59-6.43-5.1-10.16-4.29c-3.77,0.72-7.23,3.16-8.82,6.35
		c-1.7,3.2-0.81,6.81,1.68,9.44l0.16,0.17c-0.04-0.04,0.1,0.02,0.22,0.05c0.34,0.09,0.79,0.17,1.24,0.25
		c0.92,0.15,1.9,0.26,2.88,0.35c1.97,0.17,3.99,0.28,6,0.36c8.07,0.27,16.2,0.4,24.34,0.41l24.42,0.1l24.45,0.14l12.22,0.14
		l3.07,0.05c1.14,0.03,1.79-0.02,2.4-0.16c1.35-0.29,2.43-1.1,3.15-2.42c1.46-2.7,1.07-6.69-0.56-9.77
		c-0.82-1.56-1.99-2.94-3.42-3.98c-0.74-0.53-1.44-0.89-2.42-1.34c-0.84-0.38-1.76-0.71-2.67-1.03c-7.25-2.45-16.19-1.73-22.39,3.72
		c2.54-3.24,6.44-5.32,10.51-6.33c0.88-0.22,1.76-0.37,2.67-0.5c-8.41-21.78-66-26.47-74.68,3.02
		C717.99,253.32,718.52,253.54,719.03,253.82z"/>
</g>
<g>
	<path class="st11" d="M-11.93,207.74L-11.93,207.74c0.06,0.05,0.02,0.02-0.02-0.02L-11.93,207.74z"/>
	<path class="st11" d="M-3.48,197.1c1.22,0.69,2.14,1.79,2.68,3c-1.4-2.34-4.19-3.32-6.62-2.79c-2.45,0.47-4.71,2.06-5.74,4.14
		c-1.11,2.08-0.52,4.44,1.1,6.15l0.1,0.11c-0.03-0.03,0.06,0.02,0.14,0.03c0.22,0.06,0.52,0.11,0.81,0.17
		c0.6,0.1,1.24,0.17,1.88,0.22c1.28,0.11,2.6,0.18,3.91,0.23c5.26,0.17,10.56,0.26,15.86,0.27l15.91,0.06l15.93,0.09l7.96,0.09
		l2,0.03c0.74,0.02,1.17-0.02,1.56-0.11c0.88-0.19,1.58-0.72,2.05-1.58c0.95-1.76,0.7-4.36-0.36-6.37c-0.53-1.02-1.3-1.92-2.23-2.59
		c-0.48-0.35-0.94-0.58-1.57-0.87c-0.55-0.25-1.15-0.47-1.74-0.67c-4.73-1.59-10.55-1.13-14.59,2.42c1.66-2.11,4.19-3.47,6.85-4.13
		c0.57-0.14,1.15-0.24,1.74-0.32c-5.48-14.19-43-17.24-48.65,1.97C-4.16,196.78-3.81,196.91-3.48,197.1z"/>
</g>
</svg>
