<?xml version="1.0" encoding="utf-8"?>
<!-- Generator: Adobe Illustrator 24.3.0, SVG Export Plug-In . SVG Version: 6.00 Build 0)  -->
<svg version="1.1" id="Poster" xmlns="http://www.w3.org/2000/svg" xmlns:xlink="http://www.w3.org/1999/xlink" x="0px" y="0px"
	 viewBox="0 0 470.26 627.01" style="enable-background:new 0 0 470.26 627.01;" xml:space="preserve">
<style type="text/css">
	.st0{clip-path:url(#SVGID_2_);}
	.st1{clip-path:url(#SVGID_5_);}
	.st2{fill:#5C626D;}
	.st3{font-family:'Boomboom';}
	.st4{font-size:50.1606px;}
	.st5{fill:#5A5E63;}
	.st6{font-size:64.7907px;}
	.st7{fill:none;stroke:#FFFFFF;stroke-width:14;stroke-miterlimit:10;}
	.st8{fill:#7A7A7A;}
	.st9{fill:none;stroke:#A1A3A0;stroke-width:12;stroke-miterlimit:10;}
	.st10{fill-rule:evenodd;clip-rule:evenodd;fill:#A1A3A0;}
	.st11{fill:#E8BF7D;}
	.st12{fill:#BA9044;}
	.st13{fill:#756D56;}
	.st14{fill:#CFF0FF;}
	.st15{fill:#9CE1FF;}
	.st16{fill-rule:evenodd;clip-rule:evenodd;fill:#7A7A7A;}
	.st17{fill:#A1A3A0;}
	.st18{clip-path:url(#SVGID_5_);fill:#FFFFFF;}
	.st19{fill:#2B5FAD;}
	.st20{fill:#FFBA00;}
	.st21{fill:#FF2E29;}
	.st22{fill:#FFFFFF;}
	.st23{fill:#F5F5F5;}
	.st24{fill:#C90000;}
	.st25{fill:#940000;}
	.st26{fill:#C70000;}
	.st27{fill:#800000;}
	.st28{clip-path:url(#SVGID_5_);fill:#FF824F;}
	.st29{clip-path:url(#SVGID_5_);fill:#CC1400;}
	.st30{fill:#FAFFCA;}
	.st31{fill:url(#SVGID_6_);}
	.st32{fill:url(#SVGID_7_);}
	.st33{fill:url(#SVGID_8_);}
	.st34{clip-path:url(#SVGID_5_);fill:#C90000;}
	.st35{clip-path:url(#SVGID_5_);fill:#C10000;}
	.st36{fill:#0055FF;}
	.st37{font-family:'Intro';}
	.st38{font-size:63.7457px;}
	.st39{fill:#D9E021;}
	.st40{fill:none;stroke:#FFFFFF;stroke-width:2;stroke-miterlimit:10;}
	.st41{fill:#FE575F;}
	.st42{fill:#200B12;}
	.st43{fill:#FFF8E6;}
	.st44{fill:#FFAC06;}
	.st45{fill:#AA5511;}
	.st46{fill:#FE1B2C;}
	.st47{fill:#EA2F46;}
	.st48{fill:#C52128;}
	.st49{fill:#FBD708;}
	.st50{fill:none;stroke:#FFFFFF;stroke-width:4;stroke-miterlimit:10;}
	.st51{fill-rule:evenodd;clip-rule:evenodd;fill:#FFFFFF;}
	.st52{fill:none;stroke:#FCFAFA;stroke-width:3.7604;stroke-miterlimit:10;}
	.st53{fill:#C6402A;}
	.st54{fill:#9B1F2E;}
	.st55{fill:none;stroke:#C6402A;stroke-width:3;stroke-miterlimit:10;}
	.st56{fill:#D68D51;}
	.st57{fill:#E24E2F;}
	.st58{fill:none;stroke:#F0E9D9;stroke-width:3.2258;stroke-miterlimit:10;}
	.st59{fill:#FFCB15;}
	.st60{fill:#FCFCFC;}
	.st61{fill:#29ABE2;}
	.st62{fill:#60D3E7;}
	.st63{fill:#F12824;}
	.st64{fill:#603813;}
	.st65{fill:#8C9911;}
	.st66{fill:#E2E1E0;}
	.st67{fill:#D6D6D6;}
	.st68{fill:url(#SVGID_9_);}
	.st69{fill:url(#SVGID_10_);}
	.st70{fill:url(#SVGID_11_);}
	.st71{fill:url(#SVGID_12_);}
	.st72{fill:url(#SVGID_13_);}
	.st73{fill:url(#SVGID_14_);}
	.st74{fill:url(#SVGID_15_);}
	.st75{fill:#007AFF;}
	.st76{fill:#1E5DA8;}
	.st77{fill:#0090FC;}
	.st78{fill:#3262CC;}
	.st79{fill:#4082E2;}
	.st80{fill:#4679D3;}
	.st81{fill:#2D5EE8;}
</style>
<g>
	<defs>
		<rect id="SVGID_1_" width="493.02" height="627.01"/>
	</defs>
	<clipPath id="SVGID_2_">
		<use xlink:href="#SVGID_1_"  style="overflow:visible;"/>
	</clipPath>
	<g class="st0">
		<defs>
			<rect id="SVGID_3_" x="-0.05" y="-2.12" width="477.08" height="627.01"/>
		</defs>
		
			<radialGradient id="SVGID_4_" cx="220.5258" cy="306.8621" r="396.7534" gradientTransform="matrix(1.0145 0 0 1 14.7644 0)" gradientUnits="userSpaceOnUse">
			<stop  offset="0" style="stop-color:#D1ECFF"/>
			<stop  offset="0.2606" style="stop-color:#C0DFF7"/>
			<stop  offset="0.5212" style="stop-color:#A6CBEA"/>
			<stop  offset="0.7394" style="stop-color:#8EB8DE"/>
			<stop  offset="0.8909" style="stop-color:#75A5D2"/>
			<stop  offset="1" style="stop-color:#5990C4"/>
		</radialGradient>
		<use xlink:href="#SVGID_3_"  style="overflow:visible;fill:url(#SVGID_4_);"/>
		<clipPath id="SVGID_5_">
			<use xlink:href="#SVGID_3_"  style="overflow:visible;"/>
		</clipPath>
		<g class="st1">
			<text transform="matrix(0.9772 0 0 1 129.7725 420.7021)" class="st2 st3 st4">Развлечений</text>
		</g>
		<g class="st1">
			<text transform="matrix(0.9772 0 0 1 173.2065 368.7334)" class="st5 st3 st6">Парка</text>
		</g>
		<g class="st1">
			<ellipse class="st7" cx="159.2" cy="166.27" rx="122.63" ry="125.49"/>
			<g>
				<polygon class="st8" points="160.08,355.14 71.53,355.14 71.53,365.97 160.08,365.97 248.63,365.97 248.63,355.14 				"/>
			</g>
			<g>
				<polygon class="st8" points="124.12,257.85 91.23,358.36 100.38,362.06 133.27,261.55 166.16,161.04 157.01,157.34 				"/>
			</g>
			<g>
				<polygon class="st8" points="185.95,261.4 218.79,361.75 227.95,358.04 195.11,257.69 162.26,157.34 153.11,161.04 				"/>
			</g>
			<g>
				<line class="st9" x1="159.64" y1="38.05" x2="159.64" y2="166.72"/>
				<line class="st10" x1="159.64" y1="38.05" x2="159.64" y2="166.72"/>
			</g>
			<g>
				<line class="st9" x1="160.08" y1="167.17" x2="160.08" y2="295.84"/>
				<line class="st10" x1="160.08" y1="167.17" x2="160.08" y2="295.84"/>
			</g>
			<g>
				<line class="st9" x1="285.82" y1="166.6" x2="160.08" y2="166.6"/>
				<line class="st10" x1="285.82" y1="166.6" x2="160.08" y2="166.6"/>
			</g>
			<g>
				<line class="st9" x1="159.42" y1="166.61" x2="33.68" y2="166.61"/>
				<line class="st10" x1="159.42" y1="166.61" x2="33.68" y2="166.61"/>
			</g>
			<g>
				<line class="st9" x1="248.11" y1="75.1" x2="159.2" y2="166.08"/>
				<line class="st10" x1="248.11" y1="75.1" x2="159.2" y2="166.08"/>
			</g>
			<g>
				<line class="st9" x1="159.2" y1="166.72" x2="70.29" y2="257.71"/>
				<line class="st10" x1="159.2" y1="166.72" x2="70.29" y2="257.71"/>
			</g>
			<g>
				<line class="st9" x1="248.11" y1="257.39" x2="159.2" y2="166.4"/>
				<line class="st10" x1="248.11" y1="257.39" x2="159.2" y2="166.4"/>
			</g>
			<g>
				<line class="st9" x1="158.58" y1="166.4" x2="69.67" y2="75.42"/>
				<line class="st10" x1="158.58" y1="166.4" x2="69.67" y2="75.42"/>
			</g>
			<g>
				<ellipse class="st8" cx="159.64" cy="166.72" rx="27.89" ry="28.54"/>
			</g>
			<ellipse class="st7" cx="160.01" cy="168.03" rx="70" ry="71.63"/>
			<rect x="230.59" y="274.03" class="st11" width="33.76" height="13.74"/>
			<path class="st11" d="M253.99,302.06h-13.05c-5.7,0-10.36-4.66-10.36-10.36v-4.09h33.76v4.09
				C264.35,297.4,259.69,302.06,253.99,302.06z"/>
			<path class="st12" d="M239.41,302.06c-2.53,0-4.6-2.12-4.6-4.71v-4.48h-4.22v4.48c0,2.59,2.07,4.71,4.6,4.71h5.37l0,0H239.41z"/>
			<rect x="230.59" y="278.74" class="st13" width="33.76" height="16.49"/>
			<path class="st14" d="M253.18,279.98H241.9h-8.62c-0.85,0-1.54,0.71-1.54,1.58v10.79c0,0.87,0.69,1.58,1.54,1.58h8.62h11.27h8.48
				c0.85,0,1.54-0.71,1.54-1.58v-10.79c0-0.87-0.69-1.58-1.54-1.58H253.18z"/>
			<rect x="230.59" y="274.03" class="st12" width="33.76" height="3.14"/>
			<path class="st11" d="M247.47,261.35l-13.2,8.32c-2.73,1.72-1.51,5.94,1.71,5.94h22.98c3.23,0,4.44-4.22,1.71-5.94L247.47,261.35
				z"/>
			<polygon class="st15" points="234.16,293.96 239.57,293.96 249.06,280.01 243.65,280.01 			"/>
			<polygon class="st15" points="249.19,294.01 252.69,294.01 262.18,280.06 258.68,280.06 			"/>
			<rect x="240.57" y="279.53" class="st13" width="1.53" height="14.53"/>
			<rect x="252.46" y="279.92" class="st13" width="1.53" height="14.53"/>
			<path class="st12" d="M250.7,263.42l-3.29-2.07l-20.93,13.18c-0.49,0.31-0.27,1.07,0.3,1.07h4.58L250.7,263.42z"/>
			<g>
				<ellipse class="st16" cx="246.86" cy="256.43" rx="8.85" ry="9.06"/>
			</g>
			<ellipse class="st17" cx="160" cy="166.64" rx="20.82" ry="21.3"/>
			<rect x="265.47" y="184.45" class="st11" width="33.76" height="13.74"/>
			<path class="st11" d="M288.87,212.49h-13.05c-5.7,0-10.36-4.66-10.36-10.36v-4.09h33.76v4.09
				C299.23,207.83,294.57,212.49,288.87,212.49z"/>
			<path class="st12" d="M274.29,212.49c-2.53,0-4.6-2.12-4.6-4.71v-4.48h-4.22v4.48c0,2.59,2.07,4.71,4.6,4.71h5.37l0,0H274.29z"/>
			<rect x="265.47" y="189.17" class="st13" width="33.76" height="16.49"/>
			<path class="st14" d="M288.05,190.4h-11.27h-8.62c-0.85,0-1.54,0.71-1.54,1.58v10.79c0,0.87,0.69,1.58,1.54,1.58h8.62h11.27h8.48
				c0.85,0,1.54-0.71,1.54-1.58v-10.79c0-0.87-0.69-1.58-1.54-1.58H288.05z"/>
			<rect x="265.47" y="184.45" class="st12" width="33.76" height="3.14"/>
			<path class="st11" d="M282.35,171.77l-13.2,8.32c-2.73,1.72-1.51,5.94,1.71,5.94h22.98c3.23,0,4.44-4.22,1.71-5.94L282.35,171.77
				z"/>
			<polygon class="st15" points="269.03,204.38 274.45,204.38 283.94,190.44 278.52,190.44 			"/>
			<polygon class="st15" points="284.07,204.43 287.57,204.43 297.05,190.49 293.56,190.49 			"/>
			<rect x="275.44" y="189.95" class="st13" width="1.53" height="14.53"/>
			<rect x="287.33" y="190.34" class="st13" width="1.53" height="14.53"/>
			<path class="st12" d="M285.57,173.84l-3.29-2.07l-20.93,13.18c-0.49,0.31-0.27,1.07,0.3,1.07h4.58L285.57,173.84z"/>
			<rect x="142.91" y="308.37" class="st11" width="33.76" height="13.74"/>
			<path class="st11" d="M166.31,336.41h-13.05c-5.7,0-10.36-4.66-10.36-10.36v-4.09h33.76v4.09
				C176.67,331.75,172.01,336.41,166.31,336.41z"/>
			<path class="st12" d="M151.73,336.41c-2.53,0-4.6-2.12-4.6-4.71v-4.48h-4.22v4.48c0,2.59,2.07,4.71,4.6,4.71h5.37l0,0H151.73z"/>
			<rect x="142.91" y="313.08" class="st13" width="33.76" height="16.49"/>
			<path class="st14" d="M165.49,314.32h-11.27h-8.62c-0.85,0-1.54,0.71-1.54,1.58v10.79c0,0.87,0.69,1.58,1.54,1.58h8.62h11.27
				h8.48c0.85,0,1.54-0.71,1.54-1.58v-10.79c0-0.87-0.69-1.58-1.54-1.58H165.49z"/>
			<rect x="142.91" y="308.37" class="st12" width="33.76" height="3.14"/>
			<path class="st11" d="M159.79,295.69l-13.2,8.32c-2.73,1.72-1.51,5.94,1.71,5.94h22.98c3.23,0,4.44-4.22,1.71-5.94L159.79,295.69
				z"/>
			<polygon class="st15" points="146.48,328.3 151.89,328.3 161.38,314.36 155.97,314.36 			"/>
			<polygon class="st15" points="161.51,328.35 165.01,328.35 174.5,314.41 171,314.41 			"/>
			<rect x="152.88" y="313.87" class="st13" width="1.53" height="14.53"/>
			<rect x="164.77" y="314.26" class="st13" width="1.53" height="14.53"/>
			<path class="st12" d="M163.01,297.76l-3.29-2.07l-20.93,13.18c-0.49,0.31-0.27,1.07,0.3,1.07h4.58L163.01,297.76z"/>
			<rect x="142.91" y="59.87" class="st11" width="33.76" height="13.74"/>
			<path class="st11" d="M166.31,87.9h-13.05c-5.7,0-10.36-4.66-10.36-10.36v-4.09h33.76v4.09C176.67,83.24,172.01,87.9,166.31,87.9
				z"/>
			<path class="st12" d="M151.73,87.9c-2.53,0-4.6-2.12-4.6-4.71v-4.48h-4.22v4.48c0,2.59,2.07,4.71,4.6,4.71h5.37l0,0H151.73z"/>
			<rect x="142.91" y="64.58" class="st13" width="33.76" height="16.49"/>
			<path class="st14" d="M165.49,65.81h-11.27h-8.62c-0.85,0-1.54,0.71-1.54,1.58v10.79c0,0.87,0.69,1.58,1.54,1.58h8.62h11.27h8.48
				c0.85,0,1.54-0.71,1.54-1.58V67.39c0-0.87-0.69-1.58-1.54-1.58H165.49z"/>
			<rect x="142.91" y="59.87" class="st12" width="33.76" height="3.14"/>
			<path class="st11" d="M159.79,47.19l-13.2,8.32c-2.73,1.72-1.51,5.94,1.71,5.94h22.98c3.23,0,4.44-4.22,1.71-5.94L159.79,47.19z"
				/>
			<polygon class="st15" points="146.48,79.8 151.89,79.8 161.38,65.85 155.97,65.85 			"/>
			<polygon class="st15" points="161.51,79.85 165.01,79.85 174.5,65.9 171,65.9 			"/>
			<rect x="152.88" y="65.37" class="st13" width="1.53" height="14.53"/>
			<rect x="164.77" y="65.76" class="st13" width="1.53" height="14.53"/>
			<path class="st12" d="M163.01,49.26l-3.29-2.07l-20.93,13.18c-0.49,0.31-0.27,1.07,0.3,1.07h4.58L163.01,49.26z"/>
			<rect x="56.59" y="273.04" class="st11" width="33.76" height="13.74"/>
			<path class="st11" d="M80,301.07H66.95c-5.7,0-10.36-4.66-10.36-10.36v-4.09h33.76v4.09C90.35,296.41,85.69,301.07,80,301.07z"/>
			<path class="st12" d="M65.42,301.07c-2.53,0-4.6-2.12-4.6-4.71v-4.48h-4.22v4.48c0,2.59,2.07,4.71,4.6,4.71h5.37l0,0H65.42z"/>
			<rect x="56.59" y="277.75" class="st13" width="33.76" height="16.49"/>
			<path class="st14" d="M79.18,278.99H67.91h-8.62c-0.85,0-1.54,0.71-1.54,1.58v10.79c0,0.87,0.69,1.58,1.54,1.58h8.62h11.27h8.48
				c0.85,0,1.54-0.71,1.54-1.58v-10.79c0-0.87-0.69-1.58-1.54-1.58H79.18z"/>
			<rect x="56.59" y="273.04" class="st12" width="33.76" height="3.14"/>
			<path class="st11" d="M73.47,260.36l-13.2,8.32c-2.73,1.72-1.51,5.94,1.71,5.94h22.98c3.23,0,4.44-4.22,1.71-5.94L73.47,260.36z"
				/>
			<polygon class="st15" points="60.16,292.97 65.58,292.97 75.07,279.02 69.65,279.02 			"/>
			<polygon class="st15" points="75.19,293.02 78.69,293.02 88.18,279.07 84.68,279.07 			"/>
			<rect x="66.57" y="278.54" class="st13" width="1.53" height="14.53"/>
			<rect x="78.46" y="278.93" class="st13" width="1.53" height="14.53"/>
			<path class="st12" d="M76.7,262.43l-3.29-2.07l-20.93,13.18c-0.49,0.31-0.27,1.07,0.3,1.07h4.58L76.7,262.43z"/>
			<rect x="19.77" y="185.5" class="st11" width="33.76" height="13.74"/>
			<path class="st11" d="M43.17,213.53H30.12c-5.7,0-10.36-4.66-10.36-10.36v-4.09h33.76v4.09
				C53.52,208.87,48.86,213.53,43.17,213.53z"/>
			<path class="st12" d="M30.07,213.7c-2.7,0-4.91-1.63-4.91-3.63v-3.45h-4.5v3.45c0,2,2.21,3.63,4.91,3.63h5.73l0,0H30.07z"/>
			<rect x="19.77" y="190.21" class="st13" width="33.76" height="16.49"/>
			<path class="st14" d="M42.35,191.44H31.08h-8.62c-0.85,0-1.54,0.71-1.54,1.59v10.87c0,0.88,0.69,1.59,1.54,1.59h8.62h11.27h8.48
				c0.85,0,1.54-0.71,1.54-1.59v-10.87c0-0.88-0.69-1.59-1.54-1.59H42.35z"/>
			<rect x="19.77" y="185.5" class="st12" width="33.76" height="3.14"/>
			<path class="st11" d="M36.65,172.81l-13.2,8.32c-2.73,1.72-1.51,5.94,1.71,5.94h22.98c3.23,0,4.44-4.22,1.71-5.94L36.65,172.81z"
				/>
			<polygon class="st15" points="23.33,205.42 28.75,205.42 38.24,191.48 32.82,191.48 			"/>
			<polygon class="st15" points="38.37,205.47 41.86,205.47 51.35,191.53 47.86,191.53 			"/>
			<rect x="41.63" y="191.38" class="st13" width="1.53" height="14.53"/>
			<path class="st12" d="M39.87,174.89l-3.29-2.07l-20.93,13.18c-0.49,0.31-0.27,1.07,0.3,1.07h4.58L39.87,174.89z"/>
			<rect x="55.44" y="95.99" class="st11" width="33.76" height="13.74"/>
			<path class="st11" d="M78.85,124.02H65.8c-5.7,0-10.36-4.66-10.36-10.36v-4.09H89.2v4.09C89.2,119.36,84.54,124.02,78.85,124.02z
				"/>
			<path class="st12" d="M64.27,124.02c-2.53,0-4.6-2.12-4.6-4.71v-4.48h-4.22v4.48c0,2.59,2.07,4.71,4.6,4.71h5.37l0,0H64.27z"/>
			<rect x="55.44" y="100.7" class="st13" width="33.76" height="16.49"/>
			<path class="st14" d="M78.03,101.93H66.75h-8.62c-0.85,0-1.54,0.71-1.54,1.58v10.79c0,0.87,0.69,1.58,1.54,1.58h8.62h11.27h8.48
				c0.85,0,1.54-0.71,1.54-1.58v-10.79c0-0.87-0.69-1.58-1.54-1.58H78.03z"/>
			<rect x="55.44" y="95.99" class="st12" width="33.76" height="3.14"/>
			<path class="st11" d="M72.32,83.3l-13.2,8.32c-2.73,1.72-1.51,5.94,1.71,5.94h22.98c3.23,0,4.44-4.22,1.71-5.94L72.32,83.3z"/>
			<polygon class="st15" points="59.01,115.91 64.43,115.91 73.92,101.97 68.5,101.97 			"/>
			<polygon class="st15" points="74.04,115.97 77.54,115.97 87.03,102.02 83.53,102.02 			"/>
			<rect x="65.42" y="101.48" class="st13" width="1.53" height="14.53"/>
			<rect x="77.31" y="101.88" class="st13" width="1.53" height="14.53"/>
			<g>
				<ellipse class="st16" cx="282.28" cy="166.27" rx="8.85" ry="9.06"/>
			</g>
			<path class="st12" d="M75.55,85.38l-3.29-2.07L51.33,96.48c-0.49,0.31-0.27,1.07,0.3,1.07h4.58L75.55,85.38z"/>
			<rect x="228.84" y="95.99" class="st11" width="33.76" height="13.74"/>
			<path class="st11" d="M252.24,124.02H239.2c-5.7,0-10.36-4.66-10.36-10.36v-4.09h33.76v4.09
				C262.6,119.36,257.94,124.02,252.24,124.02z"/>
			<path class="st12" d="M237.66,124.02c-2.53,0-4.6-2.12-4.6-4.71v-4.48h-4.22v4.48c0,2.59,2.07,4.71,4.6,4.71h5.37l0,0H237.66z"/>
			<rect x="228.84" y="100.7" class="st13" width="33.76" height="16.49"/>
			<path class="st14" d="M251.43,101.93h-11.27h-8.62c-0.85,0-1.54,0.71-1.54,1.58v10.79c0,0.87,0.69,1.58,1.54,1.58h8.62h11.27
				h8.48c0.85,0,1.54-0.71,1.54-1.58v-10.79c0-0.87-0.69-1.58-1.54-1.58H251.43z"/>
			<rect x="228.84" y="95.99" class="st12" width="33.76" height="3.14"/>
			<path class="st11" d="M245.72,83.3l-13.2,8.32c-2.73,1.72-1.51,5.94,1.71,5.94h22.98c3.23,0,4.44-4.22,1.71-5.94L245.72,83.3z"/>
			<polygon class="st15" points="232.41,115.91 237.82,115.91 247.31,101.97 241.9,101.97 			"/>
			<polygon class="st15" points="247.44,115.97 250.94,115.97 260.43,102.02 256.93,102.02 			"/>
			<rect x="238.81" y="101.48" class="st13" width="1.53" height="14.53"/>
			<rect x="250.71" y="101.88" class="st13" width="1.53" height="14.53"/>
			<path class="st12" d="M248.94,85.38l-3.29-2.07l-20.93,13.18c-0.49,0.31-0.27,1.07,0.3,1.07h4.58L248.94,85.38z"/>
			<g>
				<ellipse class="st16" cx="245.61" cy="78.3" rx="8.85" ry="9.06"/>
			</g>
			<g>
				<ellipse class="st16" cx="160.08" cy="42.12" rx="8.85" ry="9.06"/>
			</g>
			<g>
				<ellipse class="st16" cx="160.08" cy="291.31" rx="8.85" ry="9.06"/>
			</g>
			<g>
				<ellipse class="st16" cx="37" cy="167.17" rx="8.85" ry="9.06"/>
			</g>
			<g>
				<ellipse class="st16" cx="73.42" cy="254.51" rx="8.85" ry="9.06"/>
			</g>
			<g>
				<ellipse class="st16" cx="72.17" cy="77.56" rx="8.85" ry="9.16"/>
			</g>
			<rect x="29.2" y="191.22" class="st13" width="1.53" height="14.53"/>
		</g>
		<path class="st18" d="M308.74,143.35c0,6.42-5.28,11.63-11.8,11.63H180.04c-6.52,0-11.8-5.21-11.8-11.63V28.12
			c0-6.42,5.28-11.63,11.8-11.63h116.91c6.52,0,11.8,5.21,11.8,11.63V143.35z"/>
		<g class="st1">
			<path class="st19" d="M239.57,775.11c-105.88,0-205.69-14.96-281.04-42.14c-80.49-29.03-124.82-69.48-124.82-113.89
				c0-44.42,44.33-84.87,124.82-113.89c75.35-27.17,175.16-42.14,281.04-42.14s205.69,14.96,281.04,42.14
				c80.49,29.03,124.82,69.48,124.82,113.89c0,44.42-44.33,84.87-124.82,113.89C445.26,760.14,345.45,775.11,239.57,775.11z"/>
			<ellipse class="st20" cx="239.57" cy="619.08" rx="353.06" ry="127.33"/>
			<ellipse class="st19" cx="238.49" cy="619.93" rx="283.83" ry="86.6"/>
			<g>
				<polygon class="st20" points="497.34,630.76 333.49,614.13 412.69,690.04 265.09,627.64 191.9,711.37 182.15,623.8 
					10.63,667.38 128.82,605.3 -20.36,607.53 121.73,583.27 36.08,565.74 149.64,565.93 120.61,543.05 196.21,556.07 211.24,534.36 
					249.58,553.99 302.12,537.01 301.19,559.57 390.36,551.48 341.77,572.75 466.32,581.33 357.91,592.48 				"/>
			</g>
		</g>
		<g class="st1">
			<g>
				<polygon class="st21" points="491.46,515.04 454.65,541.23 496.07,559.56 				"/>
			</g>
			<g>
				<polygon class="st21" points="433.3,494.66 401,526.09 444.77,537.95 				"/>
			</g>
			<g>
				<polygon class="st21" points="373.83,481.78 345.3,516.59 390.14,523.54 				"/>
			</g>
			<g>
				<polygon class="st21" points="313.88,474.24 288.63,511.43 333.93,514.39 				"/>
			</g>
			<g>
				<polygon class="st21" points="253.71,470.99 231.57,510.05 276.96,509.43 				"/>
			</g>
			<g>
				<polygon class="st21" points="195.21,471.8 173.06,510.86 218.46,510.23 				"/>
			</g>
			<g>
				<polygon class="st21" points="135.19,477.02 116.27,517.7 161.47,513.51 				"/>
			</g>
			<g>
				<polygon class="st21" points="75.55,486.76 60.41,528.95 105.05,520.78 				"/>
			</g>
			<g>
				<polygon class="st21" points="16.73,502.59 6.62,546.21 50,533.03 				"/>
			</g>
			<g>
				<polygon class="st21" points="-39.73,528.14 -42.17,572.82 -1.69,552.56 				"/>
			</g>
		</g>
		<g class="st1">
			<path class="st22" d="M343.12,546.88c0,5.11-4.2,9.24-9.38,9.24h-190.5c-5.18,0-9.38-4.14-9.38-9.24v-75.92
				c0-5.11,4.2-9.25,9.38-9.25h190.5c5.18,0,9.38,4.14,9.38,9.25V546.88z"/>
			<g>
				<path class="st23" d="M333.74,557.46h-2.31v-2.65h2.31c0.11,0,0.21,0,0.32-0.01l0.11,2.65
					C334.03,557.45,333.89,557.46,333.74,557.46z M326.94,557.46h-2.69v-2.65h2.69V557.46z M319.76,557.46h-2.69v-2.65h2.69V557.46z
					 M312.58,557.46h-2.69v-2.65h2.69V557.46z M305.4,557.46h-2.69v-2.65h2.69V557.46z M298.21,557.46h-2.69v-2.65h2.69V557.46z
					 M291.03,557.46h-2.69v-2.65h2.69V557.46z M283.85,557.46h-2.69v-2.65h2.69V557.46z M276.67,557.46h-2.69v-2.65h2.69V557.46z
					 M269.49,557.46h-2.69v-2.65h2.69V557.46z M262.31,557.46h-2.69v-2.65h2.69V557.46z M255.13,557.46h-2.69v-2.65h2.69V557.46z
					 M247.95,557.46h-2.69v-2.65h2.69V557.46z M240.77,557.46h-2.69v-2.65h2.69V557.46z M233.59,557.46h-2.69v-2.65h2.69V557.46z
					 M226.41,557.46h-2.69v-2.65h2.69V557.46z M219.23,557.46h-2.69v-2.65h2.69V557.46z M212.04,557.46h-2.69v-2.65h2.69V557.46z
					 M204.86,557.46h-2.69v-2.65h2.69V557.46z M197.68,557.46h-2.69v-2.65h2.69V557.46z M190.5,557.46h-2.69v-2.65h2.69V557.46z
					 M183.32,557.46h-2.69v-2.65h2.69V557.46z M176.14,557.46h-2.69v-2.65h2.69V557.46z M168.96,557.46h-2.69v-2.65h2.69V557.46z
					 M161.78,557.46h-2.69v-2.65h2.69V557.46z M154.6,557.46h-2.69v-2.65h2.69V557.46z M147.42,557.46h-2.69v-2.65h2.69V557.46z
					 M139.86,556.92c-0.97-0.32-1.9-0.77-2.74-1.35l1.54-2.18c0.63,0.43,1.33,0.77,2.05,1.01L139.86,556.92z M339.06,556.07
					l-1.34-2.31c0.67-0.38,1.28-0.84,1.81-1.39l1.94,1.84C340.76,554.94,339.95,555.57,339.06,556.07z M133.75,551.82
					c-0.48-0.9-0.83-1.86-1.03-2.85l2.64-0.52c0.15,0.74,0.41,1.46,0.77,2.13L133.75,551.82z M344.03,549.87l-2.58-0.75
					c0.22-0.72,0.33-1.48,0.33-2.24h2.69C344.47,547.9,344.32,548.91,344.03,549.87z M344.47,544.44h-2.69v-2.65h2.69V544.44z
					 M135.2,544.29h-2.69v-2.65h2.69V544.29z M344.47,537.36h-2.69v-2.65h2.69V537.36z M135.2,537.22h-2.69v-2.65h2.69V537.22z
					 M344.47,530.28h-2.69v-2.66h2.69V530.28z M135.2,530.14h-2.69v-2.65h2.69V530.14z M344.47,523.2h-2.69v-2.65h2.69V523.2z
					 M135.2,523.06h-2.69v-2.66h2.69V523.06z M344.47,516.13h-2.69v-2.65h2.69V516.13z M135.2,515.98h-2.69v-2.65h2.69V515.98z
					 M344.47,509.05h-2.69v-2.65h2.69V509.05z M135.2,508.9h-2.69v-2.65h2.69V508.9z M344.47,501.97h-2.69v-2.66h2.69V501.97z
					 M135.2,501.83h-2.69v-2.66h2.69V501.83z M344.47,494.89h-2.69v-2.65h2.69V494.89z M135.2,494.75h-2.69v-2.65h2.69V494.75z
					 M344.47,487.81h-2.69v-2.65h2.69V487.81z M135.2,487.67h-2.69v-2.65h2.69V487.67z M344.47,480.74h-2.69v-2.66h2.69V480.74z
					 M135.2,480.59h-2.69v-2.65h2.69V480.59z M344.47,473.66h-2.69V471h2.69V473.66z M135.2,473.51h-2.69l0-2.67l2.69,0.03
					L135.2,473.51z M340.89,467.35c-0.35-0.67-0.8-1.3-1.33-1.85l1.95-1.83c0.71,0.73,1.31,1.56,1.78,2.46L340.89,467.35z
					 M136.15,467.24l-2.38-1.25c0.48-0.89,1.09-1.71,1.82-2.43l1.92,1.86C136.97,465.96,136.51,466.57,136.15,467.24z
					 M336.36,463.47c-0.73-0.25-1.49-0.39-2.26-0.42l0.12-2.65c1.03,0.04,2.04,0.23,3.01,0.56L336.36,463.47z M140.74,463.43
					l-0.83-2.52c0.97-0.31,1.99-0.49,3.02-0.52l0.08,2.65C142.23,463.07,141.47,463.2,140.74,463.43z M329.67,463.04h-2.69v-2.65
					h2.69V463.04z M322.49,463.04h-2.69v-2.65h2.69V463.04z M315.31,463.04h-2.69v-2.65h2.69V463.04z M308.13,463.04h-2.69v-2.65
					h2.69V463.04z M300.95,463.04h-2.69v-2.65h2.69V463.04z M293.77,463.04h-2.69v-2.65h2.69V463.04z M286.58,463.04h-2.69v-2.65
					h2.69V463.04z M279.41,463.04h-2.69v-2.65h2.69V463.04z M272.22,463.04h-2.69v-2.65h2.69V463.04z M265.04,463.04h-2.69v-2.65
					h2.69V463.04z M257.86,463.04h-2.69v-2.65h2.69V463.04z M250.68,463.04h-2.69v-2.65h2.69V463.04z M243.5,463.04h-2.69v-2.65
					h2.69V463.04z M236.32,463.04h-2.69v-2.65h2.69V463.04z M229.14,463.04h-2.69v-2.65h2.69V463.04z M221.96,463.04h-2.69v-2.65
					h2.69V463.04z M214.78,463.04h-2.69v-2.65h2.69V463.04z M207.6,463.04h-2.69v-2.65h2.69V463.04z M200.41,463.04h-2.69v-2.65
					h2.69V463.04z M193.23,463.04h-2.69v-2.65h2.69V463.04z M186.05,463.04h-2.69v-2.65h2.69V463.04z M178.87,463.04h-2.69v-2.65
					h2.69V463.04z M171.69,463.04H169v-2.65h2.69V463.04z M164.51,463.04h-2.69v-2.65h2.69V463.04z M157.33,463.04h-2.69v-2.65h2.69
					V463.04z M150.15,463.04h-2.69v-2.65h2.69V463.04z"/>
			</g>
			<g>
				<g>
					<path class="st24" d="M159.27,493.14l-3.79-16.51h-1.09v-4.41h10.83v4.41h-1.77l1.34,10.08h0.27l3.14-14.49h7.86l2.95,14.49
						h0.27l1.34-10.08h-1.77v-4.41h9.46v4.41h-1.09l-3.52,16.51h-9.52l-2.48-11.08h-0.27l-2.62,11.08H159.27z"/>
					<path class="st24" d="M201.58,476.63h-3.3v4.25h2.4v3.06h-2.4v4.79h3.3v-4.25h6.11v8.66H189v-4.41h1.64v-12.1H189v-4.41h18.68
						v8.12h-6.11V476.63z"/>
					<path class="st24" d="M209.05,472.22h11.78v4.41h-2.51v12.1h2.45v-2.47h5.43v6.88h-17.16v-4.41h1.64v-12.1h-1.64V472.22z"/>
					<path class="st24" d="M238.59,484.56h6.55v6.96c-0.36,0.22-0.8,0.44-1.32,0.69c-0.52,0.24-1.12,0.46-1.8,0.64
						c-0.68,0.19-1.45,0.34-2.32,0.47c-0.86,0.13-1.83,0.19-2.9,0.19c-1.6,0-3.05-0.2-4.34-0.59c-1.29-0.39-2.39-1.02-3.3-1.88
						c-0.91-0.86-1.61-1.98-2.1-3.35c-0.49-1.37-0.74-3.04-0.74-5.01c0-1.95,0.25-3.62,0.74-5c0.49-1.38,1.19-2.5,2.09-3.36
						c0.9-0.86,2-1.49,3.29-1.88c1.29-0.39,2.73-0.59,4.31-0.59c1.09,0,2.06,0.06,2.92,0.19c0.85,0.13,1.62,0.28,2.3,0.47
						c0.68,0.19,1.28,0.4,1.8,0.64c0.52,0.24,0.98,0.47,1.38,0.69v6.72h-6.55v-1.94c0-0.7-0.15-1.21-0.46-1.52
						c-0.31-0.31-0.77-0.47-1.39-0.47c-0.62,0-1.08,0.16-1.39,0.47c-0.31,0.31-0.46,0.82-0.46,1.52v8.12c0,0.7,0.15,1.21,0.46,1.52
						c0.31,0.31,0.77,0.47,1.39,0.47c0.62,0,1.08-0.16,1.39-0.47c0.31-0.31,0.46-0.82,0.46-1.52V484.56z"/>
					<path class="st24" d="M267.34,482.68c0,1.97-0.25,3.64-0.74,5.01c-0.49,1.37-1.19,2.49-2.09,3.35c-0.9,0.86-2,1.49-3.29,1.88
						c-1.29,0.39-2.73,0.59-4.31,0.59c-1.58,0-3.02-0.2-4.31-0.59c-1.29-0.39-2.39-1.02-3.29-1.88c-0.9-0.86-1.6-1.98-2.09-3.35
						c-0.49-1.37-0.74-3.04-0.74-5.01c0-1.95,0.25-3.62,0.74-5c0.49-1.38,1.19-2.5,2.09-3.36c0.9-0.86,2-1.49,3.29-1.88
						c1.29-0.39,2.73-0.59,4.31-0.59c1.58,0,3.02,0.2,4.31,0.59c1.29,0.39,2.39,1.02,3.29,1.88c0.9,0.86,1.6,1.98,2.09,3.36
						C267.09,479.06,267.34,480.72,267.34,482.68z M256.92,488.73c0.62,0,1.08-0.16,1.39-0.47c0.31-0.31,0.46-0.82,0.46-1.52v-8.12
						c0-0.7-0.16-1.21-0.46-1.52c-0.31-0.31-0.77-0.47-1.39-0.47c-0.62,0-1.08,0.16-1.39,0.47c-0.31,0.31-0.46,0.82-0.46,1.52v8.12
						c0,0.7,0.15,1.21,0.46,1.52C255.83,488.57,256.3,488.73,256.92,488.73z"/>
					<path class="st24" d="M268.1,472.22h13.04l3.11,9.22l3-9.22h12.57v4.41h-1.64v12.1h1.64v4.41h-10.91v-4.41h1.64v-10.62
						l-5.43,15.03h-2.95l-6.16-15.08v10.67h1.64v4.41h-9.55v-4.41h1.64v-12.1h-1.64V472.22z"/>
					<path class="st24" d="M313.54,476.63h-3.3v4.25h2.4v3.06h-2.4v4.79h3.3v-4.25h6.11v8.66h-18.68v-4.41h1.64v-12.1h-1.64v-4.41
						h18.68v8.12h-6.11V476.63z"/>
				</g>
				<g>
					<path d="M172.05,540.53h6.55v6.96c-0.36,0.22-0.8,0.44-1.32,0.69c-0.52,0.24-1.12,0.46-1.8,0.65
						c-0.68,0.19-1.46,0.34-2.32,0.47c-0.86,0.13-1.83,0.19-2.9,0.19c-1.6,0-3.05-0.2-4.34-0.59c-1.29-0.39-2.39-1.02-3.3-1.88
						c-0.91-0.86-1.61-1.98-2.1-3.35c-0.49-1.37-0.74-3.04-0.74-5.01c0-1.95,0.25-3.62,0.74-5c0.49-1.38,1.19-2.5,2.09-3.36
						c0.9-0.86,2-1.49,3.29-1.88c1.29-0.39,2.73-0.59,4.31-0.59c1.09,0,2.06,0.06,2.92,0.19c0.85,0.13,1.62,0.28,2.31,0.47
						c0.68,0.19,1.28,0.4,1.8,0.64c0.52,0.24,0.98,0.47,1.38,0.69v6.72h-6.55v-1.94c0-0.7-0.15-1.21-0.46-1.52
						c-0.31-0.31-0.77-0.47-1.39-0.47c-0.62,0-1.08,0.16-1.39,0.47c-0.31,0.31-0.46,0.82-0.46,1.52v8.12c0,0.7,0.15,1.21,0.46,1.52
						c0.31,0.31,0.77,0.47,1.39,0.47c0.62,0,1.08-0.16,1.39-0.47c0.31-0.31,0.46-0.82,0.46-1.52V540.53z"/>
					<path d="M190.55,544.7h1.64l-0.46-2.12h-3.68l-0.44,2.12h1.64v4.41h-9.33v-4.41H181l4.61-16.51h9.93l4.61,16.51h1.09v4.41
						h-10.69V544.7z M188.64,539.73h2.51l-1.12-5.38h-0.27L188.64,539.73z"/>
					<path d="M211.38,544.7h1.8v4.41h-11.07v-4.41h1.64v-12.1h-1.64v-4.41h12.79c1.11,0,2.11,0.11,3.01,0.32
						c0.9,0.22,1.66,0.56,2.28,1.03c0.62,0.48,1.1,1.1,1.43,1.87c0.34,0.77,0.5,1.71,0.5,2.82c0,1.18-0.24,2.21-0.72,3.09
						c-0.48,0.88-1.19,1.5-2.11,1.86l0.03,0.27c1.75,0.27,2.62,1.33,2.62,3.17v2.07h1.28v4.41h-8.65v-6.32
						c0-0.54-0.06-0.97-0.18-1.3c-0.12-0.33-0.31-0.58-0.57-0.75c-0.26-0.17-0.6-0.29-1-0.35c-0.4-0.06-0.88-0.09-1.45-0.09V544.7z
						 M212.86,537.01c0.53,0,0.92-0.13,1.19-0.4c0.26-0.27,0.4-0.71,0.4-1.32v-0.97c0-0.61-0.13-1.05-0.4-1.32
						c-0.26-0.27-0.66-0.4-1.19-0.4h-1.47v4.41H212.86z"/>
					<path d="M239.86,528.19h9.55v4.41h-1.64v16.51h-7.66l-7.99-12.12v7.72h1.64v4.41h-9.55v-4.41h1.64v-12.1h-1.64v-4.41h10.12
						L241.5,539v-6.4h-1.64V528.19z"/>
					<path d="M250.22,528.19h10.91v4.41h-1.64v12.1h1.64v4.41h-10.91v-4.41h1.64v-12.1h-1.64V528.19z"/>
					<path d="M272.32,532.6h-1.36l1.88,10.62h0.27l1.88-10.62h-1.36v-4.41h9.05v4.41h-1.09l-4.34,16.51h-9.93l-4.34-16.51h-1.09
						v-4.41h10.42V532.6z"/>
					<path d="M289.99,544.7h1.64l-0.46-2.12h-3.68l-0.44,2.12h1.64v4.41h-9.33v-4.41h1.09l4.61-16.51h9.93l4.61,16.51h1.09v4.41
						h-10.69V544.7z M288.08,539.73h2.51l-1.12-5.38h-0.27L288.08,539.73z"/>
					<path d="M301.56,528.19h11.78v4.41h-2.51v12.1h2.45v-2.47h5.43v6.88h-17.16v-4.41h1.64v-12.1h-1.64V528.19z"/>
				</g>
				<g>
					<path class="st25" d="M203.97,502.51l8.39-0.18c0.17,0,0.36,0.15,0.56,0.45c0.2,0.3,0.31,0.71,0.33,1.22
						c-0.02,0.34-0.46,0.52-1.34,0.53c-2.6,0.06-5.66,0.39-9.2,0.96c-0.27,0.74-0.72,1.81-1.33,3.2c-2.56,6.18-3.9,10.51-4.02,12.99
						c0,1.23,0.24,2.42,0.72,3.56c0.84,1.92,2.09,2.88,3.76,2.88c1.29,0,2.38-0.32,3.26-0.97c0.88-0.65,1.92-1.71,3.12-3.2
						c0.37-0.47,0.76-0.64,1.17-0.5c0.39,0.17,0.58,0.5,0.58,0.98c0,1.4-0.82,2.57-2.46,3.5c-1.64,0.93-3.4,1.4-5.28,1.4
						c-1.88,0-3.51-0.68-4.88-2.03c-1.37-1.36-2.06-3.16-2.06-5.41c0-1.51,0.19-3.14,0.58-4.86c0.39-1.73,1.09-3.88,2.1-6.46
						c1.02-2.58,1.69-4.29,2.02-5.13c-3.24,0-5.05-0.04-5.43-0.12c-1.16-0.24-1.75-0.7-1.76-1.39c0.02-0.22,0.19-0.36,0.53-0.42
						l7.56-0.67l4.98-8.26c0.57-0.95,1.09-1.42,1.56-1.42c0.19,0,0.4,0.03,0.65,0.09c0.92,0.2,1.37,0.52,1.37,0.97
						c0,0.45-0.47,1.14-1.4,2.07c-0.93,0.93-1.5,1.52-1.72,1.78C205.61,498.97,204.82,500.44,203.97,502.51z"/>
					<path class="st25" d="M227.39,498.58l-0.12-2.7c0.02-0.53,0.23-0.82,0.63-0.85c0.16,0,0.31,0.05,0.47,0.14
						c0.52,0.26,0.78,0.66,0.78,1.21c0,0.95-0.31,2.16-0.94,3.65c-0.63,1.49-1.2,2.59-1.71,3.31c-1.27,1.71-3.04,2.56-5.29,2.56
						c-0.5,0-1.26-0.18-2.29-0.53c-1.03-0.35-1.79-0.53-2.29-0.53c-0.33,0.02-0.58,0.48-0.77,1.4c-0.02,0.06-0.19,1.29-0.54,3.69
						c-0.51,3.62-1.36,6.24-2.55,7.88c-1.52,2.26-2.73,3.39-3.63,3.39c-0.97-0.08-1.51-0.76-1.62-2.06
						c0.08-1.72,0.83-4.76,2.26-9.11c1.43-4.35,2.61-7.13,3.54-8.33c0.29-0.38,0.81-0.52,1.55-0.41c0.28,0.06,0.42,0.37,0.43,0.92
						c0.01,0.55,0.28,0.83,0.8,0.85c0.54,0,1.47,0.22,2.78,0.66c1.31,0.44,2.39,0.66,3.23,0.66c0.85,0,1.69-0.21,2.52-0.64
						C226.47,502.8,227.39,501.08,227.39,498.58z M214.81,504.16c-0.65,0-1.6,1.91-2.84,5.72c-1.24,3.82-1.87,6-1.88,6.56
						c-0.02,0.56,0.02,0.84,0.12,0.84c0.57,0,1.57-1.38,2.99-4.13c1.42-2.76,2.13-5.12,2.13-7.09v-0.27
						C215.27,504.7,215.1,504.16,214.81,504.16z"/>
					<path class="st25" d="M246.91,502.51l8.39-0.18c0.17,0,0.36,0.15,0.56,0.45c0.2,0.3,0.31,0.71,0.33,1.22
						c-0.02,0.34-0.46,0.52-1.34,0.53c-2.59,0.06-5.66,0.39-9.2,0.96c-0.27,0.74-0.72,1.81-1.33,3.2
						c-2.56,6.18-3.9,10.51-4.02,12.99c0,1.23,0.24,2.42,0.72,3.56c0.84,1.92,2.09,2.88,3.76,2.88c1.29,0,2.38-0.32,3.26-0.97
						c0.88-0.65,1.92-1.71,3.12-3.2c0.37-0.47,0.76-0.64,1.17-0.5c0.39,0.17,0.58,0.5,0.58,0.98c0,1.4-0.82,2.57-2.46,3.5
						c-1.64,0.93-3.4,1.4-5.28,1.4c-1.88,0-3.51-0.68-4.88-2.03c-1.37-1.36-2.06-3.16-2.06-5.41c0-1.51,0.19-3.14,0.58-4.86
						s1.09-3.88,2.1-6.46c1.01-2.58,1.69-4.29,2.02-5.13c-3.24,0-5.05-0.04-5.43-0.12c-1.16-0.24-1.75-0.7-1.76-1.39
						c0.02-0.22,0.19-0.36,0.53-0.42l7.56-0.67l4.98-8.26c0.57-0.95,1.09-1.42,1.56-1.42c0.19,0,0.4,0.03,0.65,0.09
						c0.92,0.2,1.37,0.52,1.37,0.97c0,0.45-0.46,1.14-1.4,2.07c-0.93,0.93-1.5,1.52-1.72,1.78
						C248.56,498.97,247.77,500.44,246.91,502.51z"/>
					<path class="st25" d="M257.05,506.63c0.02-0.02,0.31-0.37,0.88-1.05c0.57-0.67,0.98-1.13,1.21-1.37l0.44-0.46
						c0.31-0.29,0.77-0.43,1.39-0.42c0.62,0.01,0.94,0.32,0.98,0.93c0,0.17-0.11,0.54-0.33,1.12c-0.22,0.58-0.51,1.66-0.88,3.25
						c-0.93,3.85-1.39,6.96-1.39,9.34c0,0.96,0.14,1.46,0.42,1.49c0.48,0,1.22-0.6,2.23-1.81c0.91-1.08,2.35-3.57,4.32-7.46
						c0.29-0.5,0.64-0.76,1.02-0.76c0.2,0.05,0.32,0.21,0.35,0.5c0,0.76-0.21,1.66-0.63,2.7c-0.79,2-1.98,3.88-3.56,5.63
						c-1.59,1.76-2.89,2.63-3.91,2.63c-1.5-0.02-2.27-1.23-2.3-3.64c0-1.99,0.33-4.8,1-8.45c-0.99,0.32-1.88,1.09-2.67,2.31
						c-0.77,1.22-1.58,2.99-2.42,5.31c-0.87,2.4-1.46,3.75-1.79,4.05c-0.37,0.27-0.79,0.41-1.24,0.4c-0.46-0.01-0.69-0.17-0.71-0.49
						c-0.02-0.32,0.78-2.6,2.39-6.85c1.61-4.24,3.43-8.62,5.47-13.14c2.04-4.52,3.2-7.48,3.5-8.88c0.11-0.43,0.51-0.65,1.21-0.66
						c0.23,0,0.46,0.03,0.7,0.09c0.65,0.17,0.98,0.47,0.98,0.89c0,0.15-0.05,0.32-0.14,0.5l-0.33,0.55
						C262.05,494.96,259.99,499.54,257.05,506.63z"/>
					<path class="st25" d="M278.16,512.4c0.78-0.82,1.21-0.97,1.31-0.43c0,0.2-0.12,0.53-0.37,0.99c-0.75,1.39-1.89,2.87-3.44,4.43
						c-2.44,2.48-4.6,3.72-6.48,3.72c-0.89,0-1.65-0.25-2.28-0.76c-1.18-0.97-1.77-2.65-1.77-5.04c0-1.36,0.42-3.26,1.26-5.72
						c0.84-2.46,2.13-4.69,3.88-6.68c0.77-0.97,1.57-1.46,2.41-1.46c0.38,0,0.77,0.08,1.17,0.25c0.96,0.41,1.43,1.07,1.43,1.99
						c0,0.14-0.05,0.36-0.14,0.66c-0.62,1.23-1.62,2.66-3,4.27c-1.38,1.61-2.78,2.9-4.2,3.86c-0.5,1.77-0.75,3.14-0.75,4.13
						c0,0.99,0.02,1.62,0.07,1.9c0.14,0.64,0.66,0.96,1.56,0.96c0.9,0,1.93-0.41,3.08-1.22c1.15-0.81,2.38-1.89,3.68-3.23
						c1.3-1.34,2.04-2.09,2.22-2.26C278,512.57,278.11,512.46,278.16,512.4z M269.07,509c0.31-0.05,0.98-0.7,2.01-1.96
						c1.03-1.26,1.54-2.25,1.54-2.97c0-0.11-0.04-0.23-0.12-0.37c-0.31,0.3-0.96,1.17-1.95,2.6
						C269.56,507.73,269.07,508.63,269.07,509z"/>
				</g>
				<path class="st25" d="M298.76,510.66c0,1.92-1.58,3.47-3.52,3.47s-3.52-1.55-3.52-3.47c0-1.92,1.58-3.47,3.52-3.47
					S298.76,508.74,298.76,510.66z"/>
				<path class="st25" d="M180.84,510.66c0,1.92-1.58,3.47-3.52,3.47c-1.94,0-3.52-1.55-3.52-3.47c0-1.92,1.58-3.47,3.52-3.47
					C179.26,507.19,180.84,508.74,180.84,510.66z"/>
			</g>
		</g>
		<g class="st1">
			<path class="st26" d="M142.69,330.9c0,0-38.12-3.73-85.73,4.13c0,0,14.45-17.14,25.14-23.87c0,0-14.97-9.8-26.63-16.51
				c0,0,16.83-2.57,52.14-4.4C142.91,288.43,142.69,330.9,142.69,330.9z"/>
			<path class="st26" d="M346.09,331c0,0,38.12-3.73,85.73,4.13c0,0-14.45-17.14-25.14-23.87c0,0,14.97-9.8,26.63-16.51
				c0,0-16.83-2.57-52.13-4.4C345.86,288.53,346.09,331,346.09,331z"/>
			<g>
				<g>
					<path class="st27" d="M142.56,318.13v-0.04c-8.12,0.99-14.7,1.96-19.31,2.69c-4.02-0.61-6.72-0.67-6.97-0.68l-0.03,1.86
						c-0.26,0.05-0.41,0.08-0.41,0.08s0.16,0.01,0.41,0.02l-0.03,2.08c0.13,0,14.41,0.4,26.73,6.83l-0.38-4.24V318.13z"/>
					<path class="st27" d="M372.88,320.1c-0.26,0.01-3.3,0.09-7.73,0.8c-4.49-0.72-11.08-1.71-19.31-2.74v8.85h0l0,4.25
						c12.27-6.4,26.98-7.14,27.11-7.14L372.88,320.1z"/>
				</g>
				<path class="st21" d="M372.43,276.09c-0.58-0.07-77.46-6.97-128.19-6.97c-59.98,0-127.62,6.89-128.2,6.97l-1.72,0.2v48.24
					l2.28-0.43c0.45-0.08,73.51-8.47,127.64-8.47c54.1,0,127.18,8.39,127.63,8.47l2.28,0.43v-48.24L372.43,276.09z"/>
			</g>
		</g>
		<path class="st28" d="M114.3,276.2c21.53-2.69,43.18-4.31,64.85-5.49c21.67-1.15,43.37-1.71,65.07-1.72
			c43.4,0.06,86.81,2.32,129.93,7.21l-0.02,0.19c-10.81-0.95-21.63-1.74-32.45-2.36c-10.82-0.72-21.64-1.32-32.47-1.75
			c-10.83-0.39-21.66-0.86-32.49-1.07c-10.83-0.24-21.67-0.33-32.5-0.29c-10.83-0.05-21.67,0.03-32.5,0.26
			c-10.83,0.2-21.66,0.66-32.49,1.03c-10.83,0.41-21.65,0.99-32.47,1.7c-10.82,0.63-21.65,1.38-32.43,2.48L114.3,276.2z"/>
		<path class="st29" d="M114.3,324.43c21.49-3.2,43.14-5.23,64.81-6.72c21.68-1.46,43.4-2.23,65.13-2.31
			c43.45-0.07,86.95,2.61,129.92,9.03l-0.03,0.19c-10.78-1.34-21.58-2.44-32.4-3.32c-10.81-0.98-21.63-1.76-32.46-2.33
			c-10.83-0.52-21.66-1.08-32.5-1.34c-10.84-0.28-21.69-0.38-32.53-0.3c-10.84-0.01-21.69,0.14-32.53,0.47
			c-10.84,0.3-21.67,0.89-32.51,1.41c-10.83,0.57-21.66,1.32-32.47,2.25c-10.82,0.83-21.64,1.81-32.41,3.17L114.3,324.43z"/>
		<g class="st1">
			<g>
				<g>
					<path class="st30" d="M483.52,492.87c-1.25,3.74-9.35,4.46-18.08,1.61c-8.73-2.85-14.79-8.19-13.54-11.92
						c1.25-3.74,9.35-4.46,18.08-1.61C478.72,483.8,484.78,489.13,483.52,492.87z"/>
				</g>
			</g>
			<g>
				<g>
					<path class="st30" d="M406.31,469.93c-0.8,3.86-8.75,5.52-17.76,3.71c-9.01-1.81-15.67-6.4-14.87-10.26
						c0.8-3.86,8.75-5.52,17.76-3.71C400.45,461.48,407.11,466.07,406.31,469.93z"/>
				</g>
			</g>
			<g>
				<g>
					<path class="st30" d="M85.64,466.03c0.92,3.83-5.59,8.63-14.53,10.72c-8.95,2.09-16.95,0.68-17.87-3.16
						c-0.92-3.83,5.59-8.63,14.54-10.72C76.72,460.79,84.72,462.2,85.64,466.03z"/>
				</g>
			</g>
			<g>
				<g>
					<path class="st30" d="M8.16,487.94c1.38,3.7-4.51,9.23-13.14,12.35c-8.63,3.12-16.75,2.66-18.12-1.04
						c-1.38-3.7,4.51-9.23,13.14-12.35C-1.33,483.77,6.79,484.24,8.16,487.94z"/>
				</g>
			</g>
		</g>
		<g class="st1">
			
				<radialGradient id="SVGID_6_" cx="133.3595" cy="1688.7322" r="75.5427" gradientTransform="matrix(3.3971 0 0 0.296 -218.6297 106.3258)" gradientUnits="userSpaceOnUse">
				<stop  offset="0" style="stop-color:#B04700"/>
				<stop  offset="1" style="stop-color:#FFFFFF"/>
			</radialGradient>
			<path class="st31" d="M491.01,606.2c0,12.35-114.9,22.36-256.62,22.36c-141.7,0-256.6-10-256.6-22.36
				c0-12.35,114.9-22.37,256.6-22.37C376.11,583.83,491.01,593.85,491.01,606.2z"/>
			
				<radialGradient id="SVGID_7_" cx="69.258" cy="1688.7322" r="75.5428" gradientTransform="matrix(3.3971 0 0 0.296 -218.6297 106.3258)" gradientUnits="userSpaceOnUse">
				<stop  offset="0" style="stop-color:#B04700"/>
				<stop  offset="1" style="stop-color:#FFFFFF"/>
			</radialGradient>
			<path class="st32" d="M273.25,606.2c0,12.35-114.9,22.36-256.62,22.36c-141.7,0-256.6-10-256.6-22.36
				c0-12.35,114.9-22.37,256.6-22.37C158.35,583.83,273.25,593.85,273.25,606.2z"/>
			
				<radialGradient id="SVGID_8_" cx="182.6708" cy="1688.7322" r="75.5428" gradientTransform="matrix(3.3971 0 0 0.296 -218.6297 106.3258)" gradientUnits="userSpaceOnUse">
				<stop  offset="0" style="stop-color:#B04700"/>
				<stop  offset="1" style="stop-color:#FFFFFF"/>
			</radialGradient>
			<path class="st33" d="M658.53,606.2c0,12.35-114.9,22.36-256.62,22.36c-141.7,0-256.6-10-256.6-22.36
				c0-12.35,114.9-22.37,256.6-22.37C543.63,583.83,658.53,593.85,658.53,606.2z"/>
		</g>
		<path class="st34" d="M478.05,591.41c-9.43,0-17.07,7.53-17.07,16.83v0l0,0v0c0-9.29-7.64-16.83-17.08-16.83
			c-9.43,0-17.07,7.53-17.07,16.83v0l0,0v0c0-9.29-7.64-16.83-17.07-16.83c-9.43,0-17.07,7.53-17.07,16.83v0l0,0v0
			c0-9.29-7.64-16.83-17.07-16.83c-9.43,0-17.07,7.53-17.07,16.83v0l0,0v0c0-9.29-7.64-16.83-17.07-16.83s-17.07,7.53-17.07,16.83v0
			l0,0v0c0-9.29-7.64-16.83-17.07-16.83c-9.43,0-17.07,7.53-17.07,16.83v0l0,0v0c0-9.29-7.64-16.83-17.08-16.83
			c-9.43,0-17.07,7.53-17.07,16.83v0l0,0v0c0-9.29-7.64-16.83-17.07-16.83c-9.43,0-17.07,7.53-17.07,16.83v0l0,0v0
			c0-9.29-7.64-16.83-17.08-16.83c-9.43,0-17.07,7.53-17.07,16.83v0l0,0v0c0-9.29-7.64-16.83-17.08-16.83
			c-9.43,0-17.07,7.53-17.07,16.83v0l0,0v0c0-9.29-7.64-16.83-17.07-16.83c-9.43,0-17.08,7.53-17.08,16.83v0l0,0v0
			c0-9.29-7.64-16.83-17.07-16.83c-9.43,0-17.08,7.53-17.08,16.83v0l0,0v0c0-9.29-7.64-16.83-17.07-16.83
			c-9.43,0-17.07,7.53-17.07,16.83v0l0,0v0c0-9.29-7.64-16.83-17.08-16.83c-9.43,0-17.07,7.53-17.07,16.83v0l0,0v0
			c0-9.29-7.64-16.83-17.08-16.83v33.48h477.08L478.05,591.41z"/>
		<path class="st35" d="M478.05,37.05c-9.43,0-17.07-7.54-17.07-16.83v0l0,0v0c0,9.29-7.64,16.83-17.08,16.83
			c-9.43,0-17.07-7.54-17.07-16.83v0l0,0v0c0,9.29-7.64,16.83-17.07,16.83c-9.43,0-17.07-7.54-17.07-16.83v0l0,0v0
			c0,9.29-7.64,16.83-17.07,16.83c-9.43,0-17.07-7.54-17.07-16.83v0l0,0v0c0,9.29-7.64,16.83-17.07,16.83s-17.07-7.54-17.07-16.83v0
			l0,0v0c0,9.29-7.64,16.83-17.07,16.83c-9.43,0-17.07-7.54-17.07-16.83v0l0,0v0c0,9.29-7.64,16.83-17.08,16.83
			c-9.43,0-17.07-7.54-17.07-16.83v0l0,0v0c0,9.29-7.64,16.83-17.07,16.83c-9.43,0-17.07-7.54-17.07-16.83v0l0,0v0
			c0,9.29-7.64,16.83-17.08,16.83c-9.43,0-17.07-7.54-17.07-16.83v0l0,0v0c0,9.29-7.64,16.83-17.08,16.83
			c-9.43,0-17.07-7.54-17.07-16.83v0l0,0v0c0,9.29-7.64,16.83-17.07,16.83c-9.43,0-17.08-7.54-17.08-16.83v0l0,0v0
			c0,9.29-7.64,16.83-17.07,16.83c-9.43,0-17.08-7.54-17.08-16.83v0l0,0v0c0,9.29-7.64,16.83-17.07,16.83
			c-9.43,0-17.07-7.54-17.07-16.83v0l0,0v0c0,9.29-7.64,16.83-17.08,16.83c-9.43,0-17.07-7.54-17.07-16.83v0l0,0v0
			c0,9.29-7.64,16.83-17.08,16.83V-2.12h477.08L478.05,37.05z"/>
		<g class="st1">
			<g>
				<polygon class="st22" points="460.14,578.05 456.77,580.82 457.19,585.13 453.47,582.84 449.45,584.56 450.51,580.36 
					447.61,577.12 451.98,576.82 454.21,573.1 455.85,577.11 				"/>
			</g>
			<g>
				<polygon class="st22" points="427.03,574.08 430.12,577.09 434.39,576.29 432.44,580.12 434.54,583.87 430.24,583.23 
					427.27,586.35 426.56,582.12 422.63,580.3 426.49,578.33 				"/>
			</g>
			<g>
				<polygon class="st22" points="410.45,584.97 406.14,583.2 402.21,585.69 402.6,581.1 398.98,578.19 403.52,577.13 
					405.21,572.84 407.64,576.77 412.3,577.03 409.26,580.52 				"/>
			</g>
			<g>
				<polygon class="st22" points="385.19,586.04 381.27,583.35 376.79,585.01 378.18,580.5 375.19,576.81 379.97,576.72 
					382.6,572.78 384.17,577.23 388.79,578.48 384.97,581.33 				"/>
			</g>
			<g>
				<polygon class="st22" points="364.96,579.75 360.21,581.87 359.29,586.93 355.77,583.13 350.61,583.83 353.19,579.37 
					350.92,574.74 356.02,575.78 359.78,572.22 360.36,577.33 				"/>
			</g>
			<g>
				<polygon class="st22" points="333.47,574.77 334.44,578.14 337.81,579.26 334.86,581.22 334.81,584.72 332.02,582.56 
					328.63,583.6 329.85,580.31 327.79,577.45 331.35,577.58 				"/>
			</g>
			<g>
				<polygon class="st22" points="315.29,579.75 311.33,581.56 310.6,585.79 307.63,582.64 303.31,583.26 305.44,579.5 
					303.51,575.65 307.79,576.48 310.91,573.48 311.43,577.75 				"/>
			</g>
			<g>
				<polygon class="st22" points="277.46,578.88 282.06,577.87 283.81,573.56 286.22,577.55 290.92,577.87 287.81,581.35 
					288.96,585.86 284.63,584.02 280.64,586.49 281.08,581.86 				"/>
			</g>
			<g>
				<polygon class="st22" points="261.69,587.79 258.9,583.4 253.64,583.18 257.01,579.2 255.6,574.21 260.48,576.14 264.86,573.27 
					264.51,578.44 268.63,581.66 263.53,582.93 				"/>
			</g>
			<g>
				<polygon class="st22" points="235.23,586.61 234.12,582.38 229.95,580.88 233.7,578.53 233.86,574.17 237.28,576.95 
					241.54,575.75 239.91,579.81 242.39,583.44 237.96,583.17 				"/>
			</g>
			<g>
				<polygon class="st22" points="212.28,574.02 213.6,577.79 217.49,578.86 214.27,581.25 214.44,585.23 211.13,582.95 
					207.34,584.34 208.52,580.53 206.01,577.41 210.05,577.34 				"/>
			</g>
			<g>
				<polygon class="st22" points="181.47,580.33 185.24,578.61 185.94,574.58 188.77,577.58 192.88,576.99 190.85,580.57 
					192.69,584.24 188.61,583.45 185.64,586.31 185.15,582.24 				"/>
			</g>
			<g>
				<polygon class="st22" points="169.23,583.96 164.79,582.96 161.43,586.01 161.02,581.53 157.04,579.32 161.24,577.55 
					162.14,573.14 165.14,576.53 169.68,576.01 167.33,579.87 				"/>
			</g>
			<g>
				<polygon class="st22" points="142.57,574.27 142.09,578.58 145.42,581.42 141.11,582.3 139.4,586.3 137.21,582.53 
					132.83,582.17 135.79,578.95 134.79,574.73 138.8,576.51 				"/>
			</g>
			<g>
				<polygon class="st22" points="110.47,583.37 112.52,580.18 111.01,576.71 114.73,577.64 117.61,575.16 117.86,578.92 
					121.15,580.86 117.59,582.26 116.74,585.94 114.29,583.03 				"/>
			</g>
			<g>
				<polygon class="st22" points="85.44,578.28 89.29,577.99 91.23,574.7 92.7,578.22 96.48,579.02 93.54,581.49 93.93,585.28 
					90.64,583.28 87.1,584.82 88.02,581.12 				"/>
			</g>
			<g>
				<polygon class="st22" points="74.71,578.46 70.3,581.37 70.22,586.6 66.05,583.36 60.98,584.91 62.82,580 59.75,575.72 
					65.06,575.93 68.24,571.73 69.68,576.77 				"/>
			</g>
			<g>
				<polygon class="st22" points="37.03,574.41 41.88,576.48 46.36,573.71 45.87,578.9 49.92,582.24 44.77,583.38 42.79,588.21 
					40.1,583.73 34.83,583.38 38.32,579.47 				"/>
			</g>
			<g>
				<polygon class="st22" points="13.75,574.21 18.1,576.62 22.59,574.45 21.6,579.28 25.08,582.82 20.12,583.39 17.78,587.74 
					15.7,583.26 10.78,582.42 14.45,579.08 				"/>
			</g>
		</g>
		<g class="st1">
			<g>
				<polygon class="st22" points="445.76,15.71 446.83,19.28 450.42,20.43 447.31,22.54 447.31,26.26 444.31,24 440.72,25.14 
					441.98,21.64 439.76,18.62 443.54,18.72 				"/>
			</g>
			<g>
				<polygon class="st22" points="404.36,27.47 405.65,22.75 402.45,19.03 407.4,18.79 410.01,14.63 411.77,19.2 416.59,20.36 
					412.72,23.42 413.09,28.3 408.94,25.62 				"/>
			</g>
			<g>
				<polygon class="st22" points="382.9,20.97 378.96,23.36 378.72,27.9 375.2,24.95 370.74,26.13 372.51,21.92 369.99,18.1 
					374.6,18.46 377.5,14.92 378.58,19.34 				"/>
			</g>
			<g>
				<polygon class="st22" points="337.29,15.54 341.71,17.58 345.91,15.14 345.31,19.92 348.96,23.1 344.17,24.02 342.22,28.42 
					339.86,24.22 335.01,23.75 338.34,20.24 				"/>
			</g>
			<g>
				<polygon class="st22" points="303.49,25.92 304.16,22.59 301.76,20.16 305.18,19.76 306.78,16.76 308.23,19.84 311.62,20.41 
					309.09,22.72 309.59,26.08 306.58,24.42 				"/>
			</g>
			<g>
				<polygon class="st22" points="267.84,25.13 270.3,21.47 268.63,17.4 272.92,18.57 276.34,15.75 276.53,20.14 280.31,22.46 
					276.14,24 275.06,28.26 272.28,24.83 				"/>
			</g>
			<g>
				<polygon class="st22" points="245.28,18.32 242.46,22 243.93,26.38 239.51,24.86 235.74,27.6 235.83,22.99 232.04,20.3 
					236.51,18.96 237.93,14.57 240.61,18.35 				"/>
			</g>
			<g>
				<polygon class="st22" points="204.67,28.27 202.51,24.71 198.3,24.45 201.07,21.32 200.02,17.3 203.9,18.92 207.45,16.7 
					207.08,20.83 210.32,23.48 206.22,24.41 				"/>
			</g>
			<g>
				<polygon class="st22" points="172.72,27.4 170.24,24.6 166.48,25.03 168.42,21.84 166.85,18.45 170.53,19.28 173.31,16.76 
					173.65,20.47 176.94,22.29 173.47,23.76 				"/>
			</g>
			<g>
				<polygon class="st22" points="132.23,25.57 133.69,22.09 131.62,18.94 135.42,19.23 137.83,16.31 138.72,19.97 142.27,21.32 
					139.02,23.29 138.82,27.04 135.92,24.6 				"/>
			</g>
			<g>
				<polygon class="st22" points="107.64,25.48 103.16,25 100.22,28.35 99.31,24.01 95.16,22.29 99.07,20.09 99.44,15.67 
					102.77,18.65 107.15,17.64 105.31,21.68 				"/>
			</g>
			<g>
				<polygon class="st22" points="64.64,16.07 67.6,18.46 71.28,17.4 69.89,20.92 72.04,24.04 68.22,23.82 65.88,26.8 64.9,23.16 
					61.3,21.88 64.52,19.84 				"/>
			</g>
			<g>
				<polygon class="st22" points="40.01,21.97 36.2,23.6 35.4,27.62 32.65,24.55 28.52,25.04 30.63,21.51 28.88,17.8 32.94,18.69 
					35.98,15.9 36.38,19.98 				"/>
			</g>
		</g>
		<g class="st1">
			<g>
				<path class="st22" d="M137.13,284.91c7.08-1.97,13.33,0.62,15.83,11.37c2.93,12.56-4.15,15.6-8.47,16.87
					c-4.68,1.37-11.79,2.5-15.59-10.16C125.82,292.73,129.67,286.99,137.13,284.91z M138.46,299.79c1.74,6.64,3.11,7.6,4.5,7.21
					c1.66-0.46,1.75-3.55,0.44-8.59c-2-7.73-3.83-6.47-4.36-6.32C138.23,292.32,136.89,293.76,138.46,299.79z"/>
				<path class="st22" d="M189.63,298.93c0.77,4.18-8.57,8.9-9.85,2.44c-0.24-1.2-1.42-10.73-1.42-10.73
					c-0.31-2.21-3.74-2.04-3.41,0.79c0.39,3.36,1.31,5.05,2.02,9.74c0.38,2.48,0.77,4.32-2.74,5.01c-4.02,0.79-5.19-1.44-5.61-4.1
					c-0.59-3.72-0.88-5.58-1.46-9.29c-0.57-2.96-4.08-1.52-3.34,0.88c1.01,3.28,1.64,6.58,2.15,9.66c0.4,2.43,0.21,4.44-3.29,5.25
					c-4,0.92-4.61-0.81-5.2-3.44c-0.96-4.16-1.44-6.24-2.4-10.4c-0.48-2.14-1.27-4.95-1.92-6.48c0,0,1.59-1.32,3.57-1.77
					c2.52-0.57,3.9-0.03,4.37,2.95c0.24-5.61,10.12-7.17,12.32-3.12c1.1-5.72,12.61-6.91,13.63,2.37c0.17,1.54,0.27,3.34,0.81,6.76
					C188.26,298.07,188.71,298.84,189.63,298.93z"/>
				<path class="st22" d="M213.82,296.81c0.12,2.33-2.5,4.77-5.19,4.93c-7.47,0.45-2.88-10.09-8.43-8.17
					c0.38,2.21,0.72,4.05,0.55,5.91c-0.31,3.25-7.2,4.98-8.41,0.5c-0.46-1.69-0.68-3.89-0.97-5.9c-0.83-5.81-0.9-7.66-2.14-12.51
					c1.44-0.75,8.33-3.52,9.5,0.68c0.64,2.29,0.58,3.52,0.89,6.42c1.25-0.14,2.29-0.3,2.39-2.28c0.11-2.26,0.18-4.52,0.05-6.85
					c2.3-0.84,6.28-2.38,7.82,0.59c1.89,3.65-1.38,9.28-3.98,9.85c4.32-0.24,6.02,1.9,6.43,4.1
					C212.73,296.2,212.92,296.65,213.82,296.81z"/>
				<path class="st22" d="M216.25,307.94c-0.64-9.71-0.96-19.53-2.03-29.24c3.63-1.77,7.3-1.19,8.15,3.15
					c1.08-3.94,4.86-4.88,6.09-4.93c3.97-0.16,8.46,3.27,8.14,13.45c-0.34,10.59-9.3,13.22-13.12,6.28
					c0.07,0.45,0.48,10.85,2.35,10.72C225.46,312.69,216.67,314.38,216.25,307.94z M227.47,292.77c0.23-3.05,0.27-9.48-2.09-9.1
					c-1.16,0.19-1.58,1.63-1.54,2.54c0.11,2.32,0.16,3.48,0.27,5.79C224.79,295.35,227.32,294.77,227.47,292.77z"/>
				<path class="st22" d="M247.27,283.84c4.93-1.9,13.28-0.34,12.08,8.86c-0.74,5.67-5.98,7.64-10.76,7.51
					c-5.67-0.15-9.93-2.92-9.98-8.49c-0.07-7.44,0.15-10.78-0.42-13.88c0,0,3.2-0.94,5.22-0.93c2.57,0.01,4.09,0.91,3.95,3.28
					C247.31,281.19,247.29,282.51,247.27,283.84z M247.91,292.94c0.08,0.91,0.49,1.97,1.62,1.99c0.94,0.02,1.92-2.49,1.76-4.44
					c-0.13-1.59-0.91-2.21-1.63-2.23c-0.53-0.01-1.11,0.21-1.64,0.56C247.87,289.24,247.83,292.02,247.91,292.94z M270.8,292.55
					c-0.15,2.64,0.81,3.51,0.99,3.79c0.94,1.42-9.94,6.64-9.79,0.25c0.35-14.73,0.74-16.1,0.51-18.22c0,0,3.25-0.73,5.27-0.6
					c2.56,0.17,4.12,1.17,3.85,3.53C271.3,285.8,271.13,288.05,270.8,292.55z"/>
				<path class="st22" d="M306.53,300.88c-0.53,4.22-10.83,5.77-10.11-0.78c0.13-1.22,1.87-10.66,1.87-10.66
					c0.37-2.21-2.94-3.12-3.48-0.32c-0.64,3.32-0.28,5.22-1.01,9.91c-0.39,2.48-0.57,4.35-4.11,3.9c-4.05-0.51-4.5-3-4.1-5.67
					c0.56-3.72,0.84-5.58,1.4-9.3c0.34-2.99-3.41-2.73-3.43-0.21c-0.03,3.44-0.42,6.77-0.86,9.87c-0.35,2.44-1.13,4.29-4.69,3.96
					c-4.06-0.38-4.12-2.22-3.89-4.9c0.34-4.26,0.51-6.39,0.84-10.65c0.18-2.18,0.28-5.11,0.12-6.77c0,0,1.9-0.75,3.91-0.56
					c2.56,0.25,3.7,1.2,3.25,4.18c1.91-5.26,11.75-3.64,12.63,0.91c2.76-5.1,14.07-2.6,12.25,6.55c-0.3,1.52-0.75,3.26-1.26,6.68
					C305.49,299.63,305.69,300.5,306.53,300.88z"/>
				<path class="st22" d="M317.71,300.31c-0.17,2,2.25,3,3.45-0.19c0.57-2.81,0.85-4.21,1.42-7.02c0.81-3.89,1.25-6.99,5.85-5.93
					c4.94,1.14,3.49,4.53,2.72,7.86c-0.75,3.25-1.13,4.88-1.89,8.13c-0.37,1.6,0.19,1.92,0.89,2.28c-1.34,4.65-9.68,5.83-9-1.07
					c-4.78,6.61-13.54,2.7-11.68-7.86c0.55-3.13,0.83-4.69,1.38-7.82c0.37-2.11,0.56-2.91,0.44-3.91c0.6-0.26,9.39-3.09,8.33,5.49
					C319.37,291.47,317.79,299.4,317.71,300.31z"/>
				<path class="st22" d="M350.85,308.66c2.38,0.78,1.3,3.84-0.91,4.96c-2.5,1.28-6.1,1.38-9.18,0.18
					c-3.61-1.4-9.74-4.87-7.63-13.65c2.02-8.43,9.18-10.45,13.92-9.07c7.37,2.15,8.67,7.15,8.49,9.81
					c-0.62,8.74-9.65,6.44-13.28,4.8C341.21,309.58,348.51,310.32,350.85,308.66z M344.7,302.18c1.7-1.27,3.69-4.37,0.99-4.74
					c-1.65-0.23-3.08,4.49-2.83,5.45C342.9,303.09,344,302.74,344.7,302.18z"/>
			</g>
		</g>
		<g class="st1">
			<text transform="matrix(0.9772 0 0 1 170.7285 365.4414)" class="st36 st3 st6">Парка</text>
		</g>
		<g class="st1">
			<text transform="matrix(0.9772 0 0 1 126.0952 419.3486)" class="st36 st3 st4">Развлечений</text>
		</g>
		<g class="st1">
			<text transform="matrix(1.0145 0 0 1 207.5681 91.207)" class="st37 st38">10</text>
		</g>
		<g class="st1">
			<path d="M205.33,138.21c-1.24-0.04-1.33-0.49-0.27-1.36c0.18-0.14,0.31-0.26,0.39-0.36c1.66-1.5,2.79-2.92,3.41-4.26
				c0.26-0.63,2.74-8.48,7.43-23.56l0.31-0.03v-0.06c0.04-0.21,0.13-0.73,0.27-1.55c0.67-3.31,1.27-5.28,1.81-5.93
				c0.54-0.65,1.01-0.97,1.41-0.97c0.95,0.08,1.46,0.36,1.54,0.86c0,0.1-0.09,0.48-0.27,1.15c-1.46,5.08-2.19,8.94-2.19,11.6
				c0,0.35,0.18,0.7,0.53,1.03c0.35,0.33,0.56,0.5,0.62,0.5c0.59-0.04,1.71-1.77,3.36-5.2c1.65-3.43,2.6-5.55,2.86-6.38
				c0.25-0.82,0.51-1.23,0.76-1.23c0.74,0,1.23,0.12,1.48,0.35c0.25,0.23,0.38,0.4,0.39,0.49c0.01,0.09-0.15,0.69-0.48,1.81
				c-0.33,1.11-1.63,5.48-3.9,13.11c-2.27,7.63-3.76,12.62-4.47,14.99c-0.71,2.37-1.06,4.13-1.06,5.29
				c0.02,0.37,0.31,0.76,0.87,1.15c0.68,0.47,1,0.91,0.98,1.33c-0.02,1.28-0.41,1.93-1.17,1.95c-1.88-0.02-2.81-1.74-2.81-5.17
				c0-2.76,0.7-6.15,2.11-10.18c1.32-4.84,1.98-7.42,1.98-7.73c-0.28,0.71-0.7,1.3-1.27,1.77c-0.57,0.47-1.07,0.71-1.5,0.71
				s-0.88-0.32-1.34-0.96c-0.46-0.64-0.73-1.16-0.8-1.57c-0.07-0.41-0.09-0.68-0.07-0.81c-0.25,0.81-0.96,3.17-2.15,7.08
				c-1.19,3.91-2.38,6.8-3.58,8.67C209.04,137.05,207.31,138.21,205.33,138.21z"/>
			<path d="M240.35,114.63l1.77,0.24c0.28,0,0.57-0.16,0.88-0.47c0.31-0.32,0.71-0.47,1.19-0.47c0.49,0,0.88,0.13,1.16,0.39
				c0.29,0.26,0.43,0.48,0.43,0.67c0,0.19-0.12,0.5-0.35,0.94c-0.23,0.44-0.38,0.73-0.42,0.87c-2.57,8.23-3.86,13.48-3.86,15.75
				c0.02,0.79,0.2,1.19,0.54,1.21c1.21,0,3.12-1.58,5.7-4.74c1.73-2.12,2.85-3.67,3.36-4.66c0.51-0.99,0.91-1.51,1.21-1.57
				c0.06,0,0.11-0.01,0.15-0.03c0.36,0.04,0.55,0.25,0.57,0.62c0,0.71-0.83,2.3-2.48,4.77c-3.52,5.3-6.57,7.95-9.14,7.95
				c-1.86,0-2.79-1.25-2.79-3.76c0-1.28,0.25-2.85,0.76-4.74c0.5-1.88,0.82-3.05,0.94-3.5c-0.45,0.63-2.01,2.83-4.7,6.6
				c-2.69,3.77-4.58,5.97-5.67,6.59c-0.35,0.18-0.65,0.28-0.9,0.3c-1.23,0-2.12-0.44-2.68-1.33c-0.26-0.43-0.39-1.06-0.4-1.87
				c-0.01-0.82,0.62-2.7,1.88-5.65c2.04-4.76,4.36-8.43,6.96-11.01C236.52,115.72,238.48,114.68,240.35,114.63z M241.7,117.3
				c-3.18,0.53-5.95,2.59-8.31,6.17c-2.31,3.49-3.52,6.93-3.64,10.34C234.3,127.9,238.29,122.39,241.7,117.3z"/>
			<path d="M262.97,112.26c1.12,0,1.71,0.31,1.77,0.94c0,0.2-0.38,1.69-1.14,4.49l-1.41,4.99c-0.3,1.12-0.68,2.98-1.15,5.56
				c-0.47,2.59-0.95,4.95-1.45,7.1c-2,8.54-4.1,14.53-6.32,17.98c-0.66,1.02-1.48,2.01-2.46,2.95c-2.18,2.13-4.19,3.19-6.05,3.19
				c-0.88,0-1.32-0.21-1.32-0.62c0.02-0.16,0.3-0.3,0.84-0.43c0.54-0.13,1.13-0.37,1.77-0.72c1.8-1.06,3.16-2.52,4.1-4.37
				c3.75-6.32,6.47-15.45,8.14-27.39c-0.58,1.75-1.76,4.04-3.55,6.86c-1.79,2.82-3.44,4.24-4.96,4.24c-0.82,0-1.22-0.81-1.2-2.42
				c0.06-5.06,1.82-12.19,5.27-21.4c0.14-0.37,0.27-0.69,0.39-0.94c0.3-0.63,0.62-0.94,0.97-0.94c0.35,0,0.65,0.03,0.91,0.09
				c1.04,0.22,1.57,0.63,1.59,1.24c0,0.14-0.14,0.62-0.42,1.45l-1.47,4.22c-2.34,6.65-3.73,11.32-4.19,13.99
				c1.36-2.05,3.23-5.39,5.62-10.04c2.39-4.64,3.68-7.15,3.88-7.53c0.24-0.37,0.42-0.72,0.54-1.03l0.24-0.62
				C262.16,112.54,262.51,112.26,262.97,112.26z"/>
		</g>
		<g class="st1">
			<rect x="291.3" y="68.39" width="17.09" height="5.23"/>
		</g>
		<g class="st1">
			<rect x="168.47" y="68.39" width="16.06" height="5.23"/>
		</g>
	</g>
</g>
<path class="st39" d="M348.54,257.76"/>
<path class="st39" d="M361,257.96"/>
<g>
	<line class="st40" x1="365.58" y1="108.38" x2="371.59" y2="121.48"/>
	<line class="st40" x1="386.37" y1="108.87" x2="380.36" y2="121.97"/>
	<path class="st41" d="M376.42,121.16h-0.8h-4.7c-0.48,0-0.86,0.42-0.8,0.9l0.79,6.65c0.09,0.79,0.76,1.39,1.56,1.39h3.14h0.8h3.14
		c0.8,0,1.47-0.6,1.56-1.39l0.79-6.65c0.06-0.48-0.32-0.9-0.8-0.9H376.42z"/>
	<path class="st41" d="M363.11,106.65h25.83c7.36-5.82,12.29-16.1,12.29-26.1c0-15.12-11.29-23.86-25.21-23.86
		s-25.21,8.74-25.21,23.86C350.81,90.55,355.74,100.83,363.11,106.65z"/>
	<path class="st41" d="M388.85,110.31h-25.67c-0.99,0-1.8-0.81-1.8-1.8v-0.46c0-0.99,0.81-1.8,1.8-1.8h25.67
		c0.99,0,1.8,0.81,1.8,1.8v0.46C390.66,109.5,389.84,110.31,388.85,110.31z"/>
	<path class="st42" d="M380.05,112.84h-7.79c-0.62,0-1.12-0.5-1.12-1.12v-0.28c0-0.62,0.5-1.12,1.12-1.12h7.79
		c0.62,0,1.12,0.5,1.12,1.12v0.28C381.17,112.33,380.67,112.84,380.05,112.84z"/>
	<path class="st43" d="M365.48,106.33h20.98c5.98-5.82,9.99-16.1,9.99-26.1c0-15.12-9.17-23.86-20.48-23.86s-20.48,8.74-20.48,23.86
		C355.49,90.23,359.49,100.51,365.48,106.33z"/>
	<path class="st44" d="M368.77,106.33h14.43c4.11-5.82,6.87-16.1,6.87-26.1c0-15.12-6.3-23.86-14.08-23.86
		c-7.78,0-14.08,8.74-14.08,23.86C361.9,90.23,364.65,100.51,368.77,106.33z"/>
	<path class="st41" d="M372.69,106.33h6.58c1.88-5.82,3.13-16.1,3.13-26.1c0-15.12-2.88-23.86-6.42-23.86
		c-3.55,0-6.42,8.74-6.42,23.86C369.56,90.23,370.81,100.51,372.69,106.33z"/>
	<line class="st40" x1="323.9" y1="114.98" x2="330.82" y2="130.06"/>
	<line class="st40" x1="347.85" y1="115.54" x2="340.92" y2="130.62"/>
	<path class="st45" d="M336.39,129.69h-0.92h-5.41c-0.56,0-0.99,0.49-0.92,1.04l0.92,7.67c0.11,0.91,0.88,1.6,1.8,1.6h3.62h0.92
		h3.62c0.92,0,1.69-0.69,1.8-1.6l0.92-7.67c0.07-0.55-0.37-1.04-0.92-1.04H336.39z"/>
	<path class="st46" d="M321.05,112.98h29.75c8.48-6.71,14.16-18.55,14.16-30.06c0-17.42-13-27.48-29.04-27.48
		s-29.04,10.06-29.04,27.48C306.89,94.43,312.57,106.27,321.05,112.98z"/>
	<path class="st47" d="M350.71,117.2h-29.56c-1.14,0-2.08-0.93-2.08-2.08v-0.53c0-1.14,0.93-2.08,2.08-2.08h29.56
		c1.14,0,2.08,0.93,2.08,2.08v0.53C352.79,116.26,351.85,117.2,350.71,117.2z"/>
	<path class="st42" d="M340.57,120.1h-8.97c-0.71,0-1.29-0.58-1.29-1.29v-0.33c0-0.71,0.58-1.29,1.29-1.29h8.97
		c0.71,0,1.29,0.58,1.29,1.29v0.33C341.86,119.52,341.28,120.1,340.57,120.1z"/>
	<path class="st48" d="M323.78,112.61h24.17c6.89-6.71,11.5-18.55,11.5-30.06c0-17.42-10.56-27.48-23.59-27.48
		s-23.59,10.06-23.59,27.48C312.28,94.06,316.89,105.9,323.78,112.61z"/>
	<path class="st46" d="M327.57,112.61h16.62c4.74-6.71,7.91-18.55,7.91-30.06c0-17.42-7.26-27.48-16.22-27.48
		c-8.96,0-16.22,10.06-16.22,27.48C319.66,94.06,322.83,105.9,327.57,112.61z"/>
	<path class="st48" d="M332.09,112.61h7.58c2.16-6.71,3.61-18.55,3.61-30.06c0-17.42-3.31-27.48-7.4-27.48
		c-4.09,0-7.4,10.06-7.4,27.48C328.48,94.06,329.93,105.9,332.09,112.61z"/>
</g>
<g>
	<polygon class="st49" points="59.35,388.42 47.12,434.06 49.55,434.71 61.78,389.07 74.01,343.44 71.58,342.79 	"/>
	<polygon class="st49" points="91.68,388.21 104.17,434.79 106.11,434.27 93.63,387.69 81.15,341.1 79.2,341.62 	"/>
	<g>
		<line class="st50" x1="25.22" y1="382.05" x2="71.32" y2="341.12"/>
		<line class="st51" x1="25.22" y1="382.05" x2="71.32" y2="341.12"/>
	</g>
	<g>
		<line class="st52" x1="103.31" y1="402.75" x2="80.26" y2="343.48"/>
	</g>
	<path class="st53" d="M76.38,438.65H19.86c-1.32,0-2.38,1.01-2.38,2.25l0,0c0,1.24,1.07,2.25,2.38,2.25h56.53h56.53
		c1.32,0,2.38-1.01,2.38-2.25l0,0c0-1.24-1.07-2.25-2.38-2.25H76.38z"/>
	<g>
		<g>
			<path class="st48" d="M56.67,424.57c0.91,0.34,10.74,3.88,24.46,2.95c14.41-0.98,16.82-3.83,16.82-3.83l2.8-2.74
				c0.32-0.32,0.76-0.46,1.2-0.4l2.11,0.31c0.34,0.05,0.68-0.03,0.97-0.21l4.79-3.1c4.82-3.12,3.2-7.99,2.9-8.75
				c-0.03-0.08-0.05-0.16-0.07-0.24l-1.44-7.08c-1.27-6.24,0.67-5.91,1.22-5.71c0.12,0.04,0.24,0.07,0.37,0.08l6.33,0.43
				c1.39,0.09,2.1-1.7,1.07-2.67l-5.81-5.45c-0.34-0.32-0.51-0.78-0.48-1.25c0.09-1.39-1.48-2.18-2.46-1.23l-3.74,3.65
				c-1.68,1.64-2.87,4.93-2.69,7.32c0.13,1.84,0.1,3.7-0.64,4.58c-2.6,3.07-17.09,2.92-17.09,2.92s6.16-0.28-10.68,0.93
				s-16.85,1.21-16.85,1.21"/>
			<polyline class="st48" points="57.56,402.72 63,407.08 68.77,405.31 			"/>
			<g>
				<path class="st48" d="M77.65,405.75c-2.33,0.85-8.81,1.56-15.74-0.18c-6.38-1.61-11.2-4.91-13.33-6.71"/>
			</g>
			<path class="st48" d="M59.48,425.29c-0.96-0.1-11.35-1.36-23.51-8.53c-12.77-7.53-13.84-11.27-13.84-11.27l-1.47-3.81
				c-0.17-0.44-0.51-0.78-0.94-0.92l-2.05-0.69c-0.33-0.11-0.61-0.34-0.8-0.64l-3.15-5.06c-3.17-5.09,0.26-8.83,0.82-9.4
				c0.06-0.06,0.11-0.12,0.16-0.19l4.13-5.87c3.64-5.17,1.73-5.76,1.15-5.83c-0.13-0.01-0.25-0.05-0.37-0.1l-5.95-2.52
				c-1.3-0.55-1.25-2.53,0.08-2.95l7.47-2.35c0.43-0.14,0.78-0.48,0.94-0.93h0c0.47-1.32,2.22-1.32,2.73,0l1.96,5.08
				c0.88,2.28,0.66,5.86-0.45,7.99c-0.85,1.63-1.56,3.37-1.23,4.52c1.15,4.03,12.76,10.11,12.76,10.11s0.47,0,11.07,6.22
				c14.96,8.77,23.74,7.42,23.74,7.42"/>
		</g>
	</g>
	<polygon class="st49" points="104.62,387.23 126.88,434.15 123.9,435.57 101.64,388.64 79.37,341.71 82.36,340.3 	"/>
	<path class="st54" d="M63.85,421c18.34,1.96,35.63-0.81,35.48,0.36c-0.15,1.17-13.41,6.21-32.71,3.5
		c-18.76-2.63-35.73-11.37-33.12-11.19"/>
	<path class="st55" d="M32.51,390.28c0,0,18.56,10.08,32.46,13.17c12.7,2.82,37.16,0.47,37.16,0.47"/>
	<path class="st56" d="M105.19,402.75c-1.41,1.41-10.35,9.41-40.46,4.7c-26.95-4.21-38.57-20.7-39.04-22.58
		c-0.38-1.51,16.2,16.89,43.28,20.23C96.04,408.44,106.29,401.64,105.19,402.75z"/>
	<polygon class="st49" points="47.56,387.56 25.3,434.49 28.28,435.9 50.55,388.98 72.81,342.05 69.83,340.64 	"/>
	<g>
		<circle class="st57" cx="76.38" cy="336.33" r="8.1"/>
	</g>
	<circle class="st49" cx="76.57" cy="336.3" r="5.46"/>
	<g>
		<path class="st57" d="M76.61,310.9L76.61,310.9l0,9.11h0C81.24,318.74,81.24,312.17,76.61,310.9z"/>
	</g>
	<line class="st58" x1="76.5" y1="326.21" x2="76.5" y2="307.56"/>
	<circle class="st59" cx="76.59" cy="328.76" r="2.85"/>
	<g>
		<path class="st22" d="M23.27,438.49c-1.02,0-1.85-0.83-1.85-1.85c0-1.02,0.83-1.85,1.85-1.85h106.76c1.02,0,1.85,0.83,1.85,1.85
			c0,1.02-0.83,1.85-1.85,1.85H23.27z"/>
		<g>
			<path class="st22" d="M130.03,435.2c0.8,0,1.44,0.65,1.44,1.44s-0.65,1.44-1.44,1.44H76.65H23.27c-0.8,0-1.44-0.65-1.44-1.44
				s0.65-1.44,1.44-1.44h53.38H130.03 M130.03,434.39H76.65H23.27c-1.24,0-2.25,1.01-2.25,2.25c0,1.24,1.01,2.25,2.25,2.25h53.38
				h53.38c1.24,0,2.25-1.01,2.25-2.25C132.28,435.4,131.27,434.39,130.03,434.39L130.03,434.39z"/>
		</g>
	</g>
</g>
<g>
	<rect x="370.93" y="350.84" class="st60" width="3.11" height="26.85"/>
	<rect x="430.14" y="350.84" class="st60" width="3.11" height="26.85"/>
	<path class="st61" d="M366.34,383.42c0-1.69,1.25-3.07,2.8-3.07h65.83c1.55,0,2.8,1.37,2.8,3.07l0,0"/>
	<path class="st62" d="M435.65,380.35h-66.99v-0.29c0-1.48,1.2-2.69,2.69-2.69h61.62c1.48,0,2.69,1.2,2.69,2.69V380.35z"/>
	<g>
		<path class="st63" d="M393.63,375.2h-0.16c-0.41,0-0.75-0.33-0.75-0.75v-0.9c0-0.41,0.33-0.75,0.75-0.75h0.16
			c0.41,0,0.75,0.33,0.75,0.75v0.9C394.37,374.87,394.04,375.2,393.63,375.2z"/>
		<path class="st44" d="M387.85,369.25h3.45c1.36,0,2.46,1.21,2.46,2.71v3.81h-14.03l0,0c0-3.6,2.48-6.53,5.55-6.53H387.85"/>
		<path class="st64" d="M393.59,377.51H379.9c-0.43,0-0.78-0.35-0.78-0.78v-0.17c0-0.43,0.35-0.78,0.78-0.78h13.69
			c0.43,0,0.78,0.35,0.78,0.78v0.17C394.37,377.16,394.03,377.51,393.59,377.51z"/>
	</g>
	<path class="st22" d="M381.43,374.78L381.43,374.78c-0.44-0.12-0.71-0.62-0.6-1.11l0.13-0.56c0.11-0.49,0.56-0.78,1.01-0.66l0,0
		c0.44,0.12,0.71,0.62,0.6,1.11l-0.13,0.56C382.32,374.61,381.87,374.91,381.43,374.78z"/>
	<g>
		<path class="st65" d="M391.95,369.19c0,1.53-1.3,2.76-2.9,2.76c-1.6,0-2.9-1.24-2.9-2.76"/>
		<g>
			<path class="st64" d="M390.45,369.19c0,0.09-0.01,0.18-0.01,0.27c-0.01,0.12,0,0.05,0.03-0.21c-0.01,0.05-0.02,0.1-0.03,0.15
				c-0.02,0.07-0.04,0.15-0.06,0.22c-0.05,0.16-0.15,0.21,0.04-0.08c-0.08,0.12-0.14,0.37-0.26,0.45c0.05-0.06,0.1-0.12,0.14-0.18
				c-0.03,0.04-0.06,0.08-0.1,0.11c-0.05,0.06-0.1,0.11-0.16,0.16c-0.05,0.05-0.12,0.09-0.17,0.15c0.27-0.3,0.16-0.12,0.03-0.04
				c-0.08,0.05-0.15,0.09-0.23,0.13c-0.13,0.07-0.31,0.05,0.08-0.02c-0.16,0.03-0.32,0.11-0.49,0.14c-0.35,0.07,0.33-0.01,0.04,0
				c-0.08,0-0.16,0.01-0.25,0.01c-0.08,0-0.16-0.01-0.25-0.01c-0.29-0.02,0.35,0.07,0.08,0.01c-0.18-0.04-0.35-0.11-0.53-0.15
				c0.34,0.07,0.23,0.1,0.08,0.02c-0.07-0.03-0.13-0.07-0.2-0.11c-0.05-0.03-0.32-0.23-0.1-0.06c0.23,0.17-0.04-0.04-0.08-0.08
				c-0.05-0.05-0.11-0.11-0.16-0.16c-0.12-0.13-0.09-0.22,0.05,0.07c-0.06-0.13-0.25-0.3-0.26-0.45c0.03,0.07,0.06,0.15,0.09,0.22
				c-0.02-0.05-0.04-0.09-0.05-0.14c-0.02-0.07-0.04-0.14-0.06-0.22c-0.01-0.05-0.02-0.1-0.03-0.15c0.01,0.08,0.02,0.16,0.03,0.25
				c-0.03-0.09-0.02-0.22-0.02-0.31c-0.01-0.78-0.68-1.54-1.5-1.5c-0.8,0.04-1.51,0.66-1.5,1.5c0.03,2.37,2.04,4.26,4.4,4.26
				c2.36,0,4.36-1.89,4.4-4.26c0.01-0.78-0.7-1.54-1.5-1.5C391.13,367.73,390.46,368.35,390.45,369.19L390.45,369.19z"/>
		</g>
	</g>
	<polyline class="st64" points="388.82,371.96 388.82,352.29 389.52,352.29 389.52,371.96 	"/>
	<g>
		<path class="st63" d="M420.16,375.33H420c-0.41,0-0.75-0.33-0.75-0.75v-0.9c0-0.41,0.33-0.75,0.75-0.75h0.16
			c0.41,0,0.75,0.33,0.75,0.75v0.9C420.91,375,420.57,375.33,420.16,375.33z"/>
		<path class="st44" d="M414.39,369.38h3.45c1.36,0,2.46,1.21,2.46,2.71v3.81h-14.03v0c0-3.6,2.48-6.53,5.55-6.53H414.39"/>
		<path class="st64" d="M420.13,377.64h-13.69c-0.43,0-0.78-0.35-0.78-0.78v-0.17c0-0.43,0.35-0.78,0.78-0.78h13.69
			c0.43,0,0.78,0.35,0.78,0.78v0.17C420.91,377.29,420.56,377.64,420.13,377.64z"/>
	</g>
	<path class="st22" d="M407.96,374.91L407.96,374.91c-0.44-0.12-0.71-0.62-0.6-1.11l0.13-0.56c0.11-0.49,0.56-0.78,1.01-0.66l0,0
		c0.44,0.12,0.71,0.62,0.6,1.11l-0.13,0.56C408.85,374.74,408.4,375.04,407.96,374.91z"/>
	<g>
		<path class="st65" d="M418.48,369.32c0,1.53-1.3,2.76-2.9,2.76s-2.9-1.24-2.9-2.76"/>
		<g>
			<path class="st64" d="M416.98,369.32c0,0.09-0.01,0.18-0.01,0.27c-0.01,0.12,0,0.05,0.03-0.21c-0.01,0.05-0.02,0.1-0.03,0.15
				c-0.02,0.07-0.04,0.15-0.06,0.22c-0.05,0.16-0.15,0.21,0.04-0.08c-0.08,0.12-0.14,0.37-0.26,0.45c0.05-0.06,0.1-0.12,0.14-0.18
				c-0.03,0.04-0.06,0.08-0.1,0.11c-0.05,0.06-0.1,0.11-0.16,0.16c-0.05,0.05-0.12,0.09-0.17,0.15c0.27-0.3,0.16-0.12,0.03-0.04
				c-0.08,0.05-0.15,0.09-0.23,0.13c-0.13,0.07-0.31,0.05,0.08-0.02c-0.16,0.03-0.32,0.11-0.49,0.14c-0.35,0.07,0.33-0.01,0.04,0
				c-0.08,0-0.16,0.01-0.25,0.01c-0.08,0-0.16-0.01-0.25-0.01c-0.29-0.02,0.35,0.07,0.08,0.01c-0.18-0.04-0.35-0.11-0.53-0.15
				c0.34,0.07,0.23,0.1,0.08,0.02c-0.07-0.03-0.13-0.07-0.2-0.11c-0.05-0.03-0.32-0.23-0.1-0.06c0.23,0.17-0.04-0.04-0.08-0.08
				c-0.05-0.05-0.11-0.11-0.16-0.16c-0.12-0.13-0.09-0.23,0.05,0.07c-0.06-0.13-0.25-0.3-0.26-0.45c0.03,0.07,0.06,0.15,0.09,0.22
				c-0.02-0.05-0.04-0.09-0.05-0.14c-0.02-0.07-0.04-0.14-0.06-0.22c-0.01-0.05-0.02-0.1-0.03-0.15c0.01,0.08,0.02,0.16,0.03,0.25
				c-0.03-0.09-0.02-0.22-0.02-0.31c-0.01-0.78-0.68-1.54-1.5-1.5c-0.8,0.04-1.51,0.66-1.5,1.5c0.03,2.37,2.04,4.26,4.4,4.26
				s4.36-1.89,4.4-4.26c0.01-0.78-0.7-1.54-1.5-1.5C417.66,367.86,417,368.48,416.98,369.32L416.98,369.32z"/>
		</g>
	</g>
	<polyline class="st64" points="415.35,372.09 415.35,352.42 416.05,352.42 416.05,372.09 	"/>
	<path class="st62" d="M402.34,321.16c0,0-10.97,18.6-31.65,28.01h31.65h31.65C413.31,339.76,402.34,321.16,402.34,321.16z"/>
	<g>
		<path class="st22" d="M433.61,352.25h-62.69c-0.77,0-1.39-0.63-1.39-1.39v-0.3c0-0.77,0.63-1.39,1.39-1.39h62.69
			c0.77,0,1.39,0.63,1.39,1.39v0.3C435,351.62,434.37,352.25,433.61,352.25z"/>
		<path class="st22" d="M433.61,349.16h-62.69c-0.77,0-1.39,0.63-1.39,1.39v0.3c0,0.77,0.63,1.39,1.39,1.39h62.69
			c0.77,0,1.39-0.63,1.39-1.39v-0.3C435,349.79,434.37,349.16,433.61,349.16L433.61,349.16z"/>
	</g>
	<path class="st61" d="M404.15,328.61c0,0-1.06,11.83-9.78,17.81h9.78h16.36C411.79,340.45,404.15,328.61,404.15,328.61z"/>
	<g>
		<path class="st66" d="M433.49,351.49h-62.41c-0.71,0-1.31-0.47-1.49-1.12c-0.04,0.14-0.06,0.28-0.06,0.43
			c0,0.85,0.7,1.54,1.56,1.54h62.41c0.86,0,1.56-0.69,1.56-1.54c0-0.15-0.02-0.29-0.06-0.43
			C434.79,351.02,434.19,351.49,433.49,351.49z"/>
		<path class="st67" d="M434.98,350.37c-0.19,0.64-0.79,1.12-1.49,1.12h-62.41c-0.71,0-1.31-0.47-1.49-1.12
			c-0.04,0.14-0.06,0.28-0.06,0.43c0,0.85,0.7,1.54,1.56,1.54h62.41c0.86,0,1.56-0.69,1.56-1.54
			C435.04,350.65,435.02,350.51,434.98,350.37L434.98,350.37z"/>
	</g>
</g>
<g>
	<path class="st22" d="M450.67,75.57c-0.21,1.28-1.41,2.15-2.69,1.95c-1.28-0.21-2.15-1.41-1.95-2.69c0.21-1.28,1.41-2.15,2.69-1.95
		C450.01,73.08,450.88,74.29,450.67,75.57z"/>
</g>
<g>
	<path class="st22" d="M444.12,73.97c-0.6,1.15-2.01,1.6-3.17,1.01c-1.15-0.6-1.6-2.01-1.01-3.17c0.6-1.15,2.01-1.6,3.17-1.01
		S444.71,72.82,444.12,73.97z"/>
</g>
<g>
	<path class="st22" d="M438.07,70.84c-0.6,1.15-2.01,1.6-3.17,1.01c-1.15-0.6-1.6-2.01-1.01-3.17c0.6-1.15,2.01-1.6,3.17-1.01
		C438.21,68.27,438.67,69.69,438.07,70.84z"/>
</g>
<g>
	<path class="st22" d="M432.02,67.72c-0.6,1.15-2.01,1.6-3.17,1.01c-1.15-0.6-1.6-2.01-1.01-3.17c0.6-1.15,2.01-1.6,3.17-1.01
		C432.17,65.15,432.62,66.56,432.02,67.72z"/>
</g>
<g>
	<path class="st22" d="M425.97,64.59c-0.6,1.15-2.01,1.6-3.17,1.01c-1.15-0.6-1.6-2.01-1.01-3.17c0.6-1.15,2.01-1.6,3.17-1.01
		C426.12,62.02,426.57,63.44,425.97,64.59z"/>
</g>
<g>
	<path class="st22" d="M420.47,60.71c-0.92,0.92-2.41,0.92-3.32,0c-0.92-0.92-0.92-2.41,0-3.32c0.92-0.92,2.41-0.92,3.32,0
		C421.39,58.3,421.39,59.79,420.47,60.71z"/>
</g>
<g>
	<path class="st22" d="M415.66,55.89c-0.92,0.92-2.41,0.92-3.32,0c-0.92-0.92-0.92-2.4,0-3.32c0.92-0.92,2.41-0.92,3.32,0
		C416.58,53.49,416.58,54.97,415.66,55.89z"/>
</g>
<g>
	<path class="st22" d="M410.84,51.08c-0.92,0.92-2.41,0.92-3.32,0c-0.92-0.92-0.92-2.41,0-3.32c0.92-0.92,2.41-0.92,3.32,0
		C411.76,48.67,411.76,50.16,410.84,51.08z"/>
</g>
<g>
	<path class="st22" d="M405.79,46.47c-1.05,0.77-2.52,0.54-3.28-0.51c-0.77-1.05-0.54-2.52,0.51-3.28c1.05-0.77,2.52-0.54,3.28,0.51
		C407.07,44.23,406.84,45.7,405.79,46.47z"/>
</g>
<g>
	<path class="st22" d="M402.36,40.61c-1.15,0.6-2.57,0.15-3.17-1.01c-0.6-1.15-0.14-2.57,1.01-3.17c1.15-0.6,2.57-0.15,3.17,1.01
		C403.96,38.59,403.51,40.01,402.36,40.61z"/>
</g>
<g>
	<path class="st22" d="M374.67,39.82c1.15,0.6,1.6,2.01,1.01,3.17c-0.6,1.15-2.01,1.6-3.17,1.01c-1.15-0.6-1.6-2.01-1.01-3.17
		C372.1,39.67,373.52,39.22,374.67,39.82z"/>
</g>
<g>
	<path class="st22" d="M371.22,45.63c0.92,0.92,0.92,2.4,0,3.32c-0.92,0.92-2.4,0.92-3.32,0s-0.92-2.4,0-3.32
		C368.82,44.71,370.3,44.71,371.22,45.63z"/>
</g>
<g>
	<path class="st22" d="M366.41,50.45c0.92,0.92,0.92,2.41,0,3.32c-0.92,0.92-2.4,0.92-3.32,0c-0.92-0.92-0.92-2.41,0-3.32
		C364,49.53,365.49,49.53,366.41,50.45z"/>
</g>
<g>
	<path class="st22" d="M361.59,55.26c0.92,0.92,0.92,2.41,0,3.32c-0.92,0.92-2.4,0.92-3.32,0c-0.92-0.92-0.92-2.41,0-3.32
		C359.19,54.35,360.67,54.35,361.59,55.26z"/>
</g>
<g>
	<path class="st22" d="M306.66,78.97c0,1.3-1.05,2.35-2.35,2.35c-1.3,0-2.35-1.05-2.35-2.35c0-1.3,1.05-2.35,2.35-2.35
		C305.61,76.62,306.66,77.68,306.66,78.97z"/>
</g>
<g>
	<path class="st22" d="M299.93,78.29c-0.21,1.28-1.41,2.15-2.69,1.95c-1.28-0.21-2.15-1.41-1.95-2.69c0.21-1.28,1.41-2.15,2.69-1.95
		C299.27,75.8,300.14,77.01,299.93,78.29z"/>
</g>
<g>
	<path class="st22" d="M293.21,77.21c-0.21,1.28-1.41,2.15-2.69,1.95c-1.28-0.21-2.15-1.41-1.95-2.69c0.21-1.28,1.41-2.15,2.69-1.95
		C292.55,74.72,293.42,75.93,293.21,77.21z"/>
</g>
<g>
	<path class="st22" d="M286.49,76.12c-0.21,1.28-1.41,2.15-2.69,1.95c-1.28-0.21-2.15-1.41-1.95-2.69c0.21-1.28,1.41-2.15,2.69-1.95
		C285.82,73.64,286.69,74.84,286.49,76.12z"/>
</g>
<g>
	<path class="st22" d="M208.65,36.72c1.15,0.6,1.6,2.01,1.01,3.17c-0.6,1.15-2.01,1.6-3.17,1.01c-1.15-0.6-1.6-2.01-1.01-3.17
		C206.08,36.58,207.49,36.13,208.65,36.72z"/>
</g>
<g>
	<path class="st22" d="M205.79,42.93c1.05,0.77,1.28,2.24,0.51,3.28c-0.77,1.05-2.24,1.28-3.28,0.51c-1.05-0.77-1.28-2.24-0.51-3.28
		C203.27,42.4,204.74,42.17,205.79,42.93z"/>
</g>
<g>
	<path class="st22" d="M201.24,47.99c0.92,0.92,0.92,2.4,0,3.32c-0.92,0.92-2.4,0.92-3.32,0c-0.92-0.92-0.92-2.4,0-3.32
		C198.84,47.07,200.33,47.07,201.24,47.99z"/>
</g>
<g>
	<path class="st22" d="M196.43,52.8c0.92,0.92,0.92,2.41,0,3.32c-0.92,0.92-2.4,0.92-3.32,0c-0.92-0.92-0.92-2.4,0-3.32
		C194.02,51.88,195.51,51.88,196.43,52.8z"/>
</g>
<g>
	<path class="st22" d="M191.61,57.62c0.92,0.92,0.92,2.4,0,3.32c-0.92,0.92-2.4,0.92-3.32,0c-0.92-0.92-0.92-2.4,0-3.32
		C189.21,56.7,190.7,56.7,191.61,57.62z"/>
</g>
<g>
	<path class="st22" d="M186.91,62.58c0.6,1.15,0.15,2.57-1.01,3.17c-1.15,0.6-2.57,0.15-3.17-1.01c-0.6-1.15-0.14-2.57,1.01-3.17
		C184.89,60.98,186.31,61.43,186.91,62.58z"/>
</g>
<g>
	<path class="st22" d="M135.75,78.85c-0.21,1.28-1.41,2.15-2.69,1.95c-1.28-0.21-2.15-1.41-1.95-2.69c0.21-1.28,1.41-2.15,2.69-1.95
		C135.08,76.36,135.95,77.57,135.75,78.85z"/>
</g>
<g>
	<path class="st22" d="M129.02,77.76c-0.21,1.28-1.41,2.15-2.69,1.95c-1.28-0.21-2.15-1.41-1.95-2.69c0.21-1.28,1.41-2.15,2.69-1.95
		C128.36,75.28,129.23,76.48,129.02,77.76z"/>
</g>
<g>
	<path class="st22" d="M122.3,76.68c-0.21,1.28-1.41,2.15-2.69,1.95c-1.28-0.21-2.15-1.41-1.95-2.69c0.21-1.28,1.41-2.15,2.69-1.95
		C121.64,74.19,122.51,75.4,122.3,76.68z"/>
</g>
<g>
	<path class="st22" d="M115.58,75.59c-0.21,1.28-1.41,2.15-2.69,1.95c-1.28-0.21-2.15-1.41-1.95-2.69c0.21-1.28,1.41-2.15,2.69-1.95
		C114.91,73.11,115.78,74.31,115.58,75.59z"/>
</g>
<g>
	<path class="st22" d="M109.01,74.05c-0.6,1.15-2.01,1.6-3.17,1.01c-1.15-0.6-1.6-2.01-1.01-3.17c0.6-1.15,2.01-1.6,3.17-1.01
		C109.15,71.48,109.6,72.89,109.01,74.05z"/>
</g>
<g>
	<path class="st22" d="M102.96,70.92c-0.6,1.15-2.01,1.6-3.17,1.01c-1.15-0.6-1.6-2.01-1.01-3.17c0.6-1.15,2.01-1.6,3.17-1.01
		C103.1,68.35,103.55,69.77,102.96,70.92z"/>
</g>
<g>
	<path class="st22" d="M90.86,64.66c-0.6,1.15-2.01,1.6-3.17,1.01c-1.15-0.6-1.6-2.01-1.01-3.17c0.6-1.15,2.01-1.6,3.17-1.01
		C91.01,62.09,91.46,63.51,90.86,64.66z"/>
</g>
<g>
	<path class="st22" d="M80.52,58.04c-0.92,0.92-2.41,0.92-3.32,0c-0.92-0.92-0.92-2.4,0-3.32c0.92-0.92,2.4-0.92,3.32,0
		C81.44,55.63,81.44,57.12,80.52,58.04z"/>
</g>
<g>
	<path class="st22" d="M75.7,53.54c-0.92,0.92-2.41,0.92-3.32,0c-0.92-0.92-0.92-2.4,0-3.32c0.92-0.92,2.4-0.92,3.32,0
		C76.62,51.13,76.62,52.62,75.7,53.54z"/>
</g>
<g>
	<path class="st22" d="M70.61,48.96c-1.05,0.77-2.52,0.54-3.28-0.51c-0.77-1.05-0.54-2.52,0.51-3.28c1.05-0.77,2.52-0.54,3.28,0.51
		C71.89,46.72,71.66,48.19,70.61,48.96z"/>
</g>
<g>
	<path class="st22" d="M67.18,43.1c-1.15,0.6-2.57,0.15-3.17-1.01c-0.6-1.15-0.14-2.57,1.01-3.17c1.15-0.6,2.57-0.14,3.17,1.01
		C68.78,41.09,68.33,42.5,67.18,43.1z"/>
</g>
<g>
	<path class="st22" d="M39.49,38.93c1.15,0.6,1.6,2.01,1.01,3.17c-0.6,1.15-2.01,1.6-3.17,1.01c-1.15-0.6-1.6-2.01-1.01-3.17
		C36.92,38.78,38.34,38.33,39.49,38.93z"/>
</g>
<g>
	<path class="st22" d="M36.08,45.52c0.92,0.92,0.92,2.41,0,3.32c-0.92,0.92-2.41,0.92-3.32,0c-0.92-0.92-0.92-2.4,0-3.32
		C33.68,44.6,35.16,44.6,36.08,45.52z"/>
</g>
<g>
	<path class="st22" d="M31.27,50.33c0.92,0.92,0.92,2.4,0,3.32c-0.92,0.92-2.41,0.92-3.32,0c-0.92-0.92-0.92-2.4,0-3.32
		C28.86,49.42,30.35,49.42,31.27,50.33z"/>
</g>
<g>
	<path class="st22" d="M26.45,55.15c0.92,0.92,0.92,2.41,0,3.32c-0.92,0.92-2.41,0.92-3.32,0c-0.92-0.92-0.92-2.4,0-3.32
		C24.05,54.23,25.53,54.23,26.45,55.15z"/>
</g>
<g>
	<path class="st22" d="M21.63,59.96c0.92,0.92,0.92,2.4,0,3.32c-0.92,0.92-2.4,0.92-3.32,0c-0.92-0.92-0.92-2.4,0-3.32
		C19.23,59.05,20.72,59.05,21.63,59.96z"/>
</g>
<g>
	<path class="st22" d="M16.33,64.11c0.6,1.15,0.15,2.57-1.01,3.17c-1.15,0.6-2.57,0.14-3.17-1.01c-0.6-1.15-0.15-2.57,1.01-3.17
		C14.31,62.5,15.73,62.95,16.33,64.11z"/>
</g>
<g>
	<path class="st22" d="M10.28,67.23c0.6,1.15,0.14,2.57-1.01,3.17C8.12,71,6.7,70.54,6.1,69.39c-0.6-1.15-0.15-2.57,1.01-3.17
		C8.26,65.63,9.68,66.08,10.28,67.23z"/>
</g>
<g>
	<path class="st22" d="M4.23,70.36c0.6,1.15,0.15,2.57-1.01,3.17c-1.15,0.6-2.57,0.14-3.17-1.01c-0.6-1.15-0.15-2.57,1.01-3.17
		C2.22,68.76,3.63,69.21,4.23,70.36z"/>
</g>
<g>
	<path class="st22" d="M-1.82,73.49c0.6,1.15,0.15,2.57-1.01,3.17c-1.15,0.6-2.57,0.14-3.17-1.01c-0.6-1.15-0.15-2.57,1.01-3.17
		C-3.83,71.89-2.42,72.34-1.82,73.49z"/>
</g>
<g>
	<path class="st23" d="M450.09,613.38h-1.81v-3.12h1.81c0.38,0,0.76-0.02,1.13-0.06l0.35,3.1
		C451.08,613.35,450.58,613.38,450.09,613.38z M443.08,613.38h-3.12v-3.12h3.12V613.38z M434.76,613.38h-3.12v-3.12h3.12V613.38z
		 M426.44,613.38h-3.12v-3.12h3.12V613.38z M418.13,613.38h-3.12v-3.12h3.12V613.38z M409.81,613.38h-3.12v-3.12h3.12V613.38z
		 M401.49,613.38h-3.12v-3.12h3.12V613.38z M393.17,613.38h-3.12v-3.12h3.12V613.38z M384.85,613.38h-3.12v-3.12h3.12V613.38z
		 M376.53,613.38h-3.12v-3.12h3.12V613.38z M368.21,613.38h-3.12v-3.12h3.12V613.38z M359.89,613.38h-3.12v-3.12h3.12V613.38z
		 M351.57,613.38h-3.12v-3.12h3.12V613.38z M343.25,613.38h-3.12v-3.12h3.12V613.38z M334.93,613.38h-3.12v-3.12h3.12V613.38z
		 M326.62,613.38h-3.12v-3.12h3.12V613.38z M318.3,613.38h-3.12v-3.12h3.12V613.38z M309.98,613.38h-3.12v-3.12h3.12V613.38z
		 M301.66,613.38h-3.12v-3.12h3.12V613.38z M293.34,613.38h-3.12v-3.12h3.12V613.38z M285.02,613.38h-3.12v-3.12h3.12V613.38z
		 M276.7,613.38h-3.12v-3.12h3.12V613.38z M268.38,613.38h-3.12v-3.12h3.12V613.38z M260.06,613.38h-3.12v-3.12h3.12V613.38z
		 M251.74,613.38h-3.12v-3.12h3.12V613.38z M243.42,613.38h-3.12v-3.12h3.12V613.38z M235.1,613.38h-3.12v-3.12h3.12V613.38z
		 M226.79,613.38h-3.12v-3.12h3.12V613.38z M218.47,613.38h-3.12v-3.12h3.12V613.38z M210.15,613.38h-3.12v-3.12h3.12V613.38z
		 M201.83,613.38h-3.12v-3.12h3.12V613.38z M193.51,613.38h-3.12v-3.12h3.12V613.38z M185.19,613.38h-3.12v-3.12h3.12V613.38z
		 M176.87,613.38h-3.12v-3.12h3.12V613.38z M168.55,613.38h-3.12v-3.12h3.12V613.38z M160.23,613.38h-3.12v-3.12h3.12V613.38z
		 M151.91,613.38h-3.12v-3.12h3.12V613.38z M143.59,613.38h-3.12v-3.12h3.12V613.38z M135.27,613.38h-3.12v-3.12h3.12V613.38z
		 M126.96,613.38h-3.12v-3.12h3.12V613.38z M118.64,613.38h-3.12v-3.12h3.12V613.38z M110.32,613.38h-3.12v-3.12h3.12V613.38z
		 M102,613.38h-3.12v-3.12H102V613.38z M93.68,613.38h-3.12v-3.12h3.12V613.38z M85.36,613.38h-3.12v-3.12h3.12V613.38z
		 M77.04,613.38h-3.12v-3.12h3.12V613.38z M68.72,613.38H65.6v-3.12h3.12V613.38z M60.4,613.38h-3.12v-3.12h3.12V613.38z
		 M52.08,613.38h-3.12v-3.12h3.12V613.38z M43.76,613.38h-3.12v-3.12h3.12V613.38z M35.44,613.38h-3.12v-3.12h3.12V613.38z
		 M27.13,613.38h-3.12v-3.12h3.12V613.38z M18.5,613.09c-1.16-0.25-2.27-0.65-3.32-1.21l1.45-2.76c0.8,0.42,1.65,0.73,2.52,0.92
		L18.5,613.09z M457.1,611.33l-1.68-2.62c0.76-0.49,1.44-1.07,2.04-1.75l2.32,2.08C458.99,609.92,458.09,610.69,457.1,611.33z
		 M10.74,608.06c-0.7-0.96-1.26-2-1.68-3.11l2.92-1.09c0.31,0.84,0.74,1.64,1.28,2.36L10.74,608.06z M462.59,603.9l-3-0.84
		c0.24-0.86,0.36-1.76,0.36-2.66l3.12-0.05v0.05C463.07,601.59,462.91,602.76,462.59,603.9z M11.36,599.29H8.24v-3.12h3.12V599.29z
		 M463.07,595.15h-3.12v-3.12h3.12V595.15z M11.36,590.97H8.24v-3.12h3.12V590.97z M463.07,586.83h-3.12v-3.12h3.12V586.83z
		 M11.36,582.65H8.24v-3.12h3.12V582.65z M463.07,578.51h-3.12v-3.12h3.12V578.51z M11.36,574.33H8.24v-3.12h3.12V574.33z
		 M463.07,570.19h-3.12v-3.12h3.12V570.19z M11.36,566.01H8.24v-3.12h3.12V566.01z M463.07,561.87h-3.12v-3.12h3.12V561.87z
		 M11.36,557.69H8.24v-3.12h3.12V557.69z M463.07,553.56h-3.12v-3.12h3.12V553.56z M11.36,549.38H8.24v-3.12h3.12V549.38z
		 M463.07,545.24h-3.12v-3.12h3.12V545.24z M11.36,541.06H8.24v-3.12h3.12V541.06z M463.07,536.92h-3.12v-3.12h3.12V536.92z
		 M11.36,532.74H8.24v-3.12h3.12V532.74z M463.07,528.6h-3.12v-3.12h3.12V528.6z M11.36,524.42H8.24v-3.12h3.12V524.42z
		 M463.07,520.28h-3.12v-3.12h3.12V520.28z M11.36,516.1H8.24v-3.12h3.12V516.1z M463.07,511.96h-3.12v-3.12h3.12V511.96z
		 M11.36,507.78H8.24v-3.12h3.12V507.78z M463.07,503.64h-3.12v-3.12h3.12V503.64z M11.36,499.46H8.24v-3.12h3.12V499.46z
		 M463.07,495.32h-3.12v-3.12h3.12V495.32z M11.36,491.14H8.24v-3.12h3.12V491.14z M463.07,487h-3.12v-3.12h3.12V487z M11.36,482.82
		H8.24v-3.12h3.12V482.82z M463.07,478.68h-3.12v-3.12h3.12V478.68z M11.36,474.5H8.24v-3.12h3.12V474.5z M463.07,470.36h-3.12
		v-3.12h3.12V470.36z M11.36,466.18H8.24v-3.12h3.12V466.18z M463.07,462.04h-3.12v-3.12h3.12V462.04z M11.36,457.87H8.24v-3.12
		h3.12V457.87z M463.07,453.73h-3.12v-3.12h3.12V453.73z M11.36,449.55H8.24v-3.12h3.12V449.55z M463.07,445.41h-3.12v-3.12h3.12
		V445.41z M11.36,441.23H8.24v-3.12h3.12V441.23z M463.07,437.09h-3.12v-3.12h3.12V437.09z M11.36,432.91H8.24v-3.12h3.12V432.91z
		 M463.07,428.77h-3.12v-3.12h3.12V428.77z M11.36,424.59H8.24v-3.12h3.12V424.59z M463.07,420.45h-3.12v-3.12h3.12V420.45z
		 M11.36,416.27H8.24v-3.12h3.12V416.27z M463.07,412.13h-3.12v-3.12h3.12V412.13z M11.36,407.95H8.24v-3.12h3.12V407.95z
		 M463.07,403.81h-3.12v-3.12h3.12V403.81z M11.36,399.63H8.24v-3.12h3.12V399.63z M463.07,395.49h-3.12v-3.12h3.12V395.49z
		 M11.36,391.31H8.24v-3.12h3.12V391.31z M463.07,387.17h-3.12v-3.12h3.12V387.17z M11.36,382.99H8.24v-3.12h3.12V382.99z
		 M463.07,378.85h-3.12v-3.12h3.12V378.85z M11.36,374.67H8.24v-3.12h3.12V374.67z M463.07,370.53h-3.12v-3.12h3.12V370.53z
		 M11.36,366.35H8.24v-3.12h3.12V366.35z M463.07,362.22h-3.12v-3.12h3.12V362.22z M11.36,358.03H8.24v-3.12h3.12V358.03z
		 M463.07,353.9h-3.12v-3.12h3.12V353.9z M11.36,349.72H8.24v-3.12h3.12V349.72z M463.07,345.58h-3.12v-3.12h3.12V345.58z
		 M11.36,341.4H8.24v-3.12h3.12V341.4z M463.07,337.26h-3.12v-3.12h3.12V337.26z M11.36,333.08H8.24v-3.12h3.12V333.08z
		 M463.07,328.94h-3.12v-3.12h3.12V328.94z M11.36,324.76H8.24v-3.12h3.12V324.76z M463.07,320.62h-3.12v-3.12h3.12V320.62z
		 M11.36,316.44H8.24v-3.12h3.12V316.44z M463.07,312.3h-3.12v-3.12h3.12V312.3z M11.36,308.12H8.24V305h3.12V308.12z
		 M463.07,303.98h-3.12v-3.12h3.12V303.98z M11.36,299.8H8.24v-3.12h3.12V299.8z M463.07,295.66h-3.12v-3.12h3.12V295.66z
		 M11.36,291.48H8.24v-3.12h3.12V291.48z M463.07,287.34h-3.12v-3.12h3.12V287.34z M11.36,283.16H8.24v-3.12h3.12V283.16z
		 M463.07,279.02h-3.12v-3.12h3.12V279.02z M11.36,274.84H8.24v-3.12h3.12V274.84z M463.07,270.7h-3.12v-3.12h3.12V270.7z
		 M11.36,266.52H8.24v-3.12h3.12V266.52z M463.07,262.39h-3.12v-3.12h3.12V262.39z M11.36,258.2H8.24v-3.12h3.12V258.2z
		 M463.07,254.07h-3.12v-3.12h3.12V254.07z M11.36,249.89H8.24v-3.12h3.12V249.89z M463.07,245.75h-3.12v-3.12h3.12V245.75z
		 M11.36,241.57H8.24v-3.12h3.12V241.57z M463.07,237.43h-3.12v-3.12h3.12V237.43z M11.36,233.25H8.24v-3.12h3.12V233.25z
		 M463.07,229.11h-3.12v-3.12h3.12V229.11z M11.36,224.93H8.24v-3.12h3.12V224.93z M463.07,220.79h-3.12v-3.12h3.12V220.79z
		 M11.36,216.61H8.24v-3.12h3.12V216.61z M463.07,212.47h-3.12v-3.12h3.12V212.47z M11.36,208.29H8.24v-3.12h3.12V208.29z
		 M463.07,204.15h-3.12v-3.12h3.12V204.15z M11.36,199.97H8.24v-3.12h3.12V199.97z M463.07,195.83h-3.12v-3.12h3.12V195.83z
		 M11.36,191.65H8.24v-3.12h3.12V191.65z M463.07,187.51h-3.12v-3.12h3.12V187.51z M11.36,183.33H8.24v-3.12h3.12V183.33z
		 M463.07,179.19h-3.12v-3.12h3.12V179.19z M11.36,175.01H8.24v-3.12h3.12V175.01z M463.07,170.87h-3.12v-3.12h3.12V170.87z
		 M11.36,166.69H8.24v-3.12h3.12V166.69z M463.07,162.55h-3.12v-3.12h3.12V162.55z M11.36,158.38H8.24v-3.12h3.12V158.38z
		 M463.07,154.24h-3.12v-3.12h3.12V154.24z M11.36,150.06H8.24v-3.12h3.12V150.06z M463.07,145.92h-3.12v-3.12h3.12V145.92z
		 M11.36,141.74H8.24v-3.12h3.12V141.74z M463.07,137.6h-3.12v-3.12h3.12V137.6z M11.36,133.42H8.24v-3.12h3.12V133.42z
		 M463.07,129.28h-3.12v-3.12h3.12V129.28z M11.36,125.1H8.24v-3.12h3.12V125.1z M463.07,120.96h-3.12v-3.12h3.12V120.96z
		 M11.36,116.78H8.24v-3.12h3.12V116.78z M463.07,112.64h-3.12v-3.12h3.12V112.64z M11.36,108.46H8.24v-3.12h3.12V108.46z
		 M463.07,104.32h-3.12v-3.12h3.12V104.32z M11.36,100.14H8.24v-3.12h3.12V100.14z M463.07,96h-3.12v-3.12h3.12V96z M11.36,91.82
		H8.24V88.7h3.12V91.82z M463.07,87.68h-3.12v-3.12h3.12V87.68z M11.36,83.5H8.24v-3.12h3.12V83.5z M463.07,79.36h-3.12v-3.12h3.12
		V79.36z M11.36,75.18H8.24v-3.12h3.12V75.18z M463.07,71.04h-3.12v-3.12h3.12V71.04z M11.36,66.86H8.24v-3.12h3.12V66.86z
		 M463.07,62.72h-3.12v-3.12h3.12V62.72z M11.36,58.55H8.24v-3.12h3.12V58.55z M463.07,54.41h-3.12v-3.12h3.12V54.41z M11.36,50.23
		H8.24v-3.12h3.12V50.23z M463.07,46.09h-3.12v-3.12h3.12V46.09z M11.36,41.91H8.24v-3.12h3.12V41.91z M463.07,37.77h-3.12v-3.12
		h3.12V37.77z M11.36,33.59H8.24v-3.12h3.12V33.59z M463.07,29.45h-3.12v-3.12h3.12V29.45z M11.36,25.27H8.24v-3.12h3.12V25.27z
		 M463.07,21.13h-3.12v-3.12h3.12V21.13z M8.24,16.95v-0.02c0-1.18,0.16-2.35,0.47-3.47l3,0.83c-0.24,0.86-0.36,1.74-0.36,2.64
		L8.24,16.95z M459.33,13.45c-0.32-0.84-0.75-1.63-1.28-2.36l2.51-1.84c0.7,0.95,1.27,2,1.68,3.11L459.33,13.45z M13.85,10.38
		l-2.33-2.07c0.79-0.89,1.69-1.66,2.68-2.3l1.69,2.62C15.13,9.12,14.45,9.7,13.85,10.38z M454.67,8.18
		c-0.8-0.42-1.65-0.72-2.52-0.91l0.65-3.05c1.16,0.25,2.28,0.65,3.33,1.2L454.67,8.18z M20.07,7.13l-0.36-3.1
		c0.5-0.06,1.01-0.09,1.51-0.09h1.78v3.12h-1.78C20.84,7.06,20.45,7.08,20.07,7.13z M447.29,7.06h-3.12V3.94h3.12V7.06z
		 M438.97,7.06h-3.12V3.94h3.12V7.06z M430.65,7.06h-3.12V3.94h3.12V7.06z M422.33,7.06h-3.12V3.94h3.12V7.06z M414.01,7.06h-3.12
		V3.94h3.12V7.06z M405.69,7.06h-3.12V3.94h3.12V7.06z M397.37,7.06h-3.12V3.94h3.12V7.06z M389.05,7.06h-3.12V3.94h3.12V7.06z
		 M380.73,7.06h-3.12V3.94h3.12V7.06z M372.41,7.06h-3.12V3.94h3.12V7.06z M364.1,7.06h-3.12V3.94h3.12V7.06z M355.78,7.06h-3.12
		V3.94h3.12V7.06z M347.46,7.06h-3.12V3.94h3.12V7.06z M339.14,7.06h-3.12V3.94h3.12V7.06z M330.82,7.06h-3.12V3.94h3.12V7.06z
		 M322.5,7.06h-3.12V3.94h3.12V7.06z M314.18,7.06h-3.12V3.94h3.12V7.06z M305.86,7.06h-3.12V3.94h3.12V7.06z M297.54,7.06h-3.12
		V3.94h3.12V7.06z M289.22,7.06h-3.12V3.94h3.12V7.06z M280.9,7.06h-3.12V3.94h3.12V7.06z M272.58,7.06h-3.12V3.94h3.12V7.06z
		 M264.26,7.06h-3.12V3.94h3.12V7.06z M255.95,7.06h-3.12V3.94h3.12V7.06z M247.63,7.06h-3.12V3.94h3.12V7.06z M239.31,7.06h-3.12
		V3.94h3.12V7.06z M230.99,7.06h-3.12V3.94h3.12V7.06z M222.67,7.06h-3.12V3.94h3.12V7.06z M214.35,7.06h-3.12V3.94h3.12V7.06z
		 M206.03,7.06h-3.12V3.94h3.12V7.06z M197.71,7.06h-3.12V3.94h3.12V7.06z M189.39,7.06h-3.12V3.94h3.12V7.06z M181.07,7.06h-3.12
		V3.94h3.12V7.06z M172.75,7.06h-3.12V3.94h3.12V7.06z M164.44,7.06h-3.12V3.94h3.12V7.06z M156.12,7.06H153V3.94h3.12V7.06z
		 M147.8,7.06h-3.12V3.94h3.12V7.06z M139.48,7.06h-3.12V3.94h3.12V7.06z M131.16,7.06h-3.12V3.94h3.12V7.06z M122.84,7.06h-3.12
		V3.94h3.12V7.06z M114.52,7.06h-3.12V3.94h3.12V7.06z M106.2,7.06h-3.12V3.94h3.12V7.06z M97.88,7.06h-3.12V3.94h3.12V7.06z
		 M89.56,7.06h-3.12V3.94h3.12V7.06z M81.24,7.06h-3.12V3.94h3.12V7.06z M72.92,7.06H69.8V3.94h3.12V7.06z M64.6,7.06h-3.12V3.94
		h3.12V7.06z M56.29,7.06h-3.12V3.94h3.12V7.06z M47.97,7.06h-3.12V3.94h3.12V7.06z M39.65,7.06h-3.12V3.94h3.12V7.06z M31.33,7.06
		h-3.12V3.94h3.12V7.06z"/>
</g>
<linearGradient id="SVGID_9_" gradientUnits="userSpaceOnUse" x1="313.8613" y1="168.1411" x2="313.5575" y2="155.3903">
	<stop  offset="0" style="stop-color:#FFFFFF"/>
	<stop  offset="1" style="stop-color:#C7F2FF"/>
</linearGradient>
<path class="st68" d="M298.1,161.88c-0.52-0.34-1.15-0.5-1.76-0.53c-1.23-0.05-2.52,0.44-3.21,1.42c-0.17,0.24-0.3,0.51-0.37,0.79
	c-0.08,0.29-0.14,0.6-0.18,0.9c-0.08,0.6-0.07,1.23,0.17,1.71c0.23,0.48,0.73,0.74,1.3,0.82c0.29,0.04,0.57,0.04,0.89,0.02
	l0.96-0.02c5.11-0.1,10.22-0.13,15.32-0.15c5.11,0,10.22,0.01,15.32,0.06l3.83,0.04l1.91,0.02l0.23,0c0.08,0,0.16,0,0.23-0.01
	c0.14-0.01,0.3-0.03,0.44-0.06c0.29-0.06,0.57-0.16,0.82-0.3c0.51-0.28,0.9-0.77,0.99-1.35c0.1-0.58-0.11-1.19-0.53-1.63
	c-0.4-0.45-1.02-0.71-1.64-0.6c-0.6,0.1-1.21,0.45-1.5,1.03c0.25-0.6,0.84-1.01,1.47-1.17c0.06-0.01,0.12-0.02,0.18-0.03l-0.09-0.02
	c0.25-0.92,0.24-1.87-0.12-2.75c-0.35-0.87-1.02-1.62-1.86-2.12c-0.83-0.5-1.83-0.76-2.82-0.69c-0.99,0.06-1.97,0.49-2.7,1.2
	c0.18-0.21,0.39-0.4,0.61-0.57c-0.08-0.54-0.26-1.06-0.57-1.5c-0.31-0.45-0.74-0.8-1.21-1.06c-0.96-0.51-2.07-0.63-3.13-0.5
	c-1.05,0.14-2.08,0.55-2.84,1.24c-0.67,0.6-1.05,1.42-1.09,2.27c0.09,0,0.17-0.01,0.26-0.01c1.18,0.03,2.41,0.4,3.28,1.28
	c0.43,0.43,0.73,0.99,0.84,1.58c0.11,0.59,0.05,1.18-0.12,1.72c0.02-0.57-0.03-1.12-0.21-1.62c-0.18-0.5-0.49-0.93-0.89-1.26
	c-0.79-0.66-1.87-0.95-2.92-0.97c-1.05-0.02-2.13,0.22-3,0.8c-0.42,0.3-0.79,0.68-1.01,1.17c-0.23,0.48-0.3,1.03-0.28,1.6
	c-0.18-0.54-0.21-1.14-0.05-1.72c0.16-0.58,0.53-1.1,1-1.48c0.04-0.04,0.1-0.07,0.15-0.11c-0.2-0.66-0.67-1.23-1.26-1.68
	c-0.64-0.48-1.4-0.83-2.19-1.07c-1.59-0.48-3.32-0.57-4.99-0.32c-1.66,0.25-3.31,0.88-4.6,1.99c-0.64,0.56-1.17,1.24-1.56,2
	c-0.37,0.73-0.58,1.54-0.68,2.36c0,0.03-0.01,0.05-0.01,0.08c0.11,0.22,0.21,0.45,0.25,0.69
	C299.03,162.75,298.63,162.22,298.1,161.88z"/>
<g>
	<linearGradient id="SVGID_10_" gradientUnits="userSpaceOnUse" x1="390.844" y1="177.5079" x2="390.844" y2="177.4908">
		<stop  offset="0" style="stop-color:#FFFFFF"/>
		<stop  offset="1" style="stop-color:#C7F2FF"/>
	</linearGradient>
	<path class="st69" d="M390.84,177.5L390.84,177.5C390.86,177.52,390.85,177.5,390.84,177.5L390.84,177.5z"/>
	<linearGradient id="SVGID_11_" gradientUnits="userSpaceOnUse" x1="401.2779" y1="178.1072" x2="401.2779" y2="169.1658">
		<stop  offset="0" style="stop-color:#FFFFFF"/>
		<stop  offset="1" style="stop-color:#C7F2FF"/>
	</linearGradient>
	<path class="st70" d="M393.48,174.17c0.38,0.21,0.67,0.56,0.84,0.94c-0.44-0.73-1.31-1.04-2.07-0.87c-0.77,0.15-1.47,0.64-1.8,1.29
		c-0.35,0.65-0.16,1.39,0.34,1.92l0.03,0.04c-0.01-0.01,0.02,0,0.04,0.01c0.07,0.02,0.16,0.04,0.25,0.05
		c0.19,0.03,0.39,0.05,0.59,0.07c0.4,0.04,0.81,0.06,1.22,0.07c1.64,0.05,3.3,0.08,4.96,0.08l4.97,0.02l4.98,0.03l2.49,0.03
		l0.63,0.01c0.23,0.01,0.37,0,0.49-0.03c0.28-0.06,0.5-0.22,0.64-0.49c0.3-0.55,0.22-1.36-0.11-1.99c-0.17-0.32-0.41-0.6-0.7-0.81
		c-0.15-0.11-0.29-0.18-0.49-0.27c-0.17-0.08-0.36-0.15-0.54-0.21c-1.48-0.5-3.3-0.35-4.56,0.76c0.52-0.66,1.31-1.08,2.14-1.29
		c0.18-0.04,0.36-0.07,0.54-0.1c-1.71-4.44-13.45-5.39-15.21,0.62C393.27,174.07,393.38,174.11,393.48,174.17z"/>
</g>
<g>
	<linearGradient id="SVGID_12_" gradientUnits="userSpaceOnUse" x1="53.9714" y1="204.8388" x2="53.9714" y2="204.8133">
		<stop  offset="0" style="stop-color:#FFFFFF"/>
		<stop  offset="1" style="stop-color:#C7F2FF"/>
	</linearGradient>
	<path class="st71" d="M53.97,204.82L53.97,204.82C53.99,204.85,53.98,204.83,53.97,204.82L53.97,204.82z"/>
	<linearGradient id="SVGID_13_" gradientUnits="userSpaceOnUse" x1="69.5104" y1="205.7313" x2="69.5104" y2="192.4149">
		<stop  offset="0" style="stop-color:#FFFFFF"/>
		<stop  offset="1" style="stop-color:#C7F2FF"/>
	</linearGradient>
	<path class="st72" d="M57.9,199.87c0.57,0.32,0.99,0.83,1.25,1.4c-0.65-1.09-1.95-1.55-3.08-1.3c-1.14,0.22-2.19,0.96-2.67,1.93
		c-0.52,0.97-0.24,2.07,0.51,2.86l0.05,0.05c-0.01-0.01,0.03,0.01,0.07,0.01c0.1,0.03,0.24,0.05,0.38,0.08
		c0.28,0.05,0.58,0.08,0.87,0.1c0.6,0.05,1.21,0.08,1.82,0.11c2.45,0.08,4.92,0.12,7.39,0.13l7.41,0.03l7.42,0.04l3.71,0.04
		l0.93,0.01c0.34,0.01,0.54-0.01,0.73-0.05c0.41-0.09,0.74-0.33,0.96-0.74c0.44-0.82,0.33-2.03-0.17-2.96
		c-0.25-0.47-0.6-0.89-1.04-1.21c-0.22-0.16-0.44-0.27-0.73-0.41c-0.25-0.11-0.53-0.22-0.81-0.31c-2.2-0.74-4.91-0.52-6.79,1.13
		c0.77-0.98,1.95-1.61,3.19-1.92c0.27-0.07,0.54-0.11,0.81-0.15c-2.55-6.61-20.03-8.03-22.66,0.92
		C57.59,199.72,57.75,199.78,57.9,199.87z"/>
</g>
<g>
	<linearGradient id="SVGID_14_" gradientUnits="userSpaceOnUse" x1="223.3759" y1="210.8857" x2="223.3759" y2="210.8623">
		<stop  offset="0" style="stop-color:#FFFFFF"/>
		<stop  offset="1" style="stop-color:#C7F2FF"/>
	</linearGradient>
	<path class="st73" d="M223.37,210.87L223.37,210.87C223.4,210.9,223.38,210.88,223.37,210.87L223.37,210.87z"/>
	<linearGradient id="SVGID_15_" gradientUnits="userSpaceOnUse" x1="237.6039" y1="211.7028" x2="237.6039" y2="199.51">
		<stop  offset="0" style="stop-color:#FFFFFF"/>
		<stop  offset="1" style="stop-color:#C7F2FF"/>
	</linearGradient>
	<path class="st74" d="M226.97,206.33c0.52,0.29,0.91,0.76,1.14,1.28c-0.6-1-1.79-1.42-2.82-1.19c-1.05,0.2-2.01,0.88-2.45,1.76
		c-0.47,0.89-0.22,1.89,0.47,2.62l0.04,0.05c-0.01-0.01,0.03,0.01,0.06,0.01c0.09,0.03,0.22,0.05,0.34,0.07
		c0.25,0.04,0.53,0.07,0.8,0.1c0.55,0.05,1.11,0.08,1.67,0.1c2.24,0.07,4.5,0.11,6.76,0.11l6.78,0.03l6.79,0.04l3.4,0.04l0.85,0.01
		c0.32,0.01,0.5-0.01,0.67-0.05c0.38-0.08,0.68-0.31,0.87-0.67c0.4-0.75,0.3-1.86-0.15-2.71c-0.23-0.43-0.55-0.82-0.95-1.1
		c-0.2-0.15-0.4-0.25-0.67-0.37c-0.23-0.1-0.49-0.2-0.74-0.29c-2.01-0.68-4.5-0.48-6.22,1.03c0.71-0.9,1.79-1.48,2.92-1.76
		c0.24-0.06,0.49-0.1,0.74-0.14c-2.34-6.05-18.34-7.35-20.75,0.84C226.69,206.2,226.83,206.25,226.97,206.33z"/>
</g>
<line class="st40" x1="369.63" y1="241.23" x2="376.71" y2="256.65"/>
<line class="st40" x1="394.11" y1="241.8" x2="387.03" y2="257.22"/>
<path class="st75" d="M382.4,256.26h-0.94h-5.53c-0.57,0-1.01,0.5-0.95,1.06l0.94,7.83c0.11,0.93,0.9,1.63,1.84,1.63h3.7h0.94h3.7
	c0.94,0,1.73-0.7,1.84-1.63l0.94-7.83c0.07-0.57-0.37-1.06-0.95-1.06H382.4z"/>
<path class="st76" d="M366.72,239.19h30.4c8.67-6.86,14.47-18.96,14.47-30.72c0-17.8-13.29-28.09-29.67-28.09
	s-29.67,10.28-29.67,28.09C352.25,220.23,358.06,232.33,366.72,239.19z"/>
<path class="st77" d="M397.35,243.5H366.5c-0.99,0-1.8-0.81-1.8-1.8v-1.18c0-0.99,0.81-1.8,1.8-1.8h30.85c0.99,0,1.8,0.81,1.8,1.8
	v1.18C399.16,242.69,398.34,243.5,397.35,243.5z"/>
<path class="st78" d="M386.87,246.47h-9.57c-0.62,0-1.12-0.5-1.12-1.12v-0.73c0-0.62,0.5-1.12,1.12-1.12h9.57
	c0.62,0,1.12,0.5,1.12,1.12v0.73C387.99,245.97,387.48,246.47,386.87,246.47z"/>
<path class="st79" d="M369.51,238.81h24.7c7.04-6.86,11.76-18.96,11.76-30.72c0-17.8-10.79-28.09-24.11-28.09
	c-13.31,0-24.11,10.28-24.11,28.09C357.75,219.85,362.47,231.96,369.51,238.81z"/>
<path class="st80" d="M373.38,238.81h16.98c4.84-6.86,8.08-18.96,8.08-30.72c0-17.8-7.42-28.09-16.58-28.09
	c-9.15,0-16.58,10.28-16.58,28.09C365.3,219.85,368.54,231.96,373.38,238.81z"/>
<path class="st81" d="M378,238.81h7.75c2.21-6.86,3.69-18.96,3.69-30.72c0-17.8-3.39-28.09-7.56-28.09
	c-4.18,0-7.56,10.28-7.56,28.09C374.32,219.85,375.79,231.96,378,238.81z"/>
</svg>
