<?xml version="1.0" encoding="utf-8"?>
<!-- Generator: Adobe Illustrator 24.3.0, SVG Export Plug-In . SVG Version: 6.00 Build 0)  -->
<svg version="1.1" id="Poster" xmlns="http://www.w3.org/2000/svg" xmlns:xlink="http://www.w3.org/1999/xlink" x="0px" y="0px"
	 viewBox="0 0 800 800" style="enable-background:new 0 0 800 800;" xml:space="preserve">
<style type="text/css">
	.st0{fill:#A7CCEA;}
	.st1{fill:#FBD708;}
	.st2{fill:none;stroke:#FFFFFF;stroke-width:4;stroke-miterlimit:10;}
	.st3{fill:none;}
	.st4{fill:none;stroke:#FCFAFA;stroke-width:4;stroke-miterlimit:10;}
	.st5{fill:#C6402A;}
	.st6{fill:#C52128;}
	.st7{fill:#9B1F2E;}
	.st8{fill:none;stroke:#C6402A;stroke-width:3;stroke-miterlimit:10;}
	.st9{fill:#D68D51;}
	.st10{fill:#E24E2F;}
	.st11{fill:#FFFFFF;}
	.st12{fill:#F5F5F5;}
	.st13{fill:#C10000;}
	.st14{fill:#C70000;}
	.st15{fill:#800000;}
	.st16{fill:#FF2E29;}
	.st17{font-family:'Boomboom';}
	.st18{font-size:90px;}
	.st19{fill:none;stroke:#FFFFFF;stroke-width:14;stroke-miterlimit:10;}
	.st20{fill:#7A7A7A;}
	.st21{fill:none;stroke:#A1A3A0;stroke-width:12;stroke-miterlimit:10;}
	.st22{fill:#E8BF7D;}
	.st23{fill:#BA9044;}
	.st24{fill:#756D56;}
	.st25{fill:#CFF0FF;}
	.st26{fill:#9CE1FF;}
	.st27{fill-rule:evenodd;clip-rule:evenodd;fill:#7A7A7A;}
	.st28{fill:#A1A3A0;}
	.st29{fill:none;stroke:#FFFFFF;stroke-width:2;stroke-miterlimit:10;}
	.st30{fill:#FE575F;}
	.st31{fill:#200B12;}
	.st32{fill:#FFF8E6;}
	.st33{fill:#FFAC06;}
	.st34{fill:#AA5511;}
	.st35{fill:#FE1B2C;}
	.st36{fill:#EA2F46;}
	.st37{fill:#B7E6F5;}
	.st38{fill:#FF0000;}
	.st39{fill:#17C6C7;}
	.st40{fill:#FFE240;}
	.st41{fill:#FED140;}
	.st42{fill:#E7E7E9;}
	.st43{fill:#23D9DC;}
	.st44{fill:#DA0A0E;}
	.st45{fill:#D9E021;}
	.st46{fill:#007AFF;}
	.st47{fill:#1E5DA8;}
	.st48{fill:#0090FC;}
	.st49{fill:#3262CC;}
	.st50{fill:#4082E2;}
	.st51{fill:#4679D3;}
	.st52{fill:#2D5EE8;}
	.st53{clip-path:url(#SVGID_2_);}
	.st54{fill:#BBB6B0;}
	.st55{fill:#DBD2CB;}
	.st56{fill:#CD3E2E;}
	.st57{fill:#E39C42;}
	.st58{fill:#D54E3A;}
	.st59{fill:#F5B35C;}
	.st60{clip-path:url(#SVGID_4_);}
	.st61{clip-path:url(#SVGID_6_);}
</style>
<rect y="0" class="st0" width="800" height="800"/>
<polygon class="st1" points="703.4,646 680.1,733 684.7,734.3 708,647.3 731.3,560.3 726.7,559 "/>
<polygon class="st1" points="765,645.6 788.8,734.4 792.6,733.4 768.8,644.6 745,555.8 741.2,556.8 "/>
<g>
	<line class="st2" x1="638.3" y1="633.9" x2="726.2" y2="555.8"/>
	<line class="st3" x1="638.3" y1="633.9" x2="726.2" y2="555.8"/>
</g>
<g>
	<line class="st4" x1="787.2" y1="673.3" x2="743.3" y2="560.3"/>
</g>
<path class="st5" d="M735.9,742.7H628.1c-2.5,0-4.5,1.9-4.5,4.3l0,0c0,2.4,2,4.3,4.5,4.3h107.8h107.8c2.5,0,4.5-1.9,4.5-4.3l0,0
	c0-2.4-2-4.3-4.5-4.3H735.9z"/>
<g>
	<g>
		<path class="st6" d="M698.3,714.9c1.7,0.7,20.5,7.4,46.6,5.6c27.5-1.9,32.1-7.3,32.1-7.3l5.3-5.2c0.6-0.6,1.5-0.9,2.3-0.8l4,0.6
			c0.6,0.1,1.3,0,1.8-0.4l9.1-5.9c9.2-5.9,6.1-15.2,5.5-16.7c-0.1-0.2-0.1-0.3-0.1-0.5l-2.7-13.5c-2.4-11.9,1.3-11.3,2.3-10.9
			c0.2,0.1,0.5,0.1,0.7,0.1l12.1,0.8c2.6,0.2,4-3.2,2-5.1l-11.1-10.4c-0.6-0.6-1-1.5-0.9-2.4c0.2-2.7-2.8-4.2-4.7-2.3l-7.1,7
			c-3.2,3.1-5.5,9.4-5.1,14c0.2,3.5,0.2,7.1-1.2,8.7c-5,5.9-32.6,5.6-32.6,5.6s11.8-0.5-20.4,1.8c-32.1,2.3-32.1,2.3-32.1,2.3"/>
		<polyline class="st6" points="700,673.3 710.4,681.6 721.4,678.2 		"/>
		<g>
			<path class="st6" d="M738.3,679.1c-4.4,1.6-16.8,3-30-0.3c-12.2-3.1-21.3-9.4-25.4-12.8"/>
		</g>
		<path class="st6" d="M703.7,716.3c-1.8-0.2-21.6-2.6-44.8-16.3c-24.3-14.3-26.4-21.5-26.4-21.5l-2.8-7.3c-0.3-0.8-1-1.5-1.8-1.8
			l-3.9-1.3c-0.6-0.2-1.2-0.6-1.5-1.2l-6-9.7c-6-9.7,0.5-16.8,1.6-17.9c0.1-0.1,0.2-0.2,0.3-0.4l7.9-11.2c6.9-9.9,3.3-11,2.2-11.1
			c-0.2,0-0.5-0.1-0.7-0.2l-11.3-4.8c-2.5-1-2.4-4.8,0.2-5.6l14.2-4.5c0.8-0.3,1.5-0.9,1.8-1.8l0,0c0.9-2.5,4.2-2.5,5.2,0l3.7,9.7
			c1.7,4.3,1.3,11.2-0.9,15.2c-1.6,3.1-3,6.4-2.3,8.6c2.2,7.7,24.3,19.3,24.3,19.3s0.9,0,21.1,11.8c28.5,16.7,45.2,14.2,45.2,14.2"
			/>
	</g>
</g>
<polygon class="st1" points="789.7,643.7 832.2,733.2 826.5,735.9 784,646.4 741.6,557 747.3,554.3 "/>
<path class="st7" d="M712,708.1c35,3.7,67.9-1.5,67.6,0.7s-25.6,11.8-62.4,6.7c-35.8-5-68.1-21.7-63.2-21.3"/>
<path class="st8" d="M652.2,649.6c0,0,35.4,19.2,61.9,25.1c24.2,5.4,70.8,0.9,70.8,0.9"/>
<path class="st9" d="M790.8,673.3c-2.7,2.7-19.7,17.9-77.1,9c-51.4-8-73.5-39.5-74.4-43c-0.7-2.9,30.9,32.2,82.5,38.6
	S792.9,671.2,790.8,673.3z"/>
<polygon class="st1" points="680.9,644.4 638.5,733.8 644.2,736.5 686.6,647.1 729.1,557.6 723.4,554.9 "/>
<g>
	<circle class="st10" cx="735.9" cy="546.7" r="15.4"/>
</g>
<circle class="st1" cx="736.2" cy="546.7" r="10.4"/>
<g>
	<path class="st11" d="M634.6,741.8c-2.1,0-3.9-1.7-3.9-3.9s1.7-3.9,3.9-3.9h203.5c2.1,0,3.9,1.7,3.9,3.9s-1.7,3.9-3.9,3.9H634.6z"
		/>
	<g>
		<path class="st11" d="M838.2,734.5c1.9,0,3.5,1.6,3.5,3.5s-1.6,3.5-3.5,3.5H736.4H634.6c-1.9,0-3.5-1.6-3.5-3.5s1.6-3.5,3.5-3.5
			h101.8H838.2 M838.2,733.7H736.4H634.6c-2.4,0-4.3,1.9-4.3,4.3s1.9,4.3,4.3,4.3h101.8h101.8c2.4,0,4.3-1.9,4.3-4.3
			C842.4,735.6,840.5,733.7,838.2,733.7L838.2,733.7z"/>
	</g>
</g>
<g>
	<path class="st12" d="M762.2,787h-3.1v-3.9h3.1c0.6,0,1.3,0,1.9-0.1l0.6,3.9C763.9,787,763.1,787,762.2,787z M750.4,787h-5.3v-3.9
		h5.3V787z M736.3,787H731v-3.9h5.3V787z M722.2,787h-5.3v-3.9h5.3V787z M708.2,787h-5.3v-3.9h5.3V787z M694.1,787h-5.3v-3.9h5.3
		V787z M680,787h-5.3v-3.9h5.3V787z M665.9,787h-5.3v-3.9h5.3V787z M651.8,787h-5.3v-3.9h5.3V787z M637.8,787h-5.3v-3.9h5.3V787z
		 M623.7,787h-5.3v-3.9h5.3V787z M609.6,787h-5.3v-3.9h5.3V787z M595.5,787h-5.3v-3.9h5.3V787z M581.5,787h-5.3v-3.9h5.3V787z
		 M567.4,787h-5.3v-3.9h5.3V787z M553.3,787H548v-3.9h5.3V787z M539.2,787H534v-3.9h5.3V787z M525.2,787h-5.3v-3.9h5.3V787z
		 M511.1,787h-5.3v-3.9h5.3V787z M497,787h-5.3v-3.9h5.3V787z M482.9,787h-5.3v-3.9h5.3V787z M468.9,787h-5.3v-3.9h5.3V787z
		 M454.8,787h-5.3v-3.9h5.3V787z M440.7,787h-5.3v-3.9h5.3V787z M426.6,787h-5.3v-3.9h5.3V787z M412.5,787h-5.3v-3.9h5.3V787z
		 M398.5,787h-5.3v-3.9h5.3V787z M384.4,787h-5.3v-3.9h5.3V787z M370.3,787H365v-3.9h5.3V787z M356.2,787H351v-3.9h5.3V787z
		 M342.2,787h-5.3v-3.9h5.3V787z M328.1,787h-5.3v-3.9h5.3V787z M314,787h-5.3v-3.9h5.3V787z M299.9,787h-5.3v-3.9h5.3V787z
		 M285.9,787h-5.3v-3.9h5.3V787z M271.8,787h-5.3v-3.9h5.3V787z M257.7,787h-5.3v-3.9h5.3V787z M243.6,787h-5.3v-3.9h5.3V787z
		 M229.6,787h-5.3v-3.9h5.3V787z M215.5,787h-5.3v-3.9h5.3V787z M201.4,787h-5.3v-3.9h5.3V787z M187.3,787H182v-3.9h5.3V787z
		 M173.2,787H168v-3.9h5.3V787z M159.2,787h-5.3v-3.9h5.3V787z M145.1,787h-5.3v-3.9h5.3V787z M131,787h-5.3v-3.9h5.3V787z
		 M116.9,787h-5.3v-3.9h5.3V787z M102.9,787h-5.3v-3.9h5.3V787z M88.8,787h-5.3v-3.9h5.3V787z M74.7,787h-5.3v-3.9h5.3V787z
		 M60.6,787h-5.3v-3.9h5.3V787z M46.5,787h-5.3v-3.9h5.3V787z M32,786.6c-2-0.3-3.9-0.8-5.6-1.5l2.5-3.5c1.4,0.5,2.8,0.9,4.3,1.2
		L32,786.6z M774.1,784.4l-2.8-3.3c1.3-0.6,2.4-1.3,3.5-2.2l3.9,2.6C777.3,782.6,775.8,783.6,774.1,784.4z M18.8,780.3
		c-1.2-1.2-2.1-2.5-2.8-3.9l4.9-1.4c0.5,1.1,1.3,2.1,2.2,3L18.8,780.3z M783.4,775l-5.1-1.1c0.4-1.1,0.6-2.2,0.6-3.3l5.3-0.1v0.1
		C784.2,772.1,783.9,773.6,783.4,775z M19.9,769.2h-5.3v-3.9h5.3L19.9,769.2L19.9,769.2z M784.2,764h-5.3v-3.9h5.3V764z M19.9,758.8
		h-5.3v-3.9h5.3L19.9,758.8L19.9,758.8z M784.2,753.5h-5.3v-3.9h5.3V753.5z M19.9,748.3h-5.3v-3.9h5.3L19.9,748.3L19.9,748.3z
		 M784.2,743.1h-5.3v-3.9h5.3V743.1z M19.9,737.8h-5.3v-3.9h5.3L19.9,737.8L19.9,737.8z M784.2,732.6h-5.3v-3.9h5.3V732.6z
		 M19.9,727.3h-5.3v-3.9h5.3L19.9,727.3L19.9,727.3z M784.2,722.1h-5.3v-3.9h5.3V722.1z M19.9,716.8h-5.3v-3.9h5.3L19.9,716.8
		L19.9,716.8z M784.2,711.6h-5.3v-3.9h5.3V711.6z M19.9,706.3h-5.3v-3.9h5.3L19.9,706.3L19.9,706.3z M784.2,701.1h-5.3v-3.9h5.3
		V701.1z M19.9,695.9h-5.3v-3.9h5.3L19.9,695.9L19.9,695.9z M784.2,690.7h-5.3v-3.9h5.3V690.7z M19.9,685.4h-5.3v-3.9h5.3
		L19.9,685.4L19.9,685.4z M784.2,680.2h-5.3v-3.9h5.3V680.2z M19.9,674.9h-5.3V671h5.3L19.9,674.9L19.9,674.9z M784.2,669.7h-5.3
		v-3.9h5.3V669.7z M19.9,664.4h-5.3v-3.9h5.3L19.9,664.4L19.9,664.4z M784.2,659.2h-5.3v-3.9h5.3V659.2z M19.9,653.9h-5.3V650h5.3
		L19.9,653.9L19.9,653.9z M784.2,648.7h-5.3v-3.9h5.3V648.7z M19.9,643.5h-5.3v-3.9h5.3L19.9,643.5L19.9,643.5z M784.2,638.2h-5.3
		v-3.9h5.3V638.2z M19.9,633h-5.3V629h5.3L19.9,633L19.9,633z M784.2,627.8h-5.3v-3.9h5.3V627.8z M19.9,622.5h-5.3v-3.9h5.3
		L19.9,622.5L19.9,622.5z M784.2,617.3h-5.3v-3.9h5.3V617.3z M19.9,612h-5.3v-3.9h5.3L19.9,612L19.9,612z M784.2,606.8h-5.3v-3.9
		h5.3V606.8z M19.9,601.5h-5.3v-3.9h5.3L19.9,601.5L19.9,601.5z M784.2,596.3h-5.3v-3.9h5.3V596.3z M19.9,591h-5.3v-3.9h5.3
		L19.9,591L19.9,591z M784.2,585.8h-5.3v-3.9h5.3V585.8z M19.9,580.6h-5.3v-3.9h5.3L19.9,580.6L19.9,580.6z M784.2,575.3h-5.3v-3.9
		h5.3V575.3z M19.9,570.1h-5.3v-3.9h5.3L19.9,570.1L19.9,570.1z M784.2,564.9h-5.3v-3.9h5.3V564.9z M19.9,559.6h-5.3v-3.9h5.3
		L19.9,559.6L19.9,559.6z M784.2,554.4h-5.3v-3.9h5.3V554.4z M19.9,549.1h-5.3v-3.9h5.3L19.9,549.1L19.9,549.1z M784.2,543.9h-5.3
		V540h5.3V543.9z M19.9,538.6h-5.3v-3.9h5.3L19.9,538.6L19.9,538.6z M784.2,533.4h-5.3v-3.9h5.3V533.4z M19.9,528.2h-5.3v-3.9h5.3
		L19.9,528.2L19.9,528.2z M784.2,522.9h-5.3V519h5.3V522.9z M19.9,517.7h-5.3v-3.9h5.3L19.9,517.7L19.9,517.7z M784.2,512.5h-5.3
		v-3.9h5.3V512.5z M19.9,507.2h-5.3v-3.9h5.3L19.9,507.2L19.9,507.2z M784.2,502h-5.3V498h5.3V502z M19.9,496.7h-5.3v-3.9h5.3
		L19.9,496.7L19.9,496.7z M784.2,491.5h-5.3v-3.9h5.3V491.5z M19.9,486.2h-5.3v-3.9h5.3L19.9,486.2L19.9,486.2z M784.2,481h-5.3
		v-3.9h5.3V481z M19.9,475.7h-5.3v-3.9h5.3L19.9,475.7L19.9,475.7z M784.2,470.5h-5.3v-3.9h5.3V470.5z M19.9,465.3h-5.3v-3.9h5.3
		L19.9,465.3L19.9,465.3z M784.2,460h-5.3v-3.9h5.3V460z M19.9,454.8h-5.3v-3.9h5.3L19.9,454.8L19.9,454.8z M784.2,449.6h-5.3v-3.9
		h5.3V449.6z M19.9,444.3h-5.3v-3.9h5.3L19.9,444.3L19.9,444.3z M784.2,439.1h-5.3v-3.9h5.3V439.1z M19.9,433.8h-5.3v-3.9h5.3
		L19.9,433.8L19.9,433.8z M784.2,428.6h-5.3v-3.9h5.3V428.6z M19.9,423.3h-5.3v-3.9h5.3L19.9,423.3L19.9,423.3z M784.2,418.1h-5.3
		v-3.9h5.3V418.1z M19.9,412.9h-5.3v-3.9h5.3L19.9,412.9L19.9,412.9z M784.2,407.6h-5.3v-3.9h5.3V407.6z M19.9,402.4h-5.3v-3.9h5.3
		L19.9,402.4L19.9,402.4z M784.2,397.1h-5.3v-3.9h5.3V397.1z M19.9,391.9h-5.3V388h5.3L19.9,391.9L19.9,391.9z M784.2,386.7h-5.3
		v-3.9h5.3V386.7z M19.9,381.4h-5.3v-3.9h5.3L19.9,381.4L19.9,381.4z M784.2,376.2h-5.3v-3.9h5.3V376.2z M19.9,370.9h-5.3V367h5.3
		L19.9,370.9L19.9,370.9z M784.2,365.7h-5.3v-3.9h5.3V365.7z M19.9,360.4h-5.3v-3.9h5.3L19.9,360.4L19.9,360.4z M784.2,355.2h-5.3
		v-3.9h5.3V355.2z M19.9,350h-5.3V346h5.3L19.9,350L19.9,350z M784.2,344.7h-5.3v-3.9h5.3V344.7z M19.9,339.5h-5.3v-3.9h5.3
		L19.9,339.5L19.9,339.5z M784.2,334.3h-5.3v-3.9h5.3V334.3z M19.9,329h-5.3v-3.9h5.3L19.9,329L19.9,329z M784.2,323.8h-5.3v-3.9
		h5.3V323.8z M19.9,318.5h-5.3v-3.9h5.3L19.9,318.5L19.9,318.5z M784.2,313.3h-5.3v-3.9h5.3V313.3z M19.9,308h-5.3v-3.9h5.3
		L19.9,308L19.9,308z M784.2,302.8h-5.3v-3.9h5.3V302.8z M19.9,297.5h-5.3v-3.9h5.3L19.9,297.5L19.9,297.5z M784.2,292.3h-5.3v-3.9
		h5.3V292.3z M19.9,287.1h-5.3v-3.9h5.3L19.9,287.1L19.9,287.1z M784.2,281.9h-5.3v-3.9h5.3V281.9z M19.9,276.6h-5.3v-3.9h5.3
		L19.9,276.6L19.9,276.6z M784.2,271.4h-5.3v-3.9h5.3V271.4z M19.9,266.1h-5.3v-3.9h5.3L19.9,266.1L19.9,266.1z M784.2,260.9h-5.3
		V257h5.3V260.9z M19.9,255.6h-5.3v-3.9h5.3L19.9,255.6L19.9,255.6z M784.2,250.4h-5.3v-3.9h5.3V250.4z M19.9,245.1h-5.3v-3.9h5.3
		L19.9,245.1L19.9,245.1z M784.2,239.9h-5.3V236h5.3V239.9z M19.9,234.6h-5.3v-3.9h5.3L19.9,234.6L19.9,234.6z M784.2,229.4h-5.3
		v-3.9h5.3V229.4z M19.9,224.2h-5.3v-3.9h5.3L19.9,224.2L19.9,224.2z M784.2,218.9h-5.3V215h5.3V218.9z M19.9,213.7h-5.3v-3.9h5.3
		L19.9,213.7L19.9,213.7z M784.2,208.5h-5.3v-3.9h5.3V208.5z M19.9,203.2h-5.3v-3.9h5.3L19.9,203.2L19.9,203.2z M784.2,198h-5.3
		v-3.9h5.3V198z M19.9,192.7h-5.3v-3.9h5.3L19.9,192.7L19.9,192.7z M784.2,187.5h-5.3v-3.9h5.3V187.5z M19.9,182.2h-5.3v-3.9h5.3
		L19.9,182.2L19.9,182.2z M784.2,177h-5.3v-3.9h5.3V177z M19.9,171.8h-5.3v-3.9h5.3L19.9,171.8L19.9,171.8z M784.2,166.5h-5.3v-3.9
		h5.3V166.5z M19.9,161.3h-5.3v-3.9h5.3L19.9,161.3L19.9,161.3z M784.2,156.1h-5.3v-3.9h5.3V156.1z M19.9,150.8h-5.3v-3.9h5.3
		L19.9,150.8L19.9,150.8z M784.2,145.6h-5.3v-3.9h5.3V145.6z M19.9,140.3h-5.3v-3.9h5.3L19.9,140.3L19.9,140.3z M784.2,135.1h-5.3
		v-3.9h5.3V135.1z M19.9,129.8h-5.3v-3.9h5.3L19.9,129.8L19.9,129.8z M784.2,124.6h-5.3v-3.9h5.3V124.6z M19.9,119.3h-5.3v-3.9h5.3
		L19.9,119.3L19.9,119.3z M784.2,114.1h-5.3v-3.9h5.3V114.1z M19.9,108.9h-5.3v-3.9h5.3L19.9,108.9L19.9,108.9z M784.2,103.6h-5.3
		v-3.9h5.3V103.6z M19.9,98.4h-5.3v-3.9h5.3L19.9,98.4L19.9,98.4z M784.2,93.2h-5.3v-3.9h5.3V93.2z M19.9,87.9h-5.3V84h5.3
		L19.9,87.9L19.9,87.9z M784.2,82.7h-5.3v-3.9h5.3V82.7z M19.9,77.4h-5.3v-3.9h5.3L19.9,77.4L19.9,77.4z M784.2,72.2h-5.3v-3.9h5.3
		V72.2z M19.9,66.9h-5.3V63h5.3L19.9,66.9L19.9,66.9z M784.2,61.7h-5.3v-3.9h5.3V61.7z M19.9,56.5h-5.3v-3.9h5.3L19.9,56.5
		L19.9,56.5z M784.2,51.2h-5.3v-3.9h5.3V51.2z M19.9,46h-5.3V42h5.3L19.9,46L19.9,46z M784.2,40.8h-5.3v-3.9h5.3V40.8z M14.6,35.5
		L14.6,35.5c0-1.5,0.3-3,0.8-4.4l5.1,1c-0.4,1.1-0.6,2.2-0.6,3.3L14.6,35.5z M777.9,31.1c-0.5-1.1-1.3-2.1-2.2-3l4.2-2.3
		c1.2,1.2,2.2,2.5,2.8,3.9L777.9,31.1z M24.1,27.2l-3.9-2.6c1.3-1.1,2.9-2.1,4.5-2.9l2.9,3.3C26.3,25.6,25.1,26.4,24.1,27.2z
		 M770,24.4c-1.3-0.5-2.8-0.9-4.3-1.1l1.1-3.8c2,0.3,3.8,0.8,5.6,1.5L770,24.4z M34.6,23.1L34,19.2c0.8-0.1,1.7-0.1,2.6-0.1h3V23h-3
		C35.9,23,35.3,23.1,34.6,23.1z M757.5,23h-5.3v-3.9h5.3V23z M743.4,23h-5.3v-3.9h5.3V23z M729.3,23h-5.3v-3.9h5.3V23z M715.3,23
		H710v-3.9h5.3V23z M701.2,23h-5.3v-3.9h5.3V23z M687.1,23h-5.3v-3.9h5.3V23z M673,23h-5.3v-3.9h5.3V23z M659,23h-5.3v-3.9h5.3V23z
		 M644.9,23h-5.3v-3.9h5.3V23z M630.8,23h-5.3v-3.9h5.3V23z M616.7,23h-5.3v-3.9h5.3V23z M602.7,23h-5.3v-3.9h5.3V23z M588.6,23
		h-5.3v-3.9h5.3V23z M574.5,23h-5.3v-3.9h5.3V23z M560.4,23h-5.3v-3.9h5.3V23z M546.3,23h-5.3v-3.9h5.3V23z M532.3,23H527v-3.9h5.3
		V23z M518.2,23h-5.3v-3.9h5.3V23z M504.1,23h-5.3v-3.9h5.3V23z M490,23h-5.3v-3.9h5.3V23z M476,23h-5.3v-3.9h5.3V23z M461.9,23
		h-5.3v-3.9h5.3V23z M447.8,23h-5.3v-3.9h5.3V23z M433.7,23h-5.3v-3.9h5.3V23z M419.7,23h-5.3v-3.9h5.3V23z M405.6,23h-5.3v-3.9h5.3
		V23z M391.5,23h-5.3v-3.9h5.3V23z M377.4,23h-5.3v-3.9h5.3V23z M363.4,23h-5.3v-3.9h5.3V23z M349.3,23H344v-3.9h5.3L349.3,23
		L349.3,23z M335.2,23h-5.3v-3.9h5.3V23z M321.1,23h-5.3v-3.9h5.3V23z M307,23h-5.3v-3.9h5.3V23z M293,23h-5.3v-3.9h5.3V23z
		 M278.9,23h-5.3v-3.9h5.3V23z M264.8,23h-5.3v-3.9h5.3V23z M250.7,23h-5.3v-3.9h5.3V23z M236.7,23h-5.3v-3.9h5.3V23z M222.6,23
		h-5.3v-3.9h5.3V23z M208.5,23h-5.3v-3.9h5.3V23z M194.4,23h-5.3v-3.9h5.3V23z M180.4,23h-5.3v-3.9h5.3V23z M166.3,23H161v-3.9h5.3
		V23z M152.2,23h-5.3v-3.9h5.3V23z M138.1,23h-5.3v-3.9h5.3V23z M124.1,23h-5.3v-3.9h5.3V23z M110,23h-5.3v-3.9h5.3V23z M95.9,23
		h-5.3v-3.9h5.3V23z M81.8,23h-5.3v-3.9h5.3V23z M67.7,23h-5.3v-3.9h5.3V23z M53.7,23h-5.3v-3.9h5.3V23z"/>
</g>
<g>
	<g>
		<path class="st11" d="M778.9,165.2c-0.4,2.7-2.5,4.5-4.7,4.1c-2.2-0.4-3.8-2.9-3.4-5.6s2.5-4.5,4.7-4.1
			C777.7,160.1,779.2,162.6,778.9,165.2z"/>
	</g>
	<g>
		<path class="st11" d="M767.4,161.9c-1,2.4-3.5,3.3-5.5,2.1c-2-1.2-2.8-4.2-1.8-6.6s3.5-3.3,5.5-2.1
			C767.7,156.6,768.5,159.5,767.4,161.9z"/>
	</g>
	<g>
		<path class="st11" d="M756.9,155.4c-1,2.4-3.5,3.3-5.5,2.1c-2-1.2-2.8-4.2-1.8-6.6s3.5-3.3,5.5-2.1
			C757.1,150.1,757.9,153,756.9,155.4z"/>
	</g>
	<g>
		<path class="st11" d="M746.3,148.9c-1,2.4-3.5,3.3-5.5,2.1c-2-1.2-2.8-4.2-1.8-6.6s3.5-3.3,5.5-2.1
			C746.6,143.5,747.4,146.5,746.3,148.9z"/>
	</g>
	<g>
		<path class="st11" d="M735.8,142.4c-1,2.4-3.5,3.3-5.5,2.1c-2-1.2-2.8-4.2-1.8-6.6s3.5-3.3,5.5-2.1C736,137,736.8,140,735.8,142.4
			z"/>
	</g>
	<g>
		<path class="st11" d="M726.2,134.3c-1.6,1.9-4.2,1.9-5.8,0s-1.6-5,0-6.9c1.6-1.9,4.2-1.9,5.8,0
			C727.8,129.3,727.8,132.4,726.2,134.3z"/>
	</g>
	<g>
		<path class="st11" d="M717.8,124.3c-1.6,1.9-4.2,1.9-5.8,0s-1.6-5,0-6.9s4.2-1.9,5.8,0S719.4,122.4,717.8,124.3z"/>
	</g>
	<g>
		<path class="st11" d="M709.4,114.3c-1.6,1.9-4.2,1.9-5.8,0s-1.6-5,0-6.9c1.6-1.9,4.2-1.9,5.8,0C711,109.3,711,112.3,709.4,114.3z"
			/>
	</g>
	<g>
		<path class="st11" d="M700.6,104.7c-1.8,1.6-4.4,1.1-5.7-1.1c-1.3-2.2-0.9-5.2,0.9-6.8c1.8-1.6,4.4-1.1,5.7,1.1
			S702.4,103.1,700.6,104.7z"/>
	</g>
	<g>
		<path class="st11" d="M694.6,92.5c-2,1.2-4.5,0.3-5.5-2.1c-1-2.4-0.2-5.3,1.8-6.6s4.5-0.3,5.5,2.1
			C697.4,88.3,696.6,91.2,694.6,92.5z"/>
	</g>
	<g>
		<path class="st11" d="M646.2,90.8c2,1.2,2.8,4.2,1.8,6.6c-1,2.4-3.5,3.3-5.5,2.1c-2-1.2-2.8-4.2-1.8-6.6
			C641.8,90.5,644.2,89.6,646.2,90.8z"/>
	</g>
	<g>
		<path class="st11" d="M640.2,102.9c1.6,1.9,1.6,5,0,6.9s-4.2,1.9-5.8,0s-1.6-5,0-6.9C636,101,638.6,101,640.2,102.9z"/>
	</g>
	<g>
		<path class="st11" d="M631.8,113c1.6,1.9,1.6,5,0,6.9c-1.6,1.9-4.2,1.9-5.8,0s-1.6-5,0-6.9C627.6,111,630.2,111,631.8,113z"/>
	</g>
	<g>
		<path class="st11" d="M623.4,123c1.6,1.9,1.6,5,0,6.9c-1.6,1.9-4.2,1.9-5.8,0c-1.6-1.9-1.6-5,0-6.9
			C619.2,121.1,621.8,121.1,623.4,123z"/>
	</g>
	<g>
		<path class="st11" d="M219.5,204c-0.4,2.7-2.5,4.5-4.7,4.1c-2.2-0.4-3.8-2.9-3.4-5.6c0.4-2.7,2.5-4.5,4.7-4.1
			C218.3,198.8,219.8,201.3,219.5,204z"/>
	</g>
	<g>
		<path class="st11" d="M205.8,195.7c-0.4,2.7-2.5,4.5-4.7,4.1c-2.2-0.4-3.8-2.9-3.4-5.6c0.4-2.7,2.5-4.5,4.7-4.1
			C204.7,190.6,206.2,193.1,205.8,195.7z"/>
	</g>
	<g>
		<path class="st11" d="M194.1,185.9c-0.4,2.7-2.5,4.5-4.7,4.1s-3.8-2.9-3.4-5.6c0.4-2.7,2.5-4.5,4.7-4.1
			C192.9,180.8,194.5,183.3,194.1,185.9z"/>
	</g>
	<g>
		<path class="st11" d="M181.4,178.4c-1,2.4-3.5,3.3-5.5,2.1c-2-1.2-2.8-4.2-1.8-6.6c1-2.4,3.5-3.3,5.5-2.1
			C181.6,173.1,182.4,176,181.4,178.4z"/>
	</g>
	<g>
		<path class="st11" d="M169.9,169c-1,2.4-3.5,3.3-5.5,2.1c-2-1.2-2.8-4.2-1.8-6.6c1-2.4,3.5-3.3,5.5-2.1
			C170.2,163.7,171,166.6,169.9,169z"/>
	</g>
	<g>
		<path class="st11" d="M132.9,128.8c-1.6,1.9-4.2,1.9-5.8,0c-1.6-1.9-1.6-5,0-6.9c1.6-1.9,4.2-1.9,5.8,0
			C134.5,123.7,134.5,126.8,132.9,128.8z"/>
	</g>
	<g>
		<path class="st11" d="M124.5,119.4c-1.6,1.9-4.2,1.9-5.8,0c-1.6-1.9-1.6-5,0-6.9s4.2-1.9,5.8,0
			C126.1,114.4,126.1,117.5,124.5,119.4z"/>
	</g>
	<g>
		<path class="st11" d="M115.6,109.9c-1.8,1.6-4.4,1.1-5.7-1.1c-1.3-2.2-0.9-5.2,0.9-6.8c1.8-1.6,4.4-1.1,5.7,1.1
			C117.9,105.2,117.5,108.3,115.6,109.9z"/>
	</g>
	<g>
		<path class="st11" d="M109.7,97.7c-2,1.2-4.5,0.3-5.5-2.1s-0.2-5.3,1.8-6.6c2-1.2,4.5-0.3,5.5,2.1
			C112.4,93.5,111.7,96.4,109.7,97.7z"/>
	</g>
	<g>
		<path class="st11" d="M61.3,89c2,1.2,2.8,4.2,1.8,6.6c-1,2.4-3.5,3.3-5.5,2.1c-2-1.2-2.8-4.2-1.8-6.6C56.8,88.7,59.3,87.7,61.3,89
			z"/>
	</g>
	<g>
		<path class="st11" d="M55.4,102.7c1.6,1.9,1.6,5,0,6.9c-1.6,1.9-4.2,1.9-5.8,0s-1.6-5,0-6.9C51.2,100.8,53.8,100.8,55.4,102.7z"/>
	</g>
	<g>
		<path class="st11" d="M47,112.7c1.6,1.9,1.6,5,0,6.9s-4.2,1.9-5.8,0s-1.6-5,0-6.9S45.4,110.8,47,112.7z"/>
	</g>
	<g>
		<path class="st11" d="M38.6,122.7c1.6,1.9,1.6,5,0,6.9c-1.6,1.9-4.2,1.9-5.8,0c-1.6-1.9-1.6-5,0-6.9
			C34.4,120.8,37,120.8,38.6,122.7z"/>
	</g>
	<g>
		<path class="st11" d="M30.2,132.8c1.6,1.9,1.6,5,0,6.9s-4.2,1.9-5.8,0c-1.6-1.9-1.6-5,0-6.9C26,130.9,28.6,130.9,30.2,132.8z"/>
	</g>
	<g>
		<path class="st11" d="M142.5,139.8c-1.6,1.9-4.2,1.9-5.8,0s-1.6-5,0-6.9s4.2-1.9,5.8,0C144.1,134.8,144.1,137.9,142.5,139.8z"/>
	</g>
	<g>
		<path class="st11" d="M149.8,150.5c-1.6,1.9-4.2,1.9-5.8,0s-1.6-5,0-6.9s4.2-1.9,5.8,0C151.4,145.5,151.4,148.6,149.8,150.5z"/>
	</g>
	<g>
		<path class="st11" d="M158,160.3c-1.6,1.9-4.2,1.9-5.8,0s-1.6-5,0-6.9s4.2-1.9,5.8,0C159.6,155.3,159.6,158.4,158,160.3z"/>
	</g>
</g>
<g>
	<rect y="0" class="st13" width="800" height="51.1"/>
	<circle class="st13" cx="41.3" cy="44" r="39.6"/>
	<circle class="st13" cx="118.8" cy="44" r="39.6"/>
	<circle class="st13" cx="197.9" cy="44" r="39.6"/>
	<circle class="st13" cx="275.4" cy="44" r="39.6"/>
	<circle class="st13" cx="353.6" cy="44" r="39.6"/>
	<circle class="st13" cx="431.1" cy="44" r="39.6"/>
	<ellipse transform="matrix(0.1891 -0.982 0.982 0.1891 370.5109 536.7729)" class="st13" cx="510.3" cy="44" rx="39.6" ry="39.6"/>
	<circle class="st13" cx="587.8" cy="44" r="39.6"/>
	<circle class="st13" cx="665.1" cy="44" r="39.6"/>
	<circle class="st13" cx="742.6" cy="44" r="39.6"/>
	<circle class="st13" cx="823.8" cy="50.2" r="39.6"/>
</g>
<g>
	<polygon class="st11" points="41.3,33.4 46.4,43.9 57.9,45.5 49.6,53.6 51.6,65.1 41.3,59.7 31,65.1 33,53.6 24.6,45.5 36.1,43.9 	
		"/>
	<polygon class="st11" points="118.8,34.3 123.9,44.7 135.4,46.4 127.1,54.5 129.1,66 118.8,60.6 108.5,66 110.4,54.5 102.1,46.4 
		113.6,44.7 	"/>
	<polygon class="st11" points="198.8,36.6 203.9,47 215.4,48.7 207.1,56.8 209.1,68.3 198.8,62.9 188.5,68.3 190.4,56.8 182.1,48.7 
		193.6,47 	"/>
	<polygon class="st11" points="276.2,37.5 281.4,47.9 292.9,49.6 284.6,57.7 286.5,69.1 276.2,63.7 266,69.1 267.9,57.7 259.6,49.6 
		271.1,47.9 	"/>
	<polygon class="st11" points="355.8,35.5 361,45.9 372.5,47.6 364.2,55.7 366.1,67.1 355.8,61.7 345.5,67.1 347.5,55.7 339.2,47.6 
		350.7,45.9 	"/>
	<polygon class="st11" points="433.3,36.3 438.5,46.8 450,48.4 441.7,56.6 443.6,68 433.3,62.6 423,68 425,56.6 416.7,48.4 
		428.2,46.8 	"/>
	<polygon class="st11" points="513.3,38.6 518.5,49 530,50.7 521.7,58.8 523.6,70.3 513.3,64.9 503,70.3 505,58.8 496.7,50.7 
		508.2,49 	"/>
	<polygon class="st11" points="590.8,39.5 596,49.9 607.5,51.6 599.1,59.7 601.1,71.2 590.8,65.8 580.5,71.2 582.5,59.7 574.2,51.6 
		585.7,49.9 	"/>
	<polygon class="st11" points="666.7,37.5 671.9,47.9 683.4,49.6 675,57.7 677,69.1 666.7,63.7 656.4,69.1 658.4,57.7 650.1,49.6 
		661.6,47.9 	"/>
	<polygon class="st11" points="744.2,38.4 749.4,48.8 760.9,50.5 752.5,58.6 754.5,70 744.2,64.6 733.9,70 735.9,58.6 727.6,50.5 
		739.1,48.8 	"/>
	<polygon class="st11" points="824.2,40.6 829.3,51.1 840.9,52.7 832.5,60.8 834.5,72.3 824.2,66.9 813.9,72.3 815.9,60.8 
		807.5,52.7 819,51.1 	"/>
</g>
<g>
	<path class="st14" d="M295.3,217.8c0,0-34.3,15.1-123.6,13.7l30.2-36.1l-43.9-12l96.1-22L295.3,217.8z"/>
	<path class="st15" d="M227.1,210.3c0,0,43.5,7.6,68.2,7.6l-6.9-41.2L227.1,210.3z"/>
	<path class="st14" d="M559.7,217.8c0,0,34.3,15.1,123.6,13.7l-30.2-36.1l44-12l-96.1-22L559.7,217.8z"/>
	<path class="st15" d="M628,210.3c0,0-43.5,7.6-68.2,7.6l6.9-41.2L628,210.3z"/>
	<g>
		<g>
			<g>
				<path class="st16" d="M661.3,141.3c-152.5-67.2-314.1-67.2-466.6,0c10.8,23,21.6,46,32.5,69c132.1-57.6,269.6-57.6,401.7,0
					C639.7,187.3,650.5,164.3,661.3,141.3z"/>
			</g>
			<g>
				<path class="st16" d="M661.3,141.3c-152.5-67.2-314.1-67.2-466.6,0c10.8,23,21.6,46,32.5,69c132.1-57.6,269.6-57.6,401.7,0
					C639.7,187.3,650.5,164.3,661.3,141.3z"/>
			</g>
		</g>
		<g>
			<g>
				<path class="st16" d="M661.3,141.3c-152.5-67.2-314.1-67.2-466.6,0c10.8,23,21.6,46,32.5,69c132.1-57.6,269.6-57.6,401.7,0
					C639.7,187.3,650.5,164.3,661.3,141.3z"/>
			</g>
			<g>
				<path class="st16" d="M661.3,141.3c-152.5-67.2-314.1-67.2-466.6,0c10.8,23,21.6,46,32.5,69c132.1-57.6,269.6-57.6,401.7,0
					C639.7,187.3,650.5,164.3,661.3,141.3z"/>
			</g>
		</g>
	</g>
</g>
<g>
	<g>
		<path class="st11" d="M295.2,133.2c10.2-4.2,19.7,2.9,23.2,12.3c3.3,8.8,0,19.5-8.9,23.3c-9.6,4.1-18.1-1.6-22.6-10.4
			C282.1,148.8,285,137.4,295.2,133.2z M299.3,152.4c3.4,8.4,5.4,9.4,7.2,8.6c2.1-0.9,1.8-4.9-0.7-11.3c-3.9-9.8-6.2-7.8-6.9-7.5
			C297.8,142.7,296.2,144.8,299.3,152.4z"/>
		<path class="st11" d="M324.9,134.1c-7.5,2.2-9.8-0.9-10.2-8.2c0.8-0.2,1.4-0.6,11.5-3.7c5.1-1.5,7.6-2.3,12.7-3.6
			c4.6-1.2,8.3-0.1,9.2,3.4c0.8,3.1-0.2,5.6-4.3,6.8c-1.2,0.4-2.6,0.7-4,1.1c2.2,7.6,7.1,20.3,6.6,23.6c-0.1,0.5-1.2,2.8-5.9,4.2
			c-5.3,1.6-6.6-1.9-8.1-6.3c-3.6-11.1-4.7-14.7-5.7-17.9C326.1,133.8,325.7,133.9,324.9,134.1z"/>
		<path class="st11" d="M387.8,145.7c-2.6,3.2-12.4,6.3-13.9-1.9c-1.5-8.2-2.5-9.3-6.7-8.2c0.9,3.5,2.1,9.9,2.7,13
			c-2,3-10.6,6.8-13.1-0.3c-0.9-2.7-1.8-7.9-2.5-11.1c-2.2-9.3-2.5-11.6-5.2-19.2c2.1-1.4,11.6-6.8,14.3,0.1
			c1.6,4.1,1.8,8.4,2.5,10.8c5.6-2.2,1.4-13.7,2.4-15.4c0.9-1.4,9.4-4.4,12.1,0.2c3.3,5.8-1.1,14.9-5,16c6.5-0.7,9.2,2.6,10,6.1
			C386.1,138.8,386.3,142.7,387.8,145.7z"/>
		<path class="st11" d="M403.9,144.1c-3.2,3.2-12.3,5.2-13.2-1.9c-1.3-10.5-2.4-21.4-4.3-32c10-2.4,31.1-6,32,9.1
			c0.6,10.5-5.6,12.8-16.3,13.4C402.4,134.9,403.2,142,403.9,144.1z M401.7,125.8c3-0.1,4.2-1.9,4.1-5.2c-0.1-1.9-1.3-5.1-4.8-3.9
			C400.9,119.3,401.4,123.3,401.7,125.8z"/>
		<path class="st11" d="M434.4,122.7c13.4-0.4,18.3,5.7,17.7,12.9c-0.6,7.6-8.5,10.3-15.1,10.1c-2.1-0.1-3.1-0.1-5.2-0.1
			c-5-0.1-10-0.9-10.2-6.3c-0.1-2.4-0.1-3.4-0.1-5.9c0-2.9-0.1-4.3-0.1-7.1c-0.1-11.4,0-13-0.7-17.3c2.2-0.8,4.7-1.8,7.8-1.8
			c5,0,6.4,2.6,6.3,7.2C434.6,118.3,434.4,120.8,434.4,122.7z M434.2,138c2.5,0.1,4.5-0.8,4.5-4.9c0-3.5-2.7-3.7-4.3-3.8
			C434.4,130.5,434.1,136.9,434.2,138z M468,145.5c-0.6,0.5-2.5,2.3-7.3,1.8c-5.5-0.5-5.5-3.6-5.1-8c1.4-17.7,2-21.3,2.1-24.9
			c0.1-4.2,3.2-5.3,7.1-5c4.3,0.3,6.9,2.2,6.3,6.1C469.5,125.2,468.4,135.4,468,145.5z"/>
		<path class="st11" d="M481.2,122.5c-7.6-1.3-8.3-5.2-5.4-11.9c0.8,0.2,1.5,0.1,11.8,1.9c5.2,0.9,7.8,1.4,12.9,2.5
			c4.6,1,7.5,3.7,6.7,7.2c-0.7,3.1-2.7,4.9-6.9,4.2c-1.2-0.2-2.6-0.5-4.1-0.8c-1.5,7.8-2.8,21.3-4.7,24.1c-0.3,0.4-2.3,2-7.1,1.2
			c-5.4-0.9-5-4.7-4.3-9.3c1.7-11.5,2.4-15.2,3-18.6C482.4,122.7,482,122.6,481.2,122.5z"/>
		<path class="st11" d="M539.5,140.8c-2.9,8.1-6.3,18.4-6.5,20.3c-1.1,0.9-3.9,1.4-7.9,0.1c-4.7-1.5-4.2-4.3-3-8.2
			c0.9-2.9,3.7-11.4,4.4-13.8c-4.1,4.6-9.1,19.2-17.5,17.2c-4.7-1.1-6.1-3.4-4.9-9c2.5-11.5,4-17.3,4.8-20.9
			c0.7-3.4,0.8-5.1,1.1-7.8c0,0,5.3-0.3,8,0.4c4,1.1,5.9,3.1,4.8,6.9c-0.4,1.5-4.3,13.6-4.9,15.7c2.7-4.4,7.1-10.6,10.1-14.6
			c2.5-3.2,5.2-3.6,9.9-2c4,1.3,5.9,4,4.7,7.3C542,134.1,540.8,137.3,539.5,140.8z"/>
		<path class="st11" d="M566.9,147.3c-3.1-1.5-4.8-2.4-8.7-3.8c-0.7,1.8-1.1,2.6-1.8,4.4c3.2,1.7,5,2.2,8.5,3.8
			c4.8,2.3,1.9,10.3-3.5,7.9c-2.6-1.2-7.4-3.8-8.3-3.5c-0.2,0.1-1.3,3.1-1.6,3.8c2.6,1.7,7.1,3.4,12.2,5c-0.2,7.6-3.9,9.3-9.7,7.3
			c-4.3-1.5-6.9-2.6-11.4-4.8c-6.9-3.3-4.8-7.7-2.4-14.1c2.5-6.7,6.2-16.4,8.1-24.2c7.8,2.6,19.2,6.9,23.2,9.4
			C576.5,141.6,572.8,150.1,566.9,147.3z"/>
	</g>
</g>
<text transform="matrix(1 0 0 1 321.121 283.3528)" class="st17 st18">ПАРКА</text>
<text transform="matrix(1 0 0 1 316.6702 280.885)" class="st11 st17 st18">ПАРКА</text>
<text transform="matrix(1 0 0 1 182.8153 361.437)" class="st17 st18">РАЗВЛЕЧЕНИЙ</text>
<text transform="matrix(1 0 0 1 179.3299 358.1241)" class="st11 st17 st18">РАЗВЛЕЧЕНИЙ</text>
<circle class="st19" cx="141.2" cy="546" r="136.3"/>
<g>
	<polygon class="st20" points="142.2,751.1 43.8,751.1 43.8,762.8 142.2,762.8 240.6,762.8 240.6,751.1 	"/>
</g>
<g>
	<polygon class="st20" points="102.2,645.4 65.7,754.6 75.8,758.6 112.4,649.5 148.9,540.3 138.8,536.3 	"/>
</g>
<g>
	<polygon class="st20" points="170.9,649.3 207.4,758.2 217.6,754.2 181.1,645.3 144.6,536.3 134.4,540.3 	"/>
</g>
<g>
	<line class="st21" x1="141.7" y1="406.8" x2="141.7" y2="546.5"/>
	<line class="st3" x1="141.7" y1="406.8" x2="141.7" y2="546.5"/>
</g>
<g>
	<line class="st21" x1="142.2" y1="547" x2="142.2" y2="686.7"/>
	<line class="st3" x1="142.2" y1="547" x2="142.2" y2="686.7"/>
</g>
<g>
	<line class="st21" x1="281.9" y1="546.3" x2="142.2" y2="546.3"/>
	<line class="st3" x1="281.9" y1="546.3" x2="142.2" y2="546.3"/>
</g>
<g>
	<line class="st21" x1="141.4" y1="546.4" x2="1.7" y2="546.4"/>
	<line class="st3" x1="141.4" y1="546.4" x2="1.7" y2="546.4"/>
</g>
<g>
	<line class="st21" x1="240" y1="447" x2="141.2" y2="545.8"/>
	<line class="st3" x1="240" y1="447" x2="141.2" y2="545.8"/>
</g>
<g>
	<line class="st21" x1="141.2" y1="546.5" x2="42.4" y2="645.3"/>
	<line class="st3" x1="141.2" y1="546.5" x2="42.4" y2="645.3"/>
</g>
<g>
	<line class="st21" x1="240" y1="644.9" x2="141.2" y2="546.1"/>
	<line class="st3" x1="240" y1="644.9" x2="141.2" y2="546.1"/>
</g>
<g>
	<line class="st21" x1="140.5" y1="546.1" x2="41.7" y2="447.4"/>
	<line class="st3" x1="140.5" y1="546.1" x2="41.7" y2="447.4"/>
</g>
<g>
	
		<ellipse transform="matrix(7.088900e-02 -0.9975 0.9975 7.088900e-02 -413.4787 649.0734)" class="st20" cx="141.7" cy="546.5" rx="31" ry="31"/>
</g>
<circle class="st19" cx="142.1" cy="547.9" r="77.8"/>
<rect x="220.5" y="663" class="st22" width="37.5" height="14.9"/>
<path class="st22" d="M244.4,693.4h-10.2c-7.5,0-13.7-6.2-13.7-13.7v-2H258v2C258,687.3,251.9,693.4,244.4,693.4z"/>
<path class="st23" d="M230.3,693.4c-2.8,0-5.1-2.3-5.1-5.1v-4.9h-4.7v4.9c0,2.8,2.3,5.1,5.1,5.1h6l0,0H230.3z"/>
<rect x="220.5" y="668.1" class="st24" width="37.5" height="17.9"/>
<path class="st25" d="M245.6,669.5h-12.5h-9.6c-0.9,0-1.7,0.8-1.7,1.7v11.7c0,1,0.8,1.7,1.7,1.7h9.6h12.5h9.4c0.9,0,1.7-0.8,1.7-1.7
	v-11.7c0-1-0.8-1.7-1.7-1.7H245.6z"/>
<rect x="220.5" y="663" class="st23" width="37.5" height="3.4"/>
<path class="st22" d="M239.3,649.2l-15.5,9.5c-2.8,1.7-1.6,6,1.7,6h27.6c3.2,0,4.5-4.3,1.7-6L239.3,649.2z"/>
<polygon class="st26" points="224.5,684.6 230.5,684.6 241,669.5 235,669.5 "/>
<polygon class="st26" points="241.2,684.7 245.1,684.7 255.6,669.6 251.7,669.6 "/>
<rect x="231.6" y="669" class="st24" width="1.7" height="15.8"/>
<rect x="244.8" y="669.4" class="st24" width="1.7" height="15.8"/>
<path class="st23" d="M242.9,651.5l-3.7-2.2l-23.2,14.3c-0.5,0.3-0.3,1.2,0.3,1.2h5.1L242.9,651.5z"/>
<g>
	<circle class="st27" cx="238.6" cy="643.9" r="9.8"/>
</g>
<circle class="st28" cx="142.1" cy="546.4" r="23.1"/>
<rect x="259.3" y="565.7" class="st22" width="37.5" height="14.9"/>
<path class="st22" d="M283.1,596.2h-10.2c-7.5,0-13.7-6.2-13.7-13.7v-2h37.5v2C296.8,590,290.6,596.2,283.1,596.2z"/>
<path class="st23" d="M269.1,596.2c-2.8,0-5.1-2.3-5.1-5.1v-4.9h-4.7v4.9c0,2.8,2.3,5.1,5.1,5.1h6l0,0H269.1z"/>
<rect x="259.3" y="570.9" class="st24" width="37.5" height="17.9"/>
<path class="st25" d="M284.4,572.2h-12.5h-9.6c-1,0-1.7,0.8-1.7,1.7v11.7c0,1,0.8,1.7,1.7,1.7h9.6h12.5h9.4c1,0,1.7-0.8,1.7-1.7
	v-11.7c0-1-0.8-1.7-1.7-1.7H284.4z"/>
<rect x="259.3" y="565.7" class="st23" width="37.5" height="3.4"/>
<path class="st22" d="M278,552l-15.5,9.5c-2.8,1.7-1.6,6,1.7,6h27.6c3.2,0,4.5-4.3,1.7-6L278,552z"/>
<polygon class="st26" points="263.2,587.4 269.2,587.4 279.8,572.2 273.8,572.2 "/>
<rect x="270.4" y="571.7" class="st24" width="1.7" height="15.8"/>
<path class="st23" d="M281.6,554.2l-3.7-2.2l-23.2,14.3c-0.5,0.3-0.3,1.2,0.3,1.2h5.1L281.6,554.2z"/>
<rect x="123.1" y="700.3" class="st22" width="37.5" height="14.9"/>
<path class="st22" d="M146.9,730.7h-10.2c-7.5,0-13.7-6.2-13.7-13.7v-2h37.5v2C160.6,724.6,154.4,730.7,146.9,730.7z"/>
<path class="st23" d="M132.9,730.7c-2.8,0-5.1-2.3-5.1-5.1v-4.9h-4.7v4.9c0,2.8,2.3,5.1,5.1,5.1h6l0,0H132.9z"/>
<rect x="123.1" y="705.4" class="st24" width="37.5" height="17.9"/>
<path class="st25" d="M148.2,706.8h-12.5h-9.6c-0.9,0-1.7,0.8-1.7,1.7v11.7c0,1,0.8,1.7,1.7,1.7h9.6h12.5h9.4c0.9,0,1.7-0.8,1.7-1.7
	v-11.7c0-1-0.8-1.7-1.7-1.7H148.2z"/>
<rect x="123.1" y="700.3" class="st23" width="37.5" height="3.4"/>
<path class="st22" d="M141.8,686.5l-15.5,9.5c-2.8,1.7-1.6,6,1.7,6h27.6c3.2,0,4.4-4.3,1.7-6L141.8,686.5z"/>
<polygon class="st26" points="127.1,721.9 133.1,721.9 143.6,706.8 137.6,706.8 "/>
<polygon class="st26" points="143.8,722 147.6,722 158.2,706.8 154.3,706.8 "/>
<rect x="134.2" y="706.3" class="st24" width="1.7" height="15.8"/>
<rect x="147.4" y="706.7" class="st24" width="1.7" height="15.8"/>
<path class="st23" d="M145.4,688.8l-3.7-2.2l-23.2,14.3c-0.5,0.3-0.3,1.2,0.3,1.2h5.1L145.4,688.8z"/>
<rect x="123.1" y="430.5" class="st22" width="37.5" height="14.9"/>
<path class="st22" d="M146.9,460.9h-10.2c-7.5,0-13.7-6.1-13.7-13.7v-2h37.5v2C160.6,454.8,154.4,460.9,146.9,460.9z"/>
<path class="st23" d="M132.9,460.9c-2.8,0-5.1-2.3-5.1-5.1v-4.9h-4.7v4.9c0,2.8,2.3,5.1,5.1,5.1h6l0,0H132.9z"/>
<rect x="123.1" y="435.6" class="st24" width="37.5" height="17.9"/>
<path class="st25" d="M148.2,436.9h-12.5h-9.6c-0.9,0-1.7,0.8-1.7,1.7v11.7c0,1,0.8,1.7,1.7,1.7h9.6h12.5h9.4c0.9,0,1.7-0.8,1.7-1.7
	v-11.7c0-1-0.8-1.7-1.7-1.7H148.2z"/>
<rect x="123.1" y="430.5" class="st23" width="37.5" height="3.4"/>
<path class="st22" d="M141.8,416.7l-15.5,9.5c-2.8,1.7-1.6,6,1.7,6h27.6c3.2,0,4.4-4.3,1.7-6L141.8,416.7z"/>
<polygon class="st26" points="127.1,452.1 133.1,452.1 143.6,437 137.6,437 "/>
<polygon class="st26" points="143.8,452.2 147.6,452.2 158.2,437 154.3,437 "/>
<rect x="134.2" y="436.4" class="st24" width="1.7" height="15.8"/>
<rect x="147.4" y="436.9" class="st24" width="1.7" height="15.8"/>
<path class="st23" d="M145.4,419l-3.7-2.2L118.5,431c-0.5,0.3-0.3,1.2,0.3,1.2h5.1L145.4,419z"/>
<rect x="27.2" y="661.9" class="st22" width="37.5" height="14.9"/>
<path class="st22" d="M51,692.4H40.8c-7.5,0-13.7-6.2-13.7-13.7v-2h37.5v2C64.7,686.2,58.5,692.4,51,692.4z"/>
<path class="st23" d="M37,692.4c-2.8,0-5.1-2.3-5.1-5.1v-4.9h-4.7v4.9c0,2.8,2.3,5.1,5.1,5.1h6l0,0H37z"/>
<rect x="27.2" y="667" class="st24" width="37.5" height="17.9"/>
<path class="st25" d="M52.3,668.4H39.8h-9.6c-1,0-1.7,0.8-1.7,1.7v11.7c0,1,0.8,1.7,1.7,1.7h9.6h12.5h9.4c1,0,1.7-0.8,1.7-1.7v-11.7
	c0-1-0.8-1.7-1.7-1.7L52.3,668.4L52.3,668.4z"/>
<rect x="27.2" y="661.9" class="st23" width="37.5" height="3.4"/>
<path class="st22" d="M45.9,648.2l-15.5,9.5c-2.8,1.7-1.6,6,1.7,6h27.6c3.2,0,4.4-4.3,1.7-6L45.9,648.2z"/>
<polygon class="st26" points="31.1,683.6 37.2,683.6 47.7,668.4 41.7,668.4 "/>
<polygon class="st26" points="47.8,683.6 51.7,683.6 62.3,668.5 58.4,668.5 "/>
<rect x="38.3" y="667.9" class="st24" width="1.7" height="15.8"/>
<rect x="51.5" y="668.3" class="st24" width="1.7" height="15.8"/>
<path class="st23" d="M49.5,650.4l-3.7-2.2l-23.2,14.3c-0.5,0.3-0.3,1.2,0.3,1.2H28L49.5,650.4z"/>
<rect x="-13.7" y="566.9" class="st22" width="37.5" height="14.9"/>
<path class="st22" d="M10.1,597.3H-0.1c-7.5,0-13.7-6.2-13.7-13.7v-2h37.5v2C23.8,591.2,17.6,597.3,10.1,597.3z"/>
<path class="st23" d="M-2.3,597.5c-3,0-5.4-1.8-5.4-3.9v-3.8h-5v3.8c0,2.2,2.4,3.9,5.4,3.9h6.4l0,0H-2.3z"/>
<rect x="-13.7" y="572" class="st24" width="37.5" height="17.9"/>
<path class="st25" d="M11.4,573.3H-1.2h-9.6c-0.9,0-1.7,0.8-1.7,1.7v11.8c0,1,0.8,1.7,1.7,1.7h9.6h12.5h9.4c1,0,1.7-0.8,1.7-1.7V575
	c0-1-0.8-1.7-1.7-1.7H11.4z"/>
<rect x="-13.7" y="566.9" class="st23" width="37.5" height="3.4"/>
<path class="st22" d="M5,553.1l-15.5,9.5c-2.8,1.7-1.6,6,1.7,6h27.6c3.2,0,4.5-4.3,1.7-6L5,553.1z"/>
<polygon class="st26" points="-9.8,588.5 -3.8,588.5 6.8,573.4 0.8,573.4 "/>
<polygon class="st26" points="6.9,588.6 10.8,588.6 21.4,573.4 17.5,573.4 "/>
<rect x="10.6" y="573.3" class="st24" width="1.7" height="15.8"/>
<path class="st23" d="M8.6,555.3l-3.7-2.2l-23.2,14.3c-0.5,0.3-0.3,1.2,0.3,1.2h5.1L8.6,555.3z"/>
<rect x="25.9" y="469.7" class="st22" width="37.5" height="14.9"/>
<path class="st22" d="M49.7,500.1H39.6c-7.5,0-13.7-6.1-13.7-13.7v-2h37.5v2C63.4,494,57.3,500.1,49.7,500.1z"/>
<path class="st23" d="M35.7,500.1c-2.8,0-5.1-2.3-5.1-5.1v-4.9h-4.7v4.9c0,2.8,2.3,5.1,5.1,5.1h6l0,0H35.7z"/>
<rect x="25.9" y="474.8" class="st24" width="37.5" height="17.9"/>
<path class="st25" d="M51,476.1H38.5h-9.6c-1,0-1.7,0.8-1.7,1.7v11.7c0,1,0.8,1.7,1.7,1.7h9.6H51h9.4c1,0,1.7-0.8,1.7-1.7v-11.7
	c0-1-0.8-1.7-1.7-1.7H51z"/>
<rect x="25.9" y="469.7" class="st23" width="37.5" height="3.4"/>
<path class="st22" d="M44.7,455.9l-15.5,9.5c-2.8,1.7-1.6,6,1.7,6h27.6c3.2,0,4.5-4.3,1.7-6L44.7,455.9z"/>
<polygon class="st26" points="29.9,491.3 35.9,491.3 46.4,476.2 40.4,476.2 "/>
<polygon class="st26" points="46.6,491.4 50.5,491.4 61,476.2 57.1,476.2 "/>
<rect x="37" y="475.6" class="st24" width="1.7" height="15.8"/>
<rect x="50.2" y="476.1" class="st24" width="1.7" height="15.8"/>
<g>
	<circle class="st27" cx="278" cy="546" r="9.8"/>
</g>
<path class="st23" d="M48.2,458.2l-3.7-2.2l-23.2,14.3c-0.5,0.3-0.3,1.2,0.3,1.2h5.1L48.2,458.2z"/>
<rect x="218.6" y="469.7" class="st22" width="37.5" height="14.9"/>
<path class="st22" d="M242.4,500.1h-10.2c-7.5,0-13.7-6.1-13.7-13.7v-2h37.5v2C256.1,494,249.9,500.1,242.4,500.1z"/>
<path class="st23" d="M228.4,500.1c-2.8,0-5.1-2.3-5.1-5.1v-4.9h-4.7v4.9c0,2.8,2.3,5.1,5.1,5.1h6l0,0H228.4z"/>
<rect x="218.6" y="474.8" class="st24" width="37.5" height="17.9"/>
<path class="st25" d="M243.7,476.1h-12.5h-9.6c-0.9,0-1.7,0.8-1.7,1.7v11.7c0,1,0.8,1.7,1.7,1.7h9.6h12.5h9.4c0.9,0,1.7-0.8,1.7-1.7
	v-11.7c0-1-0.8-1.7-1.7-1.7H243.7z"/>
<rect x="218.6" y="469.7" class="st23" width="37.5" height="3.4"/>
<path class="st22" d="M237.3,455.9l-15.5,9.5c-2.8,1.7-1.6,6,1.7,6h27.6c3.2,0,4.4-4.3,1.7-6L237.3,455.9z"/>
<polygon class="st26" points="222.5,491.3 228.6,491.3 239.1,476.2 233.1,476.2 "/>
<polygon class="st26" points="239.2,491.4 243.1,491.4 253.7,476.2 249.8,476.2 "/>
<rect x="229.7" y="475.6" class="st24" width="1.7" height="15.8"/>
<rect x="242.9" y="476.1" class="st24" width="1.7" height="15.8"/>
<path class="st23" d="M240.9,458.2l-3.7-2.2L214,470.2c-0.5,0.3-0.3,1.2,0.3,1.2h5.1L240.9,458.2z"/>
<g>
	<circle class="st27" cx="237.2" cy="450.5" r="9.8"/>
</g>
<g>
	<circle class="st27" cx="142.2" cy="411.2" r="9.8"/>
</g>
<g>
	<circle class="st27" cx="142.2" cy="681.8" r="9.8"/>
</g>
<g>
	<circle class="st27" cx="5.4" cy="547" r="9.8"/>
</g>
<g>
	<circle class="st27" cx="45.9" cy="641.8" r="9.8"/>
</g>
<g>
	<ellipse class="st27" cx="44.5" cy="449.7" rx="9.8" ry="10"/>
</g>
<rect x="-3.3" y="573.1" class="st24" width="1.7" height="15.8"/>
<g>
	<line class="st29" x1="116.7" y1="302.9" x2="125.3" y2="321.8"/>
	<line class="st29" x1="146.6" y1="303.6" x2="138" y2="322.5"/>
	<path class="st30" d="M132.3,321.3h-1.2h-6.8c-0.7,0-1.2,0.6-1.2,1.3l1.2,9.6c0.1,1.1,1.1,2,2.2,2h4.5h1.2h4.5c1.1,0,2.1-0.9,2.2-2
		l1.1-9.6c0.1-0.7-0.5-1.3-1.2-1.3H132.3z"/>
	<path class="st30" d="M113.1,300.4h37.3c10.6-8.4,17.7-23.2,17.7-37.7c0-21.8-16.3-34.4-36.4-34.4s-36.4,12.6-36.4,34.4
		C95.3,277.1,102.4,292,113.1,300.4z"/>
	<path class="st30" d="M151,305.6h-38.6c-1,0-1.8-0.8-1.8-1.8v-2.3c0-1,0.8-1.8,1.8-1.8H151c1,0,1.8,0.8,1.8,1.8v2.3
		C152.8,304.8,152,305.6,151,305.6z"/>
	<path class="st31" d="M138,309.3h-12.2c-0.6,0-1.1-0.5-1.1-1.1v-1.4c0-0.6,0.5-1.1,1.1-1.1H138c0.6,0,1.1,0.5,1.1,1.1v1.4
		C139.1,308.8,138.6,309.3,138,309.3z"/>
	<path class="st32" d="M116.5,299.9h30.3c8.6-8.4,14.4-23.2,14.4-37.7c0-21.8-13.2-34.4-29.6-34.4s-29.6,12.6-29.6,34.4
		C102.1,276.7,107.9,291.5,116.5,299.9z"/>
	<path class="st33" d="M121.2,299.9h20.8c5.9-8.4,9.9-23.2,9.9-37.7c0-21.8-9.1-34.4-20.3-34.4s-20.3,12.6-20.3,34.4
		C111.3,276.7,115.3,291.5,121.2,299.9z"/>
	<path class="st30" d="M126.9,299.9h9.5c2.7-8.4,4.5-23.2,4.5-37.7c0-21.8-4.1-34.4-9.3-34.4c-5.1,0-9.3,12.6-9.3,34.4
		C122.4,276.7,124.2,291.5,126.9,299.9z"/>
	<line class="st29" x1="56.5" y1="312.4" x2="66.5" y2="334.1"/>
	<line class="st29" x1="91.1" y1="313.2" x2="81.1" y2="335"/>
	<path class="st34" d="M74.5,333.6h-1.3h-7.8c-0.8,0-1.4,0.7-1.3,1.5l1.3,11.1c0.2,1.3,1.3,2.3,2.6,2.3h5.2h1.3h5.2
		c1.3,0,2.4-1,2.6-2.3l1.3-11.1c0.1-0.8-0.5-1.5-1.3-1.5H74.5z"/>
	<path class="st35" d="M52.4,309.5h42.9c12.2-9.7,20.4-26.8,20.4-43.4c0-25.1-18.8-39.7-41.9-39.7S32,241,32,266.1
		C32,282.7,40.2,299.8,52.4,309.5z"/>
	<path class="st36" d="M96.1,315.6H51.6c-1.1,0-2.1-0.9-2.1-2.1v-2.6c0-1.1,0.9-2.1,2.1-2.1h44.5c1.1,0,2.1,0.9,2.1,2.1v2.6
		C98.2,314.6,97.2,315.6,96.1,315.6z"/>
	<path class="st31" d="M81.1,319.8H67c-0.7,0-1.3-0.6-1.3-1.3v-1.6c0-0.7,0.6-1.3,1.3-1.3h14.1c0.7,0,1.3,0.6,1.3,1.3v1.6
		C82.4,319.2,81.8,319.8,81.1,319.8z"/>
	<path class="st6" d="M56.3,309h34.9c9.9-9.7,16.6-26.8,16.6-43.4c0-25.1-15.2-39.7-34-39.7s-34,14.5-34,39.7
		C39.7,282.2,46.4,299.3,56.3,309z"/>
	<path class="st35" d="M61.8,309h24c6.8-9.7,11.4-26.8,11.4-43.4c0-25.1-10.5-39.7-23.4-39.7s-23.4,14.5-23.4,39.7
		C50.4,282.2,55,299.3,61.8,309z"/>
	<path class="st6" d="M68.3,309h10.9c3.1-9.7,5.2-26.8,5.2-43.4c0-25.1-4.8-39.7-10.7-39.7s-10.7,14.5-10.7,39.7
		C63.1,282.2,65.2,299.3,68.3,309z"/>
</g>
<g>
	<rect x="311.2" y="606" class="st37" width="240.6" height="116.5"/>
	<path class="st38" d="M530.8,762.2H331.4c-20.2,0-36.6-16.4-36.6-36.6l0,0c0-20.2,16.4-36.6,36.6-36.6h199.5
		c20.2,0,36.6,16.4,36.6,36.6l0,0C567.4,745.8,551,762.2,530.8,762.2z"/>
	<path class="st38" d="M552.1,606H310.1c-3.9,0-7.1-3.2-7.1-7.1l0,0c0-3.9,3.2-7.1,7.1-7.1h242.1c3.9,0,7.1,3.2,7.1,7.1l0,0
		C559.2,602.9,556,606,552.1,606z"/>
	<g>
		<rect x="375.4" y="551.9" class="st39" width="26.1" height="39.9"/>
		<rect x="370.2" y="518.8" class="st40" width="36.6" height="19.6"/>
		<path class="st41" d="M406.8,538.4c-5.2,13.6-5.2,13.6-5.2,13.6h-26.1l-5.2-13.6"/>
		<polygon class="st38" points="388.2,502.2 370.4,518.8 406.1,518.8 		"/>
	</g>
	<g>
		<rect x="458.5" y="551.9" class="st39" width="26.1" height="39.6"/>
		<rect x="453.3" y="519" class="st40" width="36.6" height="19.4"/>
		<path class="st41" d="M489.9,538.5c-5.2,13.5-5.2,13.5-5.2,13.5h-26.1l-5.2-13.5"/>
		<polygon class="st38" points="471.3,502.6 453.4,519 489.1,519 		"/>
	</g>
	<path class="st38" d="M385.9,690.1c0-36.7,20.6-66.5,46-66.5s46,29.8,46,66.5"/>
	<path class="st42" d="M394.6,688.3c0-30.9,16.9-56,37.6-56s37.6,25.1,37.6,56"/>
	<g>
		<rect x="334.4" y="632.4" class="st39" width="30.4" height="63.2"/>
		<rect x="328.4" y="584.1" class="st40" width="42.5" height="31.4"/>
		<path class="st41" d="M370.9,615.5c-6.1,16.8-6.1,16.8-6.1,16.8h-30.4l-6.1-16.8"/>
		<polygon class="st38" points="349.3,557.5 328.5,584.1 370,584.1 		"/>
		<polygon class="st43" points="378.4,743.5 320.3,743.5 334.1,695.6 364.5,695.6 		"/>
	</g>
	<g>
		<rect x="495.1" y="633" class="st39" width="30.4" height="62.9"/>
		<rect x="489" y="585" class="st40" width="42.5" height="31.3"/>
		<path class="st41" d="M531.6,616.2c-6.1,16.8-6.1,16.8-6.1,16.8h-30.4l-6.1-16.8"/>
		<polygon class="st38" points="510,558.5 489.2,585 530.7,585 		"/>
		<polygon class="st43" points="539.1,743.5 480.9,743.5 494.8,695.9 525.2,695.9 		"/>
	</g>
	<path class="st44" d="M562.8,743.5c-6.3,11.2-18.2,18.7-31.9,18.7H331.4c-13.7,0-25.6-7.5-31.9-18.7"/>
	<rect x="408.3" y="743.5" class="st43" width="46.3" height="18.7"/>
	<polyline class="st40" points="463,743.5 463,762.5 449.5,762.5 449.5,743.5 	"/>
	<polyline class="st40" points="415,743.5 415,762.2 401.6,762.2 401.6,743.5 	"/>
	<rect x="408.3" y="688.2" class="st39" width="49.3" height="55.3"/>
	<path class="st41" d="M401.6,743.5v-52.7c0-2.3,1.6-4.1,3.5-4.1h6.3c2,0,3.6,1.9,3.6,4.2v52.6"/>
	<path class="st41" d="M449.5,743.5v-52.4c0-2.3,1.6-4.1,3.5-4.1h6.3c2,0,3.6,1.8,3.6,4.1v52.4"/>
</g>
<g>
	<rect x="3" y="756.5" class="st13" width="800" height="43.9"/>
	<ellipse class="st13" cx="761.8" cy="762.6" rx="39.6" ry="34"/>
	<ellipse class="st13" cx="684.3" cy="762.7" rx="39.6" ry="34"/>
	<ellipse class="st13" cx="605.1" cy="762.6" rx="39.6" ry="34"/>
	<ellipse class="st13" cx="527.6" cy="762.7" rx="39.6" ry="34"/>
	<ellipse class="st13" cx="449.4" cy="762.6" rx="39.6" ry="34"/>
	<ellipse class="st13" cx="371.9" cy="762.6" rx="39.6" ry="34"/>
	<ellipse class="st13" cx="292.8" cy="762.6" rx="39.6" ry="34"/>
	<ellipse class="st13" cx="215.3" cy="762.6" rx="39.6" ry="34"/>
	<ellipse class="st13" cx="137.9" cy="762.6" rx="39.6" ry="34"/>
	<ellipse class="st13" cx="60.4" cy="762.7" rx="39.6" ry="34"/>
	<ellipse class="st13" cx="-20.8" cy="757.4" rx="39.6" ry="34"/>
</g>
<path class="st45" d="M298,491.6"/>
<path class="st45" d="M313.4,491.9"/>
<line class="st29" x1="324" y1="471.2" x2="332.7" y2="490.3"/>
<line class="st29" x1="354.2" y1="472" x2="345.5" y2="491"/>
<path class="st46" d="M339.8,489.8h-1.2h-6.8c-0.7,0-1.2,0.6-1.2,1.3l1.1,9.7c0.1,1.1,1.1,2,2.3,2h4.6h1.2h4.6c1.2,0,2.1-0.9,2.3-2
	l1.1-9.7c0.1-0.7-0.5-1.3-1.2-1.3H339.8z"/>
<path class="st47" d="M320.4,468.7h37.5c10.7-8.5,17.9-23.4,17.9-37.9c0-22-16.4-34.6-36.6-34.6c-20.2,0-36.6,12.7-36.6,34.6
	C302.6,445.3,309.7,460.3,320.4,468.7z"/>
<path class="st48" d="M358.6,474h-38.9c-1,0-1.8-0.8-1.8-1.8V470c0-1,0.8-1.8,1.8-1.8h38.9c1,0,1.8,0.8,1.8,1.8v2.3
	C360.4,473.2,359.6,474,358.6,474z"/>
<path class="st49" d="M345.5,477.7h-12.3c-0.6,0-1.1-0.5-1.1-1.1v-1.4c0-0.6,0.5-1.1,1.1-1.1h12.3c0.6,0,1.1,0.5,1.1,1.1v1.4
	C346.7,477.2,346.1,477.7,345.5,477.7z"/>
<path class="st50" d="M323.9,468.3h30.5c8.7-8.5,14.5-23.4,14.5-37.9c0-22-13.3-34.6-29.7-34.6c-16.4,0-29.7,12.7-29.7,34.6
	C309.4,444.9,315.2,459.8,323.9,468.3z"/>
<path class="st51" d="M328.6,468.3h21c6-8.5,10-23.4,10-37.9c0-22-9.2-34.6-20.5-34.6c-11.3,0-20.5,12.7-20.5,34.6
	C318.7,444.9,322.7,459.8,328.6,468.3z"/>
<path class="st52" d="M334.3,468.3h9.6c2.7-8.5,4.5-23.4,4.5-37.9c0-22-4.2-34.6-9.3-34.6s-9.3,12.7-9.3,34.6
	C329.8,444.9,331.6,459.8,334.3,468.3z"/>
<g>
	<path class="st11" d="M83.6,398.7L83.6,398.7C83.6,398.8,83.6,398.7,83.6,398.7L83.6,398.7z"/>
	<path class="st11" d="M71.2,383.1c-1.8,1-3.1,2.6-3.9,4.4c2.1-3.4,6.2-4.9,9.7-4.1c3.6,0.7,6.9,3,8.4,6.1c1.6,3.1,0.8,6.5-1.6,9
		l-0.2,0.2c0,0-0.1,0-0.2,0c-0.3,0.1-0.8,0.2-1.2,0.2c-0.9,0.1-1.8,0.2-2.8,0.3c-1.9,0.2-3.8,0.3-5.7,0.3
		c-7.7,0.2-15.5,0.4-23.3,0.4l-23.4,0.1l-23.4,0.1l-11.7,0.1l-2.9,0c-1.1,0-1.7,0-2.3-0.2c-1.3-0.3-2.3-1-3-2.3
		c-1.4-2.6-1-6.4,0.5-9.4c0.8-1.5,1.9-2.8,3.3-3.8c0.7-0.5,1.4-0.9,2.3-1.3c0.8-0.4,1.7-0.7,2.6-1c6.9-2.3,15.5-1.7,21.4,3.6
		C11.5,383,7.8,381,3.9,380c-0.8-0.2-1.7-0.4-2.5-0.5c8.1-20.8,63.1-25.3,71.4,2.9C72.2,382.6,71.7,382.8,71.2,383.1z"/>
</g>
<path class="st11" d="M697.9,382.9c-1.9-1.2-4.2-1.8-6.4-1.9c-4.5-0.2-9.2,1.6-11.7,5.2c-0.6,0.9-1.1,1.8-1.3,2.9
	c-0.3,1.1-0.5,2.2-0.6,3.3c-0.3,2.2-0.3,4.5,0.6,6.2c0.8,1.8,2.6,2.7,4.7,3c1.1,0.1,2.1,0.1,3.3,0.1l3.5-0.1
	c18.6-0.4,37.2-0.5,55.8-0.5c18.6,0,37.2,0,55.8,0.2l14,0.1l7,0.1l0.8,0c0.3,0,0.6,0,0.8,0c0.5,0,1.1-0.1,1.6-0.2
	c1.1-0.2,2.1-0.6,3-1.1c1.9-1,3.3-2.8,3.6-4.9c0.4-2.1-0.4-4.3-1.9-5.9c-1.5-1.6-3.7-2.6-6-2.2c-2.2,0.4-4.4,1.6-5.5,3.7
	c0.9-2.2,3-3.7,5.4-4.2c0.2,0,0.4-0.1,0.7-0.1l-0.3-0.1c0.9-3.3,0.9-6.8-0.4-10c-1.3-3.2-3.7-5.9-6.8-7.7c-3-1.8-6.7-2.8-10.3-2.5
	c-3.6,0.2-7.2,1.8-9.8,4.4c0.7-0.8,1.4-1.4,2.2-2.1c-0.3-2-1-3.9-2.1-5.5c-1.1-1.6-2.7-2.9-4.4-3.9c-3.5-1.8-7.6-2.3-11.4-1.8
	c-3.8,0.5-7.6,2-10.3,4.5c-2.4,2.2-3.8,5.2-4,8.3c0.3,0,0.6,0,0.9,0c4.3,0.1,8.8,1.5,12,4.6c1.6,1.6,2.7,3.6,3.1,5.8
	s0.2,4.3-0.4,6.2c0.1-2.1-0.1-4.1-0.8-5.9c-0.7-1.8-1.8-3.4-3.2-4.6c-2.9-2.4-6.8-3.5-10.6-3.5c-3.8-0.1-7.8,0.8-10.9,2.9
	c-1.5,1.1-2.9,2.5-3.7,4.2c-0.8,1.8-1.1,3.8-1,5.8c-0.7-2-0.8-4.2-0.2-6.3c0.6-2.1,1.9-4,3.6-5.4c0.2-0.1,0.3-0.3,0.5-0.4
	c-0.8-2.4-2.4-4.5-4.6-6.1c-2.3-1.8-5.1-3-8-3.9c-5.8-1.7-12.1-2.1-18.2-1.2c-6.1,0.9-12.1,3.2-16.8,7.3c-2.3,2-4.3,4.5-5.7,7.3
	c-1.3,2.7-2.1,5.6-2.5,8.6c0,0.1,0,0.2,0,0.3c0.4,0.8,0.8,1.6,0.9,2.5C701.3,386.1,699.8,384.1,697.9,382.9z"/>
<g>
	<path class="st11" d="M489.1,211L489.1,211C489.2,211,489.2,211,489.1,211L489.1,211z"/>
	<path class="st11" d="M497.6,200.4c1.2,0.7,2.1,1.8,2.7,3c-1.4-2.3-4.2-3.3-6.6-2.8c-2.5,0.5-4.7,2.1-5.7,4.1
		c-1.1,2.1-0.5,4.4,1.1,6.1l0.1,0.1c0,0,0.1,0,0.1,0c0.2,0.1,0.5,0.1,0.8,0.2c0.6,0.1,1.2,0.2,1.9,0.2c1.3,0.1,2.6,0.2,3.9,0.2
		c5.3,0.2,10.6,0.3,15.9,0.3l15.9,0.1l15.9,0.1l8,0.1l2,0c0.7,0,1.2,0,1.6-0.1c0.9-0.2,1.6-0.7,2-1.6c1-1.8,0.7-4.4-0.4-6.4
		c-0.5-1-1.3-1.9-2.2-2.6c-0.5-0.4-0.9-0.6-1.6-0.9c-0.5-0.2-1.2-0.5-1.7-0.7c-4.7-1.6-10.5-1.1-14.6,2.4c1.7-2.1,4.2-3.5,6.8-4.1
		c0.6-0.1,1.2-0.2,1.7-0.3c-5.5-14.2-43-17.2-48.6,2C496.9,200,497.3,200.2,497.6,200.4z"/>
</g>
<g>
	<path class="st11" d="M276.2,278.2L276.2,278.2C276.1,278.3,276.2,278.2,276.2,278.2L276.2,278.2z"/>
	<path class="st11" d="M264.2,263c-1.7,1-3,2.5-3.8,4.3c2-3.3,6-4.7,9.4-4c3.5,0.7,6.7,2.9,8.2,5.9c1.6,3,0.8,6.3-1.6,8.7l-0.1,0.2
		c0,0-0.1,0-0.2,0c-0.3,0.1-0.7,0.2-1.1,0.2c-0.9,0.1-1.8,0.2-2.7,0.3c-1.8,0.2-3.7,0.3-5.6,0.3c-7.5,0.2-15,0.4-22.6,0.4l-22.6,0.1
		l-22.6,0.1l-11.3,0.1l-2.9,0c-1.1,0-1.7,0-2.2-0.1c-1.2-0.3-2.2-1-2.9-2.2c-1.4-2.5-1-6.2,0.5-9c0.8-1.5,1.8-2.7,3.2-3.7
		c0.7-0.5,1.3-0.8,2.2-1.2c0.8-0.4,1.6-0.7,2.5-1c6.7-2.3,15-1.6,20.7,3.5c-2.4-3-6-4.9-9.7-5.9c-0.8-0.2-1.6-0.3-2.5-0.5
		c7.8-20.2,61.1-24.5,69.2,2.8C265.2,262.6,264.7,262.8,264.2,263z"/>
</g>
<g>
	<path class="st11" d="M706.1,270.2L706.1,270.2C706.2,270.2,706.1,270.2,706.1,270.2L706.1,270.2z"/>
	<path class="st11" d="M719,253.8c1.9,1.1,3.3,2.7,4.1,4.6c-2.1-3.6-6.4-5.1-10.2-4.3c-3.8,0.7-7.2,3.2-8.8,6.3
		c-1.7,3.2-0.8,6.8,1.7,9.4l0.2,0.2c0,0,0.1,0,0.2,0c0.3,0.1,0.8,0.2,1.2,0.2c0.9,0.1,1.9,0.3,2.9,0.4c2,0.2,4,0.3,6,0.4
		c8.1,0.3,16.2,0.4,24.3,0.4l24.4,0.1l24.5,0.1l12.2,0.1l3.1,0c1.1,0,1.8,0,2.4-0.2c1.3-0.3,2.4-1.1,3.2-2.4
		c1.5-2.7,1.1-6.7-0.6-9.8c-0.8-1.6-2-2.9-3.4-4c-0.7-0.5-1.4-0.9-2.4-1.3c-0.8-0.4-1.8-0.7-2.7-1c-7.2-2.4-16.2-1.7-22.4,3.7
		c2.5-3.2,6.4-5.3,10.5-6.3c0.9-0.2,1.8-0.4,2.7-0.5c-8.4-21.8-66-26.5-74.7,3C718,253.3,718.5,253.5,719,253.8z"/>
</g>
<g>
	<path class="st11" d="M-11.9,207.7L-11.9,207.7C-11.9,207.8-11.9,207.8-11.9,207.7L-11.9,207.7z"/>
	<path class="st11" d="M-3.5,197.1c1.2,0.7,2.1,1.8,2.7,3c-1.4-2.3-4.2-3.3-6.6-2.8c-2.4,0.5-4.7,2.1-5.7,4.1
		c-1.1,2.1-0.5,4.4,1.1,6.1l0.1,0.1c0,0,0.1,0,0.1,0c0.2,0.1,0.5,0.1,0.8,0.2c0.6,0.1,1.2,0.2,1.9,0.2c1.3,0.1,2.6,0.2,3.9,0.2
		c5.3,0.2,10.6,0.3,15.9,0.3l15.9,0.1l15.9,0.1l8,0.1l2,0c0.7,0,1.2,0,1.6-0.1c0.9-0.2,1.6-0.7,2-1.6c1-1.8,0.7-4.4-0.4-6.4
		c-0.5-1-1.3-1.9-2.2-2.6c-0.5-0.4-0.9-0.6-1.6-0.9c-0.5-0.2-1.2-0.5-1.7-0.7c-4.7-1.6-10.5-1.1-14.6,2.4c1.7-2.1,4.2-3.5,6.8-4.1
		c0.6-0.1,1.2-0.2,1.7-0.3c-5.5-14.2-43-17.2-48.7,2C-4.2,196.8-3.8,196.9-3.5,197.1z"/>
</g>
<g>
	<defs>
		
			<rect id="SVGID_1_" x="592.2" y="394.2" transform="matrix(0.922 -0.3872 0.3872 0.922 -129.7257 284.5249)" width="98.3" height="140.2"/>
	</defs>
	<clipPath id="SVGID_2_">
		<use xlink:href="#SVGID_1_"  style="overflow:visible;"/>
	</clipPath>
	<g class="st53">
		
			<rect x="642.7" y="536.8" transform="matrix(0.922 -0.3872 0.3872 0.922 -168.186 307.8771)" class="st3" width="74.8" height="69.3"/>
		<path class="st54" d="M632.3,467.1c-0.5,1.1-0.9,2.3-1.4,3.4c-1.1,2.7-2.2,5.5-3.3,8.2c-1.3,3.3-2.7,6.6-4,9.9
			c-1.2,2.9-2.3,5.7-3.5,8.6c-0.6,1.4-1.2,2.8-1.7,4.2c0,0,0,0,0,0.1c-0.2,0.5,0.1,1.2,0.6,1.4c0.5,0.2,1.2,0,1.4-0.6
			c0.5-1.1,0.9-2.3,1.4-3.4c1.1-2.7,2.2-5.5,3.3-8.2c1.3-3.3,2.7-6.6,4-9.9c1.2-2.9,2.3-5.7,3.5-8.6c0.6-1.4,1.2-2.8,1.7-4.2
			c0,0,0,0,0-0.1c0.2-0.5-0.1-1.2-0.6-1.4C633.2,466.3,632.6,466.6,632.3,467.1z"/>
		<path class="st55" d="M606.6,476.9l1.2,2.8L686,447c0.7-0.3,1-1.1,0.7-1.7l-0.2-0.4c-0.3-0.7-1.1-1-1.7-0.7L606.6,476.9z"/>
		<path class="st55" d="M633.7,466.4c-1.1-0.5-2.3-0.9-3.4-1.4c-2.7-1.1-5.4-2.2-8.2-3.4c-3.3-1.4-6.6-2.7-9.9-4.1
			c-2.9-1.2-5.7-2.4-8.6-3.5c-1.4-0.6-2.8-1.2-4.2-1.7c0,0,0,0-0.1,0c-0.5-0.2-1.2,0.1-1.4,0.6c-0.2,0.6,0.1,1.2,0.6,1.4
			c1.1,0.5,2.3,0.9,3.4,1.4c2.7,1.1,5.4,2.2,8.2,3.4c3.3,1.4,6.6,2.7,9.9,4.1c2.9,1.2,5.7,2.4,8.6,3.5c1.4,0.6,2.8,1.2,4.2,1.7
			c0,0,0,0,0.1,0c0.5,0.2,1.2-0.1,1.4-0.6C634.5,467.3,634.3,466.6,633.7,466.4z"/>
		<path class="st54" d="M620.5,501.4c-0.4-1.1-0.9-2.1-1.3-3.2c-1.1-2.5-2.1-5.1-3.2-7.6c-1.3-3-2.6-6.1-3.8-9.1
			c-1.1-2.6-2.2-5.3-3.3-7.9c-0.5-1.3-1-2.6-1.6-3.9c0,0,0,0,0-0.1c-0.2-0.5-0.9-0.8-1.4-0.6c-0.5,0.3-0.8,0.9-0.6,1.4
			c0.4,1.1,0.9,2.1,1.3,3.2c1.1,2.5,2.1,5.1,3.2,7.6c1.3,3,2.6,6.1,3.8,9.1c1.1,2.6,2.2,5.3,3.3,7.9c0.5,1.3,1,2.6,1.6,3.9
			c0,0,0,0,0,0.1c0.2,0.5,0.9,0.8,1.4,0.6C620.4,502.6,620.7,502,620.5,501.4z"/>
		<path class="st55" d="M609.9,477.1c-0.3-0.8-0.7-1.6-1-2.4c-0.8-1.9-1.6-3.8-2.4-5.8c-0.9-2.3-1.9-4.6-2.8-6.9c-0.8-2-1.6-4-2.5-6
			c-0.4-1-0.8-2-1.2-2.9c0,0,0,0,0,0c-0.2-0.5-0.9-0.8-1.4-0.6c-0.5,0.3-0.8,0.9-0.6,1.4c0.3,0.8,0.7,1.6,1,2.4
			c0.8,1.9,1.6,3.8,2.4,5.8c0.9,2.3,1.9,4.6,2.8,6.9c0.8,2,1.6,4,2.5,6c0.4,1,0.8,2,1.2,2.9c0,0,0,0,0,0c0.2,0.5,0.9,0.8,1.4,0.6
			C609.8,478.2,610.1,477.6,609.9,477.1z"/>
		<path class="st56" d="M598.5,482l98.4,33.3c0,0-7.7-9.4-8.9-13.2c-1.5-4.7-0.8-13.3-2-18.1c-1.1-4.4-7.7-8.4-10.1-16.3
			c-5-16.1,4.4-19.1,4.1-19.9c-0.3-0.8-9.1,3.7-17.1-11.1c-3.9-7.2-2.1-14.7-4.5-18.6c-2.6-4.2-9.3-9.7-11.6-14.1
			c-1.9-3.5-3.2-15.6-3.2-15.6L598.5,482z"/>
		<path class="st57" d="M597.2,481.4l99.3,33.6c0.5,0.2,0.7,0.7,0.6,1.2l-0.1,0.4c-0.2,0.5-0.7,0.7-1.2,0.6l-99.3-33.6
			c-0.5-0.2-0.7-0.7-0.6-1.2l0.1-0.4C596.2,481.5,596.8,481.3,597.2,481.4z"/>
		<path class="st57" d="M596,482.1l45.8-93.8c0.2-0.5,0.8-0.6,1.2-0.4l0.4,0.2c0.5,0.2,0.6,0.8,0.4,1.2L598,483.1
			c-0.2,0.5-0.8,0.6-1.2,0.4l-0.4-0.2C596,483.1,595.8,482.6,596,482.1z"/>
		<path class="st58" d="M598.7,481.5l-0.2,0.6l0.5,0.2l78.3-31.7c1.3-1.5,2.5-2.2,2.7-2.6l-0.1-0.2c-0.3-0.2-1.8,0.3-3.8,0.1
			L598.7,481.5z"/>
		<path class="st55" d="M598.5,477l-2.4,4.9c0,0.1-0.1,0.2-0.1,0.2l0,0c-0.2,0.6,0.1,1.2,0.7,1.4l5.4,1.8c0.2,0.1,0.5-0.1,0.6-0.3
			l0.4-1.3c0.1-0.2-0.1-0.5-0.3-0.6l-4.2-1.4l1.9-3.9c0.1-0.2,0-0.3-0.1-0.4l-1.5-0.7C598.8,476.8,598.6,476.9,598.5,477z"/>
		<path class="st59" d="M691.3,510.8c-1.1-1-2-2.3-2.8-3.6c-0.2-0.4-0.8,0.1-0.6,0.5c0.8,1.3,1.7,2.7,2.9,3.7
			C691.2,511.7,691.6,511.1,691.3,510.8z"/>
		<path class="st59" d="M686.8,503.7c-0.5-1.4-0.9-2.9-1-4.4c0-0.5-0.8-0.4-0.7,0.1c0.2,1.5,0.5,3.2,1.1,4.6
			C686.3,504.5,686.9,504.2,686.8,503.7z"/>
		<path class="st59" d="M685.3,495.1c0-1.6,0-3.1-0.1-4.7c0-0.5-0.8-0.4-0.7,0.1c0.1,1.5,0.1,3,0.1,4.5
			C684.6,495.5,685.3,495.6,685.3,495.1z"/>
		<path class="st59" d="M684.9,486.4c0-0.9-0.1-2-0.5-2.8c-0.4-0.8-0.9-1.6-1.5-2.3c-0.3-0.4-0.9,0.1-0.6,0.5
			c0.5,0.6,1.1,1.4,1.4,2.1c0.4,0.8,0.5,1.8,0.5,2.6C684.2,486.9,684.9,486.8,684.9,486.4z"/>
		<path class="st59" d="M680.5,478.5c0.1,0.1-0.1-0.1-0.1-0.1c-0.1-0.1-0.3-0.3-0.4-0.4c-0.4-0.4-0.7-0.8-1.1-1.2
			c-0.5-0.6-0.9-1.1-1.3-1.7c-0.3-0.4-0.9,0.1-0.6,0.5c1,1.3,2,2.5,3.1,3.6C680.4,479.4,680.9,478.8,680.5,478.5z"/>
		<path class="st59" d="M675.8,472.3c-0.9-1.1-1.5-2.6-1.7-4.1c-0.1-0.5-0.8-0.4-0.7,0.1c0.2,1.6,0.8,3.2,1.9,4.4
			C675.5,473.1,676.1,472.6,675.8,472.3z"/>
		<path class="st59" d="M673.3,464.9c0,0.1,0-0.1,0-0.1c0-0.2-0.1-0.3-0.1-0.5c-0.1-0.5-0.2-1-0.2-1.6c-0.1-0.8-0.1-1.5-0.1-2.3
			c0-0.5-0.7-0.4-0.7,0.1c0,1.6,0.1,3.2,0.5,4.7C672.8,465.7,673.4,465.4,673.3,464.9z"/>
		<path class="st59" d="M672.8,457.2c0-0.7,0.2-1.4,0.3-2.1c0.2-0.8,0.4-1.6,0.8-2.2c0.3-0.4-0.3-0.8-0.6-0.4
			c-0.5,0.7-0.7,1.5-0.9,2.3c-0.2,0.8-0.3,1.6-0.4,2.4C672.1,457.6,672.8,457.7,672.8,457.2z"/>
		<path class="st59" d="M674,449.9c0.8,0.1,1.7,0,2.5-0.2c0.5-0.1,0.4-0.8-0.1-0.7c-0.8,0.2-1.6,0.3-2.3,0.2
			C673.6,449.1,673.5,449.8,674,449.9z"/>
		<path class="st59" d="M641.9,397c0.1,1.2,0.3,2.3,0.6,3.5c0.1,0.5,0.8,0.4,0.7-0.1c-0.3-1.1-0.5-2.3-0.6-3.5
			C642.6,396.4,641.9,396.5,641.9,397z"/>
		<path class="st59" d="M643.9,404.5c0.2,0.4,0.5,0.9,0.8,1.3c0.4,0.7,0.8,1.3,1.3,1.9c0.3,0.4,0.9-0.1,0.6-0.5
			c-0.5-0.6-0.9-1.2-1.3-1.8c-0.3-0.4-0.5-0.8-0.7-1.2C644.4,403.8,643.7,404.1,643.9,404.5z"/>
		<path class="st59" d="M649.1,411.4c1.1,1.1,2.1,2.1,3.1,3.3c0.3,0.3,0.9-0.1,0.6-0.5c-1.1-1.2-2.1-2.3-3.3-3.4
			C649.2,410.5,648.8,411.1,649.1,411.4z"/>
		<path class="st59" d="M654.9,417.7c0.6,0.6,1.2,1.4,1.6,2.2c0.3,0.8,0.4,1.7,0.5,2.5c0,0.5,0.8,0.4,0.7-0.1
			c-0.1-0.9-0.2-1.8-0.6-2.7c-0.3-0.9-1-1.7-1.6-2.4C655.2,416.9,654.6,417.3,654.9,417.7z"/>
		<path class="st59" d="M657.4,425.8c0,1.6,0.2,3.2,0.4,4.7c0.1,0.5,0.8,0.4,0.7-0.1c-0.1-0.7-0.2-1.4-0.3-2.1
			c-0.1-0.5-0.1-1-0.1-1.6c0-0.2,0-0.4,0-0.6c0-0.1,0-0.4,0-0.2C658.1,425.4,657.4,425.3,657.4,425.8z"/>
		<path class="st59" d="M658.5,433.7c0.2,1.6,0.9,3.2,1.9,4.4c0.3,0.4,0.9-0.1,0.6-0.5c-0.9-1.2-1.6-2.6-1.7-4.1
			C659.2,433.1,658.4,433.2,658.5,433.7z"/>
		<path class="st59" d="M662,440.8c0.8,1.4,1.9,2.5,3,3.6c0.3,0.3,0.9-0.1,0.6-0.5c-0.5-0.5-1.1-1.1-1.6-1.7c-0.3-0.4-0.7-0.8-1-1.2
			c-0.1-0.1-0.2-0.3-0.3-0.4c0-0.1-0.1-0.2-0.1-0.1C662.5,440.1,661.8,440.4,662,440.8z"/>
		<path class="st59" d="M667.4,446.9c0.6,0.5,1.3,1,2,1.4c0.7,0.4,1.5,0.8,2.3,0.9c0.5,0.1,0.6-0.6,0.1-0.7
			c-0.8-0.1-1.5-0.5-2.2-0.9c-0.6-0.4-1.2-0.8-1.7-1.3C667.5,446,667.1,446.6,667.4,446.9z"/>
	</g>
</g>
<g>
	<defs>
		
			<rect id="SVGID_3_" x="514.6" y="393.4" transform="matrix(0.9556 -0.2947 0.2947 0.9556 -101.84 177.462)" width="46.6" height="66.5"/>
	</defs>
	<clipPath id="SVGID_4_">
		<use xlink:href="#SVGID_3_"  style="overflow:visible;"/>
	</clipPath>
	<g class="st60">
		
			<rect x="533.5" y="462.6" transform="matrix(0.9556 -0.2947 0.2947 0.9556 -116.6951 183.7086)" class="st3" width="35.5" height="32.9"/>
		<path class="st54" d="M533.5,427.6c-0.3,0.5-0.5,1-0.8,1.6c-0.6,1.2-1.3,2.5-1.9,3.7c-0.8,1.5-1.6,3-2.4,4.5
			c-0.7,1.3-1.4,2.6-2,3.9c-0.3,0.6-0.7,1.3-1,1.9c0,0,0,0,0,0c-0.1,0.2,0,0.6,0.2,0.7s0.6,0,0.7-0.2c0.3-0.5,0.5-1,0.8-1.6
			c0.7-1.2,1.3-2.5,1.9-3.7c0.8-1.5,1.6-3,2.4-4.5c0.7-1.3,1.4-2.6,2-3.9c0.3-0.6,0.7-1.3,1-1.9c0,0,0,0,0,0c0.1-0.2,0-0.6-0.2-0.7
			C533.9,427.2,533.6,427.3,533.5,427.6z"/>
		<path class="st55" d="M520.9,431l0.4,1.4l38.4-11.9c0.3-0.1,0.5-0.5,0.4-0.8l-0.1-0.2c-0.1-0.3-0.5-0.5-0.8-0.4L520.9,431z"/>
		<path class="st55" d="M534.2,427.3c-0.5-0.3-1-0.5-1.5-0.8c-1.2-0.7-2.5-1.3-3.7-2c-1.5-0.8-3-1.6-4.5-2.4
			c-1.3-0.7-2.6-1.4-3.9-2.1c-0.6-0.3-1.2-0.7-1.9-1c0,0,0,0,0,0c-0.2-0.1-0.6,0-0.7,0.2c-0.1,0.2,0,0.6,0.2,0.7
			c0.5,0.3,1,0.5,1.5,0.8c1.2,0.7,2.5,1.3,3.7,2c1.5,0.8,3,1.6,4.5,2.4c1.3,0.7,2.6,1.4,3.9,2.1c0.6,0.3,1.2,0.7,1.9,1c0,0,0,0,0,0
			c0.2,0.1,0.6,0,0.7-0.2C534.5,427.7,534.4,427.4,534.2,427.3z"/>
		<path class="st54" d="M526.3,443.2c-0.2-0.5-0.3-1-0.5-1.6c-0.4-1.2-0.8-2.5-1.1-3.7c-0.5-1.5-0.9-3-1.4-4.5
			c-0.4-1.3-0.8-2.6-1.2-3.9c-0.2-0.6-0.4-1.3-0.6-1.9c0,0,0,0,0,0c-0.1-0.3-0.4-0.4-0.6-0.3c-0.3,0.1-0.4,0.4-0.3,0.6
			c0.2,0.5,0.3,1,0.5,1.6c0.4,1.2,0.8,2.5,1.1,3.7c0.5,1.5,0.9,3,1.4,4.5c0.4,1.3,0.8,2.6,1.2,3.9c0.2,0.6,0.4,1.3,0.6,1.9
			c0,0,0,0,0,0c0.1,0.3,0.4,0.4,0.6,0.3C526.2,443.8,526.4,443.5,526.3,443.2z"/>
		<path class="st55" d="M522.4,431.2c-0.1-0.4-0.2-0.8-0.4-1.2c-0.3-0.9-0.6-1.9-0.8-2.8c-0.3-1.1-0.7-2.3-1-3.4c-0.3-1-0.6-2-0.9-3
			c-0.1-0.5-0.3-1-0.4-1.4c0,0,0,0,0,0c-0.1-0.3-0.4-0.4-0.6-0.3c-0.3,0.1-0.4,0.4-0.3,0.6c0.1,0.4,0.2,0.8,0.4,1.2
			c0.3,0.9,0.6,1.9,0.8,2.8c0.3,1.1,0.7,2.3,1,3.4c0.3,1,0.6,2,0.9,3c0.1,0.5,0.3,1,0.4,1.4c0,0,0,0,0,0c0.1,0.3,0.4,0.4,0.6,0.3
			C522.3,431.8,522.5,431.5,522.4,431.2z"/>
		<path class="st56" d="M516.8,433l44.9,20.3c0,0-3.2-4.8-3.6-6.6c-0.5-2.3,0.2-6.3-0.1-8.7c-0.3-2.1-3.2-4.3-4-8.2
			c-1.6-7.8,3-8.8,2.9-9.2c-0.1-0.4-4.5,1.3-7.6-6c-1.5-3.6-0.3-7.1-1.3-9c-1-2.1-3.9-5-4.8-7.2c-0.7-1.8-0.8-7.5-0.8-7.5L516.8,433
			z"/>
		<path class="st57" d="M516.2,432.7l45.4,20.5c0.2,0.1,0.3,0.4,0.2,0.6l-0.1,0.2c-0.1,0.2-0.4,0.3-0.6,0.2l-45.4-20.5
			c-0.2-0.1-0.3-0.4-0.2-0.6l0.1-0.2C515.8,432.7,516,432.6,516.2,432.7z"/>
		<path class="st57" d="M515.6,433l26-42.2c0.1-0.2,0.4-0.3,0.6-0.1l0.2,0.1c0.2,0.1,0.3,0.4,0.1,0.6l-26,42.2
			c-0.1,0.2-0.4,0.3-0.6,0.1l-0.2-0.1C515.6,433.4,515.5,433.2,515.6,433z"/>
		<path class="st58" d="M516.9,432.8l-0.1,0.2l0.2,0.1l38.5-11.3c0.7-0.7,1.3-0.9,1.4-1.1l0-0.1c-0.2-0.1-0.9,0-1.8-0.1L516.9,432.8
			z"/>
		<path class="st55" d="M517,430.7l-1.4,2.2c0,0,0,0.1-0.1,0.1l0,0c-0.1,0.3,0,0.6,0.3,0.7l2.5,1.1c0.1,0.1,0.2,0,0.3-0.1l0.3-0.6
			c0.1-0.1,0-0.2-0.1-0.3l-1.9-0.9l1.1-1.7c0-0.1,0-0.2,0-0.2l-0.7-0.4C517.2,430.6,517.1,430.6,517,430.7z"/>
		<path class="st59" d="M559.3,450.9c-0.5-0.5-0.8-1.2-1.1-1.8c-0.1-0.2-0.4,0-0.3,0.2c0.3,0.7,0.7,1.3,1.2,1.9
			C559.2,451.4,559.5,451.1,559.3,450.9z"/>
		<path class="st59" d="M557.5,447.4c-0.2-0.7-0.3-1.4-0.3-2.1c0-0.2-0.3-0.2-0.3,0c0,0.7,0.1,1.5,0.3,2.2
			C557.2,447.7,557.5,447.6,557.5,447.4z"/>
		<path class="st59" d="M557.2,443.3c0.1-0.7,0.1-1.5,0.2-2.2c0-0.2-0.3-0.2-0.3,0c0,0.7-0.1,1.4-0.2,2.1
			C556.8,443.4,557.2,443.5,557.2,443.3z"/>
		<path class="st59" d="M557.4,439.1c0-0.4,0-0.9-0.1-1.4c-0.1-0.4-0.4-0.8-0.6-1.2c-0.1-0.2-0.4,0-0.3,0.2c0.2,0.3,0.4,0.7,0.6,1.1
			c0.1,0.4,0.1,0.9,0.1,1.3C557.1,439.3,557.4,439.3,557.4,439.1z"/>
		<path class="st59" d="M555.7,435.2C555.8,435.2,555.7,435.1,555.7,435.2c-0.1-0.2-0.2-0.2-0.2-0.3c-0.2-0.2-0.3-0.4-0.4-0.6
			c-0.2-0.3-0.4-0.6-0.5-0.9c-0.1-0.2-0.4,0-0.3,0.2c0.4,0.6,0.8,1.3,1.3,1.8C555.6,435.6,555.9,435.3,555.7,435.2z"/>
		<path class="st59" d="M553.8,432c-0.4-0.6-0.6-1.3-0.6-2c0-0.2-0.4-0.2-0.3,0c0,0.8,0.2,1.6,0.7,2.2
			C553.6,432.4,553.9,432.2,553.8,432z"/>
		<path class="st59" d="M552.9,428.4C553,428.5,552.9,428.4,552.9,428.4c0-0.1,0-0.2,0-0.3c0-0.2,0-0.5,0-0.7c0-0.4,0-0.7,0.1-1.1
			c0-0.2-0.3-0.2-0.3,0c-0.1,0.7-0.1,1.5,0,2.2C552.7,428.8,553,428.6,552.9,428.4z"/>
		<path class="st59" d="M553.1,424.8c0.1-0.3,0.2-0.7,0.3-1c0.1-0.3,0.3-0.7,0.5-1c0.1-0.2-0.1-0.4-0.3-0.2c-0.3,0.3-0.4,0.7-0.5,1
			c-0.1,0.4-0.2,0.7-0.3,1.1C552.7,424.9,553,425,553.1,424.8z"/>
		<path class="st59" d="M554,421.4c0.4,0.1,0.8,0.1,1.2,0c0.2,0,0.2-0.4,0-0.3c-0.4,0.1-0.7,0.1-1.1,0
			C553.8,421,553.8,421.3,554,421.4z"/>
		<path class="st59" d="M541.3,394.9c0,0.6,0,1.1,0.1,1.7c0,0.2,0.4,0.2,0.3,0c-0.1-0.6-0.1-1.1-0.1-1.7
			C541.6,394.6,541.3,394.7,541.3,394.9z"/>
		<path class="st59" d="M541.9,398.5c0.1,0.2,0.2,0.4,0.3,0.6c0.2,0.3,0.3,0.7,0.5,1c0.1,0.2,0.4,0,0.3-0.2
			c-0.2-0.3-0.4-0.6-0.5-0.9c-0.1-0.2-0.2-0.4-0.3-0.6C542.1,398.2,541.8,398.3,541.9,398.5z"/>
		<path class="st59" d="M544,402c0.5,0.5,0.9,1.1,1.3,1.7c0.1,0.2,0.4,0,0.3-0.2c-0.4-0.6-0.9-1.2-1.4-1.8
			C544.1,401.6,543.9,401.9,544,402z"/>
		<path class="st59" d="M546.5,405.3c0.3,0.3,0.5,0.7,0.6,1.1c0.1,0.4,0.1,0.8,0.1,1.2c0,0.2,0.3,0.2,0.3,0c0-0.4,0-0.9-0.1-1.3
			c-0.1-0.4-0.4-0.8-0.7-1.2C546.6,404.9,546.3,405.1,546.5,405.3z"/>
		<path class="st59" d="M547.2,409.2c-0.1,0.8-0.1,1.5,0,2.3c0,0.2,0.4,0.2,0.3,0c0-0.3,0-0.7,0-1c0-0.2,0-0.5,0-0.7
			c0-0.1,0-0.2,0-0.3c0,0,0-0.2,0-0.1C547.6,409.1,547.3,409,547.2,409.2z"/>
		<path class="st59" d="M547.4,413c0,0.8,0.3,1.5,0.7,2.2c0.1,0.2,0.4,0,0.3-0.2c-0.4-0.6-0.6-1.3-0.6-2
			C547.7,412.8,547.4,412.8,547.4,413z"/>
		<path class="st59" d="M548.7,416.5c0.3,0.7,0.8,1.3,1.2,1.9c0.1,0.2,0.4,0,0.3-0.2c-0.2-0.3-0.5-0.6-0.7-0.9
			c-0.1-0.2-0.3-0.4-0.4-0.6c0-0.1-0.1-0.1-0.1-0.2c0,0,0-0.1,0-0.1C549,416.2,548.7,416.3,548.7,416.5z"/>
		<path class="st59" d="M551,419.6c0.3,0.3,0.6,0.5,0.9,0.8c0.3,0.2,0.7,0.4,1,0.5c0.2,0.1,0.3-0.3,0.1-0.3c-0.4-0.1-0.7-0.3-1-0.5
			c-0.3-0.2-0.5-0.4-0.8-0.7C551.1,419.2,550.9,419.5,551,419.6z"/>
	</g>
</g>
<g>
	<defs>
		
			<rect id="SVGID_5_" x="516.7" y="487.7" transform="matrix(0.9556 -0.2947 0.2947 0.9556 -129.5448 182.2738)" width="46.6" height="66.5"/>
	</defs>
	<clipPath id="SVGID_6_">
		<use xlink:href="#SVGID_5_"  style="overflow:visible;"/>
	</clipPath>
	<g class="st61">
		
			<rect x="535.6" y="556.9" transform="matrix(0.9556 -0.2947 0.2947 0.9556 -144.3999 188.5204)" class="st3" width="35.5" height="32.9"/>
		<path class="st54" d="M535.6,521.9c-0.3,0.5-0.5,1-0.8,1.6c-0.6,1.2-1.3,2.5-1.9,3.7c-0.8,1.5-1.6,3-2.4,4.5
			c-0.7,1.3-1.4,2.6-2,3.9c-0.3,0.6-0.7,1.3-1,1.9c0,0,0,0,0,0c-0.1,0.2,0,0.6,0.2,0.7s0.6,0,0.7-0.2c0.3-0.5,0.5-1,0.8-1.6
			c0.7-1.2,1.3-2.5,1.9-3.7c0.8-1.5,1.6-3,2.4-4.5c0.7-1.3,1.4-2.6,2-3.9c0.3-0.6,0.7-1.3,1-1.9c0,0,0,0,0,0c0.1-0.2,0-0.6-0.2-0.7
			C536.1,521.6,535.7,521.7,535.6,521.9z"/>
		<path class="st55" d="M523,525.3l0.4,1.4l38.4-11.9c0.3-0.1,0.5-0.5,0.4-0.8l-0.1-0.2c-0.1-0.3-0.5-0.5-0.8-0.4L523,525.3z"/>
		<path class="st55" d="M536.3,521.6c-0.5-0.3-1-0.5-1.5-0.8c-1.2-0.7-2.5-1.3-3.7-2c-1.5-0.8-3-1.6-4.5-2.4
			c-1.3-0.7-2.6-1.4-3.9-2.1c-0.6-0.3-1.2-0.7-1.9-1c0,0,0,0,0,0c-0.2-0.1-0.6,0-0.7,0.2c-0.1,0.2,0,0.6,0.2,0.7
			c0.5,0.3,1,0.5,1.5,0.8c1.2,0.7,2.5,1.3,3.7,2c1.5,0.8,3,1.6,4.5,2.4c1.3,0.7,2.6,1.4,3.9,2.1c0.6,0.3,1.2,0.7,1.9,1c0,0,0,0,0,0
			c0.2,0.1,0.6,0,0.7-0.2C536.6,522.1,536.5,521.7,536.3,521.6z"/>
		<path class="st54" d="M528.4,537.5c-0.2-0.5-0.3-1-0.5-1.6c-0.4-1.2-0.8-2.5-1.1-3.7c-0.5-1.5-0.9-3-1.4-4.5
			c-0.4-1.3-0.8-2.6-1.2-3.9c-0.2-0.6-0.4-1.3-0.6-1.9c0,0,0,0,0,0c-0.1-0.3-0.4-0.4-0.6-0.3c-0.3,0.1-0.4,0.4-0.3,0.6
			c0.2,0.5,0.3,1,0.5,1.6c0.4,1.2,0.8,2.5,1.1,3.7c0.5,1.5,0.9,3,1.4,4.5c0.4,1.3,0.8,2.6,1.2,3.9c0.2,0.6,0.4,1.3,0.6,1.9
			c0,0,0,0,0,0c0.1,0.3,0.4,0.4,0.6,0.3C528.3,538.1,528.5,537.8,528.4,537.5z"/>
		<path class="st55" d="M524.5,525.5c-0.1-0.4-0.2-0.8-0.4-1.2c-0.3-0.9-0.6-1.9-0.8-2.8c-0.3-1.1-0.7-2.3-1-3.4c-0.3-1-0.6-2-0.9-3
			c-0.1-0.5-0.3-1-0.4-1.4c0,0,0,0,0,0c-0.1-0.3-0.4-0.4-0.6-0.3c-0.3,0.1-0.4,0.4-0.3,0.6c0.1,0.4,0.2,0.8,0.4,1.2
			c0.3,0.9,0.6,1.9,0.8,2.8c0.3,1.1,0.7,2.3,1,3.4c0.3,1,0.6,2,0.9,3c0.1,0.5,0.3,1,0.4,1.4c0,0,0,0,0,0c0.1,0.3,0.4,0.4,0.6,0.3
			C524.5,526.1,524.6,525.8,524.5,525.5z"/>
		<path class="st56" d="M518.9,527.3l44.9,20.3c0,0-3.2-4.8-3.6-6.6c-0.5-2.3,0.2-6.3-0.1-8.7c-0.3-2.1-3.2-4.3-4-8.2
			c-1.6-7.8,3-8.8,2.9-9.2c-0.1-0.4-4.5,1.3-7.6-6c-1.5-3.6-0.3-7.1-1.3-9c-1-2.1-3.9-5-4.8-7.2c-0.7-1.8-0.8-7.5-0.8-7.5
			L518.9,527.3z"/>
		<path class="st57" d="M518.4,527l45.4,20.5c0.2,0.1,0.3,0.4,0.2,0.6l-0.1,0.2c-0.1,0.2-0.4,0.3-0.6,0.2L517.9,528
			c-0.2-0.1-0.3-0.4-0.2-0.6l0.1-0.2C517.9,527,518.1,526.9,518.4,527z"/>
		<path class="st57" d="M517.7,527.3l26-42.2c0.1-0.2,0.4-0.3,0.6-0.1l0.2,0.1c0.2,0.1,0.3,0.4,0.1,0.6l-26,42.2
			c-0.1,0.2-0.4,0.3-0.6,0.1l-0.2-0.1C517.7,527.8,517.6,527.5,517.7,527.3z"/>
		<path class="st58" d="M519.1,527.1l-0.1,0.2l0.2,0.1l38.5-11.3c0.7-0.7,1.3-0.9,1.4-1.1l0-0.1c-0.2-0.1-0.9,0-1.8-0.1L519.1,527.1
			z"/>
		<path class="st55" d="M519.2,525l-1.4,2.2c0,0,0,0.1-0.1,0.1l0,0c-0.1,0.3,0,0.6,0.3,0.7l2.5,1.1c0.1,0.1,0.2,0,0.3-0.1l0.3-0.6
			c0.1-0.1,0-0.2-0.1-0.3l-1.9-0.9l1.1-1.7c0-0.1,0-0.2,0-0.2l-0.7-0.4C519.3,524.9,519.2,524.9,519.2,525z"/>
		<path class="st59" d="M561.4,545.3c-0.5-0.5-0.8-1.2-1.1-1.8c-0.1-0.2-0.4,0-0.3,0.2c0.3,0.7,0.7,1.3,1.2,1.9
			C561.3,545.7,561.6,545.4,561.4,545.3z"/>
		<path class="st59" d="M559.6,541.7c-0.2-0.7-0.3-1.4-0.3-2.1c0-0.2-0.3-0.2-0.3,0c0,0.7,0.1,1.5,0.3,2.2
			C559.3,542,559.7,541.9,559.6,541.7z"/>
		<path class="st59" d="M559.3,537.6c0.1-0.7,0.1-1.5,0.2-2.2c0-0.2-0.3-0.2-0.3,0c0,0.7-0.1,1.4-0.2,2.1
			C558.9,537.7,559.3,537.8,559.3,537.6z"/>
		<path class="st59" d="M559.5,533.4c0-0.4,0-0.9-0.1-1.4c-0.1-0.4-0.4-0.8-0.6-1.2c-0.1-0.2-0.4,0-0.3,0.2c0.2,0.3,0.4,0.7,0.6,1.1
			c0.1,0.4,0.1,0.9,0.1,1.3C559.2,533.7,559.5,533.7,559.5,533.4z"/>
		<path class="st59" d="M557.8,529.5C557.9,529.6,557.8,529.5,557.8,529.5c-0.1-0.2-0.2-0.2-0.2-0.3c-0.2-0.2-0.3-0.4-0.4-0.6
			c-0.2-0.3-0.4-0.6-0.5-0.9c-0.1-0.2-0.4,0-0.3,0.2c0.4,0.6,0.8,1.3,1.3,1.8C557.8,529.9,558,529.7,557.8,529.5z"/>
		<path class="st59" d="M555.9,526.3c-0.4-0.6-0.6-1.3-0.6-2c0-0.2-0.4-0.2-0.3,0c0,0.8,0.2,1.6,0.7,2.2
			C555.7,526.7,556,526.5,555.9,526.3z"/>
		<path class="st59" d="M555.1,522.8C555.1,522.8,555.1,522.7,555.1,522.8c0-0.1,0-0.2,0-0.3c0-0.2,0-0.5,0-0.7c0-0.4,0-0.7,0.1-1.1
			c0-0.2-0.3-0.2-0.3,0c-0.1,0.7-0.1,1.5,0,2.2C554.8,523.1,555.1,523,555.1,522.8z"/>
		<path class="st59" d="M555.2,519.1c0.1-0.3,0.2-0.7,0.3-1c0.1-0.3,0.3-0.7,0.5-1c0.1-0.2-0.1-0.4-0.3-0.2c-0.3,0.3-0.4,0.7-0.5,1
			c-0.1,0.4-0.2,0.7-0.3,1.1C554.8,519.2,555.2,519.3,555.2,519.1z"/>
		<path class="st59" d="M556.1,515.7c0.4,0.1,0.8,0.1,1.2,0c0.2,0,0.2-0.4,0-0.3c-0.4,0.1-0.7,0.1-1.1,0
			C556,515.3,555.9,515.6,556.1,515.7z"/>
		<path class="st59" d="M543.4,489.2c0,0.6,0,1.1,0.1,1.7c0,0.2,0.4,0.2,0.3,0c-0.1-0.6-0.1-1.1-0.1-1.7
			C543.8,489,543.4,489,543.4,489.2z"/>
		<path class="st59" d="M544,492.9c0.1,0.2,0.2,0.4,0.3,0.6c0.2,0.3,0.3,0.7,0.5,1c0.1,0.2,0.4,0,0.3-0.2c-0.2-0.3-0.4-0.6-0.5-0.9
			c-0.1-0.2-0.2-0.4-0.3-0.6C544.3,492.5,543.9,492.7,544,492.9z"/>
		<path class="st59" d="M546.1,496.4c0.5,0.5,0.9,1.1,1.3,1.7c0.1,0.2,0.4,0,0.3-0.2c-0.4-0.6-0.9-1.2-1.4-1.8
			C546.2,495.9,546,496.2,546.1,496.4z"/>
		<path class="st59" d="M548.6,499.6c0.3,0.3,0.5,0.7,0.6,1.1c0.1,0.4,0.1,0.8,0.1,1.2c0,0.2,0.3,0.2,0.3,0c0-0.4,0-0.9-0.1-1.3
			c-0.1-0.4-0.4-0.8-0.7-1.2C548.7,499.2,548.4,499.4,548.6,499.6z"/>
		<path class="st59" d="M549.4,503.5c-0.1,0.8-0.1,1.5,0,2.3c0,0.2,0.4,0.2,0.3,0c0-0.3,0-0.7,0-1c0-0.2,0-0.5,0-0.7
			c0-0.1,0-0.2,0-0.3c0,0,0-0.2,0-0.1C549.7,503.4,549.4,503.3,549.4,503.5z"/>
		<path class="st59" d="M549.5,507.3c0,0.8,0.3,1.5,0.7,2.2c0.1,0.2,0.4,0,0.3-0.2c-0.4-0.6-0.6-1.3-0.6-2
			C549.9,507.1,549.5,507.1,549.5,507.3z"/>
		<path class="st59" d="M550.9,510.8c0.3,0.7,0.8,1.3,1.2,1.9c0.1,0.2,0.4,0,0.3-0.2c-0.2-0.3-0.5-0.6-0.7-0.9
			c-0.1-0.2-0.3-0.4-0.4-0.6c0-0.1-0.1-0.1-0.1-0.2c0,0,0-0.1,0-0.1C551.1,510.5,550.8,510.6,550.9,510.8z"/>
		<path class="st59" d="M553.1,514c0.3,0.3,0.6,0.5,0.9,0.8c0.3,0.2,0.7,0.4,1,0.5c0.2,0.1,0.3-0.3,0.1-0.3c-0.4-0.1-0.7-0.3-1-0.5
			c-0.3-0.2-0.5-0.4-0.8-0.7C553.2,513.5,553,513.8,553.1,514z"/>
	</g>
</g>
</svg>
